<svg width="1102" height="669" viewBox="0 0 1102 669" fill="none" xmlns="http://www.w3.org/2000/svg">
<path fill-rule="evenodd" clip-rule="evenodd" d="M111.658 55.75C111.658 24.9602 136.654 -2.25463e-06 167.488 0C198.321 2.25463e-06 223.316 24.9602 223.316 55.75C223.316 86.5399 198.321 111.5 167.488 111.5L167.455 111.5C136.642 111.524 111.67 136.474 111.67 167.25C111.67 136.459 86.6756 111.5 55.8411 111.5C86.3988 111.5 111.221 86.986 111.665 56.5769C111.66 56.3017 111.658 56.0261 111.658 55.75ZM229.425 141.872C225.816 148.908 223.661 156.811 223.355 165.186H223.377C223.675 156.812 225.824 148.909 229.425 141.872ZM334.975 165.546V165.186H334.964C333.899 135.331 309.327 111.456 279.171 111.456C278.613 111.456 278.059 111.464 277.505 111.48C247.43 110.613 223.318 85.9954 223.318 55.7527C223.318 86.5435 198.322 111.504 167.488 111.504C198.289 111.504 223.263 136.41 223.316 167.155V611.186H223.378C223.354 611.871 223.341 612.559 223.341 613.25C223.341 644.04 248.337 669 279.171 669C310.004 669 335 644.04 335 613.25C335 612.559 334.988 611.871 334.962 611.186H334.975V168.865C334.992 168.314 335 167.76 335 167.206C335 166.651 334.992 166.098 334.975 165.546ZM55.8293 111.5C24.9957 111.5 2.69556e-06 136.46 0 167.25C-2.69556e-06 198.04 24.9955 223 55.8293 223C86.6629 223 111.658 198.04 111.658 167.25C111.658 136.46 86.6629 111.5 55.8293 111.5Z" fill="#75FEFA"/>
</svg>
