<svg width="115" height="115" viewBox="0 0 115 115" fill="none" xmlns="http://www.w3.org/2000/svg">
<path fill-rule="evenodd" clip-rule="evenodd" d="M57.4041 114.808C89.1076 114.808 114.808 89.1076 114.808 57.4041C114.808 25.7007 89.1076 0 57.4041 0C25.7007 0 0 25.7007 0 57.4041C0 89.1076 25.7007 114.808 57.4041 114.808ZM19.931 52.3921C22.482 34.7192 36.6021 21.0909 54.3659 19.1592C56.5341 18.9228 61.945 19.0501 64.1496 19.3964C68.0305 19.9981 71.4923 21.0909 75.136 22.8764C78.8896 24.6983 82.1332 26.9582 85.0297 29.7819C86.1233 30.8383 86.415 31.2392 86.6333 32.041C86.8697 32.8428 86.8879 33.1702 86.706 33.9538C86.487 34.8829 86.2869 35.1011 75.0633 46.3248L63.6578 57.7667L75.0633 69.1904C86.0134 80.1587 86.487 80.6687 86.6878 81.525C86.8515 82.2169 86.8515 82.636 86.6878 83.3469C86.506 84.1487 86.2688 84.4768 84.9024 85.8432C82.0423 88.6859 78.0341 91.4005 74.1168 93.1496C59.7595 99.5442 43.1976 96.7205 31.7375 85.916C25.3602 79.9222 21.2429 71.9777 19.931 63.1413C19.512 60.3903 19.512 55.2522 19.931 52.3921ZM57.8641 42.6811C59.1759 40.0021 57.9186 36.3948 55.204 35.0102C52.344 33.5347 48.6449 34.792 47.2232 37.6892C46.7859 38.5819 46.7132 38.9465 46.7132 40.2765C46.7132 42.1711 47.1141 43.1547 48.3895 44.4302C49.6286 45.6693 50.9768 46.1611 52.8168 46.0702C55.1131 45.9239 56.8432 44.7765 57.8641 42.6811Z" fill="black"/>
</svg>
