<svg width="151" height="127" viewBox="0 0 151 127" fill="none" xmlns="http://www.w3.org/2000/svg">
<path d="M97.6128 122.045L97.6128 110.696C97.6128 110.017 97.746 109.344 98.0047 108.717C98.2634 108.09 98.6426 107.52 99.1205 107.041C99.5984 106.561 100.166 106.181 100.79 105.922C101.414 105.664 102.083 105.532 102.758 105.533L122.374 105.506C123.696 105.502 124.962 104.971 125.896 104.029C126.829 103.088 127.353 101.812 127.353 100.482L127.353 74.0464L145.938 74.0464C147.28 74.0464 148.568 73.5098 149.517 72.5546C150.467 71.5995 151 70.304 151 68.9531L151 5.48082C151 4.12999 150.467 2.8345 149.517 1.87932C148.568 0.924148 147.28 0.387531 145.938 0.387531L133.186 0.38753C131.843 0.38753 130.556 0.924147 129.606 1.87932C128.657 2.8345 128.124 4.12999 128.124 5.48082L128.124 29.9231L109.691 29.9231C108.511 29.9267 107.381 30.4008 106.548 31.2414C105.715 32.0819 105.247 33.2204 105.247 34.4074L105.247 53.4103C105.247 53.695 105.191 53.9769 105.083 54.2398C104.974 54.5026 104.815 54.7413 104.614 54.942C104.413 55.1426 104.175 55.3014 103.913 55.4091C103.651 55.5167 103.371 55.5712 103.088 55.5694L99.7725 55.5694C99.4896 55.5712 99.209 55.5167 98.9471 55.4091C98.6851 55.3014 98.4469 55.1426 98.2462 54.942C98.0455 54.7413 97.8862 54.5026 97.7775 54.2398C97.6688 53.9769 97.6128 53.695 97.6128 53.4103L97.6128 5.31474C97.6128 4.00796 97.0969 2.7547 96.1785 1.83067C95.2601 0.906643 94.0145 0.387529 92.7157 0.387528L58.2981 0.387527C57.6538 0.385706 57.0155 0.511811 56.4198 0.758611C55.8241 1.00541 55.2826 1.36806 54.8264 1.82577C54.3702 2.28349 54.0082 2.82727 53.7613 3.42597C53.5143 4.02467 53.3872 4.66652 53.3872 5.31473L53.3872 53.3273C53.3836 53.9208 53.1476 54.489 52.7305 54.9087C52.3133 55.3284 51.7486 55.5658 51.1587 55.5694L47.9948 55.5694C47.4038 55.5694 46.837 55.3332 46.419 54.9127C46.0011 54.4922 45.7663 53.9219 45.7663 53.3273L45.7663 32.968C45.7663 32.0576 45.4069 31.1846 44.7671 30.5409C44.1273 29.8972 43.2596 29.5355 42.3548 29.5355L22.8763 29.5355L22.8763 4.3459C22.8763 3.1933 22.4212 2.08789 21.6112 1.27288C20.8011 0.457864 19.7025 -5.7392e-06 18.5569 -5.78927e-06L4.31938 -6.41161e-06C3.17493 0.00364327 2.07838 0.462682 1.26913 1.27691C0.459869 2.09113 0.00363145 3.19442 -1.89966e-07 4.3459L-3.02977e-06 69.313C-3.08015e-06 70.4656 0.455075 71.571 1.26512 72.386C2.07516 73.201 3.17381 73.6589 4.31938 73.6589L23.6466 73.6589L23.6466 99.7897C23.6466 101.203 24.2046 102.558 25.1978 103.558C26.191 104.557 27.5381 105.118 28.9427 105.118L48.435 105.118C49.7484 105.118 51.008 105.643 51.9367 106.578C52.8654 107.512 53.3872 108.779 53.3872 110.101L53.3872 122.059C53.3872 123.369 53.9046 124.626 54.8255 125.553C55.7465 126.479 56.9956 127 58.2981 127L92.7157 127C93.3611 127 94.0002 126.872 94.5961 126.622C95.1921 126.373 95.7331 126.008 96.1882 125.547C96.6433 125.087 97.0035 124.54 97.248 123.939C97.4924 123.338 97.6164 122.695 97.6128 122.045Z" fill="#CCFD38"/>
</svg>
