<svg width="154" height="154" viewBox="0 0 154 154" fill="none" xmlns="http://www.w3.org/2000/svg">
<rect width="154" height="154" rx="77" fill="#424142"/>
<path fill-rule="evenodd" clip-rule="evenodd" d="M111 94C102.048 94 94.7128 87.0812 94.0489 78.2996C94.7074 87.0234 101.95 93.9093 110.821 94.0009C101.515 94.0971 94.0001 101.671 94.0001 111C94.0001 106.857 92.5179 103.06 90.0549 100.11C92.5179 103.06 94 106.857 94 111C94 120.389 86.3888 128 77 128C67.6112 128 60 120.389 60 111C60 101.611 67.6112 94 77 94C77 94 77.0001 94 77.0001 94C86.3762 94 93.9794 86.4095 94 77.0382L94 77C94 67.6112 86.3888 60 77 60C67.6112 60 60 67.6112 60 77C60 86.3888 52.3888 94 43 94C33.6112 94 26 86.3888 26 77C26 67.6112 33.6112 60 43 60C52.3888 60 60 52.3889 60 43C60 33.6112 67.6112 26 77 26C86.3888 26 94 33.6112 94 43C94 52.3889 101.611 60 111 60C120.389 60 128 67.6112 128 77C128 86.3888 120.389 94 111 94Z" fill="#9F9E9F"/>
</svg>
