<svg width="1090" height="855" viewBox="0 0 1090 855" fill="none" xmlns="http://www.w3.org/2000/svg">
<path d="M256.7 384.383H438.302C445.065 384.383 451.552 381.694 456.334 376.907C461.117 372.121 463.803 365.629 463.803 358.86L463.657 25.5224C463.657 18.7534 460.97 12.2617 456.187 7.47534C451.405 2.68896 444.918 0 438.155 0H181.215C174.452 0 167.966 2.68896 163.183 7.47534C158.401 12.2617 155.714 18.7534 155.714 25.5224V129.159C155.714 135.928 153.027 142.419 148.245 147.206C143.462 151.992 136.976 154.681 130.212 154.681H25.5015C22.1526 154.681 18.8365 155.341 15.7425 156.624C12.6485 157.907 9.83727 159.786 7.46923 162.156C5.10119 164.526 3.22276 167.34 1.94119 170.437C0.659619 173.533 0 176.852 0 180.204V669.553C0 676.322 2.68676 682.813 7.46923 687.6C12.2517 692.386 18.7381 695.075 25.5015 695.075H130.212C136.976 695.075 143.462 697.764 148.245 702.55C153.027 707.337 155.714 713.829 155.714 720.598V829.478C155.714 832.833 156.375 836.156 157.66 839.255C158.944 842.355 160.827 845.17 163.2 847.541C165.572 849.912 168.389 851.791 171.489 853.071C174.588 854.35 177.909 855.006 181.262 855L361.055 854.675C367.789 854.663 374.245 851.986 379.014 847.227C383.783 842.469 386.478 836.016 386.51 829.276L387.036 721.649C387.052 718.294 387.729 714.976 389.028 711.883C390.327 708.79 392.223 705.984 394.606 703.625C396.99 701.266 399.815 699.4 402.919 698.135C406.024 696.87 409.348 696.229 412.7 696.251L438.201 696.413C441.565 696.436 444.899 695.792 448.013 694.519C451.126 693.247 453.958 691.37 456.344 688.998C458.73 686.626 460.623 683.805 461.916 680.697C463.208 677.589 463.873 674.257 463.873 670.891V568.283C463.873 564.918 463.208 561.586 461.916 558.478C460.625 555.371 458.732 552.55 456.346 550.178C453.961 547.806 451.131 545.93 448.018 544.657C444.905 543.384 441.572 542.739 438.209 542.761L257.256 543.928C250.521 543.971 244.076 546.679 239.329 551.461C234.581 556.243 231.917 562.71 231.917 569.451V591.825C231.917 598.594 229.23 605.086 224.448 609.873C219.665 614.659 213.179 617.348 206.416 617.348H181.215C174.452 617.348 167.966 614.659 163.183 609.873C158.401 605.086 155.714 598.594 155.714 591.825V251.194C155.714 244.425 158.401 237.934 163.183 233.147C167.966 228.361 174.452 225.672 181.215 225.672H206.276C209.637 225.672 212.965 226.337 216.068 227.628C219.171 228.919 221.988 230.812 224.358 233.197C226.728 235.581 228.604 238.411 229.877 241.524C231.15 244.636 231.796 247.97 231.778 251.334L231.198 358.721C231.18 362.084 231.826 365.418 233.1 368.531C234.373 371.643 236.248 374.473 238.618 376.858C240.988 379.243 243.806 381.135 246.909 382.427C250.012 383.718 253.339 384.383 256.7 384.383V384.383Z" fill="white"/>
<path d="M1063.75 153.915H959.026C952.299 153.916 945.845 151.258 941.068 146.52C936.291 141.782 933.577 135.347 933.518 128.617L932.583 25.2981C932.524 18.5681 929.81 12.1338 925.033 7.39587C920.256 2.65789 913.802 -0.000259865 907.076 1.90545e-08H724.861C721.508 -3.83185e-06 718.188 0.661434 715.091 1.94647C711.994 3.23151 709.18 5.11493 706.811 7.489C704.442 9.86307 702.564 12.6812 701.284 15.7822C700.005 18.8832 699.349 22.2062 699.354 25.5611L699.501 129.646C699.501 133.019 698.833 136.358 697.536 139.471C696.238 142.583 694.337 145.408 691.942 147.781C689.548 150.154 686.706 152.029 683.583 153.297C680.46 154.565 677.116 155.201 673.746 155.168L569.939 154.14C566.568 154.106 563.224 154.741 560.1 156.009C556.975 157.276 554.133 159.151 551.738 161.524C549.342 163.898 547.44 166.723 546.142 169.836C544.845 172.949 544.177 176.289 544.177 179.662V669.769C544.177 676.538 546.864 683.03 551.648 687.816C556.431 692.603 562.919 695.292 569.684 695.292H673.816C680.581 695.292 687.068 697.981 691.852 702.767C696.636 707.553 699.323 714.045 699.323 720.814V829.478C699.323 836.247 702.01 842.738 706.794 847.525C711.577 852.311 718.065 855 724.83 855H906.883C913.648 855 920.135 852.311 924.919 847.525C929.702 842.738 932.39 836.247 932.39 829.478V720.814C932.39 714.045 935.077 707.553 939.861 702.767C944.644 697.981 951.132 695.292 957.897 695.292H1063.79C1070.56 695.292 1077.04 692.603 1081.83 687.816C1086.61 683.03 1089.3 676.538 1089.3 669.769V179.43C1089.3 176.076 1088.64 172.755 1087.35 169.657C1086.07 166.558 1084.18 163.744 1081.81 161.374C1079.44 159.005 1076.62 157.126 1073.52 155.846C1070.42 154.567 1067.1 153.91 1063.75 153.915V153.915ZM854.701 591.818C854.701 598.587 852.013 605.078 847.23 609.865C842.446 614.651 835.959 617.34 829.194 617.34H727.752C720.987 617.34 714.499 614.651 709.716 609.865C704.932 605.078 702.245 598.587 702.245 591.818V259.864C702.245 253.095 704.932 246.604 709.716 241.817C714.499 237.031 720.987 234.342 727.752 234.342H829.194C835.959 234.342 842.446 237.031 847.23 241.817C852.013 246.604 854.701 253.095 854.701 259.864V591.818ZM1006.01 309.749C1006.01 319.8 1002.02 329.439 994.92 336.546C987.817 343.653 978.184 347.646 968.139 347.646C958.094 347.646 948.46 343.653 941.357 336.546C934.255 329.439 930.264 319.8 930.264 309.749V269.532C930.264 259.481 934.255 249.842 941.357 242.735C948.46 235.628 958.094 231.635 968.139 231.635C978.184 231.635 987.817 235.628 994.92 242.735C1002.02 249.842 1006.01 259.481 1006.01 269.532V309.749Z" fill="white"/>
</svg>
