<svg width="179" height="120" viewBox="0 0 179 120" fill="none" xmlns="http://www.w3.org/2000/svg">
<path d="M89.5 90.4167L89.5 119.583" stroke="black" stroke-width="3"/>
<path fill-rule="evenodd" clip-rule="evenodd" d="M13.6672 5C13.6672 2.23858 15.9058 0 18.6672 0H61.1672C63.9287 0 66.1672 2.23858 66.1672 5V6.66675C66.1672 9.42817 68.4058 11.6667 71.1672 11.6667H78.6663C81.4277 11.6667 83.6663 13.9053 83.6663 16.6667V93.3333V93.3334V99.9999C83.6663 102.761 81.4277 105 78.6663 105H71.1663C68.4048 105 66.1663 102.761 66.1663 99.9999V98.3334C66.1663 95.572 63.9277 93.3334 61.1663 93.3334H18.6663C15.9048 93.3334 13.6663 91.0948 13.6663 88.3334V11.6672C13.6663 11.667 13.6665 11.6667 13.6667 11.6667C13.667 11.6667 13.6672 11.6665 13.6672 11.6663V5ZM112.833 98.3334C112.833 95.572 115.072 93.3334 117.833 93.3334H165.333C165.333 93.3334 165.333 93.3334 165.333 93.3334C165.333 93.3334 165.333 93.3332 165.333 93.333V5C165.333 2.23858 163.095 0 160.333 0H117.833C115.072 0 112.833 2.23858 112.833 5V6.66675C112.833 9.42817 110.595 11.6667 107.833 11.6667H100.333C97.5716 11.6667 95.333 13.9053 95.333 16.6667V93.3333V93.3334V99.9999C95.333 102.761 97.5716 105 100.333 105H107.833C110.594 105 112.833 102.761 112.833 99.9999V98.3334Z" fill="#CCFD38"/>
<path d="M2.00049 11.6667V105" stroke="black" stroke-width="3"/>
<path d="M56.8335 105H2.00012" stroke="black" stroke-width="3"/>
<path d="M177 11.6667V105" stroke="black" stroke-width="3"/>
<path d="M122.167 105H177" stroke="black" stroke-width="3"/>
</svg>
