<svg width="41" height="37" viewBox="0 0 41 37" fill="none" xmlns="http://www.w3.org/2000/svg">
<path fill-rule="evenodd" clip-rule="evenodd" d="M28.7344 31.3791C31.4618 31.3791 32.8125 30.0284 32.8125 27.3529V11.4949C32.8125 8.81947 31.4618 7.46875 28.7344 7.46875H6.26564C3.55121 7.46875 2.1875 8.80648 2.1875 11.4949V27.3529C2.1875 30.0414 3.55121 31.3791 6.26564 31.3791H28.7344ZM30.7217 25.9373L23.7603 19.3915C23.1759 18.872 22.5005 18.5993 21.7992 18.5993C21.0849 18.5993 20.4485 18.846 19.851 19.3785L13.9806 24.6255L11.5779 22.4436C11.0324 21.9631 10.435 21.7033 9.82453 21.7033C9.24009 21.7033 8.6946 21.9501 8.14912 22.4306L4.27879 25.9243V11.5989C4.27879 10.2482 4.99311 9.55981 6.29188 9.55981H28.7086C29.9944 9.55981 30.7217 10.2482 30.7217 11.5989V25.9373ZM11.8632 19.5344C13.5387 19.5344 14.9154 18.1577 14.9154 16.4693C14.9154 14.7939 13.5387 13.4042 11.8632 13.4042C10.1748 13.4042 8.79815 14.7939 8.79815 16.4693C8.79815 18.1577 10.1748 19.5344 11.8632 19.5344Z" fill="#9896AE"/>
<path d="M40.2681 4.7832L31 4.7832" stroke="#9896AE" stroke-width="2"/>
<path d="M35.7832 0V9.26807" stroke="#9896AE" stroke-width="2"/>
</svg>
