<svg width="1002" height="183" viewBox="0 0 1002 183" fill="none" xmlns="http://www.w3.org/2000/svg">
<path d="M412.714 67.6026H429.02V10.5308H426.982L372.627 65.5643V67.6026H387.575" stroke="black" stroke-width="4" stroke-miterlimit="10" stroke-linecap="square"/>
<path d="M389.953 49.5303H428.952" stroke="black" stroke-width="3.9" stroke-miterlimit="10" stroke-linecap="square"/>
<path d="M305.636 41.7844H347.285C354.622 41.7844 362.776 37.7079 362.776 26.8371C362.776 15.9662 349.866 13.2485 346.469 13.2485H305.704V70.3204H349.866C359.378 70.3204 362.708 60.129 362.096 54.6936C361.485 49.2581 355.302 41.7844 347.149 41.7844" stroke="black" stroke-width="3.9" stroke-miterlimit="10" stroke-linecap="square"/>
<path d="M290.077 29.2157V13.5889H233.005V70.6607H289.397V55.7133" stroke="black" stroke-width="3.9" stroke-miterlimit="10" stroke-linecap="square"/>
<path d="M271.732 42.1245L233.005 42.1245" stroke="black" stroke-width="3.9" stroke-miterlimit="10" stroke-linecap="square"/>
<path d="M271.732 27.8564V57.0718" stroke="black" stroke-width="3.9" stroke-miterlimit="10" stroke-linecap="square"/>
<path d="M143.321 29.2157V13.5889H86.2495V70.6607H142.642V55.7133" stroke="black" stroke-width="3.9" stroke-miterlimit="10" stroke-linecap="square"/>
<path d="M124.977 42.1245L86.2495 42.1245" stroke="black" stroke-width="3.9" stroke-miterlimit="10" stroke-linecap="square"/>
<path d="M124.977 27.8564V57.0718" stroke="black" stroke-width="3.9" stroke-miterlimit="10" stroke-linecap="square"/>
<path d="M200.392 69.3011H216.019V12.9087H213.981L159.626 67.9422V69.3011H173.894" stroke="black" stroke-width="3.84" stroke-miterlimit="10" stroke-linecap="square"/>
<path d="M59.8193 71.3403H69.3313V85.6083" stroke="black" stroke-width="3.61" stroke-miterlimit="10" stroke-linecap="square"/>
<path d="M17.1512 14.2681H2V71.3399H43.513" stroke="black" stroke-width="3.84" stroke-miterlimit="10" stroke-linecap="square"/>
<path d="M59.1401 12.9092V71.3399" stroke="black" stroke-width="3.84" stroke-miterlimit="10" stroke-linecap="square"/>
<path d="M461.292 39.4065C453.139 39.4065 447.024 32.6122 446.345 26.4974C445.666 20.3826 449.063 10.8706 458.575 10.8706H502.737V67.9424H487.79" stroke="black" stroke-width="3.9" stroke-miterlimit="10" stroke-linecap="square"/>
<path d="M502.126 39.4062H461.225" stroke="black" stroke-width="3.9" stroke-miterlimit="10" stroke-linecap="square"/>
<path d="M462.651 67.9424H447.024V65.9041L472.163 40.0859" stroke="black" stroke-width="3.9" stroke-miterlimit="10" stroke-linecap="square"/>
<path d="M410.335 167.478H426.641V110.406H424.603L370.249 165.44V167.478H385.196" stroke="black" stroke-width="4" stroke-miterlimit="10" stroke-linecap="square"/>
<path d="M387.574 149.406H426.573" stroke="black" stroke-width="3.9" stroke-miterlimit="10" stroke-linecap="square"/>
<path d="M494.923 166.459L548.598 110.067H550.636V166.459H494.923Z" stroke="black" stroke-width="3.9" stroke-miterlimit="10" stroke-linecap="square"/>
<path d="M550.636 166.459H560.148V180.727" stroke="black" stroke-width="3.61" stroke-miterlimit="10" stroke-linecap="square"/>
<path d="M495.603 166.459H486.091V180.727" stroke="black" stroke-width="3.61" stroke-miterlimit="10" stroke-linecap="square"/>
<path d="M883.419 113.464H868.268V170.536H869.627L924.864 114.143H926.155V170.536H909.781" stroke="black" stroke-width="3.84" stroke-miterlimit="10" stroke-linecap="square"/>
<path d="M592.217 110.746H577.065V167.818H578.424L633.662 111.426H634.953V167.818H618.578" stroke="black" stroke-width="3.84" stroke-miterlimit="10" stroke-linecap="square"/>
<path d="M751.407 169.856C767.917 169.856 781.302 156.624 781.302 140.301C781.302 123.978 767.917 110.746 751.407 110.746C734.897 110.746 721.512 123.978 721.512 140.301C721.512 156.624 734.897 169.856 751.407 169.856Z" stroke="black" stroke-width="3.57" stroke-miterlimit="10" stroke-linecap="square"/>
<path d="M813.234 169.856H798.287V113.464H839.732C849.924 113.464 854.68 120.938 854.68 127.052C854.68 134.526 850.603 142 840.412 142H798.287" stroke="black" stroke-width="3.57" stroke-miterlimit="10" stroke-linecap="square"/>
<path d="M651.871 125.693V110.746H708.942V125.693" stroke="black" stroke-width="3.57" stroke-miterlimit="10" stroke-linecap="square"/>
<path d="M681.085 168.497V111.357" stroke="black" stroke-width="3.57" stroke-miterlimit="10" stroke-linecap="square"/>
<path d="M485.411 110.067H500.358V112.105L446.004 167.139H443.966V152.191" stroke="black" stroke-width="3.57" stroke-miterlimit="10" stroke-linecap="square"/>
<path d="M458.234 110.067H443.287V111.426L472.162 140.302" stroke="black" stroke-width="3.57" stroke-miterlimit="10" stroke-linecap="square"/>
<path d="M957.613 142C949.46 142 943.345 135.206 942.665 129.091C941.986 122.976 945.383 113.464 954.895 113.464H999.058V170.536H984.11" stroke="black" stroke-width="3.9" stroke-miterlimit="10" stroke-linecap="square"/>
<path d="M998.446 142H957.544" stroke="black" stroke-width="3.9" stroke-miterlimit="10" stroke-linecap="square"/>
<path d="M958.972 170.536H943.345V168.498L968.484 142.68" stroke="black" stroke-width="3.9" stroke-miterlimit="10" stroke-linecap="square"/>
</svg>
