<svg width="568" height="642" viewBox="0 0 568 642" fill="none" xmlns="http://www.w3.org/2000/svg">
<path d="M265.818 123.178H326.826C329.368 123.178 331.807 122.168 333.605 120.37C335.403 118.572 336.413 116.134 336.413 113.591L336.355 69.6943C336.348 66.6775 335.162 63.7829 333.051 61.6281C330.94 59.4734 328.07 58.2291 325.054 58.1609L289.408 58.0447C286.35 57.9766 283.441 56.718 281.297 54.5368C279.154 52.3555 277.947 49.424 277.932 46.366L277.874 11.7368C277.859 8.62367 276.614 5.64289 274.409 3.4443C272.205 1.24571 269.222 0.00763007 266.108 0H229.591C227.048 0 224.61 1.01005 222.812 2.80796C221.014 4.60586 220.004 7.04434 220.004 9.58696V47.3538C220.004 50.2046 218.871 52.9386 216.856 54.9545C214.84 56.9703 212.106 58.1028 209.255 58.1028H171.343C168.8 58.1028 166.362 59.1128 164.564 60.9107C162.766 62.7086 161.756 65.1471 161.756 67.6897V237.553C161.756 240.096 162.766 242.534 164.564 244.332C166.362 246.13 168.8 247.14 171.343 247.14H210.417C212.96 247.14 215.398 248.15 217.196 249.948C218.994 251.746 220.004 254.184 220.004 256.727V310.124C220.012 312.669 221.028 315.107 222.831 316.904C224.633 318.701 227.075 319.711 229.62 319.711L268.433 319.594C270.968 319.587 273.398 318.578 275.193 316.788C276.988 314.998 278.004 312.572 278.02 310.036L278.194 256.843C278.201 255.581 278.458 254.332 278.948 253.168C279.438 252.004 280.153 250.948 281.051 250.061C281.95 249.173 283.014 248.471 284.184 247.995C285.353 247.519 286.605 247.278 287.868 247.285L326.477 247.344C327.742 247.355 328.997 247.115 330.168 246.638C331.34 246.161 332.405 245.457 333.302 244.565C334.2 243.673 334.911 242.612 335.395 241.443C335.879 240.275 336.126 239.022 336.122 237.757V191.391C336.122 190.127 335.872 188.875 335.387 187.708C334.902 186.541 334.19 185.482 333.294 184.591C332.397 183.7 331.334 182.995 330.164 182.517C328.994 182.038 327.741 181.796 326.477 181.804L265.731 181.658C264.476 181.662 263.233 181.913 262.075 182.397C260.917 182.881 259.866 183.588 258.981 184.478C258.096 185.369 257.395 186.424 256.918 187.585C256.442 188.747 256.198 189.99 256.202 191.245L255.911 239.964C255.911 243.451 252.977 246.937 248.91 246.937C245.308 246.937 241.792 243.741 241.792 239.877V190.258C241.792 189.12 241.567 187.993 241.13 186.942C240.693 185.892 240.052 184.938 239.245 184.136C238.437 183.334 237.479 182.7 236.426 182.269C235.372 181.839 234.244 181.622 233.106 181.629L194.293 181.978C191.593 181.994 188.996 180.944 187.065 179.057C185.135 177.169 184.026 174.597 183.98 171.897L183.632 134.363C183.616 132.935 183.885 131.519 184.421 130.196C184.958 128.873 185.752 127.669 186.757 126.656C187.763 125.642 188.959 124.839 190.278 124.291C191.597 123.744 193.011 123.464 194.439 123.468H230.956C233.792 123.461 236.51 122.333 238.518 120.33C240.526 118.328 241.661 115.613 241.676 112.778L241.792 65.7433C241.792 63.8556 242.542 62.0452 243.877 60.7104C245.212 59.3756 247.022 58.6257 248.91 58.6257C252.687 58.6257 256.173 62.17 256.173 65.6561L255.94 113.533C255.911 118.849 260.502 123.178 265.818 123.178Z" fill="#CCFD38"/>
<path d="M517.636 185.571L469.091 185.658C467.835 185.662 466.593 185.913 465.435 186.397C464.277 186.881 463.226 187.588 462.341 188.478C461.456 189.369 460.755 190.424 460.278 191.585C459.801 192.747 459.558 193.99 459.562 195.245L459.271 251.518C459.271 255.004 456.337 258.49 452.27 258.49C448.668 258.49 445.152 255.295 445.152 251.431V194.258C445.152 193.12 444.927 191.993 444.49 190.942C444.053 189.892 443.412 188.938 442.605 188.136C441.797 187.334 440.839 186.7 439.786 186.269C438.732 185.839 437.604 185.622 436.466 185.629L397.653 185.978C394.953 185.994 392.356 184.944 390.425 183.057C388.495 181.169 387.386 178.597 387.34 175.897L386.991 138.566C386.98 137.113 387.256 135.672 387.804 134.326C388.353 132.98 389.162 131.756 390.185 130.724C391.209 129.692 392.427 128.874 393.768 128.315C395.11 127.756 396.549 127.468 398.002 127.468H434.316C437.152 127.461 439.87 126.333 441.878 124.33C443.886 122.328 445.021 119.613 445.036 116.778L445.152 69.1623C445.152 65.1822 447.912 62.0447 452.27 62.0447C456.047 62.0447 459.533 65.5889 459.533 69.0751L459.3 117.533C459.271 122.849 462.932 127.468 468.248 127.468H517.636V185.571ZM539.715 73.6943C539.708 70.6775 538.522 67.7829 536.411 65.6281C534.299 63.4734 531.43 62.2291 528.414 62.1609L492.768 62.0447C489.71 61.9766 486.8 60.718 484.657 58.5368C482.514 56.3555 481.307 53.424 481.292 50.366L481.234 15.7368C481.219 12.6237 479.973 9.64289 477.769 7.4443C475.565 5.24571 472.581 4.00763 469.468 4H432.951C430.408 4 427.97 5.01005 426.172 6.80796C424.374 8.60586 423.364 11.0443 423.364 13.587V52.5158C423.364 55.0584 422.354 57.4969 420.556 59.2948C418.758 61.0927 416.319 62.1028 413.777 62.1028H374.703C372.16 62.1028 369.722 63.1128 367.924 64.9107C366.126 66.7086 365.116 69.1471 365.116 71.6897V241.553C365.116 244.096 366.126 246.534 367.924 248.332C369.722 250.13 372.16 251.14 374.703 251.14H413.777C416.319 251.14 418.758 252.15 420.556 253.948C422.354 255.746 423.364 258.184 423.364 260.727V314.124C423.371 316.669 424.388 319.107 426.19 320.904C427.993 322.701 430.434 323.711 432.98 323.711L471.792 323.594C474.328 323.587 476.757 322.578 478.553 320.788C480.348 318.998 481.364 316.572 481.379 314.036L481.554 260.843C481.561 259.581 481.818 258.332 482.308 257.168C482.798 256.004 483.513 254.948 484.411 254.061C485.31 253.173 486.374 252.471 487.543 251.995C488.713 251.519 489.965 251.278 491.228 251.285L529.837 251.344C531.102 251.355 532.357 251.115 533.528 250.638C534.7 250.161 535.765 249.457 536.662 248.565C537.559 247.673 538.271 246.612 538.755 245.443C539.239 244.275 539.486 243.022 539.482 241.757L539.715 73.6943Z" fill="#CCFD38"/>
<path d="M499.624 314.191V266.024L525.043 314.307V265.82" stroke="black" stroke-width="12" stroke-linecap="round" stroke-linejoin="round"/>
<path d="M560.922 266.604H542.823V314.568H561.213" stroke="black" stroke-width="12" stroke-linecap="round" stroke-linejoin="round"/>
<path d="M560.776 290.601H543.113" stroke="black" stroke-width="12" stroke-linecap="round" stroke-linejoin="round"/>
<path d="M340.073 314.481L339.928 270.178C339.928 268.58 340.713 267.273 341.729 267.273H359.247C360.235 267.273 361.049 268.58 361.049 270.178V298.91C361.049 300.508 360.235 301.815 359.247 301.815H342.485" stroke="black" stroke-width="12" stroke-linecap="round" stroke-linejoin="round"/>
<path d="M359.073 304.633L363.402 316.021C363.563 316.436 363.62 316.884 363.568 317.326C363.517 317.767 363.358 318.19 363.106 318.556C362.854 318.923 362.517 319.222 362.123 319.428C361.729 319.635 361.29 319.742 360.845 319.74H355.558C355 319.734 354.456 319.558 354 319.236C353.544 318.915 353.195 318.462 353.002 317.939L348.789 306.551C348.634 306.138 348.582 305.693 348.636 305.255C348.69 304.817 348.85 304.399 349.101 304.037C349.353 303.674 349.688 303.378 350.079 303.173C350.47 302.968 350.904 302.861 351.346 302.861H356.517C357.074 302.853 357.621 303.019 358.079 303.337C358.538 303.655 358.885 304.108 359.073 304.633Z" fill="black"/>
<path d="M382.953 270.643V310.734C382.953 312.593 383.738 314.104 384.725 314.104L400.936 314.191C401.924 314.191 402.737 312.68 402.737 310.821V270.643C402.737 268.784 401.924 267.273 400.936 267.273H384.725C383.738 267.273 382.953 268.784 382.953 270.643Z" stroke="black" stroke-width="12" stroke-miterlimit="10"/>
<path d="M396.113 272.125H389.577C388.181 272.125 387.049 273.256 387.049 274.652V307.782C387.049 309.178 388.181 310.31 389.577 310.31H396.113C397.509 310.31 398.641 309.178 398.641 307.782V274.652C398.641 273.256 397.509 272.125 396.113 272.125Z" fill="white"/>
<path d="M298.297 270.643V310.734C298.297 312.594 299.111 314.104 300.099 314.104L316.309 314.191C317.297 314.191 318.081 312.681 318.081 310.821V270.643C318.081 268.784 317.297 267.273 316.309 267.273H300.099C299.111 267.273 298.297 268.784 298.297 270.643Z" stroke="black" stroke-width="12" stroke-miterlimit="10"/>
<path d="M311.458 272.125H304.921C303.525 272.125 302.394 273.256 302.394 274.652V307.782C302.394 309.178 303.525 310.31 304.921 310.31H311.458C312.853 310.31 313.985 309.178 313.985 307.782V274.652C313.985 273.256 312.853 272.125 311.458 272.125Z" fill="white"/>
<path d="M353.756 271.805H347.22C345.824 271.805 344.692 272.937 344.692 274.333V294.843C344.692 296.239 345.824 297.37 347.22 297.37H353.756C355.152 297.37 356.284 296.239 356.284 294.843V274.333C356.284 272.937 355.152 271.805 353.756 271.805Z" fill="white"/>
<path d="M184 637.178H212.317V348.178H299L212.461 435.371" stroke="black" stroke-width="4" stroke-miterlimit="10"/>
<path d="M561 493.678V348.178H416L561 493.678ZM561 493.678V639.178H532" stroke="black" stroke-width="4" stroke-miterlimit="10"/>
<path d="M2 289.325C2 337.865 40.9535 377.178 88.9855 377.178C137.018 377.178 176 337.865 176 289.325H88.4924V260.178" stroke="black" stroke-width="4" stroke-miterlimit="10"/>
<path d="M2 173.543V144.178H88.5672L89 202.762C41.1861 202.762 2.46169 241.809 2.46169 289.955C2.46169 338.102 41.1861 377.178 89 377.178" stroke="black" stroke-width="4" stroke-miterlimit="10"/>
</svg>
