<svg width="56" height="56" viewBox="0 0 56 56" fill="none" xmlns="http://www.w3.org/2000/svg">
<path d="M27.3571 21.5546L18.2383 34.8184L23.2122 39.7923L36.476 29.8444V20.7256L27.3571 21.5546Z" fill="#9896AE" stroke="#9896AE" stroke-width="1.65797"/>
<path d="M25.6996 17.4094L17.4097 29.8442C14.0937 23.8755 14.9227 16.3041 15.7517 13.2645C23.0468 11.9381 23.7653 7.18524 24.0416 4.97461H41.4503C41.4503 12.9329 47.5295 14.3698 50.5692 14.0935C51.8955 43.2738 36.7527 47.8056 29.0155 46.4239L30.6735 43.937L28.1865 41.45L40.6213 30.6732L39.7923 15.7514L25.6996 17.4094Z" fill="#9896AE" stroke="#9896AE" stroke-width="1.65797"/>
<path d="M24.8705 44.7661L13.2647 33.9893L12.4357 34.8182L14.9227 39.7922L10.7777 44.7661H8.29079L6.63281 46.4241L12.4357 52.227L14.0937 49.74V47.253L18.2386 43.1081L24.0415 45.5951L24.8705 44.7661Z" fill="#9896AE" stroke="#9896AE" stroke-width="1.65797"/>
</svg>
