<svg width="56" height="56" viewBox="0 0 56 56" fill="none" xmlns="http://www.w3.org/2000/svg">
<path d="M6.55322 39.0893V11.6778C6.55322 11.2375 7.01454 10.9493 7.41029 11.1425L18.1337 16.3768C18.3383 16.4766 18.4681 16.6844 18.4681 16.9121V44.3236C18.4681 44.764 18.0068 45.0521 17.611 44.859L6.88764 39.6247C6.68302 39.5248 6.55322 39.317 6.55322 39.0893Z" fill="#9896AE"/>
<path d="M33.957 39.0888V11.6774C33.957 11.237 33.4957 10.9488 33.1 11.142L22.3766 16.3763C22.1719 16.4762 22.0421 16.6839 22.0421 16.9116V44.3231C22.0421 44.7635 22.5035 45.0516 22.8992 44.8585L33.6226 39.6242C33.8272 39.5243 33.957 39.3165 33.957 39.0888Z" fill="#9896AE"/>
<path fill-rule="evenodd" clip-rule="evenodd" d="M37.5312 39.089V11.6775C37.5312 11.2372 37.9926 10.949 38.3883 11.1422L49.1117 16.3765C49.3163 16.4764 49.4461 16.6841 49.4461 16.9118V44.3233C49.4461 44.7637 48.9848 45.0518 48.5891 44.8587L37.8657 39.6244C37.661 39.5245 37.5312 39.3167 37.5312 39.089ZM41.6301 21.2245L39.5059 19.1003L40.7696 17.8365L42.8939 19.9607L45.0181 17.8365L46.2818 19.1003L44.1576 21.2245L46.5047 23.5716L45.241 24.8354L42.8939 22.4883L40.5467 24.8354L39.283 23.5716L41.6301 21.2245Z" fill="#9896AE"/>
</svg>
