<svg width="56" height="56" viewBox="0 0 56 56" fill="none" xmlns="http://www.w3.org/2000/svg">
<path d="M15.0025 7.65224C14.9437 7.06355 15.4059 6.55273 15.9976 6.55273H19.3493C19.863 6.55273 20.2932 6.94203 20.3443 7.45323L21.3358 17.3681C21.3947 17.9568 20.9324 18.4676 20.3408 18.4676H16.9891C16.4753 18.4676 16.0451 18.0783 15.994 17.5671L15.0025 7.65224Z" fill="#9896AE"/>
<rect x="16.6797" y="18.4668" width="5.95745" height="22.0426" rx="2" transform="rotate(-90 16.6797 18.4668)" fill="#9896AE"/>
<rect x="11.9141" y="49.4473" width="4.17022" height="31.5745" rx="1" transform="rotate(-90 11.9141 49.4473)" fill="#9896AE"/>
<rect x="15.4883" y="42.8926" width="4.17022" height="24.4255" rx="1" transform="rotate(-90 15.4883 42.8926)" fill="#9896AE"/>
<rect x="25.0195" y="5.36133" width="5.3617" height="13.1064" rx="1" fill="#9896AE"/>
<path d="M21.0149 21.6963C21.0914 21.2099 21.5105 20.8516 22.0028 20.8516H33.9947C34.487 20.8516 34.9061 21.2099 34.9826 21.6963L37.9449 40.5474C38.0402 41.1541 37.5712 41.7026 36.957 41.7026H19.0405C18.4263 41.7026 17.9573 41.1541 18.0526 40.5474L21.0149 21.6963Z" fill="#9896AE"/>
<path d="M35.0585 7.45323C35.1096 6.94203 35.5398 6.55273 36.0535 6.55273H39.6753C40.2768 6.55273 40.7422 7.07992 40.6676 7.67677L39.4282 17.5917C39.3657 18.0921 38.9403 18.4676 38.436 18.4676H35.062C34.4704 18.4676 34.0081 17.9568 34.067 17.3681L35.0585 7.45323Z" fill="#9896AE"/>
</svg>
