<svg width="57" height="57" viewBox="0 0 57 57" fill="none" xmlns="http://www.w3.org/2000/svg">
<circle cx="28.5494" cy="28.5494" r="17.9728" stroke="#9896AE" stroke-width="3.15313"/>
<path fill-rule="evenodd" clip-rule="evenodd" d="M12.4677 25.3965C12.1524 26.868 12.4045 30.0001 15.936 29.4956C17.8422 29.2233 19.2767 28.0449 20.7998 26.7937C22.804 25.1473 24.9617 23.3749 28.5494 23.375C31.9659 23.3751 34.2541 25.263 36.2916 26.9441C37.827 28.2108 39.2199 29.3601 40.8458 29.4956C43.6837 29.7321 44.9364 27.6874 44.6296 25.3965C46.1431 29.6848 45.8908 35.4865 41.4765 38.6396C45.8908 33.2793 37.945 31.6397 33.909 31.3874C30.0655 31.1472 30.6828 39.943 31.8397 44.3227C31.9307 44.6672 31.7323 45.0253 31.3838 45.0992C29.3066 45.5402 27.4023 45.3495 26.3047 45.106C25.9703 45.0317 25.7913 44.6876 25.8775 44.356C27.008 40.0076 27.2819 31.3874 23.1883 31.3874C18.9001 31.3874 11.5217 34.2253 16.5667 39.9009L11.8371 36.4325L10.8911 29.4956L11.2064 25.0812L12.4677 25.3965ZM28.5499 28.7727C30.2913 28.7727 31.703 28.208 31.703 27.5114C31.703 26.8148 30.2913 26.2502 28.5499 26.2502C26.8084 26.2502 25.3967 26.8148 25.3967 27.5114C25.3967 28.208 26.8084 28.7727 28.5499 28.7727Z" fill="#9896AE"/>
<path d="M26.6571 38.6401C26.6571 44.0005 24.2365 44.0747 21.6121 43.3698L23.1886 44.9464L26.0264 45.8923L27.2877 44.9464L26.6571 38.6401Z" fill="#9896AE"/>
<path d="M31.0717 39.9009C31.387 44.3153 34.2248 43.9999 36.7473 42.7387L34.5401 44.6306L31.7023 45.5765L30.4411 44.6306L31.0717 39.9009Z" fill="#9896AE"/>
</svg>
