<svg width="56" height="56" viewBox="0 0 56 56" fill="none" xmlns="http://www.w3.org/2000/svg">
<g clip-path="url(#clip0)">
<path fill-rule="evenodd" clip-rule="evenodd" d="M30.822 32.6682C34.723 34.4475 39.4784 33.728 42.6829 30.5235C44.9237 28.2827 46.8297 25.0419 47.4857 21.7692C48.1282 18.5631 47.5599 15.5061 45.1578 13.104C42.7557 10.7019 39.6987 10.1336 36.4927 10.7762C33.22 11.4321 29.9792 13.3381 27.7383 15.579C24.4173 18.9 23.7659 23.8868 25.7968 27.86C26.6082 29.4474 26.4944 31.6325 24.9319 33.0648L16.875 40.4503L18.0954 41.6708L25.8655 33.5553C27.2461 32.1134 29.285 31.9671 30.822 32.6682ZM29.8331 34.8362C29.0747 34.4903 28.1633 34.6012 27.5868 35.2033L19.3956 43.7585C18.7025 44.4825 17.5496 44.495 16.8409 43.7863L14.75 41.6953C14.0305 40.9758 14.056 39.8017 14.8061 39.1141L23.3217 31.3081C23.9733 30.7108 24.0773 29.7318 23.675 28.9446C21.1875 24.0781 21.9803 17.967 26.0533 13.894C31.1107 8.83652 40.6555 5.23165 46.8428 11.419C53.0302 17.6064 49.4253 27.1511 44.3679 32.2086C40.4375 36.1389 34.6093 37.0148 29.8331 34.8362Z" fill="#9896AE"/>
<path fill-rule="evenodd" clip-rule="evenodd" d="M24.127 23.5322L36.0418 34.5535L41.4035 33.0641L45.2759 28.596L48.2546 22.9365L48.8504 17.5748L46.7652 13.4045L41.9993 9.83008H37.2333L33.9567 10.7237L28.595 13.4045L26.2121 15.1918L25.6163 16.0854L24.127 20.2556V23.5322ZM38.7227 22.6386C40.6968 22.6386 42.2972 21.0382 42.2972 19.0641C42.2972 17.09 40.6968 15.4897 38.7227 15.4897C36.7486 15.4897 35.1482 17.09 35.1482 19.0641C35.1482 21.0382 36.7486 22.6386 38.7227 22.6386Z" fill="#9896AE"/>
<path fill-rule="evenodd" clip-rule="evenodd" d="M15.2303 34.6319C16.7686 33.1834 18.6488 31.3947 19.6598 30.3837C20.5023 29.5412 20.6528 28.8943 20.5535 28.5965C16.9056 19.4768 22.2374 12.7203 25.488 10.4137C20.372 7.53209 13.8132 6.64186 9.15622 11.2988C2.96886 17.4862 6.57373 27.0309 11.6312 32.0883C12.7085 33.1657 13.9285 34.0135 15.2303 34.6319ZM31.1772 37.9707C34.9468 38.7609 38.1644 38.2314 39.7753 37.6942L41.1934 38.994C41.9434 39.6816 41.9689 40.8558 41.2494 41.5753L39.1585 43.6662C38.4498 44.3749 37.2969 44.3624 36.6038 43.6384L31.1772 37.9707Z" fill="#9896AE"/>
</g>
<defs>
<clipPath id="clip0">
<rect width="56" height="56" fill="white"/>
</clipPath>
</defs>
</svg>
