<svg width="57" height="57" viewBox="0 0 57 57" fill="none" xmlns="http://www.w3.org/2000/svg">
<path fill-rule="evenodd" clip-rule="evenodd" d="M19.8364 18.1835C19.5104 18.0111 19.497 17.5755 19.7684 17.3258L28.5739 9.22538C28.8202 8.99887 29.2034 9.01485 29.4299 9.26107L36.6238 17.0812C36.8825 17.3624 37.3362 17.3362 37.5071 16.9945C37.7604 16.488 37.8945 15.9811 37.9466 15.5505C37.9501 15.5214 37.951 15.4922 37.9502 15.4628C37.9475 15.3592 37.9481 15.2548 37.9523 15.1498C38.0544 12.597 40.205 10.6107 42.7559 10.7132C45.3068 10.8158 47.292 12.9684 47.1899 15.5212C47.0879 18.074 44.9372 20.0603 42.3863 19.9577C42.2382 19.9517 42.092 19.9389 41.948 19.9194C41.3671 19.9145 40.859 19.9882 40.4156 20.1218C40.0365 20.236 39.955 20.7023 40.223 20.9936L47.4233 28.8207C47.6498 29.0669 47.6338 29.4501 47.3876 29.6766L38.9921 37.3999C38.6954 37.6728 38.2212 37.5813 38.1256 37.1898C38.0437 36.8547 37.9984 36.4808 37.9986 36.0642C38.0148 35.9368 38.0251 35.8076 38.0294 35.6767C38.102 33.4228 36.3323 31.5371 34.0767 31.4649C31.8211 31.3928 29.9337 33.1615 29.8611 35.4154C29.7885 37.6693 31.5581 39.555 33.8137 39.6272C33.9049 39.6301 33.9954 39.63 34.0852 39.627C34.1145 39.626 34.1438 39.6267 34.1729 39.63C34.4831 39.6655 34.8381 39.7487 35.2016 39.8975C35.5657 40.0466 35.6048 40.5159 35.3152 40.7824L27.828 47.67C27.5818 47.8966 27.1986 47.8806 26.9721 47.6344L19.8623 39.9058C19.5905 39.6103 19.1118 39.6588 18.9665 40.0331C18.8693 40.2835 18.7961 40.5354 18.7432 40.7802C18.7292 40.8453 18.7279 40.9124 18.7355 40.9786C18.7624 41.2133 18.7716 41.453 18.7619 41.6964C18.6598 44.2492 16.5092 46.2355 13.9583 46.1329C11.4074 46.0304 9.42225 43.8778 9.5243 41.325C9.62636 38.7722 11.777 36.7859 14.3279 36.8885C14.5764 36.8985 14.8195 36.9279 15.0558 36.9753C15.1415 36.9924 15.2299 36.9944 15.3151 36.9749C15.5532 36.9203 15.777 36.8543 15.9873 36.7786C16.3579 36.645 16.4361 36.1813 16.1694 35.8914L8.97864 28.0748C8.75213 27.8285 8.76811 27.4453 9.01434 27.2188L16.3743 20.4481C16.6402 20.2036 17.0627 20.2443 17.2256 20.5667C17.3813 20.875 17.5111 21.2238 17.6059 21.6176C17.6263 21.7026 17.6249 21.791 17.6087 21.8769C17.5703 22.0812 17.547 22.291 17.5401 22.5052C17.4675 24.7592 19.2371 26.6448 21.4927 26.717C23.7483 26.7891 25.6357 25.0204 25.7083 22.7665C25.781 20.5126 24.0113 18.6269 21.7557 18.5548C21.5447 18.548 21.3369 18.5574 21.1335 18.5817C21.0673 18.5897 21.0003 18.589 20.9351 18.5753C20.5746 18.4994 20.1965 18.374 19.8364 18.1835Z" fill="#9896AE"/>
</svg>
