<svg width="56" height="56" viewBox="0 0 56 56" fill="none" xmlns="http://www.w3.org/2000/svg">
<path fill-rule="evenodd" clip-rule="evenodd" d="M27.9993 42.2991C35.8957 42.2991 42.2971 35.8977 42.2971 28.0012C42.2971 20.1047 35.8957 13.7033 27.9993 13.7033C20.1028 13.7033 13.7014 20.1047 13.7014 28.0012C13.7014 35.8977 20.1028 42.2991 27.9993 42.2991ZM27.9993 45.2778C37.5409 45.2778 45.2758 37.5428 45.2758 28.0012C45.2758 18.4596 37.5409 10.7246 27.9993 10.7246C18.4577 10.7246 10.7227 18.4596 10.7227 28.0012C10.7227 37.5428 18.4577 45.2778 27.9993 45.2778Z" fill="#9896AE"/>
<path d="M30.3831 28.0002C30.3831 29.3162 29.3162 30.3831 28.0002 30.3831C26.6841 30.3831 25.6172 29.3162 25.6172 28.0002C25.6172 26.6841 26.6841 25.6172 28.0002 25.6172C29.3162 25.6172 30.3831 26.6841 30.3831 28.0002Z" fill="#9896AE"/>
<path d="M26.2129 7.14848C26.2129 6.81946 26.4796 6.55273 26.8086 6.55273H29.1916C29.5206 6.55273 29.7874 6.81946 29.7874 7.14848V21.4464C29.7874 21.7754 29.5206 22.0421 29.1916 22.0421H26.8086C26.4796 22.0421 26.2129 21.7754 26.2129 21.4464V7.14848Z" fill="#9896AE"/>
<path d="M26.2129 33.9571C26.2129 33.6281 26.4796 33.3613 26.8086 33.3613H29.1916C29.5206 33.3613 29.7874 33.6281 29.7874 33.9571V48.2549C29.7874 48.584 29.5206 48.8507 29.1916 48.8507H26.8086C26.4796 48.8507 26.2129 48.584 26.2129 48.2549V33.9571Z" fill="#9896AE"/>
<path d="M7.14848 29.7871C6.81946 29.7871 6.55273 29.5204 6.55273 29.1914V26.8084C6.55273 26.4794 6.81946 26.2126 7.14848 26.2126H21.4464C21.7754 26.2126 22.0421 26.4794 22.0421 26.8084V29.1914C22.0421 29.5204 21.7754 29.7871 21.4464 29.7871H7.14848Z" fill="#9896AE"/>
<path d="M33.9571 29.7871C33.6281 29.7871 33.3613 29.5204 33.3613 29.1914V26.8084C33.3613 26.4794 33.6281 26.2126 33.9571 26.2126H48.2549C48.584 26.2126 48.8507 26.4794 48.8507 26.8084V29.1914C48.8507 29.5204 48.584 29.7871 48.2549 29.7871H33.9571Z" fill="#9896AE"/>
</svg>
