<svg width="87" height="36" viewBox="0 0 87 36" fill="none" xmlns="http://www.w3.org/2000/svg">
<path d="M83.0266 6.14972C81.6146 6.14972 79.9872 5.16118 79.9872 3.19323C79.9872 1.60065 78.6528 0.301758 77.0137 0.301758H52.9863C51.3476 0.301758 50.0128 1.60065 50.0128 3.19323C50.0128 4.68299 48.7356 6.14972 46.9734 6.14972C45.3348 6.14972 44 7.44862 44 9.04119V26.5625C44 28.1551 45.3348 29.454 46.9734 29.454C48.5039 29.454 50.0128 30.6953 50.0128 32.4105C50.0128 34.0033 51.3476 35.3018 52.9863 35.3018H77.0137C78.6528 35.3018 79.9872 34.0033 79.9872 32.4105C79.9872 31.0361 81.0045 29.454 83.0266 29.454C84.6652 29.454 86 28.1551 86 26.5625V9.01862C86 7.42349 84.6629 6.14972 83.0266 6.14972ZM77.0137 29.519H52.9863C51.5742 29.519 49.9468 28.5304 49.9468 26.5625V9.01862V9.01716V9.01571V9.01425V9.0128V9.01135V9.00985V9.00835V9.00689V9.00544V9.00389V9.00235V9.00085V9.00003V8.99849V8.99699V8.99617C49.9468 7.62176 50.9642 6.03959 52.9863 6.03959H77.0137C78.5442 6.03959 80.0532 7.28088 80.0532 8.99608V26.5173C80.0532 28.0328 78.7732 29.519 77.0137 29.519Z" fill="#CCFD38" stroke="#CCFD38" stroke-width="0.4"/>
<path d="M5.89941 3.25141C5.89941 1.62236 7.22002 0.301758 8.84906 0.301758H32.4463C34.0753 0.301758 35.3959 1.62236 35.3959 3.25141C35.3959 4.88046 34.0753 6.20106 32.4463 6.20106H8.84907C7.22002 6.20106 5.89941 4.88046 5.89941 3.25141Z" fill="#CCFD38"/>
<path d="M2.94965 29.7988C1.3206 29.7988 0 28.4782 0 26.8492L0 9.15128C0 7.52223 1.3206 6.20162 2.94965 6.20162C4.5787 6.20162 5.8993 7.52223 5.8993 9.15128L5.8993 26.8492C5.8993 28.4782 4.5787 29.7988 2.94965 29.7988Z" fill="#CCFD38"/>
<path d="M5.89941 32.7485C5.89941 31.1194 7.22002 29.7988 8.84906 29.7988H32.4463C34.0753 29.7988 35.3959 31.1194 35.3959 32.7485C35.3959 34.3775 34.0753 35.6981 32.4463 35.6981H8.84907C7.22002 35.6981 5.89941 34.3775 5.89941 32.7485Z" fill="#CCFD38"/>
<path d="M35.3947 9.15028C35.4877 6.61576 33.3422 6.1278 32.2578 6.20063L35.3947 3.25098C35.6736 5.69809 37.6022 6.23704 38.5317 6.20063L35.3947 9.15028Z" fill="#CCFD38"/>
<path d="M5.86789 32.7479C5.96083 30.2134 3.81533 29.7255 2.73096 29.7983L5.86789 26.8486C6.14673 29.2957 8.07536 29.8347 9.00482 29.7983L5.86789 32.7479Z" fill="#CCFD38"/>
<path d="M35.4256 32.7479C35.3326 30.2134 37.4781 29.7255 38.5625 29.7983L35.4256 26.8486C35.1467 29.2957 33.2181 29.8347 32.2886 29.7983L35.4256 32.7479Z" fill="#CCFD38"/>
<path d="M5.97733 9.15077C5.88438 6.61625 8.02989 6.12829 9.11426 6.20112L5.97733 3.25146C5.69849 5.69858 3.76986 6.23753 2.8404 6.20112L5.97733 9.15077Z" fill="#CCFD38"/>
<circle cx="38.3472" cy="9.15289" r="2.94965" transform="rotate(-180 38.3472 9.15289)" fill="#CCFD38"/>
<circle cx="38.3472" cy="26.8482" r="2.94965" transform="rotate(-180 38.3472 26.8482)" fill="#CCFD38"/>
</svg>
