<svg width="533" height="87" viewBox="0 0 533 87" fill="none" xmlns="http://www.w3.org/2000/svg">
<path d="M114.313 70.241C130.286 70.241 143.235 57.2919 143.235 41.3185C143.235 25.345 130.286 12.396 114.313 12.396C98.3392 12.396 85.3901 25.345 85.3901 41.3185C85.3901 57.2919 98.3392 70.241 114.313 70.241Z" stroke="black" stroke-width="3.9" stroke-miterlimit="10" stroke-linecap="square"/>
<path d="M171.469 12.396H157.008V70.241H172.158" stroke="black" stroke-width="3.9" stroke-miterlimit="10" stroke-linecap="square"/>
<path d="M199.703 12.396H214.164V70.241H199.014" stroke="black" stroke-width="3.9" stroke-miterlimit="10" stroke-linecap="square"/>
<path d="M157.008 42.0073L213.476 42.0073" stroke="black" stroke-width="3.9" stroke-miterlimit="10" stroke-linecap="square"/>
<path d="M291.291 69.5513H300.931V84.0125" stroke="black" stroke-width="3.9" stroke-miterlimit="10" stroke-linecap="square"/>
<path d="M248.044 11.7065H232.688V69.5515H274.763" stroke="black" stroke-width="3.9" stroke-miterlimit="10" stroke-linecap="square"/>
<path d="M290.602 10.3291V69.5513" stroke="black" stroke-width="3.9" stroke-miterlimit="10" stroke-linecap="square"/>
<path d="M373.927 26.8566V11.0181H316.082V68.863H373.238V53.7132" stroke="black" stroke-width="3.9" stroke-miterlimit="10" stroke-linecap="square"/>
<path d="M355.334 39.9404L316.082 39.9404" stroke="black" stroke-width="3.9" stroke-miterlimit="10" stroke-linecap="square"/>
<path d="M355.334 25.4795V55.0906" stroke="black" stroke-width="3.9" stroke-miterlimit="10" stroke-linecap="square"/>
<path d="M30.9884 11.7065H15.1499V69.5515H16.5272L72.9949 13.0838V11.7065H57.845" stroke="black" stroke-width="3.9" stroke-miterlimit="10" stroke-linecap="square"/>
<path d="M72.9947 53.7129V69.5514H71.6175L44.0723 42.6948" stroke="black" stroke-width="3.9" stroke-miterlimit="10" stroke-linecap="square"/>
<path d="M405.603 69.5518H390.454V12.3955H447.61V69.5518H431.771" stroke="black" stroke-width="3.9" stroke-miterlimit="10" stroke-linecap="square"/>
<path d="M462.071 27.5454V12.3955H519.916V27.5454" stroke="black" stroke-width="3.9" stroke-miterlimit="10" stroke-linecap="square"/>
<path d="M491.682 70.929V13.0151" stroke="black" stroke-width="3.9" stroke-miterlimit="10" stroke-linecap="square"/>
</svg>
