<svg width="115" height="115" viewBox="0 0 115 115" fill="none" xmlns="http://www.w3.org/2000/svg">
<path fill-rule="evenodd" clip-rule="evenodd" d="M57.4041 114.808C89.1076 114.808 114.808 89.1076 114.808 57.4041C114.808 25.7007 89.1076 0 57.4041 0C25.7007 0 0 25.7007 0 57.4041C0 89.1076 25.7007 114.808 57.4041 114.808ZM45.6192 21.4874C45.6192 19.2782 47.41 17.4874 49.6192 17.4874H64.4288C66.6379 17.4874 68.4288 19.2782 68.4288 21.4874V46.3795H92.3209C95.0823 46.3795 97.3209 48.6181 97.3209 51.3795V64.1891C97.3209 66.9505 95.0823 69.1891 92.3209 69.1891H68.4288V93.3209C68.4288 95.53 66.6379 97.3209 64.4288 97.3209H49.6192C47.41 97.3209 45.6192 95.53 45.6192 93.3209V69.1891H22.4874C19.7259 69.1891 17.4874 66.9505 17.4874 64.1891V51.3795C17.4874 48.6181 19.7259 46.3795 22.4874 46.3795H45.6192V21.4874Z" fill="black"/>
</svg>
