<svg width="1317" height="205" viewBox="0 0 1317 205" fill="none" xmlns="http://www.w3.org/2000/svg">
<rect y="77.7617" width="13.9961" height="13.9961" fill="#9896AE"/>
<rect x="83.9766" y="77.7617" width="13.9961" height="13.9961" fill="#9896AE"/>
<path d="M97.9727 77.4981C97.9727 81.363 94.8395 84.4961 90.9746 84.4961L6.99824 84.4961C3.13334 84.4961 0.000205433 81.363 0.000205771 77.4981V77.4981C0.000206109 73.6332 3.13333 70.5 6.99823 70.5L90.9746 70.5C94.8395 70.5 97.9727 73.6332 97.9727 77.4981V77.4981Z" fill="#9896AE"/>
<path d="M69.9824 20.9922C70.1898 14.979 65.4034 13.8213 62.9844 13.9941L69.9824 6.99609C70.6045 12.8019 74.9069 14.0805 76.9804 13.9941L69.9824 20.9922Z" fill="#9896AE"/>
<path d="M83.9785 91.4922C84.1859 85.479 79.3995 84.3213 76.9805 84.4941L83.9785 77.4961C84.6005 83.3019 88.903 84.5805 90.9765 84.4941L83.9785 91.4922Z" fill="#9896AE"/>
<path d="M27.9942 20.9922C27.7868 14.979 32.5731 13.8213 34.9922 13.9941L27.9942 6.99609C27.3721 12.8019 23.0696 14.0805 20.9961 13.9941L27.9942 20.9922Z" fill="#9896AE"/>
<path d="M13.9981 91.4909C13.7907 85.4777 18.577 84.32 20.9961 84.4928L13.9981 77.4948C13.376 83.3006 9.07355 84.5792 7.00006 84.4928L13.9981 91.4909Z" fill="#9896AE"/>
<rect x="13.9961" y="83.9766" width="69.9803" height="13.9961" rx="6.99803" transform="rotate(-90 13.9961 83.9766)" fill="#9896AE"/>
<rect x="27.9922" y="13.9961" width="13.9961" height="41.9882" rx="6.99803" transform="rotate(-90 27.9922 13.9961)" fill="#9896AE"/>
<rect x="69.9805" y="79.3125" width="65.315" height="13.9961" rx="6.99803" transform="rotate(-90 69.9805 79.3125)" fill="#9896AE"/>
<rect width="13.9961" height="13.9961" rx="6.99803" transform="matrix(0 1 1 0 0 84.4961)" fill="#9896AE"/>
<rect width="13.9961" height="13.9961" rx="6.99803" transform="matrix(0 1 1 0 83.9766 84.4961)" fill="#9896AE"/>
<rect x="124.93" y="83.9805" width="13.9961" height="83.9764" rx="6.99804" transform="rotate(-180 124.93 83.9805)" fill="#9896AE"/>
<rect x="207.867" y="83.9805" width="13.9961" height="83.9764" rx="6.99804" transform="rotate(-180 207.867 83.9805)" fill="#9896AE"/>
<rect x="124.93" y="41.9961" width="13.9961" height="68.4252" rx="6.99803" transform="rotate(-90 124.93 41.9961)" fill="#9896AE"/>
<path d="M193.869 48.9883C194.076 42.9751 189.29 41.8174 186.871 41.9902L193.869 34.9922C194.491 40.798 198.794 42.0766 200.867 41.9902L193.869 48.9883Z" fill="#9896AE"/>
<path d="M124.928 34.9922C125.135 28.979 120.349 27.8213 117.93 27.9941L124.928 20.9961C125.55 26.8019 129.852 28.0805 131.926 27.9941L124.928 34.9922Z" fill="#9896AE"/>
<path d="M193.869 34.9922C193.662 28.979 198.448 27.8213 200.867 27.9941L193.869 20.9961C193.247 26.8019 188.945 28.0805 186.871 27.9941L193.869 34.9922Z" fill="#9896AE"/>
<path d="M124.926 48.9882C124.718 42.9751 129.505 41.8174 131.924 41.9902L124.926 34.9922C124.304 40.7979 120.001 42.0766 117.928 41.9902L124.926 48.9882Z" fill="#9896AE"/>
<path d="M186.354 41.9961C182.489 41.9961 179.355 38.863 179.355 34.9981V34.9981C179.355 31.1332 182.489 28 186.354 28H186.872C190.737 28 193.87 31.1332 193.87 34.9981V34.9981C193.87 38.863 190.737 41.9961 186.872 41.9961H186.354Z" fill="#9896AE"/>
<path d="M241.5 12.9207C236.333 12.9207 233.749 17.1195 233.749 20.6724L227.289 14.2126C231.811 14.2126 235.041 10.3368 235.041 6.46094L241.5 12.9207Z" fill="#9896AE"/>
<path d="M304.03 6.46044C304.03 11.6282 308.229 14.2121 311.782 14.2121L305.322 20.6719C305.322 16.1501 301.446 12.9601 297.57 12.9601L300.8 9.7302L304.03 6.46044Z" fill="#9896AE"/>
<path d="M311.782 27.198C306.614 27.198 304.03 31.3969 304.03 34.9497L297.57 28.49C302.092 28.49 305.322 24.6141 305.322 20.7383L311.782 27.198Z" fill="#9896AE"/>
<path d="M311.821 69.7683C306.653 69.7683 304.069 73.9672 304.069 77.52L297.609 71.0603C302.131 71.0603 305.361 67.1844 305.361 63.3086L311.821 69.7683Z" fill="#9896AE"/>
<path d="M241.5 41.3426C236.333 41.3426 233.749 45.5414 233.749 49.0942L227.289 42.6345C231.811 42.6345 235.041 38.7587 235.041 34.8828L241.5 41.3426Z" fill="#9896AE"/>
<path d="M235.04 77.5176C235.04 72.3498 230.841 69.7659 227.289 69.7659L233.748 63.3062C233.748 67.828 237.624 71.0579 241.5 71.0579L235.04 77.5176Z" fill="#9896AE"/>
<path d="M235.04 34.8833C235.04 29.7155 230.841 27.1316 227.289 27.1316L233.748 20.6719C233.748 25.1937 237.624 28.4236 241.5 28.4236L235.04 34.8833Z" fill="#9896AE"/>
<circle cx="241.499" cy="6.45974" r="4.45974" fill="#9896AE" stroke="#9896AE" stroke-width="4"/>
<circle cx="255.065" cy="6.45974" r="4.45974" fill="#9896AE" stroke="#9896AE" stroke-width="4"/>
<circle cx="269.276" cy="6.45974" r="4.45974" fill="#9896AE" stroke="#9896AE" stroke-width="4"/>
<path d="M302.065 6.47966C302.065 8.95371 300.059 10.9593 297.585 10.9593C295.111 10.9593 293.105 8.95371 293.105 6.47966C293.105 4.00561 295.111 2 297.585 2C300.059 2 302.065 4.00561 302.065 6.47966Z" fill="#9896AE" stroke="#9896AE" stroke-width="4"/>
<path d="M316.284 20.7375C316.284 23.2115 314.278 25.2171 311.804 25.2171C309.33 25.2171 307.324 23.2115 307.324 20.7375C307.324 18.2634 309.33 16.2578 311.804 16.2578C314.278 16.2578 316.284 18.2634 316.284 20.7375Z" fill="#9896AE" stroke="#9896AE" stroke-width="4"/>
<path d="M316.283 35.0105C316.283 37.4736 314.286 39.4703 311.823 39.4703C309.36 39.4703 307.363 37.4736 307.363 35.0105C307.363 32.5475 309.36 30.5508 311.823 30.5508C314.286 30.5508 316.283 32.5475 316.283 35.0105Z" fill="#9896AE" stroke="#9896AE" stroke-width="4"/>
<circle cx="227.288" cy="20.6707" r="4.45974" fill="#9896AE" stroke="#9896AE" stroke-width="4"/>
<circle cx="227.288" cy="34.8777" r="4.45974" fill="#9896AE" stroke="#9896AE" stroke-width="4"/>
<circle cx="227.288" cy="47.8035" r="4.45974" fill="#9896AE" stroke="#9896AE" stroke-width="4"/>
<circle cx="227.288" cy="63.3035" r="4.45974" fill="#9896AE" stroke="#9896AE" stroke-width="4"/>
<circle cx="241.499" cy="77.5183" r="4.45974" fill="#9896AE" stroke="#9896AE" stroke-width="4"/>
<circle cx="255.065" cy="77.5183" r="4.45974" fill="#9896AE" stroke="#9896AE" stroke-width="4"/>
<circle cx="269.276" cy="77.5183" r="4.45974" fill="#9896AE" stroke="#9896AE" stroke-width="4"/>
<circle cx="297.612" cy="77.5183" r="4.45974" fill="#9896AE" stroke="#9896AE" stroke-width="4"/>
<circle cx="311.823" cy="63.3035" r="4.45974" fill="#9896AE" stroke="#9896AE" stroke-width="4"/>
<circle cx="255.065" cy="34.8777" r="4.45974" fill="#9896AE" stroke="#9896AE" stroke-width="4"/>
<circle cx="241.499" cy="34.8777" r="4.45974" fill="#9896AE" stroke="#9896AE" stroke-width="4"/>
<rect x="241.562" width="55.9843" height="12.9593" fill="#9896AE"/>
<rect x="227.047" y="28.5078" width="84.4948" height="12.9593" fill="#9896AE"/>
<rect x="318.281" y="21.3203" width="13.5655" height="12.9195" transform="rotate(90 318.281 21.3203)" fill="#9896AE"/>
<rect x="241.562" y="71.0195" width="55.9843" height="12.9593" fill="#9896AE"/>
<rect x="233.246" y="21.1719" width="41.6343" height="11.9195" transform="rotate(90 233.246 21.1719)" fill="#9896AE" stroke="#9896AE"/>
<path d="M393.004 7.00194C393.004 3.13703 406.829 0.00390625 423.884 0.00390625H670.926C687.98 0.00390625 701.806 3.13703 701.806 7.00194V7.00194C701.806 10.8668 687.98 14 670.926 14H423.884C406.829 14 393.004 10.8668 393.004 7.00194V7.00194Z" fill="#9896AE"/>
<path d="M362.122 69.9844C345.068 69.9844 331.242 66.8512 331.242 62.9863V20.9981C331.242 17.1332 345.068 14.0001 362.122 14.0001V14.0001C379.177 14.0001 393.003 17.1332 393.003 20.9981V62.9863C393.003 66.8512 379.177 69.9844 362.122 69.9844V69.9844Z" fill="#9896AE"/>
<path d="M393.004 76.9824C393.004 73.1175 406.829 69.9844 423.884 69.9844H670.926C687.98 69.9844 701.806 73.1175 701.806 76.9824V76.9824C701.806 80.8473 687.98 83.9804 670.926 83.9804H423.884C406.829 83.9804 393.004 80.8473 393.004 76.9824V76.9824Z" fill="#9896AE"/>
<path d="M393.004 34.9941C393.004 31.1292 406.829 27.9961 423.884 27.9961H670.926C687.98 27.9961 701.806 31.1292 701.806 34.9941V34.9941C701.806 38.859 687.98 41.9922 670.926 41.9922H423.884C406.829 41.9922 393.004 38.859 393.004 34.9941V34.9941Z" fill="#9896AE"/>
<path d="M701.802 21C702.775 14.9868 680.313 13.8291 668.961 14.0019L701.802 7.00391C704.721 12.8097 724.912 14.0883 734.643 14.0019L701.802 21Z" fill="#9896AE"/>
<path d="M701.552 48.9883C702.525 42.9751 680.063 41.8174 668.711 41.9902L701.552 34.9922C704.471 40.798 724.662 42.0766 734.393 41.9902L701.552 48.9883Z" fill="#9896AE"/>
<path d="M392.677 76.9843C393.65 70.9712 371.188 69.8135 359.836 69.9863L392.677 62.9883C395.596 68.7941 415.787 70.0727 425.518 69.9863L392.677 76.9843Z" fill="#9896AE"/>
<path d="M702.132 76.9843C701.159 70.9712 723.62 69.8135 734.973 69.9863L702.132 62.9883C699.213 68.7941 679.022 70.0727 669.291 69.9863L702.132 76.9843Z" fill="#9896AE"/>
<path d="M701.714 34.9961C700.741 28.9829 723.202 27.8252 734.555 27.998L701.714 21C698.795 26.8058 678.604 28.0844 668.873 27.998L701.714 34.9961Z" fill="#9896AE"/>
<path d="M393.003 21C392.03 14.9868 414.491 13.8292 425.844 14.0019L393.003 7.00391C390.084 12.8097 369.893 14.0883 360.162 14.0019L393.003 21Z" fill="#9896AE"/>
<path d="M393.003 48.9921C392.03 42.979 414.491 41.8213 425.844 41.9941L393.003 34.996C390.084 40.8018 369.893 42.0805 360.162 41.9941L393.003 48.9921Z" fill="#9896AE"/>
<ellipse cx="732.686" cy="20.9942" rx="30.8802" ry="6.99803" transform="rotate(-180 732.686 20.9942)" fill="#9896AE"/>
<ellipse cx="670.924" cy="34.9902" rx="30.8802" ry="6.99803" transform="rotate(-180 670.924 34.9902)" fill="#9896AE"/>
<ellipse cx="732.686" cy="62.9824" rx="30.8802" ry="6.99803" transform="rotate(-180 732.686 62.9824)" fill="#9896AE"/>
<ellipse cx="732.686" cy="48.9902" rx="30.8802" ry="6.99803" transform="rotate(-180 732.686 48.9902)" fill="#9896AE"/>
<rect x="763.566" y="63.2461" width="61.7604" height="13.9961" transform="rotate(-180 763.566 63.2461)" fill="#9896AE"/>
<path d="M393.004 7.00194C393.004 3.13703 406.829 0.00390625 423.884 0.00390625H670.926C687.98 0.00390625 701.806 3.13703 701.806 7.00194V7.00194C701.806 10.8668 687.98 14 670.926 14H423.884C406.829 14 393.004 10.8668 393.004 7.00194V7.00194Z" fill="#9896AE"/>
<path d="M362.122 69.9844C345.068 69.9844 331.242 66.8512 331.242 62.9863V20.9981C331.242 17.1332 345.068 14.0001 362.122 14.0001V14.0001C379.177 14.0001 393.003 17.1332 393.003 20.9981V62.9863C393.003 66.8512 379.177 69.9844 362.122 69.9844V69.9844Z" fill="#9896AE"/>
<path d="M393.004 76.9824C393.004 73.1175 406.829 69.9844 423.884 69.9844H670.926C687.98 69.9844 701.806 73.1175 701.806 76.9824V76.9824C701.806 80.8473 687.98 83.9804 670.926 83.9804H423.884C406.829 83.9804 393.004 80.8473 393.004 76.9824V76.9824Z" fill="#9896AE"/>
<path d="M393.004 34.9941C393.004 31.1292 406.829 27.9961 423.884 27.9961H670.926C687.98 27.9961 701.806 31.1292 701.806 34.9941V34.9941C701.806 38.859 687.98 41.9922 670.926 41.9922H423.884C406.829 41.9922 393.004 38.859 393.004 34.9941V34.9941Z" fill="#9896AE"/>
<path d="M701.802 21C702.775 14.9868 680.313 13.8291 668.961 14.0019L701.802 7.00391C704.721 12.8097 724.912 14.0883 734.643 14.0019L701.802 21Z" fill="#9896AE"/>
<path d="M701.552 48.9883C702.525 42.9751 680.063 41.8174 668.711 41.9902L701.552 34.9922C704.471 40.798 724.662 42.0766 734.393 41.9902L701.552 48.9883Z" fill="#9896AE"/>
<path d="M392.677 76.9844C393.65 70.9712 371.188 69.8135 359.836 69.9863L392.677 62.9883C395.596 68.7941 415.787 70.0727 425.518 69.9863L392.677 76.9844Z" fill="#9896AE"/>
<path d="M392.677 34.9961C393.65 28.9829 371.188 27.8252 359.836 27.998L392.677 21C395.596 26.8058 415.787 28.0844 425.518 27.998L392.677 34.9961Z" fill="#9896AE"/>
<path d="M702.132 76.9843C701.159 70.9712 723.62 69.8135 734.973 69.9863L702.132 62.9883C699.213 68.7941 679.022 70.0727 669.291 69.9863L702.132 76.9843Z" fill="#9896AE"/>
<path d="M701.714 34.9961C700.741 28.9829 723.202 27.8252 734.555 27.998L701.714 21C698.795 26.8058 678.604 28.0844 668.873 27.998L701.714 34.9961Z" fill="#9896AE"/>
<ellipse cx="732.686" cy="20.9942" rx="30.8802" ry="6.99803" transform="rotate(-180 732.686 20.9942)" fill="#9896AE"/>
<ellipse cx="670.924" cy="34.9902" rx="30.8802" ry="6.99803" transform="rotate(-180 670.924 34.9902)" fill="#9896AE"/>
<ellipse cx="732.686" cy="62.9824" rx="30.8802" ry="6.99803" transform="rotate(-180 732.686 62.9824)" fill="#9896AE"/>
<ellipse cx="732.686" cy="48.9902" rx="30.8802" ry="6.99803" transform="rotate(-180 732.686 48.9902)" fill="#9896AE"/>
<rect x="763.566" y="63.2461" width="61.7604" height="13.9961" transform="rotate(-180 763.566 63.2461)" fill="#9896AE"/>
<rect x="792.074" y="83.9805" width="13.9961" height="83.9764" rx="6.99804" transform="rotate(-180 792.074 83.9805)" fill="#9896AE"/>
<rect x="875.012" y="83.9805" width="13.9961" height="83.9764" rx="6.99804" transform="rotate(-180 875.012 83.9805)" fill="#9896AE"/>
<rect x="792.074" y="41.9961" width="13.9961" height="68.4252" rx="6.99803" transform="rotate(-90 792.074 41.9961)" fill="#9896AE"/>
<path d="M861.014 48.9883C861.221 42.9751 856.435 41.8174 854.016 41.9902L861.014 34.9922C861.636 40.798 865.938 42.0766 868.012 41.9902L861.014 48.9883Z" fill="#9896AE"/>
<path d="M792.072 34.9922C792.28 28.979 787.493 27.8213 785.074 27.9941L792.072 20.9961C792.694 26.8019 796.997 28.0805 799.07 27.9941L792.072 34.9922Z" fill="#9896AE"/>
<path d="M861.014 34.9922C860.806 28.979 865.593 27.8213 868.012 27.9941L861.014 20.9961C860.392 26.8019 856.089 28.0805 854.016 27.9941L861.014 34.9922Z" fill="#9896AE"/>
<path d="M792.07 48.9882C791.863 42.9751 796.649 41.8174 799.068 41.9902L792.07 34.9922C791.448 40.7979 787.146 42.0766 785.072 41.9902L792.07 48.9882Z" fill="#9896AE"/>
<path d="M853.498 41.9961C849.633 41.9961 846.5 38.863 846.5 34.9981V34.9981C846.5 31.1332 849.633 28 853.498 28H854.016C857.881 28 861.014 31.1332 861.014 34.9981V34.9981C861.014 38.863 857.881 41.9961 854.016 41.9961H853.498Z" fill="#9896AE"/>
<rect x="1205.73" y="76.7227" width="45.4688" height="55.9843" transform="rotate(-180 1205.73 76.7227)" fill="#9896AE"/>
<rect x="1091.22" y="14" width="13.9961" height="45.4687" transform="rotate(-90 1091.22 14)" fill="#9896AE"/>
<rect x="961.551" y="83.9805" width="13.9961" height="45.4687" transform="rotate(-90 961.551 83.9805)" fill="#9896AE"/>
<rect x="932.922" y="62.9844" width="45.4687" height="55.9843" transform="rotate(-180 932.922 62.9844)" fill="#9896AE"/>
<rect x="1069.33" y="62.7266" width="45.4687" height="41.9882" transform="rotate(-180 1069.33 62.7266)" fill="#9896AE"/>
<ellipse cx="955.656" cy="76.9824" rx="22.7344" ry="6.99803" transform="rotate(-180 955.656 76.9824)" fill="#9896AE"/>
<ellipse cx="1001.12" cy="76.9824" rx="22.7344" ry="6.99803" transform="rotate(-180 1001.12 76.9824)" fill="#9896AE"/>
<ellipse cx="1137.53" cy="7.00197" rx="22.7344" ry="6.99803" transform="rotate(-180 1137.53 7.00197)" fill="#9896AE"/>
<ellipse cx="1092.06" cy="7.00197" rx="22.7344" ry="6.99803" transform="rotate(-180 1092.06 7.00197)" fill="#9896AE"/>
<ellipse cx="1183" cy="76.9824" rx="22.7344" ry="6.99803" transform="rotate(-180 1183 76.9824)" fill="#9896AE"/>
<ellipse cx="910.188" cy="62.9863" rx="22.7344" ry="6.99803" transform="rotate(-180 910.188 62.9863)" fill="#9896AE"/>
<ellipse cx="910.188" cy="7.00197" rx="22.7344" ry="6.99803" transform="rotate(-180 910.188 7.00197)" fill="#9896AE"/>
<ellipse cx="1183" cy="20.9981" rx="22.7344" ry="6.99803" transform="rotate(-180 1183 20.9981)" fill="#9896AE"/>
<ellipse cx="1046.59" cy="62.9863" rx="22.7344" ry="6.99803" transform="rotate(-180 1046.59 62.9863)" fill="#9896AE"/>
<ellipse cx="1046.59" cy="20.9981" rx="22.7344" ry="6.99803" transform="rotate(-180 1046.59 20.9981)" fill="#9896AE"/>
<path d="M910.188 69.9873C929.722 69.7668 933.483 74.857 932.922 77.4297L955.656 69.9873C936.795 69.3258 932.641 64.7501 932.922 62.545L910.188 69.9873Z" fill="#9896AE"/>
<path d="M1023.86 62.9844C1024.53 68.9975 1008.98 70.1552 1001.12 69.9824L1023.86 76.9805C1025.88 71.1747 1039.86 69.896 1046.59 69.9824L1023.86 62.9844Z" fill="#9896AE"/>
<path d="M1137.53 13.9991C1157.07 13.7785 1160.83 18.8687 1160.27 21.4414L1183 13.9991C1164.14 13.3375 1159.98 8.76184 1160.27 6.5567L1137.53 13.9991Z" fill="#9896AE"/>
<path d="M1069.33 7.00003C1070.04 13.0132 1053.51 14.1709 1045.15 13.9981L1069.33 20.9961C1071.48 15.1903 1086.34 13.9117 1093.5 13.9981L1069.33 7.00003Z" fill="#9896AE"/>
<rect x="1233.21" y="83.9805" width="13.9961" height="83.9764" rx="6.99804" transform="rotate(-180 1233.21 83.9805)" fill="#9896AE"/>
<rect x="1315.89" y="83.9805" width="13.9961" height="41.9882" rx="6.99803" transform="rotate(-180 1315.89 83.9805)" fill="#9896AE"/>
<rect x="1233.21" y="41.9961" width="13.9961" height="68.4252" rx="6.99803" transform="rotate(-90 1233.21 41.9961)" fill="#9896AE"/>
<rect x="1315.89" y="27.9961" width="13.9961" height="27.9921" rx="6.99803" transform="rotate(-180 1315.89 27.9961)" fill="#9896AE"/>
<path d="M1301.89 48.9883C1302.1 42.9751 1297.31 41.8174 1294.89 41.9902L1301.89 34.9922C1302.51 40.798 1306.82 42.0766 1308.89 41.9902L1301.89 48.9883Z" fill="#9896AE"/>
<path d="M1233.21 34.9922C1233.42 28.979 1228.63 27.8213 1226.21 27.9941L1233.21 20.9961C1233.83 26.8019 1238.13 28.0805 1240.21 27.9941L1233.21 34.9922Z" fill="#9896AE"/>
<path d="M1301.89 34.9922C1301.69 28.979 1306.47 27.8213 1308.89 27.9941L1301.89 20.9961C1301.27 26.8019 1296.97 28.0805 1294.89 27.9941L1301.89 34.9922Z" fill="#9896AE"/>
<path d="M1233.21 48.9882C1233 42.9751 1237.79 41.8174 1240.21 41.9902L1233.21 34.9922C1232.59 40.7979 1228.28 42.0766 1226.21 41.9902L1233.21 48.9882Z" fill="#9896AE"/>
<path d="M1294.9 41.9961C1291.03 41.9961 1287.9 38.863 1287.9 34.9981V34.9981C1287.9 31.1332 1291.03 28 1294.9 28V28C1298.76 28 1301.89 31.1332 1301.89 34.9981V34.9981C1301.89 38.863 1298.76 41.9961 1294.9 41.9961V41.9961Z" fill="#9896AE"/>
<rect x="1301.89" y="27.9961" width="13.9961" height="13.9961" rx="6.99803" transform="rotate(-90 1301.89 27.9961)" fill="#9896AE"/>
<path d="M6.99803 134.777C3.13312 134.777 3.42383e-07 138.694 7.64734e-07 143.525L5.35314e-06 196.01C5.77549e-06 200.841 3.13313 204.758 6.99803 204.758C10.8629 204.758 13.9961 200.841 13.9961 196.01L13.9961 143.525C13.9961 137.628 10.8629 134.777 6.99803 134.777Z" fill="#9896AE"/>
<path d="M13.9961 127.779C13.9961 131.644 17.1292 134.777 20.9941 134.777L76.9784 134.777C80.8433 134.777 83.9764 131.644 83.9764 127.779V127.779C83.9764 123.914 80.8433 120.781 76.9784 120.781L20.9941 120.781C17.1292 120.781 13.9961 123.914 13.9961 127.779V127.779Z" fill="#9896AE"/>
<path d="M13.9961 169.768C13.9961 173.632 17.1292 176.766 20.9941 176.766L76.9784 176.766C80.8433 176.766 83.9764 173.632 83.9764 169.768V169.768C83.9764 165.903 80.8433 162.77 76.9784 162.77L20.9941 162.77C17.1292 162.77 13.9961 165.903 13.9961 169.768V169.768Z" fill="#9896AE"/>
<path d="M83.9756 155.777C84.1961 161.79 79.1059 162.948 76.5332 162.775L83.9756 169.773C84.6371 163.968 89.2128 162.689 91.4179 162.775L83.9756 155.777Z" fill="#9896AE"/>
<path d="M13.9072 169.77C14.1277 175.783 9.03751 176.94 6.46484 176.768L13.9072 183.766C14.5687 177.96 19.1444 176.681 21.3495 176.768L13.9072 169.77Z" fill="#9896AE"/>
<path d="M13.997 127.781C14.2176 133.794 9.12735 134.952 6.55469 134.779L13.997 141.777C14.6586 135.972 19.2342 134.693 21.4394 134.779L13.997 127.781Z" fill="#9896AE"/>
<path d="M83.9756 127.781C83.7551 133.794 88.8453 134.952 91.418 134.779L83.9756 141.777C83.3141 135.972 78.7384 134.693 76.5333 134.779L83.9756 127.781Z" fill="#9896AE"/>
<path d="M13.9971 155.777C13.7766 161.79 18.8668 162.948 21.4394 162.775L13.9971 169.773C13.3355 163.968 8.75987 162.689 6.55473 162.775L13.9971 155.777Z" fill="#9896AE"/>
<circle r="6.99803" transform="matrix(-1 1.74846e-07 1.74846e-07 1 76.9785 169.771)" fill="#9896AE"/>
<circle r="6.99803" transform="matrix(-1 1.74846e-07 1.74846e-07 1 90.9746 141.775)" fill="#9896AE"/>
<circle r="6.99803" transform="matrix(-1 1.74846e-07 1.74846e-07 1 6.99806 141.775)" fill="#9896AE"/>
<circle r="6.99803" transform="matrix(-1 1.74846e-07 1.74846e-07 1 90.9746 155.771)" fill="#9896AE"/>
<rect width="13.9961" height="13.9961" transform="matrix(-1 1.74846e-07 1.74846e-07 1 97.9727 141.52)" fill="#9896AE"/>
<path d="M187.651 191.797C192.819 191.797 195.466 187.638 195.466 184.085L201.926 190.545C197.404 190.545 194.174 194.421 194.174 198.297L187.651 191.797Z" fill="#9896AE"/>
<path d="M125.185 198.297C125.185 193.13 120.986 190.546 117.433 190.546L123.893 184.086C123.893 188.608 127.769 191.798 131.645 191.798L128.415 195.028L125.185 198.297Z" fill="#9896AE"/>
<path d="M117.433 177.56C122.601 177.56 125.185 173.361 125.185 169.808L131.645 176.268C127.123 176.268 123.893 180.144 123.893 184.02L117.433 177.56Z" fill="#9896AE"/>
<path d="M117.394 134.989C122.562 134.989 125.146 130.791 125.146 127.238L131.605 133.698C127.084 133.698 123.854 137.573 123.854 141.449L117.394 134.989Z" fill="#9896AE"/>
<path d="M187.714 163.415C192.882 163.415 195.466 159.216 195.466 155.664L201.926 162.123C197.404 162.123 194.174 165.999 194.174 169.875L187.714 163.415Z" fill="#9896AE"/>
<path d="M194.175 127.24C194.175 132.408 198.373 134.992 201.926 134.992L195.467 141.452C195.467 136.93 191.591 133.7 187.715 133.7L194.175 127.24Z" fill="#9896AE"/>
<path d="M194.175 169.875C194.175 175.042 198.373 177.626 201.926 177.626L195.467 184.086C195.467 179.564 191.591 176.334 187.715 176.334L194.175 169.875Z" fill="#9896AE"/>
<circle cx="187.716" cy="198.298" r="4.45974" transform="rotate(-180 187.716 198.298)" fill="#9896AE" stroke="#9896AE" stroke-width="4"/>
<circle cx="174.15" cy="198.298" r="4.45974" transform="rotate(-180 174.15 198.298)" fill="#9896AE" stroke="#9896AE" stroke-width="4"/>
<circle cx="159.939" cy="198.298" r="4.45974" transform="rotate(-180 159.939 198.298)" fill="#9896AE" stroke="#9896AE" stroke-width="4"/>
<path d="M127.15 198.278C127.15 195.804 129.156 193.798 131.63 193.798C134.104 193.798 136.109 195.804 136.109 198.278C136.109 200.752 134.104 202.758 131.63 202.758C129.156 202.758 127.15 200.752 127.15 198.278Z" fill="#9896AE" stroke="#9896AE" stroke-width="4"/>
<path d="M112.931 184.02C112.931 181.546 114.937 179.541 117.411 179.541C119.885 179.541 121.891 181.546 121.891 184.02C121.891 186.494 119.885 188.5 117.411 188.5C114.937 188.5 112.931 186.494 112.931 184.02Z" fill="#9896AE" stroke="#9896AE" stroke-width="4"/>
<path d="M112.932 169.747C112.932 167.284 114.929 165.288 117.392 165.288C119.855 165.288 121.852 167.284 121.852 169.747C121.852 172.21 119.855 174.207 117.392 174.207C114.929 174.207 112.932 172.21 112.932 169.747Z" fill="#9896AE" stroke="#9896AE" stroke-width="4"/>
<circle cx="201.927" cy="184.087" r="4.45974" transform="rotate(-180 201.927 184.087)" fill="#9896AE" stroke="#9896AE" stroke-width="4"/>
<circle cx="201.927" cy="169.88" r="4.45974" transform="rotate(-180 201.927 169.88)" fill="#9896AE" stroke="#9896AE" stroke-width="4"/>
<circle cx="201.927" cy="156.954" r="4.45974" transform="rotate(-180 201.927 156.954)" fill="#9896AE" stroke="#9896AE" stroke-width="4"/>
<circle cx="201.927" cy="141.454" r="4.45974" transform="rotate(-180 201.927 141.454)" fill="#9896AE" stroke="#9896AE" stroke-width="4"/>
<circle cx="187.716" cy="127.239" r="4.45974" transform="rotate(-180 187.716 127.239)" fill="#9896AE" stroke="#9896AE" stroke-width="4"/>
<circle cx="174.15" cy="127.239" r="4.45974" transform="rotate(-180 174.15 127.239)" fill="#9896AE" stroke="#9896AE" stroke-width="4"/>
<circle cx="159.939" cy="127.239" r="4.45974" transform="rotate(-180 159.939 127.239)" fill="#9896AE" stroke="#9896AE" stroke-width="4"/>
<circle cx="131.603" cy="127.239" r="4.45974" transform="rotate(-180 131.603 127.239)" fill="#9896AE" stroke="#9896AE" stroke-width="4"/>
<circle cx="117.392" cy="141.454" r="4.45974" transform="rotate(-180 117.392 141.454)" fill="#9896AE" stroke="#9896AE" stroke-width="4"/>
<circle cx="187.716" cy="169.88" r="4.45974" transform="rotate(-180 187.716 169.88)" fill="#9896AE" stroke="#9896AE" stroke-width="4"/>
<path d="M187.699 204.758L131.668 204.758L131.668 191.798L187.699 191.798L187.699 204.758Z" fill="#9896AE"/>
<rect x="202.168" y="176.25" width="84.4948" height="12.9593" transform="rotate(-180 202.168 176.25)" fill="#9896AE"/>
<rect x="110.934" y="183.438" width="13.5655" height="12.9195" transform="rotate(-90 110.934 183.438)" fill="#9896AE"/>
<rect x="187.652" y="133.738" width="55.9843" height="12.9593" transform="rotate(-180 187.652 133.738)" fill="#9896AE"/>
<rect x="195.969" y="183.586" width="41.6343" height="11.9195" transform="rotate(-90 195.969 183.586)" fill="#9896AE" stroke="#9896AE"/>
<path d="M221.344 141.771C221.344 145.636 224.477 148.77 228.342 148.77C232.207 148.77 235.34 145.636 235.34 141.771C235.34 137.907 232.207 134.773 228.342 134.773C224.477 134.773 221.344 137.907 221.344 141.771Z" fill="#9896AE"/>
<path d="M221.344 183.76C221.344 179.895 224.477 176.762 228.342 176.762C232.207 176.762 235.34 179.895 235.34 183.76C235.34 187.625 232.207 190.758 228.342 190.758C224.477 190.758 221.344 187.625 221.344 183.76Z" fill="#9896AE"/>
<path d="M235.342 141.773C235.134 135.76 239.921 134.603 242.34 134.775L235.342 127.777C234.72 133.583 230.417 134.862 228.344 134.775L235.342 141.773Z" fill="#9896AE"/>
<path d="M305.322 155.77C305.115 149.756 309.901 148.599 312.32 148.771L305.322 141.773C304.7 147.579 300.398 148.858 298.324 148.771L305.322 155.77Z" fill="#9896AE"/>
<path d="M235.342 183.762C235.134 189.775 239.921 190.933 242.34 190.76L235.342 197.758C234.72 191.952 230.417 190.673 228.344 190.76L235.342 183.762Z" fill="#9896AE"/>
<path d="M305.322 197.758C305.115 191.745 309.901 190.587 312.32 190.76L305.322 183.762C304.7 189.567 300.398 190.846 298.324 190.76L305.322 197.758Z" fill="#9896AE"/>
<path d="M305.318 141.773C305.526 135.76 300.739 134.603 298.32 134.775L305.318 127.777C305.94 133.583 310.243 134.862 312.316 134.775L305.318 141.773Z" fill="#9896AE"/>
<path d="M305.318 169.762C305.526 163.749 300.739 162.591 298.32 162.764L305.318 155.766C305.94 161.571 310.243 162.85 312.316 162.764L305.318 169.762Z" fill="#9896AE"/>
<path d="M235.34 127.775C235.34 123.91 238.473 120.777 242.338 120.777H284.326C288.191 120.777 291.324 123.91 291.324 127.775V127.775C291.324 131.64 288.191 134.773 284.326 134.773H242.338C238.473 134.773 235.34 131.64 235.34 127.775V127.775Z" fill="#9896AE"/>
<path d="M249.336 127.775C249.336 123.91 252.469 120.777 256.334 120.777H298.322C302.187 120.777 305.32 123.91 305.32 127.775V127.775C305.32 131.64 302.187 134.773 298.322 134.773H256.334C252.469 134.773 249.336 131.64 249.336 127.775V127.775Z" fill="#9896AE"/>
<path d="M263.332 155.768C263.332 151.903 266.465 148.77 270.33 148.77H298.322C302.187 148.77 305.32 151.903 305.32 155.768V155.768C305.32 159.632 302.187 162.766 298.322 162.766H270.33C266.465 162.766 263.332 159.632 263.332 155.768V155.768Z" fill="#9896AE"/>
<path d="M249.336 197.756C249.336 201.621 252.469 204.754 256.334 204.754H298.322C302.187 204.754 305.32 201.621 305.32 197.756C305.32 193.891 302.187 190.758 298.322 190.758H256.334C252.469 190.758 249.336 193.891 249.336 197.756Z" fill="#9896AE"/>
<path d="M235.34 197.756C235.34 201.621 238.473 204.754 242.338 204.754H284.326C288.191 204.754 291.324 201.621 291.324 197.756C291.324 193.891 288.191 190.758 284.326 190.758H242.338C238.473 190.758 235.34 193.891 235.34 197.756Z" fill="#9896AE"/>
<circle cx="312.318" cy="141.771" r="6.99803" fill="#9896AE"/>
<rect x="305.32" y="162.762" width="13.9961" height="27.9921" rx="6.99803" fill="#9896AE"/>
<path d="M339.275 134.777C335.41 134.777 332.277 138.694 332.277 143.525L332.277 196.01C332.277 200.841 335.41 204.758 339.275 204.758C343.14 204.758 346.273 200.841 346.273 196.01L346.273 143.525C346.273 137.628 343.14 134.777 339.275 134.777Z" fill="#9896AE"/>
<path d="M346.273 127.779C346.273 131.644 349.407 134.777 353.271 134.777L409.256 134.777C413.121 134.777 416.254 131.644 416.254 127.779V127.779C416.254 123.914 413.121 120.781 409.256 120.781L353.271 120.781C349.407 120.781 346.273 123.914 346.273 127.779V127.779Z" fill="#9896AE"/>
<path d="M346.273 169.768C346.273 173.632 349.407 176.766 353.271 176.766L409.256 176.766C413.121 176.766 416.254 173.632 416.254 169.768V169.768C416.254 165.903 413.121 162.77 409.256 162.77L353.271 162.77C349.407 162.77 346.273 165.903 346.273 169.768V169.768Z" fill="#9896AE"/>
<path d="M416.253 155.777C416.473 161.79 411.383 162.948 408.811 162.775L416.253 169.773C416.914 163.968 421.49 162.689 423.695 162.775L416.253 155.777Z" fill="#9896AE"/>
<path d="M346.185 169.77C346.405 175.783 341.315 176.94 338.742 176.768L346.185 183.766C346.846 177.96 351.422 176.681 353.627 176.768L346.185 169.77Z" fill="#9896AE"/>
<path d="M346.274 127.781C346.495 133.794 341.405 134.952 338.832 134.779L346.274 141.777C346.936 135.972 351.512 134.693 353.717 134.779L346.274 127.781Z" fill="#9896AE"/>
<path d="M416.253 127.781C416.032 133.794 421.123 134.952 423.695 134.779L416.253 141.777C415.591 135.972 411.016 134.693 408.811 134.779L416.253 127.781Z" fill="#9896AE"/>
<path d="M346.272 155.777C346.052 161.79 351.142 162.948 353.715 162.775L346.272 169.773C345.611 163.968 341.035 162.689 338.83 162.775L346.272 155.777Z" fill="#9896AE"/>
<circle r="6.99803" transform="matrix(-1 1.74846e-07 1.74846e-07 1 409.256 169.771)" fill="#9896AE"/>
<circle r="6.99803" transform="matrix(-1 1.74846e-07 1.74846e-07 1 423.252 141.775)" fill="#9896AE"/>
<circle r="6.99803" transform="matrix(-1 1.74846e-07 1.74846e-07 1 339.275 141.775)" fill="#9896AE"/>
<circle r="6.99803" transform="matrix(-1 1.74846e-07 1.74846e-07 1 423.252 155.771)" fill="#9896AE"/>
<rect width="13.9961" height="13.9961" transform="matrix(-1 1.74846e-07 1.74846e-07 1 430.25 141.52)" fill="#9896AE"/>
<path d="M519.928 191.797C525.096 191.797 527.743 187.638 527.743 184.085L534.203 190.545C529.681 190.545 526.451 194.421 526.451 198.297L519.928 191.797Z" fill="#9896AE"/>
<path d="M457.462 198.297C457.462 193.13 453.263 190.546 449.71 190.546L456.17 184.086C456.17 188.608 460.046 191.798 463.922 191.798L460.692 195.028L457.462 198.297Z" fill="#9896AE"/>
<path d="M449.71 177.56C454.878 177.56 457.462 173.361 457.462 169.808L463.922 176.268C459.4 176.268 456.17 180.144 456.17 184.02L449.71 177.56Z" fill="#9896AE"/>
<path d="M449.671 134.989C454.839 134.989 457.423 130.791 457.423 127.238L463.883 133.698C459.361 133.698 456.131 137.573 456.131 141.449L449.671 134.989Z" fill="#9896AE"/>
<path d="M519.994 163.415C525.161 163.415 527.745 159.216 527.745 155.664L534.205 162.123C529.683 162.123 526.453 165.999 526.453 169.875L519.994 163.415Z" fill="#9896AE"/>
<path d="M526.452 127.24C526.452 132.408 530.651 134.992 534.204 134.992L527.744 141.452C527.744 136.93 523.868 133.7 519.992 133.7L526.452 127.24Z" fill="#9896AE"/>
<path d="M526.452 169.875C526.452 175.042 530.651 177.626 534.204 177.626L527.744 184.086C527.744 179.564 523.868 176.334 519.992 176.334L526.452 169.875Z" fill="#9896AE"/>
<circle cx="519.993" cy="198.298" r="4.45974" transform="rotate(-180 519.993 198.298)" fill="#9896AE" stroke="#9896AE" stroke-width="4"/>
<circle cx="506.427" cy="198.298" r="4.45974" transform="rotate(-180 506.427 198.298)" fill="#9896AE" stroke="#9896AE" stroke-width="4"/>
<circle cx="492.216" cy="198.298" r="4.45974" transform="rotate(-180 492.216 198.298)" fill="#9896AE" stroke="#9896AE" stroke-width="4"/>
<path d="M459.427 198.278C459.427 195.804 461.433 193.798 463.907 193.798C466.381 193.798 468.387 195.804 468.387 198.278C468.387 200.752 466.381 202.758 463.907 202.758C461.433 202.758 459.427 200.752 459.427 198.278Z" fill="#9896AE" stroke="#9896AE" stroke-width="4"/>
<path d="M445.209 184.02C445.209 181.546 447.214 179.541 449.688 179.541C452.162 179.541 454.168 181.546 454.168 184.02C454.168 186.494 452.162 188.5 449.688 188.5C447.214 188.5 445.209 186.494 445.209 184.02Z" fill="#9896AE" stroke="#9896AE" stroke-width="4"/>
<path d="M445.209 169.747C445.209 167.284 447.206 165.288 449.669 165.288C452.132 165.288 454.129 167.284 454.129 169.747C454.129 172.21 452.132 174.207 449.669 174.207C447.206 174.207 445.209 172.21 445.209 169.747Z" fill="#9896AE" stroke="#9896AE" stroke-width="4"/>
<circle cx="534.204" cy="184.087" r="4.45974" transform="rotate(-180 534.204 184.087)" fill="#9896AE" stroke="#9896AE" stroke-width="4"/>
<circle cx="534.204" cy="169.88" r="4.45974" transform="rotate(-180 534.204 169.88)" fill="#9896AE" stroke="#9896AE" stroke-width="4"/>
<circle cx="534.204" cy="156.954" r="4.45974" transform="rotate(-180 534.204 156.954)" fill="#9896AE" stroke="#9896AE" stroke-width="4"/>
<circle cx="534.204" cy="141.454" r="4.45974" transform="rotate(-180 534.204 141.454)" fill="#9896AE" stroke="#9896AE" stroke-width="4"/>
<circle cx="519.993" cy="127.239" r="4.45974" transform="rotate(-180 519.993 127.239)" fill="#9896AE" stroke="#9896AE" stroke-width="4"/>
<circle cx="506.427" cy="127.239" r="4.45974" transform="rotate(-180 506.427 127.239)" fill="#9896AE" stroke="#9896AE" stroke-width="4"/>
<circle cx="492.216" cy="127.239" r="4.45974" transform="rotate(-180 492.216 127.239)" fill="#9896AE" stroke="#9896AE" stroke-width="4"/>
<circle cx="463.88" cy="127.239" r="4.45974" transform="rotate(-180 463.88 127.239)" fill="#9896AE" stroke="#9896AE" stroke-width="4"/>
<circle cx="449.669" cy="141.454" r="4.45974" transform="rotate(-180 449.669 141.454)" fill="#9896AE" stroke="#9896AE" stroke-width="4"/>
<circle cx="519.993" cy="169.88" r="4.45974" transform="rotate(-180 519.993 169.88)" fill="#9896AE" stroke="#9896AE" stroke-width="4"/>
<path d="M519.977 204.758L463.946 204.758L463.946 191.798L519.977 191.798L519.977 204.758Z" fill="#9896AE"/>
<rect x="534.445" y="176.25" width="84.4948" height="12.9593" transform="rotate(-180 534.445 176.25)" fill="#9896AE"/>
<rect x="443.211" y="183.438" width="13.5655" height="12.9195" transform="rotate(-90 443.211 183.438)" fill="#9896AE"/>
<rect x="519.93" y="133.738" width="55.9843" height="12.9593" transform="rotate(-180 519.93 133.738)" fill="#9896AE"/>
<rect x="528.242" y="183.586" width="41.6343" height="11.9195" transform="rotate(-90 528.242 183.586)" fill="#9896AE" stroke="#9896AE"/>
<path d="M567.617 127.783C567.617 123.918 570.75 120.785 574.615 120.785H630.599C634.464 120.785 637.598 123.918 637.598 127.783C637.598 131.648 634.464 134.781 630.599 134.781H574.615C570.75 134.781 567.617 131.648 567.617 127.783Z" fill="#9896AE"/>
<path d="M560.619 190.766C556.754 190.766 553.621 187.632 553.621 183.768V141.779C553.621 137.914 556.754 134.781 560.619 134.781V134.781C564.484 134.781 567.617 137.914 567.617 141.779L567.617 183.768C567.617 187.632 564.484 190.766 560.619 190.766V190.766Z" fill="#9896AE"/>
<path d="M567.617 197.764C567.617 193.899 570.75 190.766 574.615 190.766H630.599C634.464 190.766 637.598 193.899 637.598 197.764V197.764C637.598 201.629 634.464 204.762 630.599 204.762H574.615C570.75 204.762 567.617 201.629 567.617 197.764V197.764Z" fill="#9896AE"/>
<path d="M567.617 155.771C567.617 151.907 570.75 148.773 574.615 148.773H630.599C634.464 148.773 637.598 151.907 637.598 155.771V155.771C637.598 159.636 634.464 162.77 630.599 162.77H574.615C570.75 162.77 567.617 159.636 567.617 155.771V155.771Z" fill="#9896AE"/>
<path d="M637.599 169.766C637.819 163.752 632.729 162.595 630.156 162.768L637.599 155.77C638.26 161.575 642.836 162.854 645.041 162.768L637.599 169.766Z" fill="#9896AE"/>
<path d="M567.618 197.762C567.839 191.749 562.748 190.591 560.176 190.764L567.618 183.766C568.28 189.571 572.855 190.85 575.06 190.764L567.618 197.762Z" fill="#9896AE"/>
<path d="M567.618 155.773C567.839 149.76 562.748 148.603 560.176 148.775L567.618 141.777C568.28 147.583 572.855 148.862 575.061 148.775L567.618 155.773Z" fill="#9896AE"/>
<path d="M637.597 197.762C637.376 191.749 642.466 190.591 645.039 190.764L637.597 183.766C636.935 189.571 632.36 190.85 630.154 190.764L637.597 197.762Z" fill="#9896AE"/>
<path d="M637.597 127.781C637.376 121.768 642.466 120.61 645.039 120.783L637.597 113.785C636.935 119.591 632.36 120.87 630.154 120.783L637.597 127.781Z" fill="#9896AE"/>
<path d="M567.616 141.777C567.396 135.764 572.486 134.606 575.059 134.779L567.616 127.781C566.955 133.587 562.379 134.866 560.174 134.779L567.616 141.777Z" fill="#9896AE"/>
<path d="M567.616 169.769C567.396 163.756 572.486 162.598 575.059 162.771L567.616 155.773C566.955 161.579 562.379 162.857 560.174 162.771L567.616 169.769Z" fill="#9896AE"/>
<circle cx="630.6" cy="155.768" r="6.99803" transform="rotate(-180 630.6 155.768)" fill="#9896AE"/>
<circle cx="644.596" cy="183.76" r="6.99803" transform="rotate(-180 644.596 183.76)" fill="#9896AE"/>
<circle cx="644.596" cy="169.764" r="6.99803" transform="rotate(-180 644.596 169.764)" fill="#9896AE"/>
<rect x="651.594" y="184.02" width="13.9961" height="13.9961" transform="rotate(-180 651.594 184.02)" fill="#9896AE"/>
<circle cx="644.596" cy="113.779" r="6.99803" transform="rotate(-180 644.596 113.779)" fill="#9896AE"/>
<path d="M678.551 127.787C678.551 123.922 681.684 120.789 685.549 120.789H741.533C745.398 120.789 748.531 123.922 748.531 127.787V127.787C748.531 131.652 745.398 134.785 741.533 134.785H685.549C681.684 134.785 678.551 131.652 678.551 127.787V127.787Z" fill="#9896AE"/>
<path d="M671.553 190.762C667.688 190.762 664.555 187.629 664.555 183.764V141.775C664.555 137.911 667.688 134.777 671.553 134.777V134.777C675.418 134.777 678.551 137.911 678.551 141.775V183.764C678.551 187.629 675.418 190.762 671.553 190.762V190.762Z" fill="#9896AE"/>
<path d="M755.974 190.762C751.863 190.762 748.531 187.629 748.531 183.764V141.775C748.531 137.911 751.863 134.777 755.974 134.777C760.084 134.777 763.416 137.911 763.416 141.775V183.764C763.416 187.629 760.084 190.762 755.974 190.762Z" fill="#9896AE"/>
<path d="M678.551 197.76C678.551 193.895 681.684 190.762 685.549 190.762H741.533C745.398 190.762 748.531 193.895 748.531 197.76V197.76C748.531 201.625 745.398 204.758 741.533 204.758H685.549C681.684 204.758 678.551 201.625 678.551 197.76V197.76Z" fill="#9896AE"/>
<path d="M748.532 141.785C748.753 135.772 743.663 134.614 741.09 134.787L748.532 127.789C749.194 133.595 753.769 134.873 755.975 134.787L748.532 141.785Z" fill="#9896AE"/>
<path d="M678.552 197.762C678.772 191.749 673.682 190.591 671.109 190.764L678.552 183.766C679.213 189.571 683.789 190.85 685.994 190.764L678.552 197.762Z" fill="#9896AE"/>
<path d="M748.53 197.762C748.31 191.749 753.4 190.591 755.973 190.764L748.53 183.766C747.869 189.571 743.293 190.85 741.088 190.764L748.53 197.762Z" fill="#9896AE"/>
<path d="M678.55 141.781C678.329 135.768 683.42 134.61 685.992 134.783L678.55 127.785C677.888 133.591 673.313 134.87 671.107 134.783L678.55 141.781Z" fill="#9896AE"/>
<path d="M819.399 141.258C819.62 135.245 814.53 134.087 811.957 134.26L819.399 127.262C820.061 133.067 824.637 134.346 826.842 134.26L819.399 141.258Z" fill="#9896AE"/>
<path d="M833.394 141.258C833.173 135.245 838.263 134.087 840.836 134.26L833.394 127.262C832.732 133.067 828.156 134.346 825.951 134.26L833.394 141.258Z" fill="#9896AE"/>
<rect x="833.395" y="197.336" width="13.9961" height="57.2283" transform="rotate(-180 833.395 197.336)" fill="#9896AE"/>
<ellipse cx="826.396" cy="197.604" rx="6.99803" ry="7.15354" transform="rotate(-180 826.396 197.604)" fill="#9896AE"/>
<ellipse cx="826.396" cy="140.374" rx="6.99803" ry="7.15354" transform="rotate(-180 826.396 140.374)" fill="#9896AE"/>
<rect x="776.375" y="134.258" width="13.9961" height="97.9725" rx="6.99803" transform="rotate(-90 776.375 134.258)" fill="#9896AE"/>
<path fill-rule="evenodd" clip-rule="evenodd" d="M971.022 169.766C971.022 165.901 974.155 162.768 978.02 162.768C974.155 162.768 971.022 159.635 971.022 155.77C971.022 159.635 967.888 162.768 964.023 162.768C967.888 162.768 971.022 165.901 971.022 169.766Z" fill="#9896AE"/>
<path fill-rule="evenodd" clip-rule="evenodd" d="M971.021 183.762C971.021 179.897 974.155 176.764 978.02 176.764C974.155 176.764 971.022 173.631 971.022 169.766C971.022 173.631 967.888 176.764 964.023 176.764C967.888 176.764 971.021 179.897 971.021 183.762Z" fill="#9896AE"/>
<path fill-rule="evenodd" clip-rule="evenodd" d="M901.299 169.766C901.299 165.901 904.432 162.768 908.297 162.768C904.432 162.768 901.299 159.635 901.299 155.77C901.299 159.635 898.166 162.768 894.301 162.768C898.166 162.768 901.299 165.901 901.299 169.766Z" fill="#9896AE"/>
<rect x="901.301" y="155.512" width="13.9961" height="27.9921" transform="rotate(-180 901.301 155.512)" fill="#9896AE"/>
<rect x="985.02" y="197.496" width="13.9961" height="69.462" transform="rotate(-180 985.02 197.496)" fill="#9896AE"/>
<rect x="901.301" y="176.762" width="13.9961" height="71.0171" rx="6.99803" transform="rotate(-90 901.301 176.762)" fill="#9896AE"/>
<circle cx="978.021" cy="197.756" r="6.99803" transform="rotate(-180 978.021 197.756)" fill="#9896AE"/>
<circle cx="894.303" cy="127.775" r="6.99803" transform="rotate(-180 894.303 127.775)" fill="#9896AE"/>
<circle cx="894.303" cy="155.768" r="6.99803" transform="rotate(-180 894.303 155.768)" fill="#9896AE"/>
<circle cx="978.021" cy="127.775" r="6.99803" transform="rotate(-180 978.021 127.775)" fill="#9896AE"/>
<rect x="1095.95" y="197.496" width="13.9961" height="55.9843" transform="rotate(-180 1095.95 197.496)" fill="#9896AE"/>
<rect x="1060.7" y="134.773" width="13.9961" height="13.9961" transform="rotate(-90 1060.7 134.773)" fill="#9896AE"/>
<rect x="1020.79" y="204.754" width="13.9961" height="13.9961" transform="rotate(-90 1020.79 204.754)" fill="#9896AE"/>
<rect x="1011.98" y="183.758" width="13.9961" height="55.9843" transform="rotate(-180 1011.98 183.758)" fill="#9896AE"/>
<rect x="1053.96" y="183.5" width="13.9961" height="41.9882" transform="rotate(-180 1053.96 183.5)" fill="#9896AE"/>
<circle cx="1018.97" cy="197.756" r="6.99803" transform="rotate(-180 1018.97 197.756)" fill="#9896AE"/>
<circle cx="1032.97" cy="197.756" r="6.99803" transform="rotate(-180 1032.97 197.756)" fill="#9896AE"/>
<circle cx="1074.96" cy="127.775" r="6.99803" transform="rotate(-180 1074.96 127.775)" fill="#9896AE"/>
<circle cx="1060.96" cy="127.775" r="6.99803" transform="rotate(-180 1060.96 127.775)" fill="#9896AE"/>
<circle cx="1088.96" cy="197.756" r="6.99803" transform="rotate(-180 1088.96 197.756)" fill="#9896AE"/>
<circle cx="1004.98" cy="183.76" r="6.99803" transform="rotate(-180 1004.98 183.76)" fill="#9896AE"/>
<circle cx="1004.98" cy="127.775" r="6.99803" transform="rotate(-180 1004.98 127.775)" fill="#9896AE"/>
<circle cx="1088.96" cy="141.771" r="6.99803" transform="rotate(-180 1088.96 141.771)" fill="#9896AE"/>
<circle cx="1046.97" cy="183.76" r="6.99803" transform="rotate(-180 1046.97 183.76)" fill="#9896AE"/>
<circle cx="1046.97" cy="141.771" r="6.99803" transform="rotate(-180 1046.97 141.771)" fill="#9896AE"/>
<path d="M1004.98 190.761C1010.99 190.54 1012.15 195.63 1011.98 198.203L1018.98 190.761C1013.17 190.099 1011.89 185.524 1011.98 183.318L1004.98 190.761Z" fill="#9896AE"/>
<path d="M1039.97 183.762C1040.17 189.775 1035.39 190.933 1032.97 190.76L1039.97 197.758C1040.59 191.952 1044.89 190.673 1046.96 190.76L1039.97 183.762Z" fill="#9896AE"/>
<path d="M1074.96 134.776C1080.97 134.556 1082.13 139.646 1081.96 142.219L1088.96 134.776C1083.15 134.115 1081.87 129.539 1081.96 127.334L1074.96 134.776Z" fill="#9896AE"/>
<path d="M1053.97 127.777C1054.19 133.79 1049.1 134.948 1046.52 134.775L1053.97 141.773C1054.63 135.968 1059.2 134.689 1061.41 134.775L1053.97 127.777Z" fill="#9896AE"/>
<rect x="1122.91" y="204.758" width="13.9961" height="83.9764" rx="6.99804" transform="rotate(-180 1122.91 204.758)" fill="#9896AE"/>
<rect x="1205.59" y="204.758" width="13.9961" height="41.9882" rx="6.99803" transform="rotate(-180 1205.59 204.758)" fill="#9896AE"/>
<rect x="1122.91" y="162.773" width="13.9961" height="68.4252" rx="6.99803" transform="rotate(-90 1122.91 162.773)" fill="#9896AE"/>
<rect x="1205.59" y="148.773" width="13.9961" height="27.9921" rx="6.99803" transform="rotate(-180 1205.59 148.773)" fill="#9896AE"/>
<path d="M1191.59 169.766C1191.8 163.752 1187.01 162.595 1184.59 162.768L1191.59 155.77C1192.21 161.575 1196.51 162.854 1198.59 162.768L1191.59 169.766Z" fill="#9896AE"/>
<path d="M1122.9 155.77C1123.11 149.756 1118.33 148.599 1115.91 148.771L1122.9 141.773C1123.53 147.579 1127.83 148.858 1129.9 148.771L1122.9 155.77Z" fill="#9896AE"/>
<path d="M1191.59 155.77C1191.38 149.756 1196.17 148.599 1198.59 148.771L1191.59 141.773C1190.97 147.579 1186.66 148.858 1184.59 148.771L1191.59 155.77Z" fill="#9896AE"/>
<path d="M1122.9 169.766C1122.7 163.752 1127.48 162.595 1129.9 162.768L1122.9 155.77C1122.28 161.575 1117.98 162.854 1115.91 162.768L1122.9 169.766Z" fill="#9896AE"/>
<path d="M1184.59 162.773C1180.73 162.773 1177.59 159.64 1177.59 155.775V155.775C1177.59 151.91 1180.73 148.777 1184.59 148.777V148.777C1188.46 148.777 1191.59 151.91 1191.59 155.775V155.775C1191.59 159.64 1188.46 162.773 1184.59 162.773V162.773Z" fill="#9896AE"/>
<rect x="1191.59" y="148.773" width="13.9961" height="13.9961" rx="6.99803" transform="rotate(-90 1191.59 148.773)" fill="#9896AE"/>
<path d="M1295.26 191.797C1300.43 191.797 1303.08 187.638 1303.08 184.085L1309.54 190.545C1305.02 190.545 1301.79 194.421 1301.79 198.297L1295.26 191.797Z" fill="#9896AE"/>
<path d="M1232.8 198.297C1232.8 193.13 1228.6 190.546 1225.05 190.546L1231.51 184.086C1231.51 188.608 1235.38 191.798 1239.26 191.798L1236.03 195.028L1232.8 198.297Z" fill="#9896AE"/>
<path d="M1225.05 177.56C1230.21 177.56 1232.8 173.361 1232.8 169.808L1239.26 176.268C1234.74 176.268 1231.51 180.144 1231.51 184.02L1225.05 177.56Z" fill="#9896AE"/>
<path d="M1225.01 134.989C1230.18 134.989 1232.76 130.791 1232.76 127.238L1239.22 133.698C1234.7 133.698 1231.47 137.573 1231.47 141.449L1225.01 134.989Z" fill="#9896AE"/>
<path d="M1295.33 163.415C1300.5 163.415 1303.08 159.216 1303.08 155.664L1309.54 162.123C1305.02 162.123 1301.79 165.999 1301.79 169.875L1295.33 163.415Z" fill="#9896AE"/>
<path d="M1301.79 127.24C1301.79 132.408 1305.99 134.992 1309.54 134.992L1303.08 141.452C1303.08 136.93 1299.2 133.7 1295.33 133.7L1301.79 127.24Z" fill="#9896AE"/>
<path d="M1301.79 169.875C1301.79 175.042 1305.99 177.626 1309.54 177.626L1303.08 184.086C1303.08 179.564 1299.2 176.334 1295.33 176.334L1301.79 169.875Z" fill="#9896AE"/>
<circle cx="1295.33" cy="198.298" r="4.45974" transform="rotate(-180 1295.33 198.298)" fill="#9896AE" stroke="#9896AE" stroke-width="4"/>
<circle cx="1281.76" cy="198.298" r="4.45974" transform="rotate(-180 1281.76 198.298)" fill="#9896AE" stroke="#9896AE" stroke-width="4"/>
<circle cx="1267.55" cy="198.298" r="4.45974" transform="rotate(-180 1267.55 198.298)" fill="#9896AE" stroke="#9896AE" stroke-width="4"/>
<path d="M1234.76 198.278C1234.76 195.804 1236.77 193.798 1239.24 193.798C1241.72 193.798 1243.72 195.804 1243.72 198.278C1243.72 200.752 1241.72 202.758 1239.24 202.758C1236.77 202.758 1234.76 200.752 1234.76 198.278Z" fill="#9896AE" stroke="#9896AE" stroke-width="4"/>
<path d="M1220.54 184.02C1220.54 181.546 1222.55 179.541 1225.02 179.541C1227.5 179.541 1229.5 181.546 1229.5 184.02C1229.5 186.494 1227.5 188.5 1225.02 188.5C1222.55 188.5 1220.54 186.494 1220.54 184.02Z" fill="#9896AE" stroke="#9896AE" stroke-width="4"/>
<path d="M1220.55 169.747C1220.55 167.284 1222.54 165.288 1225.01 165.288C1227.47 165.288 1229.46 167.284 1229.46 169.747C1229.46 172.21 1227.47 174.207 1225.01 174.207C1222.54 174.207 1220.55 172.21 1220.55 169.747Z" fill="#9896AE" stroke="#9896AE" stroke-width="4"/>
<circle cx="1309.54" cy="184.087" r="4.45974" transform="rotate(-180 1309.54 184.087)" fill="#9896AE" stroke="#9896AE" stroke-width="4"/>
<circle cx="1309.54" cy="169.88" r="4.45974" transform="rotate(-180 1309.54 169.88)" fill="#9896AE" stroke="#9896AE" stroke-width="4"/>
<circle cx="1309.54" cy="156.954" r="4.45974" transform="rotate(-180 1309.54 156.954)" fill="#9896AE" stroke="#9896AE" stroke-width="4"/>
<circle cx="1309.54" cy="141.454" r="4.45974" transform="rotate(-180 1309.54 141.454)" fill="#9896AE" stroke="#9896AE" stroke-width="4"/>
<circle cx="1295.33" cy="127.239" r="4.45974" transform="rotate(-180 1295.33 127.239)" fill="#9896AE" stroke="#9896AE" stroke-width="4"/>
<circle cx="1281.76" cy="127.239" r="4.45974" transform="rotate(-180 1281.76 127.239)" fill="#9896AE" stroke="#9896AE" stroke-width="4"/>
<circle cx="1267.55" cy="127.239" r="4.45974" transform="rotate(-180 1267.55 127.239)" fill="#9896AE" stroke="#9896AE" stroke-width="4"/>
<circle cx="1239.22" cy="127.239" r="4.45974" transform="rotate(-180 1239.22 127.239)" fill="#9896AE" stroke="#9896AE" stroke-width="4"/>
<circle cx="1225.01" cy="141.454" r="4.45974" transform="rotate(-180 1225.01 141.454)" fill="#9896AE" stroke="#9896AE" stroke-width="4"/>
<circle cx="1295.33" cy="169.88" r="4.45974" transform="rotate(-180 1295.33 169.88)" fill="#9896AE" stroke="#9896AE" stroke-width="4"/>
<path d="M1295.31 204.758L1239.28 204.758L1239.28 191.798L1295.31 191.798L1295.31 204.758Z" fill="#9896AE"/>
<rect x="1309.78" y="176.25" width="84.4948" height="12.9593" transform="rotate(-180 1309.78 176.25)" fill="#9896AE"/>
<rect x="1218.55" y="183.438" width="13.5655" height="12.9195" transform="rotate(-90 1218.55 183.438)" fill="#9896AE"/>
<rect x="1295.27" y="133.738" width="55.9843" height="12.9593" transform="rotate(-180 1295.27 133.738)" fill="#9896AE"/>
<rect x="1303.58" y="183.586" width="41.6343" height="11.9195" transform="rotate(-90 1303.58 183.586)" fill="#9896AE" stroke="#9896AE"/>
</svg>
