<svg width="587" height="176" viewBox="0 0 587 176" fill="none" xmlns="http://www.w3.org/2000/svg">
<path d="M336.741 66.0898H348.115V107.649" stroke="black" stroke-width="3"/>
<path d="M319.243 66.0898H306.994V87.088H348.552" stroke="black" stroke-width="3"/>
<path d="M41.9132 7.20605V20.0681H40.4706C40.4706 20.0681 35.6618 7.66541 21.7162 7.66541C7.77059 7.66541 2 18.69 2 26.9585C2 35.227 8.25147 46.2516 21.7162 46.2516C35.1809 46.2516 39.5088 37.0644 40.9515 34.3083H41.9132V46.2516" stroke="black" stroke-width="3" stroke-miterlimit="10" stroke-linecap="square"/>
<path d="M441.766 66V79.4337H440.354C440.354 79.4337 435.65 66.4798 422.008 66.4798C408.365 66.4798 402.72 77.9944 402.72 86.6303C402.72 95.2663 408.836 106.781 422.008 106.781C435.18 106.781 439.414 97.1854 440.825 94.3068H441.766V106.781" stroke="black" stroke-width="3" stroke-miterlimit="10" stroke-linecap="square"/>
<path d="M90.8081 76.9933V66.0898H50.9868V105.911H90.334V95.4817" stroke="black" stroke-width="3" stroke-miterlimit="10" stroke-linecap="square"/>
<path d="M78.0082 86.0005L50.9866 86.0005" stroke="black" stroke-width="3" stroke-miterlimit="10" stroke-linecap="square"/>
<path d="M78.0083 76.0452V96.4299" stroke="black" stroke-width="3" stroke-miterlimit="10" stroke-linecap="square"/>
<path d="M108.846 105.911H97.4685V105.437L136.342 66.0898H137.29V105.911H126.86" stroke="black" stroke-width="3" stroke-miterlimit="10" stroke-linecap="square"/>
<path d="M137.764 86.4745L158.149 66.5638H159.571V105.911H148.667" stroke="black" stroke-width="3" stroke-miterlimit="10" stroke-linecap="square"/>
<path d="M68.7745 46.2516C79.5566 46.2516 88.2973 37.511 88.2973 26.7288C88.2973 15.9467 79.5566 7.20605 68.7745 7.20605C57.9924 7.20605 49.2517 15.9467 49.2517 26.7288C49.2517 37.511 57.9924 46.2516 68.7745 46.2516Z" stroke="black" stroke-width="3" stroke-miterlimit="10" stroke-linecap="square"/>
<path d="M68.8114 163.605C79.8331 163.605 88.768 154.67 88.768 143.649C88.768 132.627 79.8331 123.692 68.8114 123.692C57.7896 123.692 48.8547 132.627 48.8547 143.649C48.8547 154.67 57.7896 163.605 68.8114 163.605Z" stroke="black" stroke-width="3" stroke-miterlimit="10" stroke-linecap="square"/>
<path d="M276.734 7.26367H266.063V47.4589H267.02L305.923 7.74219H306.833V47.4589H295.3" stroke="black" stroke-width="3" stroke-miterlimit="10" stroke-linecap="square"/>
<path d="M280.418 2H292.86" stroke="black" stroke-width="3"/>
<path d="M246.736 47.5771H258.113V7.75586H256.691L218.766 46.1549V47.5771H229.195" stroke="black" stroke-width="3" stroke-miterlimit="10" stroke-linecap="square"/>
<path d="M230.854 34.9673H258.066" stroke="black" stroke-width="3" stroke-miterlimit="10" stroke-linecap="square"/>
<path d="M194.148 106.385H205.526V66.564H204.104L166.179 104.963V106.385H176.608" stroke="black" stroke-width="3" stroke-miterlimit="10" stroke-linecap="square"/>
<path d="M178.267 93.7754H205.478" stroke="black" stroke-width="3" stroke-miterlimit="10" stroke-linecap="square"/>
<path d="M123.75 27.1919C129.439 27.1919 133.705 31.9325 134.179 36.1991C134.653 40.4656 132.283 47.1025 125.646 47.1025H94.832V7.28125H134.179V18.1847" stroke="black" stroke-width="3" stroke-miterlimit="10" stroke-linecap="square"/>
<path d="M94.7849 27.1919H123.798" stroke="black" stroke-width="3" stroke-miterlimit="10" stroke-linecap="square"/>
<path d="M584.727 76.9933V66.0898H544.906V105.911H584.253V95.4817" stroke="black" stroke-width="3" stroke-miterlimit="10" stroke-linecap="square"/>
<path d="M571.927 86.0005L544.905 86.0005" stroke="black" stroke-width="3" stroke-miterlimit="10" stroke-linecap="square"/>
<path d="M571.927 76.0452V96.4299" stroke="black" stroke-width="3" stroke-miterlimit="10" stroke-linecap="square"/>
<path d="M400.479 18.1847V7.28125H360.658V47.1025H400.005V36.6731" stroke="black" stroke-width="3" stroke-miterlimit="10" stroke-linecap="square"/>
<path d="M387.68 27.1919L360.658 27.1919" stroke="black" stroke-width="3" stroke-miterlimit="10" stroke-linecap="square"/>
<path d="M387.679 17.2363V37.621" stroke="black" stroke-width="3" stroke-miterlimit="10" stroke-linecap="square"/>
<path d="M221.802 134.852V123.948H181.98V163.769H221.328V153.34" stroke="black" stroke-width="3" stroke-miterlimit="10" stroke-linecap="square"/>
<path d="M209.002 143.859L181.98 143.859" stroke="black" stroke-width="3" stroke-miterlimit="10" stroke-linecap="square"/>
<path d="M209.002 133.903V154.288" stroke="black" stroke-width="3" stroke-miterlimit="10" stroke-linecap="square"/>
<path d="M396.322 77.4674V66.564H356.5V106.385H395.847V95.9559" stroke="black" stroke-width="3" stroke-miterlimit="10" stroke-linecap="square"/>
<path d="M383.522 86.4746L356.5 86.4746" stroke="black" stroke-width="3" stroke-miterlimit="10" stroke-linecap="square"/>
<path d="M383.522 76.5193V96.904" stroke="black" stroke-width="3" stroke-miterlimit="10" stroke-linecap="square"/>
<path d="M508.273 66H497.826V106.781H498.763L536.85 66.4855H537.74V106.781H526.45" stroke="black" stroke-width="3" stroke-miterlimit="10" stroke-linecap="square"/>
<path d="M340.223 123.692H329.777V163.605H330.714L368.8 124.167H369.69V163.605H358.4" stroke="black" stroke-width="3" stroke-miterlimit="10" stroke-linecap="square"/>
<path d="M388.078 123.692H377.631V163.605H378.568L416.654 124.167H417.545V163.605H406.255" stroke="black" stroke-width="3" stroke-miterlimit="10" stroke-linecap="square"/>
<path d="M153.255 7H142V47H143.009L184.041 7.47619H185V47H172.837" stroke="black" stroke-width="3" stroke-miterlimit="10" stroke-linecap="square"/>
<path d="M270.979 66H260.759V106.781H261.676L298.934 66.4855H299.805V106.781H288.76" stroke="black" stroke-width="3" stroke-miterlimit="10" stroke-linecap="square"/>
<path d="M14.6735 123.948H3.77002V163.769H4.71815L43.5913 124.896V123.948H33.1619" stroke="black" stroke-width="3" stroke-miterlimit="10" stroke-linecap="square"/>
<path d="M43.5911 152.866V163.769H42.6429L23.6804 145.281" stroke="black" stroke-width="3" stroke-miterlimit="10" stroke-linecap="square"/>
<path d="M460.921 66.564H450.017V106.385H450.965L489.839 67.5121V66.564H479.409" stroke="black" stroke-width="3" stroke-miterlimit="10" stroke-linecap="square"/>
<path d="M489.838 95.4816V106.385H488.89L469.928 87.8966" stroke="black" stroke-width="3" stroke-miterlimit="10" stroke-linecap="square"/>
<path d="M240.655 123.948H229.752V163.769H230.7L269.573 124.896V123.948H259.144" stroke="black" stroke-width="3" stroke-miterlimit="10" stroke-linecap="square"/>
<path d="M269.573 152.866V163.769H268.625L249.662 145.281" stroke="black" stroke-width="3" stroke-miterlimit="10" stroke-linecap="square"/>
<path d="M115.885 163.605H126.946V124.56H125.503L87.0325 162.664V163.605H97.131" stroke="black" stroke-width="3" stroke-miterlimit="10" stroke-linecap="square"/>
<path d="M162.872 163.605H173.933V124.56H172.49L134.02 162.664V163.605H144.118" stroke="black" stroke-width="3" stroke-miterlimit="10" stroke-linecap="square"/>
<path d="M203.987 46.2516H192.948V7.20605H223.557C231.084 7.20605 234.597 12.3808 234.597 16.6146C234.597 21.7893 231.586 26.964 224.059 26.964H192.948" stroke="black" stroke-width="3" stroke-miterlimit="10" stroke-linecap="square"/>
<path d="M3.77002 76.5192V66.0898H43.5913V76.5192" stroke="black" stroke-width="3" stroke-miterlimit="10" stroke-linecap="square"/>
<path d="M24.1545 106.385V66.5165" stroke="black" stroke-width="3" stroke-miterlimit="10" stroke-linecap="square"/>
<path d="M313.834 17.6354V7.20605H353.656V17.6354" stroke="black" stroke-width="3" stroke-miterlimit="10" stroke-linecap="square"/>
<path d="M334.219 47.5013V7.63257" stroke="black" stroke-width="3" stroke-miterlimit="10" stroke-linecap="square"/>
<path d="M213.134 76.5192V66.0898H252.955V76.5192" stroke="black" stroke-width="3" stroke-miterlimit="10" stroke-linecap="square"/>
<path d="M233.519 106.385V66.5165" stroke="black" stroke-width="3" stroke-miterlimit="10" stroke-linecap="square"/>
<path d="M317.918 163.77H324.555V173.725" stroke="black" stroke-width="3" stroke-miterlimit="10" stroke-linecap="square"/>
<path d="M288.147 123.948H277.575V163.769H306.54" stroke="black" stroke-width="3" stroke-miterlimit="10" stroke-linecap="square"/>
<path d="M317.444 123V163.769" stroke="black" stroke-width="3" stroke-miterlimit="10" stroke-linecap="square"/>
</svg>
