<svg width="682" height="228" viewBox="0 0 682 228" fill="none" xmlns="http://www.w3.org/2000/svg">
<path d="M41.0456 2V15.1479H39.6343C39.6343 15.1479 34.93 2.46957 21.2876 2.46957C7.64514 2.46957 2 13.7392 2 22.1914C2 30.6436 8.11557 41.9132 21.2876 41.9132C34.4596 41.9132 38.6934 32.5219 40.1047 29.7045H41.0456V41.9132" stroke="black" stroke-width="3" stroke-miterlimit="10" stroke-linecap="square"/>
<path d="M415.209 100.214H403.999V99.7472L442.299 60.9801H443.233V100.214H432.958" stroke="black" stroke-width="3" stroke-miterlimit="10" stroke-linecap="square"/>
<path d="M443.701 81.0642L463.785 61.4471H465.186V100.214H454.443" stroke="black" stroke-width="3" stroke-miterlimit="10" stroke-linecap="square"/>
<path d="M629.595 159.867H618.385V159.399L656.685 120.632H657.619V159.867H647.344" stroke="black" stroke-width="3" stroke-miterlimit="10" stroke-linecap="square"/>
<path d="M658.087 140.716L678.171 121.099H679.572V159.866H668.83" stroke="black" stroke-width="3" stroke-miterlimit="10" stroke-linecap="square"/>
<path d="M600.006 159.913C611.028 159.913 619.963 150.978 619.963 139.957C619.963 128.935 611.028 120 600.006 120C588.985 120 580.05 128.935 580.05 139.957C580.05 150.978 588.985 159.913 600.006 159.913Z" stroke="black" stroke-width="3" stroke-miterlimit="10" stroke-linecap="square"/>
<path d="M5.4707 138.957H33.9308C38.945 138.957 44.5163 136.106 44.5163 128.503C44.5163 120.901 35.695 119 33.3736 119H5.51713V158.913H35.695C42.1949 158.913 44.4698 151.786 44.052 147.985C43.6341 144.183 39.4092 138.957 33.8379 138.957" stroke="black" stroke-width="3" stroke-miterlimit="10" stroke-linecap="square"/>
<path d="M486.811 139.957H515.904C521.029 139.957 526.724 137.106 526.724 129.503C526.724 121.901 517.707 120 515.334 120H486.858V159.913H517.707C524.351 159.913 526.677 152.786 526.25 148.985C525.823 145.183 521.504 139.957 515.809 139.957" stroke="black" stroke-width="3" stroke-miterlimit="10" stroke-linecap="square"/>
<path d="M76.9294 100.214H88.1392V60.9801H86.738L49.3721 98.8131V100.214H59.6477" stroke="black" stroke-width="3" stroke-miterlimit="10" stroke-linecap="square"/>
<path d="M61.2822 87.7904H88.0923" stroke="black" stroke-width="3" stroke-miterlimit="10" stroke-linecap="square"/>
<path d="M79.5339 216.961H90.7437V177.727H89.3425L51.9766 215.56V216.961H62.2522" stroke="black" stroke-width="3" stroke-miterlimit="10" stroke-linecap="square"/>
<path d="M63.8867 204.537H90.6967" stroke="black" stroke-width="3" stroke-miterlimit="10" stroke-linecap="square"/>
<path d="M326.272 159.334H337.482V120.099H336.081L298.715 157.932V159.334H308.99" stroke="black" stroke-width="3" stroke-miterlimit="10" stroke-linecap="square"/>
<path d="M310.625 146.91H337.435" stroke="black" stroke-width="3" stroke-miterlimit="10" stroke-linecap="square"/>
<path d="M322.938 217.428H334.148V178.194H332.747L295.381 216.027V217.428H305.656" stroke="black" stroke-width="3" stroke-miterlimit="10" stroke-linecap="square"/>
<path d="M307.291 205.004H334.101" stroke="black" stroke-width="3" stroke-miterlimit="10" stroke-linecap="square"/>
<path d="M384.983 100.214H396.192V60.9801H394.791L357.425 98.8131V100.214H367.701" stroke="black" stroke-width="3" stroke-miterlimit="10" stroke-linecap="square"/>
<path d="M369.335 87.7904H396.145" stroke="black" stroke-width="3" stroke-miterlimit="10" stroke-linecap="square"/>
<path d="M147.257 41.7011L184.156 2.93396H185.557V41.7011H147.257Z" stroke="black" stroke-width="3" stroke-miterlimit="10" stroke-linecap="square"/>
<path d="M185.558 41.701H192.097V51.5096" stroke="black" stroke-width="3" stroke-miterlimit="10" stroke-linecap="square"/>
<path d="M147.725 41.701H141.186V51.5096" stroke="black" stroke-width="3" stroke-miterlimit="10" stroke-linecap="square"/>
<path d="M244.404 216.494L281.303 177.727H282.704V216.494H244.404Z" stroke="black" stroke-width="3" stroke-miterlimit="10" stroke-linecap="square"/>
<path d="M282.704 216.494H289.243V226.302" stroke="black" stroke-width="3" stroke-miterlimit="10" stroke-linecap="square"/>
<path d="M244.871 216.494H238.332V226.302" stroke="black" stroke-width="3" stroke-miterlimit="10" stroke-linecap="square"/>
<path d="M333.617 14.1439V3.40125H294.383V42.6354H333.15V32.3598" stroke="black" stroke-width="3" stroke-miterlimit="10" stroke-linecap="square"/>
<path d="M321.006 23.0183L294.383 23.0183" stroke="black" stroke-width="3" stroke-miterlimit="10" stroke-linecap="square"/>
<path d="M321.006 13.21V33.2941" stroke="black" stroke-width="3" stroke-miterlimit="10" stroke-linecap="square"/>
<path d="M429.293 188.469V177.727H390.059V216.961H428.826V206.685" stroke="black" stroke-width="3" stroke-miterlimit="10" stroke-linecap="square"/>
<path d="M416.681 197.344L390.058 197.344" stroke="black" stroke-width="3" stroke-miterlimit="10" stroke-linecap="square"/>
<path d="M416.681 187.535V207.619" stroke="black" stroke-width="3" stroke-miterlimit="10" stroke-linecap="square"/>
<path d="M264.488 129.375V118.632H225.254V157.867H264.021V147.591" stroke="black" stroke-width="3" stroke-miterlimit="10" stroke-linecap="square"/>
<path d="M251.877 138.249L225.254 138.249" stroke="black" stroke-width="3" stroke-miterlimit="10" stroke-linecap="square"/>
<path d="M251.877 128.441V148.525" stroke="black" stroke-width="3" stroke-miterlimit="10" stroke-linecap="square"/>
<path d="M134.714 13.6767V2.93396H95.4795V42.1681H134.247V31.8925" stroke="black" stroke-width="3" stroke-miterlimit="10" stroke-linecap="square"/>
<path d="M122.102 22.551L95.479 22.551" stroke="black" stroke-width="3" stroke-miterlimit="10" stroke-linecap="square"/>
<path d="M122.102 12.7426V32.8267" stroke="black" stroke-width="3" stroke-miterlimit="10" stroke-linecap="square"/>
<path d="M183.823 188.937V178.194H144.589V217.428H183.356V207.152" stroke="black" stroke-width="3" stroke-miterlimit="10" stroke-linecap="square"/>
<path d="M171.212 197.811L144.588 197.811" stroke="black" stroke-width="3" stroke-miterlimit="10" stroke-linecap="square"/>
<path d="M171.211 188.003V208.087" stroke="black" stroke-width="3" stroke-miterlimit="10" stroke-linecap="square"/>
<path d="M211.235 71.2556V60.5129H172.001V99.7471H210.768V89.4715" stroke="black" stroke-width="3" stroke-miterlimit="10" stroke-linecap="square"/>
<path d="M198.624 80.13L172.001 80.13" stroke="black" stroke-width="3" stroke-miterlimit="10" stroke-linecap="square"/>
<path d="M198.624 70.3215V90.4057" stroke="black" stroke-width="3" stroke-miterlimit="10" stroke-linecap="square"/>
<path d="M5.26953 89.0045V100.214H35.1622C43.5696 100.214 44.5037 92.7411 44.5037 89.9386C44.5037 87.1362 41.7013 80.5972 35.1622 80.5972H17.4134" stroke="black" stroke-width="3" stroke-miterlimit="10" stroke-linecap="square"/>
<path d="M5.27051 72.1899V60.9801H35.1632C43.5705 60.9801 44.5047 68.4533 44.5047 71.2557C44.5047 74.0582 41.7023 80.5972 35.1632 80.5972H17.4144" stroke="black" stroke-width="3" stroke-miterlimit="10" stroke-linecap="square"/>
<path d="M17.4136 71.2556V89.4715" stroke="black" stroke-width="3" stroke-miterlimit="10" stroke-linecap="square"/>
<path d="M312.587 89.0045V100.214H342.48C350.887 100.214 351.822 92.7411 351.822 89.9386C351.822 87.1362 349.019 80.5972 342.48 80.5972H324.731" stroke="black" stroke-width="3" stroke-miterlimit="10" stroke-linecap="square"/>
<path d="M312.588 72.1899V60.9801H342.481C350.888 60.9801 351.822 68.4533 351.822 71.2557C351.822 74.0582 349.02 80.5972 342.481 80.5972H324.732" stroke="black" stroke-width="3" stroke-miterlimit="10" stroke-linecap="square"/>
<path d="M324.731 71.2556V89.4715" stroke="black" stroke-width="3" stroke-miterlimit="10" stroke-linecap="square"/>
<path d="M93.1411 119H82.6943V158.913H83.6313L121.717 119.475H122.608V158.913H111.318" stroke="black" stroke-width="3" stroke-miterlimit="10" stroke-linecap="square"/>
<path d="M210.336 2.86768H199.889V41.9132H200.826L238.912 3.3325H239.802V41.9132H228.512" stroke="black" stroke-width="3" stroke-miterlimit="10" stroke-linecap="square"/>
<path d="M275.544 60.6638H265.098V100.577H266.035L304.121 61.139H305.011V100.577H293.721" stroke="black" stroke-width="3" stroke-miterlimit="10" stroke-linecap="square"/>
<path d="M483.808 60.6638H473.134V100.577H474.092L513.006 61.139H513.915V100.577H502.38" stroke="black" stroke-width="3" stroke-miterlimit="10" stroke-linecap="square"/>
<path d="M449.63 120H438.957V159.913H439.914L478.828 120.475H479.737V159.913H468.202" stroke="black" stroke-width="3" stroke-miterlimit="10" stroke-linecap="square"/>
<path d="M16.0122 177.727H5.26953V216.961H6.20368L44.5037 178.661V177.727H34.2281" stroke="black" stroke-width="3" stroke-miterlimit="10" stroke-linecap="square"/>
<path d="M44.5038 206.218V216.961H43.5697L24.8867 198.745" stroke="black" stroke-width="3" stroke-miterlimit="10" stroke-linecap="square"/>
<path d="M356.631 120.099H345.888V159.334H346.822L385.122 121.034V120.099H374.847" stroke="black" stroke-width="3" stroke-miterlimit="10" stroke-linecap="square"/>
<path d="M385.122 148.591V159.334H384.188L365.505 141.118" stroke="black" stroke-width="3" stroke-miterlimit="10" stroke-linecap="square"/>
<path d="M246.337 99.7094H257.156V60.6638H255.745L218.111 98.7685V99.7094H227.99" stroke="black" stroke-width="3" stroke-miterlimit="10" stroke-linecap="square"/>
<path d="M126.043 216.758H136.623V178.58H135.243L98.4448 215.838V216.758H108.104" stroke="black" stroke-width="3" stroke-miterlimit="10" stroke-linecap="square"/>
<path d="M76.3448 41.9132H87.1647V2.86768H85.7534L48.1191 40.9724V41.9132H57.9981" stroke="black" stroke-width="3" stroke-miterlimit="10" stroke-linecap="square"/>
<path d="M544.388 120.165H534.579V159.4H544.855" stroke="black" stroke-width="3" stroke-miterlimit="10" stroke-linecap="square"/>
<path d="M563.537 120.165H573.345V159.399H563.07" stroke="black" stroke-width="3" stroke-miterlimit="10" stroke-linecap="square"/>
<path d="M534.579 140.249L572.879 140.249" stroke="black" stroke-width="3" stroke-miterlimit="10" stroke-linecap="square"/>
<path d="M141.65 119.165H131.842V158.399H142.117" stroke="black" stroke-width="3" stroke-miterlimit="10" stroke-linecap="square"/>
<path d="M160.8 119.165H170.609V158.399H160.333" stroke="black" stroke-width="3" stroke-miterlimit="10" stroke-linecap="square"/>
<path d="M131.841 139.249L170.141 139.249" stroke="black" stroke-width="3" stroke-miterlimit="10" stroke-linecap="square"/>
<path d="M202.637 178.194H192.829V217.428H203.104" stroke="black" stroke-width="3" stroke-miterlimit="10" stroke-linecap="square"/>
<path d="M221.787 178.194H231.596V217.428H221.32" stroke="black" stroke-width="3" stroke-miterlimit="10" stroke-linecap="square"/>
<path d="M192.829 198.278L231.129 198.278" stroke="black" stroke-width="3" stroke-miterlimit="10" stroke-linecap="square"/>
<path d="M135.957 99.7094H125.607V60.6638H154.304C161.36 60.6638 164.653 65.8385 164.653 70.0724C164.653 75.2471 161.83 80.4218 154.774 80.4218H125.607" stroke="black" stroke-width="3" stroke-miterlimit="10" stroke-linecap="square"/>
<path d="M283.124 157.913H272.774V118.868H301.471C308.527 118.868 311.82 124.042 311.82 128.276C311.82 133.451 308.997 138.626 301.941 138.626H272.774" stroke="black" stroke-width="3" stroke-miterlimit="10" stroke-linecap="square"/>
<path d="M353.562 216.772H342.983V178.594H372.317C379.53 178.594 382.896 183.654 382.896 187.794C382.896 192.854 380.011 197.913 372.798 197.913H342.983" stroke="black" stroke-width="3" stroke-miterlimit="10" stroke-linecap="square"/>
<path d="M247.742 13.2096V2.93396H286.976V13.2096" stroke="black" stroke-width="3" stroke-miterlimit="10" stroke-linecap="square"/>
<path d="M267.827 42.6353V3.35437" stroke="black" stroke-width="3" stroke-miterlimit="10" stroke-linecap="square"/>
<path d="M178.614 129.441V119.165H217.848V129.441" stroke="black" stroke-width="3" stroke-miterlimit="10" stroke-linecap="square"/>
<path d="M198.698 158.867V119.586" stroke="black" stroke-width="3" stroke-miterlimit="10" stroke-linecap="square"/>
<path d="M392.26 130.441V120.165H431.494V130.441" stroke="black" stroke-width="3" stroke-miterlimit="10" stroke-linecap="square"/>
<path d="M412.344 159.867V120.586" stroke="black" stroke-width="3" stroke-miterlimit="10" stroke-linecap="square"/>
</svg>
