<svg width="618" height="168" viewBox="0 0 618 168" fill="none" xmlns="http://www.w3.org/2000/svg">
<path d="M31.5679 7.80127H42.8733V49.1097" stroke="black" stroke-width="3"/>
<path d="M14.1751 7.80127H2V28.6729H43.3084" stroke="black" stroke-width="3"/>
<path d="M62.396 8.07373H51.7222V47.987H52.6795L91.5936 8.54889H92.5031V47.987H80.9676" stroke="black" stroke-width="3" stroke-miterlimit="10" stroke-linecap="square"/>
<path d="M99.7095 18.6297V8.07373H140.014V18.6297" stroke="black" stroke-width="3" stroke-miterlimit="10" stroke-linecap="square"/>
<path d="M120.342 48.8584V8.50562" stroke="black" stroke-width="3" stroke-miterlimit="10" stroke-linecap="square"/>
<path d="M479.812 17.8351V7.20605H520.395V17.8351" stroke="black" stroke-width="3" stroke-miterlimit="10" stroke-linecap="square"/>
<path d="M500.586 48.2729V7.64087" stroke="black" stroke-width="3" stroke-miterlimit="10" stroke-linecap="square"/>
<path d="M402.323 18.7028V8.07373H442.907V18.7028" stroke="black" stroke-width="3" stroke-miterlimit="10" stroke-linecap="square"/>
<path d="M423.098 49.1406V8.50854" stroke="black" stroke-width="3" stroke-miterlimit="10" stroke-linecap="square"/>
<path d="M156.657 48.0663H168.173V7.76147H166.733L128.348 46.6268V48.0663H138.904" stroke="black" stroke-width="3" stroke-miterlimit="10" stroke-linecap="square"/>
<path d="M140.583 35.3032H168.125" stroke="black" stroke-width="3" stroke-miterlimit="10" stroke-linecap="square"/>
<path d="M460.728 48.2732H472.323V7.68945H470.874L432.223 46.8237V48.2732H442.852" stroke="black" stroke-width="3" stroke-miterlimit="10" stroke-linecap="square"/>
<path d="M444.542 35.4219H472.275" stroke="black" stroke-width="3" stroke-miterlimit="10" stroke-linecap="square"/>
<path d="M224.92 18.6297V8.07373H265.225V18.6297" stroke="black" stroke-width="3" stroke-miterlimit="10" stroke-linecap="square"/>
<path d="M245.552 48.8584V8.50562" stroke="black" stroke-width="3" stroke-miterlimit="10" stroke-linecap="square"/>
<path d="M313.344 19.1096V8.07373H273.04V48.3785H312.865V37.8225" stroke="black" stroke-width="3" stroke-miterlimit="10" stroke-linecap="square"/>
<path d="M300.389 28.2261L273.039 28.2261" stroke="black" stroke-width="3" stroke-miterlimit="10" stroke-linecap="square"/>
<path d="M300.389 18.1499V38.7821" stroke="black" stroke-width="3" stroke-miterlimit="10" stroke-linecap="square"/>
<path d="M395.25 8.23828V21.672H393.807C393.807 21.672 388.998 8.71806 375.053 8.71806C361.107 8.71806 355.336 20.2327 355.336 28.8686C355.336 37.5046 361.588 49.0192 375.053 49.0192C388.517 49.0192 392.845 39.4237 394.288 36.545H395.25V49.0192" stroke="black" stroke-width="3" stroke-miterlimit="10" stroke-linecap="square"/>
<path d="M557.318 27.4979C563.116 27.4979 567.464 32.3293 567.947 36.6776C568.43 41.0258 566.015 47.7898 559.251 47.7898H527.847V7.20605" stroke="black" stroke-width="3" stroke-miterlimit="10" stroke-linecap="square"/>
<path d="M527.798 27.498H557.366" stroke="black" stroke-width="3" stroke-miterlimit="10" stroke-linecap="square"/>
<path d="M585.686 7.37061H574.785V48.1515H575.763L615.505 7.85609H616.434V48.1515H604.653" stroke="black" stroke-width="3" stroke-miterlimit="10" stroke-linecap="square"/>
<path d="M113.468 66.8376H124.599V67.8056L84.4292 106.04V107.008H95.0767" stroke="black" stroke-width="3" stroke-miterlimit="10" stroke-linecap="square"/>
<path d="M95.5607 66.8376H84.4292V67.8056L124.599 106.04V107.008H113.952" stroke="black" stroke-width="3" stroke-miterlimit="10" stroke-linecap="square"/>
<path d="M104.756 65.8699V107.734" stroke="black" stroke-width="3"/>
<path d="M141.307 66.7375H130.633V107.518H131.591L170.505 67.223H171.414V107.518H159.879" stroke="black" stroke-width="3" stroke-miterlimit="10" stroke-linecap="square"/>
<path d="M179.271 96.3605V107.976H210.246C218.958 107.976 219.926 100.232 219.926 97.3285C219.926 94.4246 217.022 87.6489 210.246 87.6489H191.855" stroke="black" stroke-width="3" stroke-miterlimit="10" stroke-linecap="square"/>
<path d="M179.272 78.9372V67.3218H210.247C218.958 67.3218 219.926 75.0654 219.926 77.9693C219.926 80.8731 217.022 87.6488 210.247 87.6488H191.855" stroke="black" stroke-width="3" stroke-miterlimit="10" stroke-linecap="square"/>
<path d="M191.855 77.9692V96.8444" stroke="black" stroke-width="3" stroke-miterlimit="10" stroke-linecap="square"/>
<path d="M236.29 67.3223H226.126V107.976H236.774" stroke="black" stroke-width="3" stroke-miterlimit="10" stroke-linecap="square"/>
<path d="M256.132 67.3218H266.296V107.976H255.648" stroke="black" stroke-width="3" stroke-miterlimit="10" stroke-linecap="square"/>
<path d="M226.125 88.1328L265.812 88.1328" stroke="black" stroke-width="3" stroke-miterlimit="10" stroke-linecap="square"/>
<path d="M285.881 67.6052H274.98V108.386H275.958L315.7 68.0907H316.629V108.386H304.848" stroke="black" stroke-width="3" stroke-miterlimit="10" stroke-linecap="square"/>
<path d="M21.9566 106.651C32.9783 106.651 41.9132 97.7159 41.9132 86.6942C41.9132 75.6724 32.9783 66.7375 21.9566 66.7375C10.9349 66.7375 2 75.6724 2 86.6942C2 97.7159 10.9349 106.651 21.9566 106.651Z" stroke="black" stroke-width="3.57" stroke-miterlimit="10" stroke-linecap="square"/>
<path d="M268.285 165.551C279.408 165.551 288.426 156.534 288.426 145.41C288.426 134.287 279.408 125.269 268.285 125.269C257.161 125.269 248.144 134.287 248.144 145.41C248.144 156.534 257.161 165.551 268.285 165.551Z" stroke="black" stroke-width="3" stroke-miterlimit="10" stroke-linecap="square"/>
<path d="M12.5349 166.089H2V126.344H31.2103C38.3931 126.344 41.7451 131.611 41.7451 135.921C41.7451 141.188 38.872 146.456 31.6891 146.456H2" stroke="black" stroke-width="3" stroke-miterlimit="10" stroke-linecap="square"/>
<path d="M57.9276 166.091H69.3814V126.003H67.9496L29.7705 164.659V166.091H40.2698" stroke="black" stroke-width="3" stroke-miterlimit="10" stroke-linecap="square"/>
<path d="M41.9404 153.396H69.334" stroke="black" stroke-width="3" stroke-miterlimit="10" stroke-linecap="square"/>
<path d="M76.8848 154.637V166.09H107.428C116.018 166.09 116.973 158.454 116.973 155.591C116.973 152.728 114.109 146.046 107.428 146.046H89.293" stroke="black" stroke-width="3" stroke-miterlimit="10" stroke-linecap="square"/>
<path d="M76.8848 137.457V126.003H107.428C116.018 126.003 116.973 133.639 116.973 136.502C116.973 139.366 114.109 146.047 107.428 146.047H89.293" stroke="black" stroke-width="3" stroke-miterlimit="10" stroke-linecap="square"/>
<path d="M89.2935 136.502V155.114" stroke="black" stroke-width="3" stroke-miterlimit="10" stroke-linecap="square"/>
<path d="M135.689 165.551H125.296V125.806H154.112C161.198 125.806 164.504 131.074 164.504 135.383C164.504 140.651 161.67 145.918 154.584 145.918H125.296" stroke="black" stroke-width="3" stroke-miterlimit="10" stroke-linecap="square"/>
<path d="M181.446 165.613H192.899V125.525H191.468L153.289 164.181V165.613H163.788" stroke="black" stroke-width="3" stroke-miterlimit="10" stroke-linecap="square"/>
<path d="M165.458 152.92H192.852" stroke="black" stroke-width="3" stroke-miterlimit="10" stroke-linecap="square"/>
<path d="M230.219 145.569C235.945 145.569 240.241 150.341 240.718 154.637C241.195 158.932 238.809 165.613 232.127 165.613H201.107V125.525H240.718V136.501" stroke="black" stroke-width="3" stroke-miterlimit="10" stroke-linecap="square"/>
<path d="M201.059 145.569H230.266" stroke="black" stroke-width="3" stroke-miterlimit="10" stroke-linecap="square"/>
<path d="M292.912 136.024V125.525H333V136.024" stroke="black" stroke-width="3" stroke-miterlimit="10" stroke-linecap="square"/>
<path d="M313.433 166.09V125.954" stroke="black" stroke-width="3" stroke-miterlimit="10" stroke-linecap="square"/>
<path d="M398.733 124.269H388.19V164.551H389.136L427.574 124.749H428.472V164.551H417.078" stroke="black" stroke-width="3" stroke-miterlimit="10" stroke-linecap="square"/>
<path d="M447.151 125.003H436.175V165.091H437.129L476.263 125.957V125.003H465.764" stroke="black" stroke-width="3" stroke-miterlimit="10" stroke-linecap="square"/>
<path d="M476.262 154.114V165.09H475.308L456.218 146.478" stroke="black" stroke-width="3" stroke-miterlimit="10" stroke-linecap="square"/>
<path d="M500.563 164.551C511.687 164.551 520.704 155.534 520.704 144.41C520.704 133.287 511.687 124.269 500.563 124.269C489.439 124.269 480.422 133.287 480.422 144.41C480.422 155.534 489.439 164.551 500.563 164.551Z" stroke="black" stroke-width="3" stroke-miterlimit="10" stroke-linecap="square"/>
<path d="M528.149 144.41H557.511C562.684 144.41 568.432 141.533 568.432 133.86C568.432 126.187 559.331 124.269 556.936 124.269H528.197V164.551H559.331C566.037 164.551 568.384 157.358 567.953 153.522C567.522 149.685 563.163 144.41 557.415 144.41" stroke="black" stroke-width="3" stroke-miterlimit="10" stroke-linecap="square"/>
<path d="M369.521 125.091H380.8V166.306" stroke="black" stroke-width="3"/>
<path d="M352.167 125.092H340.02V145.916H381.234" stroke="black" stroke-width="3"/>
<path d="M186.493 7.32495H175.698V47.9871H176.666L216.022 7.80902H216.941V47.9871H205.275" stroke="black" stroke-width="3" stroke-miterlimit="10" stroke-linecap="square"/>
<path d="M190.22 2H202.806" stroke="black" stroke-width="3"/>
</svg>
