<svg width="547" height="231" viewBox="0 0 547 231" fill="none" xmlns="http://www.w3.org/2000/svg">
<path d="M16.9996 2.2207H2.64746V59.7463H17.6831" stroke="black" stroke-width="3.84" stroke-miterlimit="10" stroke-linecap="square"/>
<path d="M45.0203 2.2207H59.3725V59.7463H44.3369" stroke="black" stroke-width="3.84" stroke-miterlimit="10" stroke-linecap="square"/>
<path d="M2.64746 31.6685L58.6892 31.6685" stroke="black" stroke-width="3.84" stroke-miterlimit="10" stroke-linecap="square"/>
<path d="M108.377 59.7463H124.78V2.2207H122.73L68.0547 57.6918V59.7463H83.0903" stroke="black" stroke-width="4" stroke-miterlimit="10" stroke-linecap="square"/>
<path d="M85.4824 41.5298H124.712" stroke="black" stroke-width="3.9" stroke-miterlimit="10" stroke-linecap="square"/>
<path d="M150.181 2H135V59H136.362L191.707 2.67857H193V59H176.594" stroke="black" stroke-width="3.84" stroke-miterlimit="10" stroke-linecap="square"/>
<path d="M17.919 172H3V229H4.33803L58.7289 172.679H60V229H43.8768" stroke="black" stroke-width="3.84" stroke-miterlimit="10" stroke-linecap="square"/>
<path d="M211.758 59.0615L265.749 2.2207H267.8V59.0615H211.758Z" stroke="black" stroke-width="3.9" stroke-miterlimit="10" stroke-linecap="square"/>
<path d="M267.799 59.0615H277.367V73.4429" stroke="black" stroke-width="3.61" stroke-miterlimit="10" stroke-linecap="square"/>
<path d="M212.441 59.0615H202.873V73.4429" stroke="black" stroke-width="3.61" stroke-miterlimit="10" stroke-linecap="square"/>
<path d="M329.341 2.2207H344.377V4.27519L289.702 59.7463H287.651V44.6801" stroke="black" stroke-width="3.57" stroke-miterlimit="10" stroke-linecap="square"/>
<path d="M302.003 2.2207H286.968V3.59036L316.014 32.6956" stroke="black" stroke-width="3.57" stroke-miterlimit="10" stroke-linecap="square"/>
<path d="M355.044 17.2869V2.2207H412.453V17.2869" stroke="black" stroke-width="3.57" stroke-miterlimit="10" stroke-linecap="square"/>
<path d="M384.432 60.431V2.83691" stroke="black" stroke-width="3.57" stroke-miterlimit="10" stroke-linecap="square"/>
<path d="M477 3V22.1059H474.867C474.867 22.1059 467.759 3.68235 447.145 3.68235C426.53 3.68235 418 20.0588 418 32.3412C418 44.6235 427.241 61 447.145 61C467.048 61 473.446 47.3529 475.578 43.2588H477V61" stroke="black" stroke-width="3.9" stroke-miterlimit="10" stroke-linecap="square"/>
<path d="M502.549 32.3195C494.22 32.3195 487.973 25.4712 487.278 19.3077C486.584 13.1442 490.055 3.55664 499.773 3.55664H544.89V61.0823H529.619" stroke="black" stroke-width="3.9" stroke-miterlimit="10" stroke-linecap="square"/>
<path d="M544.265 32.3193H502.479" stroke="black" stroke-width="3.9" stroke-miterlimit="10" stroke-linecap="square"/>
<path d="M503.937 61.0824H487.973V59.0279L513.655 33.0044" stroke="black" stroke-width="3.9" stroke-miterlimit="10" stroke-linecap="square"/>
<path d="M44.2048 145H60V88H57.9398L3 143.627V145H17.4217" stroke="black" stroke-width="3.84" stroke-miterlimit="10" stroke-linecap="square"/>
<path d="M117.064 143.842C132.871 143.842 145.686 130.964 145.686 115.079C145.686 99.194 132.871 86.3164 117.064 86.3164C101.257 86.3164 88.4424 99.194 88.4424 115.079C88.4424 130.964 101.257 143.842 117.064 143.842Z" stroke="black" stroke-width="3.57" stroke-miterlimit="10" stroke-linecap="square"/>
<path d="M87.0794 144.527H70.7241V86.3164H89.1238" stroke="black" stroke-width="3.57" stroke-miterlimit="10" stroke-linecap="square"/>
<path d="M88.4423 115.079H71.2012" stroke="black" stroke-width="3.57" stroke-miterlimit="10" stroke-linecap="square"/>
<path d="M196.577 116.413C204.779 116.413 210.929 123.261 211.613 129.425C212.296 135.588 208.879 145.176 199.311 145.176H154.888V87.6504H211.613V103.401" stroke="black" stroke-width="3.9" stroke-miterlimit="10" stroke-linecap="square"/>
<path d="M154.819 116.413H196.645" stroke="black" stroke-width="3.9" stroke-miterlimit="10" stroke-linecap="square"/>
<path d="M264.964 115.764C273.226 115.764 279.423 122.613 280.111 128.776C280.8 134.939 277.357 144.527 267.718 144.527H222.966V87.0015" stroke="black" stroke-width="3.9" stroke-miterlimit="10" stroke-linecap="square"/>
<path d="M222.896 115.764H265.031" stroke="black" stroke-width="3.9" stroke-miterlimit="10" stroke-linecap="square"/>
<path d="M282.863 86.3164H298.01V143.842" stroke="black" stroke-width="3.57" stroke-miterlimit="10" stroke-linecap="square"/>
<path d="M251.615 199.858C259.877 199.858 266.074 206.706 266.762 212.87C267.451 219.033 264.008 228.621 254.369 228.621H209.617V171.095" stroke="black" stroke-width="3.9" stroke-miterlimit="10" stroke-linecap="square"/>
<path d="M209.547 199.858H251.683" stroke="black" stroke-width="3.9" stroke-miterlimit="10" stroke-linecap="square"/>
<path d="M269.515 170.41H284.662V227.936" stroke="black" stroke-width="3.57" stroke-miterlimit="10" stroke-linecap="square"/>
<path d="M367.068 102.067V86.3164H309.66V143.842H366.385V128.776" stroke="black" stroke-width="3.9" stroke-miterlimit="10" stroke-linecap="square"/>
<path d="M348.616 115.079L309.66 115.079" stroke="black" stroke-width="3.9" stroke-miterlimit="10" stroke-linecap="square"/>
<path d="M348.616 100.698V130.145" stroke="black" stroke-width="3.9" stroke-miterlimit="10" stroke-linecap="square"/>
<path d="M88.1429 229H71V172H131V187.607" stroke="black" stroke-width="3.9" stroke-miterlimit="10" stroke-linecap="square"/>
<path d="M156.108 228H141V172H182.892C193.193 172 198 179.422 198 185.494C198 192.916 193.88 200.337 183.578 200.337H141" stroke="black" stroke-width="3.57" stroke-miterlimit="10" stroke-linecap="square"/>
</svg>
