<svg width="499" height="168" viewBox="0 0 499 168" fill="none" xmlns="http://www.w3.org/2000/svg">
<path d="M34.1621 7.24414H44.6505V8.67438L6.51081 47.2909H5.08057V36.8024" stroke="black" stroke-width="3" stroke-miterlimit="10" stroke-linecap="square"/>
<path d="M15.0915 7.24414H4.60303V8.19763L24.8648 28.4594" stroke="black" stroke-width="3" stroke-miterlimit="10" stroke-linecap="square"/>
<path d="M173.604 66.4766H184.092V67.9068L145.953 106.523H144.522V96.0349" stroke="black" stroke-width="3" stroke-miterlimit="10" stroke-linecap="square"/>
<path d="M154.534 66.4771H144.046V67.4305L164.308 87.6923" stroke="black" stroke-width="3" stroke-miterlimit="10" stroke-linecap="square"/>
<path d="M51.894 35.849V47.2909H82.4058C90.9873 47.2909 91.9408 39.663 91.9408 36.8025C91.9408 33.942 89.0803 27.2676 82.4058 27.2676H64.2895" stroke="black" stroke-width="3" stroke-miterlimit="10" stroke-linecap="square"/>
<path d="M51.8945 18.6861V7.24414H82.4063C90.9878 7.24414 91.9413 14.8721 91.9413 17.7326C91.9413 20.593 89.0808 27.2675 82.4063 27.2675H64.2899" stroke="black" stroke-width="3" stroke-miterlimit="10" stroke-linecap="square"/>
<path d="M64.2896 17.7327V36.3258" stroke="black" stroke-width="3" stroke-miterlimit="10" stroke-linecap="square"/>
<path d="M110.197 7.24438H100.186V47.2911H110.674" stroke="black" stroke-width="3" stroke-miterlimit="10" stroke-linecap="square"/>
<path d="M129.743 7.24414H139.755V47.2909H129.266" stroke="black" stroke-width="3" stroke-miterlimit="10" stroke-linecap="square"/>
<path d="M100.185 27.7444L139.278 27.7444" stroke="black" stroke-width="3" stroke-miterlimit="10" stroke-linecap="square"/>
<path d="M312.524 66.4775H302.512V106.524H313.001" stroke="black" stroke-width="3" stroke-miterlimit="10" stroke-linecap="square"/>
<path d="M332.07 66.4766H342.081V106.523H331.593" stroke="black" stroke-width="3" stroke-miterlimit="10" stroke-linecap="square"/>
<path d="M302.511 86.9766L341.604 86.9766" stroke="black" stroke-width="3" stroke-miterlimit="10" stroke-linecap="square"/>
<path d="M359.815 66.4773H349.803V106.524H360.292" stroke="black" stroke-width="3" stroke-miterlimit="10" stroke-linecap="square"/>
<path d="M379.361 66.4766H389.373V106.523H378.884" stroke="black" stroke-width="3" stroke-miterlimit="10" stroke-linecap="square"/>
<path d="M349.803 86.9766L388.896 86.9766" stroke="black" stroke-width="3" stroke-miterlimit="10" stroke-linecap="square"/>
<path d="M175.127 47.2909H186.569V7.24414H185.139L146.999 45.8606V47.2909H157.487" stroke="black" stroke-width="3" stroke-miterlimit="10" stroke-linecap="square"/>
<path d="M159.156 34.6096H186.522" stroke="black" stroke-width="3" stroke-miterlimit="10" stroke-linecap="square"/>
<path d="M192.673 106.523H204.115V66.4766H202.685L164.545 105.093V106.523H175.034" stroke="black" stroke-width="3" stroke-miterlimit="10" stroke-linecap="square"/>
<path d="M176.703 93.8418H204.068" stroke="black" stroke-width="3" stroke-miterlimit="10" stroke-linecap="square"/>
<path d="M30.1281 107H41.57V66.9536H40.1397L2 105.57V107H12.4884" stroke="black" stroke-width="3" stroke-miterlimit="10" stroke-linecap="square"/>
<path d="M14.1572 94.3191H41.5225" stroke="black" stroke-width="3" stroke-miterlimit="10" stroke-linecap="square"/>
<path d="M266.812 47.2909H278.254V7.24414H276.823L238.684 45.8606V47.2909H249.172" stroke="black" stroke-width="3" stroke-miterlimit="10" stroke-linecap="square"/>
<path d="M250.841 34.6096H278.206" stroke="black" stroke-width="3" stroke-miterlimit="10" stroke-linecap="square"/>
<path d="M194.683 27.7441H223.908C229.057 27.7441 234.777 24.8836 234.777 17.2556C234.777 9.62769 225.719 7.7207 223.336 7.7207H194.731V47.7674H225.719C232.394 47.7674 234.73 40.6162 234.301 36.8023C233.872 32.9883 229.533 27.7441 223.812 27.7441" stroke="black" stroke-width="3" stroke-miterlimit="10" stroke-linecap="square"/>
<path d="M96.1064 146.35H125.331C130.48 146.35 136.201 143.489 136.201 135.861C136.201 128.233 127.143 126.326 124.759 126.326H96.1541V166.373H127.143C133.817 166.373 136.153 159.222 135.724 155.408C135.295 151.594 130.957 146.35 125.236 146.35" stroke="black" stroke-width="3" stroke-miterlimit="10" stroke-linecap="square"/>
<path d="M296.818 7.24414H286.187V47.2909H287.14L325.9 7.72089H326.805V47.2909H315.316" stroke="black" stroke-width="3" stroke-miterlimit="10" stroke-linecap="square"/>
<path d="M300.489 2H312.884" stroke="black" stroke-width="3"/>
<path d="M334.041 18.2091V7.7207H374.088V18.2091" stroke="black" stroke-width="3" stroke-miterlimit="10" stroke-linecap="square"/>
<path d="M354.542 48.2443V8.1499" stroke="black" stroke-width="3" stroke-miterlimit="10" stroke-linecap="square"/>
<path d="M235.291 136.338V125.849H275.337V136.338" stroke="black" stroke-width="3" stroke-miterlimit="10" stroke-linecap="square"/>
<path d="M255.791 166.373V126.278" stroke="black" stroke-width="3" stroke-miterlimit="10" stroke-linecap="square"/>
<path d="M97.2314 76.965V66.4766H137.278V76.965" stroke="black" stroke-width="3" stroke-miterlimit="10" stroke-linecap="square"/>
<path d="M117.732 107V66.9055" stroke="black" stroke-width="3" stroke-miterlimit="10" stroke-linecap="square"/>
<path d="M421.075 18.2093V7.24414H381.028V47.2909H420.598V36.8024" stroke="black" stroke-width="3" stroke-miterlimit="10" stroke-linecap="square"/>
<path d="M408.203 27.2676L381.028 27.2676" stroke="black" stroke-width="3" stroke-miterlimit="10" stroke-linecap="square"/>
<path d="M408.203 17.2561V37.7562" stroke="black" stroke-width="3" stroke-miterlimit="10" stroke-linecap="square"/>
<path d="M496.827 76.9652V66H456.78V106.047H496.35V95.5583" stroke="black" stroke-width="3" stroke-miterlimit="10" stroke-linecap="square"/>
<path d="M483.954 86.0232L456.78 86.0232" stroke="black" stroke-width="3" stroke-miterlimit="10" stroke-linecap="square"/>
<path d="M483.955 76.0115V96.5116" stroke="black" stroke-width="3" stroke-miterlimit="10" stroke-linecap="square"/>
<path d="M61.3827 66.9536H50.4175V107H51.371L90.4642 67.9071V66.9536H79.9758" stroke="black" stroke-width="3" stroke-miterlimit="10" stroke-linecap="square"/>
<path d="M90.4643 96.0352V107H89.5108L70.4409 88.4072" stroke="black" stroke-width="3" stroke-miterlimit="10" stroke-linecap="square"/>
<path d="M237.488 106.524H248.453V66.9536H247.023L208.883 105.57V106.524H218.895" stroke="black" stroke-width="3" stroke-miterlimit="10" stroke-linecap="square"/>
<path d="M285.304 86.4999C291.025 86.4999 295.315 91.2674 295.792 95.5581C296.269 99.8488 293.885 106.523 287.211 106.523H256.222V66.4766" stroke="black" stroke-width="3" stroke-miterlimit="10" stroke-linecap="square"/>
<path d="M256.174 86.5H285.351" stroke="black" stroke-width="3" stroke-miterlimit="10" stroke-linecap="square"/>
<path d="M426.223 86.5002C431.944 86.5002 436.235 91.2676 436.712 95.5584C437.188 99.8491 434.805 106.524 428.13 106.524H397.142V66.4768" stroke="black" stroke-width="3" stroke-miterlimit="10" stroke-linecap="square"/>
<path d="M397.093 86.5H426.27" stroke="black" stroke-width="3" stroke-miterlimit="10" stroke-linecap="square"/>
<path d="M438.618 66H449.107V106.047" stroke="black" stroke-width="3" stroke-miterlimit="10" stroke-linecap="square"/>
<path d="M12.0117 126.27H2V166.316H12.4884" stroke="black" stroke-width="3" stroke-miterlimit="10" stroke-linecap="square"/>
<path d="M31.5583 126.269H41.57V166.316H31.0815" stroke="black" stroke-width="3" stroke-miterlimit="10" stroke-linecap="square"/>
<path d="M2 146.769L41.0932 146.769" stroke="black" stroke-width="3" stroke-miterlimit="10" stroke-linecap="square"/>
<path d="M69.1425 165.896C80.2011 165.896 89.1659 156.931 89.1659 145.872C89.1659 134.814 80.2011 125.849 69.1425 125.849C58.0839 125.849 49.1191 134.814 49.1191 145.872C49.1191 156.931 58.0839 165.896 69.1425 165.896Z" stroke="black" stroke-width="3" stroke-miterlimit="10" stroke-linecap="square"/>
<path d="M161.162 165.896C172.221 165.896 181.185 156.931 181.185 145.872C181.185 134.814 172.221 125.849 161.162 125.849C150.103 125.849 141.139 134.814 141.139 145.872C141.139 156.931 150.103 165.896 161.162 165.896Z" stroke="black" stroke-width="3" stroke-miterlimit="10" stroke-linecap="square"/>
<path d="M227.523 125.849V139.198H226.092C226.092 139.198 221.325 126.326 207.499 126.326C193.674 126.326 187.953 137.768 187.953 146.349C187.953 154.931 194.15 166.373 207.499 166.373C220.848 166.373 225.139 156.838 226.569 153.977H227.523V166.373" stroke="black" stroke-width="3" stroke-miterlimit="10" stroke-linecap="square"/>
<path d="M293.213 125.849H282.581V165.896H283.535L322.294 126.326H323.2V165.896H311.71" stroke="black" stroke-width="3" stroke-miterlimit="10" stroke-linecap="square"/>
</svg>
