<svg width="565" height="287" viewBox="0 0 565 287" fill="none" xmlns="http://www.w3.org/2000/svg">
<path d="M461 163V176.015" stroke="black" stroke-width="3"/>
<path d="M447.707 164.267L461.156 164.267" stroke="black" stroke-width="3"/>
<path d="M298.923 66.3315H310.347V67.3249L269.124 106.561V107.555H280.05" stroke="black" stroke-width="3" stroke-miterlimit="10" stroke-linecap="square"/>
<path d="M280.547 66.3315H269.124V67.3249L310.347 106.561V107.555H299.42" stroke="black" stroke-width="3" stroke-miterlimit="10" stroke-linecap="square"/>
<path d="M289.983 65.3381V108.3" stroke="black" stroke-width="3"/>
<path d="M79.6611 7.80225H90.7766V48.4163" stroke="black" stroke-width="3"/>
<path d="M62.5605 7.80225H50.5901V28.323H91.2041" stroke="black" stroke-width="3"/>
<path d="M470.835 18.4391V7.3186H430.221V47.9326H470.352V37.2956" stroke="black" stroke-width="3" stroke-miterlimit="10" stroke-linecap="square"/>
<path d="M457.781 27.6255L430.221 27.6255" stroke="black" stroke-width="3" stroke-miterlimit="10" stroke-linecap="square"/>
<path d="M457.781 17.4722V38.2627" stroke="black" stroke-width="3" stroke-miterlimit="10" stroke-linecap="square"/>
<path d="M418.479 77.9093V66.7888H377.865V107.403H417.996V96.7658" stroke="black" stroke-width="3" stroke-miterlimit="10" stroke-linecap="square"/>
<path d="M405.424 87.0959L377.865 87.0959" stroke="black" stroke-width="3" stroke-miterlimit="10" stroke-linecap="square"/>
<path d="M405.424 76.9424V97.7329" stroke="black" stroke-width="3" stroke-miterlimit="10" stroke-linecap="square"/>
<path d="M13.604 226.562H2V226.078L41.647 185.948H42.614V226.562H31.977" stroke="black" stroke-width="3" stroke-miterlimit="10" stroke-linecap="square"/>
<path d="M43.0972 206.738L63.8877 186.431H65.3382V226.562H54.2177" stroke="black" stroke-width="3" stroke-miterlimit="10" stroke-linecap="square"/>
<path d="M344.162 7.3186H333.38V47.9326H334.347L373.655 7.8021H374.574V47.9326H362.922" stroke="black" stroke-width="3" stroke-miterlimit="10" stroke-linecap="square"/>
<path d="M347.885 2H360.456" stroke="black" stroke-width="3"/>
<path d="M409.337 123.709H398.555V164.324H399.522L438.831 124.193H439.75V164.324H428.097" stroke="black" stroke-width="3" stroke-miterlimit="10" stroke-linecap="square"/>
<path d="M413.06 118.391H425.631" stroke="black" stroke-width="3"/>
<path d="M372.162 284.911H383.766V244.297H382.316L343.635 283.46V284.911H354.273" stroke="black" stroke-width="3" stroke-miterlimit="10" stroke-linecap="square"/>
<path d="M355.965 272.05H383.718" stroke="black" stroke-width="3" stroke-miterlimit="10" stroke-linecap="square"/>
<path d="M197.015 227.078H208.619V186.464H207.169L168.489 225.628V227.078H179.126" stroke="black" stroke-width="3" stroke-miterlimit="10" stroke-linecap="square"/>
<path d="M180.818 214.218H208.571" stroke="black" stroke-width="3" stroke-miterlimit="10" stroke-linecap="square"/>
<path d="M125.332 47.1193H136.622V7.60327H135.211L97.5769 45.708V47.1193H107.926" stroke="black" stroke-width="3" stroke-miterlimit="10" stroke-linecap="square"/>
<path d="M109.573 34.606H136.575" stroke="black" stroke-width="3" stroke-miterlimit="10" stroke-linecap="square"/>
<path d="M276.747 284.395H288.351V243.781H286.9L248.22 282.944V284.395H258.857" stroke="black" stroke-width="3" stroke-miterlimit="10" stroke-linecap="square"/>
<path d="M260.55 271.533H288.303" stroke="black" stroke-width="3" stroke-miterlimit="10" stroke-linecap="square"/>
<path d="M157.496 86.1286C163.298 86.1286 167.65 90.9636 168.133 95.3151C168.617 99.6666 166.199 106.436 159.43 106.436H128.003V65.8215H168.133V76.942" stroke="black" stroke-width="3" stroke-miterlimit="10" stroke-linecap="square"/>
<path d="M127.955 86.1287H157.545" stroke="black" stroke-width="3" stroke-miterlimit="10" stroke-linecap="square"/>
<path d="M2.86768 85.7315H32.5926C37.8297 85.7315 43.6486 82.8186 43.6486 75.0508C43.6486 67.283 34.4353 65.3411 32.0108 65.3411H2.91617V106.122H34.4353C41.224 106.122 43.6001 98.8397 43.1637 94.9558C42.7273 91.0719 38.3146 85.7315 32.4957 85.7315" stroke="black" stroke-width="3" stroke-miterlimit="10" stroke-linecap="square"/>
<path d="M81.8264 263.39H111.551C116.788 263.39 122.607 260.478 122.607 252.71C122.607 244.942 113.394 243 110.969 243H81.8749V283.781H113.394C120.183 283.781 122.559 276.499 122.122 272.615C121.686 268.731 117.273 263.39 111.454 263.39" stroke="black" stroke-width="3" stroke-miterlimit="10" stroke-linecap="square"/>
<path d="M238.845 27.2H268.57C273.807 27.2 279.626 24.2871 279.626 16.5193C279.626 8.75152 270.413 6.80957 267.989 6.80957H238.894V47.5905H270.413C277.202 47.5905 279.578 40.3082 279.141 36.4243C278.705 32.5404 274.292 27.2 268.473 27.2" stroke="black" stroke-width="3" stroke-miterlimit="10" stroke-linecap="square"/>
<path d="M323.765 107.605L362.534 66.8723H364.006V107.605H323.765Z" stroke="black" stroke-width="3" stroke-miterlimit="10" stroke-linecap="square"/>
<path d="M364.007 107.605H370.877V117.911" stroke="black" stroke-width="3" stroke-miterlimit="10" stroke-linecap="square"/>
<path d="M324.256 107.605H317.385V117.911" stroke="black" stroke-width="3" stroke-miterlimit="10" stroke-linecap="square"/>
<path d="M114.623 197.068V185.948H74.0085V226.562H114.139V215.925" stroke="black" stroke-width="3" stroke-miterlimit="10" stroke-linecap="square"/>
<path d="M101.568 206.255L74.0083 206.255" stroke="black" stroke-width="3" stroke-miterlimit="10" stroke-linecap="square"/>
<path d="M101.568 196.101V216.892" stroke="black" stroke-width="3" stroke-miterlimit="10" stroke-linecap="square"/>
<path d="M240.65 135.797V124.676H200.036V165.29H240.166V154.653" stroke="black" stroke-width="3" stroke-miterlimit="10" stroke-linecap="square"/>
<path d="M227.595 144.983L200.036 144.983" stroke="black" stroke-width="3" stroke-miterlimit="10" stroke-linecap="square"/>
<path d="M227.595 134.83V155.62" stroke="black" stroke-width="3" stroke-miterlimit="10" stroke-linecap="square"/>
<path d="M179.729 272.79V284.394H210.673C219.376 284.394 220.343 276.658 220.343 273.757C220.343 270.856 217.442 264.087 210.673 264.087H192.3" stroke="black" stroke-width="3" stroke-miterlimit="10" stroke-linecap="square"/>
<path d="M179.73 255.385V243.781H210.674C219.377 243.781 220.344 251.517 220.344 254.418C220.344 257.319 217.443 264.088 210.674 264.088H192.301" stroke="black" stroke-width="3" stroke-miterlimit="10" stroke-linecap="square"/>
<path d="M192.3 254.417V273.274" stroke="black" stroke-width="3" stroke-miterlimit="10" stroke-linecap="square"/>
<path d="M483.882 66.2087H473.208V106.99H474.166L513.08 66.6942H513.989V106.99H502.454" stroke="black" stroke-width="3" stroke-miterlimit="10" stroke-linecap="square"/>
<path d="M14.4092 243H3.73535V283.781H4.69265L43.6068 243.485H44.5163V283.781H32.9808" stroke="black" stroke-width="3" stroke-miterlimit="10" stroke-linecap="square"/>
<path d="M361.201 123.74H350.527V163.653H351.484L390.399 124.215H391.308V163.653H379.773" stroke="black" stroke-width="3" stroke-miterlimit="10" stroke-linecap="square"/>
<path d="M274.941 186.139H264.495V226.052H265.432L303.518 186.614H304.408V226.052H293.118" stroke="black" stroke-width="3" stroke-miterlimit="10" stroke-linecap="square"/>
<path d="M141.355 243.868H130.681V284.649H131.638L170.553 244.353H171.462V284.649H159.927" stroke="black" stroke-width="3" stroke-miterlimit="10" stroke-linecap="square"/>
<path d="M531.832 66.2087H520.931V106.99H521.908L561.65 66.6942H562.579V106.99H550.798" stroke="black" stroke-width="3" stroke-miterlimit="10" stroke-linecap="square"/>
<path d="M323.295 186.464H312.174V227.078H313.141L352.788 187.431V186.464H342.151" stroke="black" stroke-width="3" stroke-miterlimit="10" stroke-linecap="square"/>
<path d="M352.788 215.958V227.078H351.821L332.481 208.222" stroke="black" stroke-width="3" stroke-miterlimit="10" stroke-linecap="square"/>
<path d="M14.0873 124.193H2.9668V164.807H3.9338L43.5808 125.16V124.193H32.9438" stroke="black" stroke-width="3" stroke-miterlimit="10" stroke-linecap="square"/>
<path d="M43.5807 153.686V164.807H42.6137L23.2737 145.95" stroke="black" stroke-width="3" stroke-miterlimit="10" stroke-linecap="square"/>
<path d="M325.055 284.781H336.115V244.868H334.672L296.202 283.819V284.781H306.3" stroke="black" stroke-width="3" stroke-miterlimit="10" stroke-linecap="square"/>
<path d="M107.436 125.644H97.2822V166.258H107.919" stroke="black" stroke-width="3" stroke-miterlimit="10" stroke-linecap="square"/>
<path d="M127.259 125.643H137.413V166.257H126.776" stroke="black" stroke-width="3" stroke-miterlimit="10" stroke-linecap="square"/>
<path d="M97.2822 146.434L136.929 146.434" stroke="black" stroke-width="3" stroke-miterlimit="10" stroke-linecap="square"/>
<path d="M226.828 186.464H216.675V227.078H227.312" stroke="black" stroke-width="3" stroke-miterlimit="10" stroke-linecap="square"/>
<path d="M246.651 186.464H256.805V227.078H246.168" stroke="black" stroke-width="3" stroke-miterlimit="10" stroke-linecap="square"/>
<path d="M216.673 207.255L256.32 207.255" stroke="black" stroke-width="3" stroke-miterlimit="10" stroke-linecap="square"/>
<path d="M436.203 66.7888H426.05V107.403H436.687" stroke="black" stroke-width="3" stroke-miterlimit="10" stroke-linecap="square"/>
<path d="M456.026 66.7888H466.18V107.403H455.543" stroke="black" stroke-width="3" stroke-miterlimit="10" stroke-linecap="square"/>
<path d="M426.049 87.5796L465.696 87.5796" stroke="black" stroke-width="3" stroke-miterlimit="10" stroke-linecap="square"/>
<path d="M69.5098 164.521C80.7712 164.521 89.9003 155.586 89.9003 144.564C89.9003 133.543 80.7712 124.608 69.5098 124.608C58.2485 124.608 49.1194 133.543 49.1194 144.564C49.1194 155.586 58.2485 164.521 69.5098 164.521Z" stroke="black" stroke-width="3" stroke-miterlimit="10" stroke-linecap="square"/>
<path d="M100.482 106.122C111.743 106.122 120.872 96.9929 120.872 85.7315C120.872 74.4702 111.743 65.3411 100.482 65.3411C89.2202 65.3411 80.0911 74.4702 80.0911 85.7315C80.0911 96.9929 89.2202 106.122 100.482 106.122Z" stroke="black" stroke-width="3" stroke-miterlimit="10" stroke-linecap="square"/>
<path d="M258.829 163.521H248.479V124.476H287.525V163.521H276.705" stroke="black" stroke-width="3" stroke-miterlimit="10" stroke-linecap="square"/>
<path d="M183.917 6.80957V20.5291H182.474C182.474 20.5291 177.666 7.29955 163.72 7.29955C149.774 7.29955 144.004 19.0592 144.004 27.8789C144.004 36.6986 150.255 48.4582 163.72 48.4582C177.185 48.4582 181.513 38.6585 182.955 35.7186H183.917V48.4582" stroke="black" stroke-width="3" stroke-miterlimit="10" stroke-linecap="square"/>
<path d="M213.978 65.3411V79.0606H212.536C212.536 79.0606 207.727 65.831 193.781 65.831C179.836 65.831 174.065 77.5906 174.065 86.4104C174.065 95.2301 180.317 106.99 193.781 106.99C207.246 106.99 211.574 97.19 213.017 94.2501H213.978V106.99" stroke="black" stroke-width="3" stroke-miterlimit="10" stroke-linecap="square"/>
<path d="M382.234 17.9556V7.3186H422.848V17.9556" stroke="black" stroke-width="3" stroke-miterlimit="10" stroke-linecap="square"/>
<path d="M403.025 48.416V7.75366" stroke="black" stroke-width="3" stroke-miterlimit="10" stroke-linecap="square"/>
<path d="M191.243 17.4722V6.83521H231.857V17.4722" stroke="black" stroke-width="3" stroke-miterlimit="10" stroke-linecap="square"/>
<path d="M212.034 47.9327V7.27026" stroke="black" stroke-width="3" stroke-miterlimit="10" stroke-linecap="square"/>
<path d="M315.502 7.3186H326.139V8.7691L287.459 47.9326H286.008V37.2956" stroke="black" stroke-width="3" stroke-miterlimit="10" stroke-linecap="square"/>
<path d="M296.162 7.3186H285.525V8.2856L306.074 28.8344" stroke="black" stroke-width="3" stroke-miterlimit="10" stroke-linecap="square"/>
<path d="M257.407 243.781H268.044V245.231L229.364 284.395H227.914V273.758" stroke="black" stroke-width="3" stroke-miterlimit="10" stroke-linecap="square"/>
<path d="M238.067 243.781H227.43V244.748L247.979 265.296" stroke="black" stroke-width="3" stroke-miterlimit="10" stroke-linecap="square"/>
<path d="M251.599 66.3052H262.236V67.7557L223.555 106.919H222.105V96.2822" stroke="black" stroke-width="3" stroke-miterlimit="10" stroke-linecap="square"/>
<path d="M232.259 66.3054H221.622V67.2724L242.17 87.8212" stroke="black" stroke-width="3" stroke-miterlimit="10" stroke-linecap="square"/>
<path d="M32.9437 7.80225H43.5807V9.25275L4.9007 48.4163H3.4502V37.7793" stroke="black" stroke-width="3" stroke-miterlimit="10" stroke-linecap="square"/>
<path d="M13.6038 7.80225H2.9668V8.76925L23.5156 29.318" stroke="black" stroke-width="3" stroke-miterlimit="10" stroke-linecap="square"/>
<path d="M150.984 186.948H162.104V187.915L121.974 226.111V227.078H132.611" stroke="black" stroke-width="3" stroke-miterlimit="10" stroke-linecap="square"/>
<path d="M133.094 186.948H121.974V187.915L162.104 226.111V227.078H151.467" stroke="black" stroke-width="3" stroke-miterlimit="10" stroke-linecap="square"/>
<path d="M337.199 164.807H343.968V174.96" stroke="black" stroke-width="3" stroke-miterlimit="10" stroke-linecap="square"/>
<path d="M306.836 124.193H296.054V164.807H325.596" stroke="black" stroke-width="3" stroke-miterlimit="10" stroke-linecap="square"/>
<path d="M336.716 123.226V164.807" stroke="black" stroke-width="3" stroke-miterlimit="10" stroke-linecap="square"/>
<path d="M187.096 166.257H193.865V176.411" stroke="black" stroke-width="3" stroke-miterlimit="10" stroke-linecap="square"/>
<path d="M156.732 125.643H145.95V166.257H175.492" stroke="black" stroke-width="3" stroke-miterlimit="10" stroke-linecap="square"/>
<path d="M186.612 124.676V166.257" stroke="black" stroke-width="3" stroke-miterlimit="10" stroke-linecap="square"/>
</svg>
