<svg width="366" height="48" viewBox="0 0 366 48" fill="none" xmlns="http://www.w3.org/2000/svg">
<path d="M2 25.9566H30.4601C35.4742 25.9566 41.0456 23.1057 41.0456 15.5031C41.0456 7.90063 32.2243 6 29.9029 6H2.04643V45.9132H32.2243C38.7242 45.9132 40.9991 38.7859 40.5813 34.9846C40.1634 31.1833 35.9385 25.9566 30.3672 25.9566" stroke="black" stroke-width="3" stroke-miterlimit="10" stroke-linecap="square"/>
<path d="M74.8529 46.0456H85.9132V7H84.4706L46 45.1047V46.0456H56.0985" stroke="black" stroke-width="3" stroke-miterlimit="10" stroke-linecap="square"/>
<path d="M104.208 7H94V46H94.9155L132.13 7.46429H133V46H121.968" stroke="black" stroke-width="3" stroke-miterlimit="10" stroke-linecap="square"/>
<path d="M141 25.9566H169.46C174.474 25.9566 180.046 23.1057 180.046 15.5031C180.046 7.90063 171.224 6 168.903 6H141.046V45.9132H171.224C177.724 45.9132 179.999 38.7859 179.581 34.9846C179.163 31.1833 174.939 25.9566 169.367 25.9566" stroke="black" stroke-width="3" stroke-miterlimit="10" stroke-linecap="square"/>
<path d="M210.557 46.2342H221.767V7H220.366L183 44.833V46.2342H193.276" stroke="black" stroke-width="3" stroke-miterlimit="10" stroke-linecap="square"/>
<path d="M194.91 33.8103H221.72" stroke="black" stroke-width="3" stroke-miterlimit="10" stroke-linecap="square"/>
<path d="M240.325 7.09338H230V45.9871H230.926L268.57 7.5564H269.449V45.9871H258.291" stroke="black" stroke-width="3" stroke-miterlimit="10" stroke-linecap="square"/>
<path d="M242.89 2H254.929" stroke="black" stroke-width="3"/>
<path d="M316.046 6V19.1479H314.634C314.634 19.1479 309.93 6.46957 296.288 6.46957C282.645 6.46957 277 17.7392 277 26.1914C277 34.6436 283.116 45.9132 296.288 45.9132C309.46 45.9132 313.693 36.5219 315.105 33.7045H316.046V45.9132" stroke="black" stroke-width="3" stroke-miterlimit="10" stroke-linecap="square"/>
<path d="M334.535 26C328.821 26 324.535 21.2381 324.059 16.9524C323.583 12.6667 325.963 6 332.63 6H363.583V46H353.106" stroke="black" stroke-width="3" stroke-miterlimit="10" stroke-linecap="square"/>
<path d="M363.154 26H334.488" stroke="black" stroke-width="3" stroke-miterlimit="10" stroke-linecap="square"/>
<path d="M335.488 46H324.535V44.5714L342.154 26.4762" stroke="black" stroke-width="3" stroke-miterlimit="10" stroke-linecap="square"/>
</svg>
