<svg width="559" height="1253" viewBox="0 0 559 1253" fill="none" xmlns="http://www.w3.org/2000/svg">
<path d="M298.802 698.609C490.554 727.543 669.448 595.501 698.373 403.684C727.298 211.866 595.3 32.9118 403.547 3.97733C211.795 -24.9572 32.9007 107.085 3.97601 298.903C-24.9487 490.72 107.049 669.674 298.802 698.609Z" fill="#CCFD38"/>
<path d="M888.453 1498.02C1080.2 1526.96 1259.1 1394.91 1288.02 1203.1C1316.95 1011.28 1184.95 832.325 993.198 803.391C801.446 774.456 622.552 906.499 593.627 1098.32C564.702 1290.13 696.7 1469.09 888.453 1498.02Z" fill="#CCFD38"/>
<path d="M698.373 403.684C669.448 595.499 490.552 727.543 298.802 698.609C490.552 727.543 622.552 906.499 593.627 1098.31C622.552 906.499 801.448 774.455 993.198 803.389C801.448 774.455 669.449 595.499 698.373 403.684Z" fill="#CCFD38"/>
</svg>
