<svg width="1836" height="699" viewBox="0 0 1836 699" fill="none" xmlns="http://www.w3.org/2000/svg">
<rect x="76" y="558" width="123" height="124" rx="61.5" fill="#CCFD38"/>
<path d="M1638.35 0C1705.48 0.57446 1721.31 55.2918 1720.83 82.5787V252.045C1720.83 325.288 1756.69 364.064 1824.11 364.064C1878.04 364.064 1899.17 407.149 1903 428.691V630.47C1897.26 681.597 1853.75 697.251 1832.71 698.688H1461.92C1437.78 701.081 1388.77 690.789 1385.9 630.47C1382.32 555.072 1479.85 526.349 1508.54 505.525C1531.49 488.866 1540.1 459.329 1541.53 446.643C1538.66 417.92 1518.73 361.192 1461.92 364.064C1390.92 367.655 1360.8 463.159 1340 491.164C1323.36 513.568 1293.86 518.211 1281.19 517.732C1230.7 519.456 1208.52 471.058 1203.73 446.643C1198 361.048 1135.36 337.735 1104.76 336.777H913.27C874.829 332.182 853.265 307.576 847.288 295.847C823.191 242.997 857.329 205.37 877.411 193.162C984.99 138.11 1206.17 25.1326 1230.27 13.6434C1260.39 -0.718076 1320.64 -19.388 1356.5 56.728C1392.36 132.844 1413.87 149.36 1461.21 154.386C1508.54 159.413 1558.75 104.839 1568.79 56.728C1576.82 18.2391 1618.51 2.8723 1638.35 0Z" fill="#CCFD38"/>
<path d="M409.682 287.02V141.211C409.682 100.972 373.094 85.6374 354.801 83H205.431C170.352 83 142.062 116.344 143.76 145.167C145.457 173.99 165.826 201.117 200.905 205.638C235.984 210.16 269.366 237.852 265.971 287.02C262.576 336.189 215.05 346.927 209.392 346.927C203.734 346.927 128.483 349.187 122.825 287.02C118.299 237.287 79.448 225.607 60.5882 225.984C17.588 225.419 -1.08319 266.11 0.0484009 287.02C1.17999 307.931 7 359.276 60.5882 362.968C109.812 366.359 139.799 435.656 153.378 462.783C164.241 484.485 186.949 489.911 196.944 489.911C291.243 489.534 482.217 489.006 491.722 489.911C503.604 491.041 555.657 481.998 553.959 431.7C552.602 391.461 516.806 374.242 499.078 370.663C423.94 360.716 408.173 310.757 409.682 287.02Z" fill="#CCFD38"/>
</svg>
