<svg width="325" height="646" viewBox="0 0 325 646" fill="none" xmlns="http://www.w3.org/2000/svg">
<rect x="247" y="234" width="72" height="71" rx="35.5" fill="#CCFD38" stroke="#CCFD38" stroke-width="12"/>
<rect x="163" y="6" width="72" height="71" rx="35.5" fill="#CCFD38" stroke="#CCFD38" stroke-width="12"/>
<path d="M-27.9643 95C-62.7378 97.3959 -69.1829 125.199 -68.0587 138.801L-67.684 514.291C-65.2858 546.037 -39.4555 554.972 -26.8401 555.471H70.211C109.181 553.599 117.05 527.768 123.046 505.306C129.041 482.844 151.149 476.854 158.269 476.854C165.388 476.854 182.625 476.854 194.991 492.577C211.037 512.981 220.404 555.471 257.943 555.471C293.166 555.471 297.413 529.515 298.412 518.783V421.448C295.414 387.306 270.184 379.02 257.943 379.144C211.179 380.642 202.235 348.322 203.609 331.974C203.484 300.153 203.31 235.987 203.609 233.89C203.984 231.27 205.857 190.464 163.515 190.089C129.64 189.79 122.464 226.028 118.174 236.885C106.933 265.337 79.9534 273.199 63.8406 270.952C47.7279 268.706 37.2359 259.347 33.4887 253.731C29.7416 248.116 21.4979 232.767 33.4887 208.059C45.4796 183.351 105.809 179.233 107.682 138.801C109.181 106.456 82.8263 96.1231 69.4615 95H-27.9643Z" fill="#CCFD38" stroke="#CCFD38" stroke-width="12"/>
</svg>
