<svg width="556" height="1287" viewBox="0 0 556 1287" fill="none" xmlns="http://www.w3.org/2000/svg">
<path d="M257.198 483.609C65.446 512.543 -113.448 380.501 -142.373 188.684C-171.298 -3.13356 -39.2997 -182.088 152.453 -211.023C344.205 -239.957 523.099 -107.915 552.024 83.9026C580.949 275.72 448.951 454.674 257.198 483.609Z" fill="#9896AE"/>
<path d="M-332.453 1283.02C-524.205 1311.96 -703.099 1179.91 -732.024 988.097C-760.949 796.28 -628.951 617.325 -437.198 588.391C-245.446 559.456 -66.5517 691.499 -37.6269 883.316C-8.70223 1075.13 -140.7 1254.09 -332.453 1283.02Z" fill="#9896AE"/>
<path d="M-142.373 188.684C-113.448 380.499 65.448 512.543 257.198 483.609C65.4476 512.543 -66.5518 691.499 -37.6273 883.314C-66.5518 691.499 -245.448 559.455 -437.198 588.389C-245.448 559.455 -113.449 380.499 -142.373 188.684Z" fill="#9896AE"/>
</svg>
