<svg width="1440" height="1589" viewBox="0 0 1440 1589" fill="none" xmlns="http://www.w3.org/2000/svg">
<path fill-rule="evenodd" clip-rule="evenodd" d="M-103 962.333C65.5007 962.333 203.583 831.555 216.079 665.564C203.684 830.463 67.351 960.619 -99.6276 962.351C75.5494 964.168 216.998 1107.33 216.998 1283.67C216.998 1461.13 360.269 1605 537 1605C713.731 1605 857 1461.13 857 1283.67C857 1106.2 713.731 962.333 537 962.333V962.333C360.509 962.333 217.387 818.858 216.999 641.722L217 641C217 463.533 360.269 319.667 537 319.667C713.731 319.667 857 463.533 857 641C857 818.468 1000.27 962.333 1177 962.333C1353.73 962.333 1497 818.468 1497 641C1497 463.533 1353.73 319.667 1177 319.667C1000.27 319.667 857 175.801 857 -1.66656C857 -179.134 713.731 -323 537 -323C360.269 -323 217 -179.134 217 -1.66653C217 175.801 73.731 319.667 -103 319.667C-279.731 319.667 -423 463.533 -423 641C-423 818.468 -279.731 962.333 -103 962.333Z" fill="#C1F52F"/>
</svg>
