<svg width="663" height="643" viewBox="0 0 663 643" fill="none" xmlns="http://www.w3.org/2000/svg">
<path d="M0 41.764V461.453C0 496.141 29.6599 504.267 44.4898 503.993H354.694C369.796 503.175 400 493.522 400 461.453C400 421.366 375.51 416.828 331.429 392.731C317.061 384.877 312.925 368.733 312.653 361.643C305.306 324.01 354.694 305.194 375.51 292.922C392.163 283.105 398.776 264.288 400 256.107V42.9912C397.061 6.99453 368.571 -0.641131 354.694 0.0406246C299.184 3.31305 308.571 83.4875 257.551 87.9871C206.531 92.4866 192.653 30.7196 181.633 15.5846C172.816 3.47667 155.374 0.176976 147.755 0.0406246H44.4898C11.1837 1.67684 0.952381 28.538 0 41.764Z" fill="#CCFD38"/>
<path fill-rule="evenodd" clip-rule="evenodd" d="M167.721 260.144C161.652 269.036 159.978 279.274 160.302 285.936C161.878 312.707 181.769 323.879 202.833 334.922C203.376 335.206 203.92 335.491 204.465 335.776C214.366 340.958 224.41 346.215 232.332 353.164C240.761 360.558 246.858 369.921 248.024 383.201C250.343 409.604 235.511 426.351 218.542 437.758C210.065 443.456 200.99 447.871 193.151 451.53C192.079 452.03 191.034 452.515 190.019 452.986C183.516 456.003 178.26 458.44 175.14 460.722C169.453 464.881 165.765 471.133 163.479 477.383C161.199 483.62 160.372 489.708 160.305 493.355V596.753C161.106 612.927 167.972 623.39 176.166 629.956C184.398 636.553 194.033 639.26 200.351 639.729H618.927C635.674 639.729 645.852 632.579 651.873 623.729C657.957 614.788 659.861 604.001 659.73 596.824L659.729 596.809V286.069C659.326 278.729 656.777 267.719 650.491 258.585C644.241 249.505 634.309 242.271 618.927 242.271C609.212 242.271 601.713 244.6 595.54 248.498C589.344 252.411 584.388 257.965 579.863 264.563C576.082 270.075 572.654 276.232 569.05 282.704C568.327 284.002 567.597 285.313 566.855 286.634C562.439 294.504 557.651 302.672 551.663 310.34C546.598 316.828 541.972 321.902 536.887 325.343C531.768 328.808 526.239 330.582 519.444 330.595C499.079 332.475 484.542 321.256 473.691 307.269C468.258 300.265 463.699 292.507 459.747 285.235C458.163 282.321 456.689 279.508 455.296 276.849C453.18 272.811 451.251 269.131 449.413 265.999C444.57 257.748 439.807 251.845 434.267 247.99C428.765 244.163 422.372 242.271 414.097 242.271H201.583C184.146 243.718 173.736 251.331 167.721 260.144ZM165.027 258.297C171.619 248.638 182.952 240.517 201.382 239.005L201.449 239H414.097C422.919 239 429.991 241.033 436.128 245.303C442.226 249.545 447.276 255.908 452.226 264.341C454.094 267.523 456.094 271.338 458.248 275.447C459.637 278.096 461.091 280.867 462.614 283.67C466.536 290.888 470.996 298.465 476.269 305.261C486.816 318.858 500.41 329.096 519.216 327.331L519.292 327.324H519.368C525.555 327.324 530.469 325.74 535.06 322.632C539.706 319.488 544.076 314.749 549.093 308.324C554.918 300.863 559.606 292.879 564.01 285.031C564.738 283.734 565.459 282.438 566.177 281.149C569.78 274.677 573.297 268.359 577.173 262.71C581.833 255.917 587.086 249.97 593.8 245.73C600.537 241.476 608.649 239 618.927 239C635.534 239 646.411 246.896 653.178 256.728C659.895 266.488 662.571 278.146 662.991 285.936L662.993 285.98V596.78C663.131 604.46 661.118 615.948 654.57 625.572C647.957 635.293 636.781 643 618.927 643H200.233L200.174 642.996C193.298 642.499 182.974 639.6 174.127 632.511C165.225 625.377 157.882 614.044 157.042 596.874L157.04 596.834V493.325L157.041 493.311C157.112 489.323 157.999 482.865 160.414 476.258C162.829 469.654 166.825 462.753 173.216 458.08C176.62 455.59 182.233 452.989 188.67 450.006C189.685 449.535 190.722 449.055 191.773 448.564C199.593 444.914 208.471 440.588 216.723 435.041C233.212 423.958 246.942 408.198 244.773 383.488C243.695 371.21 238.112 362.581 230.182 355.626C222.564 348.943 212.844 343.854 202.833 338.613C202.33 338.349 201.825 338.085 201.32 337.82C180.461 326.885 158.736 314.955 157.043 286.12L157.043 286.112L157.042 286.104C156.688 278.863 158.484 267.884 165.027 258.297Z" fill="black"/>
</svg>
