<svg width="1045" height="850" viewBox="0 0 1045 850" fill="none" xmlns="http://www.w3.org/2000/svg">
<path fill-rule="evenodd" clip-rule="evenodd" d="M14.1651 264.333C-99.6968 264.333 -192 172.029 -192 58.1666C-192 -55.6961 -99.6967 -148 14.1651 -148C128.027 -148 220.33 -55.696 220.33 58.1667C220.33 172.029 312.638 264.331 426.5 264.331C540.362 264.331 632.66 356.64 632.66 470.502C632.66 584.132 724.591 676.291 838.131 676.668C838.366 676.667 838.6 676.667 838.835 676.667C952.697 676.667 1045 768.971 1045 882.833C1045 996.696 952.697 1089 838.835 1089C724.973 1089 632.67 996.696 632.67 882.833C632.67 768.971 540.362 676.669 426.5 676.669C426.268 676.669 426.031 676.669 425.799 676.668C312.262 677.048 220.34 769.206 220.34 882.833C220.34 996.696 128.032 1089 14.1698 1089C-99.692 1089 -191.995 996.694 -191.995 882.831C-191.995 768.968 -99.692 676.664 14.1698 676.664C14.4072 676.664 14.6445 676.665 14.8817 676.666C127.947 676.286 219.577 584.89 220.335 471.913C220.332 471.443 220.33 470.973 220.33 470.502C220.33 470.17 220.331 469.837 220.333 469.505C219.799 356.333 128.08 264.71 14.8728 264.332C14.637 264.333 14.4011 264.333 14.1651 264.333ZM426.5 264.331C540.362 264.331 632.665 172.027 632.665 58.1643C632.665 -55.6984 724.973 -148 838.835 -148C952.697 -148 1045 -55.696 1045 58.1667C1045 172.029 952.697 264.333 838.835 264.333C838.599 264.333 838.363 264.333 838.127 264.332C724.589 264.711 632.66 356.874 632.66 470.502C632.66 356.64 540.362 264.331 426.5 264.331Z" fill="#CCFD38"/>
</svg>
