<svg width="1440" height="461" viewBox="0 0 1440 461" fill="none" xmlns="http://www.w3.org/2000/svg">
<path fill-rule="evenodd" clip-rule="evenodd" d="M-722.612 111.17C-722.612 172.567 -772.38 222.339 -833.773 222.339C-895.165 222.339 -944.933 172.567 -944.933 111.17C-944.933 49.7724 -895.165 0 -833.773 0C-772.38 0 -722.612 49.7724 -722.612 111.17ZM-165.807 73.116C-104.875 73.6538 -55.6472 123.218 -55.6472 184.281C-55.6472 245.679 -5.87878 295.451 55.5135 295.451C116.906 295.451 166.674 245.679 166.674 184.281C166.674 122.884 216.443 73.1116 277.835 73.1116C339.228 73.1116 388.996 122.884 388.996 184.281C388.996 242.429 433.635 290.149 490.51 295.038H728.393C789.785 295.038 839.554 245.266 839.554 183.869C839.554 122.471 889.322 72.6989 950.714 72.6989H1174.04V72.7033C1234.97 73.2411 1284.2 122.805 1284.2 183.869C1284.2 245.266 1333.97 295.038 1395.36 295.038C1456.75 295.038 1506.52 245.266 1506.52 183.869C1506.52 122.471 1556.29 72.6989 1617.68 72.6989C1679.07 72.6989 1728.84 122.471 1728.84 183.869C1728.84 245.266 1778.61 295.038 1840 295.038C1822.39 295.038 1805.73 299.135 1790.93 306.429V460.29H451.086V460.703H-991V295.451H-611.451C-550.059 295.451 -500.29 245.679 -500.29 184.281C-500.29 122.884 -450.522 73.1116 -389.13 73.1116H-165.807V73.116Z" fill="#9896AE"/>
</svg>
