<svg width="102" height="94" viewBox="0 0 102 94" fill="none" xmlns="http://www.w3.org/2000/svg">
<path d="M29.1429 43.3846V21.6923H7.28571C0 21.6923 0 28.9231 0 28.9231C0 28.9231 0 58.0721 0 65.0769C0 72.0817 7.28571 72.3077 7.28571 72.3077H14.5714V94L36.6562 72.3077H58.5134C58.5134 72.3077 65.5714 71.8558 65.5714 65.0769V57.8462C65.5714 57.8462 58.2857 57.8462 43.7143 57.8462C29.1429 57.8462 29.1429 43.3846 29.1429 43.3846ZM94.7143 0C94.7143 0 51 0 43.7143 0C36.4286 0 36.4286 7.23077 36.4286 7.23077C36.4286 7.23077 36.4286 36.6023 36.4286 43.3846C36.4286 50.1635 43.4866 50.6154 43.4866 50.6154H65.3438L87.4286 72.3077V50.6154H94.7143C94.7143 50.6154 102 50.3894 102 43.3846V7.23077C102 0 94.7143 0 94.7143 0Z" fill="black"/>
</svg>
