<svg width="1059" height="127" viewBox="0 0 1059 127" fill="none" xmlns="http://www.w3.org/2000/svg">
<path d="M62.5381 19.2422V101.022" stroke="black" stroke-width="5" stroke-miterlimit="10" stroke-linecap="square"/>
<path d="M62.6338 18.7612H82.7421C90.4391 18.7612 102.947 25.015 102.947 38.4847C102.976 43.6877 100.988 48.6996 97.3999 52.4674C93.8116 56.2351 88.9025 58.4653 83.7043 58.6893H62.8262" stroke="black" stroke-width="5" stroke-miterlimit="10" stroke-linecap="square"/>
<path d="M62.5378 18.7612H42.4295C34.7325 18.7612 22.2249 25.015 22.2249 38.4847C22.1952 43.6877 24.1834 48.6996 27.7717 52.4674C31.3601 56.2351 36.2691 58.4653 41.4674 58.6893H62.3454" stroke="black" stroke-width="5" stroke-miterlimit="10" stroke-linecap="square"/>
<path d="M180.879 20.2046H202.046V23.091L125.076 101.023H122.189V79.8561" stroke="black" stroke-width="5" stroke-miterlimit="10" stroke-linecap="square"/>
<path d="M142.394 20.2046H121.228V22.1288L162.118 63.019" stroke="black" stroke-width="5" stroke-miterlimit="10" stroke-linecap="square"/>
<path d="M512.811 102.947H526.28V123.151" stroke="black" stroke-width="5" stroke-miterlimit="10" stroke-linecap="square"/>
<path d="M452.389 22.1289H430.934V102.947H489.72" stroke="black" stroke-width="5" stroke-miterlimit="10" stroke-linecap="square"/>
<path d="M511.849 20.2046V102.947" stroke="black" stroke-width="5" stroke-miterlimit="10" stroke-linecap="square"/>
<path d="M692.727 103.909C715.044 103.909 733.136 85.8172 733.136 63.4999C733.136 41.1826 715.044 23.0908 692.727 23.0908C670.41 23.0908 652.318 41.1826 652.318 63.4999C652.318 85.8172 670.41 103.909 692.727 103.909Z" stroke="black" stroke-width="5" stroke-miterlimit="10" stroke-linecap="square"/>
<path d="M774.508 23.0908H754.303V103.909H775.47" stroke="black" stroke-width="5" stroke-miterlimit="10" stroke-linecap="square"/>
<path d="M813.955 23.0908H834.159V103.909H812.993" stroke="black" stroke-width="5" stroke-miterlimit="10" stroke-linecap="square"/>
<path d="M754.303 64.4619L833.197 64.4619" stroke="black" stroke-width="5" stroke-miterlimit="10" stroke-linecap="square"/>
<path d="M910.648 104.39H933.739V23.5718H930.852L853.883 101.504V104.39H875.049" stroke="black" stroke-width="5" stroke-miterlimit="10" stroke-linecap="square"/>
<path d="M878.417 78.7979H933.643" stroke="black" stroke-width="3.9" stroke-miterlimit="10" stroke-linecap="square"/>
<path d="M568.806 22.1289H547.351V102.947H549.275L627.495 23.091H629.323V102.947H606.136" stroke="black" stroke-width="5" stroke-miterlimit="10" stroke-linecap="square"/>
<path d="M346.364 21.1665H324.235V101.985H326.159L405.053 23.0907V21.1665H383.886" stroke="black" stroke-width="5" stroke-miterlimit="10" stroke-linecap="square"/>
<path d="M405.053 79.8558V101.985H403.129L364.644 64.4619" stroke="black" stroke-width="5" stroke-miterlimit="10" stroke-linecap="square"/>
<path d="M1010.23 104.871H1032.36V25.0151H1029.47L952.5 102.947V104.871H972.705" stroke="black" stroke-width="5" stroke-miterlimit="10" stroke-linecap="square"/>
<path d="M243.416 21.1665H223.212V101.985H244.379" stroke="black" stroke-width="5" stroke-miterlimit="10" stroke-linecap="square"/>
<path d="M282.863 21.1665H303.068V101.985H281.901" stroke="black" stroke-width="5" stroke-miterlimit="10" stroke-linecap="square"/>
<path d="M223.212 62.5376L302.106 62.5376" stroke="black" stroke-width="5" stroke-miterlimit="10" stroke-linecap="square"/>
</svg>
