<svg width="326" height="55" viewBox="0 0 326 55" fill="none" xmlns="http://www.w3.org/2000/svg">
<path fill-rule="evenodd" clip-rule="evenodd" d="M110.372 8.53543H123.817V11.8874H113.724V44.9959L149.045 8.98738H152.285V49.8511H138.025V46.4991H148.933V13.8887L113.657 49.8511H110.372V8.53543Z" fill="white"/>
<path fill-rule="evenodd" clip-rule="evenodd" d="M138.343 6.53443H125.671V3.04279H138.343V6.53443Z" fill="white"/>
<path fill-rule="evenodd" clip-rule="evenodd" d="M8.88965 7.71649H50.9296V21.6997H47.5253V11.1208H12.294V46.3521H23.3328V49.7565H8.88965V7.71649Z" fill="white"/>
<path fill-rule="evenodd" clip-rule="evenodd" d="M226.905 7.71649H268.945V21.6997H265.541V11.1208H230.31V46.3521H265.081V36.2333H268.485V49.7565H226.905V7.71649Z" fill="white"/>
<path fill-rule="evenodd" clip-rule="evenodd" d="M226.905 27.0343L256.527 27.0343L256.527 30.4386L226.905 30.4386L226.905 27.0343Z" fill="white"/>
<path fill-rule="evenodd" clip-rule="evenodd" d="M256.527 17.3755V40.5576H253.123V17.3755H256.527Z" fill="white"/>
<path fill-rule="evenodd" clip-rule="evenodd" d="M58.104 7.71649H100.144V21.6997H96.7396V11.1208H61.5084V46.3521H96.2797V36.2333H99.684V49.7565H58.104V7.71649Z" fill="white"/>
<path fill-rule="evenodd" clip-rule="evenodd" d="M58.104 27.0343L87.7254 27.0343L87.7254 30.4386L58.104 30.4386L58.104 27.0343Z" fill="white"/>
<path fill-rule="evenodd" clip-rule="evenodd" d="M87.7256 17.3755V40.5576H84.3213V17.3755H87.7256Z" fill="white"/>
<path fill-rule="evenodd" clip-rule="evenodd" d="M194.791 7.74268H198.087V49.7303H184.616V46.3783H194.735V12.5687L161.333 46.3783H170.49V49.7303H156.1V46.9061L194.791 7.74268Z" fill="white"/>
<path fill-rule="evenodd" clip-rule="evenodd" d="M215.966 8.20264H219.705V49.7303H205.774V46.3783H216.353V12.5107L196.843 31.5665L194.501 29.1686L215.966 8.20264Z" fill="white"/>
<path fill-rule="evenodd" clip-rule="evenodd" d="M278.103 7.86136H307.718C315.574 7.86136 319.395 13.7179 319.395 18.6185C319.395 21.4071 318.637 24.3171 316.801 26.5619C314.925 28.8547 312.049 30.2955 308.178 30.2955H281.219V46.0371H291.338V49.1533H278.103V7.86136ZM281.219 27.1792H308.178C311.206 27.1792 313.16 26.0902 314.389 24.5885C315.657 23.0387 316.279 20.8893 316.279 18.6185C316.279 15.24 313.66 10.9777 307.718 10.9777H281.219V27.1792Z" fill="white"/>
</svg>
