<svg width="307" height="89" viewBox="0 0 307 89" fill="none" xmlns="http://www.w3.org/2000/svg">
<g clip-path="url(#clip0)">
<path fill-rule="evenodd" clip-rule="evenodd" d="M77.46 4.63034H88.2711V7.98232H80.8119V30.9803L106.295 4.96483H109.31V36.0794H97.8973V32.7275H105.958V10.0982L80.5093 36.0794H77.46V4.63034Z" fill="white"/>
<path fill-rule="evenodd" clip-rule="evenodd" d="M98.5698 4.03849H89.2041V0.546844H98.5698V4.03849Z" fill="white"/>
</g>
<g clip-path="url(#clip1)">
<path fill-rule="evenodd" clip-rule="evenodd" d="M161.751 49.1184H172.563V52.4704H165.103V75.4683L190.586 49.4529H193.602V80.5675H182.189V77.2155H190.25V54.5862L164.801 80.5675H161.751V49.1184Z" fill="white"/>
<path fill-rule="evenodd" clip-rule="evenodd" d="M182.861 48.5266H173.496V45.0349H182.861V48.5266Z" fill="white"/>
</g>
<path fill-rule="evenodd" clip-rule="evenodd" d="M141.018 4.29596H144.063V35.7451H133.353V32.3931H140.711V9.37595L117.972 32.3931H123.994V35.7451H112.614V33.0463L141.018 4.29596Z" fill="white"/>
<path fill-rule="evenodd" clip-rule="evenodd" d="M156.422 4.63034H159.784V35.7449H148.739V32.393H156.432V9.30602L142.694 22.7249L140.352 20.327L156.422 4.63034Z" fill="white"/>
<path fill-rule="evenodd" clip-rule="evenodd" d="M181.523 22.4356H166.471V18.9439H181.523V22.4356Z" fill="white"/>
<path fill-rule="evenodd" clip-rule="evenodd" d="M152.864 48.8814H156.343V80.4701H144.823V76.9785H152.851V53.8633L130.021 76.9785H135.939V80.4701H125.088V77.004L152.864 48.8814Z" fill="white"/>
<path fill-rule="evenodd" clip-rule="evenodd" d="M133.661 68.1246H156.265V71.5289H133.661V68.1246Z" fill="white"/>
<path fill-rule="evenodd" clip-rule="evenodd" d="M5.88672 4.60419H37.3882V15.7018H33.9838V8.00854H9.29108V32.7013H17.3188V36.1057H5.88672V4.60419Z" fill="white"/>
<g clip-path="url(#clip2)">
<path fill-rule="evenodd" clip-rule="evenodd" d="M36.9623 50.0948H40.3978V81.2618H7.29736L36.9623 50.0948ZM36.9934 55V77.8575H15.2376L36.9934 55Z" fill="white"/>
<path fill-rule="evenodd" clip-rule="evenodd" d="M37.1201 77.9842H44.9542V88.1596H41.803V81.1354H37.1201V77.9842Z" fill="white"/>
<path fill-rule="evenodd" clip-rule="evenodd" d="M5.34375 77.9842H13.1778V81.1354H8.49496V88.1596H5.34375V77.9842Z" fill="white"/>
</g>
<path fill-rule="evenodd" clip-rule="evenodd" d="M235.347 49.0923H266.848V60.1899H263.444V52.4966H238.751V77.1894H263.109V69.8306H266.514V80.5937H235.347V49.0923Z" fill="white"/>
<path fill-rule="evenodd" clip-rule="evenodd" d="M235.347 63.1407L257.817 63.1407L257.817 66.5451L235.347 66.5451L235.347 63.1407Z" fill="white"/>
<path fill-rule="evenodd" clip-rule="evenodd" d="M257.817 56.1165V73.9039H254.413V56.1165H257.817Z" fill="white"/>
<path fill-rule="evenodd" clip-rule="evenodd" d="M41.3428 4.60419H72.8442V15.7018H69.4399V8.00854H44.7471V32.7013H69.1054V25.3425H72.5098V36.1057H41.3428V4.60419Z" fill="white"/>
<path fill-rule="evenodd" clip-rule="evenodd" d="M41.3428 18.6526L63.813 18.6527L63.813 22.057L41.3428 22.057L41.3428 18.6526Z" fill="white"/>
<path fill-rule="evenodd" clip-rule="evenodd" d="M63.813 11.6284V29.4158H60.4087V11.6284H63.813Z" fill="white"/>
<path fill-rule="evenodd" clip-rule="evenodd" d="M98.2055 63.8095H112.618C115.606 63.8095 117.74 65.3287 119.071 67.07C120.354 68.7469 121.01 70.7751 121.01 72.2015C121.01 73.3333 120.831 75.5222 119.694 77.4863C118.479 79.5843 116.255 81.2624 112.618 81.2624H89.5088V69.8303H92.9131V77.8581H112.618C115.003 77.8581 116.123 76.8602 116.748 75.7806C117.45 74.5671 117.606 73.0766 117.606 72.2015C117.606 71.6209 117.259 70.3042 116.367 69.138C115.525 68.0361 114.314 67.2139 112.618 67.2139H98.2055V63.8095Z" fill="white"/>
<path fill-rule="evenodd" clip-rule="evenodd" d="M89.5088 49.761H112.618C116.255 49.761 118.479 51.4391 119.694 53.5372C120.831 55.5013 121.01 57.6902 121.01 58.822C121.01 60.2484 120.354 62.2766 119.071 63.9535C117.74 65.6948 115.606 67.214 112.618 67.214H98.2055V63.8096H112.618C114.314 63.8096 115.525 62.9874 116.367 61.8855C117.259 60.7192 117.606 59.4025 117.606 58.822C117.606 57.9469 117.45 56.4564 116.748 55.2429C116.123 54.1632 115.003 53.1654 112.618 53.1654H92.9131V61.1931H89.5088V49.761Z" fill="white"/>
<path fill-rule="evenodd" clip-rule="evenodd" d="M101.61 57.1197V73.5691H98.2056V57.1197H101.61Z" fill="white"/>
<path fill-rule="evenodd" clip-rule="evenodd" d="M51.3696 49.4529H62.1807V52.8048H54.7216V75.8028L80.2042 49.7873H83.2201V80.902H71.8069V77.55H79.8681V54.9207L54.419 80.902H51.3696V49.4529Z" fill="white"/>
<path fill-rule="evenodd" clip-rule="evenodd" d="M198.913 49.1183H209.289V52.4703H202.265V77.2155H209.624V80.5674H198.913V49.1183Z" fill="white"/>
<path fill-rule="evenodd" clip-rule="evenodd" d="M219.651 49.1183H230.028V80.5674H219.317V77.2155H226.676V52.4703H219.651V49.1183Z" fill="white"/>
<path fill-rule="evenodd" clip-rule="evenodd" d="M198.913 63.5015L229.693 63.5015L229.693 66.8535L198.913 66.8535L198.913 63.5015Z" fill="white"/>
<path fill-rule="evenodd" clip-rule="evenodd" d="M271.95 49.235H293.912C299.886 49.235 302.829 53.7115 302.829 57.483C302.829 59.5816 302.259 61.8015 300.846 63.5288C299.393 65.3041 297.177 66.3999 294.246 66.3999H275.066V76.9977H282.425V80.1139H271.95V49.235ZM275.066 63.2836H294.246C296.333 63.2836 297.629 62.5396 298.434 61.5554C299.279 60.5231 299.712 59.0637 299.712 57.483C299.712 55.2336 297.972 52.3513 293.912 52.3513H275.066V63.2836Z" fill="white"/>
<defs>
<clipPath id="clip0">
<rect width="41.8112" height="38.4663" fill="white" transform="translate(72.4795 0.95459)"/>
</clipPath>
<clipPath id="clip1">
<rect width="41.8112" height="38.4663" fill="white" transform="translate(156.771 45.4427)"/>
</clipPath>
<clipPath id="clip2">
<rect width="41.8112" height="38.4663" fill="white" transform="translate(4.24365 49.79)"/>
</clipPath>
</defs>
</svg>
