<svg width="101" height="101" viewBox="0 0 101 101" fill="none" xmlns="http://www.w3.org/2000/svg">
<path d="M0 50.5C0 22.6096 22.6096 0 50.5 0C78.3904 0 101 22.6096 101 50.5C101 78.3904 78.3904 101 50.5 101C22.6096 101 0 78.3904 0 50.5Z" fill="#424142"/>
<path fill-rule="evenodd" clip-rule="evenodd" d="M36.7143 18.0001H65.2857C67.2582 18.0001 68.8572 19.5984 68.8572 21.5699V21.5898C68.8677 23.5476 70.4551 25.1322 72.4145 25.1397H72.4285C74.401 25.1397 76 26.738 76 28.7095V28.7254V28.7572V35.8492V42.9412V43.0364H75.9987C75.9482 44.9639 74.3692 46.511 72.4285 46.511H72.4145C70.4578 46.5184 68.8721 48.0987 68.8572 50.0527V50.0808V53.6982V57.2204V57.3156H68.8559C68.8053 59.2431 67.2263 60.7902 65.2857 60.7902C63.3451 60.7902 61.7661 59.2431 61.7156 57.3156H61.7143V57.2204C61.7143 55.4478 60.4218 53.977 58.7274 53.6982H57.5583C55.864 53.977 54.5715 55.4478 54.5715 57.2204C54.5715 59.1919 52.9725 60.7902 51 60.7902C49.0275 60.7902 47.4285 59.1919 47.4285 57.2204C47.4285 55.4478 46.136 53.977 44.4417 53.6982H43.2727C41.5783 53.977 40.2857 55.4478 40.2857 57.2204V57.3156H40.2844C40.2339 59.2431 38.6549 60.7902 36.7143 60.7902C34.7737 60.7902 33.1947 59.2431 33.1441 57.3156H33.1428V57.2204V53.6982V50.0808C33.1428 48.1092 31.5439 46.511 29.5715 46.511C27.6308 46.511 26.0518 44.9639 26.0013 43.0364H26V42.9412V35.8492V28.7572V28.7254V28.7095C26 26.738 27.599 25.1397 29.5715 25.1397H29.5855C31.5514 25.1322 33.1428 23.5368 33.1428 21.5699C33.1428 19.6142 34.7161 18.0256 36.6667 18.0001L36.6784 18L36.6946 18.0001L36.7085 18.0001H36.7143ZM47.4285 35.8491C47.4285 33.8776 45.8295 32.2794 43.8572 32.2794H43.8374C41.8741 32.29 40.2858 33.8842 40.2858 35.8492C40.2858 37.8207 41.8848 39.419 43.8572 39.419C45.8295 39.419 47.4285 37.8207 47.4285 35.8491ZM61.7143 35.8491C61.7143 33.8776 60.1153 32.2794 58.1428 32.2794C56.1705 32.2794 54.5715 33.8776 54.5715 35.8491C54.5715 37.8207 56.1705 39.419 58.1428 39.419C60.1153 39.419 61.7143 37.8207 61.7143 35.8491Z" fill="#9896AE"/>
<path fill-rule="evenodd" clip-rule="evenodd" d="M29.5714 67.9625C27.599 67.9625 26 66.3629 26 64.3897C26 62.4165 27.599 60.8169 29.5714 60.8169C31.5439 60.8169 33.1429 62.4165 33.1429 64.3897C33.1429 66.3629 34.7418 67.9625 36.7143 67.9625H65.2857C67.2582 67.9625 68.8571 66.3629 68.8571 64.3897C68.8571 62.4165 70.4561 60.8169 72.4286 60.8169C74.401 60.8169 76 62.4165 76 64.3897C76 66.3629 74.401 67.9625 72.4286 67.9625C70.4561 67.9625 68.8571 69.5621 68.8571 71.5353C68.8571 73.5084 70.4561 75.108 72.4286 75.108C74.401 75.108 76 76.7076 76 78.6808C76 80.654 74.401 82.2536 72.4286 82.2536C70.4561 82.2536 68.8571 80.654 68.8571 78.6808C68.8571 76.7076 67.2582 75.108 65.2857 75.108H36.7143C34.7418 75.108 33.1429 76.7076 33.1429 78.6808C33.1429 80.654 31.5439 82.2536 29.5714 82.2536C27.599 82.2536 26 80.654 26 78.6808C26 76.7076 27.599 75.108 29.5714 75.108C31.5439 75.108 33.1429 73.5084 33.1429 71.5353C33.1429 69.5621 31.5439 67.9625 29.5714 67.9625Z" fill="#9896AE"/>
</svg>
