<svg width="758" height="382" viewBox="0 0 758 382" fill="none" xmlns="http://www.w3.org/2000/svg">
<path fill-rule="evenodd" clip-rule="evenodd" d="M-23.6857 342.656V140.817C-24.5268 136.612 -24.1904 126.184 -16.1161 118.111L90.6997 11.3044C94.6246 7.94043 105.502 1.04428 117.614 0.371485C129.725 -0.30131 188.263 0.0911537 216.019 0.371485C230.597 1.21239 259.418 11.4723 258.072 45.7849C257.792 55.5965 253.5 77 216.019 88.5C210.565 91.2266 204.246 94.5228 198.361 98.1315C192.763 100.753 187.808 104.519 183.797 109.127C182.223 110.746 180.928 112.376 180 114C179.795 114.358 179.592 114.742 179.391 115.15C175.336 121.81 173 129.632 173 138C173 146.42 175.365 154.287 179.466 160.974C182.791 167.614 188.11 173.313 196.181 176.773C201.051 179.393 206.47 181.122 212.221 181.743C242.943 189.331 297.077 196.056 324.516 198.846C342.5 200.674 359 212.806 359 238.372C359 264.421 340.001 280.826 329.787 289.645C327.47 291.646 325.605 293.256 324.516 294.5C322.586 296.705 313.529 305.189 301.929 316.056C285.219 331.708 263.23 352.305 249.661 366.204C243.514 372.5 228.298 383.36 206.767 381.341C180 378.832 171.442 354.71 167.237 342.656C161.63 327.798 148 298.924 117.614 298.924C86.187 298.924 71.3551 328.359 64.6266 342.656C58.1785 357.794 38.3855 386.724 10.7983 381.341C-16.7889 375.959 -23.6857 353.308 -23.6857 342.656Z" fill="#CCFD38"/>
<rect x="407" y="269" width="154" height="79" rx="39.5" stroke="black" stroke-width="4"/>
<rect x="674" y="206" width="84" height="83" rx="41.5" fill="#CCFD38"/>
</svg>
