<svg width="181" height="79" viewBox="0 0 181 79" fill="none" xmlns="http://www.w3.org/2000/svg">
<g clip-path="url(#clip0)">
<g filter="url(#filter0_d)">
<rect y="27.5684" width="172.533" height="44.0392" rx="22.0196" transform="rotate(-6.51226 0 27.5684)" fill="#04005E"/>
<path d="M74.5357 36.5316L70.1509 37.0322C69.5529 37.1005 69.1224 37.6465 69.1909 38.2472C69.2551 38.8098 68.8525 39.4162 68.2105 39.4895C67.6125 39.5578 67.182 40.1038 67.2505 40.7045L68.2807 49.7287C68.3492 50.3293 68.8917 50.7644 69.4897 50.6961C70.0878 50.6278 70.5183 50.0817 70.4497 49.4811L69.4186 40.4484C69.3593 39.9293 69.6623 39.2901 70.399 39.206L74.7839 38.7055C75.3821 38.6372 75.8124 38.0912 75.7438 37.4905C75.6762 36.8979 75.1334 36.4634 74.5357 36.5316Z" fill="#75FEFA" stroke="#75FEFA" stroke-width="0.4"/>
<path d="M89.8898 44.903L89.8899 44.9042C89.9629 45.4735 89.5593 46.0872 88.9154 46.1607L80.1154 47.1652C79.5989 47.2242 78.9609 46.9194 78.8762 46.1774L78.1211 39.5627L78.1211 39.5626L78.1211 39.5626L78.1211 39.5626L78.1211 39.5626L78.1211 39.5626L78.1211 39.5625L78.1211 39.5625L78.1211 39.5625L78.1211 39.5625L78.1211 39.5625L78.1211 39.5625L78.1211 39.5624L78.1211 39.5624L78.1211 39.5624L78.1211 39.5624L78.1211 39.5624L78.1211 39.5624L78.1211 39.5623L78.1211 39.5623L78.1211 39.5623L78.1211 39.5623L78.1211 39.5623L78.1211 39.5623L78.1211 39.5622L78.1211 39.5622L78.1211 39.5622L78.1211 39.5622L78.1211 39.5622L78.1211 39.5622L78.1211 39.5621L78.1211 39.5621L78.1211 39.5621L78.1211 39.5621L78.1211 39.5621L78.1211 39.5621L78.1211 39.562L78.1211 39.562L78.1211 39.562L78.1211 39.562L78.1211 39.562L78.1211 39.5619L78.1211 39.5619L78.1211 39.5619L78.1211 39.5619L78.1211 39.5619L78.121 39.5619L78.121 39.5618L78.121 39.5618L78.121 39.5618L78.121 39.5618L78.121 39.5618L78.121 39.5618L78.121 39.5617L78.121 39.5617L78.121 39.5617L78.121 39.5617L78.121 39.5617L78.121 39.5617L78.121 39.5616L78.121 39.5616L78.121 39.5616L78.121 39.5616L78.121 39.5616L78.121 39.5616L78.121 39.5615L78.121 39.5615L78.121 39.5615L78.121 39.5615L78.121 39.5615L78.121 39.5615L78.121 39.5614L78.121 39.5614L78.121 39.5614L78.121 39.5614L78.121 39.5614L78.121 39.5613L78.121 39.5613L78.121 39.5613L78.121 39.5613L78.121 39.5613L78.121 39.5613L78.121 39.5612L78.121 39.5612L78.121 39.5612L78.121 39.5612L78.121 39.5612L78.121 39.5612L78.121 39.5611L78.121 39.5611L78.121 39.5611L78.121 39.5611L78.121 39.5611L78.121 39.5611L78.121 39.561L78.121 39.561L78.121 39.561L78.121 39.561L78.1209 39.561L78.1209 39.561L78.1209 39.5609L78.1209 39.5609L78.1209 39.5609L78.1209 39.5609L78.1209 39.5609L78.1209 39.5608L78.1209 39.5608L78.1209 39.5608L78.1209 39.5608L78.1209 39.5608L78.1209 39.5607L78.1209 39.5607L78.1209 39.5607L78.1209 39.5607L78.1209 39.5607L78.1209 39.5607L78.1209 39.5606L78.1209 39.5606L78.1209 39.5606L78.1209 39.5606L78.1209 39.5606L78.1209 39.5605L78.1209 39.5605L78.1209 39.5605L78.1209 39.5605L78.1209 39.5605L78.1209 39.5604L78.1209 39.5604L78.1209 39.5604L78.1209 39.5604L78.1209 39.5604L78.1209 39.5603L78.1209 39.5603L78.1209 39.5603L78.1209 39.5603L78.1209 39.5603L78.1209 39.5602L78.1209 39.5602L78.1209 39.5602L78.1209 39.5602L78.1209 39.5602L78.1209 39.5601L78.1208 39.5601L78.1208 39.5601L78.1208 39.56L78.1208 39.56L78.1208 39.56L78.1208 39.56L78.1208 39.56L78.1208 39.5599L78.1208 39.5599L78.1208 39.5599L78.1208 39.5599L78.1208 39.5598L78.1208 39.5598L78.1208 39.5598L78.1208 39.5598L78.1208 39.5598L78.1208 39.5597L78.1208 39.5597L78.1208 39.5597L78.1208 39.5597L78.1208 39.5596L78.1208 39.5596L78.1208 39.5596L78.1208 39.5596L78.1208 39.5595L78.1208 39.5595L78.1208 39.5595L78.1208 39.5594L78.1208 39.5594L78.1208 39.5594L78.1208 39.5594L78.1208 39.5593L78.1208 39.5593L78.1208 39.5593L78.1208 39.5593L78.1207 39.5592L78.1207 39.5592L78.1207 39.5592L78.1207 39.5592L78.1207 39.5591L78.1207 39.5591L78.1207 39.5591L78.1207 39.559L78.1207 39.559L78.1207 39.559L78.1207 39.559L78.1207 39.5589L78.1207 39.5589L78.1207 39.5589L78.1207 39.5588L78.1207 39.5588L78.1207 39.5588L78.1207 39.5587L78.1207 39.5587L78.1207 39.5587L78.1207 39.5587L78.1207 39.5586L78.1207 39.5586L78.1207 39.5586L78.1207 39.5585L78.1207 39.5585L78.1207 39.5585L78.1207 39.5585L78.1207 39.5584L78.1207 39.5584L78.1206 39.5584L78.1206 39.5583L78.1206 39.5583L78.1206 39.5582L78.1206 39.5582L78.1206 39.5582L78.1206 39.5582L78.1206 39.5581L78.1206 39.5581L78.1206 39.5581L78.1206 39.558L78.1206 39.558L78.1206 39.558L78.1206 39.5579L78.1206 39.5579L78.1206 39.5579L78.1206 39.5578L78.1206 39.5578L78.1206 39.5578L78.1206 39.5577L78.1206 39.5577L78.1206 39.5576L78.1206 39.5576L78.1206 39.5576L78.1206 39.5575L78.1206 39.5575L78.1205 39.5575L78.1205 39.5574L78.1205 39.5574L78.1205 39.5574L78.1205 39.5573L78.1205 39.5573L78.1205 39.5573L78.1205 39.5572L78.1205 39.5572L78.1205 39.5572L78.1205 39.5571L78.1205 39.5571L78.1205 39.557L78.1205 39.557L78.1205 39.557L78.1205 39.5569L78.1205 39.5569L78.1205 39.5568L78.1205 39.5568L78.1205 39.5568L78.1205 39.5567L78.1205 39.5567L78.1205 39.5566L78.1204 39.5566L78.1204 39.5566L78.1204 39.5565L78.1204 39.5565L78.1204 39.5564L78.1204 39.5564L78.1204 39.5564L78.1204 39.5563L78.1204 39.5563L78.1204 39.5562L78.1204 39.5562L78.1204 39.5562L78.1204 39.5561L78.1204 39.5561L78.1204 39.556L78.1204 39.556L78.1204 39.556L78.1204 39.5559L78.1204 39.5559L78.1204 39.5558L78.1204 39.5558L78.1203 39.5557L78.1203 39.5557L78.1203 39.5556L78.1203 39.5556L78.1203 39.5556L78.1203 39.5555L78.1203 39.5555L78.1203 39.5554L78.1203 39.5554L78.1203 39.5553L78.1203 39.5553L78.1203 39.5553L78.1203 39.5552L78.1203 39.5551L78.1203 39.5551L78.1203 39.5551L78.1203 39.555L78.1203 39.555L78.1203 39.5549L78.1203 39.5549L78.1202 39.5548L78.1202 39.5548L78.1202 39.5547L78.1202 39.5547L78.1202 39.5546L78.1202 39.5546L78.1202 39.5545L78.1202 39.5545L78.1202 39.5544L78.1202 39.5544L78.1202 39.5543L78.1202 39.5543L78.1202 39.5542L78.1202 39.5542L78.1202 39.5542C78.061 39.0359 78.365 38.397 79.1048 38.3125L87.8965 37.3089C88.4565 37.245 89.0618 37.65 89.1356 38.2967L89.8898 44.903ZM90.1096 37.0983C89.593 37.1573 88.955 36.8526 88.8703 36.1106C88.8017 35.5101 88.2575 35.0761 87.6579 35.1446L78.8579 36.1491C78.2583 36.2175 77.8258 36.763 77.8944 37.3635C77.9585 37.9252 77.5545 38.5315 76.9097 38.6051C76.31 38.6736 75.8777 39.2191 75.9462 39.8195L76.7003 46.4258C76.7689 47.0263 77.313 47.4603 77.9127 47.3918C78.4727 47.3279 79.0781 47.7329 79.1519 48.3796C79.2205 48.9802 79.7647 49.414 80.3643 49.3456L89.1559 48.342C89.7555 48.2735 90.188 47.7282 90.1194 47.1277C90.0603 46.6095 90.3642 45.9705 91.1041 45.886C91.7038 45.8176 92.1361 45.2721 92.0676 44.6716L91.3125 38.0568C91.244 37.4564 90.7092 37.0299 90.1096 37.0983Z" fill="#75FEFA" stroke="#75FEFA" stroke-width="0.4"/>
<path d="M64.0517 40.0729C63.535 40.1319 62.897 39.8272 62.8123 39.0852C62.7438 38.4847 62.1997 38.0507 61.5999 38.1192L52.8085 39.1227C52.2089 39.1912 51.7765 39.7366 51.845 40.3371C51.9091 40.8988 51.5049 41.5052 50.8602 41.5788C50.2606 41.6472 49.8281 42.1927 49.8967 42.7932L50.6508 49.3994C50.7193 49.9999 51.2636 50.4339 51.8632 50.3655C52.4232 50.3016 53.0287 50.7066 53.1025 51.3532C53.1711 51.9538 53.7153 52.3876 54.3149 52.3192L63.1064 51.3156C63.7061 51.2472 64.1384 50.7018 64.0699 50.1013C64.0107 49.5831 64.3149 48.9441 65.0547 48.8596C65.6543 48.7912 66.0868 48.2457 66.0182 47.6452L65.2631 41.0304C65.1945 40.429 64.6504 40.0046 64.0517 40.0729ZM62.8575 49.1353L54.066 50.1388C53.5494 50.1978 52.9114 49.893 52.8267 49.1511L52.0716 42.5363L52.0716 42.5363L52.0716 42.5362L52.0716 42.5362L52.0716 42.5362L52.0716 42.5362L52.0716 42.5362L52.0716 42.5362L52.0716 42.5361L52.0716 42.5361L52.0716 42.5361L52.0716 42.5361L52.0716 42.5361L52.0715 42.5361L52.0715 42.536L52.0715 42.536L52.0715 42.536L52.0715 42.536L52.0715 42.536L52.0715 42.536L52.0715 42.5359L52.0715 42.5359L52.0715 42.5359L52.0715 42.5359L52.0715 42.5359L52.0715 42.5359L52.0715 42.5358L52.0715 42.5358L52.0715 42.5358L52.0715 42.5358L52.0715 42.5358L52.0715 42.5358L52.0715 42.5357L52.0715 42.5357L52.0715 42.5357L52.0715 42.5357L52.0715 42.5357L52.0715 42.5357L52.0715 42.5356L52.0715 42.5356L52.0715 42.5356L52.0715 42.5356L52.0715 42.5356L52.0715 42.5355L52.0715 42.5355L52.0715 42.5355L52.0715 42.5355L52.0715 42.5355L52.0715 42.5355L52.0715 42.5354L52.0715 42.5354L52.0715 42.5354L52.0715 42.5354L52.0715 42.5354L52.0715 42.5354L52.0715 42.5353L52.0715 42.5353L52.0715 42.5353L52.0715 42.5353L52.0715 42.5353L52.0715 42.5353L52.0715 42.5352L52.0715 42.5352L52.0715 42.5352L52.0714 42.5352L52.0714 42.5352L52.0714 42.5352L52.0714 42.5351L52.0714 42.5351L52.0714 42.5351L52.0714 42.5351L52.0714 42.5351L52.0714 42.5351L52.0714 42.535L52.0714 42.535L52.0714 42.535L52.0714 42.535L52.0714 42.535L52.0714 42.5349L52.0714 42.5349L52.0714 42.5349L52.0714 42.5349L52.0714 42.5349L52.0714 42.5349L52.0714 42.5348L52.0714 42.5348L52.0714 42.5348L52.0714 42.5348L52.0714 42.5348L52.0714 42.5348L52.0714 42.5347L52.0714 42.5347L52.0714 42.5347L52.0714 42.5347L52.0714 42.5347L52.0714 42.5347L52.0714 42.5346L52.0714 42.5346L52.0714 42.5346L52.0714 42.5346L52.0714 42.5346L52.0714 42.5345L52.0714 42.5345L52.0714 42.5345L52.0714 42.5345L52.0714 42.5345L52.0714 42.5345L52.0714 42.5344L52.0714 42.5344L52.0714 42.5344L52.0714 42.5344L52.0714 42.5344L52.0714 42.5343L52.0714 42.5343L52.0713 42.5343L52.0713 42.5343L52.0713 42.5343L52.0713 42.5342L52.0713 42.5342L52.0713 42.5342L52.0713 42.5342L52.0713 42.5342L52.0713 42.5342L52.0713 42.5341L52.0713 42.5341L52.0713 42.5341L52.0713 42.5341L52.0713 42.5341L52.0713 42.534L52.0713 42.534L52.0713 42.534L52.0713 42.534L52.0713 42.534L52.0713 42.5339L52.0713 42.5339L52.0713 42.5339L52.0713 42.5339L52.0713 42.5339L52.0713 42.5338L52.0713 42.5338L52.0713 42.5338L52.0713 42.5337L52.0713 42.5337L52.0713 42.5337L52.0713 42.5337L52.0713 42.5337L52.0713 42.5336L52.0713 42.5336L52.0713 42.5336L52.0713 42.5336L52.0713 42.5335L52.0713 42.5335L52.0713 42.5335L52.0713 42.5335L52.0713 42.5335L52.0712 42.5334L52.0712 42.5334L52.0712 42.5334L52.0712 42.5334L52.0712 42.5333L52.0712 42.5333L52.0712 42.5333L52.0712 42.5333L52.0712 42.5332L52.0712 42.5332L52.0712 42.5332L52.0712 42.5331L52.0712 42.5331L52.0712 42.5331L52.0712 42.5331L52.0712 42.533L52.0712 42.533L52.0712 42.533L52.0712 42.533L52.0712 42.5329L52.0712 42.5329L52.0712 42.5329L52.0712 42.5329L52.0712 42.5328L52.0712 42.5328L52.0712 42.5328L52.0712 42.5328L52.0712 42.5327L52.0712 42.5327L52.0712 42.5327L52.0712 42.5327L52.0712 42.5326L52.0712 42.5326L52.0712 42.5326L52.0711 42.5325L52.0711 42.5325L52.0711 42.5325L52.0711 42.5324L52.0711 42.5324L52.0711 42.5324L52.0711 42.5324L52.0711 42.5323L52.0711 42.5323L52.0711 42.5323L52.0711 42.5322L52.0711 42.5322L52.0711 42.5322L52.0711 42.5321L52.0711 42.5321L52.0711 42.5321L52.0711 42.5321L52.0711 42.532L52.0711 42.532L52.0711 42.532L52.0711 42.5319L52.0711 42.5319L52.0711 42.5319L52.0711 42.5318L52.0711 42.5318L52.0711 42.5318L52.0711 42.5317L52.0711 42.5317L52.071 42.5317L52.071 42.5316L52.071 42.5316L52.071 42.5316L52.071 42.5315L52.071 42.5315L52.071 42.5315L52.071 42.5314L52.071 42.5314L52.071 42.5314L52.071 42.5313L52.071 42.5313L52.071 42.5312L52.071 42.5312L52.071 42.5312L52.071 42.5311L52.071 42.5311L52.071 42.5311L52.071 42.531L52.071 42.531L52.071 42.531L52.071 42.5309L52.071 42.5309L52.071 42.5309L52.071 42.5308L52.0709 42.5308L52.0709 42.5307L52.0709 42.5307L52.0709 42.5307L52.0709 42.5306L52.0709 42.5306L52.0709 42.5305L52.0709 42.5305L52.0709 42.5305L52.0709 42.5304L52.0709 42.5304L52.0709 42.5304L52.0709 42.5303L52.0709 42.5303L52.0709 42.5302L52.0709 42.5302L52.0709 42.5302L52.0709 42.5301L52.0709 42.5301L52.0709 42.53L52.0709 42.53L52.0709 42.53L52.0708 42.5299L52.0708 42.5299L52.0708 42.5298L52.0708 42.5298L52.0708 42.5297L52.0708 42.5297L52.0708 42.5297L52.0708 42.5296L52.0708 42.5296L52.0708 42.5295L52.0708 42.5295L52.0708 42.5294L52.0708 42.5294L52.0708 42.5294L52.0708 42.5293L52.0708 42.5293L52.0708 42.5292L52.0708 42.5292L52.0708 42.5291L52.0708 42.5291L52.0707 42.5291L52.0707 42.529L52.0707 42.529L52.0707 42.5289L52.0707 42.5289L52.0707 42.5288L52.0707 42.5288L52.0707 42.5287L52.0707 42.5287L52.0707 42.5286L52.0707 42.5286L52.0707 42.5286L52.0707 42.5285L52.0707 42.5285L52.0707 42.5284L52.0707 42.5284L52.0707 42.5283L52.0707 42.5283L52.0707 42.5282L52.0706 42.5282L52.0706 42.5281L52.0706 42.5281L52.0706 42.528L52.0706 42.528L52.0706 42.5279L52.0706 42.5279L52.0706 42.5278L52.0706 42.5278C52.0114 42.0096 52.3156 41.3706 53.0555 41.2861L61.8469 40.2826C62.4069 40.2186 63.0124 40.6236 63.0862 41.2703L63.8404 47.8766C63.9056 48.448 63.5012 49.0618 62.8575 49.1353Z" fill="#75FEFA" stroke="#75FEFA" stroke-width="0.4"/>
<path d="M114.697 30.9851L114.688 30.8995L114.676 30.9008C114.568 30.3473 114.05 29.9586 113.481 30.0235C112.967 30.0823 112.331 29.7788 112.247 29.0399C112.179 28.4416 111.637 28.0092 111.039 28.0774L95.7178 29.8263C95.1204 29.8945 94.6896 30.438 94.7579 31.0363C94.8218 31.5957 94.4194 32.1995 93.7773 32.2728C93.18 32.341 92.749 32.8845 92.8173 33.4828L94.0699 44.4559C94.1382 45.0542 94.6806 45.4866 95.278 45.4184C95.8355 45.3548 96.4385 45.7581 96.512 46.4021C96.5803 47.0004 97.1225 47.4329 97.7198 47.3647L113.05 45.6148C113.647 45.5465 114.078 45.003 114.01 44.4047L114.01 44.4046L114.01 44.4046L114.01 44.4046L114.01 44.4046L114.01 44.4046L114.01 44.4046L114.01 44.4045L114.01 44.4045L114.01 44.4045L114.01 44.4045L114.01 44.4045L114.01 44.4045L114.01 44.4044L114.01 44.4044L114.01 44.4044L114.01 44.4044L114.01 44.4044L114.01 44.4044L114.01 44.4043L114.01 44.4043L114.01 44.4043L114.01 44.4043L114.01 44.4043L114.01 44.4042L114.01 44.4042L114.01 44.4042L114.01 44.4042L114.009 44.4042L114.009 44.4042L114.009 44.4041L114.009 44.4041L114.009 44.4041L114.009 44.4041L114.009 44.4041L114.009 44.4041L114.009 44.404L114.009 44.404L114.009 44.404L114.009 44.404L114.009 44.404L114.009 44.404L114.009 44.4039L114.009 44.4039L114.009 44.4039L114.009 44.4039L114.009 44.4039L114.009 44.4038L114.009 44.4038L114.009 44.4038L114.009 44.4038L114.009 44.4038L114.009 44.4038L114.009 44.4037L114.009 44.4037L114.009 44.4037L114.009 44.4037L114.009 44.4037L114.009 44.4036L114.009 44.4036L114.009 44.4036L114.009 44.4036L114.009 44.4036L114.009 44.4036L114.009 44.4035L114.009 44.4035L114.009 44.4035L114.009 44.4035L114.009 44.4035L114.009 44.4035L114.009 44.4034L114.009 44.4034L114.009 44.4034L114.009 44.4034L114.009 44.4034L114.009 44.4034L114.009 44.4033L114.009 44.4033L114.009 44.4033L114.009 44.4033L114.009 44.4033L114.009 44.4033L114.009 44.4032L114.009 44.4032L114.009 44.4032L114.009 44.4032L114.009 44.4032L114.009 44.4032L114.009 44.4031L114.009 44.4031L114.009 44.4031L114.009 44.4031L114.009 44.4031L114.009 44.403L114.009 44.403L114.009 44.403L114.009 44.403L114.009 44.403L114.009 44.403L114.009 44.4029L114.009 44.4029L114.009 44.4029L114.009 44.4029L114.009 44.4029L114.009 44.4029L114.009 44.4028L114.009 44.4028L114.009 44.4028L114.009 44.4028L114.009 44.4028L114.009 44.4027L114.009 44.4027L114.009 44.4027L114.009 44.4027L114.009 44.4027L114.009 44.4027L114.009 44.4026L114.009 44.4026L114.009 44.4026L114.009 44.4026L114.009 44.4026L114.009 44.4025L114.009 44.4025L114.009 44.4025L114.009 44.4025L114.009 44.4024L114.009 44.4024L114.009 44.4024L114.009 44.4024L114.009 44.4024L114.009 44.4023L114.009 44.4023L114.009 44.4023L114.009 44.4023L114.009 44.4023L114.009 44.4022L114.009 44.4022L114.009 44.4022L114.009 44.4022L114.009 44.4022L114.009 44.4021L114.009 44.4021L114.009 44.4021L114.009 44.4021L114.009 44.4021L114.009 44.402L114.009 44.402L114.009 44.402L114.009 44.402L114.009 44.4019L114.009 44.4019L114.009 44.4019L114.009 44.4019L114.009 44.4018L114.009 44.4018L114.009 44.4018L114.009 44.4018L114.009 44.4017L114.009 44.4017L114.009 44.4017L114.009 44.4017L114.009 44.4016L114.009 44.4016L114.009 44.4016L114.009 44.4016L114.009 44.4015L114.009 44.4015L114.009 44.4015L114.009 44.4015L114.009 44.4014L114.009 44.4014L114.009 44.4014L114.009 44.4014L114.009 44.4013L114.009 44.4013L114.009 44.4013L114.009 44.4013L114.009 44.4012L114.009 44.4012L114.009 44.4012L114.009 44.4011L114.009 44.4011L114.009 44.4011L114.009 44.4011L114.009 44.401L114.009 44.401L114.009 44.401L114.009 44.4009L114.009 44.4009L114.009 44.4009L114.009 44.4009L114.009 44.4008L114.009 44.4008L114.009 44.4008L114.009 44.4007L114.009 44.4007L114.009 44.4007L114.009 44.4007L114.009 44.4006L114.009 44.4006L114.009 44.4006L114.009 44.4005L114.009 44.4005L114.009 44.4005L114.009 44.4004L114.009 44.4004L114.009 44.4004L114.009 44.4003L114.009 44.4003L114.009 44.4003L114.009 44.4002L114.009 44.4002L114.009 44.4002L114.009 44.4002L114.009 44.4001L114.009 44.4001L114.009 44.4001L114.009 44.4L114.009 44.4L114.009 44.3999L114.009 44.3999L114.009 44.3999L114.009 44.3998L114.009 44.3998L114.009 44.3998L114.009 44.3997L114.009 44.3997L114.009 44.3997L114.009 44.3996L114.009 44.3996L114.009 44.3996L114.009 44.3995L114.009 44.3995L114.009 44.3995L114.009 44.3994L114.009 44.3994L114.009 44.3993L114.009 44.3993L114.009 44.3993L114.009 44.3992L114.009 44.3992L114.009 44.3992L114.009 44.3991L114.009 44.3991L114.009 44.3991L114.009 44.399L114.009 44.399L114.009 44.3989L114.009 44.3989L114.009 44.3989L114.009 44.3988L114.009 44.3988L114.009 44.3987L114.009 44.3987L114.009 44.3987L114.009 44.3986L114.009 44.3986L114.009 44.3986L114.009 44.3985L114.009 44.3985L114.009 44.3984L114.009 44.3984L114.009 44.3984L114.009 44.3983L114.009 44.3983L114.009 44.3982L114.009 44.3982L114.009 44.3981L114.009 44.3981L114.009 44.3981L114.009 44.398L114.009 44.398L114.009 44.3979L114.009 44.3979L114.009 44.3978L114.009 44.3978L114.009 44.3978L114.009 44.3977L114.009 44.3977L114.009 44.3976L114.009 44.3976L114.009 44.3976L114.009 44.3975L114.009 44.3975L114.009 44.3974L114.009 44.3974L114.009 44.3973L114.009 44.3973L114.009 44.3972L114.009 44.3972L114.009 44.3971L114.009 44.3971L114.009 44.3971L114.009 44.397L114.009 44.397L114.009 44.3969L114.009 44.3969L114.009 44.3968L114.009 44.3968L114.009 44.3967L114.009 44.3967L114.009 44.3966L114.009 44.3966L114.009 44.3965L114.009 44.3965L114.009 44.3964L114.009 44.3964L114.009 44.3963L114.009 44.3963L114.009 44.3962L114.009 44.3962C113.95 43.8801 114.252 43.2439 114.989 43.1598L115.387 43.1144C115.764 43.0713 116.038 42.7261 115.995 42.3483L115.904 41.5597L115.904 41.5596L115.904 41.5595L115.904 41.5594L115.904 41.5593L115.904 41.5592L115.904 41.5591L115.904 41.559L115.904 41.5589L115.904 41.5588L115.904 41.5587L115.904 41.5586L115.904 41.5585L115.904 41.5584L115.904 41.5583L115.904 41.5582L115.904 41.5581L115.904 41.558L115.904 41.5579L115.904 41.5578L115.904 41.5577L115.904 41.5576L115.904 41.5575L115.904 41.5574L115.904 41.5573L115.904 41.5572L115.904 41.5571L115.904 41.557L115.904 41.5569L115.904 41.5568L115.904 41.5567L115.904 41.5566L115.904 41.5565L115.904 41.5564L115.904 41.5563L115.904 41.5562L115.904 41.5561L115.904 41.556L115.904 41.5559L115.904 41.5558L115.904 41.5557L115.904 41.5556L115.904 41.5555L115.904 41.5554L115.904 41.5553L115.904 41.5552L115.904 41.5551L115.904 41.555L115.904 41.5549L115.904 41.5548L115.904 41.5547L115.904 41.5546L115.904 41.5545L115.904 41.5544L115.904 41.5543L115.904 41.5542L115.904 41.5541L115.904 41.554L115.904 41.5539L115.904 41.5538L115.904 41.5537L115.904 41.5536L115.904 41.5535L115.904 41.5534L115.904 41.5533L115.904 41.5532L115.904 41.5531L115.904 41.553L115.904 41.5529L115.904 41.5528L115.904 41.5527L115.904 41.5526L115.904 41.5525L115.904 41.5524L115.904 41.5523L115.904 41.5522L115.904 41.5521L115.904 41.552L115.904 41.5519L115.904 41.5518L115.904 41.5517L115.904 41.5516L115.904 41.5515L115.904 41.5514L115.904 41.5513L115.904 41.5512L115.904 41.5511L115.903 41.551L115.903 41.5509L115.903 41.5508L115.903 41.5507L115.903 41.5506L115.903 41.5505L115.903 41.5504L115.903 41.5503L115.903 41.5502L115.903 41.5501L115.903 41.55L115.903 41.5499L115.903 41.5498L115.903 41.5497L115.903 41.5496L115.903 41.5495L115.903 41.5494L115.903 41.5493L115.903 41.5492L115.903 41.5491L115.903 41.549L115.903 41.5489L115.903 41.5488L115.903 41.5487L115.903 41.5486L115.903 41.5485L115.903 41.5484L115.903 41.5483L115.903 41.5482L115.903 41.5481L115.903 41.548L115.903 41.5479L115.903 41.5478L115.903 41.5477L115.903 41.5476L115.903 41.5475L115.903 41.5474L115.903 41.5473L115.903 41.5473L115.903 41.5471L115.903 41.547L115.903 41.5469L115.903 41.5468L115.903 41.5468L115.903 41.5467L115.903 41.5466L115.903 41.5464L115.903 41.5464L115.903 41.5463L115.903 41.5462L115.903 41.5461L115.903 41.546L115.903 41.5459L115.903 41.5458L115.903 41.5457L115.903 41.5456L115.903 41.5455L115.903 41.5454L115.903 41.5453L115.903 41.5452L115.903 41.5451L115.903 41.545L115.903 41.5449L115.903 41.5448L115.903 41.5447L115.903 41.5446L115.903 41.5445L115.903 41.5444L115.903 41.5443L115.903 41.5442L115.903 41.5441L115.903 41.544L115.903 41.5439L115.903 41.5438L115.903 41.5437L115.903 41.5436L115.903 41.5435L115.903 41.5434L115.903 41.5433L115.903 41.5432L115.903 41.5431L115.903 41.543L115.903 41.5429L115.903 41.5428L115.903 41.5427L115.903 41.5426L115.903 41.5425L115.903 41.5424L115.902 41.5423L115.902 41.5422L115.902 41.5421L115.902 41.542L115.902 41.5419L115.902 41.5418L115.902 41.5417L115.902 41.5416L115.902 41.5415L115.902 41.5414L115.902 41.5413L115.902 41.5412L115.902 41.5411L115.902 41.541L115.902 41.5409L115.902 41.5408L115.902 41.5407L115.902 41.5406L115.902 41.5405L115.902 41.5404L115.902 41.5403L115.902 41.5402L115.902 41.5401L115.902 41.54L115.902 41.5399L115.902 41.5398L115.902 41.5397L115.902 41.5396L115.902 41.5395L115.902 41.5394L115.902 41.5393L115.902 41.5392L115.902 41.5391L115.902 41.539L115.902 41.5389L115.902 41.5388L115.902 41.5387L115.902 41.5386L115.902 41.5385L115.902 41.5384L115.902 41.5383L115.902 41.5382L115.902 41.5381L115.902 41.538L115.902 41.5379L115.902 41.5378L115.902 41.5377L115.902 41.5376L115.902 41.5375L115.902 41.5374L115.902 41.5373L115.902 41.5372L115.902 41.5371L115.902 41.537L115.902 41.5369L115.902 41.5368L115.902 41.5367L115.902 41.5366L115.902 41.5365L115.902 41.5364L115.902 41.5363L115.902 41.5362L115.902 41.5361L115.902 41.536L115.902 41.5359L115.902 41.5358L115.902 41.5357L115.902 41.5356L115.902 41.5355L115.902 41.5354L115.902 41.5353L115.902 41.5352L115.902 41.5351L115.902 41.535L115.902 41.5349L115.902 41.5348L115.902 41.5347L115.902 41.5346L115.902 41.5345L115.902 41.5344L115.902 41.5343L115.902 41.5342L115.902 41.5341L115.902 41.534L115.902 41.5339L115.902 41.5338L115.902 41.5337L115.902 41.5336L115.901 41.5335L115.901 41.5334L115.901 41.5333L115.901 41.5332L115.901 41.5331L115.901 41.533L115.901 41.5329L115.901 41.5328L115.901 41.5327L115.901 41.5326L115.901 41.5325L115.901 41.5324L115.901 41.5323L115.901 41.5322L115.901 41.5321L115.901 41.532L115.901 41.5319L115.901 41.5318L115.901 41.5317L115.901 41.5316L115.901 41.5315L115.901 41.5314L115.901 41.5313L115.901 41.5313L115.901 41.5311L115.901 41.531L115.901 41.5309L115.901 41.5309L115.901 41.5308L115.901 41.5307L115.901 41.5306L115.901 41.5304L115.901 41.5304L115.901 41.5303L115.901 41.5302L115.901 41.5301L115.901 41.53L115.901 41.5299L115.901 41.5298L115.901 41.5297L115.901 41.5296L115.901 41.5295L115.901 41.5294L115.901 41.5293L115.901 41.5292L115.901 41.5291L115.901 41.529L115.901 41.5289L115.901 41.5288L115.901 41.5287L115.901 41.5286L115.901 41.5285L115.901 41.5284L115.901 41.5283L115.901 41.5282L115.901 41.5281L115.901 41.528L115.901 41.5279L115.901 41.5278L115.901 41.5277L115.901 41.5276L115.901 41.5275L115.901 41.5274L115.901 41.5273L115.901 41.5272L115.901 41.5271L115.901 41.527L115.901 41.5269L115.901 41.5268L115.901 41.5267L115.901 41.5266L115.901 41.5265L115.901 41.5264L115.901 41.5263L115.901 41.5262L115.901 41.5261L115.901 41.526L115.901 41.5259L115.901 41.5258L115.901 41.5257L115.901 41.5256L115.901 41.5255L115.901 41.5254L115.901 41.5253L115.901 41.5252L115.901 41.5251L115.901 41.525L115.901 41.5249L115.9 41.5248L115.9 41.5247L115.9 41.5246L115.9 41.5245L115.9 41.5244L115.9 41.5243L115.9 41.5242L115.9 41.5241L115.9 41.524L115.9 41.5239L115.9 41.5238L115.9 41.5237L115.9 41.5236L115.9 41.5235L115.9 41.5234L115.9 41.5233L115.9 41.5232L115.9 41.5231L115.9 41.523L115.9 41.5229L115.9 41.5228L115.9 41.5227L115.9 41.5226L115.9 41.5225L115.9 41.5224L115.9 41.5223L115.9 41.5222L115.9 41.5221L115.9 41.522L115.9 41.5219L115.9 41.5218L115.9 41.5217L115.9 41.5216L115.9 41.5215L115.9 41.5214L115.9 41.5213L115.9 41.5212L115.9 41.5211L115.9 41.521L115.9 41.5209L115.9 41.5208L115.9 41.5207L115.9 41.5206L115.9 41.5205L115.9 41.5204L115.9 41.5203L115.9 41.5202L115.9 41.5201L115.9 41.52L115.9 41.5199L115.9 41.5198L115.9 41.5197L115.9 41.5196L115.9 41.5195L115.9 41.5194L115.9 41.5193L115.9 41.5192L115.9 41.5191L115.9 41.519L115.9 41.5189L115.9 41.5188L115.9 41.5187L115.9 41.5186L115.9 41.5185L115.9 41.5184L115.9 41.5183L115.9 41.5182L115.9 41.5181L115.9 41.518L115.9 41.5179L115.9 41.5178L115.9 41.5177L115.9 41.5176L115.9 41.5175L115.9 41.5174L115.9 41.5173L115.9 41.5172L115.9 41.5171L115.9 41.517L115.9 41.5169L115.9 41.5168L115.9 41.5167L115.9 41.5166L115.9 41.5165L115.9 41.5164L115.9 41.5163L115.9 41.5162L115.9 41.5161L115.899 41.516L115.899 41.5159L115.899 41.5159L115.899 41.5157L115.899 41.5156L115.899 41.5155L115.899 41.5154L115.899 41.5154L115.899 41.5153L115.899 41.5151L115.899 41.515L115.899 41.5149L115.899 41.5149L115.899 41.5148L115.899 41.5147L115.899 41.5145L115.899 41.5144L115.899 41.5144L115.899 41.5143L115.899 41.5142L115.899 41.5141L115.899 41.514L115.899 41.5139L115.899 41.5138L115.899 41.5137L115.899 41.5136L115.899 41.5135L115.899 41.5134L115.899 41.5133L115.899 41.5132L115.899 41.5131L115.899 41.513L115.899 41.5129L115.899 41.5128L115.899 41.5127L115.899 41.5126L115.899 41.5125L115.899 41.5124L115.899 41.5123L115.899 41.5122L115.899 41.5121L115.899 41.512L115.899 41.5119L115.899 41.5118L115.899 41.5117L115.899 41.5116L115.899 41.5115L115.899 41.5114L115.899 41.5113L115.899 41.5112L115.899 41.5111L115.899 41.511L115.899 41.5109L115.899 41.5108L115.899 41.5107L115.899 41.5106L115.899 41.5105L115.899 41.5104L115.899 41.5103L115.899 41.5102L115.899 41.5101L115.899 41.51L115.899 41.5099L115.899 41.5098L115.899 41.5097L115.899 41.5096L115.899 41.5095L115.899 41.5094L115.899 41.5093L115.899 41.5092L115.899 41.5091L115.899 41.509L115.899 41.5089L115.899 41.5088L114.697 30.9851ZM97.4708 45.1836L97.3852 45.1933L97.3858 45.1984C96.8892 45.216 96.3177 44.9065 96.238 44.2084L94.9854 33.2353L94.9854 33.2353L94.9854 33.2353L94.9853 33.2353L94.9853 33.2352L94.9853 33.2352L94.9853 33.2352L94.9853 33.2352L94.9853 33.2352L94.9853 33.2352L94.9853 33.2351L94.9853 33.2351L94.9853 33.2351L94.9853 33.2351L94.9853 33.2351L94.9853 33.235L94.9853 33.235L94.9853 33.235L94.9853 33.235L94.9853 33.235L94.9853 33.235L94.9853 33.2349L94.9853 33.2349L94.9853 33.2349L94.9853 33.2349L94.9853 33.2349L94.9853 33.2349L94.9853 33.2348L94.9853 33.2348L94.9853 33.2348L94.9853 33.2348L94.9853 33.2348L94.9853 33.2348L94.9853 33.2347L94.9853 33.2347L94.9853 33.2347L94.9853 33.2347L94.9853 33.2347L94.9853 33.2347L94.9853 33.2346L94.9853 33.2346L94.9853 33.2346L94.9853 33.2346L94.9853 33.2346L94.9853 33.2346L94.9853 33.2345L94.9853 33.2345L94.9853 33.2345L94.9853 33.2345L94.9853 33.2345L94.9853 33.2344L94.9853 33.2344L94.9853 33.2344L94.9853 33.2344L94.9853 33.2344L94.9852 33.2344L94.9852 33.2343L94.9852 33.2343L94.9852 33.2343L94.9852 33.2343L94.9852 33.2343L94.9852 33.2343L94.9852 33.2342L94.9852 33.2342L94.9852 33.2342L94.9852 33.2342L94.9852 33.2342L94.9852 33.2342L94.9852 33.2341L94.9852 33.2341L94.9852 33.2341L94.9852 33.2341L94.9852 33.2341L94.9852 33.2341L94.9852 33.234L94.9852 33.234L94.9852 33.234L94.9852 33.234L94.9852 33.234L94.9852 33.234L94.9852 33.2339L94.9852 33.2339L94.9852 33.2339L94.9852 33.2339L94.9852 33.2339L94.9852 33.2339L94.9852 33.2338L94.9852 33.2338L94.9852 33.2338L94.9852 33.2338L94.9852 33.2338L94.9852 33.2337L94.9852 33.2337L94.9852 33.2337L94.9852 33.2337L94.9852 33.2337L94.9852 33.2337L94.9852 33.2336L94.9852 33.2336L94.9852 33.2336L94.9852 33.2336L94.9852 33.2336L94.9852 33.2336L94.9852 33.2335L94.9852 33.2335L94.9852 33.2335L94.9851 33.2335L94.9851 33.2335L94.9851 33.2335L94.9851 33.2334L94.9851 33.2334L94.9851 33.2334L94.9851 33.2334L94.9851 33.2334L94.9851 33.2333L94.9851 33.2333L94.9851 33.2333L94.9851 33.2333L94.9851 33.2333L94.9851 33.2333L94.9851 33.2332L94.9851 33.2332L94.9851 33.2332L94.9851 33.2332L94.9851 33.2331L94.9851 33.2331L94.9851 33.2331L94.9851 33.2331L94.9851 33.2331L94.9851 33.233L94.9851 33.233L94.9851 33.233L94.9851 33.233L94.9851 33.233L94.9851 33.2329L94.9851 33.2329L94.9851 33.2329L94.9851 33.2329L94.9851 33.2329L94.9851 33.2328L94.9851 33.2328L94.9851 33.2328L94.9851 33.2328L94.9851 33.2327L94.9851 33.2327L94.9851 33.2327L94.9851 33.2327L94.9851 33.2327L94.9851 33.2326L94.985 33.2326L94.985 33.2326L94.985 33.2326L94.985 33.2325L94.985 33.2325L94.985 33.2325L94.985 33.2325L94.985 33.2324L94.985 33.2324L94.985 33.2324L94.985 33.2324L94.985 33.2323L94.985 33.2323L94.985 33.2323L94.985 33.2323L94.985 33.2322L94.985 33.2322L94.985 33.2322L94.985 33.2322L94.985 33.2321L94.985 33.2321L94.985 33.2321L94.985 33.2321L94.985 33.232L94.985 33.232L94.985 33.232L94.985 33.2319L94.985 33.2319L94.985 33.2319L94.985 33.2319L94.985 33.2318L94.985 33.2318L94.985 33.2318L94.985 33.2318L94.9849 33.2317L94.9849 33.2317L94.9849 33.2317L94.9849 33.2317L94.9849 33.2316L94.9849 33.2316L94.9849 33.2316L94.9849 33.2315L94.9849 33.2315L94.9849 33.2315L94.9849 33.2315L94.9849 33.2314L94.9849 33.2314L94.9849 33.2314L94.9849 33.2313L94.9849 33.2313L94.9849 33.2313L94.9849 33.2312L94.9849 33.2312L94.9849 33.2312L94.9849 33.2311L94.9849 33.2311L94.9849 33.2311L94.9849 33.2311L94.9849 33.231L94.9849 33.231L94.9849 33.231L94.9849 33.2309L94.9849 33.2309L94.9848 33.2309L94.9848 33.2308L94.9848 33.2308L94.9848 33.2308L94.9848 33.2307L94.9848 33.2307L94.9848 33.2307L94.9848 33.2306L94.9848 33.2306L94.9848 33.2306L94.9848 33.2305L94.9848 33.2305L94.9848 33.2305L94.9848 33.2304L94.9848 33.2304L94.9848 33.2304L94.9848 33.2303L94.9848 33.2303L94.9848 33.2303L94.9848 33.2302L94.9848 33.2302L94.9848 33.2302L94.9848 33.2301L94.9848 33.2301L94.9848 33.23L94.9848 33.23L94.9847 33.23L94.9847 33.2299L94.9847 33.2299L94.9847 33.2299L94.9847 33.2298L94.9847 33.2298L94.9847 33.2297L94.9847 33.2297L94.9847 33.2297L94.9847 33.2296L94.9847 33.2296L94.9847 33.2296L94.9847 33.2295L94.9847 33.2295L94.9847 33.2294L94.9847 33.2294L94.9847 33.2294L94.9847 33.2293L94.9847 33.2293L94.9847 33.2292L94.9847 33.2292L94.9847 33.2292L94.9846 33.2291L94.9846 33.2291L94.9846 33.229L94.9846 33.229L94.9846 33.229L94.9846 33.2289L94.9846 33.2289L94.9846 33.2288L94.9846 33.2288L94.9846 33.2288L94.9846 33.2287L94.9846 33.2287L94.9846 33.2286L94.9846 33.2286L94.9846 33.2285L94.9846 33.2285L94.9846 33.2285L94.9846 33.2284L94.9846 33.2284L94.9846 33.2283L94.9846 33.2283L94.9845 33.2282L94.9845 33.2282L94.9845 33.2281L94.9845 33.2281L94.9845 33.2281L94.9845 33.228L94.9845 33.228L94.9845 33.2279L94.9845 33.2279L94.9845 33.2278L94.9845 33.2278L94.9845 33.2277L94.9845 33.2277L94.9845 33.2276L94.9845 33.2276L94.9845 33.2276L94.9845 33.2275L94.9845 33.2275L94.9845 33.2274L94.9845 33.2274L94.9844 33.2273L94.9844 33.2273L94.9844 33.2272L94.9844 33.2272L94.9844 33.2271L94.9844 33.2271L94.9844 33.227L94.9844 33.227L94.9844 33.2269L94.9844 33.2269L94.9844 33.2268C94.9255 32.7108 95.2282 32.0745 95.9648 31.9904L111.295 30.2405C111.845 30.1777 112.454 30.5728 112.528 31.2156L112.529 31.2241L113.781 42.1972L113.782 42.2057C113.845 42.7562 113.443 43.3603 112.801 43.4336L97.4708 45.1836Z" fill="#75FEFA" stroke="#75FEFA" stroke-width="0.4"/>
<path d="M131.549 32.3682C131.023 32.4282 130.377 32.1233 130.292 31.3823C130.224 30.7807 129.672 30.3487 129.066 30.418L120.149 31.4359C119.542 31.5051 119.102 32.0503 119.171 32.6519C119.235 33.2124 118.825 33.8206 118.169 33.8955C117.563 33.9647 117.122 34.5099 117.191 35.1115L118.197 43.9227C118.266 44.5243 118.817 44.9563 119.424 44.8871C120.03 44.8178 120.47 44.2727 120.401 43.6711L119.395 34.8514L119.394 34.8436C119.344 34.3329 119.653 33.6926 120.397 33.6078L129.314 32.5899C129.883 32.5248 130.496 32.9301 130.57 33.5757L131.577 42.3954C131.646 42.997 132.197 43.4289 132.803 43.3597C133.41 43.2905 133.85 42.7453 133.781 42.1437L132.775 33.324C132.706 32.7215 132.154 32.2991 131.549 32.3682Z" fill="#75FEFA" stroke="#75FEFA" stroke-width="0.4"/>
<path d="M26.9052 39.9064L26.9038 39.9066C26.3168 39.9829 25.8864 40.5256 25.9546 41.1235L27.2066 52.0912C27.2749 52.6893 27.8171 53.1215 28.4145 53.0533C28.9211 52.9955 29.5551 53.2911 29.6465 54.0199L29.6465 54.0199L29.6465 54.0199L29.6465 54.02L29.6465 54.02L29.6465 54.0201L29.6465 54.0201L29.6465 54.0202L29.6465 54.0202L29.6465 54.0203L29.6465 54.0203L29.6465 54.0204L29.6465 54.0204L29.6465 54.0204L29.6466 54.0205L29.6466 54.0205L29.6466 54.0206L29.6466 54.0206L29.6466 54.0207L29.6466 54.0207L29.6466 54.0208L29.6466 54.0208L29.6466 54.0208L29.6466 54.0209L29.6466 54.0209L29.6466 54.021L29.6466 54.021L29.6466 54.0211L29.6466 54.0211L29.6466 54.0211L29.6466 54.0212L29.6466 54.0212L29.6466 54.0213L29.6466 54.0213L29.6467 54.0214L29.6467 54.0214L29.6467 54.0214L29.6467 54.0215L29.6467 54.0215L29.6467 54.0216L29.6467 54.0216L29.6467 54.0217L29.6467 54.0217L29.6467 54.0217L29.6467 54.0218L29.6467 54.0218L29.6467 54.0219L29.6467 54.0219L29.6467 54.0219L29.6467 54.022L29.6467 54.022L29.6467 54.022L29.6467 54.0221L29.6467 54.0221L29.6467 54.0222L29.6467 54.0222L29.6468 54.0223L29.6468 54.0223L29.6468 54.0223L29.6468 54.0224L29.6468 54.0224L29.6468 54.0224L29.6468 54.0225L29.6468 54.0225L29.6468 54.0225L29.6468 54.0226L29.6468 54.0226L29.6468 54.0227L29.6468 54.0227L29.6468 54.0227L29.6468 54.0228L29.6468 54.0228L29.6468 54.0229L29.6468 54.0229L29.6468 54.0229L29.6468 54.023L29.6468 54.023L29.6468 54.023L29.6468 54.0231L29.6469 54.0231L29.6469 54.0231L29.6469 54.0232L29.6469 54.0232L29.6469 54.0232L29.6469 54.0233L29.6469 54.0233L29.6469 54.0233L29.6469 54.0234L29.6469 54.0234L29.6469 54.0235L29.6469 54.0235L29.6469 54.0235L29.6469 54.0236L29.6469 54.0236L29.6469 54.0236L29.6469 54.0237L29.6469 54.0237L29.6469 54.0237L29.6469 54.0238L29.6469 54.0238L29.6469 54.0238L29.6469 54.0238L29.6469 54.0239L29.6469 54.0239L29.6469 54.0239L29.647 54.024L29.647 54.024L29.647 54.0241L29.647 54.0241L29.647 54.0241L29.647 54.0241L29.647 54.0242L29.647 54.0242L29.647 54.0242L29.647 54.0243L29.647 54.0243L29.647 54.0243L29.647 54.0244L29.647 54.0244L29.647 54.0244L29.647 54.0245L29.647 54.0245L29.647 54.0245L29.647 54.0245L29.647 54.0246L29.647 54.0246L29.647 54.0246L29.647 54.0247L29.647 54.0247L29.647 54.0247L29.647 54.0248L29.647 54.0248L29.647 54.0248L29.6471 54.0249L29.6471 54.0249L29.6471 54.0249L29.6471 54.0249L29.6471 54.025L29.6471 54.025L29.6471 54.025L29.6471 54.0251L29.6471 54.0251L29.6471 54.0251L29.6471 54.0251L29.6471 54.0252L29.6471 54.0252L29.6471 54.0252L29.6471 54.0253L29.6471 54.0253L29.6471 54.0253L29.6471 54.0254L29.6471 54.0254L29.6471 54.0254L29.6471 54.0254L29.6471 54.0255L29.6471 54.0255L29.6471 54.0255L29.6471 54.0255L29.6471 54.0256L29.6471 54.0256L29.6471 54.0256L29.6471 54.0257L29.6471 54.0257L29.6472 54.0257L29.6472 54.0257L29.6472 54.0258L29.6472 54.0258L29.6472 54.0258L29.6472 54.0259L29.6472 54.0259L29.6472 54.0259L29.6472 54.0259L29.6472 54.026L29.6472 54.026L29.6472 54.026L29.6472 54.026L29.6472 54.0261L29.6472 54.0261L29.6472 54.0261L29.6472 54.0261L29.6472 54.0262L29.6472 54.0262L29.6472 54.0262L29.6472 54.0262L29.6472 54.0263L29.6472 54.0263L29.6472 54.0263L29.6472 54.0263L29.6472 54.0264L29.6472 54.0264L29.6472 54.0264L29.6472 54.0265L29.6472 54.0265L29.6472 54.0265L29.6472 54.0265L29.6472 54.0266L29.6472 54.0266L29.6473 54.0266L29.6473 54.0266L29.6473 54.0267L29.6473 54.0267L29.6473 54.0267L29.6473 54.0267L29.6473 54.0268L29.6473 54.0268L29.6473 54.0268L29.6473 54.0268L29.6473 54.0269L29.6473 54.0269L29.6473 54.0269L29.6473 54.0269L29.6473 54.027L29.6473 54.027L29.6473 54.027L29.6473 54.0271L29.6473 54.0271L29.6473 54.0271L29.6473 54.0271L29.6473 54.0272L29.6473 54.0272L29.6473 54.0272L29.6473 54.0272L29.6473 54.0273L29.6473 54.0273L29.6473 54.0273L29.6473 54.0273L29.6473 54.0273L29.6473 54.0274L29.6473 54.0274L29.6473 54.0274L29.6473 54.0274L29.6474 54.0275L29.6474 54.0275L29.6474 54.0275L29.6474 54.0275L29.6474 54.0276L29.6474 54.0276L29.6474 54.0276L29.6474 54.0276L29.6474 54.0277L29.6474 54.0277L29.6474 54.0277L29.6474 54.0278L29.6474 54.0278L29.6474 54.0278L29.6474 54.0278L29.6474 54.0278L29.6474 54.0279L29.6474 54.0279L29.6474 54.0279L29.6474 54.0279L29.6474 54.028L29.6474 54.028L29.6474 54.028L29.6474 54.028L29.6474 54.0281L29.6474 54.0281L29.6474 54.0281L29.6474 54.0281L29.6474 54.0282L29.6474 54.0282L29.6474 54.0282L29.6474 54.0282L29.6474 54.0283L29.6474 54.0283L29.6474 54.0283L29.6474 54.0283L29.6475 54.0284L29.6475 54.0284L29.6475 54.0284L29.6475 54.0284L29.6475 54.0285L29.6475 54.0285L29.6475 54.0285L29.6475 54.0285L29.6475 54.0286L29.6475 54.0286L29.6475 54.0286L29.6475 54.0286L29.6475 54.0287L29.6475 54.0287L29.6475 54.0287L29.6475 54.0287L29.6475 54.0288L29.6475 54.0288L29.6475 54.0288L29.6475 54.0288L29.6475 54.0289L29.6475 54.0289L29.6475 54.0289L29.6475 54.029L29.6475 54.029L29.6475 54.029L29.6475 54.029L29.6475 54.0291L29.6475 54.0291L29.6475 54.0291L29.6475 54.0291L29.6475 54.0292L29.6475 54.0292L29.6475 54.0292L29.6476 54.0292L29.6476 54.0293L29.6476 54.0293L29.6476 54.0293L29.6476 54.0293L29.6476 54.0294L29.6476 54.0294L29.6476 54.0294L29.6476 54.0294L29.6476 54.0295L29.6476 54.0295L29.6476 54.0295L29.6476 54.0296L29.6476 54.0296L29.6476 54.0296L29.6476 54.0296L29.6476 54.0297L29.6476 54.0297L29.6476 54.0297L29.6476 54.0297L29.6476 54.0298L29.6476 54.0298L29.6476 54.0298L29.6476 54.0298L29.6476 54.0299L29.6476 54.0299L29.6476 54.0299L29.6476 54.0299L29.6476 54.03L29.6476 54.03L29.6476 54.03L29.6476 54.0301L29.6476 54.0301L29.6477 54.0301L29.6477 54.0301L29.6477 54.0302L29.6477 54.0302L29.6477 54.0302L29.6477 54.0303L29.6477 54.0303L29.6477 54.0303L29.6477 54.0303L29.6477 54.0304L29.6477 54.0304L29.6477 54.0304L29.6477 54.0305L29.6477 54.0305L29.6477 54.0305L29.6477 54.0305L29.6477 54.0306L29.6477 54.0306L29.6477 54.0306L29.6477 54.0306L29.6477 54.0307L29.6477 54.0307L29.6477 54.0307L29.6477 54.0308L29.6477 54.0308L29.6477 54.0308L29.6477 54.0309L29.6477 54.0309L29.6477 54.0309L29.6477 54.031L29.6478 54.031L29.6478 54.031L29.6478 54.031L29.6478 54.0311L29.6478 54.0311L29.6478 54.0311L29.6478 54.0312L29.6478 54.0312L29.6478 54.0312L29.6478 54.0312L29.6478 54.0313L29.6478 54.0313L29.6478 54.0314L29.6478 54.0314L29.6478 54.0314L29.6478 54.0314L29.6478 54.0315L29.6478 54.0315L29.6478 54.0315L29.6478 54.0316L29.6478 54.0316L29.6478 54.0316L29.6478 54.0317L29.6478 54.0317L29.6478 54.0317L29.6478 54.0318L29.6478 54.0318L29.6478 54.0318L29.6479 54.0319L29.6479 54.0319L29.6479 54.0319L29.6479 54.0319L29.6479 54.032L29.6479 54.032L29.6479 54.0321L29.6479 54.0321L29.6479 54.0321L29.6479 54.0322L29.6479 54.0322L29.6479 54.0322L29.6479 54.0323L29.6479 54.0323L29.6479 54.0323L29.6479 54.0324L29.6479 54.0324L29.6479 54.0324L29.6479 54.0325L29.6479 54.0325L29.6479 54.0325L29.6479 54.0326L29.6479 54.0326L29.6479 54.0326L29.6479 54.0327L29.6479 54.0327L29.648 54.0328L29.648 54.0328L29.648 54.0328L29.648 54.0329L29.648 54.0329L29.648 54.0329L29.648 54.033L29.648 54.033L29.648 54.033L29.648 54.0331L29.648 54.0331L29.648 54.0331L29.648 54.0332L29.648 54.0332L29.648 54.0333L29.648 54.0333L29.648 54.0333L29.648 54.0334L29.648 54.0334L29.648 54.0335L29.648 54.0335L29.648 54.0335L29.648 54.0336L29.6481 54.0336L29.6481 54.0336L29.6481 54.0337L29.6481 54.0337L29.6481 54.0338L29.6481 54.0338L29.6481 54.0339L29.6481 54.0339L29.6481 54.0339L29.6481 54.034L29.6481 54.034L29.6481 54.0341L29.6481 54.0341L29.6481 54.0341L29.6481 54.0342L29.6481 54.0342L29.6481 54.0343L29.6481 54.0343L29.6481 54.0343L29.6481 54.0344L29.6481 54.0344L29.6481 54.0345L29.6482 54.0345L29.6482 54.0346L29.6482 54.0346L29.6482 54.0346L29.6482 54.0347L29.6482 54.0347L29.6482 54.0348L29.6482 54.0348L29.6482 54.0348L29.6482 54.0349L29.6482 54.0349L29.6482 54.035L29.6482 54.035L29.6482 54.0351L29.6482 54.0351L29.6482 54.0352L29.6482 54.0352L29.6482 54.0353L29.6482 54.0353L29.6482 54.0353L29.6483 54.0354L29.6483 54.0354L29.6483 54.0355L29.6483 54.0355L29.6483 54.0356L29.6483 54.0356L29.6483 54.0357L29.6483 54.0357L29.6483 54.0358L29.6483 54.0358L29.6483 54.0359L29.6483 54.0359L29.6483 54.036L29.6483 54.036L29.6483 54.036L29.6483 54.0361L29.6483 54.0361L29.6483 54.0362L29.6484 54.0362L29.6484 54.0363L29.6484 54.0364C29.7166 54.6344 30.2589 55.0666 30.8563 54.9984L46.186 53.2485C46.7834 53.1803 47.2144 52.637 47.1461 52.0389C47.0872 51.5232 47.39 50.8872 48.1266 50.8031C48.7241 50.7349 49.1549 50.1917 49.0866 49.5936C49.0184 48.9955 48.4762 48.5633 47.8787 48.6315C47.2813 48.6997 46.8505 49.243 46.9188 49.841L46.9197 49.8488C46.9745 50.4018 46.5793 51.0037 45.9381 51.0769L30.6084 52.8268C30.0508 52.8905 29.448 52.4874 29.3745 51.8438L28.1225 40.876L28.1225 40.876L28.1225 40.876L28.1225 40.876L28.1225 40.876L28.1225 40.8759L28.1225 40.8759L28.1225 40.8759L28.1225 40.8759L28.1225 40.8759L28.1225 40.8759L28.1225 40.8758L28.1225 40.8758L28.1225 40.8758L28.1225 40.8758L28.1225 40.8758L28.1225 40.8758L28.1225 40.8757L28.1225 40.8757L28.1225 40.8757L28.1225 40.8757L28.1225 40.8757L28.1225 40.8757L28.1225 40.8756L28.1225 40.8756L28.1225 40.8756L28.1224 40.8756L28.1224 40.8756L28.1224 40.8756L28.1224 40.8755L28.1224 40.8755L28.1224 40.8755L28.1224 40.8755L28.1224 40.8755L28.1224 40.8754L28.1224 40.8754L28.1224 40.8754L28.1224 40.8754L28.1224 40.8754L28.1224 40.8754L28.1224 40.8753L28.1224 40.8753L28.1224 40.8753L28.1224 40.8753L28.1224 40.8753L28.1224 40.8753L28.1224 40.8752L28.1224 40.8752L28.1224 40.8752L28.1224 40.8752L28.1224 40.8752L28.1224 40.8752L28.1224 40.8751L28.1224 40.8751L28.1224 40.8751L28.1224 40.8751L28.1224 40.8751L28.1224 40.8751L28.1224 40.875L28.1224 40.875L28.1224 40.875L28.1224 40.875L28.1224 40.875L28.1224 40.875L28.1224 40.8749L28.1224 40.8749L28.1224 40.8749L28.1224 40.8749L28.1224 40.8749L28.1224 40.8748L28.1224 40.8748L28.1224 40.8748L28.1224 40.8748L28.1224 40.8748L28.1224 40.8748L28.1224 40.8747L28.1224 40.8747L28.1223 40.8747L28.1223 40.8747L28.1223 40.8747L28.1223 40.8747L28.1223 40.8746L28.1223 40.8746L28.1223 40.8746L28.1223 40.8746L28.1223 40.8746L28.1223 40.8746L28.1223 40.8745L28.1223 40.8745L28.1223 40.8745L28.1223 40.8745L28.1223 40.8745L28.1223 40.8745L28.1223 40.8744L28.1223 40.8744L28.1223 40.8744L28.1223 40.8744L28.1223 40.8744L28.1223 40.8744L28.1223 40.8743L28.1223 40.8743L28.1223 40.8743L28.1223 40.8743L28.1223 40.8743L28.1223 40.8743L28.1223 40.8742L28.1223 40.8742L28.1223 40.8742L28.1223 40.8742L28.1223 40.8742L28.1223 40.8741L28.1223 40.8741L28.1223 40.8741L28.1223 40.8741L28.1223 40.8741L28.1223 40.8741L28.1223 40.874L28.1223 40.874L28.1223 40.874L28.1223 40.874L28.1223 40.874L28.1223 40.8739L28.1223 40.8739L28.1223 40.8739L28.1223 40.8739L28.1223 40.8739L28.1222 40.8738L28.1222 40.8738L28.1222 40.8738L28.1222 40.8738L28.1222 40.8738L28.1222 40.8737L28.1222 40.8737L28.1222 40.8737L28.1222 40.8737L28.1222 40.8737L28.1222 40.8736L28.1222 40.8736L28.1222 40.8736L28.1222 40.8736L28.1222 40.8735L28.1222 40.8735L28.1222 40.8735L28.1222 40.8735L28.1222 40.8735L28.1222 40.8734L28.1222 40.8734L28.1222 40.8734L28.1222 40.8734L28.1222 40.8733L28.1222 40.8733L28.1222 40.8733L28.1222 40.8733L28.1222 40.8733L28.1222 40.8732L28.1222 40.8732L28.1222 40.8732L28.1222 40.8732L28.1222 40.8731L28.1222 40.8731L28.1222 40.8731L28.1222 40.8731L28.1222 40.873L28.1222 40.873L28.1222 40.873L28.1221 40.873L28.1221 40.8729L28.1221 40.8729L28.1221 40.8729L28.1221 40.8729L28.1221 40.8728L28.1221 40.8728L28.1221 40.8728L28.1221 40.8728L28.1221 40.8727L28.1221 40.8727L28.1221 40.8727L28.1221 40.8726L28.1221 40.8726L28.1221 40.8726L28.1221 40.8726L28.1221 40.8725L28.1221 40.8725L28.1221 40.8725L28.1221 40.8725L28.1221 40.8724L28.1221 40.8724L28.1221 40.8724L28.1221 40.8723L28.1221 40.8723L28.1221 40.8723L28.1221 40.8723L28.1221 40.8722L28.1221 40.8722L28.1221 40.8722L28.1221 40.8721L28.1221 40.8721L28.122 40.8721L28.122 40.8721L28.122 40.872L28.122 40.872L28.122 40.872L28.122 40.8719L28.122 40.8719L28.122 40.8719L28.122 40.8718L28.122 40.8718L28.122 40.8718L28.122 40.8717L28.122 40.8717L28.122 40.8717L28.122 40.8716L28.122 40.8716L28.122 40.8716L28.122 40.8715L28.122 40.8715L28.122 40.8715L28.122 40.8715L28.122 40.8714L28.122 40.8714L28.122 40.8714L28.122 40.8713L28.122 40.8713L28.122 40.8713L28.1219 40.8712L28.1219 40.8712L28.1219 40.8711L28.1219 40.8711L28.1219 40.8711L28.1219 40.871L28.1219 40.871L28.1219 40.871L28.1219 40.8709L28.1219 40.8709L28.1219 40.8709L28.1219 40.8708L28.1219 40.8708L28.1219 40.8708L28.1219 40.8707L28.1219 40.8707L28.1219 40.8707L28.1219 40.8706L28.1219 40.8706L28.1219 40.8705L28.1219 40.8705L28.1219 40.8705L28.1219 40.8704L28.1219 40.8704L28.1218 40.8703L28.1218 40.8703L28.1218 40.8703L28.1218 40.8702L28.1218 40.8702L28.1218 40.8702L28.1218 40.8701L28.1218 40.8701L28.1218 40.87L28.1218 40.87L28.1218 40.87L28.1218 40.8699L28.1218 40.8699L28.1218 40.8698L28.1218 40.8698L28.1218 40.8698L28.1218 40.8697L28.1218 40.8697L28.1218 40.8696L28.1218 40.8696L28.1218 40.8696L28.1218 40.8695L28.1218 40.8695L28.1217 40.8694L28.1217 40.8694L28.1217 40.8694L28.1217 40.8693L28.1217 40.8693L28.1217 40.8692L28.1217 40.8692L28.1217 40.8691L28.1217 40.8691L28.1217 40.869L28.1217 40.869L28.1217 40.869L28.1217 40.8689L28.1217 40.8689L28.1217 40.8688L28.1217 40.8688L28.1217 40.8687L28.1217 40.8687L28.1217 40.8686L28.1217 40.8686L28.1216 40.8686L28.1216 40.8685L28.1216 40.8685L28.1216 40.8684L28.1216 40.8684L28.1216 40.8683L28.1216 40.8683L28.1216 40.8682L28.1216 40.8682L28.1216 40.8681L28.1216 40.8681L28.1216 40.868L28.1216 40.868L28.1216 40.8679L28.1216 40.8679L28.1216 40.8678L28.1216 40.8678L28.1216 40.8678L28.1215 40.8677L28.1215 40.8677L28.1215 40.8676L28.1215 40.8676C28.0627 40.3518 28.3654 39.7158 29.1021 39.6317L44.4319 37.8818C44.9461 37.8231 45.5812 38.1262 45.6658 38.8642C45.7262 39.4732 46.2687 39.896 46.8652 39.8279C47.4625 39.7597 47.8935 39.2164 47.8253 38.6183C47.757 38.0202 47.2147 37.5881 46.6173 37.6563C46.0597 37.7199 45.4568 37.3168 45.3834 36.6732C45.3151 36.0751 44.7729 35.643 44.1756 35.7112L28.8458 37.4611C28.2484 37.5293 27.8175 38.0725 27.8858 38.6706C27.9496 39.2296 27.5472 39.8332 26.9052 39.9064Z" fill="#75FEFA" stroke="#75FEFA" stroke-width="0.4"/>
<path d="M136.781 29.5381L136.696 29.5479L136.705 29.6335L136.938 31.6753L136.948 31.761L137.034 31.7512L147.285 30.581L147.371 30.5712L147.361 30.4855L147.128 28.4437L147.118 28.358L147.033 28.3678L136.781 29.5381Z" fill="#75FEFA" stroke="#75FEFA" stroke-width="0.4"/>
<path d="M150.237 34.5534L150.323 34.5436L150.313 34.458L149.886 30.7144L149.876 30.6288L149.79 30.6386L147.789 30.867L147.703 30.8768L147.713 30.9625L147.909 32.6787L136.855 33.9405L136.659 32.2243L136.649 32.1387L136.563 32.1485L134.562 32.3769L134.476 32.3867L134.486 32.4724L135.399 40.4695L135.409 40.5552L135.494 40.5454L137.496 40.3169L137.582 40.3072L137.572 40.2215L137.096 36.0535L148.236 34.7819L149.232 34.6681L150.237 34.5534Z" fill="#75FEFA" stroke="#75FEFA" stroke-width="0.4"/>
<path d="M137.998 40.6016L137.912 40.6113L137.922 40.697L138.145 42.6537L138.155 42.7393L138.241 42.7295L148.535 41.5544L148.621 41.5446L148.611 41.459L148.388 39.5023L148.378 39.4167L148.292 39.4264L137.998 40.6016Z" fill="#75FEFA" stroke="#75FEFA" stroke-width="0.4"/>
<path d="M150.606 37.0097L150.597 36.9241L150.511 36.9338L148.554 37.1572L148.469 37.167L148.478 37.2526L148.574 38.089L148.574 38.089L148.574 38.0891L148.574 38.0891L148.574 38.0892L148.574 38.0892L148.574 38.0892L148.574 38.0893L148.574 38.0893L148.574 38.0894L148.574 38.0894L148.574 38.0894L148.574 38.0895L148.574 38.0895L148.574 38.0896L148.574 38.0896L148.574 38.0896L148.574 38.0897L148.574 38.0897L148.574 38.0898L148.574 38.0898L148.574 38.0898L148.574 38.0899L148.574 38.0899L148.574 38.09L148.574 38.09L148.574 38.09L148.574 38.0901L148.574 38.0901L148.574 38.0901L148.574 38.0902L148.574 38.0902L148.574 38.0903L148.574 38.0903L148.574 38.0903L148.574 38.0904L148.574 38.0904L148.574 38.0905L148.574 38.0905L148.574 38.0905L148.574 38.0906L148.574 38.0906L148.574 38.0906L148.574 38.0907L148.574 38.0907L148.574 38.0907L148.574 38.0908L148.574 38.0908L148.574 38.0908L148.574 38.0909L148.574 38.0909L148.574 38.0909L148.574 38.091L148.574 38.091L148.574 38.0911L148.574 38.0911L148.574 38.0911L148.574 38.0912L148.574 38.0912L148.574 38.0912L148.574 38.0913L148.574 38.0913L148.574 38.0913L148.574 38.0913L148.574 38.0914L148.574 38.0914L148.574 38.0914L148.574 38.0915L148.574 38.0915L148.574 38.0915L148.574 38.0916L148.574 38.0916L148.574 38.0916L148.574 38.0917L148.574 38.0917L148.574 38.0917L148.574 38.0918L148.574 38.0918L148.574 38.0918L148.574 38.0919L148.574 38.0919L148.574 38.0919L148.574 38.092L148.574 38.092L148.574 38.092L148.574 38.092L148.574 38.0921L148.574 38.0921L148.574 38.0921L148.574 38.0922L148.574 38.0922L148.574 38.0922L148.574 38.0923L148.574 38.0923L148.574 38.0923L148.574 38.0924L148.574 38.0924L148.574 38.0924L148.574 38.0924L148.574 38.0925L148.574 38.0925L148.574 38.0925L148.574 38.0926L148.574 38.0926L148.574 38.0926L148.574 38.0926L148.574 38.0927L148.574 38.0927L148.574 38.0927L148.574 38.0927L148.574 38.0928L148.574 38.0928L148.574 38.0928L148.574 38.0929L148.574 38.0929L148.574 38.0929L148.574 38.093L148.574 38.093L148.574 38.093L148.574 38.093L148.574 38.0931L148.574 38.0931L148.574 38.0931L148.574 38.0931L148.574 38.0932L148.574 38.0932L148.574 38.0932L148.574 38.0932L148.574 38.0933L148.574 38.0933L148.574 38.0933L148.574 38.0933L148.574 38.0934L148.574 38.0934L148.574 38.0934L148.574 38.0934L148.574 38.0935L148.574 38.0935L148.574 38.0935L148.574 38.0936L148.574 38.0936L148.574 38.0936L148.574 38.0936L148.574 38.0937L148.574 38.0937L148.574 38.0937L148.574 38.0937L148.574 38.0938L148.574 38.0938L148.574 38.0938L148.574 38.0938L148.574 38.0939L148.574 38.0939L148.574 38.0939L148.574 38.0939L148.574 38.0939L148.574 38.094L148.574 38.094L148.574 38.094L148.574 38.094L148.574 38.0941L148.574 38.0941L148.574 38.0941L148.574 38.0942L148.574 38.0942L148.574 38.0942L148.574 38.0942L148.574 38.0942L148.574 38.0943L148.574 38.0943L148.574 38.0943L148.574 38.0943L148.574 38.0944L148.574 38.0944L148.574 38.0944L148.574 38.0944L148.574 38.0945L148.574 38.0945L148.574 38.0945L148.574 38.0945L148.574 38.0945L148.574 38.0946L148.574 38.0946L148.574 38.0946L148.574 38.0946L148.574 38.0947L148.574 38.0947L148.574 38.0947L148.574 38.0947L148.574 38.0948L148.574 38.0948L148.574 38.0948L148.574 38.0948L148.574 38.0948L148.574 38.0949L148.574 38.0949L148.574 38.0949L148.574 38.0949L148.574 38.095L148.574 38.095L148.574 38.095L148.574 38.095L148.574 38.095L148.574 38.0951L148.574 38.0951L148.574 38.0951L148.574 38.0951L148.574 38.0951L148.574 38.0952L148.574 38.0952L148.574 38.0952L148.574 38.0952L148.574 38.0953L148.574 38.0953L148.574 38.0953L148.574 38.0953L148.574 38.0954L148.574 38.0954L148.574 38.0954L148.574 38.0954L148.574 38.0954L148.574 38.0955L148.574 38.0955L148.574 38.0955L148.574 38.0955L148.575 38.0955L148.575 38.0956L148.575 38.0956L148.575 38.0956L148.575 38.0956L148.575 38.0956L148.575 38.0957L148.575 38.0957L148.575 38.0957L148.575 38.0957L148.575 38.0958L148.575 38.0958L148.575 38.0958L148.575 38.0958L148.575 38.0958L148.575 38.0959L148.575 38.0959L148.575 38.0959L148.575 38.0959L148.575 38.096L148.575 38.096L148.575 38.096L148.575 38.096L148.575 38.096L148.575 38.0961L148.575 38.0961L148.575 38.0961L148.575 38.0961L148.575 38.0961L148.575 38.0962L148.575 38.0962L148.575 38.0962L148.575 38.0962L148.575 38.0962L148.575 38.0963L148.575 38.0963L148.575 38.0963L148.575 38.0963L148.575 38.0963L148.575 38.0964L148.575 38.0964L148.575 38.0964L148.575 38.0964L148.575 38.0964L148.575 38.0965L148.575 38.0965L148.575 38.0965L148.575 38.0965L148.575 38.0966L148.575 38.0966L148.575 38.0966L148.575 38.0966L148.575 38.0966L148.575 38.0967L148.575 38.0967L148.575 38.0967L148.575 38.0967L148.575 38.0968L148.575 38.0968L148.575 38.0968L148.575 38.0968L148.575 38.0968L148.575 38.0969L148.575 38.0969L148.575 38.0969L148.575 38.0969L148.575 38.0969L148.575 38.097L148.575 38.097L148.575 38.097L148.575 38.097L148.575 38.097L148.575 38.0971L148.575 38.0971L148.575 38.0971L148.575 38.0971L148.575 38.0972L148.575 38.0972L148.575 38.0972L148.575 38.0972L148.575 38.0973L148.575 38.0973L148.575 38.0973L148.575 38.0973L148.575 38.0973L148.575 38.0974L148.575 38.0974L148.575 38.0974L148.575 38.0974L148.575 38.0974L148.575 38.0975L148.575 38.0975L148.575 38.0975L148.575 38.0975L148.575 38.0976L148.575 38.0976L148.575 38.0976L148.575 38.0976L148.575 38.0976L148.575 38.0977L148.575 38.0977L148.575 38.0977L148.575 38.0977L148.575 38.0978L148.575 38.0978L148.575 38.0978L148.575 38.0978L148.575 38.0979L148.575 38.0979L148.575 38.0979L148.575 38.0979L148.575 38.0979L148.575 38.098L148.575 38.098L148.575 38.098L148.575 38.098L148.575 38.0981L148.575 38.0981L148.575 38.0981L148.575 38.0981L148.575 38.0982L148.575 38.0982L148.575 38.0982L148.575 38.0982L148.575 38.0982L148.575 38.0983L148.575 38.0983L148.575 38.0983L148.575 38.0983L148.575 38.0984L148.575 38.0984L148.575 38.0984L148.575 38.0984L148.575 38.0985L148.575 38.0985L148.575 38.0985L148.575 38.0985L148.575 38.0986L148.575 38.0986L148.575 38.0986L148.575 38.0986L148.575 38.0987L148.575 38.0987L148.575 38.0987L148.575 38.0987L148.575 38.0988L148.575 38.0988L148.575 38.0988L148.575 38.0988L148.575 38.0989L148.575 38.0989L148.575 38.0989L148.575 38.0989L148.575 38.099L148.575 38.099L148.575 38.099L148.575 38.0991L148.575 38.0991L148.575 38.0991L148.575 38.0991L148.575 38.0992L148.575 38.0992L148.575 38.0992L148.575 38.0992L148.575 38.0993L148.575 38.0993L148.575 38.0993L148.575 38.0993L148.575 38.0994L148.575 38.0994L148.575 38.0994L148.575 38.0994L148.575 38.0995L148.575 38.0995L148.575 38.0995L148.575 38.0996L148.575 38.0996L148.575 38.0996L148.575 38.0997L148.575 38.0997L148.575 38.0997L148.575 38.0997L148.575 38.0998L148.575 38.0998L148.575 38.0998L148.575 38.0998L148.575 38.0999L148.575 38.0999L148.575 38.0999L148.575 38.1L148.575 38.1L148.575 38.1L148.575 38.1L148.575 38.1001L148.575 38.1001L148.575 38.1001L148.575 38.1002L148.575 38.1002L148.575 38.1002L148.575 38.1003L148.575 38.1003L148.575 38.1003L148.575 38.1004L148.575 38.1004L148.575 38.1004L148.575 38.1004L148.575 38.1005L148.575 38.1005L148.575 38.1005L148.575 38.1006L148.575 38.1006L148.575 38.1006L148.575 38.1007L148.575 38.1007L148.575 38.1007L148.575 38.1007L148.575 38.1008L148.575 38.1008L148.575 38.1009L148.575 38.1009L148.575 38.1009L148.575 38.101L148.575 38.101L148.575 38.101L148.575 38.1011L148.575 38.1011L148.575 38.1011L148.575 38.1011L148.575 38.1012L148.575 38.1012L148.575 38.1012L148.575 38.1013L148.575 38.1013L148.575 38.1013L148.575 38.1014L148.575 38.1014L148.575 38.1015L148.575 38.1015L148.575 38.1015L148.575 38.1016L148.575 38.1016L148.575 38.1016L148.575 38.1017L148.575 38.1017L148.575 38.1017L148.575 38.1018L148.575 38.1018L148.575 38.1018L148.575 38.1019L148.575 38.1019L148.575 38.1019L148.575 38.102L148.575 38.102L148.575 38.1021L148.575 38.1021L148.575 38.1021L148.575 38.1022L148.575 38.1022L148.575 38.1023L148.575 38.1023L148.575 38.1023L148.575 38.1024L148.575 38.1024L148.575 38.1024L148.575 38.1025L148.575 38.1025L148.575 38.1026L148.575 38.1026L148.575 38.1026L148.575 38.1027L148.575 38.1027L148.575 38.1028L148.575 38.1028L148.575 38.1028L148.575 38.1029L148.575 38.1029L148.575 38.103L148.575 38.103L148.575 38.103L148.575 38.1031L148.575 38.1031L148.575 38.1032L148.575 38.1032L148.575 38.1032L148.575 38.1033L148.575 38.1033L148.575 38.1034L148.575 38.1034L148.575 38.1035L148.575 38.1035L148.575 38.1035L148.575 38.1036L148.575 38.1036L148.575 38.1037L148.575 38.1037L148.575 38.1037L148.575 38.1038L148.575 38.1038L148.575 38.1039L148.575 38.1039L148.575 38.104L148.575 38.104L148.575 38.104L148.575 38.1041L148.575 38.1041L148.575 38.1041L148.575 38.1042L148.575 38.1042L148.575 38.1043L148.576 38.1043L148.576 38.1043L148.576 38.1044L148.576 38.1044L148.576 38.1044L148.576 38.1045L148.576 38.1045L148.576 38.1046L148.576 38.1046L148.576 38.1046L148.576 38.1047L148.576 38.1047L148.576 38.1048L148.576 38.1048L148.576 38.1048L148.576 38.1049L148.576 38.1049L148.576 38.1049L148.576 38.105L148.576 38.105L148.576 38.105L148.576 38.1051L148.576 38.1051L148.576 38.1052L148.576 38.1052L148.576 38.1052L148.576 38.1053L148.576 38.1053L148.576 38.1053L148.576 38.1054L148.576 38.1054L148.576 38.1054L148.576 38.1055L148.576 38.1055L148.576 38.1055L148.576 38.1056L148.576 38.1056L148.576 38.1056L148.576 38.1057L148.576 38.1057L148.576 38.1057L148.576 38.1058L148.576 38.1058L148.576 38.1058L148.576 38.1059L148.576 38.1059L148.576 38.1059L148.576 38.106L148.576 38.106L148.576 38.106L148.576 38.1061L148.576 38.1061L148.576 38.1061L148.576 38.1062L148.576 38.1062L148.576 38.1062L148.576 38.1062L148.576 38.1063L148.576 38.1063L148.576 38.1063L148.576 38.1064L148.576 38.1064L148.576 38.1064L148.576 38.1065L148.576 38.1065L148.576 38.1065L148.576 38.1066L148.576 38.1066L148.576 38.1066L148.576 38.1067L148.576 38.1067L148.576 38.1067L148.576 38.1067L148.576 38.1068L148.576 38.1068L148.576 38.1068L148.576 38.1069L148.576 38.1069L148.576 38.1069L148.576 38.1069L148.576 38.107L148.576 38.107L148.576 38.107L148.576 38.1071L148.576 38.1071L148.576 38.1071L148.576 38.1071L148.576 38.1072L148.576 38.1072L148.576 38.1072L148.576 38.1073L148.576 38.1073L148.576 38.1073L148.576 38.1073L148.576 38.1074L148.576 38.1074L148.576 38.1074L148.576 38.1074L148.576 38.1075L148.576 38.1075L148.576 38.1075L148.576 38.1076L148.576 38.1076L148.576 38.1076L148.576 38.1076L148.576 38.1077L148.576 38.1077L148.576 38.1077L148.576 38.1077L148.576 38.1078L148.576 38.1078L148.576 38.1078L148.576 38.1078L148.576 38.1079L148.576 38.1079L148.576 38.1079L148.576 38.1079L148.576 38.108L148.576 38.108L148.576 38.108L148.576 38.108L148.576 38.1081L148.576 38.1081L148.576 38.1081L148.576 38.1081L148.576 38.1082L148.576 38.1082L148.576 38.1082L148.576 38.1083L148.576 38.1083L148.576 38.1083L148.576 38.1083L148.576 38.1084L148.576 38.1084L148.576 38.1084L148.576 38.1084L148.576 38.1085L148.576 38.1085L148.576 38.1085L148.576 38.1085L148.576 38.1085L148.576 38.1086L148.576 38.1086L148.576 38.1086L148.576 38.1086L148.576 38.1087L148.576 38.1087L148.576 38.1087L148.576 38.1087L148.576 38.1088L148.576 38.1088L148.576 38.1088L148.576 38.1088L148.576 38.1089L148.576 38.1089L148.576 38.1089L148.576 38.1089L148.576 38.1089L148.576 38.109L148.576 38.109L148.576 38.109L148.576 38.109L148.576 38.1091L148.576 38.1091L148.576 38.1091L148.576 38.1091L148.576 38.1091L148.576 38.1092L148.576 38.1092L148.576 38.1092L148.576 38.1092L148.576 38.1093L148.576 38.1093L148.576 38.1093L148.576 38.1093L148.576 38.1093L148.576 38.1094L148.576 38.1094L148.576 38.1094L148.576 38.1094L148.576 38.1095L148.576 38.1095L148.576 38.1095L148.576 38.1095L148.576 38.1096L148.576 38.1096L148.576 38.1096L148.576 38.1096L148.576 38.1096L148.576 38.1097L148.576 38.1097L148.576 38.1097L148.576 38.1097L148.576 38.1097L148.576 38.1098L148.576 38.1098L148.576 38.1098L148.576 38.1098L148.576 38.1099L148.576 38.1099L148.576 38.1099L148.576 38.1099L148.576 38.1099L148.576 38.11L148.576 38.11L148.576 38.11L148.576 38.11L148.576 38.11L148.576 38.1101L148.576 38.1101L148.576 38.1101L148.576 38.1101L148.576 38.1102L148.576 38.1102L148.576 38.1102L148.576 38.1102L148.576 38.1102L148.576 38.1103L148.576 38.1103L148.576 38.1103L148.576 38.1103L148.576 38.1103L148.576 38.1104L148.576 38.1104L148.576 38.1104L148.576 38.1104L148.576 38.1104L148.576 38.1105L148.576 38.1105L148.576 38.1105L148.576 38.1105L148.576 38.1106L148.576 38.1106L148.576 38.1106L148.576 38.1106L148.576 38.1106L148.576 38.1107L148.576 38.1107L148.576 38.1107L148.576 38.1107L148.576 38.1108L148.576 38.1108L148.576 38.1108L148.576 38.1108L148.576 38.1108L148.576 38.1109L148.576 38.1109L148.576 38.1109L148.576 38.1109L148.576 38.1109L148.576 38.111L148.576 38.111L148.576 38.111L148.576 38.111L148.576 38.111L148.576 38.1111L148.576 38.1111L148.576 38.1111L148.576 38.1111L148.576 38.1111L148.576 38.1112L148.576 38.1112L148.576 38.1112L148.576 38.1112L148.576 38.1112L148.576 38.1113L148.576 38.1113L148.576 38.1113L148.576 38.1113L148.576 38.1114L148.576 38.1114L148.576 38.1114L148.576 38.1114L148.576 38.1115L148.576 38.1115L148.576 38.1115L148.576 38.1115L148.576 38.1115L148.576 38.1116L148.576 38.1116L148.576 38.1116L148.576 38.1116L148.576 38.1116L148.576 38.1117L148.576 38.1117L148.576 38.1117L148.576 38.1117L148.576 38.1118L148.576 38.1118L148.576 38.1118L148.576 38.1118L148.576 38.1118L148.576 38.1119L148.576 38.1119L148.576 38.1119L148.576 38.1119L148.576 38.112L148.576 38.112L148.576 38.112L148.576 38.112L148.576 38.112L148.576 38.1121L148.576 38.1121L148.576 38.1121L148.576 38.1121L148.576 38.1122L148.576 38.1122L148.576 38.1122L148.576 38.1122L148.576 38.1122L148.576 38.1123L148.576 38.1123L148.576 38.1123L148.576 38.1123L148.576 38.1124L148.576 38.1124L148.576 38.1124L148.576 38.1124L148.576 38.1125L148.576 38.1125L148.576 38.1125L148.576 38.1125L148.576 38.1126L148.576 38.1126L148.576 38.1126L148.576 38.1126L148.576 38.1127L148.576 38.1127L148.576 38.1127L148.576 38.1127L148.576 38.1127L148.576 38.1128L148.576 38.1128L148.576 38.1128L148.576 38.1128L148.576 38.1129L148.576 38.1129L148.576 38.1129L148.576 38.1129L148.576 38.113L148.576 38.113L148.576 38.113L148.576 38.113L148.577 38.1131L148.577 38.1131L148.577 38.1131L148.577 38.1131L148.577 38.1132L148.577 38.1132L148.577 38.1132L148.577 38.1132L148.577 38.1133L148.577 38.1133L148.577 38.1133L148.577 38.1133L148.577 38.1134L148.577 38.1134L148.577 38.1134L148.577 38.1134L148.577 38.1135L148.577 38.1135L148.577 38.1135L148.577 38.1135L148.577 38.1136L148.577 38.1136L148.577 38.1136L148.577 38.1136L148.577 38.1137L148.577 38.1137L148.577 38.1137L148.577 38.1138L148.577 38.1138L148.577 38.1138L148.577 38.1138L148.577 38.1139L148.577 38.1139L148.577 38.1139L148.577 38.114L148.577 38.114L148.577 38.114L148.577 38.114L148.577 38.1141L148.577 38.1141L148.577 38.1141L148.577 38.1141L148.577 38.1142L148.577 38.1142L148.577 38.1142L148.577 38.1143L148.577 38.1143L148.577 38.1143L148.577 38.1143L148.577 38.1144L148.577 38.1144L148.577 38.1144L148.577 38.1145L148.577 38.1145L148.577 38.1145L148.577 38.1146L148.577 38.1146L148.577 38.1146L148.577 38.1146L148.577 38.1147L148.577 38.1147L148.577 38.1147L148.577 38.1148L148.577 38.1148L148.577 38.1148L148.577 38.1149L148.577 38.1149L148.577 38.1149L148.577 38.1149L148.577 38.115L148.577 38.115L148.577 38.1151L148.577 38.1151L148.577 38.1151L148.577 38.1151L148.577 38.1152L148.577 38.1152L148.577 38.1152L148.577 38.1153L148.577 38.1153L148.577 38.1153L148.577 38.1154L148.577 38.1154L148.577 38.1154L148.577 38.1155L148.577 38.1155L148.577 38.1155L148.577 38.1156L148.577 38.1156L148.577 38.1156L148.577 38.1157L148.577 38.1157L148.577 38.1157L148.577 38.1158L148.577 38.1158L148.577 38.1158L148.577 38.1159L148.577 38.1159L148.577 38.1159L148.577 38.116L148.577 38.116L148.577 38.116L148.577 38.1161L148.577 38.1161L148.577 38.1161L148.577 38.1162L148.577 38.1162L148.577 38.1163L148.577 38.1163L148.577 38.1163L148.577 38.1164L148.577 38.1164L148.577 38.1164L148.577 38.1165L148.577 38.1165L148.577 38.1166L148.577 38.1166L148.577 38.1166L148.577 38.1167L148.577 38.1167L148.577 38.1167L148.577 38.1168L148.577 38.1168L148.577 38.1169L148.577 38.1169L148.577 38.1169L148.577 38.117L148.577 38.117L148.577 38.1171L148.577 38.1171L148.577 38.1171L148.577 38.1172L148.577 38.1172L148.577 38.1173L148.577 38.1173L148.577 38.1173L148.577 38.1174L148.577 38.1174L148.577 38.1175L148.577 38.1175L148.577 38.1175L148.577 38.1176L148.577 38.1176L148.577 38.1177L148.577 38.1177L148.577 38.1177L148.577 38.1178L148.577 38.1178L148.673 38.9542L148.682 39.0398L148.768 39.0301L149.742 38.9188L150.725 38.8067L150.81 38.7969L150.801 38.7113L150.606 37.0097Z" fill="#75FEFA" stroke="#75FEFA" stroke-width="0.4"/>
</g>
</g>
<defs>
<filter id="filter0_d" x="2.35327" y="10.3535" width="179.708" height="66.6165" filterUnits="userSpaceOnUse" color-interpolation-filters="sRGB">
<feFlood flood-opacity="0" result="BackgroundImageFix"/>
<feColorMatrix in="SourceAlpha" type="matrix" values="0 0 0 0 0 0 0 0 0 0 0 0 0 0 0 0 0 0 127 0"/>
<feOffset dx="4" dy="4"/>
<feGaussianBlur stdDeviation="2"/>
<feColorMatrix type="matrix" values="0 0 0 0 0 0 0 0 0 0 0 0 0 0 0 0 0 0 0.25 0"/>
<feBlend mode="normal" in2="BackgroundImageFix" result="effect1_dropShadow"/>
<feBlend mode="normal" in="SourceGraphic" in2="effect1_dropShadow" result="shape"/>
</filter>
<clipPath id="clip0">
<rect width="181" height="79" fill="white"/>
</clipPath>
</defs>
</svg>
