<svg width="83" height="79" viewBox="0 0 83 79" fill="none" xmlns="http://www.w3.org/2000/svg">
<g clip-path="url(#clip0)">
<g filter="url(#filter0_d)">
<circle cx="40.9999" cy="39.9999" r="32.9999" fill="#04005E"/>
<mask id="mask0" mask-type="alpha" maskUnits="userSpaceOnUse" x="8" y="7" width="67" height="66">
<circle cx="41.0005" cy="39.9999" r="32.9999" fill="#C1F52F"/>
</mask>
<g mask="url(#mask0)">
<path d="M43.8202 26.3398C43.8202 20.2647 38.8954 15.3398 32.8203 15.3398C26.7452 15.3398 21.8203 20.2647 21.8203 26.3398C21.8203 32.4149 26.7452 37.3398 32.8203 37.3398C41.6145 38.282 43.8006 44.5966 43.8263 47.971C43.8223 48.0934 43.8202 48.2164 43.8202 48.3398C42.878 57.134 36.5635 59.3201 33.1891 59.3458C33.0666 59.3418 32.9437 59.3397 32.8203 59.3397C26.7452 59.3397 21.8203 64.2646 21.8203 70.3397C21.8203 76.4148 26.7452 81.3397 32.8203 81.3397C38.8954 81.3397 43.8202 76.4148 43.8202 70.3397C43.8202 70.1825 43.8169 70.026 43.8104 69.8704C43.7498 61.3986 50.1844 59.3234 54.0715 59.3147C54.3189 59.3313 54.5686 59.3397 54.8202 59.3397C54.9774 59.3397 55.1339 59.3364 55.2895 59.3299C63.7614 59.2693 65.8365 65.7039 65.8453 69.591C65.8286 69.8384 65.8202 70.0881 65.8202 70.3397C65.8202 76.4148 70.7451 81.3397 76.8202 81.3397C82.8953 81.3397 87.8201 76.4148 87.8201 70.3397C87.8201 64.2646 82.8953 59.3397 76.8202 59.3397C68.0259 58.3975 65.8399 52.0829 65.8141 48.7086C65.8182 48.5861 65.8202 48.4632 65.8202 48.3398C66.7624 39.5455 73.077 37.3595 76.4514 37.3337C76.5738 37.3378 76.6968 37.3398 76.8202 37.3398C82.8953 37.3398 87.8201 32.4149 87.8201 26.3398C87.8201 20.2647 82.8953 15.3398 76.8202 15.3398C70.7451 15.3398 65.8202 20.2647 65.8202 26.3398C65.8202 26.497 65.8235 26.6535 65.83 26.8091C65.8906 35.281 59.456 37.3561 55.5689 37.3649C55.3215 37.3482 55.0718 37.3398 54.8202 37.3398C54.663 37.3398 54.5065 37.3431 54.3509 37.3496C45.8791 37.4102 43.8039 30.9756 43.7952 27.0885C43.8118 26.8411 43.8202 26.5914 43.8202 26.3398Z" fill="#75FEFA"/>
</g>
</g>
</g>
<defs>
<filter id="filter0_d" x="8" y="7" width="74.0004" height="73.9998" filterUnits="userSpaceOnUse" color-interpolation-filters="sRGB">
<feFlood flood-opacity="0" result="BackgroundImageFix"/>
<feColorMatrix in="SourceAlpha" type="matrix" values="0 0 0 0 0 0 0 0 0 0 0 0 0 0 0 0 0 0 127 0"/>
<feOffset dx="4" dy="4"/>
<feGaussianBlur stdDeviation="2"/>
<feColorMatrix type="matrix" values="0 0 0 0 0 0 0 0 0 0 0 0 0 0 0 0 0 0 0.25 0"/>
<feBlend mode="normal" in2="BackgroundImageFix" result="effect1_dropShadow"/>
<feBlend mode="normal" in="SourceGraphic" in2="effect1_dropShadow" result="shape"/>
</filter>
<clipPath id="clip0">
<rect width="83" height="79" fill="white"/>
</clipPath>
</defs>
</svg>
