<svg width="120" height="81" viewBox="0 0 120 81" fill="none" xmlns="http://www.w3.org/2000/svg">
<g clip-path="url(#clip0)" filter="url(#filter0_d)">
<rect x="15.0949" y="-3" width="107.055" height="54.7484" rx="27.3742" transform="rotate(16.0046 15.0949 -3)" fill="#04005E"/>
<path d="M25.3021 12.3104C25.7816 10.6385 27.5257 9.67195 29.1975 10.1515L53.415 17.0979C55.0869 17.5774 56.0534 19.3215 55.5739 20.9934V20.9934C55.0943 22.6652 53.3503 23.6318 51.6784 23.1522L27.4609 16.2059C25.7891 15.7263 24.8225 13.9823 25.3021 12.3104V12.3104Z" fill="#75FEFA"/>
<path d="M14.46 38.6847C12.7881 38.2052 11.8216 36.4611 12.3011 34.7892L17.5109 16.6261C17.9904 14.9542 19.7345 13.9877 21.4064 14.4672V14.4672C23.0782 14.9468 24.0448 16.6908 23.5652 18.3627L18.3555 36.5258C17.8759 38.1977 16.1319 39.1643 14.46 38.6847V38.6847Z" fill="#75FEFA"/>
<path d="M16.6185 42.5819C17.098 40.91 18.8421 39.9434 20.514 40.423L44.7314 47.3694C46.4033 47.8489 47.3699 49.593 46.8903 51.2648V51.2648C46.4108 52.9367 44.6667 53.9033 42.9948 53.4237L18.7774 46.4774C17.1055 45.9978 16.1389 44.2537 16.6185 42.5819V42.5819Z" fill="#75FEFA"/>
<path d="M53.8376 27.0471C54.679 24.4734 52.6208 23.341 51.4865 23.0965L55.5742 20.9928C55.14 23.5863 56.9606 24.7071 57.9252 24.9434L53.8376 27.0471Z" fill="#75FEFA"/>
<path d="M16.5849 42.5725C17.4264 39.9987 15.3682 38.8664 14.2338 38.6219L18.3215 36.5182C17.8873 39.1117 19.708 40.2325 20.6726 40.4688L16.5849 42.5725Z" fill="#75FEFA"/>
<path d="M46.9229 51.2755C47.5736 48.647 49.9192 48.7778 51.0106 49.1717L48.6595 45.2211C47.653 47.6505 45.515 47.6358 44.5718 47.3249L46.9229 51.2755Z" fill="#75FEFA"/>
<path d="M23.6464 18.3868C24.2971 15.7583 26.6427 15.8891 27.7341 16.283L25.383 12.3324C24.3765 14.7618 22.2385 14.7472 21.2953 14.4362L23.6464 18.3868Z" fill="#75FEFA"/>
<path d="M103.401 38.0281C101.974 37.6187 100.624 36.1173 101.212 34.0677C101.688 32.4089 100.727 30.6693 99.0706 30.1941L74.7853 23.2283C73.1291 22.7532 71.3919 23.7191 70.9162 25.3778C70.4711 26.9294 68.742 28.0868 66.9609 27.5759C65.3047 27.1008 63.5675 28.0667 63.0918 29.7254L57.8574 47.9744C57.3816 49.6332 58.3426 51.373 59.9988 51.8481C61.5457 52.2918 62.7 54.0221 62.1876 55.8084C61.7118 57.4674 62.673 59.2068 64.3292 59.6818L88.6145 66.6477C90.2711 67.1229 92.0077 66.1573 92.4835 64.4983C92.8941 63.0669 94.395 61.714 96.4388 62.3002C98.095 62.7753 99.8322 61.8094 100.308 60.1507L105.549 41.8782C106.026 40.2168 105.055 38.5025 103.401 38.0281ZM90.342 60.6247L66.0568 53.6589C64.6296 53.2495 63.2801 51.7481 63.868 49.6985L69.1091 31.426L69.1094 31.4252L69.1096 31.4245L69.1098 31.4237L69.11 31.4229L69.1102 31.4222L69.1104 31.4214L69.1107 31.4207L69.1109 31.4199L69.1111 31.4192L69.1113 31.4184L69.1115 31.4176L69.1118 31.4168L69.112 31.4161L69.1122 31.4153L69.1124 31.4145L69.1126 31.4138L69.1129 31.413L69.1131 31.4122L69.1133 31.4115L69.1135 31.4106L69.1138 31.4098L69.114 31.409L69.1142 31.4083L69.1144 31.4075L69.1147 31.4066L69.1149 31.4059L69.1152 31.405L69.1154 31.4042L69.1156 31.4034L69.1158 31.4026C69.5264 29.9711 71.0274 28.6182 73.0711 29.2044L97.3564 36.1702C98.9033 36.6139 100.058 38.3442 99.5452 40.1306L94.3108 58.3796C93.8581 59.958 92.1203 61.1348 90.342 60.6247Z" fill="#75FEFA" stroke="#75FEFA" stroke-width="0.4"/>
<circle cx="56.8661" cy="27.9141" r="3.14925" transform="rotate(-163.995 56.8661 27.9141)" fill="#75FEFA"/>
<circle cx="51.6562" cy="46.0772" r="3.14925" transform="rotate(-163.995 51.6562 46.0772)" fill="#75FEFA"/>
</g>
<defs>
<filter id="filter0_d" x="0" y="0" width="126" height="87" filterUnits="userSpaceOnUse" color-interpolation-filters="sRGB">
<feFlood flood-opacity="0" result="BackgroundImageFix"/>
<feColorMatrix in="SourceAlpha" type="matrix" values="0 0 0 0 0 0 0 0 0 0 0 0 0 0 0 0 0 0 127 0"/>
<feOffset dx="4" dy="4"/>
<feGaussianBlur stdDeviation="2"/>
<feColorMatrix type="matrix" values="0 0 0 0 0 0 0 0 0 0 0 0 0 0 0 0 0 0 0.25 0"/>
<feBlend mode="normal" in2="BackgroundImageFix" result="effect1_dropShadow"/>
<feBlend mode="normal" in="SourceGraphic" in2="effect1_dropShadow" result="shape"/>
</filter>
<clipPath id="clip0">
<rect width="118" height="79" fill="white"/>
</clipPath>
</defs>
</svg>
