<svg width="83" height="79" viewBox="0 0 83 79" fill="none" xmlns="http://www.w3.org/2000/svg">
<g clip-path="url(#clip0)">
<g filter="url(#filter0_d)">
<path d="M43.6027 3.31012C47.7212 -1.28988 55.2749 0.293491 57.1993 6.16019L75.9239 63.2409C77.8484 69.1076 72.7003 74.8576 66.6573 73.5909L7.86174 61.2665C1.81879 59.9998 -0.58681 52.6664 3.53165 48.0664L43.6027 3.31012Z" fill="#04005E"/>
<path fill-rule="evenodd" clip-rule="evenodd" d="M30.9017 45.6871C33.8709 46.283 36.7647 44.4765 37.5695 41.6078C36.7703 44.4577 33.9095 46.2595 30.961 45.6993C34.0415 46.3508 36.0298 49.3633 35.4087 52.4576C35.6845 51.0834 36.4289 49.9226 37.4422 49.1083C36.4289 49.9226 35.6846 51.0834 35.4087 52.4577C34.7837 55.5719 36.8016 58.6032 39.9158 59.2282C43.0301 59.8532 46.0613 57.8353 46.6864 54.7211C47.3114 51.6069 45.2935 48.5756 42.1793 47.9506C42.1793 47.9506 42.1793 47.9506 42.1793 47.9506C39.0692 47.3264 37.0526 44.3025 37.6696 41.1927L37.6722 41.18C38.2972 38.0658 41.3285 36.0479 44.4427 36.6729C47.557 37.298 49.5749 40.3293 48.9498 43.4435C48.3248 46.5577 50.3427 49.589 53.4569 50.214C56.5711 50.8391 59.6024 48.8212 60.2274 45.7069C60.8525 42.5927 58.8346 39.5614 55.7204 38.9364C52.6061 38.3114 50.5882 35.2801 51.2133 32.1659C51.8383 29.0516 49.8204 26.0204 46.7062 25.3953C43.592 24.7703 40.5607 26.7882 39.9357 29.9024C39.3106 33.0166 36.2793 35.0345 33.1651 34.4095C30.0509 33.7845 27.0196 35.8023 26.3946 38.9166C25.7695 42.0308 27.7874 45.0621 30.9017 45.6871Z" fill="#75FEFA"/>
</g>
</g>
<defs>
<filter id="filter0_d" x="3.05176e-05" y="-7" width="96.4833" height="90.2388" filterUnits="userSpaceOnUse" color-interpolation-filters="sRGB">
<feFlood flood-opacity="0" result="BackgroundImageFix"/>
<feColorMatrix in="SourceAlpha" type="matrix" values="0 0 0 0 0 0 0 0 0 0 0 0 0 0 0 0 0 0 127 0"/>
<feOffset dx="4" dy="4"/>
<feGaussianBlur stdDeviation="2"/>
<feColorMatrix type="matrix" values="0 0 0 0 0 0 0 0 0 0 0 0 0 0 0 0 0 0 0.25 0"/>
<feBlend mode="normal" in2="BackgroundImageFix" result="effect1_dropShadow"/>
<feBlend mode="normal" in="SourceGraphic" in2="effect1_dropShadow" result="shape"/>
</filter>
<clipPath id="clip0">
<rect width="83" height="79" fill="white"/>
</clipPath>
</defs>
</svg>
