<svg width="36" height="36" viewBox="0 0 36 36" fill="none" xmlns="http://www.w3.org/2000/svg">
<g clip-path="url(#clip0)">
<path d="M15.2423 27.7812C14.5321 27.7812 14.0525 28.4963 14.4989 29.0485C15.3239 30.0688 16.5858 30.7213 18.0001 30.7213C19.4144 30.7213 20.6763 30.0688 21.5012 29.0485C21.9477 28.4963 21.468 27.7812 20.7579 27.7812H15.2423Z" fill="#CCFD38"/>
<path fill-rule="evenodd" clip-rule="evenodd" d="M24.5142 19.0122L24.5266 18.929C24.5747 18.6078 24.5998 18.2778 24.5998 17.9404C24.5998 15.1442 22.86 12.7485 20.3953 11.7879C19.106 11.2854 17.9998 10.0168 17.9998 8.35026C17.9998 10.0168 16.8936 11.2854 15.6043 11.7879C13.1396 12.7485 11.3998 15.1442 11.3998 17.9404C11.3998 18.2803 11.4253 18.6128 11.4741 18.9363L11.487 19.0216L11.4937 19.1077C11.5637 20.0051 11.5275 20.806 11.3497 21.5412C11.1634 22.3115 10.8505 22.8899 10.5232 23.355L10.4866 23.407C10.4026 23.5138 10.4787 23.6704 10.6146 23.6704H25.2862C25.4865 23.6704 25.5987 23.4395 25.4749 23.2821L25.4452 23.2443L25.3942 23.168C24.6864 22.1104 24.3681 20.866 24.5075 19.096L24.5142 19.0122ZM26.9001 19.2844C26.9658 18.846 26.9998 18.3971 26.9998 17.9404C26.9998 14.1222 24.6222 10.8594 21.2668 9.55169C20.7639 9.35568 20.3998 8.89005 20.3998 8.35026V7.80039C20.3998 6.47491 19.3253 5.40039 17.9998 5.40039C16.6743 5.40039 15.5998 6.47491 15.5998 7.80039V8.35026C15.5998 8.89005 15.2358 9.35568 14.7328 9.55169C11.3774 10.8594 8.99982 14.1222 8.99982 17.9404C8.99982 18.4006 9.03436 18.8527 9.10099 19.2943C9.21472 20.7528 8.94329 21.4298 8.56055 21.9736L7.6295 23.1579C6.70107 24.3389 7.54235 26.0704 9.04456 26.0704H27.0151C28.5173 26.0704 29.3586 24.3389 28.4301 23.1579L27.3887 21.8332C27.039 21.3107 26.7941 20.6303 26.9001 19.2844Z" fill="#CCFD38"/>
<path d="M18.0003 9.93047C17.6703 9.93047 17.4703 10.2105 17.4003 10.3505L17.0103 10.2005L17.1603 9.36047L17.6703 7.98047H18.5103L19.2303 9.87047L18.6003 10.3505C18.5403 10.2305 18.3603 9.93047 18.0003 9.93047Z" fill="#CCFD38"/>
<path d="M25.1999 23.4302C25.1039 23.5982 24.8199 23.6602 24.6899 23.6702L24.9599 24.1502L25.2599 24.2102L25.9499 24.2402L26.1899 23.8802L26.0399 23.0702L25.1399 22.7402C25.2899 23.0102 25.3199 23.2202 25.1999 23.4302Z" fill="#CCFD38"/>
</g>
<defs>
<clipPath id="clip0">
<rect width="36" height="36" fill="white"/>
</clipPath>
</defs>
</svg>
