<svg width="35" height="35" viewBox="0 0 35 35" fill="none" xmlns="http://www.w3.org/2000/svg">
<path fill-rule="evenodd" clip-rule="evenodd" d="M11.8111 10.7962C11.6164 10.6932 11.6084 10.4331 11.7705 10.284L17.029 5.44659C17.176 5.31133 17.4049 5.32088 17.5401 5.46791L21.8361 10.1378C21.9906 10.3057 22.2615 10.2901 22.3635 10.0861C22.5148 9.78358 22.5949 9.48083 22.626 9.22371C22.6281 9.20632 22.6287 9.18885 22.6282 9.17134C22.6265 9.10948 22.6269 9.04713 22.6294 8.98439C22.6904 7.45999 23.9746 6.27387 25.4979 6.33512C27.0212 6.39637 28.2066 7.68179 28.1457 9.20619C28.0847 10.7306 26.8005 11.9167 25.2772 11.8555C25.1888 11.8519 25.1014 11.8442 25.0155 11.8326C24.6686 11.8297 24.3651 11.8737 24.1003 11.9535C23.874 12.0217 23.8252 12.3001 23.9853 12.4741L28.2849 17.1479C28.4202 17.295 28.4106 17.5238 28.2636 17.6591L23.25 22.2713C23.0728 22.4342 22.7897 22.3796 22.7325 22.1458C22.6836 21.9457 22.6566 21.7223 22.6567 21.4734C22.6664 21.3974 22.6725 21.3202 22.6751 21.2421C22.7184 19.8961 21.6617 18.7701 20.3147 18.727C18.9678 18.6839 17.8407 19.7401 17.7974 21.086C17.754 22.432 18.8108 23.558 20.1577 23.6011C20.2121 23.6028 20.2661 23.6028 20.3198 23.601C20.3373 23.6004 20.3548 23.6008 20.3722 23.6028C20.5575 23.624 20.7695 23.6737 20.9866 23.7626C21.204 23.8516 21.2274 24.1319 21.0545 24.291L16.5836 28.4039C16.4365 28.5391 16.2077 28.5296 16.0724 28.3825L11.8269 23.7675C11.6646 23.5911 11.3788 23.6201 11.292 23.8436C11.234 23.993 11.1903 24.1435 11.1587 24.2896C11.1503 24.3285 11.1496 24.3685 11.1541 24.408C11.1702 24.5482 11.1757 24.6914 11.1699 24.8367C11.1089 26.3611 9.82468 27.5472 8.30141 27.486C6.77815 27.4247 5.5927 26.1393 5.65364 24.6149C5.71459 23.0905 6.99884 21.9044 8.52211 21.9656C8.67048 21.9716 8.81565 21.9892 8.95677 22.0175C9.00794 22.0277 9.06075 22.0289 9.11162 22.0172C9.25377 21.9846 9.38738 21.9453 9.51289 21.9001C9.73423 21.8203 9.78089 21.5434 9.62161 21.3702L5.32764 16.7025C5.19238 16.5555 5.20192 16.3266 5.34896 16.1914L9.74368 12.1485C9.90241 12.0025 10.1548 12.0268 10.252 12.2194C10.345 12.4034 10.4225 12.6117 10.479 12.8468C10.4912 12.8975 10.4904 12.9503 10.4807 13.0016C10.4578 13.1236 10.4439 13.2489 10.4397 13.3768C10.3964 14.7228 11.4531 15.8488 12.8001 15.8919C14.147 15.935 15.2741 14.8788 15.3174 13.5329C15.3608 12.1869 14.304 11.0609 12.9571 11.0178C12.8311 11.0138 12.707 11.0194 12.5855 11.0339C12.546 11.0387 12.506 11.0383 12.4671 11.0301C12.2518 10.9848 12.0261 10.9099 11.8111 10.7962Z" fill="#9896AE"/>
</svg>
