<svg width="21" height="23" viewBox="0 0 21 23" fill="none" xmlns="http://www.w3.org/2000/svg">
<path fill-rule="evenodd" clip-rule="evenodd" d="M0.875 11.5001C0.875 17.069 5.18426 21.5834 10.5 21.5834C15.8157 21.5834 20.125 17.069 20.125 11.5001C20.125 5.93121 15.8157 1.41675 10.5 1.41675C5.18426 1.41675 0.875 5.93121 0.875 11.5001ZM18.375 11.5001C18.375 16.0564 14.8493 19.7501 10.5 19.7501C6.15078 19.7501 2.62502 16.0564 2.62502 11.5001C2.62502 6.94373 6.15078 3.25008 10.5 3.25008C14.8493 3.25008 18.375 6.94373 18.375 11.5001ZM10.5003 16.0819C10.9837 16.0819 11.3756 15.6715 11.3756 15.1652C11.3756 14.659 10.9837 14.2486 10.5003 14.2486C10.0169 14.2486 9.62498 14.659 9.62498 15.1652C9.62498 15.6715 10.0169 16.0819 10.5003 16.0819ZM11.4212 10.451C10.1715 11.1056 9.62498 11.7736 9.62498 13.3334H11.375C11.375 12.6016 11.4847 12.4675 12.2038 12.0908C13.4535 11.4362 14 10.7683 14 9.20841C14 7.21066 12.4988 6.00008 10.5 6.00008C8.56699 6.00008 6.99998 7.6417 6.99998 9.66675H8.74998C8.74998 8.65423 9.53349 7.83341 10.5 7.83341C11.6175 7.83341 12.25 8.34345 12.25 9.20841C12.25 9.94024 12.1402 10.0744 11.4212 10.451Z" fill="#75FEFA"/>
</svg>
