<svg width="36" height="36" viewBox="0 0 36 36" fill="none" xmlns="http://www.w3.org/2000/svg">
<circle cx="18.0147" cy="18.0147" r="14.5147" stroke="#CCFD38" stroke-width="3"/>
<path fill-rule="evenodd" clip-rule="evenodd" d="M30.0802 28.4918C32.5218 25.6829 34 22.014 34 18C34 9.16344 26.8366 2 18 2C9.16344 2 2 9.16344 2 18C2 22.0578 3.51055 25.7628 6 28.5833V28.5659C6 24.5624 14.022 22.5456 18.0405 22.5456C22.0342 22.5456 29.9819 24.5375 30.0802 28.4918ZM12.0203 15.0203C12.0203 11.6941 14.7143 9 18.0405 9C21.3667 9 24.0608 11.6941 24.0608 15.0203C24.0608 18.3465 21.3667 21.0405 18.0405 21.0405C14.7143 21.0405 12.0203 18.3465 12.0203 15.0203Z" fill="#CCFD38"/>
</svg>
