<svg width="40" height="40" viewBox="0 0 40 40" fill="none" xmlns="http://www.w3.org/2000/svg">
<path d="M27.7965 3H12.2035C7.12859 3 3 7.12859 3 12.2035V27.7967C3 32.8713 7.12859 36.9999 12.2035 36.9999H27.7967C32.8713 36.9999 36.9999 32.8713 36.9999 27.7967V12.2035C36.9999 7.12859 32.8713 3 27.7965 3V3ZM20 29.2966C14.8737 29.2966 10.7034 25.1262 10.7034 20C10.7034 14.8737 14.8737 10.7034 20 10.7034C25.1262 10.7034 29.2966 14.8737 29.2966 20C29.2966 25.1262 25.1262 29.2966 20 29.2966ZM29.5189 12.8958C28.004 12.8958 26.7718 11.6637 26.7718 10.1488C26.7718 8.63388 28.004 7.40148 29.5189 7.40148C31.0338 7.40148 32.2662 8.63388 32.2662 10.1488C32.2662 11.6637 31.0338 12.8958 29.5189 12.8958Z" fill="#9896AE"/>
<path d="M19.9997 12.6965C15.9728 12.6965 12.6963 15.9727 12.6963 19.9999C12.6963 24.0268 15.9728 27.3033 19.9997 27.3033C24.0268 27.3033 27.303 24.0268 27.303 19.9999C27.303 15.9727 24.0268 12.6965 19.9997 12.6965Z" fill="#9896AE"/>
<path d="M29.519 9.39502C29.1034 9.39502 28.7651 9.73328 28.7651 10.1488C28.7651 10.5644 29.1034 10.9026 29.519 10.9026C29.9348 10.9026 30.273 10.5646 30.273 10.1488C30.273 9.73302 29.9348 9.39502 29.519 9.39502Z" fill="#9896AE"/>
</svg>
