<svg width="40" height="40" viewBox="0 0 40 40" fill="none" xmlns="http://www.w3.org/2000/svg">
<path d="M20 4C11.1608 4 4 11.1618 4 20C4 28.8382 11.1618 36 20 36C28.8392 36 36 28.8382 36 20C36 11.1618 28.8382 4 20 4ZM27.8586 14.9615L25.2325 27.3363C25.0385 28.2137 24.5161 28.4263 23.7874 28.0134L19.7874 25.0653L17.8581 26.9234C17.6454 27.136 17.4648 27.3166 17.0519 27.3166L17.3357 23.2454L24.7484 16.5481C25.0715 16.2643 24.6772 16.1032 24.2508 16.3871L15.0895 22.1543L11.1412 20.9218C10.2834 20.6514 10.2637 20.064 11.3218 19.6511L26.7479 13.7022C27.4643 13.4441 28.0898 13.8766 27.8575 14.9605L27.8586 14.9615Z" fill="#9896AE"/>
</svg>
