<svg width="56" height="56" viewBox="0 0 56 56" fill="none" xmlns="http://www.w3.org/2000/svg">
<path d="M38.5002 30.3337C35.7002 30.3337 31.3368 31.127 28.0002 32.667C24.6635 31.1037 20.3002 30.3337 17.5002 30.3337C12.4368 30.3337 2.3335 32.8537 2.3335 37.917V44.3337H53.6668V37.917C53.6668 32.8537 43.5635 30.3337 38.5002 30.3337ZM29.1668 40.8337H5.8335V37.917C5.8335 36.657 11.8068 33.8337 17.5002 33.8337C23.1935 33.8337 29.1668 36.657 29.1668 37.917V40.8337ZM50.1668 40.8337H32.6668V37.917C32.6668 36.8437 32.2002 35.9103 31.4535 35.0703C33.5068 34.3703 36.0268 33.8337 38.5002 33.8337C44.1935 33.8337 50.1668 36.657 50.1668 37.917V40.8337ZM17.5002 28.0003C22.0035 28.0003 25.6668 24.337 25.6668 19.8337C25.6668 15.3303 22.0035 11.667 17.5002 11.667C12.9968 11.667 9.3335 15.3303 9.3335 19.8337C9.3335 24.337 12.9968 28.0003 17.5002 28.0003ZM17.5002 15.167C20.0668 15.167 22.1668 17.267 22.1668 19.8337C22.1668 22.4003 20.0668 24.5003 17.5002 24.5003C14.9335 24.5003 12.8335 22.4003 12.8335 19.8337C12.8335 17.267 14.9335 15.167 17.5002 15.167ZM38.5002 28.0003C43.0035 28.0003 46.6668 24.337 46.6668 19.8337C46.6668 15.3303 43.0035 11.667 38.5002 11.667C33.9968 11.667 30.3335 15.3303 30.3335 19.8337C30.3335 24.337 33.9968 28.0003 38.5002 28.0003ZM38.5002 15.167C41.0668 15.167 43.1668 17.267 43.1668 19.8337C43.1668 22.4003 41.0668 24.5003 38.5002 24.5003C35.9335 24.5003 33.8335 22.4003 33.8335 19.8337C33.8335 17.267 35.9335 15.167 38.5002 15.167Z" fill="#9896AE"/>
</svg>
