<svg width="36" height="36" viewBox="0 0 36 36" fill="none" xmlns="http://www.w3.org/2000/svg">
<mask id="mask0" mask-type="alpha" maskUnits="userSpaceOnUse" x="6" y="10" width="25" height="25">
<path d="M18.0542 12.8867C19.8001 12.8867 21.2149 14.3015 21.2149 16.0474C21.2149 17.7932 19.8001 19.208 18.0542 19.208C16.3083 19.208 14.8936 17.7932 14.8936 16.0474C14.8936 14.3015 16.3083 12.8867 18.0542 12.8867ZM18.0542 26.4323C22.5243 26.4323 27.2351 28.6297 27.2351 29.593V32.1404H8.8733V29.593C8.8733 28.6297 13.5842 26.4323 18.0542 26.4323ZM18.0542 10.0271C14.728 10.0271 12.0339 12.7212 12.0339 16.0474C12.0339 19.3736 14.728 22.0676 18.0542 22.0676C21.3804 22.0676 24.0745 19.3736 24.0745 16.0474C24.0745 12.7212 21.3804 10.0271 18.0542 10.0271ZM18.0542 23.5727C14.0357 23.5727 6.01367 25.5895 6.01367 29.593V35.0001H30.0948V29.593C30.0948 25.5895 22.0727 23.5727 18.0542 23.5727Z" fill="#CCFD38"/>
</mask>
<g mask="url(#mask0)">
<circle cx="18.0541" cy="18.0541" r="14.5541" fill="#CCFD38" stroke="#CCFD38" stroke-width="3"/>
</g>
<circle cx="18.0147" cy="18.0147" r="14.5147" stroke="#CCFD38" stroke-width="3"/>
</svg>
