<svg width="36" height="36" viewBox="0 0 36 36" fill="none" xmlns="http://www.w3.org/2000/svg">
<g clip-path="url(#clip0)">
<path fill-rule="evenodd" clip-rule="evenodd" d="M24.5396 16.3206C24.5396 20.8935 20.8325 24.6006 16.2596 24.6006C11.6867 24.6006 7.97959 20.8935 7.97959 16.3206C7.97959 11.7477 11.6867 8.04063 16.2596 8.04063C20.8325 8.04063 24.5396 11.7477 24.5396 16.3206ZM23.417 25.3258C23.0729 24.9956 22.541 24.9722 22.1432 25.2352C20.4561 26.351 18.4337 27.0006 16.2596 27.0006C10.3612 27.0006 5.57959 22.219 5.57959 16.3206C5.57959 10.4222 10.3612 5.64062 16.2596 5.64062C22.158 5.64062 26.9396 10.4222 26.9396 16.3206C26.9396 18.5636 26.2481 20.6452 25.0667 22.3636C24.7832 22.7761 24.8134 23.3395 25.1745 23.686L30.3207 28.6243C30.7989 29.0832 30.8146 29.8428 30.3557 30.321C29.8968 30.7992 29.1372 30.8148 28.659 30.356L23.417 25.3258Z" fill="#CCFD38"/>
</g>
<defs>
<clipPath id="clip0">
<rect width="36" height="36" fill="white"/>
</clipPath>
</defs>
</svg>
