<svg width="48" height="48" viewBox="0 0 48 48" fill="none" xmlns="http://www.w3.org/2000/svg">
<path d="M0 24C0 10.7452 10.7452 0 24 0C37.2548 0 48 10.7452 48 24C48 37.2548 37.2548 48 24 48C10.7452 48 0 37.2548 0 24Z" fill="#EDF2FF"/>
<path d="M10.8441 18C11.7183 18 13.0504 18 13.7997 18C14.1744 18 14.4658 18.2544 14.5907 18.5936C14.9653 19.696 15.7979 22.1127 16.7553 23.7662C18.0458 25.9286 18.8783 26.7342 19.4195 26.6494C19.9607 26.5222 19.7941 25.0806 19.7941 23.9358C19.7941 22.7911 19.919 20.8407 19.3779 19.9503L18.5453 18.7208C18.3372 18.424 18.5453 18.0424 18.8783 18.0424H23.6239C24.0818 18.0424 24.4565 18.424 24.4565 18.8904V25.0382C24.4565 25.0382 24.6646 26.1406 25.8302 24.9958C26.9958 23.851 28.2446 21.7311 29.2853 19.5688L29.7016 18.5512C29.8265 18.2544 30.1179 18.0424 30.4509 18.0424H33.5314C34.1142 18.0424 34.5304 18.636 34.3223 19.1872L33.9893 20.0775C33.9893 20.0775 32.8653 22.3671 31.6997 23.9782C30.5342 25.6318 30.2844 26.0134 30.4509 26.4374C30.6174 26.8614 33.6146 29.7021 34.3639 31.0588C34.5721 31.4404 34.7386 31.7796 34.9051 32.0764C35.1965 32.6276 34.7802 33.3484 34.1558 33.3484H30.659C30.3676 33.3484 30.0763 33.1788 29.9514 32.9244L29.6183 32.3732C29.6183 32.3732 27.4953 29.8293 26.2049 29.0237C24.8728 28.2605 24.9144 29.3629 24.9144 29.3629V31.61C24.9144 32.5428 24.1651 33.306 23.2493 33.306H22.4167C22.4167 33.306 17.8376 33.306 14.1744 27.7517C11.302 23.4271 10.3446 20.6287 10.0116 19.0176C9.92833 18.5088 10.303 18 10.8441 18Z" fill="#9896AE"/>
</svg>
