<svg width="14" height="14" viewBox="0 0 14 14" fill="none" xmlns="http://www.w3.org/2000/svg">
<path d="M6.9999 1.3999C3.90617 1.3999 1.3999 3.90653 1.3999 6.9999C1.3999 10.0933 3.90653 12.5999 6.9999 12.5999C10.0936 12.5999 12.5999 10.0933 12.5999 6.9999C12.5999 3.90653 10.0933 1.3999 6.9999 1.3999ZM9.75041 5.23644L8.83128 9.56759C8.76336 9.87469 8.58055 9.94912 8.32548 9.8046L6.92548 8.77275L6.25022 9.42308C6.1758 9.4975 6.11257 9.56073 5.96806 9.56073L6.06741 8.1358L8.66184 5.79175C8.77492 5.69239 8.63691 5.63603 8.4877 5.73539L5.28124 7.75391L3.89931 7.32253C3.59908 7.22788 3.59221 7.0223 3.96253 6.87779L9.36166 4.79567C9.61239 4.70535 9.83133 4.85673 9.75004 5.23608L9.75041 5.23644Z" fill="#9896AE"/>
</svg>
