<svg width="32" height="32" viewBox="0 0 32 32" fill="none" xmlns="http://www.w3.org/2000/svg">
<g clip-path="url(#clip0)">
<path fill-rule="evenodd" clip-rule="evenodd" d="M24.1067 9.18021H7.89336C7.30426 9.18021 6.82669 9.65777 6.82669 10.2469V22.8519C6.82669 23.0169 7.01511 23.1109 7.14692 23.0118L8.58318 21.9314C9.50744 21.2362 10.6327 20.8602 11.7892 20.8602H24.1067C24.6958 20.8602 25.1734 20.3826 25.1734 19.7935V10.2469C25.1734 9.65777 24.6958 9.18021 24.1067 9.18021ZM24.1067 7.04688H7.89336C6.12605 7.04688 4.69336 8.47956 4.69336 10.2469V24.3212C4.69336 25.6407 6.20068 26.3931 7.25517 25.5999L9.86559 23.6363C10.4201 23.2191 11.0953 22.9935 11.7892 22.9935H24.1067C25.874 22.9935 27.3067 21.5609 27.3067 19.7935V10.2469C27.3067 8.47956 25.874 7.04688 24.1067 7.04688Z" fill="#9896AE"/>
</g>
<defs>
<clipPath id="clip0">
<rect width="32" height="32" fill="white"/>
</clipPath>
</defs>
</svg>
