<svg width="56" height="56" viewBox="0 0 56 56" fill="none" xmlns="http://www.w3.org/2000/svg">
<g clip-path="url(#clip0)">
<path fill-rule="evenodd" clip-rule="evenodd" d="M27.9996 47.6925C38.9274 47.6925 47.7862 38.8337 47.7862 27.9058C47.7862 23.2809 46.1995 19.0266 43.5407 15.6576C43.3373 15.3999 42.9554 15.3838 42.7232 15.616L32.6946 25.6446C32.4925 25.8467 32.5826 26.1947 32.85 26.2958C32.9704 26.3413 33.0897 26.3901 33.2079 26.4422C34.1079 26.8392 34.9179 27.4176 35.5947 28.1383C36.2713 28.8588 36.8022 29.7079 37.1626 30.6343C37.5229 31.5605 37.7071 32.5496 37.7071 33.546C37.7071 34.5424 37.5229 35.5315 37.1626 36.4578C36.8022 37.3842 36.2713 38.2333 35.5947 38.9537C34.9179 39.6744 34.1079 40.2528 33.2079 40.6498C32.3075 41.047 31.3379 41.2532 30.3556 41.2532H30.303C30.0363 41.2532 29.7681 41.2532 29.4982 41.2518C29.2904 41.2507 29.1207 41.4184 29.1207 41.6263V43.5864C29.1207 44.3596 28.4939 44.9864 27.7207 44.9864C26.9475 44.9864 26.3207 44.3596 26.3207 43.5864V41.4262C26.3207 41.2366 26.1786 41.0776 25.9907 41.0524C24.0867 40.7979 22.0588 40.2205 19.8304 38.9113C19.682 38.8241 19.4928 38.8464 19.3711 38.9681L15.7097 42.6295C15.4775 42.8617 15.4936 43.2435 15.7514 43.4469C19.1204 46.1057 23.3747 47.6925 27.9996 47.6925ZM12.2852 39.9312C12.4868 40.1943 12.8729 40.2133 13.1073 39.9789L23.6327 29.4535C23.7806 29.3056 23.7255 29.0533 23.5342 28.9689C22.6341 28.5719 21.8242 27.9935 21.1473 27.2728C20.4707 26.5523 19.9398 25.7032 19.5794 24.7769C19.2191 23.8506 19.0349 22.8615 19.0349 21.8651C19.0349 20.8687 19.2191 19.8796 19.5794 18.9533C19.9398 18.0269 20.4707 17.1779 21.1473 16.4574C21.8242 15.7367 22.6341 15.1583 23.5342 14.7613C24.3012 14.4229 25.1185 14.2232 25.9511 14.1714C26.1555 14.1587 26.3207 13.9932 26.3207 13.7884V12.1331C26.3207 11.3599 26.9475 10.7331 27.7207 10.7331C28.4939 10.7331 29.1207 11.3599 29.1207 12.1331V13.8124C29.1207 14.0048 29.267 14.1652 29.458 14.1884C31.2445 14.4051 33.5352 15.0578 35.8583 16.8296C35.9817 16.9237 36.1592 16.927 36.2689 16.8173L40.0727 13.0135C40.307 12.7792 40.2881 12.3931 40.025 12.1914C36.6921 9.63711 32.5231 8.11914 27.9996 8.11914C17.0717 8.11914 8.21289 16.9779 8.21289 27.9058C8.21289 32.4294 9.73086 36.5984 12.2852 39.9312ZM25.6833 32.6559C25.9185 32.4207 26.3207 32.5872 26.3207 32.9198V36.8973C26.3207 37.1247 26.1189 37.2998 25.8949 37.26C24.876 37.0791 23.8523 36.7722 22.7677 36.2517C22.541 36.1429 22.4956 35.8436 22.6734 35.6658L25.6833 32.6559ZM29.758 23.3282C29.5228 23.5634 29.1207 23.3968 29.1207 23.0642V18.3348C29.1207 18.1093 29.3189 17.9347 29.5409 17.9744C30.5921 18.1625 31.8008 18.5717 33.062 19.417C33.2522 19.5445 33.2729 19.8133 33.111 19.9752L29.758 23.3282ZM25.9411 17.9216C25.6341 17.9635 25.3314 18.0489 25.0408 18.1771C24.6099 18.3671 24.2106 18.6491 23.8688 19.0131C23.5267 19.3773 23.2497 19.8159 23.0588 20.3067C22.8678 20.7977 22.7683 21.3275 22.7683 21.8651C22.7683 22.4026 22.8678 22.9325 23.0588 23.4234C23.2497 23.9142 23.5267 24.3529 23.8688 24.7171C24.2106 25.081 24.6099 25.363 25.0408 25.5531C25.3314 25.6813 25.6341 25.7666 25.9411 25.8086C26.1483 25.8369 26.3207 25.6665 26.3207 25.4573V18.2728C26.3207 18.0637 26.1483 17.8933 25.9411 17.9216ZM29.1207 37.1459C29.1207 37.3502 29.2849 37.5166 29.4892 37.5179C29.7735 37.5197 30.062 37.5198 30.3556 37.5198C30.6918 37.5198 31.0273 37.4682 31.3521 37.3657C31.5487 37.3037 31.7687 37.387 31.8519 37.5756C31.7687 37.387 31.8554 37.1682 32.0341 37.0653C32.3381 36.89 32.6213 36.6663 32.8733 36.398C33.2153 36.0338 33.4923 35.5952 33.6832 35.1044C33.8742 34.6134 33.9738 34.0836 33.9738 33.546C33.9738 33.0085 33.8742 32.4786 33.6832 31.9877C33.4923 31.4969 33.2153 31.0583 32.8733 30.694C32.5315 30.3301 32.1321 30.0481 31.7013 29.858C31.2708 29.6682 30.8139 29.5722 30.3556 29.5722H29.494C29.2878 29.5722 29.1207 29.7394 29.1207 29.9456V37.1459Z" fill="#9896AE"/>
</g>
<defs>
<clipPath id="clip0">
<rect width="56" height="56" fill="white"/>
</clipPath>
</defs>
</svg>
