<svg width="48" height="48" viewBox="0 0 48 48" fill="none" xmlns="http://www.w3.org/2000/svg">
<path d="M0 24C0 10.7452 10.7452 0 24 0C37.2548 0 48 10.7452 48 24C48 37.2548 37.2548 48 24 48C10.7452 48 0 37.2548 0 24Z" fill="#EDF2FF"/>
<path d="M20.3949 17.2433C20.3949 17.1063 20.4139 16.8102 20.452 16.3572C20.4929 15.9031 20.6642 15.4282 20.9717 14.9294C21.2763 14.4325 21.7703 13.9861 22.4575 13.5911C23.1419 13.198 24.1309 13 25.4216 13H29.0576V16.9625H26.3953C26.1316 16.9625 25.8861 17.0615 25.6643 17.2567C25.4444 17.4518 25.3311 17.6374 25.3311 17.8097V20.275H29.0567C29.0176 20.7576 28.9748 21.2268 28.9253 21.6799L28.7778 22.8773C28.7188 23.2819 28.6588 23.6569 28.5998 24.0024H25.3045V34.9886H20.3949V24.0015H18V20.275H20.3949V17.2433Z" fill="#9896AE"/>
</svg>
