<svg width="36" height="36" viewBox="0 0 36 36" fill="none" xmlns="http://www.w3.org/2000/svg">
<g clip-path="url(#clip0)">
<path fill-rule="evenodd" clip-rule="evenodd" d="M14.406 25.3523C14.8979 25.1177 15.4695 25.1186 15.9606 25.3547L20.0039 27.298C20.2429 27.4128 20.5199 27.2386 20.5199 26.9735V13.36C20.5199 12.8298 20.0901 12.4 19.5599 12.4H10.7399C10.2097 12.4 9.77988 12.8298 9.77988 13.36V26.9881C9.77988 27.2528 10.0559 27.427 10.2949 27.313L14.406 25.3523ZM14.6613 27.8895C14.9892 27.7332 15.3703 27.7337 15.6977 27.8911L20.3401 30.1223C21.5351 30.6967 22.9199 29.8258 22.9199 28.5V11.8C22.9199 10.8059 22.114 10 21.1199 10H9.17988C8.18577 10 7.37988 10.8059 7.37988 11.8V28.5095C7.37988 29.833 8.76016 30.7039 9.95473 30.1342L14.6613 27.8895Z" fill="#CCFD38"/>
<path fill-rule="evenodd" clip-rule="evenodd" d="M12.1196 6.7C12.1196 6.03726 12.6569 5.5 13.3196 5.5H25.6196C26.6469 5.5 27.4796 6.33275 27.4796 7.36L27.4798 26.8C27.4798 27.4627 26.9425 28 26.2798 28C25.6171 28 25.0798 27.4627 25.0798 26.8L25.0796 8.85999C25.0796 8.3298 24.6498 7.9 24.1196 7.9H13.3196C12.6569 7.9 12.1196 7.36274 12.1196 6.7Z" fill="#CCFD38"/>
<path d="M7.38135 13.8C7.38135 12.8059 8.18724 12 9.18135 12H21.1213C22.1155 12 22.9213 12.8059 22.9213 13.8V27.36H7.38135V13.8Z" fill="#CCFD38"/>
</g>
<defs>
<clipPath id="clip0">
<rect width="36" height="36" fill="white"/>
</clipPath>
</defs>
</svg>
