<svg width="56" height="56" viewBox="0 0 56 56" fill="none" xmlns="http://www.w3.org/2000/svg">
<g clip-path="url(#clip0)">
<path fill-rule="evenodd" clip-rule="evenodd" d="M19.0847 16.7068C19.0847 16.1913 19.5025 15.7734 20.018 15.7734H22.118H33.9713H35.978C36.4935 15.7734 36.9113 16.1913 36.9113 16.7068C36.9113 17.2222 36.4935 17.6401 35.978 17.6401H35.4647C35.1554 17.6401 34.9047 17.8908 34.9047 18.2001V18.4801C34.9047 18.7894 35.1554 19.0401 35.4647 19.0401H36.5467C37.5479 19.0401 38.4728 19.5746 38.9727 20.442L40.8816 23.7544C41.4195 24.6877 40.7459 25.8534 39.6687 25.8534H16.5719C15.482 25.8534 14.8101 24.6629 15.3734 23.7298L17.3881 20.3929C17.895 19.5533 18.8043 19.0401 19.7851 19.0401H20.6247C20.9339 19.0401 21.1847 18.7894 21.1847 18.4801V18.2001C21.1847 17.8908 20.9339 17.6401 20.6247 17.6401H20.018C19.5025 17.6401 19.0847 17.2222 19.0847 16.7068ZM33.038 18.4801C33.038 18.7894 32.7873 19.0401 32.478 19.0401H23.6113C23.302 19.0401 23.0513 18.7894 23.0513 18.4801V18.2001C23.0513 17.8908 23.302 17.6401 23.6113 17.6401H32.478C32.7873 17.6401 33.038 17.8908 33.038 18.2001V18.4801ZM9.70482 24.6402C9.18935 24.6402 8.77148 25.0581 8.77148 25.5736C8.77148 26.089 9.18935 26.5069 9.70482 26.5069H10.4924C11.0793 26.5069 11.6086 26.8602 11.8338 27.4022C11.9071 27.5788 11.9449 27.7682 11.9449 27.9594V35.9862C11.9446 35.9997 11.9444 36.0133 11.9444 36.0269V40.1336C11.9444 41.1645 12.7802 42.0002 13.8111 42.0002C14.842 42.0002 15.6778 41.1645 15.6778 40.1336V39.386C15.6778 38.5612 16.3464 37.8926 17.1711 37.8926H39.0111C39.8359 37.8926 40.5045 38.5612 40.5045 39.386V40.1336C40.5045 41.1645 41.3402 42.0002 42.3711 42.0002C43.4021 42.0002 44.2378 41.1645 44.2378 40.1336V37.8928L44.238 37.8926L44.2382 37.8924V28.1922C44.2382 27.9956 44.277 27.8009 44.3525 27.6194L44.4322 27.4274C44.6637 26.8701 45.2078 26.5069 45.8113 26.5069H46.5716C47.0871 26.5069 47.5049 26.089 47.5049 25.5736C47.5049 25.0581 47.0871 24.6402 46.5716 24.6402H44.1916C43.8144 24.6402 43.4743 24.8672 43.3297 25.2155L42.7108 26.7055C42.4793 27.2628 41.9351 27.626 41.3317 27.626H14.9447C14.3413 27.626 13.7971 27.2628 13.5657 26.7055L12.9467 25.2155C12.8021 24.8672 12.462 24.6402 12.0848 24.6402H9.70482ZM17.9188 31.2203C16.8879 31.2203 16.0522 32.0561 16.0522 33.087C16.0522 34.1179 16.8879 34.9537 17.9188 34.9537H21.4655C22.4964 34.9537 23.3322 34.1179 23.3322 33.087C23.3322 32.0561 22.4964 31.2203 21.4655 31.2203H17.9188ZM33.0381 33.1334C33.0381 32.1024 33.8738 31.2667 34.9047 31.2667H38.4514C39.4823 31.2667 40.3181 32.1024 40.3181 33.1334C40.3181 34.1643 39.4823 35 38.4514 35H34.9047C33.8738 35 33.0381 34.1643 33.0381 33.1334Z" fill="#9896AE"/>
</g>
<defs>
<clipPath id="clip0">
<rect width="56" height="56" fill="white"/>
</clipPath>
</defs>
</svg>
