<svg width="48" height="48" viewBox="0 0 48 48" fill="none" xmlns="http://www.w3.org/2000/svg">
<path d="M0 24C0 10.7452 10.7452 0 24 0C37.2548 0 48 10.7452 48 24C48 37.2548 37.2548 48 24 48C10.7452 48 0 37.2548 0 24Z" fill="#EDF2FF"/>
<path d="M24.206 22.9961H33.8405C33.9468 23.6068 34 24.1901 34 24.7461C34 26.724 33.5969 28.4899 32.7907 30.0439C31.9845 31.598 30.835 32.8125 29.3422 33.6875C27.8494 34.5625 26.1373 35 24.206 35C22.8151 35 21.4906 34.7243 20.2326 34.1729C18.9745 33.6214 17.8893 32.8763 16.9767 31.9375C16.0642 30.9987 15.34 29.8822 14.804 28.5879C14.268 27.2936 14 25.931 14 24.5C14 23.069 14.268 21.7064 14.804 20.4121C15.34 19.1178 16.0642 18.0013 16.9767 17.0625C17.8893 16.1237 18.9745 15.3786 20.2326 14.8271C21.4906 14.2757 22.8151 14 24.206 14C26.8638 14 29.1451 14.916 31.0498 16.748L28.2724 19.4961C27.1827 18.4115 25.8272 17.8691 24.206 17.8691C23.0631 17.8691 22.0066 18.1654 21.0365 18.7578C20.0664 19.3503 19.2979 20.1546 18.7309 21.1709C18.1639 22.1872 17.8804 23.2969 17.8804 24.5C17.8804 25.7031 18.1639 26.8128 18.7309 27.8291C19.2979 28.8454 20.0664 29.6497 21.0365 30.2422C22.0066 30.8346 23.0631 31.1309 24.206 31.1309C24.9767 31.1309 25.6855 31.0215 26.3322 30.8027C26.979 30.584 27.5105 30.3105 27.9269 29.9824C28.3433 29.6543 28.7065 29.2806 29.0166 28.8613C29.3267 28.4421 29.5548 28.0456 29.701 27.6719C29.8472 27.2982 29.9468 26.9427 30 26.6055H24.206V22.9961Z" fill="#9896AE"/>
</svg>
