<svg width="56" height="56" viewBox="0 0 56 56" fill="none" xmlns="http://www.w3.org/2000/svg">
<g clip-path="url(#clip0)">
<path d="M49.0002 9.66667C46.4102 8.85 43.5635 8.5 40.8335 8.5C36.2835 8.5 31.3835 9.43333 28.0002 12C24.6168 9.43333 19.7168 8.5 15.1668 8.5C10.6168 8.5 5.71683 9.43333 2.3335 12V46.1833C2.3335 46.7667 2.91683 47.35 3.50016 47.35C3.7335 47.35 3.85016 47.2333 4.0835 47.2333C7.2335 45.7167 11.7835 44.6667 15.1668 44.6667C19.7168 44.6667 24.6168 45.6 28.0002 48.1667C31.1502 46.1833 36.8668 44.6667 40.8335 44.6667C44.6835 44.6667 48.6502 45.3667 51.9168 47.1167C52.1502 47.2333 52.2668 47.2333 52.5002 47.2333C53.0835 47.2333 53.6668 46.65 53.6668 46.0667V12C52.2668 10.95 50.7502 10.25 49.0002 9.66667ZM49.0002 41.1667C46.4335 40.35 43.6335 40 40.8335 40C36.8668 40 31.1502 41.5167 28.0002 43.5V16.6667C31.1502 14.6833 36.8668 13.1667 40.8335 13.1667C43.6335 13.1667 46.4335 13.5167 49.0002 14.3333V41.1667Z" fill="#9896AE"/>
<path d="M40.8335 22.5C42.8868 22.5 44.8702 22.71 46.6668 23.1067V19.56C44.8235 19.21 42.8402 19 40.8335 19C36.8668 19 33.2735 19.6767 30.3335 20.9367V24.81C32.9702 23.3167 36.6335 22.5 40.8335 22.5Z" fill="#9896AE"/>
<path d="M30.3335 27.1437V31.017C32.9702 29.5237 36.6335 28.707 40.8335 28.707C42.8868 28.707 44.8702 28.917 46.6668 29.3137V25.767C44.8235 25.417 42.8402 25.207 40.8335 25.207C36.8668 25.207 33.2735 25.907 30.3335 27.1437Z" fill="#9896AE"/>
<path d="M40.8335 31.4365C36.8668 31.4365 33.2735 32.1132 30.3335 33.3732V37.2465C32.9702 35.7532 36.6335 34.9365 40.8335 34.9365C42.8868 34.9365 44.8702 35.1465 46.6668 35.5432V31.9965C44.8235 31.6232 42.8402 31.4365 40.8335 31.4365Z" fill="#9896AE"/>
</g>
<defs>
<clipPath id="clip0">
<rect width="56" height="56" fill="white"/>
</clipPath>
</defs>
</svg>
