<svg width="35" height="35" viewBox="0 0 35 35" fill="none" xmlns="http://www.w3.org/2000/svg">
<path d="M3.979 23.7351V7.09058C3.979 6.82318 4.25912 6.6482 4.49942 6.7655L11.0108 9.94382C11.135 10.0045 11.2139 10.1306 11.2139 10.2689V26.9134C11.2139 27.1808 10.9337 27.3558 10.6934 27.2385L4.18207 24.0602C4.05782 23.9995 3.979 23.8734 3.979 23.7351Z" fill="#9896AE"/>
<path d="M20.6191 23.7349V7.09034C20.6191 6.82293 20.339 6.64796 20.0987 6.76526L13.5874 9.94358C13.4631 10.0042 13.3843 10.1304 13.3843 10.2687V26.9132C13.3843 27.1806 13.6644 27.3556 13.9047 27.2383L20.4161 24.0599C20.5403 23.9993 20.6191 23.8731 20.6191 23.7349Z" fill="#9896AE"/>
<path fill-rule="evenodd" clip-rule="evenodd" d="M22.7896 23.735V7.09047C22.7896 6.82306 23.0697 6.64809 23.31 6.76539L29.8213 9.9437C29.9456 10.0044 30.0244 10.1305 30.0244 10.2688V26.9133C30.0244 27.1807 29.7443 27.3557 29.504 27.2384L22.9926 24.0601C22.8684 23.9994 22.7896 23.8732 22.7896 23.735ZM25.2782 12.8875L23.9885 11.5977L24.7559 10.8304L26.0456 12.1201L27.3353 10.8304L28.1027 11.5977L26.813 12.8875L28.2383 14.3128L27.4709 15.0801L26.0456 13.6548L24.6203 15.0801L23.8529 14.3128L25.2782 12.8875Z" fill="#9896AE"/>
</svg>
