<svg width="40" height="40" viewBox="0 0 40 40" fill="none" xmlns="http://www.w3.org/2000/svg">
<path d="M4.25127 31.5321C7.72627 31.8446 10.8575 30.9696 13.7075 28.8321C10.7263 28.5696 8.73252 27.0821 7.62002 24.2946C8.59502 24.4134 9.50752 24.4446 10.4763 24.1821C7.26377 23.1821 5.55127 21.0821 5.32002 17.6946C6.28252 18.1446 7.18877 18.4696 8.25752 18.4821C6.35127 17.0509 5.37627 15.1946 5.41377 12.8571C5.43252 11.7821 5.72002 10.7696 6.28877 9.81336C9.82002 13.9446 14.2513 16.2321 19.7075 16.6134C19.6763 16.3759 19.6575 16.1884 19.6325 15.9946C19.1825 12.5321 21.4325 9.38211 24.87 8.72586C27.0263 8.31336 28.9325 8.88211 30.545 10.3696C30.795 10.5946 31.0075 10.6446 31.32 10.5634C32.5763 10.2446 33.77 9.78211 34.9263 9.15711C34.4825 10.6196 33.57 11.7196 32.3325 12.6446C32.6138 12.5946 32.9013 12.5571 33.1825 12.5009C33.4763 12.4384 33.77 12.3696 34.0638 12.2884C34.345 12.2134 34.62 12.1259 34.895 12.0321C35.1763 11.9384 35.4575 11.8321 35.7888 11.7759C35.6263 12.0009 35.47 12.2384 35.295 12.4571C34.57 13.3759 33.7325 14.1821 32.8138 14.9009C32.72 14.9759 32.6388 15.1384 32.645 15.2509C32.695 17.4696 32.3825 19.6321 31.6638 21.7321C30.2513 25.8696 27.7888 29.2196 24.095 31.6134C22.27 32.7946 20.2763 33.5696 18.145 34.0196C16.0325 34.4634 13.9075 34.5446 11.7763 34.2946C9.63877 34.0446 7.60752 33.4134 5.69502 32.4259C5.18877 32.1696 4.70127 31.8821 4.20752 31.6071C4.22627 31.5821 4.23877 31.5571 4.25127 31.5321Z" fill="#9896AE"/>
</svg>
