<svg width="57" height="56" viewBox="0 0 57 56" fill="none" xmlns="http://www.w3.org/2000/svg">
<g clip-path="url(#clip0)">
<path fill-rule="evenodd" clip-rule="evenodd" d="M34.4617 12.0656C34.4617 11.3477 33.6851 10.8986 33.0629 11.2566L23.5438 16.7338C23.0228 17.0336 22.7017 17.5889 22.7017 18.19V43.7912C22.7017 44.5091 23.4783 44.9582 24.1005 44.6002L33.6196 39.123C34.1406 38.8232 34.4617 38.2679 34.4617 37.6668V31.5445C30.2188 31.4445 26.81 27.9737 26.81 23.7068C26.81 19.4398 30.2188 15.969 34.4617 15.869V12.0656ZM34.4617 17.7363C31.2498 17.8358 28.6767 20.4708 28.6767 23.7068C28.6767 26.9427 31.2498 29.5777 34.4617 29.6772V17.7363ZM36.608 29.3518V18.0617C38.9453 18.8723 40.6233 21.0936 40.6233 23.7068C40.6233 26.32 38.9453 28.5412 36.608 29.3518ZM36.608 31.3003C37.7191 31.0146 38.735 30.4915 39.5983 29.7882L43.9459 34.1358C44.3104 34.5003 44.9013 34.5003 45.2658 34.1358C45.6303 33.7713 45.6303 33.1803 45.2658 32.8158L40.896 28.446C41.8963 27.1297 42.49 25.4876 42.49 23.7068C42.49 20.0529 39.9904 16.9828 36.608 16.1132V12.1136C36.608 11.3957 37.3846 10.9466 38.0068 11.3046L47.5258 16.7818C48.0468 17.0816 48.368 17.6369 48.368 18.238V43.7926C48.368 44.5104 47.5914 44.9596 46.9691 44.6015L37.4501 39.1243C36.9291 38.8245 36.608 38.2692 36.608 37.6681V31.3003ZM10.1937 11.3046C9.57151 10.9466 8.79492 11.3957 8.79492 12.1136V37.6681C8.79492 38.2692 9.11606 38.8245 9.63706 39.1243L19.1561 44.6015C19.7783 44.9596 20.5549 44.5104 20.5549 43.7926V18.238C20.5549 17.6369 20.2338 17.0816 19.7128 16.7818L10.1937 11.3046Z" fill="#9896AE"/>
</g>
<defs>
<clipPath id="clip0">
<rect width="56" height="56" fill="white" transform="translate(0.582031)"/>
</clipPath>
</defs>
</svg>
