<svg width="56" height="56" viewBox="0 0 56 56" fill="none" xmlns="http://www.w3.org/2000/svg">
<g clip-path="url(#clip0)">
<path d="M39.76 27.7194C38.3413 27.7194 37.8 28.995 37.7066 29.6327L36.3066 28.1861L37.7066 26.5527L39.76 27.7194Z" fill="#9896AE"/>
<path d="M41.908 27.7216C43.3267 27.7216 44.0547 28.9816 43.9613 29.6816L45.3613 28.2349L43.9613 26.6016L41.908 27.7216Z" fill="#9896AE"/>
<path d="M14.0944 27.7216C12.6757 27.7216 11.9477 28.9816 12.041 29.6816L10.7344 28.2349L12.041 26.6016L14.0944 27.7216Z" fill="#9896AE"/>
<path d="M29.8664 39.3365L29.8662 39.34L28.3818 38.5104L29.1196 36.7734L31.1579 37.274C29.9406 37.6102 29.8923 38.7333 29.8664 39.3365Z" fill="#9896AE"/>
<path d="M24.8271 37.2872C26.0467 37.6241 26.1079 38.7381 26.1338 39.3405L27.5752 38.5318L26.8374 36.7949L24.8271 37.2872Z" fill="#9896AE"/>
<path d="M16.1932 27.7194C17.6118 27.7194 18.1532 28.995 18.2465 29.6327L19.6465 28.1861L18.2465 26.5527L16.1932 27.7194Z" fill="#9896AE"/>
<path fill-rule="evenodd" clip-rule="evenodd" d="M26.1329 41.7565C26.1329 42.8725 25.155 43.7475 24.0726 43.4754C17.1049 41.7235 11.9462 35.4171 11.9462 27.9058C11.9462 27.8024 12.0305 27.7191 12.134 27.7191H18.108C18.1068 27.7812 18.1062 27.8434 18.1062 27.9058C18.1062 32.7316 21.5614 36.7504 26.1329 37.6233V41.7565ZM29.8662 37.6233V41.7565C29.8662 42.8725 30.8441 43.7475 31.9265 43.4754C38.8942 41.7235 44.0529 35.4171 44.0529 27.9058C44.0529 27.8024 43.9686 27.7191 43.8652 27.7191H37.8912C37.8923 27.7812 37.8929 27.8434 37.8929 27.9058C37.8929 32.7316 34.4377 36.7504 29.8662 37.6233ZM17.4996 23.9858H14.8212C13.6061 23.9858 12.7139 22.8378 13.1827 21.7167C15.6055 15.9233 21.3271 11.8525 27.9996 11.8525C34.672 11.8525 40.3936 15.9233 42.8164 21.7167C43.2852 22.8378 42.393 23.9858 41.1779 23.9858H37.7529H37.0859H18.9132H17.4996ZM27.9996 47.6925C38.9274 47.6925 47.7862 38.8337 47.7862 27.9058C47.7862 16.9779 38.9274 8.11914 27.9996 8.11914C17.0717 8.11914 8.21289 16.9779 8.21289 27.9058C8.21289 38.8337 17.0717 47.6925 27.9996 47.6925ZM33.1741 30.0493C33.6389 28.9272 32.6158 27.9062 31.4013 27.9062H28.0004H24.5995C23.385 27.9062 22.3619 28.9272 22.8267 30.0493C23.1081 30.7287 23.5206 31.346 24.0406 31.866C24.5606 32.3861 25.1779 32.7985 25.8574 33.08C26.5368 33.3614 27.265 33.5063 28.0004 33.5063C28.7358 33.5063 29.464 33.3614 30.1434 33.08C30.8228 32.7985 31.4402 32.3861 31.9602 31.866C32.4802 31.346 32.8927 30.7287 33.1741 30.0493Z" fill="#9896AE"/>
</g>
<defs>
<clipPath id="clip0">
<rect width="56" height="56" fill="white"/>
</clipPath>
</defs>
</svg>
