<svg width="14" height="14" viewBox="0 0 14 14" fill="none" xmlns="http://www.w3.org/2000/svg">
<path d="M1.45162 3.5C1.86773 3.5 2.50181 3.5 2.85847 3.5C3.03681 3.5 3.17551 3.62109 3.23496 3.78255C3.41329 4.30727 3.80959 5.45764 4.26533 6.24473C4.87959 7.27401 5.27589 7.65746 5.53349 7.6171C5.79108 7.55655 5.71182 6.87037 5.71182 6.32546C5.71182 5.78055 5.77126 4.85218 5.51367 4.42837L5.11737 3.84309C5.0183 3.70182 5.11737 3.52018 5.27589 3.52018H7.53479C7.75275 3.52018 7.93109 3.70182 7.93109 3.92382V6.85019C7.93109 6.85019 8.03016 7.37491 8.58498 6.83C9.1398 6.28509 9.73424 5.276 10.2296 4.24673L10.4278 3.76236C10.4872 3.62109 10.6259 3.52018 10.7844 3.52018H12.2507C12.5281 3.52018 12.7263 3.80273 12.6272 4.06509L12.4687 4.48891C12.4687 4.48891 11.9337 5.57873 11.3789 6.34564C10.8241 7.13273 10.7052 7.31437 10.7844 7.51619C10.8637 7.71801 12.2904 9.07019 12.647 9.71601C12.7461 9.89765 12.8254 10.0591 12.9046 10.2004C13.0433 10.4627 12.8452 10.8058 12.548 10.8058H10.8835C10.7448 10.8058 10.6061 10.7251 10.5467 10.604L10.3881 10.3416C10.3881 10.3416 9.37758 9.13074 8.76331 8.74728C8.12924 8.38401 8.14905 8.90874 8.14905 8.90874V9.97837C8.14905 10.4224 7.79238 10.7856 7.35646 10.7856H6.96016C6.96016 10.7856 4.78052 10.7856 3.03681 8.14183C1.66958 6.08328 1.21384 4.75127 1.05532 3.98436C1.01569 3.74218 1.19402 3.5 1.45162 3.5Z" fill="#9896AE"/>
</svg>
