<svg width="56" height="56" viewBox="0 0 56 56" fill="none" xmlns="http://www.w3.org/2000/svg">
<g clip-path="url(#clip0)">
<path fill-rule="evenodd" clip-rule="evenodd" d="M16.9761 18.1957C14.3702 20.8017 12.5351 23.8882 11.47 27.1738C11.3034 27.6878 11.453 28.2478 11.8352 28.6299L23.0411 39.8359C23.4232 40.218 23.9832 40.3677 24.4973 40.201C26.2044 39.6476 27.8578 38.8863 29.418 37.9171C27.6662 34.2411 28.3122 29.7078 31.3558 26.6641C33.5509 24.469 36.521 23.521 39.3854 23.8203C39.3343 23.5276 39.1916 23.2521 38.9742 23.0347L28.6363 12.6968C28.2759 12.3364 27.7556 12.1812 27.2622 12.3088C23.49 13.2846 19.9254 15.2465 16.9761 18.1957ZM33.6964 11.5961C33.3653 11.5855 33.2009 11.9817 33.4352 12.216L39.4551 18.2358C39.6894 18.4701 40.0855 18.3058 40.075 17.9746C40.0245 16.3902 39.8094 14.8092 39.4298 13.2593C39.3067 12.7565 38.9146 12.3643 38.4117 12.2412C36.8618 11.8617 35.2808 11.6466 33.6964 11.5961ZM11.0216 39.6313C10.5142 37.5594 10.3007 35.4318 10.3814 33.3151C10.3936 32.9958 10.7773 32.8518 11.0032 33.0777L18.5933 40.6678C18.8193 40.8938 18.6752 41.2775 18.356 41.2896C16.2392 41.3703 14.1116 41.1568 12.0397 40.6495C11.5368 40.5263 11.1447 40.1342 11.0216 39.6313ZM28.0285 28.1933C27.664 28.5578 27.073 28.5578 26.7085 28.1933L25.2911 26.7759L23.7076 28.3593L25.126 29.7777C25.4905 30.1422 25.4905 30.7332 25.126 31.0976C24.7615 31.4621 24.1706 31.4621 23.8061 31.0976L22.3877 29.6793L21.1331 30.9338C20.7687 31.2983 20.1777 31.2983 19.8132 30.9338C19.4487 30.5693 19.4487 29.9784 19.8132 29.6139L21.0678 28.3593L19.5493 26.8409C19.1848 26.4764 19.1848 25.8854 19.5493 25.5209C19.9138 25.1564 20.5048 25.1564 20.8693 25.5209L22.3877 27.0394L23.9712 25.4559L22.4517 23.9365C22.0873 23.572 22.0873 22.9811 22.4517 22.6166C22.8162 22.2521 23.4072 22.2521 23.7717 22.6166L25.2911 24.136L26.8745 22.5526L25.3561 21.0341C24.9916 20.6696 24.9916 20.0786 25.3561 19.7142C25.7206 19.3497 26.3115 19.3497 26.676 19.7142L28.1945 21.2326L29.2177 20.2094C29.5822 19.8449 30.1732 19.8449 30.5377 20.2094C30.9022 20.5739 30.9022 21.1648 30.5377 21.5293L29.5144 22.5526L30.9328 23.9709C31.2973 24.3354 31.2973 24.9264 30.9328 25.2909C30.5683 25.6554 29.9774 25.6554 29.6129 25.2909L28.1945 23.8725L26.611 25.4559L28.0285 26.8734C28.393 27.2379 28.393 27.8288 28.0285 28.1933ZM44.0263 27.9833C46.17 30.1269 46.8477 33.1814 46.0594 35.9009C45.6831 35.8515 45.3096 35.7305 44.9585 35.5323C44.0792 35.036 43.541 34.1701 43.4302 33.2382L43.4094 33.2407C43.2643 32.2253 42.8003 31.245 42.0195 30.4643C40.1039 28.5487 36.9987 28.5433 35.0838 30.4582C33.1689 32.3731 33.1743 35.4784 35.0899 37.3939C35.8573 38.1614 36.8175 38.6228 37.8144 38.7761L37.8111 38.8037C38.7431 38.9145 39.6089 39.4527 40.1052 40.3319C40.2981 40.6736 40.4179 41.0364 40.4697 41.4023C37.7814 42.1353 34.7863 41.4461 32.6749 39.3347C29.5403 36.2001 29.5403 31.1179 32.6749 27.9833C35.8095 24.8487 40.8917 24.8487 44.0263 27.9833ZM44.0409 37.1579C44.4496 37.3886 44.8773 37.5544 45.312 37.6588C44.9672 38.2581 44.5386 38.8224 44.0263 39.3347C43.4805 39.8806 42.8755 40.3314 42.2321 40.6871C42.1278 40.2518 41.9618 39.8236 41.7308 39.4144C40.9607 38.05 39.6358 37.1952 38.2025 36.9734L38.2058 36.9458C37.5496 36.8686 36.9146 36.5788 36.4098 36.074C35.2205 34.8847 35.2205 32.9614 36.4037 31.7782C37.587 30.5949 39.5103 30.5949 40.6996 31.7842C41.2044 32.289 41.4942 32.924 41.5713 33.5802L41.5922 33.5777C41.8012 35.0309 42.6601 36.3785 44.0409 37.1579Z" fill="#9896AE"/>
</g>
<defs>
<clipPath id="clip0">
<rect width="56" height="56" fill="white"/>
</clipPath>
</defs>
</svg>
