<svg width="36" height="36" viewBox="0 0 36 36" fill="none" xmlns="http://www.w3.org/2000/svg">
<g clip-path="url(#clip0)">
<path fill-rule="evenodd" clip-rule="evenodd" d="M24.0295 26.4211C24.0389 26.4143 24.0405 26.4009 24.0328 26.3922C23.76 26.0843 23.3239 25.7155 22.7346 25.3596C21.559 24.6495 19.8887 24.0598 17.9701 24.0598C16.0356 24.0598 14.3327 24.621 13.1316 25.3015C12.5294 25.6427 12.085 25.996 11.8085 26.2908C11.7921 26.3082 11.7948 26.336 11.814 26.3502C13.5345 27.6252 15.6643 28.3793 17.9702 28.3793C20.233 28.3793 22.3262 27.6531 24.0295 26.4211ZM25.3302 24.2997C25.5992 24.5424 26.0244 24.5401 26.2424 24.2507C27.5469 22.519 28.3202 20.3644 28.3202 18.0293C28.3202 12.3131 23.6864 7.6793 17.9702 7.6793C12.2541 7.6793 7.62021 12.3131 7.62021 18.0293C7.62021 20.5464 8.51878 22.8537 10.0126 24.6478C10.0243 24.6618 10.0455 24.6623 10.0579 24.649C10.5352 24.1401 11.1858 23.6455 11.9485 23.2133C13.4774 22.3471 15.5845 21.6598 17.9701 21.6598C20.3714 21.6598 22.4662 22.3936 23.9755 23.3052C24.4866 23.614 24.944 23.9511 25.3302 24.2997ZM17.9702 30.7793C25.0118 30.7793 30.7202 25.0709 30.7202 18.0293C30.7202 10.9877 25.0118 5.2793 17.9702 5.2793C10.9286 5.2793 5.22021 10.9877 5.22021 18.0293C5.22021 25.0709 10.9286 30.7793 17.9702 30.7793ZM19.8 15.7197C19.8 16.7138 18.9942 17.5197 18 17.5197C17.0059 17.5197 16.2 16.7138 16.2 15.7197C16.2 14.7256 17.0059 13.9197 18 13.9197C18.9942 13.9197 19.8 14.7256 19.8 15.7197ZM22.2 15.7197C22.2 18.0393 20.3196 19.9197 18 19.9197C15.6804 19.9197 13.8 18.0393 13.8 15.7197C13.8 13.4001 15.6804 11.5197 18 11.5197C20.3196 11.5197 22.2 13.4001 22.2 15.7197Z" fill="#CCFD38"/>
<path d="M10.0501 24.3591C9.83408 24.3591 9.66008 24.1991 9.60008 24.1191L9.33008 24.3891L9.99008 24.9291L10.8601 24.4791L10.6201 24.1191C10.4101 24.2991 10.3201 24.3591 10.0501 24.3591Z" fill="#CCFD38"/>
<path d="M12.1498 26.2488C12.1498 26.0328 12.2898 25.8588 12.3598 25.7988L11.3998 25.8888L10.2598 26.2788L12.4198 26.7588C12.2998 26.6388 12.1498 26.5188 12.1498 26.2488Z" fill="#CCFD38"/>
<path d="M23.6701 26.3094C23.6701 26.0934 23.5301 25.9194 23.4601 25.8594L24.4201 25.9494L25.5601 26.3394L23.4001 26.8494C23.5201 26.7294 23.6701 26.5794 23.6701 26.3094Z" fill="#CCFD38"/>
</g>
<defs>
<clipPath id="clip0">
<rect width="36" height="36" fill="white"/>
</clipPath>
</defs>
</svg>
