<svg width="34" height="34" viewBox="0 0 34 34" fill="none" xmlns="http://www.w3.org/2000/svg">
<path d="M16.5 13L11 21L14 24L22 18V12.5L16.5 13Z" fill="#9896AE" stroke="#9896AE"/>
<path d="M15.4999 10.5L10.4999 18C8.49995 14.4 8.99995 9.83333 9.49995 8C13.8999 7.2 14.3333 4.33333 14.4999 3H24.9999C24.9999 7.8 28.6666 8.66667 30.4999 8.5C31.2999 26.1 22.1666 28.8333 17.4999 28L18.4999 26.5L16.9999 25L24.4999 18.5L23.9999 9.5L15.4999 10.5Z" fill="#9896AE" stroke="#9896AE"/>
<path d="M15 27L8 20.5L7.5 21L9 24L6.5 27H5L4 28L7.5 31.5L8.5 30V28.5L11 26L14.5 27.5L15 27Z" fill="#9896AE" stroke="#9896AE"/>
</svg>
