<svg width="57" height="56" viewBox="0 0 57 56" fill="none" xmlns="http://www.w3.org/2000/svg">
<g clip-path="url(#clip0)">
<path fill-rule="evenodd" clip-rule="evenodd" d="M33.9297 19.9267C33.9297 23.1999 31.2762 25.8533 28.003 25.8533C24.7298 25.8533 22.0763 23.1999 22.0763 19.9267C22.0763 16.6535 24.7298 14 28.003 14C31.2762 14 33.9297 16.6535 33.9297 19.9267ZM13.3719 25.8533C13.3719 28.1214 15.2105 29.96 17.4785 29.96C19.7466 29.96 21.5852 28.1214 21.5852 25.8533C21.5852 23.5853 19.7466 21.7466 17.4785 21.7466C15.2105 21.7466 13.3719 23.5853 13.3719 25.8533ZM38.5965 29.96C40.8645 29.96 42.7032 28.1214 42.7032 25.8533C42.7032 23.5853 40.8645 21.7466 38.5965 21.7466C36.3284 21.7466 34.4898 23.5853 34.4898 25.8533C34.4898 28.1214 36.3284 29.96 38.5965 29.96ZM41.6016 41.9992C41.1119 41.9992 40.8373 41.3939 41.0942 40.977C41.566 40.2114 41.8773 39.337 41.9533 38.3951C42.0369 37.3586 41.8681 35.929 41.2827 34.5404C41.0264 33.9325 41.517 33.191 42.1522 33.3689C44.4049 34 46.0522 35.0996 46.95 36.2592C47.846 37.4166 47.8522 38.9192 47.79 39.5259C47.5286 41.5046 45.97 41.9992 45.2233 41.9992H43.1232H41.6016ZM14.4727 41.9992C14.9623 41.9992 15.2369 41.3939 14.98 40.977C14.5082 40.2114 14.1969 39.337 14.1209 38.3951C14.0373 37.3586 14.2062 35.929 14.7916 34.5404C15.0478 33.9325 14.5573 33.191 13.922 33.3689C11.6693 34 10.022 35.0996 9.12428 36.2592C8.22828 37.4166 8.22206 38.9192 8.28428 39.5259C8.54561 41.5046 10.1043 41.9992 10.8509 41.9992H14.1884H14.4727ZM16.0096 36.9048C15.9163 33.6001 21.2547 29.9601 28.1211 29.9601C34.9875 29.9601 40.0896 33.8334 40.0896 37.1871V37.2867C40.0896 39.8641 38.0002 41.9534 35.4229 41.9534H20.6762C18.0989 41.9534 16.0096 39.8641 16.0096 37.2867V36.9048Z" fill="#9896AE"/>
</g>
<defs>
<clipPath id="clip0">
<rect width="56" height="56" fill="white" transform="translate(0.0507812)"/>
</clipPath>
</defs>
</svg>
