<svg width="35" height="35" viewBox="0 0 35 35" fill="none" xmlns="http://www.w3.org/2000/svg">
<path d="M9.08347 4.37674C9.06218 4.16379 9.22941 3.979 9.44342 3.979H11.972C12.1579 3.979 12.3135 4.11983 12.332 4.30475L12.9831 10.8161C13.0044 11.0291 12.8372 11.2139 12.6231 11.2139H10.0946C9.90871 11.2139 9.7531 11.073 9.73461 10.8881L9.08347 4.37674Z" fill="#9896AE"/>
<rect x="10.1289" y="11.2139" width="3.61742" height="13.3845" rx="0.723485" transform="rotate(-90 10.1289 11.2139)" fill="#9896AE"/>
<rect x="7.23511" y="30.0247" width="2.5322" height="19.1723" rx="0.361742" transform="rotate(-90 7.23511 30.0247)" fill="#9896AE"/>
<rect x="9.40552" y="26.0454" width="2.5322" height="14.8314" rx="0.361742" transform="rotate(-90 9.40552 26.0454)" fill="#9896AE"/>
<rect x="15.1934" y="3.25562" width="3.25568" height="7.95833" rx="0.361742" fill="#9896AE"/>
<path d="M12.7941 12.9665C12.8217 12.7905 12.9734 12.6609 13.1515 12.6609H20.8529C21.031 12.6609 21.1826 12.7905 21.2102 12.9665L23.0861 24.904C23.1206 25.1235 22.9509 25.3219 22.7288 25.3219H11.2756C11.0534 25.3219 10.8837 25.1235 10.9182 24.904L12.7941 12.9665Z" fill="#9896AE"/>
<path d="M21.3105 4.30475C21.329 4.11983 21.4846 3.979 21.6705 3.979H24.3699C24.5875 3.979 24.7558 4.16971 24.7288 4.38561L23.9149 10.897C23.8923 11.078 23.7384 11.2139 23.556 11.2139H21.0193C20.8053 11.2139 20.6381 11.0291 20.6594 10.8161L21.3105 4.30475Z" fill="#9896AE"/>
</svg>
