<svg width="57" height="56" viewBox="0 0 57 56" fill="none" xmlns="http://www.w3.org/2000/svg">
<g clip-path="url(#clip0)">
<path d="M21.5292 11.7863C23.1872 12.5235 25.0197 12.7773 26.8156 12.5182C28.6115 12.2592 30.2976 11.498 31.6797 10.3223" stroke="#9896AE" stroke-width="2.8" stroke-linecap="round" stroke-linejoin="round"/>
<path d="M32.0008 10.8013C33.154 12.2022 34.6796 13.2486 36.4017 13.8201C38.1239 14.3916 39.9724 14.4648 41.7344 14.0312" stroke="#9896AE" stroke-width="2.8" stroke-linecap="round" stroke-linejoin="round"/>
<path d="M44.9161 34.215C44.1125 32.5882 43.7849 30.7674 43.9712 28.9625C44.1574 27.1576 44.8499 25.4421 45.9688 24.0137" stroke="#9896AE" stroke-width="2.8" stroke-linecap="round" stroke-linejoin="round"/>
<path d="M45.4781 23.7123C44.0318 22.6166 42.9245 21.1346 42.2839 19.4369C41.6433 17.7393 41.4955 15.8952 41.8574 14.1172" stroke="#9896AE" stroke-width="2.8" stroke-linecap="round" stroke-linejoin="round"/>
<path fill-rule="evenodd" clip-rule="evenodd" d="M32.8597 24.421L33.4249 23.8557C34.4969 22.7837 34.4969 21.0456 33.4249 19.9736C32.3529 18.9015 30.6147 18.9015 29.5427 19.9736L27.9473 21.569C29.0096 20.4962 29.0063 18.7654 27.9375 17.6966C26.8655 16.6246 25.1274 16.6246 24.0554 17.6966L20.6277 21.1242L20.6291 21.1256L20.6467 21.1432L20.6644 21.1609L20.6821 21.1786L20.6999 21.1964L20.7177 21.2141L20.7355 21.232L20.7534 21.2498L20.7712 21.2677L20.7892 21.2856L20.8071 21.3036L20.8251 21.3216L20.8431 21.3396L20.8611 21.3576L20.8792 21.3757L20.8973 21.3938L20.9155 21.4119L20.9336 21.4301L20.9518 21.4483L20.97 21.4665L20.9883 21.4847L21.0065 21.503L21.0248 21.5213L21.0432 21.5396L21.0615 21.558L21.0799 21.5763L21.0983 21.5947L21.1167 21.6132L21.1351 21.6316L21.1536 21.6501L21.1721 21.6686L21.1906 21.6871L21.2091 21.7056L21.2277 21.7242L21.2463 21.7427L21.2649 21.7613L21.2835 21.7799L21.3021 21.7986L21.3208 21.8172L21.3394 21.8359L21.3581 21.8546L21.3768 21.8733L21.3955 21.892L21.4143 21.9107L21.433 21.9295L21.4518 21.9483L21.4706 21.967L21.4894 21.9858L21.5082 22.0047L21.527 22.0235L21.5458 22.0423L21.5647 22.0612L21.5836 22.08L21.6024 22.0989L21.6213 22.1178L21.6402 22.1367L21.6591 22.1556L21.678 22.1745L21.6969 22.1934L21.7159 22.2124L21.7348 22.2313L21.7538 22.2502L21.7727 22.2692L21.7917 22.2882L21.8107 22.3071L21.8296 22.3261L21.8486 22.3451L21.8676 22.3641L21.8866 22.3831L21.9056 22.4021L21.9246 22.4211L21.9436 22.4401L21.9626 22.4591L21.9816 22.4781L22.0006 22.4971L22.0196 22.5161L22.0386 22.5351L22.0576 22.5541L22.0766 22.5731L22.0956 22.5921L22.1146 22.6111L22.1336 22.6301L22.1526 22.6491L22.1716 22.6681L22.1906 22.6871L22.2096 22.7061L22.2286 22.7251L22.2476 22.7441L22.2666 22.7631L22.2856 22.782L22.3045 22.801L22.3235 22.82L22.3425 22.8389L22.3614 22.8579L22.3803 22.8768L22.3993 22.8957L22.4182 22.9147L22.4371 22.9336L22.456 22.9525L22.4749 22.9714L22.4938 22.9903L22.5127 23.0091L22.5315 23.028L22.5504 23.0469L22.5692 23.0657L22.588 23.0845L22.6068 23.1033L22.6256 23.1221L22.6444 23.1409L22.6632 23.1597L22.6819 23.1784L22.7007 23.1972L22.7194 23.2159L22.7381 23.2346L22.7568 23.2533L22.7755 23.2719L22.7941 23.2906L22.8127 23.3092L22.8313 23.3278L22.8499 23.3464L22.8685 23.365L22.8871 23.3835L22.9056 23.4021L22.9241 23.4206L22.9426 23.4391L22.9611 23.4575L22.9795 23.476L22.9979 23.4944L23.0163 23.5128L23.0347 23.5312L23.053 23.5495L23.0713 23.5678L23.0896 23.5861L23.1079 23.6044L23.1262 23.6226L23.1444 23.6408L23.1626 23.659L23.1807 23.6772L23.1988 23.6953L23.2169 23.7134L23.235 23.7315L23.2531 23.7495L23.2711 23.7675L23.2891 23.7855L23.307 23.8035L23.3249 23.8214L23.3428 23.8393L23.3607 23.8571L23.3785 23.875L23.3963 23.8927L23.414 23.9105L23.4317 23.9282L23.4494 23.9459L23.4671 23.9635L23.4847 23.9811L23.5022 23.9987L23.5198 24.0163L23.5373 24.0338L23.5547 24.0512L23.5722 24.0686L23.5895 24.086L23.6069 24.1034L23.6242 24.1207L23.6415 24.1379L23.6587 24.1552L23.6759 24.1723L23.693 24.1895L23.7101 24.2066L23.7272 24.2236L23.7442 24.2406L23.7611 24.2576L23.7781 24.2745L23.7949 24.2914L23.8118 24.3082L23.8286 24.325L23.8453 24.3418L23.862 24.3585L23.8787 24.3751L23.8953 24.3917L23.9118 24.4083L23.9283 24.4248L23.9448 24.4412L23.9612 24.4577L23.9775 24.474L23.9939 24.4903L24.0101 24.5066L24.0263 24.5228L24.0425 24.5389L24.0586 24.555L24.0746 24.5711L24.0906 24.5871L24.1066 24.603L24.1225 24.6189L24.1383 24.6348L24.1541 24.6505L24.1698 24.6663L24.1855 24.6819L24.2011 24.6975L24.2166 24.7131L24.2321 24.7286L24.2476 24.744L24.2629 24.7594L24.2783 24.7747L24.2935 24.79L24.3087 24.8052L24.3239 24.8204L24.339 24.8354L24.354 24.8505L24.369 24.8654L24.3839 24.8803L24.3987 24.8952L24.4135 24.9099L24.4282 24.9246L24.4428 24.9393L24.4574 24.9539L24.4719 24.9684L24.4864 24.9828L24.5008 24.9972L24.5151 25.0116L24.5293 25.0258L24.5435 25.04L24.5576 25.0541L24.5717 25.0682L24.5857 25.0821L24.5996 25.0961L24.6134 25.1099L24.6272 25.1237L24.6409 25.1374L24.6545 25.151L24.6681 25.1646L24.6816 25.1781L24.695 25.1915L24.7083 25.2048L24.7216 25.2181L24.7348 25.2313L24.7479 25.2444L24.761 25.2574L24.7739 25.2704L24.7868 25.2833L24.7997 25.2961L24.8124 25.3089L24.8251 25.3215L24.8377 25.3341L24.8502 25.3466L24.8626 25.3591L24.875 25.3714L24.8872 25.3837L24.8994 25.3959L24.9115 25.408L24.9236 25.42L24.9355 25.432L24.9474 25.4439L24.9592 25.4556L24.9709 25.4673L24.9825 25.479L24.994 25.4905L25.0055 25.502L25.0169 25.5133L25.0281 25.5246L25.0393 25.5358L25.0504 25.5469L25.0615 25.5579L25.0724 25.5689L25.0833 25.5797L25.094 25.5905L25.1047 25.6012L25.1153 25.6118L25.1258 25.6222L25.1362 25.6327L25.1465 25.643L25.1567 25.6532L25.1669 25.6633L25.1769 25.6734L25.1868 25.6833L25.1967 25.6932L25.2065 25.7029L25.2161 25.7126L25.2257 25.7222L25.2352 25.7317L25.2446 25.7411L25.2539 25.7503L25.2631 25.7595L25.2722 25.7686L25.2812 25.7776L25.2901 25.7866L25.2989 25.7954L25.3076 25.8041L25.3162 25.8127L25.3247 25.8212L25.3331 25.8296L25.3414 25.8379L25.3496 25.8461L25.3578 25.8542L25.3658 25.8622L25.3737 25.8701L25.3815 25.8779L25.3892 25.8856L25.3968 25.8932L25.4043 25.9007L25.4116 25.9081L25.4189 25.9154L25.4261 25.9226L25.4332 25.9296L25.4401 25.9366L25.447 25.9435L25.4537 25.9502L25.4604 25.9569L25.4669 25.9634L25.4734 25.9698L25.4797 25.9761L25.4859 25.9823L25.492 25.9884L25.498 25.9944L25.5038 26.0003L25.5096 26.0061L25.5153 26.0117L25.5208 26.0173L25.5262 26.0227L25.5315 26.028L25.5367 26.0332L25.5418 26.0383L25.5468 26.0433L25.5516 26.0481L25.5564 26.0529L25.561 26.0575L25.5655 26.062L25.5699 26.0664L25.5742 26.0706L25.5783 26.0748L25.5824 26.0788L25.5863 26.0827L25.5901 26.0865L25.5937 26.0902L25.5973 26.0938L25.6007 26.0972L25.6041 26.1005L25.6072 26.1037L25.6103 26.1068C26.4268 26.9233 26.883 27.8909 26.9381 28.8912C26.9845 29.7323 26.7438 30.5408 26.2768 31.2362C26.2624 31.2702 26.2459 31.3036 26.2271 31.3364C25.8651 31.9699 25.8178 32.5022 25.9016 32.9364C25.9889 33.3886 26.2337 33.8057 26.5612 34.1514C27.1609 34.7845 28.3093 35.1311 29.2862 34.7606C29.6291 34.6306 30.0163 34.7134 30.276 34.9722C30.5358 35.231 30.6199 35.618 30.491 35.9613C30.1505 36.8685 30.1837 37.889 30.9942 38.632C31.3162 38.9271 31.8562 39.1006 32.4969 39.0594C33.0958 39.0209 33.6579 38.8006 34.0341 38.4766L37.9232 34.5874C38.9953 33.5154 38.9953 31.7773 37.9232 30.7053C37.0365 29.8185 35.6941 29.6653 34.6498 30.2454L36.1312 28.764C37.2033 27.692 37.2033 25.9539 36.1312 24.8818C35.245 23.9956 33.9037 23.842 32.8597 24.421ZM31.6313 40.8802C30.9451 40.7747 30.2716 40.5019 29.7328 40.008C28.6816 39.0444 28.3703 37.8586 28.43 36.7801C27.177 36.7788 25.9754 36.2474 25.206 35.4352C24.6936 34.8943 24.2383 34.168 24.0688 33.2902C24.0461 33.1725 24.0287 33.0532 24.017 32.9326C23.7685 33.0112 23.5099 33.067 23.2437 33.0962C22.2875 33.201 21.2849 32.9555 20.3787 32.2693C20.498 34.0599 20.0182 36.5655 18.097 38.4867C17.7325 38.8512 17.1415 38.8512 16.777 38.4867C16.4126 38.1222 16.4126 37.5313 16.777 37.1668C18.3824 35.5615 18.6761 33.3664 18.4736 31.9892C18.2916 30.7517 17.5011 29.5141 16.7794 28.7408C16.7237 28.6836 16.6716 28.6297 16.6234 28.5795C16.2693 28.2102 16.2784 27.6246 16.644 27.2666C17.0095 26.9086 17.5952 26.9116 17.957 27.2735C18.0131 27.3295 18.0701 27.3884 18.1277 27.4498C18.6517 27.9881 19.4913 28.8204 20.2233 29.5459L20.2237 29.5462C20.5845 29.904 20.9192 30.2357 21.177 30.4935C21.8247 31.1412 22.4809 31.3019 23.0403 31.2406C23.6318 31.1758 24.1904 30.8527 24.5645 30.4105C24.9376 29.9697 25.1008 29.4762 25.0743 28.9939C25.0477 28.5126 24.8272 27.9636 24.2904 27.4267L24.2873 27.4236L24.2841 27.4205L24.2808 27.4171L24.2774 27.4137L24.2738 27.4102L24.2701 27.4065L24.2663 27.4027L24.2624 27.3988L24.2584 27.3947L24.2542 27.3906L24.25 27.3863L24.2456 27.3819L24.2411 27.3774L24.2364 27.3728L24.2317 27.368L24.2269 27.3632L24.2219 27.3582L24.2168 27.3531L24.2116 27.3479L24.2063 27.3426L24.2009 27.3372L24.1953 27.3317L24.1897 27.326L24.1839 27.3202L24.178 27.3144L24.172 27.3084L24.1659 27.3023L24.1597 27.2961L24.1534 27.2898L24.147 27.2833L24.1405 27.2768L24.1338 27.2702L24.1271 27.2634L24.1202 27.2565L24.1132 27.2496L24.1062 27.2425L24.099 27.2353L24.0917 27.228L24.0843 27.2207L24.0768 27.2132L24.0692 27.2056L24.0615 27.1979L24.0537 27.1901L24.0458 27.1822L24.0378 27.1742L24.0297 27.166L24.0215 27.1578L24.0132 27.1495L24.0048 27.1411L23.9963 27.1326L23.9877 27.124L23.979 27.1153L23.9701 27.1065L23.9612 27.0976L23.9522 27.0886L23.9431 27.0795L23.9339 27.0703L23.9247 27.061L23.9153 27.0516L23.9058 27.0421L23.8962 27.0325L23.8865 27.0229L23.8768 27.0131L23.8669 27.0033L23.857 26.9933L23.8469 26.9833L23.8368 26.9731L23.8266 26.9629L23.8162 26.9526L23.8058 26.9422L23.7953 26.9317L23.7848 26.9211L23.7741 26.9104L23.7633 26.8997L23.7525 26.8888L23.7415 26.8779L23.7305 26.8669L23.7194 26.8557L23.7082 26.8445L23.6969 26.8333L23.6856 26.8219L23.6741 26.8104L23.6626 26.7989L23.6509 26.7873L23.6392 26.7756L23.6275 26.7638L23.6156 26.7519L23.6036 26.74L23.5916 26.7279L23.5795 26.7158L23.5673 26.7036L23.555 26.6914L23.5427 26.679L23.5302 26.6666L23.5177 26.6541L23.5051 26.6415L23.4925 26.6288L23.4797 26.6161L23.4669 26.6032L23.454 26.5903L23.441 26.5774L23.428 26.5643L23.4149 26.5512L23.4017 26.538L23.3884 26.5247L23.3751 26.5114L23.3616 26.498L23.3482 26.4845L23.3346 26.4709L23.321 26.4573L23.3073 26.4436L23.2935 26.4298L23.2796 26.416L23.2657 26.4021L23.2518 26.3881L23.2377 26.374L23.2236 26.3599L23.2094 26.3457L23.1951 26.3315L23.1808 26.3172L23.1664 26.3028L23.152 26.2883L23.1375 26.2738L23.1229 26.2592L23.1082 26.2446L23.0935 26.2299L23.0788 26.2151L23.0639 26.2003L23.049 26.1854L23.0341 26.1704L23.019 26.1554L23.004 26.1403L22.9888 26.1251L22.9736 26.1099L22.9583 26.0947L22.943 26.0794L22.9276 26.064L22.9122 26.0485L22.8967 26.033L22.8811 26.0175L22.8655 26.0019L22.8499 25.9862L22.8341 25.9705L22.8184 25.9547L22.8025 25.9389L22.7866 25.923L22.7707 25.907L22.7547 25.891L22.7386 25.875L22.7225 25.8589L22.7064 25.8427L22.6902 25.8265L22.6739 25.8103L22.6576 25.7939L22.6413 25.7776L22.6248 25.7612L22.6084 25.7447L22.5919 25.7282L22.5753 25.7117L22.5587 25.6951L22.5421 25.6784L22.5254 25.6617L22.5086 25.645L22.4918 25.6282L22.475 25.6113L22.4581 25.5945L22.4412 25.5775L22.4242 25.5606L22.4072 25.5436L22.3902 25.5265L22.3731 25.5094L22.3559 25.4923L22.3387 25.4751L22.3215 25.4579L22.3043 25.4406L22.287 25.4233L22.2696 25.406L22.2522 25.3886L22.2348 25.3711L22.2173 25.3537L22.1998 25.3362L22.1823 25.3186L22.1647 25.3011L22.1471 25.2835L22.1295 25.2658L22.1118 25.2481L22.0941 25.2304L22.0763 25.2127L22.0585 25.1949L22.0407 25.1771L22.0229 25.1592L22.005 25.1413L21.9871 25.1234L21.9691 25.1055L21.9511 25.0875L21.9331 25.0695L21.9151 25.0514L21.897 25.0334L21.8789 25.0153L21.8608 24.9971L21.8426 24.979L21.8244 24.9608L21.8062 24.9426L21.788 24.9243L21.7697 24.906L21.7514 24.8878L21.7331 24.8694L21.7148 24.8511L21.6964 24.8327L21.678 24.8143L21.6596 24.7959L21.6411 24.7775L21.6227 24.759L21.6042 24.7405L21.5857 24.722L21.5671 24.7035L21.5486 24.6849L21.53 24.6663L21.5114 24.6478L21.4928 24.6291L21.4742 24.6105L21.4555 24.5919L21.4369 24.5732L21.4182 24.5545L21.3995 24.5358L21.3807 24.5171L21.362 24.4983L21.3433 24.4796L21.3245 24.4608L21.3057 24.442L21.2869 24.4233L21.2681 24.4044L21.2493 24.3856L21.2304 24.3668L21.2116 24.3479L21.1927 24.3291L21.1739 24.3102L21.155 24.2913L21.1361 24.2724L21.1172 24.2535L21.0983 24.2346L21.0793 24.2157L21.0604 24.1967L21.0415 24.1778L21.0225 24.1589L21.0036 24.1399L20.9846 24.1209L20.9656 24.102L20.9467 24.083L20.9277 24.064L20.9087 24.045L20.8897 24.026L20.8707 24.0071L20.8517 23.9881L20.8327 23.9691L20.8137 23.9501L20.7947 23.931L20.7757 23.912L20.7567 23.893L20.7377 23.874L20.7187 23.855L20.6997 23.836L20.6807 23.817L20.6617 23.798L20.6426 23.779L20.6236 23.76L20.6046 23.741L20.5856 23.722L20.5667 23.703L20.5477 23.684L20.5287 23.665L20.5097 23.646L20.4907 23.6271L20.4718 23.6081L20.4528 23.5891L20.4338 23.5702L20.4149 23.5512L20.3959 23.5323L20.377 23.5134L20.3581 23.4944L20.3392 23.4755L20.3203 23.4566L20.3014 23.4377L20.2825 23.4188L20.2636 23.4L20.2448 23.3811L20.2259 23.3622L20.2071 23.3434L20.1882 23.3246L20.1694 23.3058L20.1506 23.287L20.1319 23.2682L20.1131 23.2494L20.0943 23.2307L20.0756 23.2119L20.0569 23.1932L20.0382 23.1745L20.0195 23.1558L20.0008 23.1372L19.9822 23.1185L19.9635 23.0999L19.9449 23.0813L19.9263 23.0627L19.9078 23.0441L19.8892 23.0255L19.8707 23.007L19.8522 22.9885L19.8337 22.97L19.8152 22.9515L19.7968 22.9331L19.7783 22.9147L19.7599 22.8963L19.7416 22.8779L19.7232 22.8596L19.7049 22.8412L19.6866 22.8229L19.6683 22.8047L19.6501 22.7864L19.6319 22.7682L19.6137 22.75L19.5955 22.7319L19.5774 22.7137L19.5593 22.6956L19.5412 22.6776L19.5232 22.6595L19.5052 22.6415L19.4872 22.6235L19.4692 22.6056L19.4513 22.5876L19.4334 22.5698L19.4156 22.5519L19.3977 22.5341L19.38 22.5163L19.3622 22.4985L19.3445 22.4808L19.3268 22.4631L19.3091 22.4455L19.3078 22.4441L19.2078 22.5441L19.035 22.3713C18.2104 21.5467 16.8734 21.5467 16.0487 22.3713C16.019 22.401 15.9904 22.4314 15.9628 22.4624C15.946 22.4764 15.9297 22.4913 15.9139 22.5071L10.1653 28.2557C8.7879 29.6332 8.50607 31.6913 9.31983 33.3473C9.57436 33.8652 9.29023 34.7019 8.88215 35.11C8.05751 35.9346 8.05751 37.2716 8.88215 38.0963L17.9157 47.1298C18.7403 47.9545 20.0773 47.9545 20.902 47.1298C21.0035 47.0283 21.0925 46.919 21.1691 46.8038C21.4911 46.3192 22.1936 45.8878 22.7561 46.0367C24.5144 46.5021 26.466 46.0454 27.8448 44.6667L31.6313 40.8802ZM10.2026 34.4985C10.1993 34.4988 10.1975 34.4948 10.1998 34.4925C10.2012 34.4911 10.2035 34.4911 10.2048 34.4925C10.207 34.4946 10.2056 34.4983 10.2026 34.4985Z" fill="#9896AE"/>
</g>
<defs>
<clipPath id="clip0">
<rect width="56" height="56" fill="white" transform="translate(0.0507812)"/>
</clipPath>
</defs>
</svg>
