<svg width="57" height="56" viewBox="0 0 57 56" fill="none" xmlns="http://www.w3.org/2000/svg">
<g clip-path="url(#clip0)">
<path fill-rule="evenodd" clip-rule="evenodd" d="M34.257 20.3457C33.7404 20.3457 33.4631 19.6802 33.7621 19.2589C34.5726 18.1164 35.0491 16.7203 35.0491 15.2129C35.0491 11.3469 31.9151 8.21289 28.0491 8.21289C24.1831 8.21289 21.0491 11.3469 21.0491 15.2129C21.0491 16.7379 21.5368 18.149 22.3647 19.2988C22.6564 19.7038 22.3895 20.3457 21.8903 20.3457C20.8594 20.3457 20.0237 21.1814 20.0237 22.2124C20.0237 23.2433 20.8594 24.079 21.8903 24.079H34.257C35.2879 24.079 36.1237 23.2433 36.1237 22.2124C36.1237 21.1814 35.2879 20.3457 34.257 20.3457ZM14.0039 45.8259C14.0039 44.7949 14.8396 43.9592 15.8706 43.9592H40.5106C41.5415 43.9592 42.3772 44.7949 42.3772 45.8259C42.3772 46.8568 41.5415 47.6925 40.5106 47.6925H15.8706C14.8396 47.6925 14.0039 46.8568 14.0039 45.8259ZM20.7958 36.6335C20.5127 37.8626 19.4185 38.7334 18.1573 38.7334C17.1264 38.7334 16.2906 39.5691 16.2906 40.6001C16.2906 41.631 17.1264 42.4667 18.1573 42.4667H37.8973C38.9282 42.4667 39.764 41.631 39.764 40.6001C39.764 39.5691 38.9282 38.7334 37.8973 38.7334C36.8315 38.7334 35.9023 38.0086 35.6429 36.9749L33.3717 27.9256C33.0592 26.6803 31.9398 25.8072 30.656 25.8072H25.5179C24.2137 25.8072 23.0821 26.7077 22.7894 27.9787L20.7958 36.6335Z" fill="#9896AE"/>
</g>
<defs>
<clipPath id="clip0">
<rect width="56" height="56" fill="white" transform="translate(0.0507812)"/>
</clipPath>
</defs>
</svg>
