<svg width="57" height="56" viewBox="0 0 57 56" fill="none" xmlns="http://www.w3.org/2000/svg">
<g clip-path="url(#clip0)">
<path d="M28.4647 43.1351L10.2988 38.2676" stroke="black" stroke-width="0.0933333"/>
<path fill-rule="evenodd" clip-rule="evenodd" d="M8.71289 12.786C8.71289 12.1675 9.21433 11.666 9.83289 11.666H11.3262C11.9448 11.666 12.4462 12.1675 12.4462 12.786V37.0185C12.4462 37.4409 12.73 37.8107 13.138 37.92L27.2103 41.6907C27.2715 41.7071 27.3341 41.7194 27.3974 41.7194H29.8292C29.9678 41.7194 30.1059 41.7012 30.2398 41.6653L43.869 38.0134C44.277 37.904 44.5607 37.5343 44.5607 37.1118V12.8793C44.5607 12.2608 45.0622 11.7593 45.6807 11.7593H47.1741C47.7926 11.7593 48.2941 12.2608 48.2941 12.8793V38.5442C48.2941 39.8115 47.4429 40.9208 46.2188 41.2488L32.2328 44.9963C32.2273 45.6101 31.728 46.106 31.1129 46.106H25.8862C25.2677 46.106 24.7662 45.6046 24.7662 44.986V44.9008L10.7882 41.1554C9.56408 40.8274 8.71289 39.7181 8.71289 38.4508V12.786ZM42.4523 12.6978C42.4523 12.0837 41.8695 11.637 41.2765 11.7966L30.8625 14.5989C30.1288 14.7963 29.619 15.4615 29.619 16.2212V38.6358C29.619 39.2499 30.2018 39.6966 30.7949 39.5371L41.2089 36.7347C41.9425 36.5373 42.4523 35.8722 42.4523 35.1125V12.6978ZM15.7222 11.7967C15.1292 11.6371 14.5464 12.0839 14.5464 12.698V35.1126C14.5464 35.8723 15.0562 36.5375 15.7898 36.7349L26.2038 39.5372C26.7968 39.6968 27.3797 39.25 27.3797 38.6359V16.2213C27.3797 15.4616 26.8699 14.7964 26.1362 14.599L15.7222 11.7967ZM17.9081 15.2107C17.5531 15.1175 17.2059 15.3853 17.2059 15.7523V27.533V29.3286C17.2059 29.5551 17.4609 29.6879 17.6465 29.5579L18.5705 28.9111C18.8529 28.7135 19.2401 28.7691 19.4554 29.0382L20.6068 30.4775C20.717 30.6153 20.9392 30.5373 20.9392 30.3609V27.533V16.4383C20.9392 16.1838 20.7676 15.9613 20.5214 15.8967L17.9081 15.2107Z" fill="#9896AE"/>
</g>
<defs>
<clipPath id="clip0">
<rect width="56" height="56" fill="white" transform="translate(0.5)"/>
</clipPath>
</defs>
</svg>
