<svg width="34" height="34" viewBox="0 0 34 34" fill="none" xmlns="http://www.w3.org/2000/svg">
<circle cx="16.9998" cy="16.9998" r="11.3061" stroke="#9896AE" stroke-width="1.98353"/>
<path fill-rule="evenodd" clip-rule="evenodd" d="M6.88361 15.016C6.68526 15.9417 6.84387 17.912 9.06543 17.5946C10.2645 17.4233 11.1669 16.6821 12.1251 15.895C13.3858 14.8593 14.7432 13.7443 17.0001 13.7444C19.1493 13.7444 20.5887 14.9321 21.8705 15.9896C22.8363 16.7864 23.7125 17.5094 24.7354 17.5946C26.5205 17.7434 27.3086 16.4572 27.1156 15.016C28.0677 17.7136 27.909 21.3633 25.1321 23.3469C27.909 19.9749 22.9105 18.9434 20.3716 18.7847C17.9538 18.6336 18.3421 24.1668 19.0699 26.9219C19.1271 27.1386 19.0023 27.3638 18.7831 27.4104C17.4764 27.6877 16.2785 27.5678 15.588 27.4146C15.3777 27.3679 15.2651 27.1514 15.3193 26.9428C16.0304 24.2074 16.2028 18.7847 13.6276 18.7847C10.93 18.7847 6.28855 20.5699 9.4622 24.1403L6.4869 21.9584L5.89185 17.5946L6.0902 14.8177L6.88361 15.016ZM17.0005 17.1397C18.096 17.1397 18.984 16.7845 18.984 16.3463C18.984 15.9081 18.096 15.5529 17.0005 15.5529C15.905 15.5529 15.017 15.9081 15.017 16.3463C15.017 16.7845 15.905 17.1397 17.0005 17.1397Z" fill="#9896AE"/>
<path d="M15.8096 23.3469C15.8096 26.7189 14.287 26.7656 12.636 26.3222L13.6278 27.314L15.4129 27.909L16.2063 27.314L15.8096 23.3469Z" fill="#9896AE"/>
<path d="M18.5866 24.1406C18.785 26.9176 20.5702 26.7192 22.157 25.9258L20.7685 27.1159L18.9833 27.711L18.1899 27.1159L18.5866 24.1406Z" fill="#9896AE"/>
</svg>
