<svg width="40" height="40" viewBox="0 0 40 40" fill="none" xmlns="http://www.w3.org/2000/svg">
<path d="M20.2163 32.7315C16.3958 32.6018 12.7627 32.5009 9.1295 32.3496C8.34667 32.3136 7.55045 32.1839 6.78769 31.9893C5.35584 31.6291 4.36559 30.6995 3.85708 29.1792C3.44893 27.9542 3.30173 26.6932 3.19468 25.4106C2.9605 22.3987 2.9605 19.3868 3.07424 16.3748C3.14115 14.6743 3.1813 12.9594 3.60283 11.3093C3.85708 10.3222 4.16486 9.35661 4.90755 8.64326C5.69038 7.88667 6.60704 7.43272 7.65082 7.38228C10.5145 7.23096 13.3715 7.04362 16.2352 7.0148C20.0892 6.97156 23.9498 7.02921 27.8038 7.10847C29.4698 7.1445 31.1492 7.23817 32.8019 7.46875C34.314 7.68491 35.4448 8.59282 36.047 10.178C36.5086 11.3958 36.6826 12.6712 36.783 13.9682C37.0439 17.2179 37.0506 20.4676 36.9034 23.7173C36.8298 25.3674 36.7562 27.0247 36.3213 28.6315C35.8262 30.4762 34.7757 31.6939 33.0227 32.1118C32.3402 32.2704 31.631 32.328 30.9351 32.3568C27.2953 32.4937 23.6621 32.6162 20.2163 32.7315ZM16.5162 24.5388C19.5673 22.8383 22.5849 21.1521 25.6627 19.43C22.5916 17.7007 19.574 16.0074 16.5162 14.2852C16.5162 17.7223 16.5162 21.1017 16.5162 24.5388Z" fill="#9896AE"/>
</svg>
