<svg width="25" height="25" viewBox="0 0 25 25" fill="none" xmlns="http://www.w3.org/2000/svg">
<path d="M16.8414 14.7501L19.3586 17.2673C19.4367 17.3454 19.4367 17.472 19.3586 17.5501L16.8414 20.0673C16.7154 20.1933 16.5 20.104 16.5 19.9258L16.5 19.2926C16.5 19.2389 16.5216 19.1875 16.5599 19.1499L18.188 17.5514C18.2678 17.473 18.2678 17.3444 18.188 17.266L16.5599 15.6675C16.5216 15.6299 16.5 15.5785 16.5 15.5248L16.5 14.8915C16.5 14.7134 16.7154 14.6241 16.8414 14.7501Z" fill="#04005E" stroke="#04005E" stroke-width="0.5"/>
<path d="M14.5 16.6582C14.0858 16.6582 13.75 16.994 13.75 17.4082C13.75 17.8224 14.0858 18.1582 14.5 18.1582L14.5 16.6582ZM18.5 16.6582L14.5 16.6582L14.5 18.1582L18.5 18.1582L18.5 16.6582Z" fill="#04005E"/>
<circle cx="12" cy="7.90894" r="3.5" fill="#04005E"/>
<path fill-rule="evenodd" clip-rule="evenodd" d="M15.8576 12.43C15.7404 12.4161 15.621 12.4089 15.5 12.4089H8.5C6.84315 12.4089 5.5 13.7521 5.5 15.4089V18.4089H12.5C12.5 15.8772 13.8441 13.6593 15.8576 12.43Z" fill="#04005E"/>
</svg>
