<svg width="36" height="36" viewBox="0 0 36 36" fill="none" xmlns="http://www.w3.org/2000/svg">
<g clip-path="url(#clip0)">
<path fill-rule="evenodd" clip-rule="evenodd" d="M22.1432 25.2352C22.541 24.9722 23.0729 24.9956 23.417 25.3258L28.659 30.356C29.1372 30.8148 29.8968 30.7992 30.3557 30.321C30.8146 29.8428 30.7989 29.0832 30.3207 28.6243L25.1745 23.686C24.8134 23.3395 24.7832 22.7761 25.0667 22.3636C26.2481 20.6452 26.9396 18.5636 26.9396 16.3206C26.9396 10.4222 22.158 5.64062 16.2596 5.64062C10.3612 5.64062 5.57959 10.4222 5.57959 16.3206C5.57959 22.219 10.3612 27.0006 16.2596 27.0006C18.4337 27.0006 20.4561 26.351 22.1432 25.2352Z" fill="#CCFD38"/>
</g>
<defs>
<clipPath id="clip0">
<rect width="36" height="36" fill="white"/>
</clipPath>
</defs>
</svg>
