<svg width="36" height="36" viewBox="0 0 36 36" fill="none" xmlns="http://www.w3.org/2000/svg">
<g clip-path="url(#clip0)">
<path fill-rule="evenodd" clip-rule="evenodd" d="M17.9702 30.7793C25.0118 30.7793 30.7202 25.0709 30.7202 18.0293C30.7202 10.9877 25.0118 5.2793 17.9702 5.2793C10.9286 5.2793 5.22021 10.9877 5.22021 18.0293C5.22021 25.0709 10.9286 30.7793 17.9702 30.7793ZM18.0002 19.9199C20.3198 19.9199 22.2002 18.0394 22.2002 15.7199C22.2002 13.4003 20.3198 11.5199 18.0002 11.5199C15.6806 11.5199 13.8002 13.4003 13.8002 15.7199C13.8002 18.0394 15.6806 19.9199 18.0002 19.9199ZM18.0001 28.3197C21.8109 28.3197 25.3201 26.3071 25.3201 24.7497C25.3201 23.4968 21.6489 21.9361 18.9575 21.6879C18.5558 21.6173 18.0142 21.6174 17.5321 21.6426C15.0471 21.6655 10.5901 23.2776 10.5901 24.5997C10.5901 26.1571 14.1894 28.3197 18.0001 28.3197Z" fill="#CCFD38"/>
</g>
<defs>
<clipPath id="clip0">
<rect width="36" height="36" fill="white"/>
</clipPath>
</defs>
</svg>
