<svg width="14" height="14" viewBox="0 0 14 14" fill="none" xmlns="http://www.w3.org/2000/svg">
<path d="M1.01693 10.8768C2.36178 10.9977 3.5736 10.6591 4.67657 9.83184C3.52281 9.73025 2.75121 9.15457 2.32066 8.07579C2.698 8.12175 3.05114 8.13384 3.42606 8.03225C2.18279 7.64524 1.52004 6.83253 1.43055 5.52154C1.80304 5.69569 2.15377 5.82147 2.56738 5.82631C1.82965 5.2724 1.45232 4.55402 1.46683 3.64939C1.47408 3.23335 1.58535 2.84151 1.80546 2.47143C3.17208 4.07026 4.88701 4.95554 6.99862 5.10308C6.98653 5.01117 6.97927 4.93861 6.9696 4.86362C6.79544 3.52361 7.66621 2.30453 8.99655 2.05056C9.83104 1.89092 10.5688 2.11103 11.1928 2.6867C11.2896 2.77378 11.3718 2.79313 11.4928 2.76169C11.9789 2.63833 12.4409 2.45934 12.8884 2.21746C12.7167 2.78346 12.3635 3.20916 11.8846 3.56715C11.9934 3.5478 12.1047 3.53328 12.2136 3.51151C12.3272 3.48733 12.4409 3.46072 12.5546 3.42928C12.6634 3.40025 12.7699 3.36639 12.8763 3.3301C12.9851 3.29382 13.094 3.2527 13.2222 3.23093C13.1593 3.31801 13.0988 3.40992 13.0311 3.49458C12.7505 3.85015 12.4264 4.16217 12.0708 4.44033C12.0346 4.46936 12.0031 4.53225 12.0055 4.57579C12.0249 5.43446 11.9039 6.27136 11.6258 7.08408C11.0791 8.68533 10.1261 9.9818 8.69662 10.9082C7.99033 11.3654 7.21873 11.6653 6.39392 11.8394C5.57637 12.0112 4.75398 12.0426 3.92917 11.9459C3.10194 11.8491 2.31583 11.6048 1.57567 11.2226C1.37975 11.1235 1.19109 11.0122 1 10.9058C1.00726 10.8961 1.01209 10.8864 1.01693 10.8768Z" fill="#9896AE"/>
</svg>
