<svg width="24" height="24" viewBox="0 0 24 24" fill="none" xmlns="http://www.w3.org/2000/svg">
<path fill-rule="evenodd" clip-rule="evenodd" d="M19.7036 20.1457C21.5738 20.1457 22.5 19.2195 22.5 17.3849V6.51081C22.5 4.67621 21.5738 3.75 19.7036 3.75H4.29644C2.43511 3.75 1.5 4.6673 1.5 6.51081V17.3849C1.5 19.2284 2.43511 20.1457 4.29644 20.1457H19.7036ZM21.0662 16.4139L16.2926 11.9254C15.8919 11.5691 15.4288 11.3821 14.9479 11.3821C14.458 11.3821 14.0216 11.5513 13.612 11.9165L9.58654 15.5144L7.93895 14.0182C7.56491 13.6887 7.15524 13.5106 6.73666 13.5106C6.3359 13.5106 5.96185 13.6798 5.58781 14.0093L2.93386 16.405V6.58186C2.93386 5.65565 3.42369 5.18364 4.31427 5.18364H19.6858C20.5674 5.18364 21.0662 5.65565 21.0662 6.58186V16.4139ZM8.13459 12.0236C9.28344 12.0236 10.2275 11.0795 10.2275 9.92178C10.2275 8.77293 9.28344 7.82 8.13459 7.82C6.97683 7.82 6.03281 8.77293 6.03281 9.92178C6.03281 11.0795 6.97683 12.0236 8.13459 12.0236Z" fill="#9896AE"/>
</svg>
