<svg width="32" height="32" viewBox="0 0 32 32" fill="none" xmlns="http://www.w3.org/2000/svg">
<g clip-path="url(#clip0)">
<path fill-rule="evenodd" clip-rule="evenodd" d="M18.1751 11.9309L17.9544 12.1119C17.2475 12.6919 16.4234 12.8298 15.798 12.7939C15.2161 12.7605 14.4482 12.5551 13.8489 11.9707L13.714 11.8392L13.6043 11.686C13.4878 11.5234 13.3557 11.3671 13.2076 11.219C11.76 9.77145 9.41312 9.77145 7.96557 11.219C6.8473 12.3373 6.58997 13.9966 7.20599 15.364L7.39032 15.7732C8.13545 17.2606 9.43839 18.8407 10.9342 20.2965C12.5371 21.8564 14.2139 23.1318 15.2859 23.833L15.3759 23.892L15.4596 23.9596C15.5644 24.0444 15.7333 24.1271 15.8977 24.1423C15.9693 24.1489 16.0497 24.1443 16.1464 24.115C16.2433 24.0856 16.396 24.0193 16.5978 23.8589L16.6701 23.8014L16.747 23.7505C17.8006 23.0521 19.3855 21.84 20.9152 20.3648C22.4636 18.8716 23.8316 17.2271 24.592 15.6752L24.6106 15.6373L24.6306 15.6002C25.39 14.1943 25.1721 12.4033 23.9878 11.219C22.5403 9.77145 20.1934 9.77145 18.7458 11.219C18.594 11.3708 18.4591 11.5312 18.3404 11.6982L18.1751 11.9309ZM6.46731 18.3736C5.98733 17.6787 5.57445 16.9688 5.26091 16.2574C5.25881 16.2527 5.25671 16.2479 5.25461 16.2431C5.25419 16.2422 5.25378 16.2412 5.25336 16.2403H5.26091C5.2605 16.2394 5.26008 16.2384 5.25967 16.2375C5.25756 16.2328 5.25546 16.2281 5.25336 16.2234C4.95247 15.5498 4.78557 14.8309 4.75265 14.1069C4.6807 12.5247 5.24884 10.9187 6.45708 9.7105C8.73774 7.42983 12.4354 7.42983 14.7161 9.7105C14.9468 9.94125 15.1543 10.1865 15.3383 10.4434C15.5912 10.69 16.2158 10.7789 16.6013 10.4626C16.7888 10.1988 17.0008 9.94702 17.2373 9.7105C19.518 7.42983 23.2157 7.42983 25.4963 9.7105C27.3657 11.5799 27.7028 14.4012 26.5077 16.614C24.6729 20.3583 20.2389 23.9954 17.9255 25.5287C16.3427 26.7872 14.847 26.2079 14.1181 25.6184C12.1846 24.3537 8.63904 21.5177 6.46731 18.3736Z" fill="#9896AE"/>
</g>
<defs>
<clipPath id="clip0">
<rect width="32" height="32" fill="white"/>
</clipPath>
</defs>
</svg>
