<svg width="48" height="48" viewBox="0 0 48 48" fill="none" xmlns="http://www.w3.org/2000/svg">
<path d="M0 24C0 10.7452 10.7452 0 24 0C37.2548 0 48 10.7452 48 24C48 37.2548 37.2548 48 24 48C10.7452 48 0 37.2548 0 24Z" fill="#EDF2FF"/>
<path d="M13.467 30.5218C15.8091 30.7325 17.9196 30.1427 19.8404 28.702C17.8311 28.5251 16.4873 27.5226 15.7375 25.6438C16.3946 25.7238 17.0097 25.7449 17.6626 25.568C15.4974 24.894 14.3432 23.4786 14.1873 21.1954C14.836 21.4987 15.4468 21.7178 16.1672 21.7262C14.8824 20.7616 14.2252 19.5105 14.2505 17.935C14.2631 17.2104 14.4569 16.528 14.8403 15.8835C17.2203 18.668 20.2069 20.2097 23.8844 20.4667C23.8633 20.3066 23.8507 20.1802 23.8339 20.0496C23.5306 17.7159 25.0471 15.5929 27.3639 15.1506C28.8172 14.8725 30.102 15.2559 31.1888 16.2584C31.3573 16.4101 31.5005 16.4438 31.7112 16.389C32.5579 16.1742 33.3625 15.8625 34.1418 15.4412C33.8427 16.4269 33.2277 17.1683 32.3936 17.7918C32.5831 17.7581 32.7769 17.7328 32.9665 17.6949C33.1645 17.6528 33.3625 17.6064 33.5604 17.5517C33.75 17.5011 33.9353 17.4421 34.1207 17.3789C34.3103 17.3158 34.4998 17.2441 34.7231 17.2062C34.6136 17.3579 34.5082 17.518 34.3903 17.6654C33.9016 18.2846 33.3372 18.828 32.7179 19.3125C32.6548 19.363 32.6 19.4725 32.6042 19.5484C32.6379 21.0438 32.4273 22.5013 31.9429 23.9167C30.9908 26.7053 29.3311 28.9632 26.8416 30.5766C25.6115 31.3727 24.2677 31.8951 22.8313 32.1984C21.4075 32.4975 19.9752 32.5522 18.5388 32.3837C17.0981 32.2152 15.7291 31.7898 14.4401 31.1242C14.0989 30.9515 13.7703 30.7577 13.4375 30.5724C13.4501 30.5555 13.4586 30.5387 13.467 30.5218Z" fill="#9896AE"/>
</svg>
