<svg width="48" height="48" viewBox="0 0 48 48" fill="none" xmlns="http://www.w3.org/2000/svg">
<g clip-path="url(#clip0)">
<path fill-rule="evenodd" clip-rule="evenodd" d="M27.52 12C30.08 12.12 31 14.12 31.08 14.92L31.1171 14.9141C31.9272 17.9798 34.7197 20.24 38.04 20.24C39.4527 20.24 40.96 21.2141 40.96 22.6268V31.2C40.96 33.851 38.811 36 36.16 36H11.84C9.18907 36 7.04004 33.851 7.04004 31.2V16.8C7.04004 14.149 9.18907 12 11.84 12H27.52ZM26.5539 26.4296C26.8614 26.9104 27.5589 26.9239 27.8847 26.4553L29.9712 23.4548C30.6382 22.4957 32.0747 22.5514 32.6653 23.5593L36.6685 30.3911C37.2935 31.4577 36.5243 32.8 35.288 32.8H12.3988C11.1611 32.8 10.3921 31.4548 11.0201 30.3882L18.3575 17.9262C18.9632 16.8975 20.4412 16.8703 21.0843 17.876L26.5539 26.4296Z" fill="#9896AE"/>
<path fill-rule="evenodd" clip-rule="evenodd" d="M39.12 9.04C39.12 8.46562 38.6544 8 38.08 8C37.5057 8 37.04 8.46562 37.04 9.04V11.36C37.04 11.7135 36.7535 12 36.4 12H34.08C33.5057 12 33.04 12.4656 33.04 13.04C33.04 13.6144 33.5057 14.08 34.08 14.08H36.4C36.7535 14.08 37.04 14.3665 37.04 14.72V17.04C37.04 17.6144 37.5057 18.08 38.08 18.08C38.6544 18.08 39.12 17.6144 39.12 17.04V14.72C39.12 14.3665 39.4066 14.08 39.76 14.08H42.08C42.6544 14.08 43.12 13.6144 43.12 13.04C43.12 12.4656 42.6544 12 42.08 12H39.76C39.4066 12 39.12 11.7135 39.12 11.36V9.04Z" fill="#9896AE"/>
</g>
<defs>
<clipPath id="clip0">
<rect width="48" height="48" fill="white"/>
</clipPath>
</defs>
</svg>
