<svg width="56" height="56" viewBox="0 0 56 56" fill="none" xmlns="http://www.w3.org/2000/svg">
<g clip-path="url(#clip0)">
<path fill-rule="evenodd" clip-rule="evenodd" d="M25.4853 11.7707C24.6892 11.58 24.0796 10.8981 24.0796 10.0796C24.0796 9.04863 23.2438 8.21289 22.2129 8.21289C21.182 8.21289 20.3462 9.04863 20.3462 10.0796C20.3462 10.8981 19.7365 11.58 18.9405 11.7707C12.8599 13.2268 8.32142 18.6505 8.21481 25.152C8.2148 25.1524 8.21445 25.1528 8.21403 25.1528C8.21359 25.1528 8.21324 25.1531 8.21324 25.1536V25.2857C8.21301 25.3192 8.21289 25.3526 8.21289 25.3861C8.21289 25.4197 8.21301 25.4531 8.21324 25.4866V39.6885C8.21324 40.7353 8.79722 41.6948 9.72712 42.1756L17.7625 46.3308C18.7761 46.855 19.949 46.3512 20.3466 45.3884V30.4267H18.1066C16.5602 30.4267 15.3066 29.1731 15.3066 27.6267C15.3066 26.0803 16.5602 24.8267 18.1066 24.8267H24.6624H26.3666C27.913 24.8267 29.1666 26.0803 29.1666 27.6267C29.1666 29.1731 27.913 30.4267 26.3666 30.4267H24.6624H24.0799V45.2468C24.4248 46.2934 25.6607 46.8638 26.7183 46.3106L33.9115 42.548C33.6636 42.2692 33.3022 42.0936 32.8998 42.0936H31.5555C31.5505 42.0936 31.5465 42.0896 31.5465 42.0846C31.5465 42.0797 31.5426 42.0757 31.5378 42.0755C31.0961 42.0583 30.6603 41.9644 30.2505 41.7974C29.795 41.6117 29.3801 41.3392 29.0299 40.9947C28.6797 40.6502 28.4011 40.2403 28.2107 39.7881C28.0204 39.336 27.9222 38.8508 27.9222 38.3604C27.9222 37.8701 28.0204 37.3849 28.2107 36.9327C28.4011 36.4806 28.6797 36.0707 29.0299 35.7262C29.3801 35.3817 29.795 35.1091 30.2505 34.9235C30.9392 34.6428 31.5467 34.0562 31.5467 33.3125V14.9514C29.8482 13.431 27.7762 12.3193 25.4853 11.7707ZM34.6857 40.227C35.4835 40.2575 36.1209 40.9139 36.1209 41.7192V45.0325C36.1209 46.5789 37.3745 47.8325 38.9209 47.8325C40.4673 47.8325 41.7209 46.5789 41.7209 45.0325V41.7192C41.7209 40.8944 42.3895 40.2259 43.2142 40.2259H45.9208C46.9517 40.2259 47.7874 39.3901 47.7874 38.3592C47.7874 37.3283 46.9517 36.4925 45.9208 36.4925H32.4304C32.3947 36.4911 32.3589 36.4886 32.3232 36.4861C32.2691 36.4823 32.215 36.4785 32.1609 36.4785H31.6861C31.4308 36.4785 31.1785 36.528 30.9435 36.6238C30.7085 36.7195 30.4959 36.8595 30.3176 37.035C30.1392 37.2104 29.9986 37.4179 29.9029 37.6452C29.8073 37.8724 29.7582 38.1154 29.7582 38.3604C29.7582 38.6055 29.8073 38.8485 29.9029 39.0757C29.9986 39.303 30.1392 39.5105 30.3176 39.6859C30.4959 39.8614 30.7085 40.0014 30.9435 40.0971C31.1338 40.1747 31.3356 40.2219 31.5411 40.2371C31.543 40.2372 31.5447 40.2362 31.5457 40.2348C31.5462 40.234 31.5465 40.233 31.5465 40.232C31.5465 40.2292 31.5487 40.227 31.5515 40.227H34.6857ZM33.4135 16.9855C33.4134 16.9855 33.4134 16.9855 33.4134 16.9854V32.947C33.4134 33.8748 34.1655 34.627 35.0934 34.627H35.2906C35.3181 34.6281 35.3457 34.6287 35.3735 34.6287H37.0536V26.8822C37.0536 25.8512 37.8894 25.0155 38.9203 25.0155C39.9512 25.0155 40.7869 25.8512 40.7869 26.8822V34.6287H42.3735C43.4559 34.6287 44.3335 33.7512 44.3335 32.6687V16.6477C44.3335 16.138 44.1944 15.638 43.9312 15.2016L40.1522 8.93571C39.5716 7.97289 38.1754 7.97289 37.5947 8.93571L33.8158 15.2016C33.5526 15.638 33.4135 16.138 33.4135 16.6477V16.9855Z" fill="#9896AE"/>
</g>
<defs>
<clipPath id="clip0">
<rect width="56" height="56" fill="white"/>
</clipPath>
</defs>
</svg>
