<svg width="56" height="56" viewBox="0 0 56 56" fill="none" xmlns="http://www.w3.org/2000/svg">
<g clip-path="url(#clip0)">
<path fill-rule="evenodd" clip-rule="evenodd" d="M14.0849 22.4406C14.0837 22.4516 14.0744 22.46 14.0634 22.46C14.0531 22.46 14.0442 22.4672 14.0421 22.4772L12.9283 27.7817C12.7526 28.6185 12.972 29.4872 13.5024 30.1579C14.4019 31.2954 15.3826 32.6246 16.1932 33.9018C16.8132 34.8786 17.3586 35.8636 17.6844 36.7297C17.8469 37.1619 17.9701 37.604 18.0054 38.0249C18.0401 38.439 17.9971 38.9287 17.7164 39.3584C17.1658 40.2014 16.229 40.2675 15.5272 40.149C14.8133 40.0285 14.0307 39.6837 13.2967 39.2817C12.9368 39.0846 12.5711 38.8639 12.2094 38.6303C11.5431 38.2 10.6299 38.5202 10.4288 39.2875L9.49889 42.8365C9.13353 44.5765 10.0235 46.2119 11.8014 46.2119H12.1802C13.2958 46.2119 14.3827 45.6519 15.4696 45.0919C16.5565 44.5319 17.6434 43.9719 18.759 43.9719H20.719C21.8346 43.9719 22.9215 44.5319 24.0084 45.0919C25.0953 45.6519 26.1822 46.2119 27.2978 46.2119H27.8602C28.9758 46.2119 30.0627 45.6519 31.1496 45.0919C32.2365 44.5319 33.3234 43.9719 34.439 43.9719H36.399C37.5146 43.9719 38.6015 44.5319 39.6884 45.0919C40.7753 45.6519 41.8622 46.2119 42.9778 46.2119H44.599C46.3976 46.2119 46.8998 44.5404 46.4984 42.7871L45.7056 39.1442C45.5311 38.3424 44.5807 37.9934 43.898 38.4487C43.4471 38.7495 42.9861 39.0342 42.5341 39.2817C41.8002 39.6837 41.0176 40.0285 40.3036 40.149C39.6018 40.2675 38.6651 40.2014 38.1145 39.3584C37.8338 38.9287 37.7907 38.439 37.8255 38.0249C37.8608 37.604 37.9839 37.1619 38.1465 36.7297C38.4722 35.8636 39.0177 34.8786 39.6377 33.9018C40.497 32.5477 41.5476 31.1351 42.49 29.9545C43.0382 29.2677 43.259 28.3714 43.0629 27.5148L41.9237 22.5385C41.1929 15.4933 35.2375 10 27.9991 10C20.7942 10 14.8605 15.4425 14.0849 22.4406ZM11.9083 32.6393C12.006 32.1738 12.6009 32.036 12.8862 32.4166C13.4911 33.2236 14.0938 34.0775 14.6172 34.902C15.2111 35.8379 15.6779 36.6974 15.9372 37.3868C16.0672 37.7325 16.1297 37.9959 16.1453 38.1808C16.1523 38.2643 16.0885 38.3321 16.0048 38.3277C15.9591 38.3253 15.9038 38.3195 15.8379 38.3084C15.4326 38.2399 14.8675 38.0137 14.1934 37.6445C13.4721 37.2495 12.7081 36.7371 12.0082 36.2199C11.5528 35.8834 11.3478 35.3082 11.4642 34.7541L11.9083 32.6393ZM43.1868 32.0961C42.5021 32.9951 41.8069 33.9674 41.2137 34.902C40.6197 35.8379 40.153 36.6974 39.8937 37.3868C39.7637 37.7325 39.7011 37.9959 39.6856 38.1808C39.6786 38.2643 39.7424 38.3321 39.8261 38.3277C39.8718 38.3253 39.927 38.3195 39.9929 38.3084C40.3983 38.2399 40.9633 38.0137 41.6375 37.6445C42.4698 37.1887 43.3589 36.5767 44.1409 35.9811C44.5929 35.637 44.7893 35.0565 44.6625 34.5028L44.1611 32.3124C44.0564 31.855 43.4712 31.7229 43.1868 32.0961ZM21.8396 27.3603C23.9014 27.3603 25.5729 25.6888 25.5729 23.6269C25.5729 21.5651 23.9014 19.8936 21.8396 19.8936C19.7777 19.8936 18.1062 21.5651 18.1062 23.6269C18.1062 25.6888 19.7777 27.3603 21.8396 27.3603ZM30.2395 30.3937C30.2395 31.6051 29.2576 32.587 28.0462 32.587C26.8349 32.587 25.8529 31.6051 25.8529 30.3937C25.8529 29.1824 26.8349 28.2004 28.0462 28.2004C29.2576 28.2004 30.2395 29.1824 30.2395 30.3937ZM34.1588 27.3603C36.2207 27.3603 37.8922 25.6888 37.8922 23.6269C37.8922 21.5651 36.2207 19.8936 34.1588 19.8936C32.097 19.8936 30.4255 21.5651 30.4255 23.6269C30.4255 25.6888 32.097 27.3603 34.1588 27.3603Z" fill="#9896AE"/>
</g>
<defs>
<clipPath id="clip0">
<rect width="56" height="56" fill="white"/>
</clipPath>
</defs>
</svg>
