<svg width="14" height="14" viewBox="0 0 14 14" fill="none" xmlns="http://www.w3.org/2000/svg">
<g clip-path="url(#clip0)">
<path d="M9.25675 2H4.69342C3.20824 2 2 3.20824 2 4.69342V9.25683C2 10.7419 3.20824 11.9502 4.69342 11.9502H9.25683C10.7419 11.9502 11.9502 10.7419 11.9502 9.25683V4.69342C11.9502 3.20824 10.7419 2 9.25675 2V2ZM6.97509 9.69576C5.47488 9.69576 4.25441 8.4753 4.25441 6.97509C4.25441 5.47488 5.47488 4.25441 6.97509 4.25441C8.4753 4.25441 9.69576 5.47488 9.69576 6.97509C9.69576 8.4753 8.4753 9.69576 6.97509 9.69576V9.69576ZM9.76082 4.89604C9.31749 4.89604 8.95689 4.53545 8.95689 4.09211C8.95689 3.64877 9.31749 3.28811 9.76082 3.28811C10.2042 3.28811 10.5648 3.64877 10.5648 4.09211C10.5648 4.53545 10.2042 4.89604 9.76082 4.89604Z" fill="#9896AE"/>
<path d="M6.97524 4.83813C5.79676 4.83813 4.83789 5.79693 4.83789 6.97549C4.83789 8.15397 5.79676 9.11284 6.97524 9.11284C8.15381 9.11284 9.1126 8.15397 9.1126 6.97549C9.1126 5.79693 8.15381 4.83813 6.97524 4.83813V4.83813Z" fill="#9896AE"/>
<path d="M9.76064 3.87183C9.63903 3.87183 9.54004 3.97082 9.54004 4.09243C9.54004 4.21405 9.63903 4.31304 9.76064 4.31304C9.88233 4.31304 9.98133 4.21412 9.98133 4.09243C9.98133 3.97074 9.88233 3.87183 9.76064 3.87183Z" fill="#9896AE"/>
</g>
<defs>
<clipPath id="clip0">
<rect width="9.9502" height="9.9502" fill="white" transform="translate(2 2)"/>
</clipPath>
</defs>
</svg>
