<svg width="40" height="40" viewBox="0 0 40 40" fill="none" xmlns="http://www.w3.org/2000/svg">
<path d="M4.14803 10C5.33693 10 7.14857 10 8.16763 10C8.67715 10 9.07345 10.346 9.24329 10.8073C9.75282 12.3065 10.8851 15.5933 12.1872 17.8421C13.9423 20.7829 15.0745 21.8785 15.8105 21.7631C16.5465 21.5901 16.32 19.6296 16.32 18.0727C16.32 16.5159 16.4899 13.8634 15.7539 12.6525L14.6216 10.9803C14.3386 10.5766 14.6216 10.0577 15.0745 10.0577H21.5285C22.1513 10.0577 22.6608 10.5766 22.6608 11.2109V19.572C22.6608 19.572 22.9439 21.0712 24.5291 19.5143C26.1143 17.9574 27.8127 15.0743 29.228 12.1335L29.7942 10.7496C29.964 10.346 30.3603 10.0577 30.8132 10.0577H35.0027C35.7953 10.0577 36.3614 10.8649 36.0783 11.6145L35.6254 12.8255C35.6254 12.8255 34.0968 15.9392 32.5116 18.1304C30.9265 20.3792 30.5868 20.8982 30.8132 21.4748C31.0397 22.0514 35.1159 25.9148 36.1349 27.76C36.418 28.279 36.6445 28.7403 36.8709 29.1439C37.2672 29.8935 36.7011 30.8738 35.8519 30.8738H31.0963C30.7 30.8738 30.3037 30.6431 30.1339 30.2972L29.6809 29.5476C29.6809 29.5476 26.7936 26.0878 25.0386 24.9922C23.227 23.9543 23.2836 25.4535 23.2836 25.4535V28.5096C23.2836 29.7782 22.2645 30.8161 21.019 30.8161H19.8867C19.8867 30.8161 13.6592 30.8161 8.67715 23.2624C4.77079 17.3808 3.46866 13.5751 3.01575 11.3839C2.90252 10.6919 3.41205 10 4.14803 10Z" fill="#9896AE"/>
</svg>
