<svg width="57" height="56" viewBox="0 0 57 56" fill="none" xmlns="http://www.w3.org/2000/svg">
<path fill-rule="evenodd" clip-rule="evenodd" d="M47 7H9.66667C7.1 7 5 9.1 5 11.6667V44.3333C5 46.9 7.1 49 9.66667 49H47C49.5667 49 51.6667 46.9 51.6667 44.3333V11.6667C51.6667 9.1 49.5667 7 47 7ZM23.6667 39.6667H12V35H23.6667V39.6667ZM23.6667 30.3333H12V25.6667H23.6667V30.3333ZM23.6667 21H12V16.3333H23.6667V21ZM34.9133 35L28.3333 28.3733L31.6233 25.0833L34.9133 28.3967L42.31 21L45.6233 24.3133L34.9133 35Z" fill="#9896AE"/>
</svg>
