<svg width="36" height="36" viewBox="0 0 36 36" fill="none" xmlns="http://www.w3.org/2000/svg">
<g clip-path="url(#clip0)">
<path fill-rule="evenodd" clip-rule="evenodd" d="M18.0003 5.40039C19.3257 5.40039 20.4003 6.47491 20.4003 7.80039V8.35026C20.4003 8.89005 20.7643 9.35568 21.2673 9.55169C24.6227 10.8594 27.0003 14.1222 27.0003 17.9404C27.0003 18.397 26.9663 18.8456 26.9007 19.2839C26.7946 20.6299 27.0394 21.3105 27.3891 21.8331L28.4306 23.1579C29.3591 24.3388 28.5178 26.0703 27.0156 26.0703H21.8657C21.8657 26.0703 21.8656 26.0704 21.8656 26.0704H14.1349C14.1349 26.0704 14.1348 26.0703 14.1348 26.0703H9.04505C7.54284 26.0703 6.70156 24.3388 7.62999 23.1579L8.56011 21.9747C8.94322 21.4309 9.21513 20.7543 9.10164 19.2957C9.03487 18.8537 9.00026 18.4011 9.00026 17.9404C9.00026 14.1222 11.3779 10.8594 14.7333 9.55169C15.2362 9.35568 15.6003 8.89005 15.6003 8.35026V7.80039C15.6003 6.47491 16.6748 5.40039 18.0003 5.40039ZM15.2425 27.7806C14.5324 27.7806 14.0527 28.4957 14.4992 29.0479C15.3241 30.0682 16.586 30.7206 18.0003 30.7206C19.4146 30.7206 20.6765 30.0682 21.5015 29.0479C21.9479 28.4957 21.4683 27.7806 20.7581 27.7806H15.2425Z" fill="#CCFD38"/>
</g>
<defs>
<clipPath id="clip0">
<rect width="36" height="36" fill="white"/>
</clipPath>
</defs>
</svg>
