<svg width="56" height="56" viewBox="0 0 56 56" fill="none" xmlns="http://www.w3.org/2000/svg">
<path d="M16.3335 25.6673H2.3335V30.334H16.3335V25.6673ZM21.3968 18.1073L16.4502 13.1606L13.1602 16.4506L18.1068 21.3973L21.3968 18.1073ZM30.3335 2.33398H25.6668V16.334H30.3335V2.33398ZM42.8402 16.4506L39.5502 13.1606L34.6035 18.1073L37.8935 21.3973L42.8402 16.4506ZM39.6668 25.6673V30.334H53.6668V25.6673H39.6668ZM28.0002 21.0006C24.1268 21.0006 21.0002 24.1273 21.0002 28.0006C21.0002 31.874 24.1268 35.0006 28.0002 35.0006C31.8735 35.0006 35.0002 31.874 35.0002 28.0006C35.0002 24.1273 31.8735 21.0006 28.0002 21.0006ZM34.6035 37.894L39.5502 42.8406L42.8402 39.5506L37.8935 34.604L34.6035 37.894V37.894ZM13.1602 39.5506L16.4502 42.8406L21.3968 37.894L18.1068 34.604L13.1602 39.5506V39.5506ZM25.6668 53.6673H30.3335V39.6673H25.6668V53.6673Z" fill="#9896AE"/>
</svg>
