<svg width="56" height="56" viewBox="0 0 56 56" fill="none" xmlns="http://www.w3.org/2000/svg">
<g clip-path="url(#clip0)">
<path fill-rule="evenodd" clip-rule="evenodd" d="M27.9553 12.0419C25.4341 12.0419 23.0548 12.6282 20.9408 13.6706C20.0162 14.1265 18.897 13.7466 18.4411 12.8219C17.9851 11.8973 18.3651 10.7781 19.2897 10.3222C21.9057 9.0323 24.8487 8.30859 27.9553 8.30859C34.7998 8.30859 40.8243 11.8165 44.3386 17.1248C44.9077 17.9844 44.6722 19.1426 43.8126 19.7117C42.9529 20.2808 41.7947 20.0453 41.2256 19.1857C38.3721 14.8755 33.4927 12.0419 27.9553 12.0419ZM15.3947 15.245C16.1919 15.8987 16.3082 17.0748 15.6545 17.872C13.3965 20.6257 12.0419 24.1475 12.0419 27.9918C12.0419 31.8361 13.3965 35.358 15.6545 38.1116C16.3082 38.9088 16.1919 40.085 15.3947 40.7387C14.5975 41.3924 13.4213 41.2761 12.7676 40.4789C9.98192 37.0817 8.30859 32.7298 8.30859 27.9918C8.30859 23.2538 9.98192 18.902 12.7676 15.5048C13.4213 14.7076 14.5975 14.5913 15.3947 15.245ZM26.4035 27.6499L22.1216 20.2334C21.4002 18.9839 19.8025 18.5558 18.5531 19.2772C17.3036 19.9986 16.8755 21.5963 17.5969 22.8458L26.7403 38.6827L26.7382 38.6839L28.2537 41.3089L21.236 39.9494C19.8195 39.675 18.4489 40.6008 18.1745 42.0172C17.9001 43.4337 18.8259 44.8043 20.2423 45.0787L32.8973 47.5303C33.9497 47.9155 35.159 47.8488 36.2055 47.2447L44.5762 42.4118C47.6243 40.652 48.7171 36.8062 47.0926 33.7188L47.0982 33.7156L42.2654 25.3448C41.544 24.0953 39.9463 23.6672 38.6968 24.3886C37.8028 24.9048 37.3293 25.8695 37.3965 26.8344L36.4017 25.1114C35.6803 23.8619 34.0826 23.4338 32.8332 24.1552C32.0923 24.5829 31.6402 25.3188 31.5453 26.1075L30.9563 25.0873C30.2349 23.8378 28.6372 23.4097 27.3877 24.1311C26.1548 24.8429 25.7216 26.408 26.4035 27.6499ZM25.547 18.0865C26.2033 17.966 26.8813 17.904 27.5757 17.9065C30.9613 17.9189 33.9822 19.4665 35.9869 21.897C36.6428 22.6924 37.8193 22.8054 38.6147 22.1494C39.41 21.4934 39.523 20.3169 38.867 19.5216C36.1874 16.2726 32.1328 14.1899 27.5894 14.1732C26.6632 14.1698 25.7551 14.2526 24.8731 14.4145C24.4746 14.4876 24.0816 14.5768 23.6948 14.6815C22.6997 14.9509 22.1113 15.9759 22.3807 16.9711C22.65 17.9662 23.6751 18.5545 24.6702 18.2852C24.9579 18.2073 25.2503 18.1409 25.547 18.0865Z" fill="#9896AE"/>
</g>
<defs>
<clipPath id="clip0">
<rect width="56" height="56" fill="white"/>
</clipPath>
</defs>
</svg>
