<svg width="32" height="32" viewBox="0 0 32 32" fill="none" xmlns="http://www.w3.org/2000/svg">
<g clip-path="url(#clip0)">
<path fill-rule="evenodd" clip-rule="evenodd" d="M6.46731 18.3736C5.98733 17.6787 5.57445 16.9688 5.26091 16.2574C5.25881 16.2527 5.25671 16.2479 5.25461 16.2431L5.25336 16.2403H5.26091L5.25967 16.2375C5.25756 16.2328 5.25546 16.2281 5.25336 16.2234C4.95247 15.5498 4.78557 14.8308 4.75265 14.1069C4.6807 12.5247 5.24884 10.9187 6.45708 9.7105C8.73774 7.42983 12.4354 7.42983 14.7161 9.7105C14.9468 9.94125 15.1543 10.1865 15.3383 10.4434C15.5912 10.69 16.2158 10.7789 16.6013 10.4626C16.7888 10.1988 17.0008 9.94702 17.2373 9.7105C19.518 7.42983 23.2157 7.42983 25.4963 9.7105C27.3657 11.5799 27.7028 14.4012 26.5077 16.614C24.6729 20.3583 20.2389 23.9954 17.9255 25.5287C16.3427 26.7872 14.847 26.2079 14.1181 25.6184C12.1846 24.3537 8.63904 21.5177 6.46731 18.3736Z" fill="#9896AE"/>
</g>
<defs>
<clipPath id="clip0">
<rect width="32" height="32" fill="white"/>
</clipPath>
</defs>
</svg>
