<svg width="55" height="56" viewBox="0 0 55 56" fill="none" xmlns="http://www.w3.org/2000/svg">
<path d="M21.375 24.459H17.2917V28.5423H21.375V24.459ZM29.5417 24.459H25.4583V28.5423H29.5417V24.459ZM37.7083 24.459H33.625V28.5423H37.7083V24.459ZM41.7917 10.1673H39.75V6.08398H35.6667V10.1673H19.3333V6.08398H15.25V10.1673H13.2083C10.9421 10.1673 9.14542 12.0048 9.14542 14.2507L9.125 42.834C9.125 45.0798 10.9421 46.9173 13.2083 46.9173H41.7917C44.0375 46.9173 45.875 45.0798 45.875 42.834V14.2507C45.875 12.0048 44.0375 10.1673 41.7917 10.1673ZM41.7917 42.834H13.2083V20.3757H41.7917V42.834Z" fill="#9896AE"/>
</svg>
