<svg width="25" height="25" viewBox="0 0 25 25" fill="none" xmlns="http://www.w3.org/2000/svg">
<path d="M19.5 5.40894H17.5V3.40894H7.5V5.40894H5.5C4.4 5.40894 3.5 6.30894 3.5 7.40894V8.40894C3.5 10.9589 5.42 13.0389 7.89 13.3489C8.52 14.8489 9.87 15.9789 11.5 16.3089V19.4089H7.5V21.4089H17.5V19.4089H13.5V16.3089C15.13 15.9789 16.48 14.8489 17.11 13.3489C19.58 13.0389 21.5 10.9589 21.5 8.40894V7.40894C21.5 6.30894 20.6 5.40894 19.5 5.40894ZM5.5 8.40894V7.40894H7.5V11.2289C6.34 10.8089 5.5 9.70894 5.5 8.40894ZM19.5 8.40894C19.5 9.70894 18.66 10.8089 17.5 11.2289V7.40894H19.5V8.40894Z" fill="#9896AE"/>
</svg>
