<svg width="25" height="25" viewBox="0 0 25 25" fill="none" xmlns="http://www.w3.org/2000/svg">
<path d="M17.1586 20.0673L14.6414 17.5501C14.5633 17.472 14.5633 17.3454 14.6414 17.2673L17.1586 14.7501C17.2846 14.6241 17.5 14.7134 17.5 14.8915V15.5248C17.5 15.5785 17.4784 15.6299 17.4401 15.6675L15.812 17.266C15.7322 17.3444 15.7322 17.473 15.812 17.5514L17.4401 19.1499C17.4784 19.1875 17.5 19.2389 17.5 19.2926V19.9258C17.5 20.104 17.2846 20.1933 17.1586 20.0673Z" fill="#04005E" stroke="#04005E" stroke-width="0.5"/>
<path d="M19.5 18.1592C19.9142 18.1592 20.25 17.8234 20.25 17.4092C20.25 16.995 19.9142 16.6592 19.5 16.6592V18.1592ZM15.5 18.1592H19.5V16.6592H15.5V18.1592Z" fill="#04005E"/>
<circle cx="12" cy="7.90894" r="3.5" fill="#04005E"/>
<path fill-rule="evenodd" clip-rule="evenodd" d="M15.8576 12.43C15.7404 12.4161 15.621 12.4089 15.5 12.4089H8.5C6.84315 12.4089 5.5 13.7521 5.5 15.4089V18.4089H12.5C12.5 15.8772 13.8441 13.6593 15.8576 12.43Z" fill="#04005E"/>
</svg>
