<svg width="57" height="56" viewBox="0 0 57 56" fill="none" xmlns="http://www.w3.org/2000/svg">
<g clip-path="url(#clip0)">
<path d="M27.9765 4.66699C15.0965 4.66699 4.6665 15.1203 4.6665 28.0003C4.6665 40.8803 15.0965 51.3337 27.9765 51.3337C40.8798 51.3337 51.3332 40.8803 51.3332 28.0003C51.3332 15.1203 40.8798 4.66699 27.9765 4.66699ZM27.9998 46.667C17.6865 46.667 9.33317 38.3137 9.33317 28.0003C9.33317 17.687 17.6865 9.33366 27.9998 9.33366C38.3132 9.33366 46.6665 17.687 46.6665 28.0003C46.6665 38.3137 38.3132 46.667 27.9998 46.667ZM36.1665 25.667C38.1032 25.667 39.6665 24.1037 39.6665 22.167C39.6665 20.2303 38.1032 18.667 36.1665 18.667C34.2298 18.667 32.6665 20.2303 32.6665 22.167C32.6665 24.1037 34.2298 25.667 36.1665 25.667ZM19.8332 25.667C21.7698 25.667 23.3332 24.1037 23.3332 22.167C23.3332 20.2303 21.7698 18.667 19.8332 18.667C17.8965 18.667 16.3332 20.2303 16.3332 22.167C16.3332 24.1037 17.8965 25.667 19.8332 25.667ZM27.9998 40.8337C33.4365 40.8337 38.0565 37.427 39.9232 32.667H16.0765C17.9432 37.427 22.5632 40.8337 27.9998 40.8337Z" fill="#9896AE"/>
</g>
<defs>
<clipPath id="clip0">
<rect width="56" height="56" fill="white" transform="translate(0.5)"/>
</clipPath>
</defs>
</svg>
