<svg width="56" height="56" viewBox="0 0 56 56" fill="none" xmlns="http://www.w3.org/2000/svg">
<g clip-path="url(#clip0)">
<path fill-rule="evenodd" clip-rule="evenodd" d="M14.832 18.875C13.6498 18.3471 13.6535 16.6676 14.8381 16.1451L25.6789 11.3631C27.1268 10.7244 28.7772 10.7281 30.2222 11.3733L41.0737 16.2184C42.2559 16.7462 42.2521 18.4257 41.0675 18.9483L30.2267 23.7303C28.7789 24.369 27.1284 24.3653 25.6835 23.7201L14.832 18.875ZM27.7664 15.8667C26.3489 15.8667 25.1998 16.6397 25.1998 17.5934C25.1998 18.547 26.3489 19.32 27.7664 19.32C29.184 19.32 30.3331 18.547 30.3331 17.5934C30.3331 16.6397 29.184 15.8667 27.7664 15.8667ZM17.7325 17.5934C17.7325 16.6397 18.8608 15.8667 20.2525 15.8667C21.6443 15.8667 22.7725 16.6397 22.7725 17.5934C22.7725 18.547 21.6443 19.32 20.2525 19.32C18.8608 19.32 17.7325 18.547 17.7325 17.5934ZM35.325 15.7745C33.9075 15.7745 32.7583 16.5475 32.7583 17.5011C32.7583 18.4547 33.9075 19.2278 35.325 19.2278C36.7425 19.2278 37.8917 18.4547 37.8917 17.5011C37.8917 16.5475 36.7425 15.7745 35.325 15.7745ZM14.4626 20.8261C13.23 20.2918 11.8535 21.1954 11.8535 22.5388V38.3291C11.8535 39.445 12.5161 40.4543 13.5399 40.8981L24.4578 45.6308C25.6904 46.1651 27.0668 45.2616 27.0668 43.9181V28.1279C27.0668 27.012 26.4043 26.0026 25.3805 25.5588L14.4626 20.8261ZM19.0868 35.8408C20.092 35.8408 20.9068 34.629 20.9068 33.1342C20.9068 31.6393 20.092 30.4275 19.0868 30.4275C18.0816 30.4275 17.2668 31.6393 17.2668 33.1342C17.2668 34.629 18.0816 35.8408 19.0868 35.8408ZM44.0524 22.5388C44.0524 21.1954 42.6759 20.2918 41.4433 20.8261L30.5255 25.5588C29.5016 26.0026 28.8391 27.012 28.8391 28.1279V43.9181C28.8391 45.2616 30.2156 46.1651 31.4482 45.6308L42.366 40.8981C43.3899 40.4543 44.0524 39.445 44.0524 38.3291V22.5388ZM32.0118 38.4086C32.0118 39.8776 32.8266 41.0686 33.8318 41.0686C34.8369 41.0686 35.6518 39.8776 35.6518 38.4086C35.6518 36.9395 34.8369 35.7486 33.8318 35.7486C32.8266 35.7486 32.0118 36.9395 32.0118 38.4086ZM39.9929 30.5207C38.9878 30.5207 38.1729 29.3297 38.1729 27.8607C38.1729 26.3916 38.9878 25.2007 39.9929 25.2007C40.9981 25.2007 41.8129 26.3916 41.8129 27.8607C41.8129 29.3297 40.9981 30.5207 39.9929 30.5207Z" fill="#9896AE"/>
</g>
<defs>
<clipPath id="clip0">
<rect width="56" height="56" fill="white"/>
</clipPath>
</defs>
</svg>
