<svg width="743" height="308" viewBox="0 0 743 308" fill="none" xmlns="http://www.w3.org/2000/svg">
<g clip-path="url(#clip0)">
<path d="M306.829 176.354H302.15L354.956 120.874H356.962V176.354H351.614M306.829 176.354H293.46V191.394M306.829 176.354H351.614M351.614 176.354H366.32V191.728" stroke="black" stroke-width="3.9" stroke-miterlimit="10" stroke-linecap="square"/>
</g>
<path d="M431.984 136.247V120.873H375.835V177.022H431.316V162.316" stroke="black" stroke-width="3.9" stroke-miterlimit="10" stroke-linecap="square"/>
<path d="M413.936 148.947H375.702" stroke="black" stroke-width="3.9" stroke-miterlimit="10" stroke-linecap="square"/>
<path d="M413.936 134.91V163.653" stroke="black" stroke-width="3.9" stroke-miterlimit="10" stroke-linecap="square"/>
<path d="M523.222 120.205H508.316V176.353H509.653L563.997 120.873H565.267V176.353H549.157" stroke="black" stroke-width="3.84" stroke-miterlimit="10" stroke-linecap="square"/>
<path d="M482.156 176.353H497.53V120.873H495.525L442.05 175.016V176.353H456.087" stroke="black" stroke-width="3.84" stroke-miterlimit="10" stroke-linecap="square"/>
<path d="M632.397 118.868V137.584H630.392C630.392 137.584 623.707 119.536 604.323 119.536C584.938 119.536 576.917 135.579 576.917 147.61C576.917 159.642 585.607 175.685 604.323 175.685C623.039 175.685 629.055 162.316 631.06 158.305H632.397V175.685" stroke="black" stroke-width="3.9" stroke-miterlimit="10" stroke-linecap="square"/>
<path d="M685.241 147.61C693.263 147.61 699.278 154.295 699.947 160.311C700.615 166.327 697.273 175.685 687.915 175.685H644.467V119.536" stroke="black" stroke-width="3.9" stroke-miterlimit="10" stroke-linecap="square"/>
<path d="M644.401 147.61H685.31" stroke="black" stroke-width="3.9" stroke-miterlimit="10" stroke-linecap="square"/>
<path d="M99.9091 293.854C117.058 293.854 130.961 279.878 130.961 262.639C130.961 245.4 117.058 231.425 99.9091 231.425C82.7597 231.425 68.8574 245.4 68.8574 262.639C68.8574 279.878 82.7597 293.854 99.9091 293.854Z" stroke="black" stroke-width="3.57" stroke-miterlimit="10" stroke-linecap="square"/>
<path d="M532.816 265.443C524.478 265.443 518.224 258.495 517.529 252.241C516.834 245.987 520.308 236.259 530.036 236.259H575.202V294.627H559.915" stroke="black" stroke-width="3.9" stroke-miterlimit="10" stroke-linecap="square"/>
<path d="M574.577 265.443H532.747" stroke="black" stroke-width="3.9" stroke-miterlimit="10" stroke-linecap="square"/>
<path d="M534.205 294.627H518.224V292.543L543.933 266.138" stroke="black" stroke-width="3.9" stroke-miterlimit="10" stroke-linecap="square"/>
<path d="M350.805 292.89H367.481V234.522H365.396L309.808 290.805V292.89H325.095" stroke="black" stroke-width="4" stroke-miterlimit="10" stroke-linecap="square"/>
<path d="M327.527 274.407H367.412" stroke="black" stroke-width="3.9" stroke-miterlimit="10" stroke-linecap="square"/>
<path d="M182.861 262.664C191.2 262.664 197.453 269.612 198.148 275.866C198.843 282.12 195.369 291.848 185.641 291.848H140.475V233.48H198.148V249.462" stroke="black" stroke-width="3.9" stroke-miterlimit="10" stroke-linecap="square"/>
<path d="M141.17 262.664H182.931" stroke="black" stroke-width="3.9" stroke-miterlimit="10" stroke-linecap="square"/>
<path d="M396.798 234.87H381.303V293.237H382.692L439.184 235.564H440.504V293.237H423.758" stroke="black" stroke-width="3.84" stroke-miterlimit="10" stroke-linecap="square"/>
<path d="M402.218 226.531H421.674" stroke="black" stroke-width="4"/>
<path d="M506.776 235.564V255.02H504.692C504.692 255.02 497.743 236.259 477.593 236.259C457.442 236.259 449.104 252.936 449.104 265.443C449.104 277.951 458.137 294.627 477.593 294.627C497.049 294.627 503.302 280.73 505.387 276.561H506.776V294.627" stroke="black" stroke-width="3.9" stroke-miterlimit="10" stroke-linecap="square"/>
<path d="M289.674 290.628H299.402V305.22" stroke="black" stroke-width="3.61" stroke-miterlimit="10" stroke-linecap="square"/>
<path d="M289.674 290.629H213.24V232.261H229.221" stroke="black" stroke-width="3.57" stroke-miterlimit="10" stroke-linecap="square"/>
<path d="M250.762 289.934V232.261H268.133" stroke="black" stroke-width="3.57" stroke-miterlimit="10" stroke-linecap="square"/>
<path d="M289.674 289.934V232.261" stroke="black" stroke-width="3.57" stroke-miterlimit="10" stroke-linecap="square"/>
<path d="M256.939 69.3467H272.981V13.1982H270.976L217.501 67.3414V69.3467H232.207" stroke="black" stroke-width="4" stroke-miterlimit="10" stroke-linecap="square"/>
<path d="M234.546 51.5669H272.914" stroke="black" stroke-width="3.9" stroke-miterlimit="10" stroke-linecap="square"/>
<path d="M386.458 68.128H402.5V11.9795H400.495L347.02 66.1227V68.128H361.726" stroke="black" stroke-width="4" stroke-miterlimit="10" stroke-linecap="square"/>
<path d="M364.065 50.3477H402.433" stroke="black" stroke-width="3.9" stroke-miterlimit="10" stroke-linecap="square"/>
<path d="M283.865 40.6045H324.84C332.059 40.6045 340.08 36.5939 340.08 25.899C340.08 15.204 327.38 12.5303 324.038 12.5303H283.932V68.6788H327.38C336.738 68.6788 340.013 58.6523 339.412 53.3048C338.81 47.9573 332.727 40.6045 324.706 40.6045" stroke="black" stroke-width="3.9" stroke-miterlimit="10" stroke-linecap="square"/>
<path d="M83.9902 53.7564V69.7989H126.77C138.802 69.7989 140.139 59.1039 140.139 55.0933C140.139 51.0827 136.128 41.7246 126.77 41.7246H101.37" stroke="black" stroke-width="3.9" stroke-miterlimit="10" stroke-linecap="square"/>
<path d="M83.9902 29.6928V13.6504H126.77C138.802 13.6504 140.139 24.3453 140.139 28.3559C140.139 32.3666 136.128 41.7246 126.77 41.7246H101.37" stroke="black" stroke-width="3.9" stroke-miterlimit="10" stroke-linecap="square"/>
<path d="M101.37 28.356V54.4249" stroke="black" stroke-width="3.9" stroke-miterlimit="10" stroke-linecap="square"/>
<path d="M165.894 13.5327H151.856V69.6812H166.562" stroke="black" stroke-width="3.84" stroke-miterlimit="10" stroke-linecap="square"/>
<path d="M193.299 13.5327H207.336V69.6812H192.631" stroke="black" stroke-width="3.84" stroke-miterlimit="10" stroke-linecap="square"/>
<path d="M151.856 42.0083H206.668" stroke="black" stroke-width="3.84" stroke-miterlimit="10" stroke-linecap="square"/>
<path d="M428.415 11.4233H412.919V69.7912H414.309L470.801 12.1182H472.121V69.7912H455.375" stroke="black" stroke-width="3.9" stroke-miterlimit="10" stroke-linecap="square"/>
<path d="M433.834 3.08496H453.29" stroke="black" stroke-width="4"/>
<path d="M58.7329 12.9707H73.7575V15.0187L19.1225 70.3151H17.0737V55.2963" stroke="black" stroke-width="3.57" stroke-miterlimit="10" stroke-linecap="square"/>
<path d="M31.4152 12.9707H16.3906V14.336L45.4154 43.3496" stroke="black" stroke-width="3.57" stroke-miterlimit="10" stroke-linecap="square"/>
<defs>
<clipPath id="clip0">
<rect width="83.5543" height="76.87" fill="white" transform="translate(288.113 116.863)"/>
</clipPath>
</defs>
</svg>
