<svg width="169" height="150" viewBox="0 0 169 150" fill="none" xmlns="http://www.w3.org/2000/svg">
<path d="M84.4995 0L84.4995 24.8529" stroke="black" stroke-width="3"/>
<path d="M169 77.0439H144.147" stroke="black" stroke-width="3"/>
<path d="M24.853 77.0439H0.000122517" stroke="black" stroke-width="3"/>
<path d="M149.615 20.1304L129.732 40.0127" stroke="black" stroke-width="3"/>
<path d="M39.7646 114.323L19.8823 134.206" stroke="black" stroke-width="3"/>
<path d="M129.732 114.323L149.615 134.206" stroke="black" stroke-width="3"/>
<path d="M19.8823 20.1304L39.7647 40.0127" stroke="black" stroke-width="3"/>
<path fill-rule="evenodd" clip-rule="evenodd" d="M59.4816 49.7573C59.4816 46.9959 61.7201 44.7573 64.4816 44.7573H76.5807H92.4194H104.519C107.28 44.7573 109.519 46.9959 109.519 49.7573V54.6768C109.519 57.4382 111.757 59.6768 114.519 59.6768H119.438C122.199 59.6768 124.438 61.9153 124.438 64.6768V89.7947C124.438 92.5561 122.199 94.7947 119.438 94.7947H114.519C111.757 94.7947 109.519 97.0332 109.519 99.7947V104.714C109.519 107.475 107.28 109.714 104.519 109.714H104.419C101.658 109.714 99.4194 111.953 99.4194 114.714V132.782C99.4194 135.744 97.5805 138.275 94.9823 139.298C94.7272 139.399 94.5614 139.65 94.5614 139.924V144.881C94.5614 147.643 92.3228 149.881 89.5614 149.881H79.3616C76.6002 149.881 74.3616 147.643 74.3616 144.881V139.924C74.3616 139.636 74.1894 139.369 73.9223 139.26C71.3746 138.213 69.5807 135.707 69.5807 132.782V114.714C69.5807 111.953 67.3421 109.714 64.5807 109.714H64.4816C61.7201 109.714 59.4816 107.475 59.4816 104.714V99.7947C59.4816 97.0332 57.243 94.7947 54.4816 94.7947H49.562C46.8006 94.7947 44.562 92.5561 44.562 89.7947V64.6768C44.562 61.9153 46.8006 59.6768 49.562 59.6768H54.4816C57.243 59.6768 59.4816 57.4382 59.4816 54.6768V49.7573Z" fill="#CCFD38"/>
</svg>
