<svg width="281" height="205" viewBox="0 0 281 205" fill="none" xmlns="http://www.w3.org/2000/svg">
<path d="M66.0936 102.241H112.851C114.593 102.241 116.263 101.526 117.494 100.252C118.726 98.9794 119.417 97.2527 119.417 95.4522L119.38 6.78863C119.38 4.98817 118.688 3.26146 117.456 1.98834C116.225 0.715229 114.555 0 112.814 0H46.6583C44.9169 0 43.2468 0.715229 42.0154 1.98834C40.7841 3.26146 40.0923 4.98817 40.0923 6.78863V34.3546C40.0923 36.155 39.4005 37.8817 38.1692 39.1549C36.9378 40.428 35.2677 41.1432 33.5263 41.1432H6.56599C5.70373 41.1432 4.84991 41.3188 4.05329 41.6599C3.25667 42.0011 2.53284 42.5012 1.92313 43.1315C1.31343 43.7619 0.829778 44.5103 0.499806 45.3339C0.169835 46.1576 0 47.0403 0 47.9318V178.092C0 179.893 0.691773 181.62 1.92313 182.893C3.15449 184.166 4.82458 184.881 6.56599 184.881H33.5263C35.2677 184.881 36.9378 185.596 38.1692 186.869C39.4005 188.143 40.0923 189.869 40.0923 191.67V220.63C40.0923 221.523 40.2625 222.407 40.5933 223.231C40.924 224.056 41.4087 224.804 42.0197 225.435C42.6306 226.066 43.3559 226.565 44.1539 226.906C44.9519 227.246 45.807 227.421 46.6702 227.419L92.9624 227.333C94.6962 227.329 96.3585 226.617 97.5863 225.352C98.8142 224.086 99.5081 222.369 99.5165 220.577L99.6518 191.949C99.6559 191.057 99.8302 190.174 100.165 189.352C100.499 188.529 100.987 187.783 101.601 187.155C102.215 186.528 102.942 186.031 103.741 185.695C104.541 185.358 105.396 185.188 106.26 185.194L112.826 185.237C113.691 185.243 114.55 185.072 115.352 184.733C116.153 184.395 116.882 183.896 117.497 183.265C118.111 182.634 118.599 181.883 118.931 181.057C119.264 180.23 119.435 179.344 119.435 178.448V151.156C119.435 150.261 119.264 149.375 118.932 148.548C118.599 147.722 118.112 146.971 117.497 146.34C116.883 145.709 116.154 145.21 115.353 144.872C114.552 144.533 113.693 144.362 112.828 144.367L66.2369 144.678C64.5027 144.689 62.8433 145.41 61.621 146.682C60.3987 147.953 59.7126 149.674 59.7127 151.467V157.418C59.7127 159.218 59.0209 160.945 57.7895 162.218C56.5582 163.491 54.8881 164.207 53.1467 164.207H46.6583C44.9169 164.207 43.2468 163.491 42.0154 162.218C40.7841 160.945 40.0923 159.218 40.0923 157.418V66.8145C40.0923 65.014 40.7841 63.2873 42.0154 62.0142C43.2468 60.7411 44.9169 60.0259 46.6583 60.0259H53.1109C53.9761 60.0259 54.8329 60.2027 55.6319 60.5461C56.4308 60.8896 57.1562 61.393 57.7664 62.0273C58.3766 62.6616 58.8595 63.4143 59.1874 64.2423C59.5152 65.0702 59.6816 65.9569 59.6768 66.8515L59.5276 95.4152C59.5229 96.3098 59.6893 97.1965 60.0171 98.0245C60.345 98.8524 60.8279 99.6051 61.438 100.239C62.0482 100.874 62.7737 101.377 63.5726 101.721C64.3716 102.064 65.2283 102.241 66.0936 102.241V102.241Z" fill="white"/>
<path d="M273.892 40.9395H246.927C245.195 40.9396 243.533 40.2326 242.304 38.9723C241.074 37.7121 240.375 36.0007 240.36 34.2106L240.119 6.72897C240.104 4.93887 239.405 3.22745 238.175 1.96721C236.945 0.706966 235.283 -6.91207e-05 233.551 5.06826e-09H186.636C185.773 -1.01922e-06 184.918 0.175933 184.12 0.517737C183.323 0.85954 182.598 1.36051 181.988 1.99198C181.378 2.62345 180.895 3.37304 180.565 4.19786C180.236 5.02268 180.067 5.90655 180.068 6.79891L180.106 34.4842C180.106 35.3812 179.934 36.2694 179.6 37.0974C179.266 37.9253 178.777 38.6766 178.16 39.3079C177.544 39.9391 176.812 40.4378 176.008 40.7751C175.204 41.1123 174.343 41.2815 173.475 41.2728L146.747 40.9992C145.879 40.9902 145.018 41.1592 144.214 41.4963C143.41 41.8335 142.678 42.3321 142.061 42.9634C141.444 43.5947 140.955 44.3461 140.62 45.1741C140.286 46.0022 140.114 46.8906 140.114 47.7878V178.15C140.114 179.95 140.806 181.677 142.038 182.95C143.269 184.223 144.94 184.939 146.682 184.939H173.493C175.235 184.939 176.905 185.654 178.137 186.927C179.368 188.2 180.06 189.927 180.06 191.727V220.63C180.06 222.431 180.752 224.158 181.984 225.431C183.216 226.704 184.886 227.419 186.628 227.419H233.502C235.243 227.419 236.914 226.704 238.146 225.431C239.377 224.158 240.069 222.431 240.069 220.63V191.727C240.069 189.927 240.761 188.2 241.993 186.927C243.224 185.654 244.895 184.939 246.637 184.939H273.901C275.643 184.939 277.314 184.223 278.545 182.95C279.777 181.677 280.469 179.95 280.469 178.15V47.7261C280.469 46.8339 280.298 45.9505 279.968 45.1265C279.637 44.3024 279.152 43.5538 278.541 42.9235C277.93 42.2932 277.205 41.7936 276.407 41.4531C275.61 41.1127 274.755 40.9382 273.892 40.9395V40.9395ZM220.066 157.416C220.066 159.216 219.374 160.943 218.143 162.216C216.911 163.489 215.241 164.205 213.499 164.205H187.38C185.638 164.205 183.968 163.489 182.736 162.216C181.505 160.943 180.813 159.216 180.813 157.416V69.1206C180.813 67.3201 181.505 65.5934 182.736 64.3203C183.968 63.0472 185.638 62.3319 187.38 62.3319H213.499C215.241 62.3319 216.911 63.0472 218.143 64.3203C219.374 65.5934 220.066 67.3201 220.066 69.1206V157.416ZM259.025 82.3892C259.025 85.0626 257.998 87.6266 256.169 89.5169C254.34 91.4073 251.86 92.4693 249.273 92.4693C246.687 92.4693 244.207 91.4073 242.378 89.5169C240.549 87.6266 239.522 85.0626 239.522 82.3892V71.692C239.522 69.0186 240.549 66.4547 242.378 64.5643C244.207 62.6739 246.687 61.6119 249.273 61.6119C251.86 61.6119 254.34 62.6739 256.169 64.5643C257.998 66.4547 259.025 69.0186 259.025 71.692V82.3892Z" fill="white"/>
</svg>
