<svg width="57" height="49" viewBox="0 0 57 49" fill="none" xmlns="http://www.w3.org/2000/svg">
<path d="M15.6936 18.5765H24.8942C25.2777 18.5765 25.6454 18.4242 25.9166 18.153C26.1877 17.8819 26.34 17.5141 26.34 17.1307L26.3313 10.5106C26.3303 10.0556 26.1515 9.61911 25.833 9.29415C25.5146 8.96918 25.0818 8.78154 24.627 8.77125L19.2512 8.75373C18.7901 8.74346 18.3513 8.55365 18.0281 8.2247C17.7048 7.89575 17.5228 7.45363 17.5206 6.99247L17.5118 1.77002C17.5095 1.30054 17.3217 0.851005 16.9893 0.519435C16.6569 0.187865 16.2069 0.00115069 15.7374 0H10.2302C9.84675 0 9.479 0.152326 9.20786 0.423468C8.93672 0.69461 8.7844 1.06236 8.7844 1.44581V7.14143C8.7844 7.57136 8.61361 7.98368 8.3096 8.28769C8.00559 8.5917 7.59327 8.76249 7.16333 8.76249H1.44581C1.06236 8.76249 0.69461 8.91481 0.423468 9.18596C0.152326 9.4571 0 9.82485 0 10.2083V35.8254C0 36.2089 0.152326 36.5766 0.423468 36.8478C0.69461 37.1189 1.06236 37.2712 1.44581 37.2712H7.33858C7.72204 37.2712 8.08978 37.4236 8.36093 37.6947C8.63207 37.9659 8.7844 38.3336 8.7844 38.7171V46.7698C8.78555 47.1536 8.93885 47.5214 9.21069 47.7924C9.48253 48.0634 9.85073 48.2156 10.2346 48.2156L16.0879 48.1981C16.4703 48.1969 16.8367 48.0448 17.1075 47.7749C17.3782 47.5049 17.5314 47.139 17.5337 46.7566L17.56 38.7346C17.5612 38.5441 17.5998 38.3558 17.6738 38.1803C17.7477 38.0048 17.8555 37.8455 17.991 37.7117C18.1264 37.5778 18.287 37.472 18.4633 37.4002C18.6397 37.3284 18.8285 37.292 19.019 37.2931L24.8417 37.3019C25.0324 37.3037 25.2216 37.2675 25.3983 37.1956C25.575 37.1236 25.7357 37.0173 25.871 36.8829C26.0063 36.7484 26.1135 36.5884 26.1865 36.4121C26.2595 36.2359 26.2968 36.0469 26.2962 35.8561V28.8636C26.2962 28.673 26.2585 28.4843 26.1853 28.3083C26.1121 28.1323 26.0048 27.9726 25.8697 27.8382C25.7345 27.7038 25.5741 27.5975 25.3976 27.5254C25.2212 27.4532 25.0323 27.4167 24.8417 27.4178L15.6805 27.3959C15.4912 27.3965 15.3039 27.4343 15.1292 27.5073C14.9545 27.5803 14.796 27.6869 14.6625 27.8212C14.5291 27.9555 14.4234 28.1147 14.3515 28.2898C14.2796 28.4649 14.2428 28.6524 14.2434 28.8417L14.1996 36.1891C14.1996 36.7148 13.7571 37.2406 13.1437 37.2406C12.6005 37.2406 12.0703 36.7586 12.0703 36.1759V28.6928C12.0703 28.5212 12.0364 28.3512 11.9704 28.1928C11.9045 28.0343 11.8079 27.8905 11.6861 27.7695C11.5644 27.6486 11.4199 27.5529 11.261 27.4881C11.1021 27.4232 10.9319 27.3904 10.7603 27.3915L4.90699 27.4441C4.49981 27.4465 4.10813 27.2882 3.81694 27.0035C3.52576 26.7189 3.35857 26.3309 3.35165 25.9238L3.29908 20.2633C3.29675 20.048 3.33723 19.8343 3.41815 19.6348C3.49907 19.4353 3.61882 19.2538 3.77046 19.101C3.92209 18.9481 4.10258 18.8269 4.30145 18.7444C4.50031 18.6619 4.71359 18.6197 4.9289 18.6203H10.4361C10.8638 18.6191 11.2737 18.449 11.5765 18.147C11.8793 17.8451 12.0505 17.4356 12.0528 17.008L12.0703 9.91475C12.0703 9.63007 12.1834 9.35705 12.3847 9.15574C12.586 8.95444 12.859 8.84135 13.1437 8.84135C13.7133 8.84135 14.239 9.37586 14.239 9.90161L14.204 17.1219C14.1996 17.9237 14.8918 18.5765 15.6936 18.5765Z" fill="black"/>
<path d="M53.67 27.9863L46.3489 27.9994C46.1596 28 45.9723 28.0379 45.7976 28.1108C45.623 28.1838 45.4644 28.2905 45.331 28.4247C45.1975 28.559 45.0918 28.7182 45.0199 28.8933C44.948 29.0684 44.9113 29.256 44.9119 29.4452L44.8681 37.9317C44.8681 38.4575 44.4256 38.9832 43.8122 38.9832C43.2689 38.9832 42.7388 38.5013 42.7388 37.9186V29.2963C42.7388 29.1247 42.7048 28.9547 42.6389 28.7963C42.573 28.6378 42.4763 28.494 42.3546 28.3731C42.2328 28.2521 42.0883 28.1565 41.9294 28.0916C41.7706 28.0267 41.6004 27.9939 41.4288 27.9951L35.5754 28.0476C35.1683 28.05 34.7766 27.8917 34.4854 27.6071C34.1942 27.3224 34.027 26.9345 34.0201 26.5273L33.9675 20.8974C33.9658 20.6783 34.0075 20.4609 34.0901 20.258C34.1728 20.055 34.2948 19.8704 34.4492 19.7148C34.6036 19.5592 34.7872 19.4357 34.9895 19.3514C35.1919 19.2672 35.4089 19.2238 35.628 19.2238H41.1046C41.5322 19.2227 41.9421 19.0526 42.2449 18.7506C42.5477 18.4486 42.7189 18.0392 42.7213 17.6115L42.7388 10.4306C42.7388 9.83041 43.155 9.35724 43.8122 9.35724C44.3817 9.35724 44.9075 9.89175 44.9075 10.4175L44.8724 17.7254C44.8681 18.5272 45.4201 19.2238 46.2219 19.2238H53.67V27.9863ZM56.9997 11.1141C56.9987 10.6592 56.8199 10.2226 56.5015 9.89766C56.1831 9.5727 55.7503 9.38505 55.2954 9.37477L49.9196 9.35724C49.4586 9.34697 49.0197 9.15716 48.6965 8.82821C48.3733 8.49926 48.1912 8.05715 48.1891 7.59598L48.1803 2.37354C48.178 1.90405 47.9902 1.45452 47.6578 1.12295C47.3254 0.791381 46.8754 0.604666 46.4059 0.603516H40.8987C40.5152 0.603516 40.1475 0.755842 39.8763 1.02698C39.6052 1.29813 39.4529 1.66587 39.4529 2.04933V7.92019C39.4529 8.30365 39.3005 8.67139 39.0294 8.94254C38.7582 9.21368 38.3905 9.366 38.007 9.366H32.1143C31.7308 9.366 31.3631 9.51833 31.0919 9.78947C30.8208 10.0606 30.6685 10.4284 30.6685 10.8118V36.429C30.6685 36.8124 30.8208 37.1801 31.0919 37.4513C31.3631 37.7224 31.7308 37.8748 32.1143 37.8748H38.007C38.3905 37.8748 38.7582 38.0271 39.0294 38.2982C39.3005 38.5694 39.4529 38.9371 39.4529 39.3206V47.3733C39.454 47.7572 39.6073 48.1249 39.8792 48.3959C40.151 48.6669 40.5192 48.8191 40.903 48.8191L46.7564 48.8016C47.1387 48.8004 47.5051 48.6483 47.7759 48.3784C48.0467 48.1084 48.1999 47.7425 48.2022 47.3602L48.2285 39.3381C48.2296 39.1476 48.2683 38.9593 48.3422 38.7838C48.4162 38.6083 48.5239 38.4491 48.6594 38.3152C48.7949 38.1814 48.9554 38.0755 49.1318 38.0037C49.3082 37.9319 49.497 37.8955 49.6874 37.8967L55.5101 37.9054C55.7009 37.9072 55.8901 37.871 56.0668 37.7991C56.2435 37.7272 56.4041 37.6209 56.5394 37.4864C56.6747 37.3519 56.782 37.1919 56.855 37.0156C56.928 36.8394 56.9653 36.6504 56.9647 36.4596L56.9997 11.1141Z" fill="black"/>
</svg>
