<svg width="332" height="46" viewBox="0 0 332 46" fill="none" xmlns="http://www.w3.org/2000/svg">
<path fill-rule="evenodd" clip-rule="evenodd" d="M69.6967 9.12215C62.122 9.12215 55.9809 15.2642 55.9809 22.8415C55.9809 30.4189 62.122 36.5609 69.6967 36.5609C77.2713 36.5609 83.4124 30.4189 83.4124 22.8415C83.4124 15.2642 77.2713 9.12215 69.6967 9.12215ZM52.6289 22.8415C52.6289 13.4137 60.27 5.77017 69.6967 5.77017C79.1233 5.77017 86.7644 13.4137 86.7644 22.8415C86.7644 32.2694 79.1233 39.9129 69.6967 39.9129C60.27 39.9129 52.6289 32.2694 52.6289 22.8415Z" fill="black"/>
<path fill-rule="evenodd" clip-rule="evenodd" d="M43.1006 5.77017H56.3473V9.12215H46.4526V36.9275H55.2479V40.2795H43.1006V5.77017Z" fill="black"/>
<path fill-rule="evenodd" clip-rule="evenodd" d="M43.3569 21.1656H55.9806V24.5176H43.3569V21.1656Z" fill="black"/>
<path fill-rule="evenodd" clip-rule="evenodd" d="M169.65 5.63083H204.382V17.0274H201.265V8.74713H172.766V17.0274H169.65V5.63083Z" fill="black"/>
<path fill-rule="evenodd" clip-rule="evenodd" d="M188.95 5.96939V40.7388H185.834V5.96939H188.95Z" fill="black"/>
<path fill-rule="evenodd" clip-rule="evenodd" d="M290.322 5.86298H304.265V9.26733H293.726V37.4785H316.488C318.451 37.4785 319.729 36.5402 320.547 35.224C321.411 33.835 321.721 32.0596 321.571 30.712C321.283 28.1192 318.566 25.0751 314.983 25.0751H313.281V21.6707H314.983C320.433 21.6707 324.49 26.1541 324.955 30.3361C325.182 32.3759 324.739 34.9287 323.438 37.0213C322.092 39.1865 319.795 40.8829 316.488 40.8829H290.322V5.86298Z" fill="black"/>
<path fill-rule="evenodd" clip-rule="evenodd" d="M290.284 21.6709H316.723V25.0752H290.284V21.6709Z" fill="black"/>
<path fill-rule="evenodd" clip-rule="evenodd" d="M90.0903 5.48578H124.734V17.5468H121.329V8.89014H93.4947V37.1013H116.257C118.22 37.1013 119.498 36.163 120.316 34.8468C121.179 33.4578 121.49 31.6824 121.34 30.3348C121.052 27.742 118.334 24.6979 114.751 24.6979H113.049V21.2935H114.751C120.201 21.2935 124.259 25.7769 124.723 29.9589C124.95 31.9987 124.508 34.5515 123.207 36.6441C121.861 38.8093 119.563 40.5057 116.257 40.5057H90.0903V5.48578Z" fill="black"/>
<path fill-rule="evenodd" clip-rule="evenodd" d="M90.8057 21.2937H116.491V24.698H90.8057V21.2937Z" fill="black"/>
<path fill-rule="evenodd" clip-rule="evenodd" d="M209.402 5.48657H244.422V17.5476H241.017V8.89093H212.806V37.1021H240.641V28.8218H244.045V40.5065H209.402V5.48657Z" fill="black"/>
<path fill-rule="evenodd" clip-rule="evenodd" d="M209.402 21.2945L234.26 21.2945L234.26 24.6988L209.402 24.6988L209.402 21.2945Z" fill="black"/>
<path fill-rule="evenodd" clip-rule="evenodd" d="M234.26 13.3903V32.9788H230.855V13.3903H234.26Z" fill="black"/>
<path fill-rule="evenodd" clip-rule="evenodd" d="M129.222 5.51279H140.967V8.86477H132.574V35.4666L161.546 5.88916H164.641V40.4803H152.219V37.1283H161.289V10.9412L132.355 40.4803H129.222V5.51279Z" fill="black"/>
<path fill-rule="evenodd" clip-rule="evenodd" d="M281.162 5.88904H284.667V40.4802H272.659V37.1282H281.315V10.5038L255.02 37.1282H261.332V40.4802H250.076V37.3633L281.162 5.88904Z" fill="black"/>
<path fill-rule="evenodd" clip-rule="evenodd" d="M35.7654 5.88904H39.2708V40.4802H27.2622V37.1282H35.9188V10.5038L9.62314 37.1282H15.9355V40.4802H4.67969V37.3633L35.7654 5.88904Z" fill="black"/>
</svg>
