<svg width="621" height="82" viewBox="0 0 621 82" fill="none" xmlns="http://www.w3.org/2000/svg">
<path d="M343.95 10.752H329.295V69.372H344.648" stroke="black" stroke-width="3.84" stroke-miterlimit="10" stroke-linecap="square"/>
<path d="M372.563 10.752H387.218V69.372H371.865" stroke="black" stroke-width="3.84" stroke-miterlimit="10" stroke-linecap="square"/>
<path d="M329.295 40.7598L386.52 40.7598" stroke="black" stroke-width="3.84" stroke-miterlimit="10" stroke-linecap="square"/>
<path d="M298.241 69.7211H314.989V11.1011H312.896L257.067 67.6276V69.7211H272.42" stroke="black" stroke-width="4" stroke-miterlimit="10" stroke-linecap="square"/>
<path d="M274.862 51.1582H314.919" stroke="black" stroke-width="3.9" stroke-miterlimit="10" stroke-linecap="square"/>
<path d="M169.486 27.5004V11.4497H110.866V70.0698H168.788V54.7169" stroke="black" stroke-width="3.9" stroke-miterlimit="10" stroke-linecap="square"/>
<path d="M150.644 40.7598L110.866 40.7598" stroke="black" stroke-width="3.9" stroke-miterlimit="10" stroke-linecap="square"/>
<path d="M150.644 26.105V56.1129" stroke="black" stroke-width="3.9" stroke-miterlimit="10" stroke-linecap="square"/>
<path d="M417.365 11.4497H401.803V70.0698H403.199L459.935 12.1476H461.261V70.0698H444.442" stroke="black" stroke-width="3.84" stroke-miterlimit="10" stroke-linecap="square"/>
<path d="M563.218 12.1475H547.656V70.7675H549.051L605.787 12.8453H607.113V70.7675H590.295" stroke="black" stroke-width="3.84" stroke-miterlimit="10" stroke-linecap="square"/>
<path d="M491.199 12.1479H475.148V70.768H476.544L533.768 13.5437V12.1479H518.415" stroke="black" stroke-width="3.84" stroke-miterlimit="10" stroke-linecap="square"/>
<path d="M533.768 54.7175V70.7682H532.372L504.458 43.5518" stroke="black" stroke-width="3.84" stroke-miterlimit="10" stroke-linecap="square"/>
<path d="M18.7486 70.0703H2V69.3724L59.2244 11.4502H60.6201V70.0703H45.2672" stroke="black" stroke-width="3.84" stroke-miterlimit="10" stroke-linecap="square"/>
<path d="M61.3179 41.4585L91.3258 12.1484H93.4193V70.0706H77.3686" stroke="black" stroke-width="3.84" stroke-miterlimit="10" stroke-linecap="square"/>
<path d="M226.013 12.1479H242.063V13.5437L184.141 68.6745V70.0702H199.494" stroke="black" stroke-width="3.57" stroke-miterlimit="10" stroke-linecap="square"/>
<path d="M200.192 12.1479H184.141V13.5437L242.063 68.6745V70.0702H226.71" stroke="black" stroke-width="3.57" stroke-miterlimit="10" stroke-linecap="square"/>
</svg>
