<svg width="362" height="51" viewBox="0 0 362 51" fill="none" xmlns="http://www.w3.org/2000/svg">
<path d="M107 25.6265H140.681C146.615 25.6265 153.209 22.3298 153.209 13.5386C153.209 4.74736 142.769 2.54956 140.022 2.54956H107.055V48.7034H142.769C150.462 48.7034 153.154 40.4616 152.659 36.066C152.165 31.6704 147.165 25.6265 140.571 25.6265" stroke="black" stroke-width="3" stroke-miterlimit="10" stroke-linecap="square"/>
<path d="M260.495 14.0879V2H306.648V14.0879" stroke="black" stroke-width="3" stroke-miterlimit="10" stroke-linecap="square"/>
<path d="M284.121 48.7034V2.49463" stroke="black" stroke-width="3" stroke-miterlimit="10" stroke-linecap="square"/>
<path d="M13.5385 2.48364H2V48.6375H14.0879" stroke="black" stroke-width="3" stroke-miterlimit="10" stroke-linecap="square"/>
<path d="M36.0661 2.48364H47.6045V48.6375H35.5166" stroke="black" stroke-width="3" stroke-miterlimit="10" stroke-linecap="square"/>
<path d="M2 26.1101L47.0549 26.1101" stroke="black" stroke-width="3" stroke-miterlimit="10" stroke-linecap="square"/>
<path d="M77.0769 48.1538C89.822 48.1538 100.154 37.822 100.154 25.0769C100.154 12.3319 89.822 2 77.0769 2C64.3319 2 54 12.3319 54 25.0769C54 37.822 64.3319 48.1538 77.0769 48.1538Z" stroke="black" stroke-width="3" stroke-miterlimit="10" stroke-linecap="square"/>
<path d="M180.824 48.1538C193.569 48.1538 203.901 37.822 203.901 25.0769C203.901 12.3319 193.569 2 180.824 2C168.079 2 157.747 12.3319 157.747 25.0769C157.747 37.822 168.079 48.1538 180.824 48.1538Z" stroke="black" stroke-width="3" stroke-miterlimit="10" stroke-linecap="square"/>
<path d="M255 2V17.3846H253.352C253.352 17.3846 247.857 2.54945 231.923 2.54945C215.989 2.54945 209.396 15.7363 209.396 25.6264C209.396 35.5165 216.538 48.7033 231.923 48.7033C247.308 48.7033 252.253 37.7143 253.901 34.4176H255V48.7033" stroke="black" stroke-width="3" stroke-miterlimit="10" stroke-linecap="square"/>
<path d="M324.945 2H312.692V48.1538H313.791L358.462 2.54945H359.506V48.1538H346.264" stroke="black" stroke-width="3" stroke-miterlimit="10" stroke-linecap="square"/>
</svg>
