<svg width="95" height="116" viewBox="0 0 95 116" fill="none" xmlns="http://www.w3.org/2000/svg">
<path d="M47.5 115.25C53.9625 115.25 59.25 109.962 59.25 103.5H35.75C35.75 109.962 41.0375 115.25 47.5 115.25ZM82.75 80V50.625C82.75 32.5887 73.1738 17.49 56.3125 13.495V9.5C56.3125 4.62375 52.3763 0.6875 47.5 0.6875C42.6237 0.6875 38.6875 4.62375 38.6875 9.5V13.495C21.885 17.49 12.25 32.53 12.25 50.625V80L0.5 91.75V97.625H94.5V91.75L82.75 80ZM71 85.875H24V50.625C24 36.055 32.8713 24.1875 47.5 24.1875C62.1287 24.1875 71 36.055 71 50.625V85.875Z" fill="black"/>
</svg>
