<svg width="278" height="278" viewBox="0 0 278 278" fill="none" xmlns="http://www.w3.org/2000/svg">
<path d="M243.25 69.5016H206.531L185.333 46.3349H115.833V69.5016H175.14L196.338 92.6682H243.25V231.668H57.9167V127.418H34.75V231.668C34.75 244.41 45.175 254.835 57.9167 254.835H243.25C255.992 254.835 266.417 244.41 266.417 231.668V92.6682C266.417 79.9266 255.992 69.5016 243.25 69.5016ZM92.6667 162.168C92.6667 194.138 118.613 220.085 150.583 220.085C182.553 220.085 208.5 194.138 208.5 162.168C208.5 130.198 182.553 104.252 150.583 104.252C118.613 104.252 92.6667 130.198 92.6667 162.168ZM150.583 127.418C169.696 127.418 185.333 143.056 185.333 162.168C185.333 181.281 169.696 196.918 150.583 196.918C131.471 196.918 115.833 181.281 115.833 162.168C115.833 143.056 131.471 127.418 150.583 127.418ZM57.9167 69.5016H92.6667V46.3349H57.9167V11.5849H34.75V46.3349H0V69.5016H34.75V104.252H57.9167V69.5016Z" fill="white"/>
</svg>
