<svg width="179" height="113" viewBox="0 0 179 113" fill="none" xmlns="http://www.w3.org/2000/svg">
<path fill-rule="evenodd" clip-rule="evenodd" d="M68 43C68 40.2386 65.7614 38 63 38H51C48.2386 38 46 40.2386 46 43V48C46 50.7614 43.7614 53 41 53H36C33.2386 53 31 55.2386 31 58V70C31 72.7614 28.7614 75 26 75H22C19.2386 75 17 77.2386 17 80V91C17 93.7614 19.2386 96 22 96H92C94.7614 96 97 93.7614 97 91V80C97 77.2386 94.7614 75 92 75H87C84.2386 75 82 72.7614 82 70V58C82 55.2386 79.7614 53 77 53H73C70.2386 53 68 50.7614 68 48V43Z" fill="#CCFD38"/>
<path fill-rule="evenodd" clip-rule="evenodd" d="M126 28C126 25.2386 123.761 23 121 23H109C106.239 23 104 25.2386 104 28V33C104 35.7614 101.761 38 99 38H95C92.2386 38 90 40.2386 90 43V62C90 64.7614 92.2386 67 95 67H99C101.761 67 104 69.2386 104 72V91C104 93.7614 106.239 96 109 96H119H155H165C167.761 96 170 93.7614 170 91V87C170 84.2386 167.761 82 165 82H160C157.239 82 155 79.7614 155 77V65C155 62.2386 152.761 60 150 60H146C143.239 60 141 57.7614 141 55V43C141 40.2386 138.761 38 136 38H131C128.239 38 126 35.7614 126 33V28Z" fill="#CCFD38"/>
<rect x="17" y="2" width="21" height="21" rx="5" fill="#CCFD38"/>
<path d="M2 23L2 111" stroke="black" stroke-width="3"/>
<path d="M118.706 111L1.99993 111" stroke="black" stroke-width="3"/>
<path d="M177 82L177 2" stroke="black" stroke-width="3"/>
<path d="M82 2L177 2.00001" stroke="black" stroke-width="3"/>
</svg>
