<svg width="295" height="485" viewBox="0 0 295 485" fill="none" xmlns="http://www.w3.org/2000/svg">
<rect width="295" height="485" rx="32" fill="#9896AE"/>
<path d="M34.2 43V31.46H28.18V43H25.46V29H36.92V43H34.2ZM44.415 41.12C45.2817 41.12 46.015 40.82 46.615 40.22C47.215 39.6067 47.515 38.8667 47.515 38C47.515 37.1467 47.215 36.4133 46.615 35.8C46.015 35.1867 45.2817 34.88 44.415 34.88C43.5483 34.88 42.815 35.1867 42.215 35.8C41.615 36.4133 41.315 37.1467 41.315 38C41.315 38.88 41.6083 39.62 42.195 40.22C42.795 40.82 43.535 41.12 44.415 41.12ZM48.255 41.76C47.2417 42.7867 45.9617 43.3 44.415 43.3C42.8683 43.3 41.5817 42.7867 40.555 41.76C39.5283 40.7333 39.015 39.48 39.015 38C39.015 36.5333 39.5283 35.2867 40.555 34.26C41.5817 33.22 42.8683 32.7 44.415 32.7C45.9483 32.7 47.2283 33.22 48.255 34.26C49.2817 35.2867 49.795 36.5333 49.795 38C49.795 39.48 49.2817 40.7333 48.255 41.76ZM58.9653 35.08H54.0253V43H51.6453V33H61.3453V43H58.9653V35.08ZM73.7947 33L67.6547 47.08H65.2147L66.9347 42.98L62.6947 33H65.3347L68.1947 40.02L71.1747 33H73.7947ZM72.9891 43V41.14H73.5891C74.1491 41.14 74.5691 40.8267 74.8491 40.2C75.1424 39.56 75.2891 38.46 75.2891 36.9V33H83.7091V43H81.3091V35.08H77.5691V37.36C77.5691 41.12 76.4357 43 74.1691 43H72.9891ZM91.798 39.68H90.318L88.218 43H85.558L87.938 39.44C87.2046 39.2533 86.6246 38.8733 86.198 38.3C85.7713 37.7267 85.558 37.0733 85.558 36.34C85.558 35.42 85.8846 34.6333 86.538 33.98C87.2046 33.3267 88.0846 33 89.178 33H94.178V43H91.798V39.68ZM91.798 34.88H89.478C89.038 34.88 88.6713 35.0133 88.378 35.28C88.098 35.5467 87.958 35.9 87.958 36.34C87.958 36.7933 88.098 37.1533 88.378 37.42C88.6713 37.6867 89.038 37.82 89.478 37.82H91.798V34.88ZM102.147 43.3C101.533 43.3 100.94 43.16 100.367 42.88C99.7934 42.5867 99.3267 42.1933 98.9667 41.7V47.08H96.5867V33H98.9667V34.32C99.7667 33.28 100.86 32.76 102.247 32.76C103.673 32.76 104.827 33.2733 105.707 34.3C106.587 35.3133 107.027 36.5467 107.027 38C107.027 39.4933 106.573 40.7533 105.667 41.78C104.76 42.7933 103.587 43.3 102.147 43.3ZM101.427 34.92C100.427 34.92 99.6067 35.3267 98.9667 36.14V39.86C99.5934 40.6867 100.413 41.1 101.427 41.1C102.267 41.1 102.987 40.8 103.587 40.2C104.187 39.5867 104.487 38.8533 104.487 38C104.487 37.16 104.187 36.44 103.587 35.84C102.987 35.2267 102.267 34.92 101.427 34.92ZM116.152 38.92H111.252V43H108.872V33H111.252V36.74H116.152V33H118.552V43H116.152V38.92ZM123.322 36.32H126.042C127.109 36.32 127.976 36.6467 128.642 37.3C129.322 37.94 129.662 38.7267 129.662 39.66C129.662 40.5933 129.336 41.3867 128.682 42.04C128.029 42.68 127.149 43 126.042 43H120.942V33H123.322V36.32ZM123.322 41.14H125.742C126.169 41.14 126.529 41.0067 126.822 40.74C127.116 40.46 127.262 40.1 127.262 39.66C127.262 39.22 127.116 38.8667 126.822 38.6C126.529 38.32 126.169 38.18 125.742 38.18H123.322V41.14ZM130.802 43V33H133.182V43H130.802ZM145.371 37.8C145.371 38.04 145.351 38.2733 145.311 38.5H137.471C137.471 39.34 137.757 40.0267 138.331 40.56C138.904 41.08 139.704 41.34 140.731 41.34C141.891 41.34 142.897 41.0133 143.751 40.36L144.671 41.84C143.591 42.8133 142.177 43.3 140.431 43.3C138.924 43.3 137.644 42.8067 136.591 41.82C135.551 40.8333 135.031 39.6067 135.031 38.14C135.031 36.6333 135.537 35.3533 136.551 34.3C137.564 33.2333 138.797 32.7 140.251 32.7C141.837 32.7 143.084 33.1733 143.991 34.12C144.911 35.0667 145.371 36.2933 145.371 37.8ZM143.111 36.94C142.977 36.26 142.664 35.7133 142.171 35.3C141.677 34.8733 141.037 34.66 140.251 34.66C139.557 34.66 138.957 34.8667 138.451 35.28C137.957 35.68 137.624 36.2333 137.451 36.94H143.111ZM159.191 43L156.751 39.6L154.311 43H151.271L155.131 37.96L151.371 33H154.391L156.751 36.4L159.091 33H162.131L158.151 37.96L162.211 43H159.191ZM165.046 38.88V37.2H169.486C169.366 36.48 169.046 35.8933 168.526 35.44C168.006 34.9867 167.359 34.76 166.586 34.76C165.573 34.76 164.646 35.0667 163.806 35.68L162.686 34.2C163.726 33.2 165.059 32.7 166.686 32.7C168.153 32.7 169.393 33.2267 170.406 34.28C171.419 35.3333 171.926 36.5733 171.926 38C171.926 39.4267 171.419 40.6667 170.406 41.72C169.393 42.7733 168.153 43.3 166.686 43.3C165.059 43.3 163.726 42.8 162.686 41.8L163.806 40.34C164.659 40.94 165.586 41.24 166.586 41.24C167.346 41.24 167.979 41.02 168.486 40.58C169.006 40.14 169.333 39.5733 169.466 38.88H165.046ZM176.037 40.92H179.997V33H182.377V40.92H186.337V33H188.717V43H173.657V33H176.037V40.92ZM199.238 33V35.18H195.838V43H193.458V35.18H190.058V33H199.238ZM210.156 37.8C210.156 38.04 210.136 38.2733 210.096 38.5H202.256C202.256 39.34 202.542 40.0267 203.116 40.56C203.689 41.08 204.489 41.34 205.516 41.34C206.676 41.34 207.682 41.0133 208.536 40.36L209.456 41.84C208.376 42.8133 206.962 43.3 205.216 43.3C203.709 43.3 202.429 42.8067 201.376 41.82C200.336 40.8333 199.816 39.6067 199.816 38.14C199.816 36.6333 200.322 35.3533 201.336 34.3C202.349 33.2333 203.582 32.7 205.036 32.7C206.622 32.7 207.869 33.1733 208.776 34.12C209.696 35.0667 210.156 36.2933 210.156 37.8ZM207.896 36.94C207.762 36.26 207.449 35.7133 206.956 35.3C206.462 34.8733 205.822 34.66 205.036 34.66C204.342 34.66 203.742 34.8667 203.236 35.28C202.742 35.68 202.409 36.2333 202.236 36.94H207.896ZM219.616 33V35.18H214.396V43H212.016V33H219.616ZM223.361 33V39.64L228.261 33H230.681V43H228.301V36.38L223.401 43H220.981V33H223.361Z" fill="#FBFBFF"/>
<path d="M42.048 94L42.512 91.328H40.784V89.936H42.736L43.296 86.8H41.424V85.408H43.52L43.968 82.8H45.376L44.928 85.408H47.28L47.728 82.8H49.136L48.688 85.408H50.4V86.8H48.464L47.92 89.936H49.76V91.328H47.68L47.232 94H45.808L46.272 91.328H43.92L43.472 94H42.048ZM44.16 89.936H46.496L47.056 86.8H44.704L44.16 89.936Z" fill="#75FEFA"/>
<path d="M59.344 90.144V94H57.168V82.8H61.664C62.816 82.8 63.744 83.152 64.448 83.856C65.1627 84.5493 65.52 85.424 65.52 86.48C65.52 87.5253 65.1573 88.4 64.432 89.104C63.7067 89.7973 62.784 90.144 61.664 90.144H59.344ZM61.504 84.768H59.344V88.176H61.504C62.08 88.176 62.528 88.0213 62.848 87.712C63.168 87.392 63.328 86.976 63.328 86.464C63.328 85.952 63.168 85.5413 62.848 85.232C62.528 84.9227 62.08 84.768 61.504 84.768ZM72.5995 90.784C72.5995 90.4427 72.4502 90.16 72.1515 89.936C71.8635 89.712 71.4955 89.5467 71.0475 89.44C70.6102 89.3333 70.1302 89.1947 69.6075 89.024C69.0955 88.8533 68.6155 88.6613 68.1675 88.448C67.7302 88.224 67.3622 87.8773 67.0635 87.408C66.7755 86.9387 66.6315 86.368 66.6315 85.696C66.6315 84.7787 66.9782 84.0267 67.6715 83.44C68.3755 82.8533 69.3035 82.56 70.4555 82.56C71.8102 82.56 73.0795 83.0133 74.2635 83.92L73.2715 85.424C72.3862 84.7093 71.4155 84.352 70.3595 84.352C69.8795 84.352 69.4582 84.4693 69.0955 84.704C68.7328 84.928 68.5515 85.2587 68.5515 85.696C68.5515 85.9947 68.6635 86.2453 68.8875 86.448C69.1115 86.64 69.4048 86.8 69.7675 86.928C70.1302 87.0453 70.5302 87.1627 70.9675 87.28C71.4048 87.3867 71.8422 87.5253 72.2795 87.696C72.7168 87.856 73.1168 88.0533 73.4795 88.288C73.8422 88.5227 74.1355 88.8533 74.3595 89.28C74.5835 89.7067 74.6955 90.208 74.6955 90.784C74.6955 91.7227 74.2795 92.5333 73.4475 93.216C72.6155 93.8987 71.6128 94.24 70.4395 94.24C68.8608 94.24 67.4688 93.76 66.2635 92.8L67.2235 91.2C67.6608 91.5413 68.1728 91.8187 68.7595 92.032C69.3568 92.2453 69.9435 92.352 70.5195 92.352C71.0742 92.352 71.5595 92.2027 71.9755 91.904C72.3915 91.6053 72.5995 91.232 72.5995 90.784ZM78.8489 84.784L78.5289 87.248C79.0622 86.9493 79.7235 86.8 80.5129 86.8C81.5475 86.8 82.3582 87.136 82.9449 87.808C83.5315 88.48 83.8249 89.3173 83.8249 90.32C83.8249 91.376 83.4729 92.2933 82.7689 93.072C82.0649 93.8507 81.0675 94.24 79.7769 94.24C79.0622 94.24 78.4542 94.128 77.9529 93.904C77.4515 93.68 76.9129 93.3333 76.3369 92.864L77.3129 91.36C78.1129 92.064 78.9342 92.416 79.7769 92.416C80.2782 92.416 80.7155 92.2027 81.0889 91.776C81.4729 91.3387 81.6649 90.8533 81.6649 90.32C81.6649 89.7227 81.5049 89.2587 81.1849 88.928C80.8755 88.5867 80.4595 88.416 79.9369 88.416C79.1902 88.416 78.5502 88.6027 78.0169 88.976L76.7209 88.48L77.4409 82.8H83.5209V84.784H78.8489Z" fill="#CCFD38"/>
<rect x="25" y="70" width="75" height="38" rx="19" stroke="#CCFD38" stroke-width="2"/>
<path d="M130.048 94L130.512 91.328H128.784V89.936H130.736L131.296 86.8H129.424V85.408H131.52L131.968 82.8H133.376L132.928 85.408H135.28L135.728 82.8H137.136L136.688 85.408H138.4V86.8H136.464L135.92 89.936H137.76V91.328H135.68L135.232 94H133.808L134.272 91.328H131.92L131.472 94H130.048ZM132.16 89.936H134.496L135.056 86.8H132.704L132.16 89.936Z" fill="#75FEFA"/>
<path d="M147.344 90.144V94H145.168V82.8H149.664C150.816 82.8 151.744 83.152 152.448 83.856C153.163 84.5493 153.52 85.424 153.52 86.48C153.52 87.5253 153.157 88.4 152.432 89.104C151.707 89.7973 150.784 90.144 149.664 90.144H147.344ZM149.504 84.768H147.344V88.176H149.504C150.08 88.176 150.528 88.0213 150.848 87.712C151.168 87.392 151.328 86.976 151.328 86.464C151.328 85.952 151.168 85.5413 150.848 85.232C150.528 84.9227 150.08 84.768 149.504 84.768ZM160.576 92.224C161.835 92.224 162.907 91.872 163.792 91.168L164.752 92.88C163.611 93.7867 162.219 94.24 160.576 94.24C158.763 94.24 157.317 93.6907 156.24 92.592C155.173 91.4827 154.64 90.0853 154.64 88.4C154.64 86.7253 155.173 85.3333 156.24 84.224C157.317 83.1147 158.763 82.56 160.576 82.56C162.197 82.56 163.589 83.0133 164.752 83.92L163.792 85.648C162.885 84.9333 161.813 84.576 160.576 84.576C159.456 84.576 158.555 84.944 157.872 85.68C157.189 86.416 156.848 87.3227 156.848 88.4C156.848 89.456 157.189 90.3573 157.872 91.104C158.565 91.8507 159.467 92.224 160.576 92.224Z" fill="#CCFD38"/>
<rect x="113" y="70" width="67" height="38" rx="19" stroke="#CCFD38" stroke-width="2"/>
<path d="M210.048 94L210.512 91.328H208.784V89.936H210.736L211.296 86.8H209.424V85.408H211.52L211.968 82.8H213.376L212.928 85.408H215.28L215.728 82.8H217.136L216.688 85.408H218.4V86.8H216.464L215.92 89.936H217.76V91.328H215.68L215.232 94H213.808L214.272 91.328H211.92L211.472 94H210.048ZM212.16 89.936H214.496L215.056 86.8H212.704L212.16 89.936Z" fill="#75FEFA"/>
<path d="M225.168 94V82.8H227.344V94H225.168ZM235.092 84.656C233.961 84.656 233.049 85.0133 232.356 85.728C231.662 86.4427 231.316 87.3333 231.316 88.4C231.316 89.4773 231.662 90.3733 232.356 91.088C233.049 91.792 233.961 92.144 235.092 92.144C236.212 92.144 237.118 91.792 237.812 91.088C238.505 90.3733 238.852 89.4773 238.852 88.4C238.852 87.3333 238.505 86.4427 237.812 85.728C237.118 85.0133 236.212 84.656 235.092 84.656ZM239.412 92.592C238.345 93.6907 236.905 94.24 235.092 94.24C233.278 94.24 231.833 93.6907 230.756 92.592C229.689 91.4827 229.156 90.0853 229.156 88.4C229.156 86.7253 229.689 85.3333 230.756 84.224C231.833 83.1147 233.278 82.56 235.092 82.56C236.905 82.56 238.345 83.1147 239.412 84.224C240.489 85.3333 241.028 86.7253 241.028 88.4C241.028 90.0853 240.489 91.4827 239.412 92.592ZM248.584 90.784C248.584 90.4427 248.435 90.16 248.136 89.936C247.848 89.712 247.48 89.5467 247.032 89.44C246.595 89.3333 246.115 89.1947 245.592 89.024C245.08 88.8533 244.6 88.6613 244.152 88.448C243.715 88.224 243.347 87.8773 243.048 87.408C242.76 86.9387 242.616 86.368 242.616 85.696C242.616 84.7787 242.963 84.0267 243.656 83.44C244.36 82.8533 245.288 82.56 246.44 82.56C247.795 82.56 249.064 83.0133 250.248 83.92L249.256 85.424C248.371 84.7093 247.4 84.352 246.344 84.352C245.864 84.352 245.443 84.4693 245.08 84.704C244.717 84.928 244.536 85.2587 244.536 85.696C244.536 85.9947 244.648 86.2453 244.872 86.448C245.096 86.64 245.389 86.8 245.752 86.928C246.115 87.0453 246.515 87.1627 246.952 87.28C247.389 87.3867 247.827 87.5253 248.264 87.696C248.701 87.856 249.101 88.0533 249.464 88.288C249.827 88.5227 250.12 88.8533 250.344 89.28C250.568 89.7067 250.68 90.208 250.68 90.784C250.68 91.7227 250.264 92.5333 249.432 93.216C248.6 93.8987 247.597 94.24 246.424 94.24C244.845 94.24 243.453 93.76 242.248 92.8L243.208 91.2C243.645 91.5413 244.157 91.8187 244.744 92.032C245.341 92.2453 245.928 92.352 246.504 92.352C247.059 92.352 247.544 92.2027 247.96 91.904C248.376 91.6053 248.584 91.232 248.584 90.784Z" fill="#CCFD38"/>
<rect x="193" y="70" width="74" height="38" rx="19" stroke="#CCFD38" stroke-width="2"/>
<path d="M42.048 146L42.512 143.328H40.784V141.936H42.736L43.296 138.8H41.424V137.408H43.52L43.968 134.8H45.376L44.928 137.408H47.28L47.728 134.8H49.136L48.688 137.408H50.4V138.8H48.464L47.92 141.936H49.76V143.328H47.68L47.232 146H45.808L46.272 143.328H43.92L43.472 146H42.048ZM44.16 141.936H46.496L47.056 138.8H44.704L44.16 141.936Z" fill="#75FEFA"/>
<path d="M64.272 146L59.472 140.256L64.064 134.8H66.368L61.776 140.256L66.784 146H64.272ZM57.168 146V134.8H59.344V146H57.168ZM74.7288 139.968C74.7288 140.341 74.6221 140.693 74.4088 141.024C74.2061 141.355 73.9288 141.611 73.5768 141.792C74.0354 141.963 74.3981 142.229 74.6648 142.592C74.9421 142.955 75.0808 143.365 75.0808 143.824C75.0808 144.432 74.8568 144.949 74.4088 145.376C73.9714 145.792 73.3901 146 72.6648 146H67.9288V138H72.4888C73.1608 138 73.6994 138.192 74.1048 138.576C74.5208 138.949 74.7288 139.413 74.7288 139.968ZM69.8328 144.688H71.9608C72.3128 144.688 72.5954 144.592 72.8088 144.4C73.0328 144.197 73.1448 143.936 73.1448 143.616C73.1448 143.296 73.0328 143.035 72.8088 142.832C72.5848 142.629 72.3021 142.528 71.9608 142.528H69.8328V144.688ZM72.9368 140.256C72.9368 139.979 72.8301 139.755 72.6168 139.584C72.4034 139.403 72.1421 139.312 71.8328 139.312H69.8328V141.296H71.8328C72.1421 141.296 72.4034 141.2 72.6168 141.008C72.8301 140.805 72.9368 140.555 72.9368 140.256ZM84.4559 141.84C84.4559 142.032 84.4399 142.219 84.4079 142.4H78.1359C78.1359 143.072 78.3652 143.621 78.8239 144.048C79.2825 144.464 79.9225 144.672 80.7439 144.672C81.6719 144.672 82.4772 144.411 83.1599 143.888L83.8959 145.072C83.0319 145.851 81.9012 146.24 80.5039 146.24C79.2985 146.24 78.2745 145.845 77.4319 145.056C76.5999 144.267 76.1839 143.285 76.1839 142.112C76.1839 140.907 76.5892 139.883 77.3999 139.04C78.2105 138.187 79.1972 137.76 80.3599 137.76C81.6292 137.76 82.6265 138.139 83.3519 138.896C84.0879 139.653 84.4559 140.635 84.4559 141.84ZM82.6479 141.152C82.5412 140.608 82.2905 140.171 81.8959 139.84C81.5012 139.499 80.9892 139.328 80.3599 139.328C79.8052 139.328 79.3252 139.493 78.9199 139.824C78.5252 140.144 78.2585 140.587 78.1199 141.152H82.6479ZM87.3364 142C87.3364 142.704 87.5657 143.285 88.0244 143.744C88.4937 144.203 89.075 144.432 89.7684 144.432C90.5577 144.432 91.2937 144.176 91.9764 143.664L92.8884 145.04C92.0564 145.84 90.9897 146.24 89.6884 146.24C88.515 146.24 87.523 145.819 86.7124 144.976C85.9017 144.133 85.4964 143.141 85.4964 142C85.4964 140.859 85.9017 139.867 86.7124 139.024C87.523 138.181 88.515 137.76 89.6884 137.76C90.9897 137.76 92.0564 138.16 92.8884 138.96L91.9764 140.352C91.283 139.829 90.547 139.568 89.7684 139.568C89.0964 139.568 88.5204 139.808 88.0404 140.288C87.571 140.757 87.3364 141.328 87.3364 142ZM100.894 138V139.744H98.1735V146H96.2695V139.744H93.5495V138H100.894Z" fill="#CCFD38"/>
<rect x="25" y="122" width="91" height="38" rx="19" stroke="#CCFD38" stroke-width="2"/>
<path d="M143.048 146L143.512 143.328H141.784V141.936H143.736L144.296 138.8H142.424V137.408H144.52L144.968 134.8H146.376L145.928 137.408H148.28L148.728 134.8H150.136L149.688 137.408H151.4V138.8H149.464L148.92 141.936H150.76V143.328H148.68L148.232 146H146.808L147.272 143.328H144.92L144.472 146H143.048ZM145.16 141.936H147.496L148.056 138.8H145.704L145.16 141.936Z" fill="#75FEFA"/>
<path d="M166.744 146V144.8H166.344C164.936 144.8 163.784 144.373 162.888 143.52C162.003 142.656 161.56 141.541 161.56 140.176C161.56 138.789 162.008 137.675 162.904 136.832C163.8 135.979 164.947 135.552 166.344 135.552H166.744V134.48H168.92V135.552H169.32C170.717 135.552 171.864 135.984 172.76 136.848C173.656 137.712 174.104 138.821 174.104 140.176C174.104 141.563 173.651 142.683 172.744 143.536C171.848 144.379 170.707 144.8 169.32 144.8H168.92V146H166.744ZM168.92 142.944H169.24C170.115 142.944 170.803 142.683 171.304 142.16C171.805 141.637 172.056 140.976 172.056 140.176C172.056 139.387 171.8 138.731 171.288 138.208C170.787 137.675 170.104 137.408 169.24 137.408H168.92V142.944ZM166.408 142.944H166.744V137.408H166.408C165.544 137.408 164.856 137.675 164.344 138.208C163.843 138.731 163.592 139.387 163.592 140.176C163.592 140.976 163.843 141.637 164.344 142.16C164.845 142.683 165.533 142.944 166.408 142.944ZM177.904 146.24C177.051 146.24 176.379 146.043 175.888 145.648C175.408 145.253 175.168 144.693 175.168 143.968C175.168 143.584 175.232 143.243 175.36 142.944C175.499 142.645 175.707 142.405 175.984 142.224C176.272 142.032 176.571 141.872 176.88 141.744C177.19 141.616 177.579 141.525 178.048 141.472C178.518 141.408 178.95 141.365 179.344 141.344C179.75 141.312 180.23 141.291 180.784 141.28V140.752C180.784 139.749 180.214 139.248 179.072 139.248C178.123 139.248 177.27 139.557 176.512 140.176L175.536 139.056C176.518 138.192 177.734 137.76 179.184 137.76C180.411 137.76 181.302 138.016 181.856 138.528C182.422 139.029 182.704 139.691 182.704 140.512V146H180.784V144.704C179.952 145.728 178.992 146.24 177.904 146.24ZM178.544 144.848C179.398 144.848 180.144 144.368 180.784 143.408V142.336C179.792 142.357 179.083 142.411 178.656 142.496C178.304 142.56 177.979 142.699 177.68 142.912C177.392 143.125 177.248 143.419 177.248 143.792C177.248 144.144 177.371 144.411 177.616 144.592C177.872 144.763 178.182 144.848 178.544 144.848ZM188.506 135.504C189.274 135.504 190.005 135.328 190.698 134.976L191.306 136.16C190.442 136.597 189.509 136.816 188.506 136.816C187.493 136.816 186.554 136.597 185.69 136.16L186.298 134.976C186.991 135.328 187.727 135.504 188.506 135.504ZM186.522 138V143.312L190.442 138H192.378V146H190.474V140.704L186.554 146H184.618V138H186.522ZM200.8 138V139.744H198.08V146H196.176V139.744H193.456V138H200.8ZM203.77 138V143.312L207.69 138H209.626V146H207.722V140.704L203.802 146H201.866V138H203.77ZM217.378 142.736H213.458V146H211.554V138H213.458V140.992H217.378V138H219.298V146H217.378V142.736ZM227.29 138V139.744H223.114V146H221.21V138H227.29Z" fill="#CCFD38"/>
<rect x="126" y="122" width="117" height="38" rx="19" stroke="#CCFD38" stroke-width="2"/>
<path d="M42.048 198L42.512 195.328H40.784V193.936H42.736L43.296 190.8H41.424V189.408H43.52L43.968 186.8H45.376L44.928 189.408H47.28L47.728 186.8H49.136L48.688 189.408H50.4V190.8H48.464L47.92 193.936H49.76V195.328H47.68L47.232 198H45.808L46.272 195.328H43.92L43.472 198H42.048ZM44.16 193.936H46.496L47.056 190.8H44.704L44.16 193.936Z" fill="#75FEFA"/>
<path d="M64.512 196.416C65.0133 196.416 65.4027 196.24 65.68 195.888C65.968 195.525 66.112 195.136 66.112 194.72C66.112 194.261 65.9947 193.861 65.76 193.52C65.536 193.179 65.2267 193.008 64.832 193.008C64.4693 193.008 64.0213 193.083 63.488 193.232L63.12 191.824C65.2 191.333 66.24 190.613 66.24 189.664C66.24 189.269 66.112 188.955 65.856 188.72C65.6 188.475 65.248 188.352 64.8 188.352C63.9147 188.352 63.0453 188.736 62.192 189.504L61.264 188.096C62.3413 187.072 63.536 186.56 64.848 186.56C65.9467 186.56 66.784 186.821 67.36 187.344C67.936 187.867 68.224 188.533 68.224 189.344C68.224 189.92 68.048 190.453 67.696 190.944C67.3547 191.435 66.8533 191.813 66.192 192.08C66.9493 192.251 67.5253 192.592 67.92 193.104C68.3253 193.605 68.528 194.187 68.528 194.848C68.528 195.808 68.1493 196.613 67.392 197.264C66.6453 197.915 65.6587 198.24 64.432 198.24C63.7173 198.24 63.1147 198.133 62.624 197.92C62.144 197.696 61.616 197.344 61.04 196.864L62.016 195.36C62.816 196.064 63.648 196.416 64.512 196.416ZM72.8284 195.856H74.8924C76.0017 195.856 76.871 195.541 77.5004 194.912C78.1297 194.272 78.4444 193.44 78.4444 192.416C78.4444 191.381 78.1297 190.544 77.5004 189.904C76.871 189.264 76.0017 188.944 74.8924 188.944H72.8284V195.856ZM74.8764 198H70.6524V186.8H74.8764C76.6577 186.8 78.0604 187.323 79.0844 188.368C80.1084 189.413 80.6204 190.757 80.6204 192.4C80.6204 194.043 80.1084 195.387 79.0844 196.432C78.0604 197.477 76.6577 198 74.8764 198Z" fill="#CCFD38"/>
<rect x="25" y="174" width="72" height="38" rx="19" stroke="#CCFD38" stroke-width="2"/>
<path d="M124.048 198L124.512 195.328H122.784V193.936H124.736L125.296 190.8H123.424V189.408H125.52L125.968 186.8H127.376L126.928 189.408H129.28L129.728 186.8H131.136L130.688 189.408H132.4V190.8H130.464L129.92 193.936H131.76V195.328H129.68L129.232 198H127.808L128.272 195.328H125.92L125.472 198H124.048ZM126.16 193.936H128.496L129.056 190.8H126.704L126.16 193.936Z" fill="#75FEFA"/>
<path d="M142.832 196.496C143.525 196.496 144.112 196.256 144.592 195.776C145.072 195.285 145.312 194.693 145.312 194C145.312 193.317 145.072 192.731 144.592 192.24C144.112 191.749 143.525 191.504 142.832 191.504C142.139 191.504 141.552 191.749 141.072 192.24C140.592 192.731 140.352 193.317 140.352 194C140.352 194.704 140.587 195.296 141.056 195.776C141.536 196.256 142.128 196.496 142.832 196.496ZM145.904 197.008C145.093 197.829 144.069 198.24 142.832 198.24C141.595 198.24 140.565 197.829 139.744 197.008C138.923 196.187 138.512 195.184 138.512 194C138.512 192.827 138.923 191.829 139.744 191.008C140.565 190.176 141.595 189.76 142.832 189.76C144.059 189.76 145.083 190.176 145.904 191.008C146.725 191.829 147.136 192.827 147.136 194C147.136 195.184 146.725 196.187 145.904 197.008ZM147.504 198V196.512H147.984C148.432 196.512 148.768 196.261 148.992 195.76C149.226 195.248 149.344 194.368 149.344 193.12V190H156.08V198H154.16V191.664H151.168V193.488C151.168 196.496 150.261 198 148.448 198H147.504ZM158.935 198V200.256H157.239V196.336H158.215C158.524 195.909 158.775 195.323 158.967 194.576C159.159 193.819 159.255 192.987 159.255 192.08V190H165.767V196.336H167.063V200.256H165.239V198H158.935ZM163.847 196.336V191.664H161.095V192.368C161.095 193.125 161.01 193.877 160.839 194.624C160.679 195.371 160.476 195.941 160.231 196.336H163.847ZM169.664 194C169.664 194.704 169.894 195.285 170.353 195.744C170.822 196.203 171.403 196.432 172.097 196.432C172.886 196.432 173.622 196.176 174.305 195.664L175.217 197.04C174.385 197.84 173.318 198.24 172.016 198.24C170.843 198.24 169.851 197.819 169.041 196.976C168.23 196.133 167.825 195.141 167.825 194C167.825 192.859 168.23 191.867 169.041 191.024C169.851 190.181 170.843 189.76 172.016 189.76C173.318 189.76 174.385 190.16 175.217 190.96L174.305 192.352C173.611 191.829 172.875 191.568 172.097 191.568C171.425 191.568 170.849 191.808 170.369 192.288C169.899 192.757 169.664 193.328 169.664 194ZM182.041 198L178.617 193.856L181.881 190H184.057L180.649 193.856L184.217 198H182.041ZM176.569 190H178.473V198H176.569V190ZM193.414 190L188.502 201.264H186.55L187.926 197.984L184.534 190H186.646L188.934 195.616L191.318 190H193.414ZM192.769 198V196.512H193.249C193.697 196.512 194.033 196.261 194.257 195.76C194.492 195.248 194.609 194.368 194.609 193.12V190H201.345V198H199.425V191.664H196.433V193.488C196.433 196.496 195.527 198 193.713 198H192.769Z" fill="#CCFD38"/>
<rect x="107" y="174" width="111" height="38" rx="19" stroke="#CCFD38" stroke-width="2"/>
<path d="M42.048 250L42.512 247.328H40.784V245.936H42.736L43.296 242.8H41.424V241.408H43.52L43.968 238.8H45.376L44.928 241.408H47.28L47.728 238.8H49.136L48.688 241.408H50.4V242.8H48.464L47.92 245.936H49.76V247.328H47.68L47.232 250H45.808L46.272 247.328H43.92L43.472 250H42.048ZM44.16 245.936H46.496L47.056 242.8H44.704L44.16 245.936Z" fill="#75FEFA"/>
<path d="M62.528 250L60.576 247.28L58.624 250H56.192L59.28 245.968L56.272 242H58.688L60.576 244.72L62.448 242H64.88L61.696 245.968L64.944 250H62.528ZM69.5039 248.496C70.1972 248.496 70.7839 248.256 71.2639 247.776C71.7439 247.285 71.9839 246.693 71.9839 246C71.9839 245.317 71.7439 244.731 71.2639 244.24C70.7839 243.749 70.1972 243.504 69.5039 243.504C68.8105 243.504 68.2239 243.749 67.7439 244.24C67.2639 244.731 67.0239 245.317 67.0239 246C67.0239 246.704 67.2585 247.296 67.7279 247.776C68.2079 248.256 68.7999 248.496 69.5039 248.496ZM72.5759 249.008C71.7652 249.829 70.7412 250.24 69.5039 250.24C68.2665 250.24 67.2372 249.829 66.4159 249.008C65.5945 248.187 65.1839 247.184 65.1839 246C65.1839 244.827 65.5945 243.829 66.4159 243.008C67.2372 242.176 68.2665 241.76 69.5039 241.76C70.7305 241.76 71.7545 242.176 72.5759 243.008C73.3972 243.829 73.8079 244.827 73.8079 246C73.8079 247.184 73.3972 248.187 72.5759 249.008ZM79.7361 250.24C79.2455 250.24 78.7708 250.128 78.3121 249.904C77.8535 249.669 77.4801 249.355 77.1921 248.96V253.264H75.2881V242H77.1921V243.056C77.8321 242.224 78.7068 241.808 79.8161 241.808C80.9575 241.808 81.8801 242.219 82.5841 243.04C83.2881 243.851 83.6401 244.837 83.6401 246C83.6401 247.195 83.2775 248.203 82.5521 249.024C81.8268 249.835 80.8881 250.24 79.7361 250.24ZM79.1601 243.536C78.3601 243.536 77.7041 243.861 77.1921 244.512V247.488C77.6935 248.149 78.3495 248.48 79.1601 248.48C79.8321 248.48 80.4081 248.24 80.8881 247.76C81.3681 247.269 81.6081 246.683 81.6081 246C81.6081 245.328 81.3681 244.752 80.8881 244.272C80.4081 243.781 79.8321 243.536 79.1601 243.536ZM89.5643 250.24C89.0736 250.24 88.5989 250.128 88.1403 249.904C87.6816 249.669 87.3083 249.355 87.0203 248.96V253.264H85.1163V242H87.0203V243.056C87.6603 242.224 88.5349 241.808 89.6443 241.808C90.7856 241.808 91.7083 242.219 92.4123 243.04C93.1163 243.851 93.4683 244.837 93.4683 246C93.4683 247.195 93.1056 248.203 92.3802 249.024C91.6549 249.835 90.7163 250.24 89.5643 250.24ZM88.9883 243.536C88.1883 243.536 87.5323 243.861 87.0203 244.512V247.488C87.5216 248.149 88.1776 248.48 88.9883 248.48C89.6603 248.48 90.2363 248.24 90.7163 247.76C91.1963 247.269 91.4363 246.683 91.4363 246C91.4363 245.328 91.1963 244.752 90.7163 244.272C90.2363 243.781 89.6603 243.536 88.9883 243.536ZM98.8164 248.496C99.5097 248.496 100.096 248.256 100.576 247.776C101.056 247.285 101.296 246.693 101.296 246C101.296 245.317 101.056 244.731 100.576 244.24C100.096 243.749 99.5097 243.504 98.8164 243.504C98.123 243.504 97.5364 243.749 97.0564 244.24C96.5764 244.731 96.3364 245.317 96.3364 246C96.3364 246.704 96.571 247.296 97.0404 247.776C97.5204 248.256 98.1124 248.496 98.8164 248.496ZM101.888 249.008C101.078 249.829 100.054 250.24 98.8164 250.24C97.579 250.24 96.5497 249.829 95.7284 249.008C94.907 248.187 94.4964 247.184 94.4964 246C94.4964 244.827 94.907 243.829 95.7284 243.008C96.5497 242.176 97.579 241.76 98.8164 241.76C100.043 241.76 101.067 242.176 101.888 243.008C102.71 243.829 103.12 244.827 103.12 246C103.12 247.184 102.71 248.187 101.888 249.008ZM109.049 250.24C108.558 250.24 108.083 250.128 107.625 249.904C107.166 249.669 106.793 249.355 106.505 248.96V253.264H104.601V242H106.505V243.056C107.145 242.224 108.019 241.808 109.129 241.808C110.27 241.808 111.193 242.219 111.897 243.04C112.601 243.851 112.953 244.837 112.953 246C112.953 247.195 112.59 248.203 111.865 249.024C111.139 249.835 110.201 250.24 109.049 250.24ZM108.473 243.536C107.673 243.536 107.017 243.861 106.505 244.512V247.488C107.006 248.149 107.662 248.48 108.473 248.48C109.145 248.48 109.721 248.24 110.201 247.76C110.681 247.269 110.921 246.683 110.921 246C110.921 245.328 110.681 244.752 110.201 244.272C109.721 243.781 109.145 243.536 108.473 243.536Z" fill="#CCFD38"/>
<rect x="25" y="226" width="104" height="38" rx="19" stroke="#CCFD38" stroke-width="2"/>
<path d="M156.048 250L156.512 247.328H154.784V245.936H156.736L157.296 242.8H155.424V241.408H157.52L157.968 238.8H159.376L158.928 241.408H161.28L161.728 238.8H163.136L162.688 241.408H164.4V242.8H162.464L161.92 245.936H163.76V247.328H161.68L161.232 250H159.808L160.272 247.328H157.92L157.472 250H156.048ZM158.16 245.936H160.496L161.056 242.8H158.704L158.16 245.936Z" fill="#75FEFA"/>
<path d="M170.16 250V248.512H170.64C171.088 248.512 171.424 248.261 171.648 247.76C171.883 247.248 172 246.368 172 245.12V242H178.736V250H176.816V243.664H173.824V245.488C173.824 248.496 172.917 250 171.104 250H170.16ZM188.695 242L183.783 253.264H181.831L183.207 249.984L179.815 242H181.927L184.215 247.616L186.599 242H188.695ZM189.28 244.864V242H191.2V244.544C191.2 244.971 191.333 245.291 191.6 245.504C191.866 245.717 192.229 245.824 192.688 245.824C193.306 245.824 193.92 245.744 194.528 245.584V242H196.432V250H194.528V247.248C193.802 247.397 193.098 247.472 192.416 247.472C191.456 247.472 190.693 247.253 190.128 246.816C189.562 246.368 189.28 245.717 189.28 244.864ZM200.255 248.336H203.423V242H205.327V248.336H208.495V242H210.399V250H198.351V242H200.255V248.336ZM220.143 245.84C220.143 246.032 220.127 246.219 220.095 246.4H213.823C213.823 247.072 214.053 247.621 214.511 248.048C214.97 248.464 215.61 248.672 216.431 248.672C217.359 248.672 218.165 248.411 218.847 247.888L219.583 249.072C218.719 249.851 217.589 250.24 216.191 250.24C214.986 250.24 213.962 249.845 213.119 249.056C212.287 248.267 211.871 247.285 211.871 246.112C211.871 244.907 212.277 243.883 213.087 243.04C213.898 242.187 214.885 241.76 216.047 241.76C217.317 241.76 218.314 242.139 219.039 242.896C219.775 243.653 220.143 244.635 220.143 245.84ZM218.335 245.152C218.229 244.608 217.978 244.171 217.583 243.84C217.189 243.499 216.677 243.328 216.047 243.328C215.493 243.328 215.013 243.493 214.607 243.824C214.213 244.144 213.946 244.587 213.807 245.152H218.335ZM229.456 245.84C229.456 246.032 229.44 246.219 229.408 246.4H223.136C223.136 247.072 223.365 247.621 223.824 248.048C224.283 248.464 224.923 248.672 225.744 248.672C226.672 248.672 227.477 248.411 228.16 247.888L228.896 249.072C228.032 249.851 226.901 250.24 225.504 250.24C224.299 250.24 223.275 249.845 222.432 249.056C221.6 248.267 221.184 247.285 221.184 246.112C221.184 244.907 221.589 243.883 222.4 243.04C223.211 242.187 224.197 241.76 225.36 241.76C226.629 241.76 227.627 242.139 228.352 242.896C229.088 243.653 229.456 244.635 229.456 245.84ZM227.648 245.152C227.541 244.608 227.291 244.171 226.896 243.84C226.501 243.499 225.989 243.328 225.36 243.328C224.805 243.328 224.325 243.493 223.92 243.824C223.525 244.144 223.259 244.587 223.12 245.152H227.648Z" fill="#CCFD38"/>
<rect x="139" y="226" width="106" height="38" rx="19" stroke="#CCFD38" stroke-width="2"/>
<path d="M42.048 302L42.512 299.328H40.784V297.936H42.736L43.296 294.8H41.424V293.408H43.52L43.968 290.8H45.376L44.928 293.408H47.28L47.728 290.8H49.136L48.688 293.408H50.4V294.8H48.464L47.92 297.936H49.76V299.328H47.68L47.232 302H45.808L46.272 299.328H43.92L43.472 302H42.048ZM44.16 297.936H46.496L47.056 294.8H44.704L44.16 297.936Z" fill="#75FEFA"/>
<path d="M61.408 302.24C60.9173 302.24 60.4427 302.128 59.984 301.904C59.5253 301.669 59.152 301.355 58.864 300.96V305.264H56.96V294H58.864V295.056C59.504 294.224 60.3787 293.808 61.488 293.808C62.6293 293.808 63.552 294.219 64.256 295.04C64.96 295.851 65.312 296.837 65.312 298C65.312 299.195 64.9493 300.203 64.224 301.024C63.4987 301.835 62.56 302.24 61.408 302.24ZM60.832 295.536C60.032 295.536 59.376 295.861 58.864 296.512V299.488C59.3653 300.149 60.0213 300.48 60.832 300.48C61.504 300.48 62.08 300.24 62.56 299.76C63.04 299.269 63.28 298.683 63.28 298C63.28 297.328 63.04 296.752 62.56 296.272C62.08 295.781 61.504 295.536 60.832 295.536ZM74.6121 297.84C74.6121 298.032 74.5961 298.219 74.5641 298.4H68.2921C68.2921 299.072 68.5215 299.621 68.9801 300.048C69.4388 300.464 70.0788 300.672 70.9001 300.672C71.8281 300.672 72.6335 300.411 73.3161 299.888L74.0521 301.072C73.1881 301.851 72.0575 302.24 70.6601 302.24C69.4548 302.24 68.4308 301.845 67.5881 301.056C66.7561 300.267 66.3401 299.285 66.3401 298.112C66.3401 296.907 66.7455 295.883 67.5561 295.04C68.3668 294.187 69.3535 293.76 70.5161 293.76C71.7855 293.76 72.7828 294.139 73.5081 294.896C74.2441 295.653 74.6121 296.635 74.6121 297.84ZM72.8041 297.152C72.6975 296.608 72.4468 296.171 72.0521 295.84C71.6575 295.499 71.1455 295.328 70.5161 295.328C69.9615 295.328 69.4815 295.493 69.0761 295.824C68.6815 296.144 68.4148 296.587 68.2761 297.152H72.8041ZM82.4404 294V295.744H79.7204V302H77.8164V295.744H75.0964V294H82.4404ZM87.9549 302.24C87.4642 302.24 86.9895 302.128 86.5309 301.904C86.0722 301.669 85.6989 301.355 85.4109 300.96V305.264H83.5069V294H85.4109V295.056C86.0509 294.224 86.9255 293.808 88.0349 293.808C89.1762 293.808 90.0989 294.219 90.8029 295.04C91.5069 295.851 91.8589 296.837 91.8589 298C91.8589 299.195 91.4962 300.203 90.7709 301.024C90.0455 301.835 89.1069 302.24 87.9549 302.24ZM87.3789 295.536C86.5789 295.536 85.9229 295.861 85.4109 296.512V299.488C85.9122 300.149 86.5682 300.48 87.3789 300.48C88.0509 300.48 88.6269 300.24 89.1069 299.76C89.5869 299.269 89.8269 298.683 89.8269 298C89.8269 297.328 89.5869 296.752 89.1069 296.272C88.6269 295.781 88.0509 295.536 87.3789 295.536ZM97.207 300.496C97.9003 300.496 98.487 300.256 98.967 299.776C99.447 299.285 99.687 298.693 99.687 298C99.687 297.317 99.447 296.731 98.967 296.24C98.487 295.749 97.9003 295.504 97.207 295.504C96.5137 295.504 95.927 295.749 95.447 296.24C94.967 296.731 94.727 297.317 94.727 298C94.727 298.704 94.9617 299.296 95.431 299.776C95.911 300.256 96.503 300.496 97.207 300.496ZM100.279 301.008C99.4683 301.829 98.4443 302.24 97.207 302.24C95.9697 302.24 94.9403 301.829 94.119 301.008C93.2977 300.187 92.887 299.184 92.887 298C92.887 296.827 93.2977 295.829 94.119 295.008C94.9403 294.176 95.9697 293.76 97.207 293.76C98.4337 293.76 99.4577 294.176 100.279 295.008C101.1 295.829 101.511 296.827 101.511 298C101.511 299.184 101.1 300.187 100.279 301.008Z" fill="#CCFD38"/>
<rect x="25" y="278" width="93" height="38" rx="19" stroke="#CCFD38" stroke-width="2"/>
<path d="M145.048 302L145.512 299.328H143.784V297.936H145.736L146.296 294.8H144.424V293.408H146.52L146.968 290.8H148.376L147.928 293.408H150.28L150.728 290.8H152.136L151.688 293.408H153.4V294.8H151.464L150.92 297.936H152.76V299.328H150.68L150.232 302H148.808L149.272 299.328H146.92L146.472 302H145.048ZM147.16 297.936H149.496L150.056 294.8H147.704L147.16 297.936Z" fill="#75FEFA"/>
<path d="M166.456 294V295.744H163.736V302H161.832V295.744H159.112V294H166.456ZM169.811 302.24C168.957 302.24 168.285 302.043 167.795 301.648C167.315 301.253 167.075 300.693 167.075 299.968C167.075 299.584 167.139 299.243 167.267 298.944C167.405 298.645 167.613 298.405 167.891 298.224C168.179 298.032 168.477 297.872 168.787 297.744C169.096 297.616 169.485 297.525 169.955 297.472C170.424 297.408 170.856 297.365 171.251 297.344C171.656 297.312 172.136 297.291 172.691 297.28V296.752C172.691 295.749 172.12 295.248 170.979 295.248C170.029 295.248 169.176 295.557 168.419 296.176L167.443 295.056C168.424 294.192 169.64 293.76 171.091 293.76C172.317 293.76 173.208 294.016 173.763 294.528C174.328 295.029 174.611 295.691 174.611 296.512V302H172.691V300.704C171.859 301.728 170.899 302.24 169.811 302.24ZM170.451 300.848C171.304 300.848 172.051 300.368 172.691 299.408V298.336C171.699 298.357 170.989 298.411 170.562 298.496C170.211 298.56 169.885 298.699 169.587 298.912C169.299 299.125 169.155 299.419 169.155 299.792C169.155 300.144 169.277 300.411 169.523 300.592C169.779 300.763 170.088 300.848 170.451 300.848ZM181.916 302L178.492 297.856L181.756 294H183.932L180.524 297.856L184.092 302H181.916ZM176.444 294H178.348V302H176.444V294ZM191.753 294V295.744H189.033V302H187.129V295.744H184.409V294H191.753ZM194.723 294V299.312L198.643 294H200.579V302H198.675V296.704L194.755 302H192.819V294H194.723ZM207.979 302L204.555 297.856L207.819 294H209.995L206.587 297.856L210.155 302H207.979ZM202.507 294H204.411V302H202.507V294ZM213.451 302.24C212.598 302.24 211.926 302.043 211.435 301.648C210.955 301.253 210.715 300.693 210.715 299.968C210.715 299.584 210.779 299.243 210.907 298.944C211.046 298.645 211.254 298.405 211.531 298.224C211.819 298.032 212.118 297.872 212.427 297.744C212.736 297.616 213.126 297.525 213.595 297.472C214.064 297.408 214.496 297.365 214.891 297.344C215.296 297.312 215.776 297.291 216.331 297.28V296.752C216.331 295.749 215.76 295.248 214.619 295.248C213.67 295.248 212.816 295.557 212.059 296.176L211.083 295.056C212.064 294.192 213.28 293.76 214.731 293.76C215.958 293.76 216.848 294.016 217.403 294.528C217.968 295.029 218.251 295.691 218.251 296.512V302H216.331V300.704C215.499 301.728 214.539 302.24 213.451 302.24ZM214.091 300.848C214.944 300.848 215.691 300.368 216.331 299.408V298.336C215.339 298.357 214.63 298.411 214.203 298.496C213.851 298.56 213.526 298.699 213.227 298.912C212.939 299.125 212.795 299.419 212.795 299.792C212.795 300.144 212.918 300.411 213.163 300.592C213.419 300.763 213.728 300.848 214.091 300.848Z" fill="#CCFD38"/>
<rect x="128" y="278" width="107" height="38" rx="19" stroke="#CCFD38" stroke-width="2"/>
<path d="M42.048 354L42.512 351.328H40.784V349.936H42.736L43.296 346.8H41.424V345.408H43.52L43.968 342.8H45.376L44.928 345.408H47.28L47.728 342.8H49.136L48.688 345.408H50.4V346.8H48.464L47.92 349.936H49.76V351.328H47.68L47.232 354H45.808L46.272 351.328H43.92L43.472 354H42.048ZM44.16 349.936H46.496L47.056 346.8H44.704L44.16 349.936Z" fill="#75FEFA"/>
<path d="M63.76 347.968C63.76 348.341 63.6533 348.693 63.44 349.024C63.2373 349.355 62.96 349.611 62.608 349.792C63.0667 349.963 63.4293 350.229 63.696 350.592C63.9733 350.955 64.112 351.365 64.112 351.824C64.112 352.432 63.888 352.949 63.44 353.376C63.0027 353.792 62.4213 354 61.696 354H56.96V346H61.52C62.192 346 62.7307 346.192 63.136 346.576C63.552 346.949 63.76 347.413 63.76 347.968ZM58.864 352.688H60.992C61.344 352.688 61.6267 352.592 61.84 352.4C62.064 352.197 62.176 351.936 62.176 351.616C62.176 351.296 62.064 351.035 61.84 350.832C61.616 350.629 61.3333 350.528 60.992 350.528H58.864V352.688ZM61.968 348.256C61.968 347.979 61.8613 347.755 61.648 347.584C61.4347 347.403 61.1733 347.312 60.864 347.312H58.864V349.296H60.864C61.1733 349.296 61.4347 349.2 61.648 349.008C61.8613 348.805 61.968 348.555 61.968 348.256ZM67.5671 348.656H69.7431C70.5965 348.656 71.2898 348.917 71.8231 349.44C72.3671 349.952 72.6391 350.581 72.6391 351.328C72.6391 352.075 72.3778 352.709 71.8551 353.232C71.3325 353.744 70.6285 354 69.7431 354H65.6631V346H67.5671V348.656ZM67.5671 352.512H69.5031C69.8445 352.512 70.1325 352.405 70.3671 352.192C70.6018 351.968 70.7191 351.68 70.7191 351.328C70.7191 350.976 70.6018 350.693 70.3671 350.48C70.1325 350.256 69.8445 350.144 69.5031 350.144H67.5671V352.512ZM73.5511 354V346H75.4551V354H73.5511ZM81.6859 354V350.656H80.8219L78.7259 354H76.6299L79.3179 349.84L76.8539 346H78.9499L80.7899 348.912H81.6859V346H83.6059V348.912H84.4859L86.3419 346H88.4379L85.9739 349.84L88.6619 354H86.5659L84.4539 350.656H83.6059V354H81.6859ZM91.739 346V351.312L95.659 346H97.595V354H95.691V348.704L91.771 354H89.835V346H91.739ZM106.323 347.968C106.323 348.341 106.216 348.693 106.003 349.024C105.8 349.355 105.523 349.611 105.171 349.792C105.629 349.963 105.992 350.229 106.259 350.592C106.536 350.955 106.675 351.365 106.675 351.824C106.675 352.432 106.451 352.949 106.003 353.376C105.565 353.792 104.984 354 104.259 354H99.5225V346H104.083C104.755 346 105.293 346.192 105.699 346.576C106.115 346.949 106.323 347.413 106.323 347.968ZM101.427 352.688H103.555C103.907 352.688 104.189 352.592 104.403 352.4C104.627 352.197 104.739 351.936 104.739 351.616C104.739 351.296 104.627 351.035 104.403 350.832C104.179 350.629 103.896 350.528 103.555 350.528H101.427V352.688ZM104.531 348.256C104.531 347.979 104.424 347.755 104.211 347.584C103.997 347.403 103.736 347.312 103.427 347.312H101.427V349.296H103.427C103.736 349.296 103.997 349.2 104.211 349.008C104.424 348.805 104.531 348.555 104.531 348.256ZM110.514 354.24C109.66 354.24 108.988 354.043 108.498 353.648C108.018 353.253 107.778 352.693 107.778 351.968C107.778 351.584 107.842 351.243 107.97 350.944C108.108 350.645 108.316 350.405 108.594 350.224C108.882 350.032 109.18 349.872 109.49 349.744C109.799 349.616 110.188 349.525 110.658 349.472C111.127 349.408 111.559 349.365 111.954 349.344C112.359 349.312 112.839 349.291 113.394 349.28V348.752C113.394 347.749 112.823 347.248 111.682 347.248C110.732 347.248 109.879 347.557 109.122 348.176L108.146 347.056C109.127 346.192 110.343 345.76 111.794 345.76C113.02 345.76 113.911 346.016 114.466 346.528C115.031 347.029 115.314 347.691 115.314 348.512V354H113.394V352.704C112.562 353.728 111.602 354.24 110.514 354.24ZM111.154 352.848C112.007 352.848 112.754 352.368 113.394 351.408V350.336C112.402 350.357 111.692 350.411 111.266 350.496C110.914 350.56 110.588 350.699 110.29 350.912C110.002 351.125 109.858 351.419 109.858 351.792C109.858 352.144 109.98 352.411 110.226 352.592C110.482 352.763 110.791 352.848 111.154 352.848ZM122.972 350.736H119.052V354H117.148V346H119.052V348.992H122.972V346H124.892V354H122.972V350.736ZM128.708 346V351.312L132.628 346H134.564V354H132.66V348.704L128.74 354H126.804V346H128.708ZM144.315 349.84C144.315 350.032 144.299 350.219 144.267 350.4H137.995C137.995 351.072 138.225 351.621 138.683 352.048C139.142 352.464 139.782 352.672 140.603 352.672C141.531 352.672 142.337 352.411 143.019 351.888L143.755 353.072C142.891 353.851 141.761 354.24 140.363 354.24C139.158 354.24 138.134 353.845 137.291 353.056C136.459 352.267 136.043 351.285 136.043 350.112C136.043 348.907 136.449 347.883 137.259 347.04C138.07 346.187 139.057 345.76 140.219 345.76C141.489 345.76 142.486 346.139 143.211 346.896C143.947 347.653 144.315 348.635 144.315 349.84ZM142.507 349.152C142.401 348.608 142.15 348.171 141.755 347.84C141.361 347.499 140.849 347.328 140.219 347.328C139.665 347.328 139.185 347.493 138.779 347.824C138.385 348.144 138.118 348.587 137.979 349.152H142.507Z" fill="#CCFD38"/>
<rect x="25" y="330" width="135" height="38" rx="19" stroke="#CCFD38" stroke-width="2"/>
<path d="M187.048 354L187.512 351.328H185.784V349.936H187.736L188.296 346.8H186.424V345.408H188.52L188.968 342.8H190.376L189.928 345.408H192.28L192.728 342.8H194.136L193.688 345.408H195.4V346.8H193.464L192.92 349.936H194.76V351.328H192.68L192.232 354H190.808L191.272 351.328H188.92L188.472 354H187.048ZM189.16 349.936H191.496L192.056 346.8H189.704L189.16 349.936Z" fill="#75FEFA"/>
<path d="M205.976 344.144C205.197 344.144 204.808 344.763 204.808 346H207.32V347.584H204.808V354H202.888V347.584H201.32V346H202.888C202.888 344.891 203.128 344.043 203.608 343.456C204.099 342.859 204.749 342.56 205.56 342.56C206.2 342.56 206.787 342.677 207.32 342.912V344.416C206.915 344.235 206.467 344.144 205.976 344.144ZM213.163 345.792V347.6C212.544 347.6 211.995 347.765 211.515 348.096C211.045 348.416 210.709 348.885 210.507 349.504V354H208.603V346H210.507V347.52C211.2 346.368 212.085 345.792 213.163 345.792ZM222.034 349.84C222.034 350.032 222.018 350.219 221.986 350.4H215.714C215.714 351.072 215.943 351.621 216.402 352.048C216.861 352.464 217.501 352.672 218.322 352.672C219.25 352.672 220.055 352.411 220.738 351.888L221.474 353.072C220.61 353.851 219.479 354.24 218.082 354.24C216.877 354.24 215.853 353.845 215.01 353.056C214.178 352.267 213.762 351.285 213.762 350.112C213.762 348.907 214.167 347.883 214.978 347.04C215.789 346.187 216.775 345.76 217.938 345.76C219.207 345.76 220.205 346.139 220.93 346.896C221.666 347.653 222.034 348.635 222.034 349.84ZM220.226 349.152C220.119 348.608 219.869 348.171 219.474 347.84C219.079 347.499 218.567 347.328 217.938 347.328C217.383 347.328 216.903 347.493 216.498 347.824C216.103 348.144 215.837 348.587 215.698 349.152H220.226ZM231.347 349.84C231.347 350.032 231.331 350.219 231.299 350.4H225.027C225.027 351.072 225.256 351.621 225.715 352.048C226.173 352.464 226.813 352.672 227.635 352.672C228.563 352.672 229.368 352.411 230.051 351.888L230.786 353.072C229.923 353.851 228.792 354.24 227.395 354.24C226.189 354.24 225.165 353.845 224.323 353.056C223.491 352.267 223.075 351.285 223.075 350.112C223.075 348.907 223.48 347.883 224.291 347.04C225.101 346.187 226.088 345.76 227.251 345.76C228.52 345.76 229.517 346.139 230.243 346.896C230.979 347.653 231.347 348.635 231.347 349.84ZM229.539 349.152C229.432 348.608 229.181 348.171 228.787 347.84C228.392 347.499 227.88 347.328 227.251 347.328C226.696 347.328 226.216 347.493 225.811 347.824C225.416 348.144 225.149 348.587 225.011 349.152H229.539Z" fill="#CCFD38"/>
<rect x="170" y="330" width="77" height="38" rx="19" stroke="#CCFD38" stroke-width="2"/>
<path d="M42.048 406L42.512 403.328H40.784V401.936H42.736L43.296 398.8H41.424V397.408H43.52L43.968 394.8H45.376L44.928 397.408H47.28L47.728 394.8H49.136L48.688 397.408H50.4V398.8H48.464L47.92 401.936H49.76V403.328H47.68L47.232 406H45.808L46.272 403.328H43.92L43.472 406H42.048ZM44.16 401.936H46.496L47.056 398.8H44.704L44.16 401.936Z" fill="#75FEFA"/>
<path d="M60.832 404.496C61.5253 404.496 62.112 404.256 62.592 403.776C63.072 403.285 63.312 402.693 63.312 402C63.312 401.317 63.072 400.731 62.592 400.24C62.112 399.749 61.5253 399.504 60.832 399.504C60.1387 399.504 59.552 399.749 59.072 400.24C58.592 400.731 58.352 401.317 58.352 402C58.352 402.704 58.5867 403.296 59.056 403.776C59.536 404.256 60.128 404.496 60.832 404.496ZM63.904 405.008C63.0933 405.829 62.0693 406.24 60.832 406.24C59.5947 406.24 58.5653 405.829 57.744 405.008C56.9227 404.187 56.512 403.184 56.512 402C56.512 400.827 56.9227 399.829 57.744 399.008C58.5653 398.176 59.5947 397.76 60.832 397.76C62.0587 397.76 63.0827 398.176 63.904 399.008C64.7253 399.829 65.136 400.827 65.136 402C65.136 403.184 64.7253 404.187 63.904 405.008ZM71.0643 406.24C70.5736 406.24 70.0989 406.128 69.6403 405.904C69.1816 405.669 68.8083 405.355 68.5203 404.96V409.264H66.6163V398H68.5203V399.056C69.1603 398.224 70.0349 397.808 71.1443 397.808C72.2856 397.808 73.2083 398.219 73.9123 399.04C74.6163 399.851 74.9683 400.837 74.9683 402C74.9683 403.195 74.6056 404.203 73.8802 405.024C73.1549 405.835 72.2163 406.24 71.0643 406.24ZM70.4883 399.536C69.6883 399.536 69.0323 399.861 68.5203 400.512V403.488C69.0216 404.149 69.6776 404.48 70.4883 404.48C71.1603 404.48 71.7363 404.24 72.2163 403.76C72.6963 403.269 72.9363 402.683 72.9363 402C72.9363 401.328 72.6963 400.752 72.2163 400.272C71.7363 399.781 71.1603 399.536 70.4883 399.536ZM84.2684 401.84C84.2684 402.032 84.2524 402.219 84.2204 402.4H77.9484C77.9484 403.072 78.1777 403.621 78.6364 404.048C79.095 404.464 79.735 404.672 80.5564 404.672C81.4844 404.672 82.2897 404.411 82.9724 403.888L83.7084 405.072C82.8444 405.851 81.7137 406.24 80.3164 406.24C79.111 406.24 78.087 405.845 77.2444 405.056C76.4124 404.267 75.9964 403.285 75.9964 402.112C75.9964 400.907 76.4017 399.883 77.2124 399.04C78.023 398.187 79.0097 397.76 80.1724 397.76C81.4417 397.76 82.439 398.139 83.1644 398.896C83.9004 399.653 84.2684 400.635 84.2684 401.84ZM82.4604 401.152C82.3537 400.608 82.103 400.171 81.7084 399.84C81.3137 399.499 80.8017 399.328 80.1724 399.328C79.6177 399.328 79.1377 399.493 78.7324 399.824C78.3377 400.144 78.071 400.587 77.9324 401.152H82.4604ZM91.6129 406V401.488C91.6129 400.912 91.4795 400.459 91.2129 400.128C90.9462 399.787 90.5729 399.616 90.0929 399.616C89.6875 399.616 89.2449 399.755 88.7649 400.032C88.2849 400.309 87.9169 400.693 87.6609 401.184V406H85.7569V398H87.6609V399.2C88.3862 398.261 89.3835 397.792 90.6529 397.792C91.4955 397.792 92.1835 398.08 92.7169 398.656C93.2502 399.221 93.5169 400.005 93.5169 401.008V406H91.6129ZM94.3586 408.912V407.408H104.695V408.912H94.3586ZM111.952 398L113.664 403.264L115.344 398H117.312L114.672 406H112.768L111.04 400.768L109.312 406H107.408L104.768 398H106.736L108.416 403.264L110.128 398H111.952ZM121.77 404.496C122.463 404.496 123.05 404.256 123.53 403.776C124.01 403.285 124.25 402.693 124.25 402C124.25 401.317 124.01 400.731 123.53 400.24C123.05 399.749 122.463 399.504 121.77 399.504C121.076 399.504 120.49 399.749 120.01 400.24C119.53 400.731 119.289 401.317 119.289 402C119.289 402.704 119.524 403.296 119.994 403.776C120.474 404.256 121.066 404.496 121.77 404.496ZM124.842 405.008C124.031 405.829 123.007 406.24 121.77 406.24C120.532 406.24 119.503 405.829 118.682 405.008C117.86 404.187 117.45 403.184 117.45 402C117.45 400.827 117.86 399.829 118.682 399.008C119.503 398.176 120.532 397.76 121.77 397.76C122.996 397.76 124.02 398.176 124.842 399.008C125.663 399.829 126.074 400.827 126.074 402C126.074 403.184 125.663 404.187 124.842 405.008ZM132.194 397.792V399.6C131.575 399.6 131.026 399.765 130.546 400.096C130.076 400.416 129.74 400.885 129.538 401.504V406H127.634V398H129.538V399.52C130.231 398.368 131.116 397.792 132.194 397.792ZM133.478 394.64H135.382V406H133.478V394.64ZM145.286 406H143.382V404.96C143.094 405.355 142.721 405.669 142.262 405.904C141.803 406.128 141.329 406.24 140.838 406.24C139.686 406.24 138.747 405.835 138.022 405.024C137.297 404.203 136.934 403.195 136.934 402C136.934 400.816 137.297 399.813 138.022 398.992C138.758 398.171 139.697 397.76 140.838 397.76C141.329 397.76 141.803 397.877 142.262 398.112C142.721 398.347 143.094 398.661 143.382 399.056V394.64H145.286V406ZM141.414 404.48C142.225 404.48 142.881 404.149 143.382 403.488V400.528C142.881 399.867 142.225 399.536 141.414 399.536C140.742 399.536 140.166 399.781 139.686 400.272C139.206 400.752 138.966 401.328 138.966 402C138.966 402.683 139.206 403.269 139.686 403.76C140.166 404.24 140.742 404.48 141.414 404.48Z" fill="#CCFD38"/>
<rect x="25" y="382" width="137" height="38" rx="19" stroke="#CCFD38" stroke-width="2"/>
<path d="M189.048 406L189.512 403.328H187.784V401.936H189.736L190.296 398.8H188.424V397.408H190.52L190.968 394.8H192.376L191.928 397.408H194.28L194.728 394.8H196.136L195.688 397.408H197.4V398.8H195.464L194.92 401.936H196.76V403.328H194.68L194.232 406H192.808L193.272 403.328H190.92L190.472 406H189.048ZM191.16 401.936H193.496L194.056 398.8H191.704L191.16 401.936Z" fill="#75FEFA"/>
<path d="M205.08 397.696L204.04 396.304C205.107 395.141 206.381 394.56 207.864 394.56C208.973 394.56 209.832 394.869 210.44 395.488C211.048 396.096 211.352 396.88 211.352 397.84C211.352 398.117 211.315 398.4 211.24 398.688C211.165 398.965 211.085 399.216 211 399.44C210.925 399.653 210.765 399.931 210.52 400.272C210.275 400.603 210.077 400.864 209.928 401.056C209.789 401.248 209.517 401.557 209.112 401.984C208.707 402.411 208.408 402.725 208.216 402.928C208.024 403.12 207.656 403.488 207.112 404.032H211.56V406H204.072V404.4C204.509 403.952 205.011 403.451 205.576 402.896C206.152 402.341 206.573 401.931 206.84 401.664C207.107 401.397 207.405 401.088 207.736 400.736C208.077 400.384 208.317 400.117 208.456 399.936C208.595 399.755 208.733 399.541 208.872 399.296C209.021 399.051 209.117 398.832 209.16 398.64C209.203 398.437 209.224 398.219 209.224 397.984C209.224 397.579 209.08 397.211 208.792 396.88C208.515 396.549 208.125 396.384 207.624 396.384C206.728 396.384 205.88 396.821 205.08 397.696ZM221.14 400.4C221.14 402.331 220.783 403.787 220.068 404.768C219.364 405.749 218.415 406.24 217.22 406.24C216.026 406.24 215.076 405.749 214.372 404.768C213.668 403.776 213.316 402.32 213.316 400.4C213.316 398.48 213.668 397.029 214.372 396.048C215.076 395.056 216.026 394.56 217.22 394.56C218.415 394.56 219.364 395.056 220.068 396.048C220.783 397.029 221.14 398.48 221.14 400.4ZM217.22 396.384C216.068 396.384 215.492 397.723 215.492 400.4C215.492 403.077 216.068 404.416 217.22 404.416C217.732 404.416 218.148 404.085 218.468 403.424C218.799 402.752 218.964 401.744 218.964 400.4C218.964 399.056 218.799 398.053 218.468 397.392C218.148 396.72 217.732 396.384 217.22 396.384ZM224.049 397.696L223.009 396.304C224.075 395.141 225.35 394.56 226.833 394.56C227.942 394.56 228.801 394.869 229.409 395.488C230.017 396.096 230.321 396.88 230.321 397.84C230.321 398.117 230.283 398.4 230.209 398.688C230.134 398.965 230.054 399.216 229.969 399.44C229.894 399.653 229.734 399.931 229.489 400.272C229.243 400.603 229.046 400.864 228.897 401.056C228.758 401.248 228.486 401.557 228.081 401.984C227.675 402.411 227.377 402.725 227.185 402.928C226.993 403.12 226.625 403.488 226.081 404.032H230.529V406H223.041V404.4C223.478 403.952 223.979 403.451 224.545 402.896C225.121 402.341 225.542 401.931 225.809 401.664C226.075 401.397 226.374 401.088 226.705 400.736C227.046 400.384 227.286 400.117 227.425 399.936C227.563 399.755 227.702 399.541 227.841 399.296C227.99 399.051 228.086 398.832 228.129 398.64C228.171 398.437 228.193 398.219 228.193 397.984C228.193 397.579 228.049 397.211 227.761 396.88C227.483 396.549 227.094 396.384 226.593 396.384C225.697 396.384 224.849 396.821 224.049 397.696ZM240.205 404.032V406H232.589V404.032H235.309V397.296L233.197 398.496L232.333 396.96L236.413 394.64H237.485V404.032H240.205Z" fill="#CCFD38"/>
<rect x="172" y="382" width="84" height="38" rx="19" stroke="#CCFD38" stroke-width="2"/>
<path d="M71.248 439.328H78.176V440.512H72.576V443.568H75.536C76.56 443.568 77.3707 443.877 77.968 444.496C78.576 445.115 78.88 445.877 78.88 446.784C78.88 447.691 78.5813 448.453 77.984 449.072C77.3867 449.691 76.5707 450 75.536 450H71.248V439.328ZM75.376 444.752H72.576V448.816H75.376C76.0053 448.816 76.5173 448.629 76.912 448.256C77.3067 447.872 77.504 447.381 77.504 446.784C77.504 446.187 77.3067 445.701 76.912 445.328C76.5173 444.944 76.0053 444.752 75.376 444.752ZM86.7346 449.024C86.0413 449.803 85.1186 450.192 83.9666 450.192C82.8146 450.192 81.8866 449.803 81.1826 449.024C80.4893 448.245 80.1426 447.28 80.1426 446.128C80.1426 444.976 80.4893 444.016 81.1826 443.248C81.8866 442.469 82.8146 442.08 83.9666 442.08C85.1186 442.08 86.0413 442.469 86.7346 443.248C87.4386 444.016 87.7906 444.976 87.7906 446.128C87.7906 447.28 87.4386 448.245 86.7346 449.024ZM82.0786 448.256C82.548 448.832 83.1773 449.12 83.9666 449.12C84.756 449.12 85.38 448.832 85.8386 448.256C86.2973 447.669 86.5266 446.96 86.5266 446.128C86.5266 445.296 86.2973 444.592 85.8386 444.016C85.38 443.44 84.756 443.152 83.9666 443.152C83.1773 443.152 82.548 443.445 82.0786 444.032C81.62 444.608 81.3906 445.307 81.3906 446.128C81.3906 446.96 81.62 447.669 82.0786 448.256ZM88.8349 450.192V449.2C89.1975 449.2 89.4962 448.96 89.7309 448.48C89.9655 448 90.1575 447.2 90.3069 446.08L90.8029 442.272H96.1789V450H94.9789V443.328H91.8589L91.5069 446.224C91.3362 447.643 91.0375 448.661 90.6109 449.28C90.1842 449.888 89.5922 450.192 88.8349 450.192ZM98.575 442.272H99.775V445.264H102.671C103.439 445.264 104.036 445.493 104.463 445.952C104.89 446.4 105.103 446.96 105.103 447.632C105.103 448.304 104.884 448.869 104.447 449.328C104.02 449.776 103.428 450 102.671 450H98.575V442.272ZM102.543 446.32H99.775V448.944H102.543C102.97 448.944 103.295 448.827 103.519 448.592C103.754 448.347 103.871 448.027 103.871 447.632C103.871 447.237 103.754 446.923 103.519 446.688C103.295 446.443 102.97 446.32 102.543 446.32ZM115.862 442.272H117.062V450H106.934V442.272H108.134V448.944H111.398V442.272H112.598V448.944H115.862V442.272ZM122.954 450.192C121.802 450.192 120.858 449.819 120.122 449.072C119.386 448.315 119.018 447.333 119.018 446.128C119.018 444.997 119.38 444.043 120.106 443.264C120.831 442.475 121.738 442.08 122.826 442.08C123.967 442.08 124.868 442.475 125.53 443.264C126.202 444.043 126.538 445.029 126.538 446.224V446.528H120.282C120.335 447.285 120.612 447.92 121.114 448.432C121.615 448.944 122.266 449.2 123.066 449.2C124.026 449.2 124.82 448.875 125.45 448.224L126.026 449.008C125.236 449.797 124.212 450.192 122.954 450.192ZM125.354 445.648C125.343 444.987 125.119 444.395 124.682 443.872C124.244 443.339 123.62 443.072 122.81 443.072C122.042 443.072 121.434 443.333 120.986 443.856C120.548 444.379 120.314 444.976 120.282 445.648H125.354ZM139.006 450H137.614L135.294 446.832L132.974 450H131.598L134.558 446.032L131.758 442.272H133.15L135.294 445.216L137.438 442.272H138.83L136.03 446.032L139.006 450ZM142.5 450.192C141.305 450.192 140.361 449.744 139.668 448.848L140.436 448.144C140.958 448.848 141.63 449.2 142.452 449.2C143.188 449.2 143.785 448.965 144.244 448.496C144.713 448.027 144.99 447.397 145.076 446.608H141.188V445.568H145.06C144.964 444.811 144.681 444.208 144.212 443.76C143.753 443.301 143.166 443.072 142.452 443.072C141.62 443.072 140.948 443.424 140.436 444.128L139.668 443.424C140.361 442.528 141.305 442.08 142.5 442.08C143.641 442.08 144.569 442.464 145.284 443.232C146.009 444 146.372 444.965 146.372 446.128C146.372 447.291 146.009 448.261 145.284 449.04C144.569 449.808 143.641 450.192 142.5 450.192ZM157.237 442.272H158.437V450H148.309V442.272H149.509V448.944H152.773V442.272H153.973V448.944H157.237V442.272ZM163.449 450H162.249V443.328H160.009V442.272H165.705V443.328H163.449V450ZM170.766 450.192C169.614 450.192 168.67 449.819 167.934 449.072C167.198 448.315 166.83 447.333 166.83 446.128C166.83 444.997 167.193 444.043 167.918 443.264C168.643 442.475 169.55 442.08 170.638 442.08C171.779 442.08 172.681 442.475 173.342 443.264C174.014 444.043 174.35 445.029 174.35 446.224V446.528H168.094C168.147 447.285 168.425 447.92 168.926 448.432C169.427 448.944 170.078 449.2 170.878 449.2C171.838 449.2 172.633 448.875 173.262 448.224L173.838 449.008C173.049 449.797 172.025 450.192 170.766 450.192ZM173.166 445.648C173.155 444.987 172.931 444.395 172.494 443.872C172.057 443.339 171.433 443.072 170.622 443.072C169.854 443.072 169.246 443.333 168.798 443.856C168.361 444.379 168.126 444.976 168.094 445.648H173.166ZM181.702 442.272V443.328H177.494V450H176.294V442.272H181.702ZM189.407 449.024C188.713 449.803 187.791 450.192 186.639 450.192C185.487 450.192 184.559 449.803 183.855 449.024C183.161 448.245 182.815 447.28 182.815 446.128C182.815 444.976 183.161 444.016 183.855 443.248C184.559 442.469 185.487 442.08 186.639 442.08C187.791 442.08 188.713 442.469 189.407 443.248C190.111 444.016 190.463 444.976 190.463 446.128C190.463 447.28 190.111 448.245 189.407 449.024ZM184.751 448.256C185.22 448.832 185.849 449.12 186.639 449.12C187.428 449.12 188.052 448.832 188.511 448.256C188.969 447.669 189.199 446.96 189.199 446.128C189.199 445.296 188.969 444.592 188.511 444.016C188.052 443.44 187.428 443.152 186.639 443.152C185.849 443.152 185.22 443.445 184.751 444.032C184.292 444.608 184.062 445.307 184.062 446.128C184.062 446.96 184.292 447.669 184.751 448.256ZM196.755 450H192.419V442.272H196.675C197.347 442.272 197.875 442.453 198.259 442.816C198.653 443.179 198.851 443.659 198.851 444.256C198.851 444.693 198.728 445.072 198.483 445.392C198.248 445.701 197.955 445.909 197.603 446.016C197.997 446.112 198.328 446.341 198.595 446.704C198.872 447.067 199.011 447.467 199.011 447.904C199.011 448.533 198.808 449.04 198.403 449.424C198.008 449.808 197.459 450 196.755 450ZM196.515 448.944C196.899 448.944 197.203 448.837 197.427 448.624C197.651 448.411 197.763 448.123 197.763 447.76C197.763 447.429 197.651 447.147 197.427 446.912C197.203 446.677 196.899 446.56 196.515 446.56H193.619V448.944H196.515ZM196.467 445.504C196.829 445.504 197.112 445.408 197.315 445.216C197.517 445.013 197.619 444.752 197.619 444.432C197.619 444.091 197.517 443.824 197.315 443.632C197.112 443.429 196.829 443.328 196.467 443.328H193.619V445.504H196.467Z" fill="#FBFBFF"/>
<path d="M213.703 448.705L219.703 442.705L218.293 441.295L213.703 445.875L209.113 441.295L207.703 442.705L213.703 448.705Z" fill="#FBFBFF"/>
</svg>
