<svg width="69" height="69" viewBox="0 0 69 69" fill="none" xmlns="http://www.w3.org/2000/svg">
<path fill-rule="evenodd" clip-rule="evenodd" d="M11.4999 23C5.14869 23 -2.77621e-07 17.8513 0 11.5C4.05623e-07 5.14872 5.14869 0 11.4999 0C17.8511 0 22.9998 5.14873 22.9998 11.5C22.9998 17.8513 28.1488 22.9999 34.5 22.9999C32.0083 22.9999 29.7017 23.7924 27.8184 25.139C29.7016 23.7925 32.0081 23.0001 34.4997 23.0001C40.851 23.0001 45.9996 28.1489 45.9996 34.5001C45.9996 40.8384 51.1275 45.9791 57.4608 46.0001C57.4739 46 57.487 46 57.5001 46C63.8513 46 69 51.1487 69 57.5C69 63.8513 63.8513 69 57.5001 69C51.1489 69 46.0002 63.8513 46.0002 57.5C46.0002 51.1487 40.8512 46.0001 34.5 46.0001C34.487 46.0001 34.4738 46.0001 34.4609 46.0001C28.1278 46.0213 23.0004 51.1619 23.0004 57.5C23.0004 63.8513 17.8514 68.9999 11.5002 68.9999C5.14895 68.9999 0.0002648 63.8511 0.0002648 57.4999C0.0002648 51.1486 5.14895 45.9999 11.5002 45.9999C11.5134 45.9999 11.5267 45.9999 11.5399 45.9999C17.8467 45.9788 22.9578 40.8807 23.0001 34.5788C22.9999 34.5526 22.9998 34.5264 22.9998 34.5001C22.9998 34.4816 22.9999 34.463 23 34.4445C22.9702 28.1317 17.8541 23.021 11.5394 22.9999C11.5262 23 11.5131 23 11.4999 23ZM34.5 22.9999C40.8512 22.9999 45.9999 17.8511 45.9999 11.4999C45.9999 5.14859 51.1489 5.02681e-07 57.5001 5.02681e-07C63.8513 5.02681e-07 69 5.14873 69 11.5C69 17.8513 63.8513 23 57.5001 23C57.4869 23 57.4738 23 57.4606 22.9999C51.1274 23.0211 45.9999 28.1617 45.9999 34.4999C45.9999 28.1486 40.8512 22.9999 34.5 22.9999Z" fill="#9896AE"/>
</svg>
