<svg width="100" height="116" viewBox="0 0 100 116" fill="none" xmlns="http://www.w3.org/2000/svg">
<path d="M0 15C0 6.71573 6.71573 0 15 0H85C93.2843 0 100 6.71573 100 15V100.089C100 108.373 93.2843 115.089 85 115.089H15C6.71573 115.089 0 108.373 0 100.089V15Z" fill="#CCFD38"/>
<path fill-rule="evenodd" clip-rule="evenodd" d="M22.8332 44.6667C15.1933 44.6667 9 38.4733 9 30.8333C9 23.1934 15.1933 17 22.8332 17C30.4731 17 36.6665 23.1934 36.6665 30.8333C36.6665 38.4733 42.8601 44.6665 50.5 44.6665C47.5027 44.6665 44.7281 45.6198 42.4627 47.2397C44.728 45.62 47.5026 44.6668 50.4997 44.6668C58.1396 44.6668 64.3329 50.8602 64.3329 58.5002C64.3329 66.1245 70.5013 72.3081 78.1196 72.3334C78.1353 72.3334 78.151 72.3333 78.1668 72.3333C85.8067 72.3333 92 78.5267 92 86.1667C92 93.8066 85.8067 100 78.1668 100C70.5269 100 64.3335 93.8066 64.3335 86.1667C64.3335 78.5267 58.1399 72.3335 50.5 72.3335C50.4844 72.3335 50.4685 72.3335 50.453 72.3334C42.8349 72.3589 36.6671 78.5425 36.6671 86.1667C36.6671 93.8066 30.4734 99.9998 22.8335 99.9998C15.1937 99.9998 9.00032 93.8064 9.00032 86.1665C9.00032 78.5266 15.1937 72.3332 22.8335 72.3332C22.8495 72.3332 22.8654 72.3332 22.8813 72.3333C30.4678 72.3078 36.6159 66.1753 36.6668 58.5948C36.6666 58.5633 36.6665 58.5317 36.6665 58.5002C36.6665 58.4778 36.6665 58.4555 36.6666 58.4332C36.6308 50.8396 30.4767 44.6919 22.8807 44.6666C22.8649 44.6666 22.8491 44.6667 22.8332 44.6667ZM50.5 44.6665C58.1399 44.6665 64.3332 38.4731 64.3332 30.8332C64.3332 23.1932 70.5269 17 78.1668 17C85.8067 17 92 23.1934 92 30.8333C92 38.4733 85.8067 44.6667 78.1668 44.6667C78.1509 44.6667 78.1351 44.6666 78.1193 44.6666C70.5011 44.692 64.3332 50.8756 64.3332 58.4998C64.3332 50.8599 58.1399 44.6665 50.5 44.6665Z" fill="#9896AE"/>
</svg>
