<svg width="1440" height="96" viewBox="0 0 1440 96" fill="none" xmlns="http://www.w3.org/2000/svg">
<rect y="64" width="1440" height="32" fill="#EDF2FF"/>
<path fill-rule="evenodd" clip-rule="evenodd" d="M193 0H257H321C338.673 0 353 14.3269 353 32C353 49.6731 367.327 64 385 64C367.327 64 353 78.3269 353 96C353 78.3269 338.673 64 321 64H257H193C175.327 64 161 78.3269 161 96C161 78.3269 146.673 64 129 64C111.327 64 97 78.3269 97 96C97 78.3269 82.6731 64 65 64C82.6731 64 97 49.6731 97 32C97 14.3269 111.327 0 129 0H193Z" fill="#EDF2FF"/>
</svg>
