<svg width="118" height="95" viewBox="0 0 118 95" fill="none" xmlns="http://www.w3.org/2000/svg">
<path d="M14.75 29.2308H88.5V21.9231H14.75V29.2308ZM55.3125 73.0769H81.125V65.7692H55.3125V73.0769ZM55.3125 58.4615H88.5V51.1538H55.3125V58.4615ZM55.3125 43.8462H88.5V36.5385H55.3125V43.8462ZM14.75 73.0769H47.9375V36.5385H14.75V73.0769ZM103.25 14.6154V0H0V80.3846C0 80.3846 0 95 14.75 95H106.938C106.938 95 118 94.7735 118 80.3846V14.6154H103.25ZM14.75 87.6923C7.375 87.6923 7.375 80.3846 7.375 80.3846V7.30769H95.875V80.3846C95.875 83.7498 96.9223 86.0773 98.3678 87.6923H14.75Z" fill="black"/>
</svg>
