<svg width="698" height="522" viewBox="0 0 698 522" fill="none" xmlns="http://www.w3.org/2000/svg">
<path d="M93.5912 293.188C100.647 300.615 100.442 291.525 114.496 278.058L157.183 280.604L163.801 312.114L153.687 402.615C146.33 421.025 147.694 456.772 146.46 465.291C145.227 473.81 124.075 488.085 120.51 488.175C121.498 483.563 119.251 480.776 118.004 479.959C117.855 483.397 115.929 491.608 109.415 496.948C102.901 502.288 95.0154 502.737 91.8867 502.295C93.2268 499.491 94.6353 494.032 89.5475 494.626C84.4596 495.22 85.1619 503.148 86.149 507.039C67.5163 498.951 71.4815 478.582 66.8583 475.202C63.1598 472.499 60.7307 478.668 59.9785 482.091C41.7644 457.71 45.6802 434.562 47.819 426.525C40.2948 431.694 35.264 423.968 33.6891 419.459C38.4703 421.394 46.9874 422.229 42.8064 410.092C37.5802 394.922 48.6477 380.17 54.3115 371.257C58.8424 364.128 46.3084 372.501 40.0693 375.602C44.9356 348.372 61.9705 328.248 72.3105 318.309C43.1213 323.357 91.9352 298.882 93.5912 293.188Z" fill="white"/>
<path d="M105.546 470.192C112.461 466.167 132.826 450.77 134.014 446.815L124.336 434.617L134.198 396.284L122 356.297L101.234 325.51C90.7392 329.709 71.6093 339.097 79.0437 343.056C86.4782 347.015 83.8123 350.183 81.55 351.272C68.0618 357.303 65.0917 366.671 65.2927 370.601C72.0741 366.137 78.2298 361.805 78.9693 363.575C76.7254 368.651 65.6517 366.898 65.9475 383.572C66.0426 388.934 61.9771 400.95 54.1874 400.931C55.8862 412.388 77.3883 400.44 70.0072 405.686C62.6261 410.931 58.9592 412.648 59.7012 419.008C59.9667 421.283 56.5137 425.568 53.5366 426.277C54.1337 428.889 59.2682 434.467 65.7821 429.128C72.2961 423.788 76.9046 426.334 72.1693 434.364C67.9801 439.474 70.9243 449.912 71.8248 454.826C74.4896 449.822 84.1078 442.098 82.7142 461.084C81.5994 476.273 90.4191 478.492 94.9683 477.703C93.8452 472.059 94.8861 459.766 100.364 458.096C104.746 456.759 106.147 465.618 105.546 470.192Z" fill="#E7E8E3"/>
<path d="M485.063 295.026C485.217 292.987 483.98 289.75 479.337 285.235L436.631 287.472L429.785 318.933L439.242 409.505C446.466 427.968 444.842 463.704 446.013 472.232C447.185 480.76 468.232 495.188 471.797 495.304C470.842 490.684 473.11 487.913 474.363 487.105C474.486 490.545 476.353 498.77 482.828 504.157C489.303 509.544 497.185 510.051 500.317 509.631C498.997 506.817 497.628 501.348 502.712 501.979C507.795 502.61 507.035 510.533 506.02 514.416C524.711 506.464 520.894 486.067 525.541 482.721C529.259 480.044 531.644 486.231 532.371 489.659C550.762 465.411 547.014 442.235 544.934 434.183C552.42 439.407 557.507 431.717 559.114 427.22C554.319 429.12 545.796 429.893 550.065 417.787C555.402 402.655 544.441 387.823 538.843 378.87C534.363 371.707 546.836 380.171 553.053 383.317C548.384 356.053 531.547 332.818 521.279 322.804C508.657 294.551 490.463 297.66 485.063 295.026Z" fill="white"/>
<path d="M486.89 477.427C480.005 473.352 459.753 457.808 458.593 453.844L468.359 441.717L458.776 403.313L471.264 363.416L492.253 332.781C502.717 337.056 508.629 338.295 501.166 342.2C493.703 346.105 509.495 357.579 511.749 358.685C525.193 364.813 528.096 374.203 527.866 378.131C521.117 373.619 514.993 369.242 514.241 371.007C516.448 376.098 527.534 374.426 527.117 391.097C526.983 396.458 530.961 408.504 538.751 408.542C536.969 419.985 515.554 407.882 522.897 413.181C530.24 418.479 533.894 420.223 533.106 426.577C532.824 428.851 536.246 433.161 539.218 433.891C538.601 436.498 533.427 442.04 526.952 436.653C520.477 431.266 515.85 433.778 520.527 441.843C524.679 446.983 521.659 457.399 520.723 462.307C518.094 457.284 508.532 449.49 509.788 468.486C510.793 483.682 501.957 485.837 497.414 485.015C498.578 479.379 497.626 467.08 492.161 465.369C487.788 464.001 486.323 472.849 486.89 477.427Z" fill="#E7E8E3"/>
<path d="M174.6 502.393C151.884 492.247 144.438 474.025 143.555 466.182C134.786 466.15 134.095 475.512 134.845 480.197C124.291 475.354 117.4 455.174 115.274 445.69C101.533 460.055 71.5407 440.01 80.5057 436.038C89.4707 432.067 91.4118 421.603 83.3294 417.169C76.8634 413.622 73.4773 418.602 72.5925 421.535C65.9734 408.698 81.5613 377.559 72.7551 376.726C65.7102 376.06 62.8526 384.006 64.0388 388.148C60.9753 387.116 56.7885 366.255 59.0074 354.342C63.2711 331.449 79.3693 339.739 87.1602 329.245C81.2377 330.56 68.3598 333.759 64.228 336.034C59.0633 338.879 51.2099 341.141 44.7527 337.109C39.587 333.883 42.6267 328.511 44.7922 326.228C44.1946 333.098 56.2354 329.133 55.6898 321.686C55.1441 314.239 62.0599 302.238 75.2545 295.986C85.8101 290.985 85.3616 284.979 83.8179 282.601C77.4176 276.154 56.7925 288.586 51.3867 292.437C58.244 248.783 97.3373 246.508 105.744 236.197C111.688 228.907 91.6251 227.452 80.5599 233.511C83.0741 222.145 105.204 211.769 119.08 216.637C136.367 222.702 124.853 211.183 123.689 210.257C119.112 207.727 94.4236 210.1 105.877 199.705C115.039 191.388 132.957 197.401 139.053 195.358C117.656 195.541 118.787 176.372 122.015 170.2C121.124 174.855 126.704 182.965 147.001 173.552C167.298 164.14 187.315 172.037 195.936 176.021C200.07 176.523 207.738 175.708 205.341 168.429C202.944 161.151 185.09 158.901 176.462 158.686C217.822 143.691 238.138 160.838 237.882 155.417C237.677 151.08 226.443 145.8 220.851 143.702C246.46 144.07 249.463 151.241 249.473 148.487C249.481 146.284 244.906 142.214 242.618 140.454C265.736 143.82 273.184 157.551 275.708 155.554C277.727 153.956 276.571 149.096 275.74 146.866C282.596 152.93 283.585 161.664 283.223 165.273C286.838 139.893 309.534 138.34 320.43 140.736C304.656 141.854 299.317 150.279 298.62 154.353C331.674 142.345 356.144 149.508 364.247 154.591C361.295 154.446 358.284 155.37 357.147 155.85C368.269 157.48 372.855 163.03 373.758 165.602C350.348 162.75 348.154 170.392 349.97 178.006C372.153 163.316 401.684 172.675 410.138 176.184C419.157 179.927 423.018 184.821 423.006 188.14C387.785 181.257 395.902 192.777 398.09 198.938C403.629 197.19 412.53 196.44 439.27 196.906C466.009 197.372 483.901 215.075 487.948 222.329C474.6 215.875 457.586 231.39 487.894 237.171C518.202 242.952 531.027 262.842 518.607 270.679C515.378 266.406 507.194 259.608 500.296 266.604C499.902 268.254 501.061 272.325 508.845 275.412C546.602 293.551 540.995 314.094 537.481 322.112C537.682 316.84 523.056 310.7 518.468 309.049C518.563 313.875 521.798 319.14 530.978 333.72C540.157 348.299 539.499 363.531 535.649 364.549C537.119 351.184 516.596 348.176 514.389 345.427L514.325 345.346C512.069 342.535 506.334 335.39 522.52 364.502C535.594 388.017 532.201 392.799 527.711 396.255C528.174 394.703 528.222 391.377 524.716 390.487C521.21 389.597 523.224 398.706 524.669 403.372L515.358 394.132C525.674 420.286 505.624 432.919 497.746 435.978C497.804 419.761 489.108 428.167 483.392 427.623C487.115 428.342 491.983 429.951 491.526 444.148C490.909 463.289 478.855 469.262 478.889 459.964C478.916 452.525 472.383 444.078 469.113 440.785C467.639 444.973 473.48 464.571 462.932 477.221C449.748 493.035 442.646 490.822 446.524 477.162C449.627 466.234 440.911 466.385 436.166 467.826C414.183 496.735 375.283 515.19 370.907 515.174C366.532 515.158 381.375 494.428 364.933 503.666C351.779 511.057 319.315 514.257 304.728 514.933C308.935 511.12 313.958 503.481 300.394 503.432C283.439 503.37 289.413 514.878 266.426 519.17C248.036 522.604 238.355 517.61 235.813 514.683C244.941 511.252 257.736 502.293 235.889 493.9C214.041 485.507 208.526 498.141 208.51 502.516C194.303 498.636 193.237 490.975 182.853 488.75C174.546 486.969 173.89 497.104 174.6 502.393Z" fill="white"/>
<path d="M186.909 303.262C152.083 304.968 139.841 332.871 139.789 347.188C140.53 353.299 145.551 369.086 164.3 378.775C187.736 390.886 211.219 390.095 212.938 389.833C219.815 388.712 239.292 387.065 241.064 372.181C242.836 357.298 230.441 301.129 186.909 303.262Z" fill="#B8BBAE"/>
<path d="M347.564 378.868C354.852 390.348 368.135 391.351 373.289 391.561C405.355 392.865 450.076 378.668 443.353 337.41C439.403 321.36 421.168 296.096 385.62 307.42C350.073 318.745 338.453 364.518 347.564 378.868Z" fill="#B8BBAE"/>
<path d="M391.642 304.794C357.119 314.697 351.01 352.24 352.272 369.774C356.791 388.135 378.838 387.775 391.345 386.732C405.841 385.523 452.554 370.138 437.704 333.701C425.825 304.551 402.047 302.284 391.642 304.794Z" fill="#827FA3"/>
<circle cx="370.833" cy="360.226" r="4.8764" transform="rotate(0.207981 370.833 360.226)" fill="white"/>
<circle cx="392.856" cy="362.305" r="10.1882" transform="rotate(0.207981 392.856 362.305)" fill="white"/>
<path d="M195.537 304.079C229.988 314.232 235.824 351.819 234.435 369.343C229.783 387.671 207.739 387.151 195.24 386.017C180.754 384.703 134.153 368.979 149.267 332.651C161.357 303.588 185.152 301.493 195.537 304.079Z" fill="#827FA3"/>
<circle r="4.8764" transform="matrix(-0.999993 -0.00362995 -0.00362995 0.999993 212.631 358.499)" fill="white"/>
<circle r="4.8764" transform="matrix(-0.999993 -0.00362995 -0.00362995 0.999993 209.401 342.579)" fill="white"/>
<circle r="4.8764" transform="matrix(-0.999993 -0.00362995 -0.00362995 0.999993 375.475 343.185)" fill="white"/>
<circle r="10.1882" transform="matrix(-0.999993 -0.00362995 -0.00362995 0.999993 190.593 360.423)" fill="white"/>
<path d="M19.3843 360.118C25.8801 331.886 38.846 312.774 50.1668 309.309C32.672 309.087 11.2489 327.08 10.0832 335.994C9.15062 343.126 17.3744 355.369 19.3843 360.118Z" fill="white"/>
<path d="M24.8215 312.478C30.8822 304.802 46.754 301.311 50.5576 302.474C47.7016 297.787 30.9224 291.256 27.1931 295.988C24.2098 299.773 24.1988 310.427 24.8215 312.478Z" fill="white"/>
<path d="M441.025 187.233C467.481 189.841 484.188 199.152 488.055 203.756C489.321 203.76 491.848 192.451 486.192 187.397C479.929 181.799 444.562 185.48 441.025 187.233Z" fill="white"/>
<path opacity="0.4" d="M543.121 406.992C544.296 411.645 548.408 428.036 546.948 436.326C551.615 430.979 560.909 412.488 543.121 406.992Z" fill="white"/>
<path d="M393.89 317.809C393.913 311.433 387.253 307.09 383.92 305.715L386.828 292.851L404.618 290.259C408.486 294.224 415.811 303.133 414.162 307.051C412.513 310.969 409.101 312.483 407.601 312.75C408.265 310.136 404.095 308.241 401.583 305.779C401.558 312.728 397.847 316.257 393.89 317.809Z" fill="white"/>
<path d="M410.949 333.873C390.048 325.631 380.588 307.44 378.471 299.375L378.57 294.795L448.61 314.064C454.548 322.021 465.492 338.716 461.758 341.843C458.024 344.971 448.661 347.098 444.445 347.771C444.126 344.9 442.463 338.792 438.37 337.329C434.277 335.866 436.574 340.918 438.234 343.627C419.949 341.514 416.238 327.686 411.135 325.284C407.052 323.363 409.31 330.209 410.949 333.873Z" fill="white"/>
<path d="M201.428 327.994C211.866 321.108 218.494 308.307 220.503 302.767L201.303 293.515L164.442 305.917L134.08 326.953C134.097 335.957 135.718 353.713 142.068 352.701C150.006 351.436 157.05 339.901 161.143 340.695C164.418 341.33 160.374 347.277 157.943 350.171C160.78 349.733 167.93 347.348 173.844 341.315C181.236 333.774 185.85 320.726 186.792 331.567C187.547 340.239 194.829 340.257 198.377 339.182C195.044 338.322 190.989 334.881 201.428 327.994Z" fill="white"/>
<path d="M166.463 278.169C161.692 277.883 165.588 268.478 168.132 263.811C158.217 277.742 156.351 284.907 165.152 286.564C174.063 288.243 181.136 277.212 184.266 270.63C184.623 272.75 187.855 273.962 189.426 274.303C199.593 275.321 205.659 257.873 207.42 249.021C206.15 252.263 202.02 260.103 195.669 265.532C189.317 270.961 184.872 266.139 183.444 263.049C179.85 271.374 172.427 278.528 166.463 278.169Z" fill="#E7E8E3"/>
<path d="M449.1 397.451C435.185 393.828 430.957 378.611 430.582 371.456C428.467 392.909 447.426 410.402 452.295 407.993C456.191 406.066 455.584 396.398 454.793 391.805C454.774 396.341 450.99 397.459 449.1 397.451Z" fill="#E7E8E3"/>
<path d="M469.368 392.677C465.451 399.788 457.213 394.246 453.584 390.586C454.872 392.535 454.647 394.64 454.374 395.449L455.993 395.456C462.042 401.555 472.164 402.003 473.397 397.554C474.384 393.994 471.407 389.311 469.796 387.415C470.11 389.684 469.642 391.868 469.368 392.677Z" fill="#E7E8E3"/>
<path d="M229.048 427.646C229.048 425.355 213.394 420.201 205.568 417.91H171.779V440.245C177.888 444.445 191.594 452.958 197.55 453.417C204.995 453.989 233.629 447.117 233.629 445.399C233.629 443.681 221.03 436.809 221.03 435.091C221.03 433.373 229.048 430.509 229.048 427.646Z" fill="white"/>
<path d="M351.03 428.218C351.03 425.927 366.684 420.773 374.51 418.482H408.299V440.817C402.19 445.017 388.484 453.531 382.528 453.989C375.083 454.562 346.449 447.689 346.449 445.971C346.449 444.253 359.048 437.381 359.048 435.663C359.048 433.945 351.03 431.081 351.03 428.218Z" fill="white"/>
<path d="M186.952 439.378C194.822 433.759 179.757 426.361 172.641 424.871C177.873 424.831 197.461 429.794 198.19 433.862C198.773 437.116 189.767 439.224 186.952 439.378Z" fill="#E7E8E3"/>
<path d="M196.262 410.959C195.816 407.751 189.6 405.781 186.548 405.197C189.978 406.928 192.26 409.227 193.965 412.669C195.671 416.111 199.107 416.124 215.113 424.199C231.119 432.275 219.101 429.941 217.939 434.518C216.777 439.095 221.362 437.967 225.921 444.283C229.568 449.336 199.172 450.867 183.518 451.001C184.85 451.96 187.283 454.909 186.352 459.029C185.421 463.149 173.362 461.464 167.449 460.106C178.868 469.768 197.022 464.604 203.528 460.237C196.658 459.754 198.38 458.5 198.957 457.357C204.109 457.948 222.557 455.953 232.192 452.323C244.235 447.785 237.381 442.606 228.233 438.564C220.914 435.331 222.902 434.536 224.811 434.543C228.439 434.365 239.022 432.304 229.426 425.397C217.431 416.763 196.821 414.97 196.262 410.959Z" fill="#E7E8E3"/>
<path d="M335.205 492.05L494.132 152.682" stroke="#827FA3" stroke-width="13.8801" stroke-linecap="round"/>
<path d="M384.479 460.126C385.034 462.902 397.665 463.596 403.911 463.596L407.381 452.492V406.688H388.643L381.009 413.628L360.883 422.65L347.696 428.896L357.412 434.448C353.711 437.224 346.586 443.47 347.696 446.246C348.807 449.022 372.681 451.566 384.479 452.492C384.247 453.88 383.923 457.35 384.479 460.126Z" fill="white"/>
<path d="M381.236 411.636C381.706 408.43 387.936 406.506 390.993 405.944C387.55 407.65 385.251 409.932 383.521 413.362C381.79 416.792 378.354 416.779 362.29 424.739C346.226 432.698 358.261 430.451 359.389 435.037C360.518 439.622 355.941 438.46 351.337 444.743C347.653 449.769 378.037 451.521 393.69 451.769C392.35 452.719 389.896 455.649 390.797 459.776C391.698 463.903 403.769 462.305 409.692 460.99C398.203 470.57 377.801 464.12 371.326 459.705C378.2 459.272 378.777 458.014 378.209 456.867C373.053 457.421 356.906 456.446 347.298 452.746C335.289 448.121 335.307 442.967 344.485 438.991C351.827 435.811 354.426 435.018 352.517 435.012C348.891 434.807 339.468 432.673 349.114 425.836C361.172 417.29 380.649 415.642 381.236 411.636Z" fill="#E7E8E3"/>
<rect x="381.324" width="345.614" height="116.593" rx="27.7602" transform="rotate(23.6717 381.324 0)" fill="#827FA3"/>
<path d="M407.572 66.7591L414.349 51.301L405.552 47.4446L398.775 62.9027L396.233 61.7882L404.035 43.991L417.917 50.0765L410.115 67.8737L407.572 66.7591ZM420.657 70.5859C421.98 71.1655 423.29 71.1945 424.59 70.673C425.897 70.1346 426.84 69.2044 427.42 67.8823C427.985 66.5941 428.022 65.287 427.532 63.961C427.043 62.6349 426.137 61.6821 424.815 61.1026C423.493 60.523 422.17 60.4987 420.846 61.0297C419.539 61.5681 418.603 62.4814 418.038 63.7696C417.459 65.0916 417.414 66.4157 417.903 67.7417C418.4 69.0508 419.318 69.9989 420.657 70.5859ZM425.593 72.8101C423.74 73.5336 421.805 73.4532 419.788 72.569C417.771 71.6848 416.392 70.3125 415.652 68.4522C414.936 66.5824 414.994 64.6983 415.826 62.7999C416.651 60.9185 417.994 59.6076 419.854 58.8672C421.731 58.1342 423.678 58.2098 425.695 59.094C427.712 59.9782 429.079 61.3553 429.795 63.2251C430.511 65.0949 430.457 66.9706 429.632 68.852C428.8 70.7503 427.453 72.0697 425.593 72.8101ZM437.848 80.0314C437.777 79.778 437.54 78.866 437.138 77.2952C436.743 75.7075 436.445 74.4961 436.245 73.6609L430.5 76.8103L427.602 75.5397L435.433 71.365L433.251 62.8609L436.124 64.1203L437.639 70.4828L443.344 67.2857L446.243 68.5563C444.473 69.4578 441.836 70.8176 438.332 72.6356L440.721 81.2908L437.848 80.0314ZM449.086 83.0485C450.408 83.6281 451.719 83.6571 453.019 83.1357C454.326 82.5972 455.269 81.667 455.849 80.3449C456.413 79.0568 456.451 77.7496 455.961 76.4236C455.471 75.0976 454.566 74.1448 453.244 73.5652C451.921 72.9856 450.598 72.9613 449.274 73.4923C447.967 74.0307 447.032 74.944 446.467 76.2322C445.887 77.5543 445.842 78.8783 446.332 80.2044C446.829 81.5135 447.747 82.4615 449.086 83.0485ZM454.022 85.2728C452.169 85.9962 450.234 85.9158 448.217 85.0316C446.2 84.1474 444.821 82.7751 444.081 80.9148C443.365 79.045 443.423 77.1609 444.255 75.2625C445.08 73.3811 446.422 72.0702 448.283 71.3298C450.16 70.5968 452.107 70.6724 454.124 71.5567C456.141 72.4409 457.508 73.8179 458.224 75.6877C458.94 77.5576 458.885 79.4332 458.06 81.3146C457.228 83.213 455.882 84.5323 454.022 85.2728ZM463.563 91.3043L466.059 85.6092L464.585 84.9627L458.351 89.0194L455.757 87.8826C458.4 86.2325 460.869 84.6575 463.163 83.1576C463.04 82.5174 462.813 81.3065 462.483 79.5249C462.16 77.7264 461.911 76.3343 461.737 75.3487L464.356 76.4967C464.981 80.1859 465.354 82.3093 465.473 82.8668L466.973 83.5244L469.135 78.592L471.398 79.584L469.236 84.5163L470.711 85.1628C471.932 84.405 473.754 83.2438 476.178 81.6794L478.797 82.8274C477.954 83.3672 476.762 84.1277 475.22 85.1089C473.686 86.0731 472.642 86.7267 472.087 87.0697C472.539 89.7733 473.053 92.656 473.631 95.7179L471.037 94.5811L469.797 87.2476L468.322 86.6012L465.825 92.2962L463.563 91.3043ZM490.427 95.0793C490.368 95.2149 490.262 95.4108 490.109 95.6672L479.38 90.9637C478.917 92.2965 478.899 93.5819 479.326 94.8199C479.761 96.041 480.715 96.9748 482.19 97.6212C482.902 97.9333 483.686 98.1257 484.544 98.1984C485.408 98.2541 486.2 98.1768 486.919 97.9665L487.351 99.8838C486.44 100.212 485.426 100.333 484.312 100.249C483.214 100.172 482.157 99.9101 481.14 99.4643C479.207 98.6173 477.839 97.29 477.035 95.4827C476.231 93.6753 476.241 91.8309 477.066 89.9495C477.913 88.0172 479.27 86.6517 481.135 85.853C483.025 85.0448 484.886 85.042 486.716 85.8445C488.75 86.7361 490.072 88.0532 490.682 89.7958C491.3 91.5215 491.215 93.2826 490.427 95.0793ZM488.647 93.0561C488.908 91.9987 488.804 90.9929 488.333 90.0389C487.886 89.0753 487.061 88.3297 485.858 87.8021C484.841 87.3563 483.814 87.2798 482.776 87.5726C481.746 87.8484 480.881 88.439 480.181 89.3446L488.647 93.0561ZM487.792 106.412L491.667 100.2L494.642 101.504L489.445 107.136L487.792 106.412ZM509.2 102.551L511.183 103.42C511.81 103.695 512.441 103.73 513.077 103.523C513.713 103.317 514.15 102.943 514.388 102.401C514.916 101.197 514.349 100.231 512.688 99.5032C511.196 98.8493 509.757 98.8144 508.369 99.3983C508.329 99.2594 508.244 98.9695 508.114 98.5286C507.991 98.0707 507.903 97.7189 507.849 97.473C509.649 96.6859 511.591 96.7493 513.676 97.6632C515.185 98.3246 516.171 99.1407 516.634 100.112C517.115 101.09 517.15 102.046 516.742 102.978C516.452 103.639 515.977 104.168 515.318 104.566C514.666 104.947 513.926 105.138 513.097 105.138C513.782 105.742 514.215 106.437 514.396 107.223C514.601 108 514.547 108.745 514.235 109.456C513.774 110.507 512.957 111.22 511.782 111.594C510.632 111.959 509.176 111.755 507.413 110.982C505.345 110.076 503.919 108.673 503.136 106.773L504.893 105.876C505.6 107.399 506.673 108.475 508.114 109.107C509.063 109.523 509.873 109.636 510.543 109.444C511.229 109.26 511.71 108.855 511.985 108.228C512.253 107.618 512.243 107.017 511.956 106.427C511.694 105.827 511.207 105.371 510.495 105.059L508.486 104.178L509.2 102.551ZM518.717 115.938C517.395 115.358 516.485 114.575 515.988 113.589C515.508 112.611 515.513 111.562 516.003 110.444C516.248 109.884 516.557 109.434 516.929 109.092C517.309 108.733 517.706 108.472 518.12 108.311C518.535 108.149 519.032 108.074 519.613 108.086C520.211 108.105 520.756 108.152 521.249 108.227C521.758 108.309 522.372 108.477 523.089 108.731C523.831 108.975 524.451 109.196 524.95 109.395C525.466 109.601 526.117 109.866 526.904 110.191L527.361 109.149C528.164 107.318 527.548 105.957 525.514 105.065C524.006 104.404 522.416 104.344 520.744 104.884L520.111 102.939C522.222 102.228 524.362 102.347 526.531 103.299C527.565 103.752 528.379 104.27 528.972 104.853C529.581 105.444 529.952 106.051 530.083 106.674C530.221 107.28 530.258 107.842 530.193 108.359C530.128 108.876 529.98 109.398 529.75 109.923L525.927 118.644L523.639 117.64L524.62 115.403C522.464 116.54 520.497 116.718 518.717 115.938ZM520.046 114.429C521.639 115.127 523.435 114.833 525.433 113.547L526.258 111.666C524.631 110.952 523.234 110.451 522.067 110.162C521.706 110.064 521.326 110.009 520.928 109.996C520.529 109.983 520.07 110.085 519.551 110.302C519.056 110.509 518.701 110.858 518.485 111.35C518.181 112.045 518.203 112.661 518.554 113.199C518.921 113.744 519.418 114.154 520.046 114.429ZM543.384 113.536L536.189 110.381L531.496 121.085L529.234 120.093L534.806 107.381L546.553 112.53L540.98 125.242L538.692 124.239L543.384 113.536ZM551.022 130.1C549.225 129.312 548.057 127.991 547.515 126.137L544.517 132.977L542.254 131.985L550.101 114.086L552.364 115.078L551.628 116.756C553.368 115.922 555.153 115.906 556.983 116.709C558.797 117.504 560.011 118.814 560.625 120.639C561.256 122.472 561.167 124.312 560.357 126.16C559.532 128.041 558.224 129.367 556.431 130.137C554.656 130.914 552.853 130.902 551.022 130.1ZM555.354 118.42C553.812 117.743 552.291 117.824 550.792 118.663L548.351 124.231C548.734 125.893 549.705 127.067 551.264 127.75C552.552 128.315 553.846 128.337 555.145 127.815C556.445 127.294 557.377 126.389 557.942 125.101C558.499 123.83 558.521 122.536 558.007 121.219C557.51 119.91 556.626 118.977 555.354 118.42ZM566.972 134.728C568.294 135.307 569.605 135.336 570.905 134.815C572.212 134.276 573.155 133.346 573.735 132.024C574.299 130.736 574.337 129.429 573.847 128.103C573.358 126.777 572.452 125.824 571.13 125.244C569.808 124.665 568.485 124.64 567.161 125.171C565.854 125.71 564.918 126.623 564.353 127.911C563.773 129.233 563.729 130.557 564.218 131.883C564.715 133.193 565.633 134.141 566.972 134.728ZM571.908 136.952C570.055 137.675 568.12 137.595 566.103 136.711C564.086 135.826 562.707 134.454 561.967 132.594C561.251 130.724 561.309 128.84 562.141 126.942C562.966 125.06 564.308 123.749 566.169 123.009C568.046 122.276 569.993 122.352 572.01 123.236C574.027 124.12 575.394 125.497 576.11 127.367C576.826 129.237 576.771 131.112 575.947 132.994C575.114 134.892 573.768 136.211 571.908 136.952ZM579.945 134.747C579.366 136.069 579.307 137.356 579.768 138.609C580.236 139.845 581.123 140.749 582.428 141.321C583.767 141.908 585.208 141.964 586.75 141.488C586.771 141.578 586.845 141.894 586.972 142.434C587.123 142.965 587.227 143.374 587.283 143.661C585.354 144.372 583.399 144.293 581.416 143.423C579.551 142.606 578.268 141.246 577.567 139.342C576.883 137.446 576.938 135.591 577.733 133.777C578.521 131.98 579.844 130.691 581.702 129.909C583.585 129.118 585.458 129.131 587.323 129.949C589.289 130.81 590.669 132.203 591.462 134.127C591.213 134.281 590.838 134.49 590.338 134.756C589.862 135.012 589.584 135.163 589.503 135.208C588.808 133.752 587.791 132.73 586.452 132.143C585.181 131.586 583.92 131.558 582.669 132.061C581.418 132.563 580.51 133.458 579.945 134.747ZM398.084 82.595L390.889 79.4408L386.197 90.1445L383.934 89.1525L389.507 76.4403L401.253 81.5896L395.68 94.3018L393.392 93.2987L398.084 82.595ZM405.956 96.8971C407.278 97.4767 408.589 97.5057 409.888 96.9842C411.195 96.4458 412.139 95.5156 412.718 94.1935C413.283 92.9053 413.321 91.5982 412.831 90.2722C412.341 88.9461 411.435 87.9933 410.113 87.4138C408.791 86.8342 407.468 86.8099 406.144 87.3409C404.837 87.8793 403.901 88.7926 403.337 90.0808C402.757 91.4028 402.712 92.7269 403.202 94.0529C403.699 95.362 404.617 96.3101 405.956 96.8971ZM410.891 99.1213C409.039 99.8448 407.104 99.7644 405.087 98.8802C403.07 97.996 401.691 96.6237 400.95 94.7634C400.234 92.8936 400.293 91.0095 401.125 89.1111C401.949 87.2297 403.292 85.9188 405.152 85.1784C407.03 84.4454 408.977 84.521 410.994 85.4052C413.011 86.2894 414.377 87.6665 415.093 89.5363C415.809 91.4061 415.755 93.2818 414.93 95.1632C414.098 97.0615 412.752 98.3809 410.891 99.1213ZM429.812 94.1096L428.898 96.1944L424.373 94.2105L419.714 104.838L417.451 103.846L422.11 93.2185L417.584 91.2346L418.498 89.1498L429.812 94.1096ZM440.767 106.065C440.708 106.201 440.602 106.397 440.449 106.653L429.72 101.95C429.257 103.282 429.239 104.568 429.666 105.806C430.101 107.027 431.055 107.961 432.53 108.607C433.242 108.919 434.026 109.112 434.884 109.184C435.748 109.24 436.54 109.163 437.258 108.952L437.691 110.87C436.779 111.198 435.766 111.319 434.652 111.235C433.554 111.158 432.496 110.896 431.479 110.45C429.547 109.603 428.179 108.276 427.375 106.469C426.571 104.661 426.581 102.817 427.406 100.935C428.253 99.0032 429.609 97.6377 431.475 96.839C433.365 96.0308 435.225 96.0279 437.056 96.8304C439.09 97.7221 440.412 99.0392 441.022 100.782C441.64 102.507 441.555 104.269 440.767 106.065ZM438.987 104.042C439.248 102.985 439.144 101.979 438.673 101.025C438.226 100.061 437.401 99.3157 436.198 98.7881C435.181 98.3423 434.154 98.2658 433.116 98.5585C432.086 98.8344 431.22 99.425 430.52 100.331L438.987 104.042ZM446.987 117.249C445.191 116.461 444.022 115.14 443.481 113.287L440.482 120.126L438.22 119.134L446.066 101.235L448.329 102.227L447.593 103.905C449.333 103.071 451.118 103.056 452.948 103.858C454.762 104.653 455.976 105.963 456.59 107.788C457.222 109.621 457.132 111.461 456.322 113.309C455.498 115.19 454.189 116.516 452.396 117.286C450.621 118.064 448.818 118.051 446.987 117.249ZM451.319 105.569C449.777 104.893 448.256 104.974 446.757 105.812L444.316 111.38C444.699 113.043 445.67 114.216 447.229 114.9C448.517 115.464 449.811 115.486 451.111 114.964C452.41 114.443 453.342 113.538 453.907 112.25C454.464 110.979 454.486 109.685 453.972 108.368C453.475 107.059 452.591 106.126 451.319 105.569ZM465.338 119.443L462.973 118.407L457.964 121.606L455.32 120.447C457.909 118.874 459.689 117.786 460.662 117.181C459.719 116.566 459.114 115.755 458.848 114.749C458.599 113.751 458.682 112.777 459.098 111.828C459.581 110.726 460.391 109.94 461.527 109.468C462.664 108.996 463.901 109.054 465.24 109.641L471.215 112.26L465.642 124.972L463.354 123.969L465.338 119.443ZM468.102 113.138L464.593 111.6C463.966 111.325 463.343 111.294 462.724 111.508C462.13 111.712 461.684 112.153 461.386 112.831C461.089 113.509 461.063 114.144 461.309 114.737C461.571 115.337 462.016 115.774 462.643 116.049L466.152 117.587L468.102 113.138ZM467.645 125.85L468.458 123.994L469.323 124.373C470.12 124.722 470.849 124.557 471.51 123.877C472.172 123.197 472.979 121.772 473.93 119.603L476.192 114.442L486.235 118.844L480.662 131.556L478.374 130.553L483.066 119.85L477.575 117.442L475.936 121.18C473.9 125.824 471.509 127.544 468.764 126.34L467.645 125.85ZM488.325 127.338C487.745 128.66 487.686 129.948 488.147 131.2C488.616 132.436 489.503 133.34 490.808 133.913C492.147 134.5 493.587 134.555 495.13 134.08C495.151 134.17 495.225 134.485 495.351 135.025C495.503 135.557 495.606 135.966 495.662 136.253C493.734 136.964 491.778 136.884 489.795 136.015C487.931 135.198 486.648 133.837 485.947 131.933C485.262 130.037 485.318 128.182 486.113 126.368C486.901 124.572 488.224 123.282 490.082 122.501C491.964 121.709 493.838 121.723 495.702 122.54C497.669 123.402 499.048 124.795 499.842 126.719C499.592 126.872 499.218 127.082 498.717 127.347C498.241 127.603 497.963 127.754 497.882 127.8C497.187 126.343 496.17 125.321 494.831 124.734C493.56 124.177 492.299 124.15 491.048 124.652C489.797 125.155 488.89 126.05 488.325 127.338ZM506.553 137.511L504.189 136.475L499.18 139.674L496.535 138.515C499.124 136.942 500.905 135.854 501.877 135.249C500.934 134.634 500.33 133.823 500.064 132.817C499.814 131.819 499.898 130.845 500.314 129.896C500.797 128.794 501.606 128.008 502.743 127.536C503.879 127.064 505.117 127.122 506.456 127.709L512.431 130.328L506.858 143.04L504.57 142.037L506.553 137.511ZM509.318 131.206L505.809 129.668C505.182 129.393 504.559 129.362 503.94 129.576C503.345 129.78 502.899 130.221 502.602 130.899C502.305 131.577 502.279 132.212 502.524 132.805C502.787 133.405 503.231 133.842 503.858 134.117L507.367 135.655L509.318 131.206Z" fill="white"/>
</svg>
