<svg width="901" height="89" viewBox="0 0 901 89" fill="none" xmlns="http://www.w3.org/2000/svg">
<path d="M651.78 74.4599H668.1V17.3398H666.06L611.66 72.4199V74.4599H626.62" stroke="black" stroke-width="4" stroke-miterlimit="10" stroke-linecap="square"/>
<path d="M629 56.3721H668.032" stroke="black" stroke-width="3.9" stroke-miterlimit="10" stroke-linecap="square"/>
<path d="M543.932 45.2202H585.616C592.96 45.2202 601.12 41.1402 601.12 30.2602C601.12 19.3802 588.2 16.6602 584.8 16.6602H544V73.7802H588.2C597.72 73.7802 601.052 63.5802 600.44 58.1402C599.828 52.7002 593.64 45.2202 585.48 45.2202" stroke="black" stroke-width="3.9" stroke-miterlimit="10" stroke-linecap="square"/>
<path d="M382.84 70.7203L436.56 14.2803H438.6V70.7203H382.84Z" stroke="black" stroke-width="3.9" stroke-miterlimit="10" stroke-linecap="square"/>
<path d="M438.6 70.7202H448.12V85.0002" stroke="black" stroke-width="3.61" stroke-miterlimit="10" stroke-linecap="square"/>
<path d="M383.52 70.7202H374V85.0002" stroke="black" stroke-width="3.61" stroke-miterlimit="10" stroke-linecap="square"/>
<path d="M360.4 29.2396V13.5996H303.28V70.7196H359.72V55.7596" stroke="black" stroke-width="3.9" stroke-miterlimit="10" stroke-linecap="square"/>
<path d="M342.04 42.1597L303.28 42.1597" stroke="black" stroke-width="3.9" stroke-miterlimit="10" stroke-linecap="square"/>
<path d="M342.04 27.8794V57.1194" stroke="black" stroke-width="3.9" stroke-miterlimit="10" stroke-linecap="square"/>
<path d="M28.6962 13.5996H13.5322V70.7196H14.8922L70.1762 14.2796H71.4682V70.7196H55.0802" stroke="black" stroke-width="3.84" stroke-miterlimit="10" stroke-linecap="square"/>
<path d="M769.896 17.6797H754.732V74.7997H756.092L811.376 18.3597H812.668V74.7997H796.28" stroke="black" stroke-width="3.84" stroke-miterlimit="10" stroke-linecap="square"/>
<path d="M269.96 70.7198H285.6V14.2798H283.56L229.16 69.3598V70.7198H243.44" stroke="black" stroke-width="3.84" stroke-miterlimit="10" stroke-linecap="square"/>
<path d="M697.68 17.6802H683.4V74.8002H698.36" stroke="black" stroke-width="3.84" stroke-miterlimit="10" stroke-linecap="square"/>
<path d="M725.56 17.6802H739.84V74.8002H724.88" stroke="black" stroke-width="3.84" stroke-miterlimit="10" stroke-linecap="square"/>
<path d="M683.4 46.9199L739.16 46.9199" stroke="black" stroke-width="3.84" stroke-miterlimit="10" stroke-linecap="square"/>
<path d="M494.458 73.7594C511.745 73.7594 525.759 59.7496 525.759 42.4676C525.759 25.1856 511.745 11.1758 494.458 11.1758C477.17 11.1758 463.156 25.1856 463.156 42.4676C463.156 59.7496 477.17 73.7594 494.458 73.7594Z" stroke="black" stroke-width="3.57" stroke-miterlimit="10" stroke-linecap="square"/>
<path d="M141.44 12.2397V31.2797H139.4C139.4 31.2797 132.6 12.9197 112.88 12.9197C93.16 12.9197 85 29.2397 85 41.4798C85 53.7198 93.84 70.0398 112.88 70.0398C131.92 70.0398 138.04 56.4398 140.08 52.3598H141.44V70.0398" stroke="black" stroke-width="3.9" stroke-miterlimit="10" stroke-linecap="square"/>
<path d="M212.16 12.2397V31.2797H210.12C210.12 31.2797 203.32 12.9197 183.6 12.9197C163.88 12.9197 155.72 29.2397 155.72 41.4798C155.72 53.7198 164.56 70.0398 183.6 70.0398C202.64 70.0398 208.76 56.4398 210.8 52.3598H212.16V70.0398" stroke="black" stroke-width="3.9" stroke-miterlimit="10" stroke-linecap="square"/>
<path d="M845.24 46.2397C837.08 46.2397 830.96 39.4397 830.28 33.3197C829.6 27.1997 833 17.6797 842.52 17.6797H886.72V74.7997H871.76" stroke="black" stroke-width="3.9" stroke-miterlimit="10" stroke-linecap="square"/>
<path d="M886.108 46.2397H845.172" stroke="black" stroke-width="3.9" stroke-miterlimit="10" stroke-linecap="square"/>
<path d="M846.6 74.7999H830.96V72.7599L856.12 46.9199" stroke="black" stroke-width="3.9" stroke-miterlimit="10" stroke-linecap="square"/>
</svg>
