<svg width="1316" height="318" viewBox="0 0 1316 318" fill="none" xmlns="http://www.w3.org/2000/svg">
<path d="M18.7305 9.37989C18.7305 4.20815 22.923 0.015625 28.0947 0.015625H103.009C108.181 0.015625 112.373 4.20815 112.373 9.37989V9.37989C112.373 14.5516 108.181 18.7441 103.009 18.7441H28.0947C22.923 18.7441 18.7305 14.5516 18.7305 9.37989V9.37989Z" fill="#75FEFA"/>
<path d="M9.36426 112.391C4.19252 112.391 0 107.15 0 100.685L0 30.4533C0 23.9887 4.19252 18.748 9.36426 18.748V18.748C14.536 18.748 18.7285 23.9887 18.7285 30.4533L18.7285 100.685C18.7285 107.15 14.536 112.391 9.36426 112.391V112.391Z" fill="#75FEFA"/>
<path d="M122.425 112.391C116.87 112.391 112.367 107.15 112.367 100.685V30.4533C112.367 23.9887 116.87 18.748 122.425 18.748V18.748C127.98 18.748 132.483 23.9887 132.483 30.4533V100.685C132.483 107.15 127.98 112.391 122.425 112.391V112.391Z" fill="#75FEFA"/>
<path d="M112.373 28.1152C112.668 20.0689 105.857 18.5198 102.414 18.751L112.373 9.38672C113.258 17.1556 119.381 18.8666 122.332 18.751L112.373 28.1152Z" fill="#75FEFA"/>
<path d="M18.7287 28.1152C18.4336 20.0689 25.2449 18.5198 28.6875 18.751L18.7287 9.38672C17.8435 17.1556 11.7206 18.8666 8.76987 18.751L18.7287 28.1152Z" fill="#75FEFA"/>
<path d="M177.489 17.3002C170.574 17.3002 167.117 22.9188 167.117 27.673L158.473 19.029C164.523 19.029 168.845 13.8426 168.845 8.65625L177.489 17.3002Z" fill="#75FEFA"/>
<path d="M261.164 8.65907C261.164 15.5742 266.782 19.0318 271.536 19.0318L262.892 27.6758C262.892 21.625 257.706 17.3564 252.52 17.3564L256.842 13.0344L261.164 8.65907Z" fill="#75FEFA"/>
<path d="M271.536 36.4057C264.621 36.4057 261.163 42.0243 261.163 46.7784L252.52 38.1345C258.57 38.1345 262.892 32.9481 262.892 27.7617L271.536 36.4057Z" fill="#75FEFA"/>
<path d="M271.587 93.3744C264.672 93.3744 261.214 98.993 261.214 103.747L252.57 95.1032C258.621 95.1032 262.943 89.9168 262.943 84.7305L271.587 93.3744Z" fill="#75FEFA"/>
<path d="M177.489 55.3393C170.574 55.3393 167.117 60.9578 167.117 65.712L158.473 57.0681C164.523 57.0681 168.845 51.8817 168.845 46.6953L177.489 55.3393Z" fill="#75FEFA"/>
<path d="M168.848 103.743C168.848 96.8275 163.23 93.3699 158.475 93.3699L167.119 84.7259C167.119 90.7767 172.306 95.0987 177.492 95.0987L168.848 103.743Z" fill="#75FEFA"/>
<path d="M168.848 46.6925C168.848 39.7773 163.23 36.3197 158.475 36.3197L167.119 27.6758C167.119 33.7266 172.306 38.0485 177.492 38.0485L168.848 46.6925Z" fill="#75FEFA"/>
<circle cx="177.492" cy="8.65959" r="6.64396" fill="#75FEFA" stroke="#75FEFA" stroke-width="4"/>
<circle cx="195.64" cy="8.65959" r="6.64396" fill="#75FEFA" stroke="#75FEFA" stroke-width="4"/>
<circle cx="214.656" cy="8.65959" r="6.64396" fill="#75FEFA" stroke="#75FEFA" stroke-width="4"/>
<path d="M259.212 8.68624C259.212 12.3703 256.226 15.3568 252.542 15.3568C248.858 15.3568 245.871 12.3703 245.871 8.68624C245.871 5.00216 248.858 2.01562 252.542 2.01562C256.226 2.01562 259.212 5.00216 259.212 8.68624Z" fill="#75FEFA" stroke="#75FEFA" stroke-width="4"/>
<path d="M278.232 27.7605C278.232 31.4445 275.245 34.4311 271.561 34.4311C267.877 34.4311 264.891 31.4445 264.891 27.7605C264.891 24.0764 267.877 21.0898 271.561 21.0898C275.245 21.0898 278.232 24.0764 278.232 27.7605Z" fill="#75FEFA" stroke="#75FEFA" stroke-width="4"/>
<path d="M278.233 46.8666C278.233 50.536 275.259 53.5106 271.589 53.5106C267.92 53.5106 264.945 50.536 264.945 46.8666C264.945 43.1973 267.92 40.2227 271.589 40.2227C275.259 40.2227 278.233 43.1973 278.233 46.8666Z" fill="#75FEFA" stroke="#75FEFA" stroke-width="4"/>
<circle cx="158.472" cy="27.6752" r="6.64396" fill="#75FEFA" stroke="#75FEFA" stroke-width="4"/>
<circle cx="158.472" cy="46.6947" r="6.64396" fill="#75FEFA" stroke="#75FEFA" stroke-width="4"/>
<circle cx="158.472" cy="63.9838" r="6.64396" fill="#75FEFA" stroke="#75FEFA" stroke-width="4"/>
<circle cx="158.472" cy="84.726" r="6.64396" fill="#75FEFA" stroke="#75FEFA" stroke-width="4"/>
<circle cx="177.488" cy="103.749" r="6.64396" fill="#75FEFA" stroke="#75FEFA" stroke-width="4"/>
<circle cx="195.644" cy="103.749" r="6.64396" fill="#75FEFA" stroke="#75FEFA" stroke-width="4"/>
<circle cx="214.66" cy="103.749" r="6.64396" fill="#75FEFA" stroke="#75FEFA" stroke-width="4"/>
<circle cx="252.574" cy="103.749" r="6.64396" fill="#75FEFA" stroke="#75FEFA" stroke-width="4"/>
<circle cx="271.589" cy="84.726" r="6.64396" fill="#75FEFA" stroke="#75FEFA" stroke-width="4"/>
<circle cx="195.64" cy="46.6947" r="6.64396" fill="#75FEFA" stroke="#75FEFA" stroke-width="4"/>
<circle cx="177.492" cy="46.6947" r="6.64396" fill="#75FEFA" stroke="#75FEFA" stroke-width="4"/>
<rect x="177.578" y="0.015625" width="74.9141" height="17.3412" fill="#75FEFA"/>
<rect x="158.152" y="38.168" width="113.065" height="17.3412" fill="#75FEFA"/>
<rect x="280.234" y="28.5391" width="18.1523" height="17.2879" transform="rotate(90 280.234 28.5391)" fill="#75FEFA"/>
<rect x="177.578" y="95.0508" width="74.9141" height="17.3412" fill="#75FEFA"/>
<rect x="166.617" y="28.1758" width="56.0501" height="16.2879" transform="rotate(90 166.617 28.1758)" fill="#75FEFA" stroke="#75FEFA"/>
<path d="M316.309 9.37989C316.309 4.20815 320.501 0.015625 325.673 0.015625H400.587C405.759 0.015625 409.951 4.20815 409.951 9.37989V9.37989C409.951 14.5516 405.759 18.7441 400.587 18.7441H325.673C320.501 18.7441 316.309 14.5516 316.309 9.37989V9.37989Z" fill="#75FEFA"/>
<path d="M306.942 93.6562C301.771 93.6562 297.578 89.4637 297.578 84.292V28.1064C297.578 22.9347 301.771 18.7422 306.942 18.7422V18.7422C312.114 18.7422 316.307 22.9347 316.307 28.1064V84.292C316.307 89.4637 312.114 93.6562 306.942 93.6562V93.6562Z" fill="#75FEFA"/>
<path d="M316.309 103.021C316.309 97.8488 320.501 93.6562 325.673 93.6562H400.587C405.759 93.6562 409.951 97.8488 409.951 103.021V103.021C409.951 108.192 405.759 112.385 400.587 112.385H325.673C320.501 112.385 316.309 108.192 316.309 103.021V103.021Z" fill="#75FEFA"/>
<path d="M409.951 28.1152C410.246 20.0689 403.435 18.5198 399.992 18.751L409.951 9.38672C410.836 17.1556 416.959 18.8666 419.91 18.751L409.951 28.1152Z" fill="#75FEFA"/>
<path d="M316.306 103.025C316.602 94.9791 309.79 93.4299 306.348 93.6611L316.306 84.2969C317.192 92.0657 323.315 93.7767 326.265 93.6611L316.306 103.025Z" fill="#75FEFA"/>
<path d="M409.951 103.025C409.656 94.9791 416.468 93.4299 419.91 93.6611L409.951 84.2969C409.066 92.0657 402.943 93.7767 399.993 93.6611L409.951 103.025Z" fill="#75FEFA"/>
<path d="M316.307 28.1152C316.012 20.0689 322.823 18.5198 326.266 18.751L316.307 9.38672C315.422 17.1556 309.299 18.8666 306.348 18.751L316.307 28.1152Z" fill="#75FEFA"/>
<circle cx="419.312" cy="28.1123" r="9.36426" transform="rotate(-180 419.312 28.1123)" fill="#75FEFA"/>
<circle cx="419.312" cy="84.2959" r="9.36426" transform="rotate(-180 419.312 84.2959)" fill="#75FEFA"/>
<path d="M464.746 9.37989C464.746 4.20815 468.939 0.015625 474.11 0.015625H549.024C554.196 0.015625 558.389 4.20815 558.389 9.37989V9.37989C558.389 14.5516 554.196 18.7441 549.024 18.7441H474.11C468.939 18.7441 464.746 14.5516 464.746 9.37989V9.37989Z" fill="#75FEFA"/>
<path d="M455.38 93.6445C450.208 93.6445 446.016 89.452 446.016 84.2803V28.0947C446.016 22.923 450.208 18.7304 455.38 18.7304V18.7304C460.552 18.7304 464.744 22.923 464.744 28.0947V84.2803C464.744 89.452 460.552 93.6445 455.38 93.6445V93.6445Z" fill="#75FEFA"/>
<path d="M568.346 93.6445C562.845 93.6445 558.387 89.452 558.387 84.2803V28.0947C558.387 22.923 562.845 18.7304 568.346 18.7304C573.846 18.7304 578.304 22.923 578.304 28.0947V84.2803C578.304 89.452 573.846 93.6445 568.346 93.6445Z" fill="#75FEFA"/>
<path d="M464.746 103.009C464.746 97.8371 468.939 93.6445 474.11 93.6445H549.024C554.196 93.6445 558.389 97.8371 558.389 103.009V103.009C558.389 108.181 554.196 112.373 549.024 112.373H474.11C468.939 112.373 464.746 108.181 464.746 103.009V103.009Z" fill="#75FEFA"/>
<path d="M558.389 28.1152C558.684 20.0689 551.872 18.5198 548.43 18.751L558.389 9.38672C559.274 17.1556 565.397 18.8666 568.347 18.751L558.389 28.1152Z" fill="#75FEFA"/>
<path d="M464.744 103.014C465.039 94.9674 458.228 93.4182 454.785 93.6494L464.744 84.2852C465.629 92.054 471.752 93.765 474.703 93.6494L464.744 103.014Z" fill="#75FEFA"/>
<path d="M558.389 103.014C558.094 94.9674 564.905 93.4182 568.348 93.6494L558.389 84.2852C557.504 92.054 551.381 93.765 548.43 93.6494L558.389 103.014Z" fill="#75FEFA"/>
<path d="M464.744 28.1074C464.449 20.0611 471.261 18.512 474.703 18.7432L464.744 9.37891C463.859 17.1478 457.736 18.8588 454.785 18.7432L464.744 28.1074Z" fill="#75FEFA"/>
<path fill-rule="evenodd" clip-rule="evenodd" d="M707.671 65.5723C707.671 60.4004 711.863 56.208 717.035 56.208C711.863 56.208 707.671 52.0156 707.671 46.8437C707.671 52.0156 703.479 56.208 698.307 56.208C703.479 56.208 707.671 60.4004 707.671 65.5723Z" fill="#75FEFA"/>
<path fill-rule="evenodd" clip-rule="evenodd" d="M707.671 84.3008C707.671 79.1289 711.863 74.9365 717.035 74.9365C711.863 74.9365 707.671 70.7441 707.671 65.5723C707.671 70.7441 703.479 74.9365 698.307 74.9365C703.479 74.9365 707.671 79.1289 707.671 84.3008Z" fill="#75FEFA"/>
<path fill-rule="evenodd" clip-rule="evenodd" d="M614.378 65.5742C614.378 60.4023 618.57 56.21 623.742 56.21C618.57 56.21 614.378 52.0176 614.378 46.8457C614.378 52.0176 610.186 56.21 605.014 56.21C610.186 56.21 614.378 60.4023 614.378 65.5742Z" fill="#75FEFA"/>
<rect x="614.379" y="46.5" width="18.7285" height="37.457" transform="rotate(-180 614.379 46.5)" fill="#75FEFA"/>
<rect x="726.398" y="102.68" width="18.7285" height="92.949" transform="rotate(-180 726.398 102.68)" fill="#75FEFA"/>
<rect x="614.379" y="74.9375" width="18.7285" height="95.0299" rx="9.36426" transform="rotate(-90 614.379 74.9375)" fill="#75FEFA"/>
<circle cx="717.034" cy="103.026" r="9.36426" transform="rotate(-180 717.034 103.026)" fill="#75FEFA"/>
<circle cx="605.015" cy="9.38574" r="9.36426" transform="rotate(-180 605.015 9.38574)" fill="#75FEFA"/>
<circle cx="605.015" cy="46.8428" r="9.36426" transform="rotate(-180 605.015 46.8428)" fill="#75FEFA"/>
<circle cx="717.034" cy="9.38574" r="9.36426" transform="rotate(-180 717.034 9.38574)" fill="#75FEFA"/>
<rect x="762.473" y="112.387" width="18.7285" height="112.371" rx="9.36427" transform="rotate(-180 762.473 112.387)" fill="#75FEFA"/>
<rect x="873.457" y="112.387" width="18.7285" height="112.371" rx="9.36427" transform="rotate(-180 873.457 112.387)" fill="#75FEFA"/>
<rect x="762.473" y="56.2031" width="18.7285" height="91.5617" rx="9.36426" transform="rotate(-90 762.473 56.2031)" fill="#75FEFA"/>
<path d="M854.731 65.5645C855.009 57.5181 848.604 55.969 845.367 56.2002L854.731 46.8359C855.564 54.6048 861.321 56.3158 864.096 56.2002L854.731 65.5645Z" fill="#75FEFA"/>
<path d="M762.474 46.834C762.751 38.7877 756.346 37.2385 753.109 37.4697L762.474 28.1055C763.306 35.8743 769.063 37.5853 771.838 37.4697L762.474 46.834Z" fill="#75FEFA"/>
<path d="M854.729 46.834C854.452 38.7877 860.857 37.2385 864.094 37.4697L854.729 28.1055C853.897 35.8743 848.14 37.5853 845.365 37.4697L854.729 46.834Z" fill="#75FEFA"/>
<path d="M762.474 65.5625C762.197 57.5162 768.601 55.967 771.838 56.1983L762.474 46.834C761.642 54.6029 755.885 56.3139 753.11 56.1983L762.474 65.5625Z" fill="#75FEFA"/>
<path d="M844.673 56.2031C839.501 56.2031 835.309 52.0106 835.309 46.8389V46.8389C835.309 41.6671 839.501 37.4746 844.673 37.4746H845.367C850.538 37.4746 854.731 41.6671 854.731 46.8389V46.8389C854.731 52.0106 850.538 56.2031 845.367 56.2031H844.673Z" fill="#75FEFA"/>
<rect x="1021.89" y="102.656" width="18.7285" height="74.9141" transform="rotate(-180 1021.89 102.656)" fill="#75FEFA"/>
<rect x="974.723" y="18.7305" width="18.7285" height="18.7285" transform="rotate(-90 974.723 18.7305)" fill="#75FEFA"/>
<rect x="921.309" y="112.371" width="18.7285" height="18.7285" transform="rotate(-90 921.309 112.371)" fill="#75FEFA"/>
<rect x="909.523" y="84.2734" width="18.7285" height="74.9141" transform="rotate(-180 909.523 84.2734)" fill="#75FEFA"/>
<rect x="965.703" y="83.9336" width="18.7285" height="56.1856" transform="rotate(-180 965.703 83.9336)" fill="#75FEFA"/>
<circle cx="918.882" cy="103.007" r="9.36426" transform="rotate(-180 918.882 103.007)" fill="#75FEFA"/>
<circle cx="937.612" cy="103.007" r="9.36426" transform="rotate(-180 937.612 103.007)" fill="#75FEFA"/>
<circle cx="993.796" cy="9.36621" r="9.36426" transform="rotate(-180 993.796 9.36621)" fill="#75FEFA"/>
<circle cx="975.069" cy="9.36621" r="9.36426" transform="rotate(-180 975.069 9.36621)" fill="#75FEFA"/>
<circle cx="1012.53" cy="103.007" r="9.36426" transform="rotate(-180 1012.53 103.007)" fill="#75FEFA"/>
<circle cx="900.155" cy="84.2803" r="9.36426" transform="rotate(-180 900.155 84.2803)" fill="#75FEFA"/>
<circle cx="900.155" cy="9.36621" r="9.36426" transform="rotate(-180 900.155 9.36621)" fill="#75FEFA"/>
<circle cx="1012.53" cy="28.0967" r="9.36426" transform="rotate(-180 1012.53 28.0967)" fill="#75FEFA"/>
<circle cx="956.343" cy="84.2803" r="9.36426" transform="rotate(-180 956.343 84.2803)" fill="#75FEFA"/>
<circle cx="956.343" cy="28.0967" r="9.36426" transform="rotate(-180 956.343 28.0967)" fill="#75FEFA"/>
<path d="M900.158 93.6427C908.205 93.3477 909.754 100.159 909.522 103.602L918.887 93.6427C911.118 92.7575 909.407 86.6347 909.522 83.6839L900.158 93.6427Z" fill="#75FEFA"/>
<path d="M946.978 84.2793C947.255 92.3256 940.85 93.8748 937.613 93.6435L946.978 103.008C947.81 95.2389 953.567 93.5279 956.342 93.6435L946.978 84.2793Z" fill="#75FEFA"/>
<path d="M993.803 18.7287C1001.85 18.4336 1003.4 25.2449 1003.17 28.6875L1012.53 18.7287C1004.76 17.8435 1003.05 11.7206 1003.17 8.76987L993.803 18.7287Z" fill="#75FEFA"/>
<path d="M965.705 9.36523C966 17.4116 959.189 18.9607 955.746 18.7295L965.705 28.0938C966.59 20.3249 972.713 18.6139 975.664 18.7295L965.705 9.36523Z" fill="#75FEFA"/>
<rect x="1067.68" y="93.6719" width="83.9315" height="18.7285" fill="#75FEFA"/>
<path fill-rule="evenodd" clip-rule="evenodd" d="M1131.83 103.035C1131.83 97.8633 1136.03 93.6709 1141.2 93.6709C1136.03 93.6709 1131.83 89.4785 1131.83 84.3066C1131.83 89.4785 1127.64 93.6709 1122.47 93.6709C1127.64 93.6709 1131.83 97.8633 1131.83 103.035Z" fill="#75FEFA"/>
<path fill-rule="evenodd" clip-rule="evenodd" d="M1150.56 103.035C1150.56 97.8633 1154.75 93.6709 1159.93 93.6709C1154.75 93.6709 1150.56 89.4785 1150.56 84.3066C1150.56 89.4785 1146.37 93.6709 1141.2 93.6709C1146.37 93.6709 1150.56 97.8633 1150.56 103.035Z" fill="#75FEFA"/>
<path fill-rule="evenodd" clip-rule="evenodd" d="M1149.52 121.766C1149.52 116.594 1153.71 112.401 1158.89 112.401C1153.71 112.401 1149.52 108.209 1149.52 103.037C1149.52 108.209 1145.33 112.401 1140.16 112.401C1145.33 112.401 1149.52 116.594 1149.52 121.766Z" fill="#75FEFA"/>
<path fill-rule="evenodd" clip-rule="evenodd" d="M1057.96 103.035C1057.96 97.8633 1062.15 93.6709 1067.32 93.6709C1062.15 93.6709 1057.96 89.4785 1057.96 84.3066C1057.96 89.4785 1053.77 93.6709 1048.6 93.6709C1053.77 93.6709 1057.96 97.8633 1057.96 103.035Z" fill="#75FEFA"/>
<rect x="1150.57" y="84.3086" width="18.7285" height="74.9141" transform="rotate(-180 1150.57 84.3086)" fill="#75FEFA"/>
<rect x="1168.25" y="122.105" width="18.7285" height="18.7285" transform="rotate(-180 1168.25 122.105)" fill="#75FEFA"/>
<rect x="1057.96" y="84.3086" width="18.7285" height="74.9141" transform="rotate(-180 1057.96 84.3086)" fill="#75FEFA"/>
<circle cx="1104.78" cy="103.038" r="9.36426" transform="rotate(-180 1104.78 103.038)" fill="#75FEFA"/>
<circle cx="1067.32" cy="103.038" r="9.36426" transform="rotate(-180 1067.32 103.038)" fill="#75FEFA"/>
<circle cx="1141.2" cy="84.3037" r="9.36426" transform="rotate(-180 1141.2 84.3037)" fill="#75FEFA"/>
<circle cx="1048.6" cy="84.3037" r="9.36426" transform="rotate(-180 1048.6 84.3037)" fill="#75FEFA"/>
<circle cx="1048.6" cy="9.38964" r="9.36426" transform="rotate(-180 1048.6 9.38964)" fill="#75FEFA"/>
<circle cx="1141.2" cy="9.38964" r="9.36426" transform="rotate(-180 1141.2 9.38964)" fill="#75FEFA"/>
<circle cx="1158.89" cy="122.456" r="9.36426" transform="rotate(-180 1158.89 122.456)" fill="#75FEFA"/>
<circle cx="1158.89" cy="103.038" r="9.36426" transform="rotate(-180 1158.89 103.038)" fill="#75FEFA"/>
<path d="M1288.25 95.0448C1295.17 95.0448 1298.71 89.4797 1298.71 84.7255L1307.36 93.3694C1301.3 93.3694 1296.98 98.5558 1296.98 103.742L1288.25 95.0448Z" fill="#75FEFA"/>
<path d="M1204.66 103.739C1204.66 96.8242 1199.05 93.3666 1194.29 93.3666L1202.94 84.7227C1202.94 90.7734 1208.12 95.042 1213.31 95.042L1208.99 99.364L1204.66 103.739Z" fill="#75FEFA"/>
<path d="M1194.29 75.9928C1201.21 75.9928 1204.66 70.3742 1204.66 65.62L1213.31 74.264C1207.26 74.264 1202.94 79.4503 1202.94 84.6367L1194.29 75.9928Z" fill="#75FEFA"/>
<path d="M1194.24 19.024C1201.15 19.024 1204.61 13.4054 1204.61 8.65126L1213.25 17.2952C1207.2 17.2952 1202.88 22.4816 1202.88 27.668L1194.24 19.024Z" fill="#75FEFA"/>
<path d="M1288.34 57.0592C1295.25 57.0592 1298.71 51.4406 1298.71 46.6864L1307.36 55.3304C1301.3 55.3304 1296.98 60.5167 1296.98 65.7031L1288.34 57.0592Z" fill="#75FEFA"/>
<path d="M1296.98 8.65581C1296.98 15.571 1302.6 19.0286 1307.35 19.0286L1298.71 27.6725C1298.71 21.6217 1293.52 17.2998 1288.34 17.2998L1296.98 8.65581Z" fill="#75FEFA"/>
<path d="M1296.98 65.7059C1296.98 72.6211 1302.6 76.0787 1307.35 76.0787L1298.71 84.7227C1298.71 78.6719 1293.52 74.3499 1288.34 74.3499L1296.98 65.7059Z" fill="#75FEFA"/>
<circle cx="1288.34" cy="103.739" r="6.64396" transform="rotate(-180 1288.34 103.739)" fill="#75FEFA" stroke="#75FEFA" stroke-width="4"/>
<circle cx="1270.19" cy="103.739" r="6.64396" transform="rotate(-180 1270.19 103.739)" fill="#75FEFA" stroke="#75FEFA" stroke-width="4"/>
<circle cx="1251.17" cy="103.739" r="6.64396" transform="rotate(-180 1251.17 103.739)" fill="#75FEFA" stroke="#75FEFA" stroke-width="4"/>
<path d="M1206.62 103.712C1206.62 100.028 1209.6 97.0416 1213.29 97.0416C1216.97 97.0416 1219.96 100.028 1219.96 103.712C1219.96 107.396 1216.97 110.383 1213.29 110.383C1209.6 110.383 1206.62 107.396 1206.62 103.712Z" fill="#75FEFA" stroke="#75FEFA" stroke-width="4"/>
<path d="M1187.6 84.638C1187.6 80.9539 1190.58 77.9674 1194.27 77.9674C1197.95 77.9674 1200.94 80.9539 1200.94 84.638C1200.94 88.3221 1197.95 91.3086 1194.27 91.3086C1190.58 91.3086 1187.6 88.3221 1187.6 84.638Z" fill="#75FEFA" stroke="#75FEFA" stroke-width="4"/>
<path d="M1187.59 65.5318C1187.59 61.8625 1190.57 58.8879 1194.24 58.8879C1197.91 58.8879 1200.88 61.8625 1200.88 65.5318C1200.88 69.2012 1197.91 72.1758 1194.24 72.1758C1190.57 72.1758 1187.59 69.2012 1187.59 65.5318Z" fill="#75FEFA" stroke="#75FEFA" stroke-width="4"/>
<circle cx="1307.36" cy="84.7232" r="6.64396" transform="rotate(-180 1307.36 84.7232)" fill="#75FEFA" stroke="#75FEFA" stroke-width="4"/>
<circle cx="1307.36" cy="65.7037" r="6.64396" transform="rotate(-180 1307.36 65.7037)" fill="#75FEFA" stroke="#75FEFA" stroke-width="4"/>
<circle cx="1307.36" cy="48.4146" r="6.64396" transform="rotate(-180 1307.36 48.4146)" fill="#75FEFA" stroke="#75FEFA" stroke-width="4"/>
<circle cx="1307.36" cy="27.6724" r="6.64396" transform="rotate(-180 1307.36 27.6724)" fill="#75FEFA" stroke="#75FEFA" stroke-width="4"/>
<circle cx="1288.34" cy="8.64901" r="6.64396" transform="rotate(-180 1288.34 8.64901)" fill="#75FEFA" stroke="#75FEFA" stroke-width="4"/>
<circle cx="1270.19" cy="8.64901" r="6.64396" transform="rotate(-180 1270.19 8.64901)" fill="#75FEFA" stroke="#75FEFA" stroke-width="4"/>
<circle cx="1251.17" cy="8.64901" r="6.64396" transform="rotate(-180 1251.17 8.64901)" fill="#75FEFA" stroke="#75FEFA" stroke-width="4"/>
<circle cx="1213.25" cy="8.64901" r="6.64396" transform="rotate(-180 1213.25 8.64901)" fill="#75FEFA" stroke="#75FEFA" stroke-width="4"/>
<circle cx="1194.24" cy="27.6724" r="6.64396" transform="rotate(-180 1194.24 27.6724)" fill="#75FEFA" stroke="#75FEFA" stroke-width="4"/>
<circle cx="1288.34" cy="65.7037" r="6.64396" transform="rotate(-180 1288.34 65.7037)" fill="#75FEFA" stroke="#75FEFA" stroke-width="4"/>
<path d="M1288.31 112.383L1213.34 112.383L1213.34 95.0416L1288.31 95.0416L1288.31 112.383Z" fill="#75FEFA"/>
<rect x="1307.68" y="74.2305" width="113.065" height="17.3412" transform="rotate(-180 1307.68 74.2305)" fill="#75FEFA"/>
<rect x="1185.59" y="83.8555" width="18.1523" height="17.2879" transform="rotate(-90 1185.59 83.8555)" fill="#75FEFA"/>
<rect x="1288.25" y="17.3477" width="74.9141" height="17.3412" transform="rotate(-180 1288.25 17.3477)" fill="#75FEFA"/>
<rect x="1299.21" y="84.2227" width="56.0501" height="16.2879" transform="rotate(-90 1299.21 84.2227)" fill="#75FEFA" stroke="#75FEFA"/>
<rect x="430.193" y="289.172" width="61.4561" height="74.9141" transform="rotate(-180 430.193 289.172)" fill="#75FEFA"/>
<rect x="275.416" y="205.246" width="18.7285" height="61.4561" transform="rotate(-90 275.416 205.246)" fill="#75FEFA"/>
<rect x="100.15" y="298.887" width="18.7285" height="61.4561" transform="rotate(-90 100.15 298.887)" fill="#75FEFA"/>
<rect x="61.459" y="270.789" width="61.4561" height="74.9141" transform="rotate(-180 61.459 270.789)" fill="#75FEFA"/>
<rect x="245.826" y="270.449" width="61.4561" height="56.1856" transform="rotate(-180 245.826 270.449)" fill="#75FEFA"/>
<ellipse cx="92.1841" cy="289.522" rx="30.728" ry="9.36426" transform="rotate(-180 92.1841 289.522)" fill="#75FEFA"/>
<ellipse cx="153.641" cy="289.522" rx="30.728" ry="9.36426" transform="rotate(-180 153.641 289.522)" fill="#75FEFA"/>
<ellipse cx="338.008" cy="195.882" rx="30.728" ry="9.36426" transform="rotate(-180 338.008 195.882)" fill="#75FEFA"/>
<ellipse cx="276.555" cy="195.882" rx="30.728" ry="9.36426" transform="rotate(-180 276.555 195.882)" fill="#75FEFA"/>
<ellipse cx="399.465" cy="289.522" rx="30.728" ry="9.36426" transform="rotate(-180 399.465 289.522)" fill="#75FEFA"/>
<ellipse cx="30.731" cy="270.796" rx="30.728" ry="9.36426" transform="rotate(-180 30.731 270.796)" fill="#75FEFA"/>
<ellipse cx="30.731" cy="195.882" rx="30.728" ry="9.36426" transform="rotate(-180 30.731 195.882)" fill="#75FEFA"/>
<ellipse cx="399.465" cy="214.612" rx="30.728" ry="9.36426" transform="rotate(-180 399.465 214.612)" fill="#75FEFA"/>
<ellipse cx="215.098" cy="270.796" rx="30.728" ry="9.36426" transform="rotate(-180 215.098 270.796)" fill="#75FEFA"/>
<ellipse cx="215.098" cy="214.612" rx="30.728" ry="9.36426" transform="rotate(-180 215.098 214.612)" fill="#75FEFA"/>
<path d="M30.7295 280.166C57.1328 279.871 62.2162 286.682 61.4575 290.125L92.1856 280.166C66.6927 279.281 61.0782 273.158 61.4575 270.207L30.7295 280.166Z" fill="#75FEFA"/>
<path d="M184.371 270.791C185.281 278.837 164.265 280.386 153.643 280.155L184.371 289.52C187.102 281.751 205.994 280.04 215.099 280.155L184.371 270.791Z" fill="#75FEFA"/>
<path d="M338.011 205.252C364.414 204.957 369.497 211.768 368.739 215.211L399.467 205.252C373.974 204.367 368.359 198.244 368.739 195.293L338.011 205.252Z" fill="#75FEFA"/>
<path d="M245.822 195.881C246.79 203.927 224.439 205.476 213.143 205.245L245.822 214.609C248.726 206.841 268.818 205.13 278.501 205.245L245.822 195.881Z" fill="#75FEFA"/>
<rect x="446.197" y="290.121" width="18.7285" height="18.7285" fill="#75FEFA"/>
<rect x="558.572" y="290.121" width="18.7285" height="18.7285" fill="#75FEFA"/>
<path d="M577.299 289.776C577.299 294.948 573.106 299.141 567.935 299.141L455.563 299.141C450.392 299.141 446.199 294.948 446.199 289.776V289.776C446.199 284.605 450.392 280.412 455.563 280.412L567.935 280.412C573.106 280.412 577.299 284.605 577.299 289.776V289.776Z" fill="#75FEFA"/>
<path d="M539.843 214.166C540.12 206.12 533.716 204.571 530.479 204.802L539.843 195.437C540.675 203.206 546.432 204.917 549.207 204.802L539.843 214.166Z" fill="#75FEFA"/>
<path d="M558.573 308.506C558.851 300.46 552.446 298.91 549.209 299.142L558.573 289.777C559.406 297.546 565.163 299.257 567.938 299.142L558.573 308.506Z" fill="#75FEFA"/>
<path d="M483.657 214.166C483.38 206.12 489.784 204.571 493.021 204.802L483.657 195.438C482.825 203.206 477.068 204.917 474.293 204.802L483.657 214.166Z" fill="#75FEFA"/>
<path d="M464.929 308.502C464.651 300.456 471.056 298.907 474.293 299.138L464.929 289.774C464.096 297.543 458.339 299.254 455.564 299.138L464.929 308.502Z" fill="#75FEFA"/>
<rect x="464.928" y="298.445" width="93.6426" height="18.7285" rx="9.36426" transform="rotate(-90 464.928 298.445)" fill="#75FEFA"/>
<rect x="483.654" y="204.805" width="18.7285" height="56.1856" rx="9.36426" transform="rotate(-90 483.654 204.805)" fill="#75FEFA"/>
<rect x="539.842" y="292.199" width="87.3998" height="18.7285" rx="9.36426" transform="rotate(-90 539.842 292.199)" fill="#75FEFA"/>
<rect width="18.7285" height="18.7285" rx="9.36426" transform="matrix(0 1 1 0 446.201 299.141)" fill="#75FEFA"/>
<rect width="18.7285" height="18.7285" rx="9.36426" transform="matrix(0 1 1 0 558.568 299.141)" fill="#75FEFA"/>
<path d="M686.453 203.828C663.906 203.828 652.633 209.446 652.633 214.2L624.449 205.556C644.178 205.556 658.27 200.37 658.27 195.184L686.453 203.828Z" fill="#75FEFA"/>
<path d="M959.277 195.186C959.277 202.102 977.597 205.559 993.098 205.559L964.914 214.203C964.914 208.152 948.004 203.884 931.094 203.884L945.186 199.562L959.277 195.186Z" fill="#75FEFA"/>
<path d="M993.098 222.933C970.551 222.933 959.277 228.552 959.277 233.306L931.094 224.662C950.822 224.662 964.914 219.475 964.914 214.289L993.098 222.933Z" fill="#75FEFA"/>
<path d="M993.27 279.902C970.723 279.902 959.449 285.52 959.449 290.275L931.266 281.631C950.994 281.631 965.086 276.444 965.086 271.258L993.27 279.902Z" fill="#75FEFA"/>
<path d="M686.453 241.867C663.906 241.867 652.633 247.485 652.633 252.239L624.449 243.595C644.178 243.595 658.27 238.409 658.27 233.223L686.453 241.867Z" fill="#75FEFA"/>
<path d="M658.269 290.27C658.269 283.355 639.95 279.897 624.449 279.897L652.633 271.253C652.633 277.304 669.543 281.626 686.453 281.626L658.269 290.27Z" fill="#75FEFA"/>
<path d="M658.269 233.22C658.269 226.305 639.95 222.847 624.449 222.847L652.633 214.203C652.633 220.254 669.543 224.576 686.453 224.576L658.269 233.22Z" fill="#75FEFA"/>
<path d="M712.641 195.187C712.641 195.431 712.474 196.047 711.252 196.932C710.075 197.786 708.243 198.638 705.8 199.387C700.937 200.878 694.098 201.831 686.457 201.831C678.816 201.831 671.977 200.878 667.115 199.387C664.671 198.638 662.839 197.786 661.662 196.932C660.441 196.047 660.273 195.431 660.273 195.187C660.273 194.943 660.441 194.327 661.662 193.441C662.839 192.588 664.671 191.736 667.115 190.987C671.977 189.495 678.816 188.543 686.457 188.543C694.098 188.543 700.937 189.495 705.8 190.987C708.243 191.736 710.075 192.588 711.252 193.441C712.474 194.327 712.641 194.943 712.641 195.187Z" fill="#75FEFA" stroke="#75FEFA" stroke-width="4"/>
<path d="M771.824 195.187C771.824 195.431 771.657 196.047 770.435 196.932C769.259 197.786 767.427 198.638 764.983 199.387C760.121 200.878 753.282 201.831 745.641 201.831C738 201.831 731.161 200.878 726.298 199.387C723.855 198.638 722.023 197.786 720.846 196.932C719.624 196.047 719.457 195.431 719.457 195.187C719.457 194.943 719.624 194.327 720.846 193.441C722.023 192.588 723.855 191.736 726.298 190.987C731.161 189.495 738 188.543 745.641 188.543C753.282 188.543 760.121 189.495 764.983 190.987C767.427 191.736 769.259 192.588 770.435 193.441C771.657 194.327 771.824 194.943 771.824 195.187Z" fill="#75FEFA" stroke="#75FEFA" stroke-width="4"/>
<path d="M833.828 195.187C833.828 195.431 833.661 196.047 832.439 196.932C831.262 197.786 829.431 198.638 826.987 199.387C822.124 200.878 815.285 201.831 807.645 201.831C800.004 201.831 793.165 200.878 788.302 199.387C785.859 198.638 784.027 197.786 782.85 196.932C781.628 196.047 781.461 195.431 781.461 195.187C781.461 194.943 781.628 194.327 782.85 193.441C784.027 192.588 785.859 191.736 788.302 190.987C793.165 189.495 800.004 188.543 807.645 188.543C815.285 188.543 822.124 189.495 826.987 190.987C829.431 191.736 831.262 192.588 832.439 193.441C833.661 194.327 833.828 194.943 833.828 195.187Z" fill="#75FEFA" stroke="#75FEFA" stroke-width="4"/>
<path d="M957.436 195.214C957.436 195.461 957.266 196.08 956.04 196.969C954.859 197.826 953.02 198.681 950.569 199.433C945.691 200.929 938.83 201.884 931.165 201.884C923.5 201.884 916.64 200.929 911.761 199.433C909.31 198.681 907.472 197.826 906.29 196.969C905.064 196.08 904.895 195.461 904.895 195.214C904.895 194.966 905.064 194.347 906.29 193.458C907.472 192.601 909.31 191.746 911.761 190.995C916.64 189.498 923.5 188.543 931.165 188.543C938.83 188.543 945.691 189.498 950.569 190.995C953.02 191.746 954.859 192.601 956.04 193.458C957.266 194.347 957.436 194.966 957.436 195.214Z" fill="#75FEFA" stroke="#75FEFA" stroke-width="4"/>
<path d="M1019.46 214.288C1019.46 214.536 1019.29 215.155 1018.06 216.044C1016.88 216.9 1015.04 217.755 1012.59 218.507C1007.71 220.003 1000.85 220.958 993.185 220.958C985.52 220.958 978.659 220.003 973.781 218.507C971.329 217.755 969.491 216.9 968.31 216.044C967.084 215.155 966.914 214.536 966.914 214.288C966.914 214.04 967.084 213.421 968.31 212.532C969.491 211.675 971.329 210.821 973.781 210.069C978.659 208.573 985.52 207.617 993.185 207.617C1000.85 207.617 1007.71 208.573 1012.59 210.069C1015.04 210.821 1016.88 211.675 1018.06 212.532C1019.29 213.421 1019.46 214.04 1019.46 214.288Z" fill="#75FEFA" stroke="#75FEFA" stroke-width="4"/>
<path d="M1019.45 233.394C1019.45 233.638 1019.29 234.254 1018.06 235.139C1016.89 235.993 1015.06 236.845 1012.61 237.594C1007.75 239.085 1000.91 240.038 993.27 240.038C985.629 240.038 978.79 239.085 973.927 237.594C971.484 236.845 969.652 235.993 968.475 235.139C967.253 234.254 967.086 233.638 967.086 233.394C967.086 233.15 967.253 232.534 968.475 231.648C969.652 230.795 971.484 229.943 973.927 229.194C978.79 227.702 985.629 226.75 993.27 226.75C1000.91 226.75 1007.75 227.702 1012.61 229.194C1015.06 229.943 1016.89 230.795 1018.06 231.648C1019.29 232.534 1019.45 233.15 1019.45 233.394Z" fill="#75FEFA" stroke="#75FEFA" stroke-width="4"/>
<path d="M650.633 214.203C650.633 214.447 650.466 215.062 649.244 215.948C648.067 216.801 646.235 217.653 643.792 218.403C638.929 219.894 632.09 220.847 624.449 220.847C616.808 220.847 609.969 219.894 605.107 218.403C602.663 217.653 600.831 216.801 599.655 215.948C598.433 215.062 598.266 214.447 598.266 214.203C598.266 213.959 598.433 213.343 599.655 212.457C600.831 211.604 602.663 210.752 605.107 210.002C609.969 208.511 616.808 207.559 624.449 207.559C632.09 207.559 638.929 208.511 643.792 210.002C646.235 210.752 648.067 211.604 649.244 212.457C650.466 213.343 650.633 213.959 650.633 214.203Z" fill="#75FEFA" stroke="#75FEFA" stroke-width="4"/>
<path d="M650.633 233.222C650.633 233.466 650.466 234.082 649.244 234.968C648.067 235.821 646.235 236.673 643.792 237.422C638.929 238.914 632.09 239.866 624.449 239.866C616.808 239.866 609.969 238.914 605.107 237.422C602.663 236.673 600.831 235.821 599.655 234.968C598.433 234.082 598.266 233.466 598.266 233.222C598.266 232.978 598.433 232.363 599.655 231.477C600.831 230.623 602.663 229.771 605.107 229.022C609.969 227.531 616.808 226.578 624.449 226.578C632.09 226.578 638.929 227.531 643.792 229.022C646.235 229.771 648.067 230.623 649.244 231.477C650.466 232.363 650.633 232.978 650.633 233.222Z" fill="#75FEFA" stroke="#75FEFA" stroke-width="4"/>
<path d="M650.633 250.511C650.633 250.755 650.466 251.371 649.244 252.257C648.067 253.11 646.235 253.962 643.792 254.711C638.929 256.203 632.09 257.155 624.449 257.155C616.808 257.155 609.969 256.203 605.107 254.711C602.663 253.962 600.831 253.11 599.655 252.257C598.433 251.371 598.266 250.755 598.266 250.511C598.266 250.267 598.433 249.652 599.655 248.766C600.831 247.912 602.663 247.06 605.107 246.311C609.969 244.82 616.808 243.867 624.449 243.867C632.09 243.867 638.929 244.82 643.792 246.311C646.235 247.06 648.067 247.912 649.244 248.766C650.466 249.652 650.633 250.267 650.633 250.511Z" fill="#75FEFA" stroke="#75FEFA" stroke-width="4"/>
<path d="M650.633 271.253C650.633 271.497 650.466 272.113 649.244 272.999C648.067 273.852 646.235 274.704 643.792 275.453C638.929 276.945 632.09 277.897 624.449 277.897C616.808 277.897 609.969 276.945 605.107 275.453C602.663 274.704 600.831 273.852 599.655 272.999C598.433 272.113 598.266 271.497 598.266 271.253C598.266 271.009 598.433 270.394 599.655 269.508C600.831 268.654 602.663 267.803 605.107 267.053C609.969 265.562 616.808 264.609 624.449 264.609C632.09 264.609 638.929 265.562 643.792 267.053C646.235 267.803 648.067 268.654 649.244 269.508C650.466 270.394 650.633 271.009 650.633 271.253Z" fill="#75FEFA" stroke="#75FEFA" stroke-width="4"/>
<path d="M712.641 290.277C712.641 290.521 712.474 291.136 711.252 292.022C710.075 292.876 708.243 293.727 705.8 294.477C700.937 295.968 694.098 296.921 686.457 296.921C678.816 296.921 671.977 295.968 667.115 294.477C664.671 293.727 662.839 292.876 661.662 292.022C660.441 291.136 660.273 290.521 660.273 290.277C660.273 290.033 660.441 289.417 661.662 288.531C662.839 287.678 664.671 286.826 667.115 286.077C671.977 284.585 678.816 283.633 686.457 283.633C694.098 283.633 700.937 284.585 705.8 286.077C708.243 286.826 710.075 287.678 711.252 288.531C712.474 289.417 712.641 290.033 712.641 290.277Z" fill="#75FEFA" stroke="#75FEFA" stroke-width="4"/>
<path d="M771.82 290.277C771.82 290.521 771.653 291.136 770.432 292.022C769.255 292.876 767.423 293.727 764.979 294.477C760.117 295.968 753.278 296.921 745.637 296.921C737.996 296.921 731.157 295.968 726.294 294.477C723.851 293.727 722.019 292.876 720.842 292.022C719.62 291.136 719.453 290.521 719.453 290.277C719.453 290.033 719.62 289.417 720.842 288.531C722.019 287.678 723.851 286.826 726.294 286.077C731.157 284.585 737.996 283.633 745.637 283.633C753.278 283.633 760.117 284.585 764.979 286.077C767.423 286.826 769.255 287.678 770.432 288.531C771.653 289.417 771.82 290.033 771.82 290.277Z" fill="#75FEFA" stroke="#75FEFA" stroke-width="4"/>
<path d="M833.828 290.277C833.828 290.521 833.661 291.136 832.439 292.022C831.262 292.876 829.431 293.727 826.987 294.477C822.124 295.968 815.285 296.921 807.645 296.921C800.004 296.921 793.165 295.968 788.302 294.477C785.859 293.727 784.027 292.876 782.85 292.022C781.628 291.136 781.461 290.521 781.461 290.277C781.461 290.033 781.628 289.417 782.85 288.531C784.027 287.678 785.859 286.826 788.302 286.077C793.165 284.585 800.004 283.633 807.645 283.633C815.285 283.633 822.124 284.585 826.987 286.077C829.431 286.826 831.262 287.678 832.439 288.531C833.661 289.417 833.828 290.033 833.828 290.277Z" fill="#75FEFA" stroke="#75FEFA" stroke-width="4"/>
<path d="M957.453 290.277C957.453 290.521 957.286 291.136 956.064 292.022C954.887 292.876 953.056 293.727 950.612 294.477C945.749 295.968 938.91 296.921 931.27 296.921C923.629 296.921 916.79 295.968 911.927 294.477C909.484 293.727 907.652 292.876 906.475 292.022C905.253 291.136 905.086 290.521 905.086 290.277C905.086 290.033 905.253 289.417 906.475 288.531C907.652 287.678 909.484 286.826 911.927 286.077C916.79 284.585 923.629 283.633 931.27 283.633C938.91 283.633 945.749 284.585 950.612 286.077C953.056 286.826 954.887 287.678 956.064 288.531C957.286 289.417 957.453 290.033 957.453 290.277Z" fill="#75FEFA" stroke="#75FEFA" stroke-width="4"/>
<path d="M1019.45 271.253C1019.45 271.497 1019.29 272.113 1018.06 272.999C1016.89 273.852 1015.06 274.704 1012.61 275.453C1007.75 276.945 1000.91 277.897 993.27 277.897C985.629 277.897 978.79 276.945 973.927 275.453C971.484 274.704 969.652 273.852 968.475 272.999C967.253 272.113 967.086 271.497 967.086 271.253C967.086 271.009 967.253 270.394 968.475 269.508C969.652 268.654 971.484 267.803 973.927 267.053C978.79 265.562 985.629 264.609 993.27 264.609C1000.91 264.609 1007.75 265.562 1012.61 267.053C1015.06 267.803 1016.89 268.654 1018.06 269.508C1019.29 270.394 1019.45 271.009 1019.45 271.253Z" fill="#75FEFA" stroke="#75FEFA" stroke-width="4"/>
<path d="M771.824 233.222C771.824 233.466 771.657 234.082 770.435 234.968C769.259 235.821 767.427 236.673 764.983 237.422C760.121 238.914 753.282 239.866 745.641 239.866C738 239.866 731.161 238.914 726.298 237.422C723.855 236.673 722.023 235.821 720.846 234.968C719.624 234.082 719.457 233.466 719.457 233.222C719.457 232.978 719.624 232.363 720.846 231.477C722.023 230.623 723.855 229.771 726.298 229.022C731.161 227.531 738 226.578 745.641 226.578C753.282 226.578 760.121 227.531 764.983 229.022C767.427 229.771 769.259 230.623 770.435 231.477C771.657 232.363 771.824 232.978 771.824 233.222Z" fill="#75FEFA" stroke="#75FEFA" stroke-width="4"/>
<path d="M712.641 233.222C712.641 233.466 712.474 234.082 711.252 234.968C710.075 235.821 708.243 236.673 705.8 237.422C700.937 238.914 694.098 239.866 686.457 239.866C678.816 239.866 671.977 238.914 667.115 237.422C664.671 236.673 662.839 235.821 661.662 234.968C660.441 234.082 660.273 233.466 660.273 233.222C660.273 232.978 660.441 232.363 661.662 231.477C662.839 230.623 664.671 229.771 667.115 229.022C671.977 227.531 678.816 226.578 686.457 226.578C694.098 226.578 700.937 227.531 705.8 229.022C708.243 229.771 710.075 230.623 711.252 231.477C712.474 232.363 712.641 232.978 712.641 233.222Z" fill="#75FEFA" stroke="#75FEFA" stroke-width="4"/>
<rect x="686.73" y="186.543" width="244.258" height="17.3412" fill="#75FEFA"/>
<rect x="623.406" y="224.695" width="368.648" height="17.3412" fill="#75FEFA"/>
<rect x="1021.45" y="215.066" width="18.1523" height="56.3673" transform="rotate(90 1021.45 215.066)" fill="#75FEFA"/>
<rect x="686.73" y="281.578" width="244.258" height="17.3412" fill="#75FEFA"/>
<rect x="652.137" y="214.703" width="56.0501" height="55.3673" transform="rotate(90 652.137 214.703)" fill="#75FEFA" stroke="#75FEFA"/>
<rect x="1315.57" y="289.191" width="39.4462" height="74.9141" transform="rotate(-180 1315.57 289.191)" fill="#75FEFA"/>
<rect x="1216.23" y="205.266" width="18.7285" height="39.4462" transform="rotate(-90 1216.23 205.266)" fill="#75FEFA"/>
<rect x="1138.07" y="167.809" width="18.7285" height="80.3534" transform="rotate(-90 1138.07 167.809)" fill="#75FEFA"/>
<rect x="1103.73" y="298.906" width="18.7285" height="39.4462" transform="rotate(-90 1103.73 298.906)" fill="#75FEFA"/>
<rect x="1078.9" y="270.809" width="39.4462" height="74.9141" transform="rotate(-180 1078.9 270.809)" fill="#75FEFA"/>
<rect x="1197.23" y="270.469" width="39.4462" height="56.1856" transform="rotate(-180 1197.23 270.469)" fill="#75FEFA"/>
<ellipse cx="1098.62" cy="289.542" rx="19.7231" ry="9.36426" transform="rotate(-180 1098.62 289.542)" fill="#75FEFA"/>
<ellipse cx="1138.07" cy="289.542" rx="19.7231" ry="9.36426" transform="rotate(-180 1138.07 289.542)" fill="#75FEFA"/>
<ellipse cx="1256.4" cy="195.901" rx="19.7231" ry="9.36426" transform="rotate(-180 1256.4 195.901)" fill="#75FEFA"/>
<ellipse cx="1217.69" cy="158.444" rx="19.7231" ry="9.36426" transform="rotate(-180 1217.69 158.444)" fill="#75FEFA"/>
<ellipse cx="1216.96" cy="195.901" rx="19.7231" ry="9.36426" transform="rotate(-180 1216.96 195.901)" fill="#75FEFA"/>
<ellipse cx="1138.8" cy="158.444" rx="19.7231" ry="9.36426" transform="rotate(-180 1138.8 158.444)" fill="#75FEFA"/>
<ellipse cx="1295.85" cy="289.542" rx="19.7231" ry="9.36426" transform="rotate(-180 1295.85 289.542)" fill="#75FEFA"/>
<ellipse cx="1059.18" cy="270.815" rx="19.7231" ry="9.36426" transform="rotate(-180 1059.18 270.815)" fill="#75FEFA"/>
<ellipse cx="1059.18" cy="195.901" rx="19.7231" ry="9.36426" transform="rotate(-180 1059.18 195.901)" fill="#75FEFA"/>
<ellipse cx="1295.85" cy="214.632" rx="19.7231" ry="9.36426" transform="rotate(-180 1295.85 214.632)" fill="#75FEFA"/>
<ellipse cx="1177.51" cy="270.815" rx="19.7231" ry="9.36426" transform="rotate(-180 1177.51 270.815)" fill="#75FEFA"/>
<ellipse cx="1177.51" cy="214.632" rx="19.7231" ry="9.36426" transform="rotate(-180 1177.51 214.632)" fill="#75FEFA"/>
<path d="M1059.17 280.174C1076.12 279.879 1079.38 286.69 1078.9 290.133L1098.62 280.174C1082.26 279.289 1078.65 273.166 1078.9 270.215L1059.17 280.174Z" fill="#75FEFA"/>
<path d="M1157.79 270.811C1158.37 278.857 1144.88 280.406 1138.07 280.175L1157.79 289.539C1159.54 281.77 1171.67 280.059 1177.51 280.175L1157.79 270.811Z" fill="#75FEFA"/>
<path d="M1256.41 205.264C1273.35 204.969 1276.62 211.78 1276.13 215.223L1295.85 205.264C1279.49 204.379 1275.88 198.256 1276.13 195.305L1256.41 205.264Z" fill="#75FEFA"/>
<path d="M1197.24 195.893C1197.86 203.939 1183.51 205.488 1176.26 205.257L1197.24 214.621C1199.1 206.852 1212 205.141 1218.21 205.257L1197.24 195.893Z" fill="#75FEFA"/>
</svg>
