<svg width="357" height="96" viewBox="0 0 357 96" fill="none" xmlns="http://www.w3.org/2000/svg">
<path fill-rule="evenodd" clip-rule="evenodd" d="M165 0H229H293C310.673 0 325 14.3269 325 32C325 49.6731 339.327 64 357 64C339.327 64 325 78.3269 325 96C325 78.3269 310.673 64 293 64H229H165H63C45.3269 64 31 78.3269 31 96C31 78.3269 16.6731 64 -1 64C16.6731 64 31 49.6731 31 32C31 14.3269 45.3269 0 63 0H165Z" fill="#9896AE"/>
<path d="M242.251 45.5306C245.726 45.8431 248.857 44.9681 251.707 42.8306C248.726 42.5681 246.732 41.0806 245.62 38.2931C246.595 38.4119 247.507 38.4431 248.476 38.1806C245.263 37.1806 243.551 35.0806 243.32 31.6931C244.282 32.1431 245.188 32.4681 246.257 32.4806C244.351 31.0494 243.376 29.1931 243.413 26.8556C243.432 25.7806 243.72 24.7681 244.288 23.8119C247.82 27.9431 252.251 30.2306 257.707 30.6119C257.676 30.3744 257.657 30.1869 257.632 29.9931C257.182 26.5306 259.432 23.3806 262.87 22.7244C265.026 22.3119 266.932 22.8806 268.545 24.3681C268.795 24.5931 269.007 24.6431 269.32 24.5619C270.576 24.2431 271.77 23.7806 272.926 23.1556C272.482 24.6181 271.57 25.7181 270.332 26.6431C270.613 26.5931 270.901 26.5556 271.182 26.4994C271.476 26.4369 271.77 26.3681 272.063 26.2869C272.345 26.2119 272.62 26.1244 272.895 26.0306C273.176 25.9369 273.457 25.8306 273.788 25.7744C273.626 25.9994 273.47 26.2369 273.295 26.4556C272.57 27.3744 271.732 28.1806 270.813 28.8994C270.72 28.9744 270.638 29.1369 270.645 29.2494C270.695 31.4681 270.382 33.6306 269.663 35.7306C268.251 39.8681 265.788 43.2181 262.095 45.6119C260.27 46.7931 258.276 47.5681 256.145 48.0181C254.032 48.4619 251.907 48.5431 249.776 48.2931C247.638 48.0431 245.607 47.4119 243.695 46.4244C243.188 46.1681 242.701 45.8806 242.207 45.6056C242.226 45.5806 242.238 45.5556 242.251 45.5306Z" fill="#CCFD38"/>
<path d="M186.148 24C187.337 24 189.149 24 190.168 24C190.677 24 191.073 24.346 191.243 24.8073C191.753 26.3065 192.885 29.5933 194.187 31.8421C195.942 34.7829 197.075 35.8785 197.811 35.7631C198.546 35.5901 198.32 33.6296 198.32 32.0727C198.32 30.5159 198.49 27.8634 197.754 26.6525L196.622 24.9803C196.339 24.5766 196.622 24.0577 197.075 24.0577H203.529C204.151 24.0577 204.661 24.5766 204.661 25.2109V33.572C204.661 33.572 204.944 35.0712 206.529 33.5143C208.114 31.9574 209.813 29.0743 211.228 26.1335L211.794 24.7496C211.964 24.346 212.36 24.0577 212.813 24.0577H217.003C217.795 24.0577 218.361 24.8649 218.078 25.6145L217.625 26.8255C217.625 26.8255 216.097 29.9392 214.512 32.1304C212.926 34.3792 212.587 34.8982 212.813 35.4748C213.04 36.0514 217.116 39.9148 218.135 41.76C218.418 42.279 218.644 42.7403 218.871 43.1439C219.267 43.8935 218.701 44.8738 217.852 44.8738H213.096C212.7 44.8738 212.304 44.6431 212.134 44.2972L211.681 43.5476C211.681 43.5476 208.794 40.0878 207.039 38.9922C205.227 37.9543 205.284 39.4535 205.284 39.4535V42.5096C205.284 43.7782 204.265 44.8161 203.019 44.8161H201.887C201.887 44.8161 195.659 44.8161 190.677 37.2624C186.771 31.3808 185.469 27.5751 185.016 25.3839C184.903 24.6919 185.412 24 186.148 24Z" fill="#CCFD38"/>
<path d="M94 18.5C85.437 18.5 78.5 25.438 78.5 34C78.5 42.562 85.438 49.5 94 49.5C102.563 49.5 109.5 42.562 109.5 34C109.5 25.438 102.562 18.5 94 18.5ZM101.613 29.119L99.069 41.107C98.881 41.957 98.375 42.163 97.669 41.763L93.794 38.907L91.925 40.707C91.719 40.913 91.544 41.088 91.144 41.088L91.419 37.144L98.6 30.656C98.913 30.381 98.531 30.225 98.118 30.5L89.243 36.087L85.418 34.893C84.587 34.631 84.568 34.062 85.593 33.662L100.537 27.899C101.231 27.649 101.837 28.068 101.612 29.118L101.613 29.119Z" fill="#CCFD38"/>
<path d="M155.191 21H136.809C134.709 21 133 22.7087 133 24.8086V43.1914C133 45.2913 134.709 47 136.809 47H144.477V37.8086H141.43V33.2383H144.477V30.1406C144.477 27.6204 146.527 25.5703 149.047 25.5703H153.668V30.1406H149.047V33.2383H153.668L152.906 37.8086H149.047V47H155.191C157.291 47 159 45.2913 159 43.1914V24.8086C159 22.7087 157.291 21 155.191 21Z" fill="#CCFD38"/>
</svg>
