<svg width="320" height="96" viewBox="0 0 320 96" fill="none" xmlns="http://www.w3.org/2000/svg">
<path fill-rule="evenodd" clip-rule="evenodd" d="M128 0H192H256C273.673 0 288 14.3269 288 32C288 49.6731 302.327 64 320 64C302.327 64 288 78.3269 288 96C288 78.3269 273.673 64 256 64H192H128C110.327 64 96 78.3269 96 96C96 78.3269 81.6731 64 64 64C46.3269 64 32 78.3269 32 96C32 78.3269 17.6731 64 0 64C17.6731 64 32 49.6731 32 32C32 14.3269 46.3269 0 64 0H128Z" fill="#EDF2FF"/>
<path d="M66.251 45.5326C69.726 45.8451 72.8573 44.9701 75.7073 42.8326C72.726 42.5701 70.7323 41.0826 69.6198 38.2951C70.5948 38.4138 71.5073 38.4451 72.476 38.1826C69.2635 37.1826 67.551 35.0826 67.3198 31.6951C68.2823 32.1451 69.1885 32.4701 70.2573 32.4826C68.351 31.0513 67.376 29.1951 67.4135 26.8576C67.4323 25.7826 67.7198 24.7701 68.2885 23.8138C71.8198 27.9451 76.251 30.2326 81.7073 30.6138C81.676 30.3763 81.6573 30.1888 81.6323 29.9951C81.1823 26.5326 83.4323 23.3826 86.8698 22.7263C89.026 22.3138 90.9323 22.8826 92.5448 24.3701C92.7948 24.5951 93.0073 24.6451 93.3198 24.5638C94.576 24.2451 95.7698 23.7826 96.926 23.1576C96.4823 24.6201 95.5698 25.7201 94.3323 26.6451C94.6135 26.5951 94.901 26.5576 95.1823 26.5013C95.476 26.4388 95.7698 26.3701 96.0635 26.2888C96.3448 26.2138 96.6198 26.1263 96.8948 26.0326C97.176 25.9388 97.4573 25.8326 97.7885 25.7763C97.626 26.0013 97.4698 26.2388 97.2948 26.4576C96.5698 27.3763 95.7323 28.1826 94.8135 28.9013C94.7198 28.9763 94.6385 29.1388 94.6448 29.2513C94.6948 31.4701 94.3823 33.6326 93.6635 35.7326C92.251 39.8701 89.7885 43.2201 86.0948 45.6138C84.2698 46.7951 82.276 47.5701 80.1448 48.0201C78.0323 48.4638 75.9073 48.5451 73.776 48.2951C71.6385 48.0451 69.6073 47.4138 67.6948 46.4263C67.1885 46.1701 66.701 45.8826 66.2073 45.6076C66.226 45.5826 66.2385 45.5576 66.251 45.5326Z" fill="#9896AE"/>
<path d="M118.148 24C119.337 24 121.149 24 122.168 24C122.677 24 123.073 24.346 123.243 24.8073C123.753 26.3065 124.885 29.5933 126.187 31.8421C127.942 34.7829 129.075 35.8785 129.811 35.7631C130.546 35.5901 130.32 33.6296 130.32 32.0727C130.32 30.5159 130.49 27.8634 129.754 26.6525L128.622 24.9803C128.339 24.5766 128.622 24.0577 129.075 24.0577H135.529C136.151 24.0577 136.661 24.5766 136.661 25.2109V33.572C136.661 33.572 136.944 35.0712 138.529 33.5143C140.114 31.9574 141.813 29.0743 143.228 26.1335L143.794 24.7496C143.964 24.346 144.36 24.0577 144.813 24.0577H149.003C149.795 24.0577 150.361 24.8649 150.078 25.6145L149.625 26.8255C149.625 26.8255 148.097 29.9392 146.512 32.1304C144.926 34.3792 144.587 34.8982 144.813 35.4748C145.04 36.0514 149.116 39.9148 150.135 41.76C150.418 42.279 150.644 42.7403 150.871 43.1439C151.267 43.8935 150.701 44.8738 149.852 44.8738H145.096C144.7 44.8738 144.304 44.6431 144.134 44.2972L143.681 43.5476C143.681 43.5476 140.794 40.0878 139.039 38.9922C137.227 37.9543 137.284 39.4535 137.284 39.4535V42.5096C137.284 43.7782 136.265 44.8161 135.019 44.8161H133.887C133.887 44.8161 127.659 44.8161 122.677 37.2624C118.771 31.3808 117.469 27.5751 117.016 25.3839C116.903 24.6919 117.412 24 118.148 24Z" fill="#9896AE"/>
<path d="M195.191 21H176.809C174.709 21 173 22.7087 173 24.8086V43.1914C173 45.2913 174.709 47 176.809 47H184.477V37.8086H181.43V33.2383H184.477V30.1406C184.477 27.6204 186.527 25.5703 189.047 25.5703H193.668V30.1406H189.047V33.2383H193.668L192.906 37.8086H189.047V47H195.191C197.291 47 199 45.2913 199 43.1914V24.8086C199 22.7087 197.291 21 195.191 21Z" fill="#9896AE"/>
<path d="M238 18C229.161 18 222 25.1618 222 34C222 42.8382 229.162 50 238 50C246.839 50 254 42.8382 254 34C254 25.1618 246.838 18 238 18ZM245.859 28.9615L243.233 41.3363C243.038 42.2137 242.516 42.4263 241.787 42.0134L237.787 39.0653L235.858 40.9234C235.645 41.136 235.465 41.3166 235.052 41.3166L235.336 37.2454L242.748 30.5481C243.071 30.2643 242.677 30.1032 242.251 30.3871L233.09 36.1543L229.141 34.9218C228.283 34.6514 228.264 34.064 229.322 33.6511L244.748 27.7022C245.464 27.4441 246.09 27.8766 245.858 28.9605L245.859 28.9615Z" fill="#9896AE"/>
</svg>
