<svg width="320" height="96" viewBox="0 0 320 96" fill="none" xmlns="http://www.w3.org/2000/svg">
<path fill-rule="evenodd" clip-rule="evenodd" d="M128 0H192H256C273.673 0 288 14.3269 288 32C288 49.6731 302.327 64 320 64C302.327 64 288 78.3269 288 96C288 78.3269 273.673 64 256 64H192H128C110.327 64 96 78.3269 96 96C96 78.3269 81.6731 64 64 64C46.3269 64 32 78.3269 32 96C32 78.3269 17.6731 64 0 64C17.6731 64 32 49.6731 32 32C32 14.3269 46.3269 0 64 0H128Z" fill="#EDF2FF"/>
<path d="M66.2508 45.5321C69.7258 45.8446 72.857 44.9696 75.707 42.8321C72.7258 42.5696 70.732 41.0821 69.6195 38.2946C70.5945 38.4134 71.507 38.4446 72.4758 38.1821C69.2633 37.1821 67.5508 35.0821 67.3195 31.6946C68.282 32.1446 69.1883 32.4696 70.257 32.4821C68.3508 31.0509 67.3758 29.1946 67.4133 26.8571C67.432 25.7821 67.7195 24.7696 68.2883 23.8134C71.8195 27.9446 76.2508 30.2321 81.707 30.6134C81.6758 30.3759 81.657 30.1884 81.632 29.9946C81.182 26.5321 83.432 23.3821 86.8695 22.7259C89.0258 22.3134 90.932 22.8821 92.5445 24.3696C92.7945 24.5946 93.007 24.6446 93.3195 24.5634C94.5758 24.2446 95.7695 23.7821 96.9258 23.1571C96.482 24.6196 95.5695 25.7196 94.332 26.6446C94.6133 26.5946 94.9008 26.5571 95.182 26.5009C95.4758 26.4384 95.7695 26.3696 96.0633 26.2884C96.3445 26.2134 96.6195 26.1259 96.8945 26.0321C97.1758 25.9384 97.457 25.8321 97.7883 25.7759C97.6258 26.0009 97.4695 26.2384 97.2945 26.4571C96.5695 27.3759 95.732 28.1821 94.8133 28.9009C94.7195 28.9759 94.6383 29.1384 94.6445 29.2509C94.6945 31.4696 94.382 33.6321 93.6633 35.7321C92.2508 39.8696 89.7883 43.2196 86.0945 45.6134C84.2695 46.7946 82.2758 47.5696 80.1445 48.0196C78.032 48.4634 75.907 48.5446 73.7758 48.2946C71.6383 48.0446 69.607 47.4134 67.6945 46.4259C67.1883 46.1696 66.7008 45.8821 66.207 45.6071C66.2258 45.5821 66.2383 45.5571 66.2508 45.5321Z" fill="#9896AE"/>
<path d="M118.148 24C119.337 24 121.149 24 122.168 24C122.677 24 123.073 24.346 123.243 24.8073C123.753 26.3065 124.885 29.5933 126.187 31.8421C127.942 34.7829 129.075 35.8785 129.811 35.7631C130.546 35.5901 130.32 33.6296 130.32 32.0727C130.32 30.5159 130.49 27.8634 129.754 26.6525L128.622 24.9803C128.339 24.5766 128.622 24.0577 129.075 24.0577H135.529C136.151 24.0577 136.661 24.5766 136.661 25.2109V33.572C136.661 33.572 136.944 35.0712 138.529 33.5143C140.114 31.9574 141.813 29.0743 143.228 26.1335L143.794 24.7496C143.964 24.346 144.36 24.0577 144.813 24.0577H149.003C149.795 24.0577 150.361 24.8649 150.078 25.6145L149.625 26.8255C149.625 26.8255 148.097 29.9392 146.512 32.1304C144.926 34.3792 144.587 34.8982 144.813 35.4748C145.04 36.0514 149.116 39.9148 150.135 41.76C150.418 42.279 150.644 42.7403 150.871 43.1439C151.267 43.8935 150.701 44.8738 149.852 44.8738H145.096C144.7 44.8738 144.304 44.6431 144.134 44.2972L143.681 43.5476C143.681 43.5476 140.794 40.0878 139.039 38.9922C137.227 37.9543 137.284 39.4535 137.284 39.4535V42.5096C137.284 43.7782 136.265 44.8161 135.019 44.8161H133.887C133.887 44.8161 127.659 44.8161 122.677 37.2624C118.771 31.3808 117.469 27.5751 117.016 25.3839C116.903 24.6919 117.412 24 118.148 24Z" fill="#9896AE"/>
<path d="M195.191 21H176.809C174.709 21 173 22.7087 173 24.8086V43.1914C173 45.2913 174.709 47 176.809 47H184.477V37.8086H181.43V33.2383H184.477V30.1406C184.477 27.6204 186.527 25.5703 189.047 25.5703H193.668V30.1406H189.047V33.2383H193.668L192.906 37.8086H189.047V47H195.191C197.291 47 199 45.2913 199 43.1914V24.8086C199 22.7087 197.291 21 195.191 21Z" fill="#9896AE"/>
<path d="M238 18C229.161 18 222 25.1618 222 34C222 42.8382 229.162 50 238 50C246.839 50 254 42.8382 254 34C254 25.1618 246.838 18 238 18ZM245.859 28.9615L243.233 41.3363C243.038 42.2137 242.516 42.4263 241.787 42.0134L237.787 39.0653L235.858 40.9234C235.645 41.136 235.465 41.3166 235.052 41.3166L235.336 37.2454L242.748 30.5481C243.071 30.2643 242.677 30.1032 242.251 30.3871L233.09 36.1543L229.141 34.9218C228.283 34.6514 228.264 34.064 229.322 33.6511L244.748 27.7022C245.464 27.4441 246.09 27.8766 245.858 28.9605L245.859 28.9615Z" fill="#9896AE"/>
</svg>
