<svg width="1176" height="1058" viewBox="0 0 1176 1058" fill="none" xmlns="http://www.w3.org/2000/svg">
<path d="M5.99997 714.08C11.0853 787.887 70.0969 801.566 98.967 799.18L895.94 798.385C963.321 793.295 982.286 738.47 983.345 711.694L983.345 505.704C979.372 422.99 924.546 406.288 876.87 393.563C829.195 380.838 816.481 333.914 816.481 318.802C816.481 303.691 816.481 267.106 849.854 240.86C893.16 206.803 983.345 186.921 983.345 107.245C983.345 32.4845 928.254 23.4708 905.475 21.3499L698.882 21.3499C626.416 27.7125 608.829 81.2646 609.094 107.245C612.272 206.502 543.672 225.484 508.975 222.568C441.435 222.833 305.242 223.204 300.793 222.568C295.231 221.772 208.62 217.796 207.826 307.668C207.19 379.566 284.106 394.798 307.149 403.902C367.538 427.762 384.225 485.026 379.457 519.225C374.69 553.425 354.825 575.694 342.906 583.647C330.987 591.6 298.409 609.097 245.966 583.647C193.523 558.196 184.783 430.148 98.967 426.172C30.3144 422.99 8.38375 478.928 5.99998 507.295L5.99997 714.08Z" fill="#CCFD38" stroke="#CCFD38" stroke-width="12"/>
</svg>
