<svg width="1209" height="642" viewBox="0 0 1209 642" fill="none" xmlns="http://www.w3.org/2000/svg">
<path d="M-100 541.921V92.0095C-100 52.1551 -59.4791 0.787247 -5.74495 0.787247C47.9892 0.787247 179.242 -0.984059 223.286 0.787247C267.33 2.55855 291.114 34.4421 296.4 41.5273C301.685 48.6125 359.824 146.034 370.394 157.548C380.965 169.061 391.536 190.317 443.508 190.317C495.48 190.317 510.456 161.976 522.788 146.034C535.12 130.093 580.927 57.469 589.736 41.5273C598.544 25.5855 627.614 0.787247 667.254 0.787247C706.894 0.787247 735.963 28.2425 744.772 41.5273C753.581 54.8121 792.34 119.465 809.958 146.034C827.575 172.604 858.406 187.66 877.786 190.317C897.166 192.974 1100.65 223.752 1123.55 226.63C1146.46 229.509 1209 252.314 1209 318.737V542.807C1209 594.175 1169.36 642 1118.27 642H443.508C400.345 642 373.918 614.545 359.824 592.403C345.729 570.262 302.566 502.067 291.995 485.239C281.425 468.412 252.355 449.813 223.286 449.813C194.217 449.813 159.862 462.212 144.887 485.239C129.912 508.266 86.7483 575.576 75.2968 596.832C63.8452 618.087 28.6097 642 -7.50673 642C-43.6231 642 -100 618.087 -100 541.921Z" fill="#CCFD38"/>
</svg>
