<svg width="558" height="562" viewBox="0 0 558 562" fill="none" xmlns="http://www.w3.org/2000/svg">
<path fill-rule="evenodd" clip-rule="evenodd" d="M-4.53801 503.695V206.998C-5.77435 200.817 -5.27982 185.487 6.58911 173.62L163.606 16.6172C169.375 11.6722 185.365 1.53506 203.169 0.546073C220.972 -0.442918 307.022 0.133994 347.821 0.546073C369.251 1.78218 411.617 16.864 409.638 67.3026C409.226 81.7254 402.918 113.188 347.821 130.093C339.805 134.101 330.515 138.946 321.864 144.251C313.636 148.104 306.353 153.639 300.457 160.414C298.143 162.794 296.239 165.19 294.875 167.577C294.574 168.104 294.275 168.668 293.98 169.267C288.018 179.058 284.585 190.556 284.585 202.856C284.585 215.233 288.061 226.798 294.09 236.627C298.977 246.389 306.796 254.765 318.66 259.851C325.818 263.703 333.784 266.245 342.239 267.158C387.4 278.312 466.975 288.197 507.31 292.298C533.745 294.986 558 312.82 558 350.401C558 388.692 530.072 412.807 515.057 425.771C511.651 428.712 508.91 431.079 507.31 432.907C504.473 436.149 491.16 448.62 474.107 464.593C449.544 487.602 417.221 517.879 397.275 538.31C388.239 547.565 365.872 563.529 334.221 560.562C294.875 556.874 282.295 521.415 276.113 503.695C267.871 481.855 247.836 439.411 203.169 439.411C156.972 439.411 135.17 482.679 125.279 503.695C115.8 525.948 86.7051 568.474 46.1526 560.562C5.60012 552.65 -4.53801 519.354 -4.53801 503.695Z" fill="#CCFD38"/>
</svg>
