<svg width="504" height="184" viewBox="0 0 504 184" fill="none" xmlns="http://www.w3.org/2000/svg">
<g filter="url(#filter0_d)">
<rect y="55.2852" width="487.449" height="124.421" rx="31" transform="rotate(-6.51226 0 55.2852)" fill="#04005E"/>
<path d="M210.582 80.6091L198.193 82.0233C196.504 82.2161 195.288 83.7589 195.481 85.4559C195.663 87.0455 194.525 88.7587 192.711 88.9658C191.022 89.1586 189.806 90.7014 189.999 92.3984L192.91 117.894C193.103 119.591 194.636 120.82 196.326 120.627C198.015 120.434 199.231 118.891 199.038 117.194L196.125 91.6748C195.957 90.2082 196.813 88.4025 198.895 88.1649L211.283 86.7508C212.973 86.5579 214.189 85.0152 213.995 83.3182C213.804 81.6439 212.27 80.4164 210.582 80.6091Z" fill="#75FEFA" stroke="#75FEFA" stroke-width="0.4"/>
<path d="M253.961 104.263L253.961 104.267C254.167 105.875 253.027 107.609 251.208 107.817L226.346 110.655C224.886 110.821 223.084 109.96 222.845 107.864L220.711 89.1756L220.711 89.1755L220.711 89.1755L220.711 89.1754L220.711 89.1754L220.711 89.1753L220.711 89.1753L220.711 89.1752L220.711 89.1752L220.711 89.1751L220.711 89.1751L220.711 89.175L220.711 89.175L220.711 89.1749L220.711 89.1749L220.711 89.1748L220.711 89.1748L220.711 89.1747L220.711 89.1747L220.711 89.1746L220.711 89.1746L220.711 89.1745L220.711 89.1745L220.711 89.1744L220.711 89.1744L220.711 89.1744L220.711 89.1743L220.711 89.1743L220.711 89.1742L220.711 89.1742L220.711 89.1741L220.711 89.1741L220.711 89.174L220.711 89.174L220.711 89.1739L220.711 89.1739L220.711 89.1738L220.711 89.1738L220.711 89.1737L220.711 89.1737L220.711 89.1736L220.711 89.1736L220.711 89.1735L220.711 89.1735L220.711 89.1734L220.711 89.1734L220.711 89.1733L220.711 89.1733L220.711 89.1732L220.711 89.1732L220.711 89.1731L220.711 89.1731L220.711 89.173L220.711 89.173L220.711 89.1729L220.711 89.1729L220.711 89.1729L220.711 89.1728L220.711 89.1728L220.711 89.1727L220.711 89.1727L220.711 89.1726L220.711 89.1726L220.711 89.1725L220.711 89.1725L220.711 89.1724L220.711 89.1724L220.711 89.1723L220.711 89.1723L220.711 89.1722L220.711 89.1722L220.711 89.1721L220.711 89.1721L220.711 89.172L220.711 89.172L220.711 89.1719L220.711 89.1719L220.711 89.1718L220.711 89.1718L220.711 89.1717L220.711 89.1717L220.711 89.1716L220.711 89.1716L220.711 89.1715L220.711 89.1715L220.711 89.1714L220.711 89.1714L220.711 89.1713L220.711 89.1713L220.711 89.1713L220.711 89.1712L220.711 89.1712L220.711 89.1711L220.711 89.1711L220.711 89.171L220.711 89.171L220.711 89.1709L220.711 89.1709L220.711 89.1708L220.711 89.1708L220.711 89.1707L220.711 89.1706L220.711 89.1706L220.711 89.1705L220.711 89.1705L220.711 89.1704L220.711 89.1704L220.711 89.1703L220.711 89.1703L220.711 89.1702L220.711 89.1702L220.711 89.1701L220.711 89.1701L220.711 89.17L220.711 89.17L220.711 89.1699L220.711 89.1699L220.711 89.1698L220.711 89.1698L220.711 89.1697L220.711 89.1697L220.711 89.1696L220.711 89.1696L220.711 89.1695L220.711 89.1694L220.711 89.1694L220.711 89.1693L220.711 89.1693L220.711 89.1692L220.711 89.1691L220.711 89.1691L220.711 89.169L220.711 89.169L220.711 89.1689L220.711 89.1688L220.711 89.1688L220.711 89.1687L220.711 89.1687L220.711 89.1686L220.711 89.1685L220.711 89.1685L220.71 89.1684L220.71 89.1683L220.71 89.1683L220.71 89.1682L220.71 89.1682L220.71 89.1681L220.71 89.168L220.71 89.168L220.71 89.1679L220.71 89.1678L220.71 89.1678L220.71 89.1677L220.71 89.1676L220.71 89.1676L220.71 89.1675L220.71 89.1674L220.71 89.1674L220.71 89.1673L220.71 89.1672L220.71 89.1671L220.71 89.1671L220.71 89.167L220.71 89.1669L220.71 89.1668L220.71 89.1668L220.71 89.1667L220.71 89.1667L220.71 89.1666L220.71 89.1665L220.71 89.1664L220.71 89.1664L220.71 89.1663L220.71 89.1662L220.71 89.1661L220.71 89.1661L220.71 89.166L220.71 89.1659L220.71 89.1658L220.71 89.1657L220.71 89.1657L220.71 89.1656L220.71 89.1655L220.71 89.1654L220.71 89.1653L220.71 89.1653L220.71 89.1652L220.71 89.1651L220.71 89.1651L220.71 89.165L220.71 89.1649L220.71 89.1648L220.71 89.1647L220.71 89.1646L220.71 89.1645L220.71 89.1645L220.71 89.1644L220.71 89.1643L220.71 89.1642L220.71 89.1641L220.71 89.164L220.71 89.1639L220.71 89.1638L220.71 89.1638L220.71 89.1637L220.71 89.1636L220.71 89.1635L220.71 89.1634L220.71 89.1633L220.71 89.1632L220.71 89.1631L220.71 89.1631L220.71 89.163L220.71 89.1629L220.71 89.1628L220.71 89.1627L220.71 89.1626L220.71 89.1625L220.71 89.1624L220.71 89.1623L220.71 89.1622L220.71 89.1621L220.71 89.162L220.71 89.1619L220.71 89.1618L220.71 89.1617L220.71 89.1616L220.71 89.1615L220.71 89.1614L220.71 89.1613L220.71 89.1612L220.71 89.1611L220.71 89.161L220.71 89.1609L220.71 89.1608L220.71 89.1608L220.71 89.1606L220.71 89.1605L220.71 89.1604L220.71 89.1603L220.71 89.1602L220.71 89.1601L220.71 89.16L220.71 89.1599L220.71 89.1598L220.709 89.1597L220.709 89.1596L220.709 89.1595L220.709 89.1593L220.709 89.1593L220.709 89.1592L220.709 89.1591L220.709 89.1589L220.709 89.1588L220.709 89.1587L220.709 89.1586L220.709 89.1585L220.709 89.1584L220.709 89.1582L220.709 89.1581L220.709 89.158L220.709 89.1579L220.709 89.1578L220.709 89.1577L220.709 89.1576L220.709 89.1575L220.709 89.1573L220.709 89.1572L220.709 89.1571L220.709 89.157L220.709 89.1569L220.709 89.1567L220.709 89.1566L220.709 89.1565L220.709 89.1564L220.709 89.1562L220.709 89.1562L220.709 89.156L220.709 89.1559L220.709 89.1558L220.709 89.1556L220.709 89.1555L220.709 89.1554L220.709 89.1553L220.709 89.1551L220.709 89.155L220.709 89.1549L220.709 89.1548L220.709 89.1547L220.709 89.1545L220.709 89.1544L220.709 89.1543L220.709 89.1541L220.709 89.154L220.709 89.1538L220.709 89.1537L220.709 89.1536L220.709 89.1534L220.709 89.1533L220.709 89.1532L220.709 89.1531L220.709 89.1529L220.709 89.1528L220.709 89.1526L220.709 89.1525L220.709 89.1524L220.709 89.1522L220.709 89.1521L220.709 89.1519L220.709 89.1518L220.709 89.1517L220.709 89.1516C220.541 87.6875 221.4 85.8822 223.491 85.6436L248.329 82.8082C249.911 82.6276 251.621 83.7719 251.83 85.599L253.961 104.263ZM254.582 82.2133C253.122 82.3799 251.32 81.5189 251.08 79.4226C250.887 77.7261 249.349 76.5 247.655 76.6934L222.793 79.5314C221.099 79.7248 219.877 81.2659 220.071 82.9624C220.252 84.5494 219.11 86.2624 217.289 86.4704C215.594 86.6638 214.373 88.2049 214.567 89.9014L216.697 108.566C216.891 110.262 218.428 111.488 220.123 111.295C221.705 111.114 223.415 112.259 223.623 114.086C223.817 115.782 225.355 117.008 227.049 116.815L251.887 113.979C253.581 113.786 254.803 112.245 254.609 110.549C254.442 109.085 255.301 107.279 257.391 107.041C259.086 106.847 260.307 105.306 260.113 103.61L257.98 84.9212C257.786 83.2248 256.276 82.0199 254.582 82.2133Z" fill="#75FEFA" stroke="#75FEFA" stroke-width="0.4"/>
<path d="M180.962 90.6164C179.503 90.783 177.7 89.922 177.461 87.8257C177.267 86.1292 175.73 84.903 174.036 85.0965L149.198 87.9318C147.504 88.1251 146.282 89.6663 146.475 91.3628C146.657 92.9497 145.515 94.6628 143.693 94.8708C141.999 95.0641 140.777 96.6053 140.971 98.3017L143.101 116.966C143.295 118.663 144.833 119.889 146.527 119.695C148.109 119.515 149.82 120.659 150.028 122.486C150.222 124.183 151.76 125.408 153.454 125.215L178.292 122.38C179.986 122.186 181.207 120.646 181.014 118.949C180.847 117.485 181.706 115.68 183.796 115.441C185.49 115.248 186.712 113.706 186.518 112.01L184.385 93.3216C184.191 91.6224 182.654 90.4233 180.962 90.6164ZM177.588 116.22L152.75 119.055C151.291 119.222 149.488 118.361 149.249 116.264L147.116 97.576L147.116 97.5759L147.116 97.5759L147.116 97.5758L147.116 97.5758L147.116 97.5757L147.116 97.5757L147.116 97.5756L147.116 97.5756L147.116 97.5755L147.116 97.5755L147.116 97.5754L147.116 97.5754L147.116 97.5753L147.116 97.5753L147.116 97.5752L147.116 97.5752L147.115 97.5751L147.115 97.5751L147.115 97.575L147.115 97.575L147.115 97.5749L147.115 97.5749L147.115 97.5748L147.115 97.5748L147.115 97.5747L147.115 97.5747L147.115 97.5746L147.115 97.5746L147.115 97.5745L147.115 97.5745L147.115 97.5745L147.115 97.5744L147.115 97.5744L147.115 97.5743L147.115 97.5743L147.115 97.5742L147.115 97.5742L147.115 97.5741L147.115 97.5741L147.115 97.574L147.115 97.574L147.115 97.5739L147.115 97.5739L147.115 97.5738L147.115 97.5738L147.115 97.5737L147.115 97.5737L147.115 97.5736L147.115 97.5736L147.115 97.5735L147.115 97.5735L147.115 97.5734L147.115 97.5734L147.115 97.5733L147.115 97.5733L147.115 97.5732L147.115 97.5732L147.115 97.5731L147.115 97.5731L147.115 97.573L147.115 97.573L147.115 97.573L147.115 97.5729L147.115 97.5729L147.115 97.5728L147.115 97.5728L147.115 97.5727L147.115 97.5727L147.115 97.5726L147.115 97.5726L147.115 97.5725L147.115 97.5725L147.115 97.5724L147.115 97.5724L147.115 97.5723L147.115 97.5723L147.115 97.5722L147.115 97.5722L147.115 97.5721L147.115 97.5721L147.115 97.572L147.115 97.572L147.115 97.5719L147.115 97.5719L147.115 97.5718L147.115 97.5718L147.115 97.5717L147.115 97.5717L147.115 97.5716L147.115 97.5716L147.115 97.5715L147.115 97.5715L147.115 97.5715L147.115 97.5714L147.115 97.5714L147.115 97.5713L147.115 97.5713L147.115 97.5712L147.115 97.5712L147.115 97.5711L147.115 97.571L147.115 97.571L147.115 97.5709L147.115 97.5709L147.115 97.5708L147.115 97.5708L147.115 97.5707L147.115 97.5707L147.115 97.5706L147.115 97.5706L147.115 97.5705L147.115 97.5705L147.115 97.5704L147.115 97.5704L147.115 97.5703L147.115 97.5703L147.115 97.5702L147.115 97.5701L147.115 97.5701L147.115 97.57L147.115 97.57L147.115 97.57L147.115 97.5699L147.115 97.5698L147.115 97.5698L147.115 97.5697L147.115 97.5697L147.115 97.5696L147.115 97.5695L147.115 97.5695L147.115 97.5694L147.115 97.5694L147.115 97.5693L147.115 97.5692L147.115 97.5692L147.115 97.5691L147.115 97.5691L147.115 97.569L147.115 97.5689L147.115 97.5689L147.115 97.5688L147.115 97.5687L147.115 97.5687L147.115 97.5686L147.115 97.5685L147.115 97.5685L147.115 97.5684L147.115 97.5684L147.115 97.5683L147.115 97.5682L147.115 97.5682L147.115 97.5681L147.115 97.568L147.115 97.568L147.115 97.5679L147.115 97.5678L147.115 97.5678L147.115 97.5677L147.115 97.5676L147.115 97.5675L147.115 97.5675L147.115 97.5674L147.115 97.5673L147.115 97.5672L147.115 97.5672L147.115 97.5671L147.115 97.567L147.115 97.567L147.115 97.5669L147.115 97.5668L147.115 97.5668L147.115 97.5667L147.115 97.5666L147.115 97.5665L147.115 97.5665L147.114 97.5664L147.114 97.5663L147.114 97.5662L147.114 97.5661L147.114 97.5661L147.114 97.566L147.114 97.5659L147.114 97.5658L147.114 97.5657L147.114 97.5657L147.114 97.5656L147.114 97.5655L147.114 97.5655L147.114 97.5654L147.114 97.5653L147.114 97.5652L147.114 97.5651L147.114 97.565L147.114 97.5649L147.114 97.5649L147.114 97.5648L147.114 97.5647L147.114 97.5646L147.114 97.5645L147.114 97.5644L147.114 97.5643L147.114 97.5642L147.114 97.5641L147.114 97.5641L147.114 97.564L147.114 97.5639L147.114 97.5638L147.114 97.5637L147.114 97.5636L147.114 97.5635L147.114 97.5635L147.114 97.5634L147.114 97.5633L147.114 97.5632L147.114 97.5631L147.114 97.563L147.114 97.5629L147.114 97.5628L147.114 97.5627L147.114 97.5626L147.114 97.5625L147.114 97.5624L147.114 97.5623L147.114 97.5622L147.114 97.5621L147.114 97.562L147.114 97.5619L147.114 97.5618L147.114 97.5617L147.114 97.5616L147.114 97.5615L147.114 97.5614L147.114 97.5613L147.114 97.5612L147.114 97.5611L147.114 97.561L147.114 97.5609L147.114 97.5608L147.114 97.5607L147.114 97.5606L147.114 97.5605L147.114 97.5604L147.114 97.5603L147.114 97.5602L147.114 97.5601L147.114 97.56L147.114 97.5599L147.114 97.5597L147.114 97.5596L147.114 97.5595L147.114 97.5594L147.114 97.5593L147.114 97.5592L147.114 97.5591L147.114 97.559L147.114 97.5589L147.114 97.5588L147.114 97.5586L147.114 97.5585L147.114 97.5584L147.114 97.5583L147.114 97.5582L147.114 97.5581L147.114 97.5579L147.114 97.5579L147.114 97.5577L147.113 97.5576L147.113 97.5575L147.113 97.5574L147.113 97.5573L147.113 97.5571L147.113 97.557L147.113 97.5569L147.113 97.5568L147.113 97.5566L147.113 97.5565L147.113 97.5564L147.113 97.5563L147.113 97.5562L147.113 97.556L147.113 97.5559L147.113 97.5558L147.113 97.5557L147.113 97.5555L147.113 97.5554L147.113 97.5553L147.113 97.5551L147.113 97.555L147.113 97.5549L147.113 97.5548L147.113 97.5547L147.113 97.5545L147.113 97.5544L147.113 97.5542L147.113 97.5541L147.113 97.554L147.113 97.5538L147.113 97.5537L147.113 97.5536L147.113 97.5534L147.113 97.5533L147.113 97.5532L147.113 97.553L147.113 97.5529L147.113 97.5528L147.113 97.5526L147.113 97.5525L147.113 97.5523L147.113 97.5522L147.113 97.552L147.113 97.5519C146.946 96.0879 147.805 94.2825 149.895 94.0439L174.733 91.2086C176.315 91.028 178.026 92.1722 178.235 93.9993L180.365 112.664C180.55 114.278 179.407 116.012 177.588 116.22Z" fill="#75FEFA" stroke="#75FEFA" stroke-width="0.4"/>
<path d="M324.049 64.9403L324.021 64.6983L323.988 64.7021C323.684 63.1382 322.219 62.0402 320.612 62.2236C319.159 62.3894 317.365 61.532 317.126 59.4446C316.933 57.7542 315.402 56.5324 313.713 56.7251L270.427 61.6664C268.739 61.859 267.522 63.3946 267.715 65.085C267.896 66.6653 266.759 68.3711 264.945 68.5782C263.257 68.7708 262.04 70.3064 262.232 71.9968L265.771 102.998C265.964 104.689 267.497 105.911 269.184 105.718C270.76 105.538 272.463 106.678 272.671 108.497C272.864 110.187 274.396 111.409 276.083 111.217L319.393 106.273C321.082 106.08 322.299 104.544 322.106 102.854L322.106 102.854L322.106 102.854L322.106 102.854L322.106 102.854L322.106 102.854L322.106 102.853L322.106 102.853L322.106 102.853L322.106 102.853L322.106 102.853L322.106 102.853L322.106 102.853L322.106 102.853L322.106 102.853L322.106 102.853L322.106 102.853L322.106 102.853L322.106 102.853L322.106 102.853L322.106 102.853L322.106 102.853L322.106 102.853L322.106 102.853L322.106 102.853L322.106 102.853L322.106 102.852L322.106 102.852L322.106 102.852L322.106 102.852L322.106 102.852L322.106 102.852L322.106 102.852L322.106 102.852L322.105 102.852L322.105 102.852L322.105 102.852L322.105 102.852L322.105 102.852L322.105 102.852L322.105 102.852L322.105 102.852L322.105 102.852L322.105 102.852L322.105 102.852L322.105 102.852L322.105 102.851L322.105 102.851L322.105 102.851L322.105 102.851L322.105 102.851L322.105 102.851L322.105 102.851L322.105 102.851L322.105 102.851L322.105 102.851L322.105 102.851L322.105 102.851L322.105 102.851L322.105 102.851L322.105 102.851L322.105 102.851L322.105 102.851L322.105 102.851L322.105 102.851L322.105 102.851L322.105 102.851L322.105 102.85L322.105 102.85L322.105 102.85L322.105 102.85L322.105 102.85L322.105 102.85L322.105 102.85L322.105 102.85L322.105 102.85L322.105 102.85L322.105 102.85L322.105 102.85L322.105 102.85L322.105 102.85L322.105 102.85L322.105 102.85L322.105 102.85L322.105 102.85L322.105 102.85L322.105 102.85L322.105 102.849L322.105 102.849L322.105 102.849L322.105 102.849L322.105 102.849L322.105 102.849L322.105 102.849L322.105 102.849L322.105 102.849L322.105 102.849L322.105 102.849L322.105 102.849L322.105 102.849L322.105 102.849L322.105 102.849L322.105 102.849L322.105 102.849L322.105 102.849L322.105 102.849L322.105 102.849L322.105 102.848L322.105 102.848L322.105 102.848L322.105 102.848L322.105 102.848L322.105 102.848L322.105 102.848L322.105 102.848L322.105 102.848L322.105 102.848L322.105 102.848L322.105 102.848L322.105 102.848L322.105 102.848L322.105 102.848L322.105 102.848L322.105 102.848L322.105 102.848L322.105 102.848L322.105 102.847L322.105 102.847L322.105 102.847L322.105 102.847L322.105 102.847L322.105 102.847L322.105 102.847L322.105 102.847L322.105 102.847L322.105 102.847L322.105 102.847L322.105 102.847L322.105 102.847L322.105 102.847L322.105 102.847L322.105 102.847L322.105 102.846L322.105 102.846L322.105 102.846L322.105 102.846L322.105 102.846L322.105 102.846L322.105 102.846L322.105 102.846L322.105 102.846L322.105 102.846L322.105 102.846L322.105 102.846L322.105 102.846L322.105 102.846L322.105 102.846L322.105 102.846L322.105 102.845L322.105 102.845L322.105 102.845L322.105 102.845L322.105 102.845L322.105 102.845L322.105 102.845L322.105 102.845L322.105 102.845L322.105 102.845L322.105 102.845L322.105 102.845L322.105 102.845L322.105 102.845L322.105 102.844L322.105 102.844L322.105 102.844L322.105 102.844L322.105 102.844L322.105 102.844L322.105 102.844L322.105 102.844L322.105 102.844L322.105 102.844L322.105 102.844L322.105 102.844L322.105 102.843L322.105 102.843L322.104 102.843L322.104 102.843L322.104 102.843L322.104 102.843L322.104 102.843L322.104 102.843L322.104 102.843L322.104 102.843L322.104 102.843L322.104 102.843L322.104 102.843L322.104 102.842L322.104 102.842L322.104 102.842L322.104 102.842L322.104 102.842L322.104 102.842L322.104 102.842L322.104 102.842L322.104 102.842L322.104 102.842L322.104 102.842L322.104 102.841L322.104 102.841L322.104 102.841L322.104 102.841L322.104 102.841L322.104 102.841L322.104 102.841L322.104 102.841L322.104 102.841L322.104 102.841L322.104 102.841L322.104 102.84L322.104 102.84L322.104 102.84L322.104 102.84L322.104 102.84L322.104 102.84L322.104 102.84L322.104 102.84L322.104 102.84L322.104 102.84L322.104 102.839L322.104 102.839L322.104 102.839L322.104 102.839L322.104 102.839L322.104 102.839L322.104 102.839L322.104 102.839L322.104 102.839L322.104 102.839L322.104 102.838L322.104 102.838L322.104 102.838L322.104 102.838L322.104 102.838L322.104 102.838L322.104 102.838L322.104 102.838L322.104 102.838L322.104 102.837L322.104 102.837L322.104 102.837L322.104 102.837L322.104 102.837L322.104 102.837L322.104 102.837L322.104 102.837L322.104 102.837L322.104 102.837L322.104 102.836L322.104 102.836L322.104 102.836L322.104 102.836L322.104 102.836L322.104 102.836L322.104 102.836L322.104 102.836L322.104 102.835L322.104 102.835L322.104 102.835L322.104 102.835L322.104 102.835L322.104 102.835L322.104 102.835L322.104 102.835L322.103 102.834L322.103 102.834L322.103 102.834L322.103 102.834L322.103 102.834L322.103 102.834L322.103 102.834L322.103 102.834L322.103 102.834L322.103 102.833L322.103 102.833L322.103 102.833L322.103 102.833L322.103 102.833L322.103 102.833L322.103 102.833L322.103 102.833L322.103 102.832L322.103 102.832L322.103 102.832L322.103 102.832L322.103 102.832L322.103 102.832L322.103 102.832L322.103 102.831L322.103 102.831L322.103 102.831L322.103 102.831L322.103 102.831L322.103 102.831L322.103 102.831L322.103 102.831L322.103 102.83L322.103 102.83L322.103 102.83L322.103 102.83L322.103 102.83C321.937 101.372 322.792 99.5742 324.873 99.3366L325.997 99.2084C327.063 99.0866 327.836 98.1115 327.714 97.044L327.459 94.816L327.459 94.8157L327.459 94.8154L327.459 94.8151L327.459 94.8149L327.459 94.8146L327.459 94.8143L327.459 94.814L327.459 94.8137L327.459 94.8134L327.459 94.8132L327.459 94.8129L327.459 94.8126L327.459 94.8123L327.459 94.812L327.459 94.8118L327.459 94.8115L327.459 94.8112L327.459 94.8109L327.459 94.8106L327.459 94.8103L327.459 94.8101L327.459 94.8098L327.459 94.8095L327.459 94.8092L327.459 94.8089L327.458 94.8087L327.458 94.8084L327.458 94.8081L327.458 94.8078L327.458 94.8075L327.458 94.8073L327.458 94.807L327.458 94.8067L327.458 94.8064L327.458 94.8061L327.458 94.8059L327.458 94.8056L327.458 94.8053L327.458 94.805L327.458 94.8047L327.458 94.8044L327.458 94.8042L327.458 94.8039L327.458 94.8036L327.458 94.8033L327.458 94.803L327.458 94.8028L327.458 94.8025L327.458 94.8022L327.458 94.8019L327.458 94.8016L327.458 94.8013L327.458 94.8011L327.458 94.8008L327.458 94.8005L327.458 94.8002L327.457 94.7999L327.457 94.7997L327.457 94.7994L327.457 94.7991L327.457 94.7988L327.457 94.7985L327.457 94.7983L327.457 94.798L327.457 94.7977L327.457 94.7974L327.457 94.7971L327.457 94.7968L327.457 94.7966L327.457 94.7963L327.457 94.796L327.457 94.7957L327.457 94.7954L327.457 94.7952L327.457 94.7949L327.457 94.7946L327.457 94.7943L327.457 94.794L327.457 94.7938L327.457 94.7935L327.457 94.7932L327.457 94.7929L327.457 94.7926L327.457 94.7924L327.457 94.7921L327.457 94.7918L327.457 94.7915L327.456 94.7912L327.456 94.791L327.456 94.7907L327.456 94.7904L327.456 94.7901L327.456 94.7898L327.456 94.7896L327.456 94.7893L327.456 94.789L327.456 94.7887L327.456 94.7884L327.456 94.7882L327.456 94.7879L327.456 94.7876L327.456 94.7873L327.456 94.787L327.456 94.7868L327.456 94.7865L327.456 94.7862L327.456 94.7859L327.456 94.7856L327.456 94.7854L327.456 94.7851L327.456 94.7848L327.456 94.7845L327.456 94.7842L327.456 94.784L327.456 94.7837L327.456 94.7834L327.456 94.7831L327.456 94.7828L327.455 94.7825L327.455 94.7823L327.455 94.782L327.455 94.7817L327.455 94.7814L327.455 94.7811L327.455 94.7809L327.455 94.7806L327.455 94.7803L327.455 94.78L327.455 94.7797L327.455 94.7795L327.455 94.7792L327.455 94.7789L327.455 94.7786L327.455 94.7784L327.455 94.7781L327.455 94.7778L327.455 94.7775L327.455 94.7772L327.455 94.777L327.455 94.7767L327.455 94.7764L327.455 94.7761L327.455 94.7758L327.455 94.7755L327.455 94.7753L327.455 94.775L327.455 94.7747L327.455 94.7744L327.455 94.7741L327.455 94.7739L327.454 94.7736L327.454 94.7733L327.454 94.773L327.454 94.7727L327.454 94.7725L327.454 94.7722L327.454 94.7719L327.454 94.7716L327.454 94.7713L327.454 94.771L327.454 94.7708L327.454 94.7705L327.454 94.7702L327.454 94.7699L327.454 94.7696L327.454 94.7694L327.454 94.7691L327.454 94.7688L327.454 94.7685L327.454 94.7682L327.454 94.768L327.454 94.7677L327.454 94.7674L327.454 94.7671L327.454 94.7668L327.454 94.7666L327.454 94.7663L327.454 94.766L327.454 94.7657L327.454 94.7654L327.454 94.7651L327.453 94.7649L327.453 94.7646L327.453 94.7643L327.453 94.764L327.453 94.7637L327.453 94.7635L327.453 94.7632L327.453 94.7629L327.453 94.7626L327.453 94.7623L327.453 94.762L327.453 94.7618L327.453 94.7615L327.453 94.7612L327.453 94.7609L327.453 94.7606L327.453 94.7604L327.453 94.7601L327.453 94.7598L327.453 94.7595L327.453 94.7592L327.453 94.759L327.453 94.7587L327.453 94.7584L327.453 94.7581L327.453 94.7578L327.453 94.7575L327.453 94.7573L327.453 94.757L327.453 94.7567L327.453 94.7564L327.452 94.7561L327.452 94.7559L327.452 94.7556L327.452 94.7553L327.452 94.755L327.452 94.7547L327.452 94.7545L327.452 94.7542L327.452 94.7539L327.452 94.7536L327.452 94.7533L327.452 94.753L327.452 94.7528L327.452 94.7525L327.452 94.7522L327.452 94.7519L327.452 94.7516L327.452 94.7514L327.452 94.7511L327.452 94.7508L327.452 94.7505L327.452 94.7502L327.452 94.75L327.452 94.7497L327.452 94.7494L327.452 94.7491L327.452 94.7488L327.452 94.7486L327.452 94.7483L327.452 94.748L327.452 94.7477L327.451 94.7474L327.451 94.7472L327.451 94.7469L327.451 94.7466L327.451 94.7463L327.451 94.746L327.451 94.7458L327.451 94.7455L327.451 94.7452L327.451 94.7449L327.451 94.7446L327.451 94.7444L327.451 94.7441L327.451 94.7438L327.451 94.7435L327.451 94.7432L327.451 94.743L327.451 94.7427L327.451 94.7424L327.451 94.7421L327.451 94.7418L327.451 94.7416L327.451 94.7413L327.451 94.741L327.451 94.7407L327.451 94.7404L327.451 94.7402L327.451 94.7399L327.451 94.7396L327.451 94.7393L327.451 94.739L327.451 94.7388L327.45 94.7385L327.45 94.7382L327.45 94.7379L327.45 94.7376L327.45 94.7373L327.45 94.7371L327.45 94.7368L327.45 94.7365L327.45 94.7362L327.45 94.7359L327.45 94.7357L327.45 94.7354L327.45 94.7351L327.45 94.7348L327.45 94.7346L327.45 94.7343L327.45 94.734L327.45 94.7337L327.45 94.7334L327.45 94.7332L327.45 94.7329L327.45 94.7326L327.45 94.7323L327.45 94.732L327.45 94.7318L327.45 94.7315L327.45 94.7312L327.45 94.7309L327.45 94.7306L327.45 94.7303L327.45 94.7301L327.449 94.7298L327.449 94.7295L327.449 94.7292L327.449 94.7289L327.449 94.7287L327.449 94.7284L327.449 94.7281L327.449 94.7278L327.449 94.7275L327.449 94.7273L327.449 94.727L327.449 94.7267L327.449 94.7264L327.449 94.7261L327.449 94.7258L327.449 94.7256L327.449 94.7253L327.449 94.725L327.449 94.7247L327.449 94.7244L327.449 94.7242L327.449 94.7239L327.449 94.7236L327.449 94.7233L327.449 94.723L327.449 94.7228L327.449 94.7225L327.449 94.7222L327.449 94.7219L327.449 94.7216L327.449 94.7213L327.448 94.7211L327.448 94.7208L327.448 94.7205L327.448 94.7202L327.448 94.7199L327.448 94.7197L327.448 94.7194L327.448 94.7191L327.448 94.7188L327.448 94.7185L327.448 94.7183L327.448 94.718L327.448 94.7177L327.448 94.7174L327.448 94.7171L327.448 94.7168L327.448 94.7166L327.448 94.7163L327.448 94.716L327.448 94.7157L327.448 94.7154L327.448 94.7152L327.448 94.7149L327.448 94.7146L327.448 94.7143L327.448 94.714L327.448 94.7137L327.448 94.7135L327.448 94.7132L327.448 94.7129L327.448 94.7126L327.447 94.7123L327.447 94.7121L327.447 94.7118L327.447 94.7115L327.447 94.7112L327.447 94.7109L327.447 94.7107L327.447 94.7104L327.447 94.7101L327.447 94.7098L327.447 94.7095L327.447 94.7092L327.447 94.709L327.447 94.7087L327.447 94.7084L327.447 94.7081L327.447 94.7078L327.447 94.7076L327.447 94.7073L327.447 94.707L327.447 94.7067L327.447 94.7064L327.447 94.7062L327.447 94.7059L327.447 94.7056L327.447 94.7053L327.447 94.705L327.447 94.7048L327.447 94.7045L327.447 94.7042L327.447 94.7039L327.446 94.7036L327.446 94.7034L327.446 94.7031L327.446 94.7028L327.446 94.7025L327.446 94.7022L327.446 94.702L327.446 94.7017L327.446 94.7014L327.446 94.7011L327.446 94.7008L327.446 94.7006L327.446 94.7003L327.446 94.7L327.446 94.6997L327.446 94.6994L327.446 94.6992L327.446 94.6989L327.446 94.6986L327.446 94.6983L327.446 94.698L327.446 94.6978L327.446 94.6975L327.446 94.6972L327.446 94.6969L327.446 94.6966L327.446 94.6964L327.446 94.6961L327.446 94.6958L327.446 94.6955L327.446 94.6952L327.446 94.695L327.445 94.6947L327.445 94.6944L327.445 94.6941L327.445 94.6938L327.445 94.6936L327.445 94.6933L327.445 94.693L327.445 94.6927L327.445 94.6924L327.445 94.6922L327.445 94.6919L327.445 94.6916L327.445 94.6913L327.445 94.691L327.445 94.6908L327.445 94.6905L327.445 94.6902L327.445 94.6899L327.445 94.6896L327.445 94.6894L327.445 94.6891L327.445 94.6888L327.445 94.6885L327.445 94.6882L327.445 94.688L327.445 94.6877L327.445 94.6874L327.445 94.6871L327.445 94.6868L327.445 94.6866L327.445 94.6863L327.444 94.686L327.444 94.6857L327.444 94.6854L327.444 94.6851L327.444 94.6849L327.444 94.6846L327.444 94.6843L327.444 94.684L327.444 94.6837L327.444 94.6835L327.444 94.6832L327.444 94.6829L327.444 94.6826L327.444 94.6823L327.444 94.6821L327.444 94.6818L327.444 94.6815L327.444 94.6812L327.444 94.6809L327.444 94.6806L327.444 94.6804L327.444 94.6801L327.444 94.6798L327.444 94.6795L327.444 94.6792L327.444 94.679L327.444 94.6787L327.444 94.6784L327.444 94.6781L327.444 94.6778L327.444 94.6775L327.443 94.6773L327.443 94.677L327.443 94.6767L327.443 94.6764L327.443 94.6761L327.443 94.6759L327.443 94.6756L327.443 94.6753L327.443 94.675L327.443 94.6747L327.443 94.6745L327.443 94.6742L327.443 94.6739L327.443 94.6736L327.443 94.6733L327.443 94.673L327.443 94.6728L327.443 94.6725L327.443 94.6722L324.049 64.9403ZM275.38 105.054L275.138 105.082L275.139 105.096C273.736 105.146 272.122 104.272 271.897 102.299L268.358 71.2976L268.358 71.2975L268.358 71.2975L268.358 71.2974L268.358 71.2974L268.358 71.2973L268.358 71.2973L268.358 71.2973L268.358 71.2972L268.358 71.2972L268.358 71.2971L268.358 71.2971L268.358 71.297L268.358 71.297L268.358 71.2969L268.358 71.2969L268.358 71.2968L268.358 71.2968L268.358 71.2967L268.358 71.2967L268.358 71.2966L268.358 71.2966L268.358 71.2965L268.358 71.2965L268.358 71.2964L268.358 71.2964L268.358 71.2963L268.358 71.2963L268.358 71.2962L268.358 71.2962L268.357 71.2961L268.357 71.2961L268.357 71.296L268.357 71.296L268.357 71.2959L268.357 71.2959L268.357 71.2958L268.357 71.2958L268.357 71.2958L268.357 71.2957L268.357 71.2957L268.357 71.2956L268.357 71.2956L268.357 71.2955L268.357 71.2955L268.357 71.2954L268.357 71.2954L268.357 71.2953L268.357 71.2953L268.357 71.2952L268.357 71.2952L268.357 71.2951L268.357 71.2951L268.357 71.295L268.357 71.295L268.357 71.2949L268.357 71.2949L268.357 71.2948L268.357 71.2948L268.357 71.2947L268.357 71.2947L268.357 71.2946L268.357 71.2946L268.357 71.2945L268.357 71.2945L268.357 71.2944L268.357 71.2944L268.357 71.2943L268.357 71.2943L268.357 71.2943L268.357 71.2942L268.357 71.2942L268.357 71.2941L268.357 71.2941L268.357 71.294L268.357 71.294L268.357 71.2939L268.357 71.2939L268.357 71.2938L268.357 71.2938L268.357 71.2937L268.357 71.2937L268.357 71.2936L268.357 71.2936L268.357 71.2935L268.357 71.2935L268.357 71.2934L268.357 71.2934L268.357 71.2933L268.357 71.2933L268.357 71.2932L268.357 71.2932L268.357 71.2931L268.357 71.2931L268.357 71.293L268.357 71.293L268.357 71.2929L268.357 71.2929L268.357 71.2928L268.357 71.2928L268.357 71.2928L268.357 71.2927L268.357 71.2927L268.357 71.2926L268.357 71.2926L268.357 71.2925L268.357 71.2925L268.357 71.2924L268.357 71.2924L268.357 71.2923L268.357 71.2922L268.357 71.2922L268.357 71.2921L268.357 71.2921L268.357 71.292L268.357 71.292L268.357 71.2919L268.357 71.2919L268.357 71.2918L268.357 71.2918L268.357 71.2917L268.357 71.2916L268.357 71.2916L268.357 71.2915L268.357 71.2915L268.357 71.2914L268.357 71.2913L268.357 71.2913L268.357 71.2913L268.357 71.2912L268.357 71.2912L268.357 71.2911L268.357 71.291L268.357 71.291L268.357 71.2909L268.357 71.2909L268.357 71.2908L268.357 71.2907L268.357 71.2907L268.357 71.2906L268.357 71.2905L268.357 71.2905L268.357 71.2904L268.357 71.2903L268.357 71.2903L268.357 71.2902L268.357 71.2901L268.357 71.2901L268.357 71.29L268.357 71.2899L268.357 71.2899L268.357 71.2898L268.357 71.2897L268.357 71.2897L268.357 71.2896L268.357 71.2896L268.357 71.2895L268.357 71.2894L268.357 71.2894L268.357 71.2893L268.357 71.2892L268.357 71.2891L268.357 71.2891L268.357 71.289L268.357 71.2889L268.357 71.2889L268.357 71.2888L268.357 71.2887L268.357 71.2886L268.357 71.2886L268.357 71.2885L268.357 71.2884L268.357 71.2883L268.357 71.2882L268.357 71.2882L268.357 71.2881L268.357 71.2881L268.357 71.288L268.357 71.2879L268.357 71.2878L268.357 71.2877L268.357 71.2877L268.357 71.2876L268.357 71.2875L268.357 71.2874L268.356 71.2873L268.356 71.2873L268.356 71.2872L268.356 71.2871L268.356 71.287L268.356 71.2869L268.356 71.2868L268.356 71.2868L268.356 71.2867L268.356 71.2866L268.356 71.2865L268.356 71.2865L268.356 71.2864L268.356 71.2863L268.356 71.2862L268.356 71.2861L268.356 71.286L268.356 71.2859L268.356 71.2858L268.356 71.2857L268.356 71.2857L268.356 71.2856L268.356 71.2855L268.356 71.2854L268.356 71.2853L268.356 71.2852L268.356 71.2851L268.356 71.2851L268.356 71.285L268.356 71.2849L268.356 71.2848L268.356 71.2847L268.356 71.2846L268.356 71.2845L268.356 71.2844L268.356 71.2843L268.356 71.2842L268.356 71.2841L268.356 71.284L268.356 71.2839L268.356 71.2838L268.356 71.2837L268.356 71.2836L268.356 71.2835L268.356 71.2834L268.356 71.2833L268.356 71.2832L268.356 71.2831L268.356 71.283L268.356 71.2829L268.356 71.2828L268.356 71.2827L268.356 71.2826L268.356 71.2825L268.356 71.2824L268.356 71.2823L268.356 71.2822L268.356 71.2821L268.356 71.282L268.356 71.2819L268.356 71.2818L268.356 71.2817L268.356 71.2816L268.356 71.2815L268.356 71.2813L268.356 71.2812L268.356 71.2811L268.356 71.281L268.356 71.2809L268.356 71.2808L268.356 71.2807L268.356 71.2806L268.356 71.2805L268.356 71.2804L268.356 71.2802L268.356 71.2801L268.356 71.28L268.356 71.2799L268.356 71.2798L268.356 71.2797L268.356 71.2795L268.356 71.2794L268.356 71.2793L268.356 71.2792L268.356 71.2791L268.356 71.279L268.356 71.2789L268.356 71.2787L268.355 71.2786L268.355 71.2785L268.355 71.2784L268.355 71.2782L268.355 71.2781L268.355 71.278L268.355 71.2779L268.355 71.2777L268.355 71.2776L268.355 71.2775L268.355 71.2774L268.355 71.2773L268.355 71.2771L268.355 71.277L268.355 71.2769L268.355 71.2767L268.355 71.2766L268.355 71.2765L268.355 71.2763L268.355 71.2762L268.355 71.2761L268.355 71.276L268.355 71.2758L268.355 71.2757L268.355 71.2756L268.355 71.2754L268.355 71.2753L268.355 71.2752L268.355 71.275L268.355 71.2749L268.355 71.2747L268.355 71.2746L268.355 71.2745L268.355 71.2744L268.355 71.2742L268.355 71.2741L268.355 71.2739L268.355 71.2738L268.355 71.2736C268.189 69.8157 269.044 68.018 271.125 67.7805L314.435 62.8365C315.99 62.659 317.711 63.7754 317.919 65.5915L317.922 65.6155L321.46 96.6172L321.463 96.6411C321.641 98.1964 320.505 99.9032 318.69 100.11L275.38 105.054Z" fill="#75FEFA" stroke="#75FEFA" stroke-width="0.4"/>
<path d="M371.66 68.8479C370.175 69.0174 368.349 68.156 368.111 66.0627C367.916 64.363 366.358 63.1425 364.645 63.3381L339.452 66.2139C337.739 66.4095 336.495 67.9498 336.689 69.6495C336.87 71.2332 335.711 72.9515 333.858 73.1631C332.145 73.3586 330.902 74.8989 331.096 76.5986L333.938 101.492C334.132 103.192 335.69 104.412 337.403 104.217C339.116 104.021 340.36 102.481 340.166 100.781L337.321 75.8636L337.319 75.8415C337.178 74.3987 338.052 72.5898 340.152 72.3501L365.345 69.4743C366.955 69.2905 368.687 70.4355 368.895 72.2594L371.739 97.1773C371.933 98.8769 373.492 100.097 375.205 99.9017C376.918 99.7061 378.162 98.1659 377.968 96.4663L375.123 71.5484C374.929 69.8461 373.37 68.6527 371.66 68.8479Z" fill="#75FEFA" stroke="#75FEFA" stroke-width="0.4"/>
<path d="M76.0141 90.1443L76.0103 90.1448C74.3519 90.3604 73.1357 91.8936 73.3285 93.5828L76.8657 124.569C77.0585 126.259 78.5906 127.48 80.2783 127.287C81.7095 127.124 83.5008 127.959 83.7589 130.018L83.7589 130.018L83.7589 130.018L83.759 130.018L83.759 130.019L83.759 130.019L83.759 130.019L83.759 130.019L83.759 130.019L83.7591 130.019L83.7591 130.019L83.7591 130.02L83.7591 130.02L83.7591 130.02L83.7591 130.02L83.7591 130.02L83.7592 130.02L83.7592 130.02L83.7592 130.02L83.7592 130.021L83.7592 130.021L83.7592 130.021L83.7592 130.021L83.7593 130.021L83.7593 130.021L83.7593 130.021L83.7593 130.021L83.7593 130.022L83.7593 130.022L83.7593 130.022L83.7594 130.022L83.7594 130.022L83.7594 130.022L83.7594 130.022L83.7594 130.022L83.7594 130.022L83.7594 130.023L83.7594 130.023L83.7595 130.023L83.7595 130.023L83.7595 130.023L83.7595 130.023L83.7595 130.023L83.7595 130.023L83.7595 130.024L83.7596 130.024L83.7596 130.024L83.7596 130.024L83.7596 130.024L83.7596 130.024L83.7596 130.024L83.7596 130.024L83.7596 130.024L83.7597 130.025L83.7597 130.025L83.7597 130.025L83.7597 130.025L83.7597 130.025L83.7597 130.025L83.7597 130.025L83.7597 130.025L83.7598 130.025L83.7598 130.026L83.7598 130.026L83.7598 130.026L83.7598 130.026L83.7598 130.026L83.7598 130.026L83.7598 130.026L83.7599 130.026L83.7599 130.026L83.7599 130.026L83.7599 130.027L83.7599 130.027L83.7599 130.027L83.7599 130.027L83.7599 130.027L83.7599 130.027L83.76 130.027L83.76 130.027L83.76 130.027L83.76 130.028L83.76 130.028L83.76 130.028L83.76 130.028L83.76 130.028L83.7601 130.028L83.7601 130.028L83.7601 130.028L83.7601 130.028L83.7601 130.028L83.7601 130.028L83.7601 130.029L83.7601 130.029L83.7601 130.029L83.7602 130.029L83.7602 130.029L83.7602 130.029L83.7602 130.029L83.7602 130.029L83.7602 130.029L83.7602 130.029L83.7602 130.029L83.7602 130.03L83.7602 130.03L83.7603 130.03L83.7603 130.03L83.7603 130.03L83.7603 130.03L83.7603 130.03L83.7603 130.03L83.7603 130.03L83.7603 130.03L83.7603 130.031L83.7603 130.031L83.7604 130.031L83.7604 130.031L83.7604 130.031L83.7604 130.031L83.7604 130.031L83.7604 130.031L83.7604 130.031L83.7604 130.031L83.7604 130.031L83.7604 130.031L83.7605 130.032L83.7605 130.032L83.7605 130.032L83.7605 130.032L83.7605 130.032L83.7605 130.032L83.7605 130.032L83.7605 130.032L83.7605 130.032L83.7605 130.032L83.7606 130.032L83.7606 130.032L83.7606 130.033L83.7606 130.033L83.7606 130.033L83.7606 130.033L83.7606 130.033L83.7606 130.033L83.7606 130.033L83.7606 130.033L83.7606 130.033L83.7607 130.033L83.7607 130.033L83.7607 130.033L83.7607 130.034L83.7607 130.034L83.7607 130.034L83.7607 130.034L83.7607 130.034L83.7607 130.034L83.7607 130.034L83.7607 130.034L83.7608 130.034L83.7608 130.034L83.7608 130.034L83.7608 130.034L83.7608 130.035L83.7608 130.035L83.7608 130.035L83.7608 130.035L83.7608 130.035L83.7608 130.035L83.7608 130.035L83.7609 130.035L83.7609 130.035L83.7609 130.035L83.7609 130.035L83.7609 130.035L83.7609 130.035L83.7609 130.035L83.7609 130.036L83.7609 130.036L83.7609 130.036L83.7609 130.036L83.761 130.036L83.761 130.036L83.761 130.036L83.761 130.036L83.761 130.036L83.761 130.036L83.761 130.036L83.761 130.036L83.761 130.036L83.761 130.037L83.761 130.037L83.761 130.037L83.7611 130.037L83.7611 130.037L83.7611 130.037L83.7611 130.037L83.7611 130.037L83.7611 130.037L83.7611 130.037L83.7611 130.037L83.7611 130.037L83.7611 130.037L83.7611 130.037L83.7611 130.038L83.7612 130.038L83.7612 130.038L83.7612 130.038L83.7612 130.038L83.7612 130.038L83.7612 130.038L83.7612 130.038L83.7612 130.038L83.7612 130.038L83.7612 130.038L83.7612 130.038L83.7612 130.038L83.7613 130.038L83.7613 130.039L83.7613 130.039L83.7613 130.039L83.7613 130.039L83.7613 130.039L83.7613 130.039L83.7613 130.039L83.7613 130.039L83.7613 130.039L83.7613 130.039L83.7613 130.039L83.7614 130.039L83.7614 130.039L83.7614 130.04L83.7614 130.04L83.7614 130.04L83.7614 130.04L83.7614 130.04L83.7614 130.04L83.7614 130.04L83.7614 130.04L83.7614 130.04L83.7614 130.04L83.7614 130.04L83.7615 130.04L83.7615 130.04L83.7615 130.04L83.7615 130.04L83.7615 130.041L83.7615 130.041L83.7615 130.041L83.7615 130.041L83.7615 130.041L83.7615 130.041L83.7615 130.041L83.7615 130.041L83.7615 130.041L83.7616 130.041L83.7616 130.041L83.7616 130.041L83.7616 130.041L83.7616 130.041L83.7616 130.042L83.7616 130.042L83.7616 130.042L83.7616 130.042L83.7616 130.042L83.7616 130.042L83.7616 130.042L83.7617 130.042L83.7617 130.042L83.7617 130.042L83.7617 130.042L83.7617 130.042L83.7617 130.042L83.7617 130.042L83.7617 130.043L83.7617 130.043L83.7617 130.043L83.7617 130.043L83.7617 130.043L83.7618 130.043L83.7618 130.043L83.7618 130.043L83.7618 130.043L83.7618 130.043L83.7618 130.043L83.7618 130.043L83.7618 130.043L83.7618 130.043L83.7618 130.044L83.7618 130.044L83.7618 130.044L83.7618 130.044L83.7619 130.044L83.7619 130.044L83.7619 130.044L83.7619 130.044L83.7619 130.044L83.7619 130.044L83.7619 130.044L83.7619 130.044L83.7619 130.044L83.7619 130.044L83.7619 130.045L83.7619 130.045L83.762 130.045L83.762 130.045L83.762 130.045L83.762 130.045L83.762 130.045L83.762 130.045L83.762 130.045L83.762 130.045L83.762 130.045L83.762 130.045L83.762 130.045L83.7621 130.046L83.7621 130.046L83.7621 130.046L83.7621 130.046L83.7621 130.046L83.7621 130.046L83.7621 130.046L83.7621 130.046L83.7621 130.046L83.7621 130.046L83.7621 130.046L83.7621 130.046L83.7622 130.046L83.7622 130.046L83.7622 130.047L83.7622 130.047L83.7622 130.047L83.7622 130.047L83.7622 130.047L83.7622 130.047L83.7622 130.047L83.7622 130.047L83.7622 130.047L83.7623 130.047L83.7623 130.047L83.7623 130.047L83.7623 130.047L83.7623 130.048L83.7623 130.048L83.7623 130.048L83.7623 130.048L83.7623 130.048L83.7623 130.048L83.7623 130.048L83.7624 130.048L83.7624 130.048L83.7624 130.048L83.7624 130.048L83.7624 130.048L83.7624 130.049L83.7624 130.049L83.7624 130.049L83.7624 130.049L83.7624 130.049L83.7624 130.049L83.7625 130.049L83.7625 130.049L83.7625 130.049L83.7625 130.049L83.7625 130.049L83.7625 130.049L83.7625 130.05L83.7625 130.05L83.7625 130.05L83.7625 130.05L83.7625 130.05L83.7626 130.05L83.7626 130.05L83.7626 130.05L83.7626 130.05L83.7626 130.05L83.7626 130.05L83.7626 130.05L83.7626 130.051L83.7626 130.051L83.7626 130.051L83.7627 130.051L83.7627 130.051L83.7627 130.051L83.7627 130.051L83.7627 130.051L83.7627 130.051L83.7627 130.051L83.7627 130.051L83.7627 130.052L83.7628 130.052L83.7628 130.052L83.7628 130.052L83.7628 130.052L83.7628 130.052L83.7628 130.052L83.7628 130.052L83.7628 130.052L83.7628 130.052L83.7628 130.052L83.7629 130.053L83.7629 130.053L83.7629 130.053L83.7629 130.053L83.7629 130.053L83.7629 130.053L83.7629 130.053L83.7629 130.053L83.7629 130.053L83.763 130.053L83.763 130.054L83.763 130.054L83.763 130.054L83.763 130.054L83.763 130.054L83.763 130.054L83.763 130.054L83.763 130.054L83.7631 130.054L83.7631 130.054L83.7631 130.055L83.7631 130.055L83.7631 130.055L83.7631 130.055L83.7631 130.055L83.7631 130.055L83.7632 130.055L83.7632 130.055L83.7632 130.055L83.7632 130.055L83.7632 130.056L83.7632 130.056L83.7632 130.056L83.7632 130.056L83.7633 130.056L83.7633 130.056L83.7633 130.056L83.7633 130.056L83.7633 130.056L83.7633 130.057L83.7633 130.057L83.7633 130.057L83.7633 130.057L83.7634 130.057L83.7634 130.057L83.7634 130.057L83.7634 130.057L83.7634 130.057L83.7634 130.058L83.7634 130.058L83.7634 130.058L83.7635 130.058L83.7635 130.058L83.7635 130.058L83.7635 130.058L83.7635 130.058L83.7635 130.058L83.7635 130.059L83.7636 130.059L83.7636 130.059L83.7636 130.059L83.7636 130.059L83.7636 130.059L83.7636 130.059L83.7636 130.059L83.7636 130.059L83.7637 130.06L83.7637 130.06L83.7637 130.06L83.7637 130.06L83.7637 130.06L83.7637 130.06L83.7637 130.06L83.7638 130.06L83.7638 130.061L83.7638 130.061L83.7638 130.061L83.7638 130.061L83.7638 130.061L83.7638 130.061L83.7639 130.061L83.7639 130.061L83.7639 130.062L83.7639 130.062L83.7639 130.062L83.7639 130.062L83.764 130.062L83.764 130.062L83.764 130.062L83.764 130.063L83.764 130.063L83.764 130.063L83.764 130.063L83.7641 130.063L83.7641 130.063L83.7641 130.063L83.7641 130.063L83.7641 130.064L83.7641 130.064L83.7641 130.064L83.7642 130.064L83.7642 130.064L83.7642 130.064L83.7642 130.064L83.7642 130.065L83.7642 130.065C83.9571 131.754 85.4891 132.975 87.1769 132.783L130.487 127.839C132.175 127.646 133.392 126.111 133.2 124.422C133.033 122.964 133.889 121.168 135.97 120.93C137.658 120.737 138.875 119.203 138.682 117.513C138.489 115.823 136.957 114.602 135.269 114.795C133.582 114.987 132.365 116.522 132.557 118.212L132.56 118.234C132.715 119.796 131.598 121.497 129.787 121.704L86.4765 126.647C84.9012 126.827 83.1981 125.688 82.9905 123.87L79.4533 92.8836L79.4533 92.8835L79.4533 92.8835L79.4533 92.8834L79.4533 92.8834L79.4533 92.8834L79.4533 92.8833L79.4533 92.8833L79.4533 92.8832L79.4533 92.8832L79.4532 92.8831L79.4532 92.8831L79.4532 92.883L79.4532 92.883L79.4532 92.8829L79.4532 92.8829L79.4532 92.8828L79.4532 92.8828L79.4532 92.8827L79.4532 92.8827L79.4532 92.8826L79.4532 92.8826L79.4532 92.8825L79.4532 92.8825L79.4532 92.8824L79.4532 92.8824L79.4532 92.8823L79.4532 92.8823L79.4531 92.8822L79.4531 92.8822L79.4531 92.8821L79.4531 92.8821L79.4531 92.882L79.4531 92.882L79.4531 92.8819L79.4531 92.8819L79.4531 92.8819L79.4531 92.8818L79.4531 92.8818L79.4531 92.8817L79.4531 92.8817L79.4531 92.8816L79.4531 92.8816L79.4531 92.8815L79.4531 92.8815L79.4531 92.8814L79.453 92.8814L79.453 92.8813L79.453 92.8813L79.453 92.8812L79.453 92.8812L79.453 92.8811L79.453 92.8811L79.453 92.881L79.453 92.881L79.453 92.8809L79.453 92.8809L79.453 92.8808L79.453 92.8808L79.453 92.8807L79.453 92.8807L79.453 92.8806L79.453 92.8806L79.453 92.8805L79.4529 92.8805L79.4529 92.8804L79.4529 92.8804L79.4529 92.8803L79.4529 92.8803L79.4529 92.8803L79.4529 92.8802L79.4529 92.8802L79.4529 92.8801L79.4529 92.8801L79.4529 92.88L79.4529 92.88L79.4529 92.8799L79.4529 92.8799L79.4529 92.8798L79.4529 92.8798L79.4529 92.8797L79.4529 92.8797L79.4528 92.8796L79.4528 92.8796L79.4528 92.8795L79.4528 92.8795L79.4528 92.8794L79.4528 92.8794L79.4528 92.8793L79.4528 92.8793L79.4528 92.8792L79.4528 92.8792L79.4528 92.8791L79.4528 92.8791L79.4528 92.879L79.4528 92.879L79.4528 92.8789L79.4528 92.8789L79.4528 92.8788L79.4528 92.8788L79.4527 92.8788L79.4527 92.8787L79.4527 92.8787L79.4527 92.8786L79.4527 92.8786L79.4527 92.8785L79.4527 92.8785L79.4527 92.8784L79.4527 92.8784L79.4527 92.8783L79.4527 92.8783L79.4527 92.8782L79.4527 92.8782L79.4527 92.8781L79.4527 92.8781L79.4527 92.878L79.4527 92.878L79.4527 92.8779L79.4526 92.8778L79.4526 92.8778L79.4526 92.8777L79.4526 92.8777L79.4526 92.8776L79.4526 92.8776L79.4526 92.8775L79.4526 92.8774L79.4526 92.8774L79.4526 92.8774L79.4526 92.8773L79.4526 92.8773L79.4526 92.8772L79.4526 92.8771L79.4526 92.8771L79.4525 92.877L79.4525 92.877L79.4525 92.8769L79.4525 92.8768L79.4525 92.8768L79.4525 92.8767L79.4525 92.8766L79.4525 92.8766L79.4525 92.8765L79.4525 92.8765L79.4525 92.8764L79.4525 92.8763L79.4525 92.8763L79.4525 92.8762L79.4525 92.8761L79.4524 92.8761L79.4524 92.876L79.4524 92.8759L79.4524 92.8759L79.4524 92.8758L79.4524 92.8758L79.4524 92.8757L79.4524 92.8756L79.4524 92.8756L79.4524 92.8755L79.4524 92.8754L79.4524 92.8753L79.4524 92.8753L79.4523 92.8752L79.4523 92.8751L79.4523 92.8751L79.4523 92.875L79.4523 92.8749L79.4523 92.8748L79.4523 92.8748L79.4523 92.8747L79.4523 92.8746L79.4523 92.8745L79.4523 92.8745L79.4523 92.8744L79.4522 92.8743L79.4522 92.8743L79.4522 92.8742L79.4522 92.8741L79.4522 92.874L79.4522 92.874L79.4522 92.8739L79.4522 92.8738L79.4522 92.8737L79.4522 92.8736L79.4522 92.8736L79.4521 92.8735L79.4521 92.8734L79.4521 92.8733L79.4521 92.8732L79.4521 92.8732L79.4521 92.8731L79.4521 92.873L79.4521 92.8729L79.4521 92.8728L79.4521 92.8728L79.4521 92.8727L79.452 92.8726L79.452 92.8725L79.452 92.8724L79.452 92.8724L79.452 92.8723L79.452 92.8722L79.452 92.8721L79.452 92.872L79.452 92.8719L79.452 92.8718L79.4519 92.8717L79.4519 92.8716L79.4519 92.8715L79.4519 92.8715L79.4519 92.8714L79.4519 92.8713L79.4519 92.8712L79.4519 92.8711L79.4519 92.871L79.4519 92.8709L79.4518 92.8708L79.4518 92.8708L79.4518 92.8707L79.4518 92.8706L79.4518 92.8705L79.4518 92.8704L79.4518 92.8703L79.4518 92.8702L79.4518 92.8701L79.4517 92.87L79.4517 92.8699L79.4517 92.8698L79.4517 92.8697L79.4517 92.8696L79.4517 92.8695L79.4517 92.8694L79.4517 92.8693L79.4517 92.8692L79.4516 92.8691L79.4516 92.869L79.4516 92.8689L79.4516 92.8688L79.4516 92.8687L79.4516 92.8686L79.4516 92.8685L79.4516 92.8684L79.4516 92.8683L79.4515 92.8682L79.4515 92.8681L79.4515 92.868L79.4515 92.8679L79.4515 92.8678L79.4515 92.8677L79.4515 92.8675L79.4515 92.8674L79.4514 92.8673L79.4514 92.8672L79.4514 92.8671L79.4514 92.867L79.4514 92.8669L79.4514 92.8668L79.4514 92.8667L79.4514 92.8666L79.4513 92.8665L79.4513 92.8663L79.4513 92.8662L79.4513 92.8661L79.4513 92.866L79.4513 92.8659L79.4513 92.8658L79.4513 92.8656L79.4512 92.8655L79.4512 92.8654L79.4512 92.8653L79.4512 92.8652L79.4512 92.8651L79.4512 92.865L79.4512 92.8648L79.4511 92.8647L79.4511 92.8646L79.4511 92.8645L79.4511 92.8643L79.4511 92.8642L79.4511 92.8641L79.4511 92.864L79.451 92.8638L79.451 92.8637L79.451 92.8636L79.451 92.8635L79.451 92.8634L79.451 92.8632L79.451 92.8631L79.4509 92.863L79.4509 92.8629L79.4509 92.8627L79.4509 92.8626L79.4509 92.8625L79.4509 92.8623L79.4509 92.8622L79.4508 92.8621L79.4508 92.862L79.4508 92.8618L79.4508 92.8617L79.4508 92.8616L79.4508 92.8614L79.4508 92.8613L79.4507 92.8611L79.4507 92.861L79.4507 92.8609L79.4507 92.8607L79.4507 92.8606L79.4507 92.8605L79.4506 92.8604L79.4506 92.8602L79.4506 92.8601L79.4506 92.8599L79.4506 92.8598L79.4506 92.8596C79.2842 91.4026 80.1396 89.6057 82.221 89.3681L125.531 84.4241C126.984 84.2583 128.778 85.1147 129.017 87.1996C129.188 88.9202 130.721 90.1146 132.406 89.9223C134.094 89.7296 135.311 88.1948 135.118 86.505C134.926 84.8153 133.393 83.5943 131.706 83.7869C130.13 83.9668 128.427 82.8279 128.219 81.0096C128.027 79.3199 126.495 78.0989 124.807 78.2915L81.4967 83.2355C79.809 83.4282 78.5916 84.963 78.7844 86.6528C78.9647 88.2321 77.8279 89.9372 76.0141 90.1443Z" fill="#75FEFA" stroke="#75FEFA" stroke-width="0.4"/>
<path d="M386.441 60.8493L386.199 60.877L386.227 61.1189L386.885 66.8876L386.913 67.1296L387.155 67.102L416.118 63.7957L416.36 63.7681L416.333 63.5261L415.674 57.7575L415.647 57.5155L415.405 57.5431L386.441 60.8493Z" fill="#75FEFA" stroke="#75FEFA" stroke-width="0.4"/>
<path d="M424.459 75.0218L424.7 74.9942L424.673 74.7522L423.466 64.1758L423.438 63.9338L423.196 63.9614L417.541 64.6069L417.299 64.6346L417.327 64.8766L417.88 69.7252L386.65 73.2903L386.096 68.4416L386.068 68.1996L385.826 68.2273L380.172 68.8728L379.93 68.9004L379.957 69.1424L382.536 91.7363L382.564 91.9783L382.806 91.9507L388.461 91.3052L388.703 91.2776L388.675 91.0356L387.331 79.26L418.804 75.6673L421.619 75.346L424.459 75.0218Z" fill="#75FEFA" stroke="#75FEFA" stroke-width="0.4"/>
<path d="M389.879 92.1071L389.637 92.1348L389.664 92.3768L390.295 97.9048L390.323 98.1468L390.565 98.1192L419.649 94.7992L419.891 94.7716L419.863 94.5296L419.232 89.0015L419.205 88.7595L418.963 88.7871L389.879 92.1071Z" fill="#75FEFA" stroke="#75FEFA" stroke-width="0.4"/>
<path d="M425.501 81.96L425.473 81.718L425.231 81.7456L419.703 82.3767L419.461 82.4043L419.489 82.6463L419.758 85.0092L419.758 85.0093L419.758 85.0094L419.758 85.0095L419.758 85.0096L419.758 85.0098L419.758 85.0099L419.758 85.01L419.758 85.0101L419.758 85.0102L419.758 85.0103L419.758 85.0104L419.758 85.0105L419.758 85.0107L419.758 85.0108L419.758 85.0109L419.759 85.011L419.759 85.0111L419.759 85.0112L419.759 85.0114L419.759 85.0115L419.759 85.0116L419.759 85.0117L419.759 85.0118L419.759 85.0119L419.759 85.012L419.759 85.0121L419.759 85.0122L419.759 85.0123L419.759 85.0124L419.759 85.0125L419.759 85.0127L419.759 85.0128L419.759 85.0129L419.759 85.013L419.759 85.0131L419.759 85.0132L419.759 85.0133L419.759 85.0134L419.759 85.0135L419.759 85.0136L419.759 85.0137L419.759 85.0138L419.759 85.0139L419.759 85.014L419.759 85.0141L419.759 85.0142L419.759 85.0143L419.759 85.0144L419.759 85.0145L419.759 85.0146L419.759 85.0147L419.759 85.0148L419.759 85.0149L419.759 85.015L419.759 85.0151L419.759 85.0152L419.759 85.0153L419.759 85.0154L419.759 85.0155L419.759 85.0156L419.759 85.0156L419.759 85.0157L419.759 85.0158L419.759 85.0159L419.759 85.016L419.759 85.0161L419.759 85.0162L419.759 85.0163L419.759 85.0164L419.759 85.0165L419.759 85.0166L419.759 85.0166L419.759 85.0167L419.759 85.0168L419.759 85.0169L419.759 85.017L419.759 85.0171L419.759 85.0172L419.759 85.0173L419.759 85.0174L419.759 85.0175L419.759 85.0176L419.759 85.0177L419.759 85.0177L419.759 85.0178L419.759 85.0179L419.759 85.018L419.759 85.0181L419.759 85.0181L419.759 85.0182L419.759 85.0183L419.759 85.0184L419.759 85.0185L419.759 85.0186L419.759 85.0187L419.759 85.0187L419.759 85.0188L419.759 85.0189L419.759 85.019L419.759 85.0191L419.759 85.0192L419.759 85.0193L419.759 85.0193L419.759 85.0194L419.759 85.0195L419.759 85.0195L419.759 85.0196L419.759 85.0197L419.76 85.0198L419.76 85.0199L419.76 85.02L419.76 85.02L419.76 85.0201L419.76 85.0202L419.76 85.0203L419.76 85.0204L419.76 85.0204L419.76 85.0205L419.76 85.0206L419.76 85.0207L419.76 85.0208L419.76 85.0208L419.76 85.0209L419.76 85.0209L419.76 85.021L419.76 85.0211L419.76 85.0212L419.76 85.0212L419.76 85.0213L419.76 85.0214L419.76 85.0215L419.76 85.0216L419.76 85.0216L419.76 85.0217L419.76 85.0218L419.76 85.0219L419.76 85.0219L419.76 85.022L419.76 85.0221L419.76 85.0222L419.76 85.0222L419.76 85.0223L419.76 85.0223L419.76 85.0224L419.76 85.0225L419.76 85.0225L419.76 85.0226L419.76 85.0227L419.76 85.0228L419.76 85.0228L419.76 85.0229L419.76 85.023L419.76 85.0231L419.76 85.0231L419.76 85.0232L419.76 85.0233L419.76 85.0233L419.76 85.0234L419.76 85.0235L419.76 85.0236L419.76 85.0236L419.76 85.0237L419.76 85.0238L419.76 85.0238L419.76 85.0239L419.76 85.0239L419.76 85.024L419.76 85.0241L419.76 85.0241L419.76 85.0242L419.76 85.0243L419.76 85.0243L419.76 85.0244L419.76 85.0245L419.76 85.0245L419.76 85.0246L419.76 85.0247L419.76 85.0247L419.76 85.0248L419.76 85.0249L419.76 85.0249L419.76 85.025L419.76 85.0251L419.76 85.0251L419.76 85.0252L419.76 85.0253L419.76 85.0253L419.76 85.0254L419.76 85.0254L419.76 85.0255L419.76 85.0256L419.76 85.0256L419.76 85.0257L419.76 85.0258L419.76 85.0258L419.76 85.0259L419.76 85.0259L419.76 85.026L419.76 85.0261L419.76 85.0261L419.76 85.0262L419.76 85.0263L419.76 85.0263L419.76 85.0264L419.76 85.0265L419.76 85.0265L419.76 85.0266L419.76 85.0267L419.76 85.0267L419.76 85.0268L419.76 85.0268L419.76 85.0269L419.76 85.0269L419.76 85.027L419.76 85.027L419.76 85.0271L419.76 85.0272L419.76 85.0272L419.76 85.0273L419.76 85.0274L419.76 85.0274L419.76 85.0275L419.76 85.0276L419.76 85.0276L419.76 85.0277L419.76 85.0277L419.76 85.0278L419.76 85.0279L419.76 85.0279L419.76 85.028L419.76 85.0281L419.76 85.0281L419.76 85.0282L419.76 85.0282L419.76 85.0283L419.76 85.0283L419.76 85.0284L419.76 85.0284L419.76 85.0285L419.761 85.0286L419.761 85.0286L419.761 85.0287L419.761 85.0287L419.761 85.0288L419.761 85.0289L419.761 85.0289L419.761 85.029L419.761 85.0291L419.761 85.0291L419.761 85.0292L419.761 85.0292L419.761 85.0293L419.761 85.0294L419.761 85.0294L419.761 85.0295L419.761 85.0295L419.761 85.0296L419.761 85.0297L419.761 85.0297L419.761 85.0298L419.761 85.0298L419.761 85.0299L419.761 85.0299L419.761 85.03L419.761 85.0301L419.761 85.0301L419.761 85.0302L419.761 85.0302L419.761 85.0303L419.761 85.0304L419.761 85.0304L419.761 85.0305L419.761 85.0305L419.761 85.0306L419.761 85.0307L419.761 85.0307L419.761 85.0308L419.761 85.0309L419.761 85.0309L419.761 85.031L419.761 85.031L419.761 85.0311L419.761 85.0312L419.761 85.0312L419.761 85.0313L419.761 85.0314L419.761 85.0314L419.761 85.0314L419.761 85.0315L419.761 85.0316L419.761 85.0316L419.761 85.0317L419.761 85.0317L419.761 85.0318L419.761 85.0319L419.761 85.0319L419.761 85.032L419.761 85.0321L419.761 85.0321L419.761 85.0322L419.761 85.0323L419.761 85.0323L419.761 85.0324L419.761 85.0324L419.761 85.0325L419.761 85.0326L419.761 85.0326L419.761 85.0327L419.761 85.0328L419.761 85.0328L419.761 85.0329L419.761 85.0329L419.761 85.033L419.761 85.033L419.761 85.0331L419.761 85.0332L419.761 85.0332L419.761 85.0333L419.761 85.0334L419.761 85.0334L419.761 85.0335L419.761 85.0336L419.761 85.0336L419.761 85.0337L419.761 85.0338L419.761 85.0338L419.761 85.0339L419.761 85.034L419.761 85.034L419.761 85.0341L419.761 85.0342L419.761 85.0342L419.761 85.0343L419.761 85.0343L419.761 85.0344L419.761 85.0344L419.761 85.0345L419.761 85.0346L419.761 85.0346L419.761 85.0347L419.761 85.0348L419.761 85.0349L419.761 85.0349L419.761 85.035L419.761 85.0351L419.761 85.0351L419.761 85.0352L419.761 85.0353L419.761 85.0353L419.761 85.0354L419.761 85.0355L419.761 85.0355L419.761 85.0356L419.761 85.0357L419.761 85.0358L419.761 85.0358L419.761 85.0359L419.761 85.0359L419.761 85.036L419.761 85.0361L419.761 85.0361L419.761 85.0362L419.761 85.0363L419.761 85.0364L419.761 85.0364L419.761 85.0365L419.761 85.0366L419.761 85.0366L419.761 85.0367L419.761 85.0368L419.761 85.0369L419.761 85.0369L419.761 85.037L419.761 85.0371L419.761 85.0372L419.761 85.0372L419.762 85.0373L419.762 85.0374L419.762 85.0374L419.762 85.0375L419.762 85.0376L419.762 85.0376L419.762 85.0377L419.762 85.0378L419.762 85.0379L419.762 85.038L419.762 85.038L419.762 85.0381L419.762 85.0382L419.762 85.0383L419.762 85.0383L419.762 85.0384L419.762 85.0385L419.762 85.0386L419.762 85.0387L419.762 85.0387L419.762 85.0388L419.762 85.0389L419.762 85.039L419.762 85.039L419.762 85.0391L419.762 85.0392L419.762 85.0393L419.762 85.0393L419.762 85.0394L419.762 85.0395L419.762 85.0396L419.762 85.0397L419.762 85.0398L419.762 85.0398L419.762 85.0399L419.762 85.04L419.762 85.0401L419.762 85.0402L419.762 85.0403L419.762 85.0403L419.762 85.0404L419.762 85.0405L419.762 85.0406L419.762 85.0406L419.762 85.0407L419.762 85.0408L419.762 85.0409L419.762 85.041L419.762 85.0411L419.762 85.0412L419.762 85.0413L419.762 85.0413L419.762 85.0414L419.762 85.0415L419.762 85.0416L419.762 85.0417L419.762 85.0418L419.762 85.0419L419.762 85.0419L419.762 85.042L419.762 85.0421L419.762 85.0422L419.762 85.0423L419.762 85.0424L419.762 85.0425L419.762 85.0426L419.762 85.0427L419.762 85.0428L419.762 85.0429L419.762 85.043L419.762 85.0431L419.762 85.0432L419.762 85.0433L419.762 85.0433L419.762 85.0434L419.762 85.0435L419.762 85.0436L419.762 85.0437L419.762 85.0438L419.762 85.0439L419.762 85.044L419.762 85.0441L419.762 85.0442L419.762 85.0443L419.762 85.0444L419.762 85.0445L419.762 85.0446L419.762 85.0447L419.762 85.0448L419.762 85.0449L419.762 85.045L419.762 85.0451L419.762 85.0452L419.762 85.0453L419.762 85.0454L419.762 85.0455L419.762 85.0456L419.762 85.0457L419.762 85.0458L419.762 85.0459L419.762 85.046L419.763 85.0461L419.763 85.0462L419.763 85.0463L419.763 85.0464L419.763 85.0465L419.763 85.0466L419.763 85.0467L419.763 85.0468L419.763 85.0469L419.763 85.0471L419.763 85.0472L419.763 85.0473L419.763 85.0474L419.763 85.0475L419.763 85.0476L419.763 85.0477L419.763 85.0479L419.763 85.0479L419.763 85.048L419.763 85.0481L419.763 85.0483L419.763 85.0484L419.763 85.0485L419.763 85.0486L419.763 85.0487L419.763 85.0489L419.763 85.049L419.763 85.0491L419.763 85.0492L419.763 85.0493L419.763 85.0495L419.763 85.0495L419.763 85.0496L419.763 85.0498L419.763 85.0499L419.763 85.05L419.763 85.0501L419.763 85.0503L419.763 85.0504L419.763 85.0505L419.763 85.0506L419.763 85.0507L419.763 85.0509L419.763 85.051L419.763 85.0511L419.763 85.0512L419.763 85.0513L419.763 85.0514L419.763 85.0515L419.763 85.0516L419.763 85.0518L419.763 85.0519L419.763 85.052L419.763 85.0521L419.763 85.0522L419.763 85.0523L419.763 85.0524L419.763 85.0525L419.763 85.0526L419.763 85.0527L419.763 85.0528L419.763 85.053L419.763 85.0531L419.763 85.0532L419.763 85.0533L419.763 85.0534L419.763 85.0535L419.763 85.0536L419.763 85.0537L419.763 85.0538L419.763 85.0539L419.763 85.054L419.763 85.0541L419.763 85.0542L419.763 85.0543L419.763 85.0544L419.763 85.0545L419.763 85.0546L419.763 85.0547L419.764 85.0548L419.764 85.0549L419.764 85.055L419.764 85.0551L419.764 85.0552L419.764 85.0553L419.764 85.0554L419.764 85.0555L419.764 85.0556L419.764 85.0557L419.764 85.0558L419.764 85.0559L419.764 85.056L419.764 85.0561L419.764 85.0562L419.764 85.0563L419.764 85.0564L419.764 85.0565L419.764 85.0566L419.764 85.0567L419.764 85.0568L419.764 85.0569L419.764 85.057L419.764 85.0571L419.764 85.0571L419.764 85.0572L419.764 85.0573L419.764 85.0574L419.764 85.0575L419.764 85.0576L419.764 85.0577L419.764 85.0578L419.764 85.0579L419.764 85.0579L419.764 85.058L419.764 85.0581L419.764 85.0582L419.764 85.0583L419.764 85.0584L419.764 85.0585L419.764 85.0586L419.764 85.0586L419.764 85.0587L419.764 85.0588L419.764 85.0589L419.764 85.059L419.764 85.0591L419.764 85.0591L419.764 85.0592L419.764 85.0593L419.764 85.0594L419.764 85.0595L419.764 85.0596L419.764 85.0597L419.764 85.0597L419.764 85.0598L419.764 85.0599L419.764 85.06L419.764 85.06L419.764 85.0601L419.764 85.0602L419.764 85.0603L419.764 85.0604L419.764 85.0604L419.764 85.0605L419.764 85.0606L419.764 85.0607L419.764 85.0608L419.764 85.0609L419.764 85.0609L419.764 85.061L419.764 85.0611L419.764 85.0612L419.764 85.0613L419.764 85.0613L419.764 85.0614L419.764 85.0615L419.764 85.0616L419.764 85.0616L419.764 85.0617L419.764 85.0618L419.764 85.0618L419.764 85.0619L419.764 85.062L419.764 85.0621L419.764 85.0621L419.764 85.0622L419.764 85.0623L419.764 85.0624L419.764 85.0624L419.764 85.0625L419.764 85.0626L419.764 85.0627L419.764 85.0627L419.764 85.0628L419.764 85.0629L419.764 85.063L419.764 85.063L419.764 85.0631L419.764 85.0631L419.764 85.0632L419.764 85.0633L419.764 85.0634L419.764 85.0634L419.764 85.0635L419.765 85.0636L419.765 85.0637L419.765 85.0637L419.765 85.0638L419.765 85.0639L419.765 85.0639L419.765 85.064L419.765 85.0641L419.765 85.0642L419.765 85.0642L419.765 85.0643L419.765 85.0644L419.765 85.0644L419.765 85.0645L419.765 85.0646L419.765 85.0646L419.765 85.0647L419.765 85.0647L419.765 85.0648L419.765 85.0649L419.765 85.0649L419.765 85.065L419.765 85.0651L419.765 85.0651L419.765 85.0652L419.765 85.0653L419.765 85.0653L419.765 85.0654L419.765 85.0655L419.765 85.0655L419.765 85.0656L419.765 85.0657L419.765 85.0657L419.765 85.0658L419.765 85.0659L419.765 85.0659L419.765 85.066L419.765 85.0661L419.765 85.0661L419.765 85.0662L419.765 85.0662L419.765 85.0663L419.765 85.0664L419.765 85.0664L419.765 85.0665L419.765 85.0666L419.765 85.0666L419.765 85.0667L419.765 85.0668L419.765 85.0668L419.765 85.0669L419.765 85.0669L419.765 85.067L419.765 85.0671L419.765 85.0671L419.765 85.0672L419.765 85.0673L419.765 85.0673L419.765 85.0674L419.765 85.0675L419.765 85.0675L419.765 85.0676L419.765 85.0676L419.765 85.0677L419.765 85.0677L419.765 85.0678L419.765 85.0679L419.765 85.0679L419.765 85.068L419.765 85.068L419.765 85.0681L419.765 85.0682L419.765 85.0682L419.765 85.0683L419.765 85.0684L419.765 85.0684L419.765 85.0685L419.765 85.0685L419.765 85.0686L419.765 85.0687L419.765 85.0687L419.765 85.0688L419.765 85.0689L419.765 85.0689L419.765 85.069L419.765 85.069L419.765 85.0691L419.765 85.0691L419.765 85.0692L419.765 85.0692L419.765 85.0693L419.765 85.0694L419.765 85.0694L419.765 85.0695L419.765 85.0695L419.765 85.0696L419.765 85.0697L419.765 85.0697L419.765 85.0698L419.765 85.0699L419.765 85.0699L419.765 85.07L419.765 85.07L419.765 85.0701L419.765 85.0702L419.765 85.0702L419.765 85.0703L419.765 85.0703L419.765 85.0704L419.765 85.0705L419.765 85.0705L419.765 85.0706L419.765 85.0707L419.765 85.0707L419.765 85.0707L419.765 85.0708L419.765 85.0709L419.765 85.0709L419.765 85.071L419.765 85.071L419.765 85.0711L419.765 85.0712L419.765 85.0712L419.765 85.0713L419.765 85.0713L419.765 85.0714L419.765 85.0715L419.765 85.0715L419.765 85.0716L419.765 85.0717L419.765 85.0717L419.765 85.0718L419.765 85.0718L419.765 85.0719L419.765 85.072L419.765 85.072L419.765 85.0721L419.765 85.0721L419.765 85.0722L419.765 85.0722L419.765 85.0723L419.766 85.0724L419.766 85.0724L419.766 85.0725L419.766 85.0725L419.766 85.0726L419.766 85.0727L419.766 85.0727L419.766 85.0728L419.766 85.0729L419.766 85.0729L419.766 85.073L419.766 85.0731L419.766 85.0731L419.766 85.0732L419.766 85.0732L419.766 85.0733L419.766 85.0734L419.766 85.0734L419.766 85.0735L419.766 85.0736L419.766 85.0736L419.766 85.0736L419.766 85.0737L419.766 85.0738L419.766 85.0738L419.766 85.0739L419.766 85.074L419.766 85.074L419.766 85.0741L419.766 85.0742L419.766 85.0742L419.766 85.0743L419.766 85.0744L419.766 85.0744L419.766 85.0745L419.766 85.0746L419.766 85.0746L419.766 85.0747L419.766 85.0748L419.766 85.0748L419.766 85.0749L419.766 85.075L419.766 85.075L419.766 85.0751L419.766 85.0752L419.766 85.0752L419.766 85.0752L419.766 85.0753L419.766 85.0754L419.766 85.0755L419.766 85.0755L419.766 85.0756L419.766 85.0757L419.766 85.0757L419.766 85.0758L419.766 85.0759L419.766 85.0759L419.766 85.076L419.766 85.0761L419.766 85.0761L419.766 85.0762L419.766 85.0763L419.766 85.0764L419.766 85.0764L419.766 85.0765L419.766 85.0766L419.766 85.0766L419.766 85.0767L419.766 85.0767L419.766 85.0768L419.766 85.0769L419.766 85.0769L419.766 85.077L419.766 85.0771L419.766 85.0772L419.766 85.0772L419.766 85.0773L419.766 85.0774L419.766 85.0775L419.766 85.0775L419.766 85.0776L419.766 85.0777L419.766 85.0778L419.766 85.0778L419.766 85.0779L419.766 85.078L419.766 85.0781L419.766 85.0781L419.766 85.0782L419.766 85.0782L419.766 85.0783L419.766 85.0784L419.766 85.0785L419.766 85.0785L419.766 85.0786L419.766 85.0787L419.766 85.0788L419.766 85.0788L419.766 85.0789L419.766 85.079L419.766 85.0791L419.766 85.0792L419.766 85.0792L419.766 85.0793L419.766 85.0794L419.766 85.0795L419.766 85.0796L419.766 85.0796L419.766 85.0797L419.766 85.0798L419.766 85.0798L419.766 85.0799L419.766 85.08L419.766 85.0801L419.766 85.0802L419.766 85.0802L419.766 85.0803L419.766 85.0804L419.766 85.0805L419.766 85.0806L419.766 85.0807L419.766 85.0807L419.766 85.0808L419.766 85.0809L419.766 85.081L419.766 85.0811L419.767 85.0812L419.767 85.0812L419.767 85.0813L419.767 85.0814L419.767 85.0815L419.767 85.0816L419.767 85.0816L419.767 85.0817L419.767 85.0818L419.767 85.0819L419.767 85.082L419.767 85.0821L419.767 85.0822L419.767 85.0823L419.767 85.0824L419.767 85.0824L419.767 85.0825L419.767 85.0826L419.767 85.0827L419.767 85.0828L419.767 85.0829L419.767 85.0829L419.767 85.083L419.767 85.0831L419.767 85.0832L419.767 85.0833L419.767 85.0834L419.767 85.0835L419.767 85.0836L419.767 85.0837L419.767 85.0838L419.767 85.0839L419.767 85.084L419.767 85.0841L419.767 85.0842L419.767 85.0842L419.767 85.0843L419.767 85.0844L419.767 85.0845L419.767 85.0846L419.767 85.0847L419.767 85.0848L419.767 85.0849L419.767 85.085L419.767 85.0851L419.767 85.0852L419.767 85.0853L419.767 85.0854L419.767 85.0855L419.767 85.0856L419.767 85.0857L419.767 85.0858L419.767 85.0859L419.767 85.086L419.767 85.0861L419.767 85.0862L419.767 85.0863L419.767 85.0864L419.767 85.0865L419.767 85.0866L419.767 85.0867L419.767 85.0869L419.767 85.087L419.767 85.0871L419.767 85.0872L419.767 85.0872L419.767 85.0874L419.767 85.0875L419.767 85.0876L419.767 85.0877L419.767 85.0878L419.767 85.0879L419.767 85.088L419.767 85.0881L419.767 85.0882L419.767 85.0884L419.767 85.0885L419.767 85.0886L419.767 85.0887L419.767 85.0888L419.767 85.0889L419.767 85.089L419.767 85.0891L419.767 85.0892L419.767 85.0894L419.767 85.0895L419.767 85.0896L419.767 85.0897L419.767 85.0898L419.768 85.09L419.768 85.0901L419.768 85.0902L419.768 85.0903L419.768 85.0904L419.768 85.0905L419.768 85.0906L420.037 87.4535L420.065 87.6955L420.307 87.6679L423.059 87.3537L425.835 87.0368L426.077 87.0092L426.05 86.7672L425.501 81.96Z" fill="#75FEFA" stroke="#75FEFA" stroke-width="0.4"/>
</g>
<defs>
<filter id="filter0_d" x="3.3125" y="3.31445" width="499.789" height="180.277" filterUnits="userSpaceOnUse" color-interpolation-filters="sRGB">
<feFlood flood-opacity="0" result="BackgroundImageFix"/>
<feColorMatrix in="SourceAlpha" type="matrix" values="0 0 0 0 0 0 0 0 0 0 0 0 0 0 0 0 0 0 127 0"/>
<feOffset dx="4" dy="4"/>
<feGaussianBlur stdDeviation="2"/>
<feColorMatrix type="matrix" values="0 0 0 0 0 0 0 0 0 0 0 0 0 0 0 0 0 0 0.25 0"/>
<feBlend mode="normal" in2="BackgroundImageFix" result="effect1_dropShadow"/>
<feBlend mode="normal" in="SourceGraphic" in2="effect1_dropShadow" result="shape"/>
</filter>
</defs>
</svg>
