<svg width="1317" height="357" viewBox="0 0 1317 357" fill="none" xmlns="http://www.w3.org/2000/svg">
<rect y="209.641" width="15.4599" height="15.4599" fill="#9896AE"/>
<rect x="92.7617" y="209.641" width="15.4599" height="15.4599" fill="#9896AE"/>
<path d="M108.223 209.358C108.223 213.627 104.762 217.088 100.493 217.088L7.73306 217.088C3.46392 217.088 0.00308663 213.627 0.003087 209.358V209.358C0.00308738 205.089 3.46391 201.628 7.73305 201.628L100.493 201.628C104.762 201.628 108.223 205.089 108.223 209.358V209.358Z" fill="#9896AE"/>
<path d="M77.3042 146.948C77.5332 140.306 72.2463 139.027 69.5742 139.218L77.3042 131.488C77.9913 137.901 82.7438 139.314 85.0342 139.218L77.3042 146.948Z" fill="#9896AE"/>
<path d="M92.7612 224.815C92.9903 218.173 87.7033 216.895 85.0312 217.085L92.7612 209.355C93.4483 215.768 98.2008 217.181 100.491 217.085L92.7612 224.815Z" fill="#9896AE"/>
<path d="M30.9224 146.948C30.6933 140.306 35.9803 139.027 38.6523 139.218L30.9224 131.488C30.2353 137.901 25.4828 139.314 23.1924 139.218L30.9224 146.948Z" fill="#9896AE"/>
<path d="M15.4624 224.821C15.2334 218.178 20.5203 216.9 23.1924 217.091L15.4624 209.361C14.7753 215.774 10.0228 217.186 7.73246 217.091L15.4624 224.821Z" fill="#9896AE"/>
<rect x="15.4648" y="216.512" width="77.2997" height="15.4599" rx="7.72997" transform="rotate(-90 15.4648 216.512)" fill="#9896AE"/>
<rect x="30.9219" y="139.215" width="15.4599" height="46.3798" rx="7.72997" transform="rotate(-90 30.9219 139.215)" fill="#9896AE"/>
<rect x="77.3008" y="211.363" width="72.1464" height="15.4599" rx="7.72997" transform="rotate(-90 77.3008 211.363)" fill="#9896AE"/>
<rect width="15.4599" height="15.4599" rx="7.72997" transform="matrix(0 1 1 0 0 217.086)" fill="#9896AE"/>
<rect width="15.4599" height="15.4599" rx="7.72997" transform="matrix(0 1 1 0 92.7617 217.088)" fill="#9896AE"/>
<path d="M136.273 131.488C136.273 127.219 139.734 123.758 144.003 123.758H205.843C210.112 123.758 213.573 127.219 213.573 131.488V131.488C213.573 135.757 210.112 139.218 205.843 139.218H144.003C139.734 139.218 136.273 135.757 136.273 131.488V131.488Z" fill="#9896AE"/>
<path d="M128.546 201.051C124.277 201.051 120.816 197.59 120.816 193.321V146.941C120.816 142.672 124.277 139.211 128.546 139.211V139.211C132.816 139.211 136.276 142.672 136.276 146.941V193.321C136.276 197.59 132.816 201.051 128.546 201.051V201.051Z" fill="#9896AE"/>
<path d="M221.795 201.051C217.255 201.051 213.574 197.59 213.574 193.321V146.941C213.574 142.672 217.255 139.211 221.795 139.211C226.335 139.211 230.016 142.672 230.016 146.941V193.321C230.016 197.59 226.335 201.051 221.795 201.051Z" fill="#9896AE"/>
<path d="M136.273 208.781C136.273 204.512 139.734 201.051 144.003 201.051H205.843C210.112 201.051 213.573 204.512 213.573 208.781V208.781C213.573 213.05 210.112 216.511 205.843 216.511H144.003C139.734 216.511 136.273 213.05 136.273 208.781V208.781Z" fill="#9896AE"/>
<path d="M213.58 146.948C213.824 140.306 208.201 139.027 205.359 139.218L213.58 131.488C214.311 137.901 219.365 139.314 221.801 139.218L213.58 146.948Z" fill="#9896AE"/>
<path d="M136.275 208.78C136.519 202.138 130.896 200.859 128.055 201.05L136.275 193.32C137.006 199.733 142.06 201.146 144.496 201.05L136.275 208.78Z" fill="#9896AE"/>
<path d="M213.576 208.78C213.333 202.138 218.955 200.859 221.797 201.05L213.576 193.32C212.845 199.733 207.791 201.146 205.355 201.05L213.576 208.78Z" fill="#9896AE"/>
<path d="M136.279 146.94C136.036 140.298 141.658 139.02 144.5 139.21L136.279 131.48C135.549 137.893 130.494 139.306 128.058 139.21L136.279 146.94Z" fill="#9896AE"/>
<path d="M275.305 131.48C275.305 127.211 282.622 123.75 291.648 123.75H422.398C431.424 123.75 438.742 127.211 438.742 131.48C438.742 135.749 431.424 139.21 422.398 139.21H291.648C282.622 139.21 275.305 135.749 275.305 131.48Z" fill="#9896AE"/>
<path d="M258.961 201.051C249.935 201.051 242.617 197.59 242.617 193.321V146.941C242.617 142.672 249.935 139.211 258.961 139.211V139.211C267.987 139.211 275.305 142.672 275.305 146.941V193.321C275.305 197.59 267.987 201.051 258.961 201.051V201.051Z" fill="#9896AE"/>
<path d="M275.301 208.781C275.301 204.512 282.618 201.051 291.644 201.051H422.394C431.421 201.051 438.738 204.512 438.738 208.781V208.781C438.738 213.05 431.421 216.511 422.394 216.511H291.644C282.618 216.511 275.301 213.05 275.301 208.781V208.781Z" fill="#9896AE"/>
<path d="M275.305 162.402C275.305 158.133 282.622 154.672 291.648 154.672H422.398C431.424 154.672 438.742 158.133 438.742 162.402V162.402C438.742 166.671 431.424 170.132 422.398 170.132H291.648C282.622 170.132 275.305 166.671 275.305 162.402V162.402Z" fill="#9896AE"/>
<path d="M438.745 177.862C439.26 171.22 427.372 169.941 421.363 170.132L438.745 162.402C440.29 168.815 450.976 170.228 456.126 170.132L438.745 177.862Z" fill="#9896AE"/>
<path d="M275.303 208.776C275.818 202.134 263.93 200.856 257.922 201.046L275.303 193.316C276.848 199.729 287.535 201.142 292.685 201.046L275.303 208.776Z" fill="#9896AE"/>
<path d="M275.303 162.401C275.818 155.759 263.93 154.481 257.922 154.671L275.303 146.941C276.848 153.354 287.535 154.767 292.685 154.671L275.303 162.401Z" fill="#9896AE"/>
<path d="M438.74 208.776C438.225 202.134 450.113 200.856 456.121 201.046L438.74 193.316C437.195 199.729 426.508 201.142 421.358 201.046L438.74 208.776Z" fill="#9896AE"/>
<path d="M438.74 131.479C438.225 124.837 450.113 123.559 456.121 123.75L438.74 116.02C437.195 122.433 426.508 123.845 421.358 123.75L438.74 131.479Z" fill="#9896AE"/>
<path d="M275.306 146.94C274.791 140.298 286.679 139.02 292.688 139.21L275.306 131.48C273.761 137.893 263.075 139.306 257.925 139.21L275.306 146.94Z" fill="#9896AE"/>
<path d="M275.306 177.86C274.791 171.218 286.679 169.939 292.687 170.13L275.306 162.4C273.761 168.813 263.075 170.225 257.925 170.13L275.306 177.86Z" fill="#9896AE"/>
<ellipse cx="422.398" cy="162.395" rx="16.3437" ry="7.72997" transform="rotate(-180 422.398 162.395)" fill="#9896AE"/>
<ellipse cx="455.09" cy="193.317" rx="16.3437" ry="7.72997" transform="rotate(-180 455.09 193.317)" fill="#9896AE"/>
<ellipse cx="455.09" cy="177.86" rx="16.3437" ry="7.72997" transform="rotate(-180 455.09 177.86)" fill="#9896AE"/>
<rect x="471.434" y="193.605" width="32.6874" height="15.4599" transform="rotate(-180 471.434 193.605)" fill="#9896AE"/>
<ellipse cx="455.09" cy="116.018" rx="16.3437" ry="7.72997" transform="rotate(-180 455.09 116.018)" fill="#9896AE"/>
<path d="M508.47 139.211C494.662 139.211 483.469 143.537 483.469 148.873L483.469 206.848C483.469 212.185 494.662 216.511 508.47 216.511C522.278 216.511 533.471 212.185 533.471 206.848L533.471 148.873C533.471 142.36 522.278 139.211 508.47 139.211Z" fill="#9896AE"/>
<path d="M533.469 131.481C533.469 135.75 544.662 139.211 558.47 139.211L758.479 139.211C772.286 139.211 783.48 135.75 783.48 131.481V131.481C783.48 127.212 772.286 123.751 758.479 123.751L558.47 123.751C544.662 123.751 533.469 127.212 533.469 131.481V131.481Z" fill="#9896AE"/>
<path d="M533.469 177.86C533.469 182.129 544.662 185.59 558.47 185.59L758.479 185.59C772.286 185.59 783.48 182.129 783.48 177.86V177.86C783.48 173.591 772.286 170.13 758.479 170.13L558.47 170.13C544.662 170.13 533.469 173.591 533.469 177.86V177.86Z" fill="#9896AE"/>
<path d="M783.483 162.399C784.271 169.041 766.086 170.32 756.895 170.129L783.483 177.859C785.846 171.446 802.193 170.034 810.071 170.129L783.483 162.399Z" fill="#9896AE"/>
<path d="M533.151 177.86C533.939 184.502 515.754 185.781 506.562 185.59L533.151 193.32C535.514 186.907 551.861 185.495 559.739 185.59L533.151 177.86Z" fill="#9896AE"/>
<path d="M533.471 131.481C534.259 138.124 516.074 139.402 506.883 139.211L533.471 146.941C535.835 140.528 552.182 139.116 560.06 139.211L533.471 131.481Z" fill="#9896AE"/>
<path d="M783.478 131.481C782.69 138.124 800.875 139.402 810.066 139.211L783.478 146.941C781.115 140.528 764.768 139.116 756.889 139.211L783.478 131.481Z" fill="#9896AE"/>
<path d="M533.474 162.399C532.686 169.041 550.871 170.32 560.062 170.129L533.474 177.859C531.111 171.446 514.764 170.034 506.885 170.129L533.474 162.399Z" fill="#9896AE"/>
<ellipse rx="25.0011" ry="7.72997" transform="matrix(-1 1.14453e-07 3.70175e-07 1 758.483 177.863)" fill="#9896AE"/>
<ellipse rx="25.0011" ry="7.72997" transform="matrix(-1 1.14453e-07 3.70175e-07 1 808.487 146.945)" fill="#9896AE"/>
<ellipse rx="25.0011" ry="7.72997" transform="matrix(-1 1.14453e-07 3.70175e-07 1 508.472 146.945)" fill="#9896AE"/>
<ellipse rx="25.0011" ry="7.72997" transform="matrix(-1 1.14453e-07 3.70175e-07 1 808.487 162.402)" fill="#9896AE"/>
<rect width="50.0022" height="15.4599" transform="matrix(-1 1.14453e-07 3.70175e-07 1 833.488 146.652)" fill="#9896AE"/>
<path d="M1119.35 202.203C1137.8 202.203 1147.25 197.609 1147.25 193.685L1170.3 200.82C1154.17 200.82 1142.64 205.102 1142.64 209.383L1119.35 202.203Z" fill="#9896AE"/>
<path d="M896.381 209.381C896.381 203.673 881.395 200.819 868.714 200.819L891.77 193.684C891.77 198.678 905.604 202.202 919.437 202.202L907.909 205.77L896.381 209.381Z" fill="#9896AE"/>
<path d="M868.714 186.478C887.159 186.478 896.381 181.84 896.381 177.915L919.438 185.051C903.298 185.051 891.77 189.332 891.77 193.613L868.714 186.478Z" fill="#9896AE"/>
<path d="M868.565 139.454C887.01 139.454 896.233 134.816 896.233 130.892L919.289 138.027C903.15 138.027 891.622 142.309 891.622 146.59L868.565 139.454Z" fill="#9896AE"/>
<path d="M1119.58 170.853C1138.02 170.853 1147.24 166.215 1147.24 162.29L1170.3 169.426C1154.16 169.426 1142.63 173.707 1142.63 177.988L1119.58 170.853Z" fill="#9896AE"/>
<path d="M1142.63 130.892C1142.63 136.601 1157.62 139.455 1170.3 139.455L1147.24 146.59C1147.24 141.595 1133.41 138.028 1119.57 138.028L1142.63 130.892Z" fill="#9896AE"/>
<path d="M1142.63 177.986C1142.63 183.694 1157.62 186.548 1170.3 186.548L1147.24 193.684C1147.24 188.689 1133.41 185.121 1119.57 185.121L1142.63 177.986Z" fill="#9896AE"/>
<path d="M1098.52 209.38C1098.52 209.336 1098.55 208.919 1099.51 208.217C1100.43 207.546 1101.88 206.858 1103.86 206.245C1107.79 205.028 1113.35 204.245 1119.57 204.245C1125.8 204.245 1131.35 205.028 1135.28 206.245C1137.26 206.858 1138.72 207.546 1139.64 208.217C1140.6 208.919 1140.63 209.336 1140.63 209.38C1140.63 209.424 1140.6 209.842 1139.64 210.544C1138.72 211.215 1137.26 211.903 1135.28 212.515C1131.35 213.732 1125.8 214.516 1119.57 214.516C1113.35 214.516 1107.79 213.732 1103.86 212.515C1101.88 211.903 1100.43 211.215 1099.51 210.544C1098.55 209.842 1098.52 209.424 1098.52 209.38Z" fill="#9896AE" stroke="#9896AE" stroke-width="4"/>
<path d="M1050.09 209.38C1050.09 209.336 1050.12 208.919 1051.08 208.217C1052 207.546 1053.46 206.858 1055.44 206.245C1059.37 205.028 1064.92 204.245 1071.15 204.245C1077.37 204.245 1082.93 205.028 1086.86 206.245C1088.84 206.858 1090.29 207.546 1091.21 208.217C1092.17 208.919 1092.2 209.336 1092.2 209.38C1092.2 209.424 1092.17 209.842 1091.21 210.544C1090.29 211.215 1088.84 211.903 1086.86 212.515C1082.93 213.732 1077.37 214.516 1071.15 214.516C1064.92 214.516 1059.37 213.732 1055.44 212.515C1053.46 211.903 1052 211.215 1051.08 210.544C1050.12 209.842 1050.09 209.424 1050.09 209.38Z" fill="#9896AE" stroke="#9896AE" stroke-width="4"/>
<path d="M999.372 209.38C999.372 209.336 999.406 208.919 1000.36 208.217C1001.28 207.546 1002.74 206.858 1004.72 206.245C1008.65 205.028 1014.2 204.245 1020.43 204.245C1026.65 204.245 1032.21 205.028 1036.14 206.245C1038.12 206.858 1039.57 207.546 1040.49 208.217C1041.45 208.919 1041.48 209.336 1041.48 209.38C1041.48 209.424 1041.45 209.842 1040.49 210.544C1039.57 211.215 1038.12 211.903 1036.14 212.515C1032.21 213.732 1026.65 214.516 1020.43 214.516C1014.2 214.516 1008.65 213.732 1004.72 212.515C1002.74 211.903 1001.28 211.215 1000.36 210.544C999.406 209.842 999.372 209.424 999.372 209.38Z" fill="#9896AE" stroke="#9896AE" stroke-width="4"/>
<path d="M898.253 209.358C898.253 209.311 898.289 208.891 899.252 208.186C900.173 207.513 901.633 206.822 903.618 206.208C907.564 204.987 913.137 204.201 919.381 204.201C925.624 204.201 931.197 204.987 935.143 206.208C937.128 206.822 938.589 207.513 939.509 208.186C940.472 208.891 940.508 209.311 940.508 209.358C940.508 209.405 940.472 209.826 939.509 210.53C938.589 211.204 937.128 211.894 935.143 212.509C931.197 213.73 925.624 214.516 919.381 214.516C913.137 214.516 907.564 213.73 903.618 212.509C901.633 211.894 900.173 211.204 899.252 210.53C898.289 209.826 898.253 209.405 898.253 209.358Z" fill="#9896AE" stroke="#9896AE" stroke-width="4"/>
<path d="M847.523 193.612C847.523 193.565 847.558 193.145 848.521 192.44C849.442 191.766 850.903 191.076 852.888 190.462C856.834 189.241 862.407 188.455 868.65 188.455C874.893 188.455 880.466 189.241 884.412 190.462C886.397 191.076 887.858 191.766 888.779 192.44C889.742 193.145 889.777 193.565 889.777 193.612C889.777 193.659 889.742 194.08 888.779 194.784C887.858 195.458 886.397 196.148 884.412 196.763C880.466 197.984 874.893 198.77 868.65 198.77C862.407 198.77 856.834 197.984 852.888 196.763C850.903 196.148 849.442 195.458 848.521 194.784C847.558 194.08 847.523 193.659 847.523 193.612Z" fill="#9896AE" stroke="#9896AE" stroke-width="4"/>
<path d="M847.517 177.841C847.517 177.797 847.55 177.38 848.509 176.678C849.427 176.007 850.882 175.319 852.861 174.706C856.794 173.489 862.349 172.706 868.573 172.706C874.796 172.706 880.352 173.489 884.285 174.706C886.263 175.319 887.719 176.007 888.636 176.678C889.595 177.38 889.629 177.797 889.629 177.841C889.629 177.885 889.595 178.303 888.636 179.005C887.719 179.676 886.263 180.364 884.285 180.976C880.352 182.193 874.796 182.977 868.573 182.977C862.349 182.977 856.794 182.193 852.861 180.976C850.882 180.364 849.427 179.676 848.509 179.005C847.55 178.303 847.517 177.885 847.517 177.841Z" fill="#9896AE" stroke="#9896AE" stroke-width="4"/>
<path d="M1149.24 193.681C1149.24 193.637 1149.27 193.22 1150.23 192.518C1151.15 191.847 1152.6 191.158 1154.58 190.546C1158.52 189.329 1164.07 188.546 1170.3 188.546C1176.52 188.546 1182.07 189.329 1186.01 190.546C1187.99 191.158 1189.44 191.847 1190.36 192.518C1191.32 193.22 1191.35 193.637 1191.35 193.681C1191.35 193.725 1191.32 194.142 1190.36 194.844C1189.44 195.515 1187.99 196.204 1186.01 196.816C1182.07 198.033 1176.52 198.816 1170.3 198.816C1164.07 198.816 1158.52 198.033 1154.58 196.816C1152.6 196.204 1151.15 195.515 1150.23 194.844C1149.27 194.142 1149.24 193.725 1149.24 193.681Z" fill="#9896AE" stroke="#9896AE" stroke-width="4"/>
<path d="M1149.24 177.986C1149.24 177.942 1149.27 177.524 1150.23 176.822C1151.15 176.151 1152.6 175.463 1154.58 174.851C1158.52 173.634 1164.07 172.85 1170.3 172.85C1176.52 172.85 1182.07 173.634 1186.01 174.851C1187.99 175.463 1189.44 176.151 1190.36 176.822C1191.32 177.524 1191.35 177.942 1191.35 177.986C1191.35 178.03 1191.32 178.447 1190.36 179.149C1189.44 179.82 1187.99 180.508 1186.01 181.121C1182.07 182.338 1176.52 183.121 1170.3 183.121C1164.07 183.121 1158.52 182.338 1154.58 181.121C1152.6 180.508 1151.15 179.82 1150.23 179.149C1149.27 178.447 1149.24 178.03 1149.24 177.986Z" fill="#9896AE" stroke="#9896AE" stroke-width="4"/>
<path d="M1149.24 163.712C1149.24 163.668 1149.27 163.251 1150.23 162.549C1151.15 161.878 1152.6 161.19 1154.58 160.577C1158.52 159.36 1164.07 158.577 1170.3 158.577C1176.52 158.577 1182.07 159.36 1186.01 160.577C1187.99 161.19 1189.44 161.878 1190.36 162.549C1191.32 163.251 1191.35 163.668 1191.35 163.712C1191.35 163.756 1191.32 164.174 1190.36 164.876C1189.44 165.547 1187.99 166.235 1186.01 166.847C1182.07 168.064 1176.52 168.848 1170.3 168.848C1164.07 168.848 1158.52 168.064 1154.58 166.847C1152.6 166.235 1151.15 165.547 1150.23 164.876C1149.27 164.174 1149.24 163.756 1149.24 163.712Z" fill="#9896AE" stroke="#9896AE" stroke-width="4"/>
<path d="M1149.24 146.587C1149.24 146.543 1149.27 146.126 1150.23 145.424C1151.15 144.753 1152.6 144.065 1154.58 143.452C1158.52 142.235 1164.07 141.452 1170.3 141.452C1176.52 141.452 1182.07 142.235 1186.01 143.452C1187.99 144.065 1189.44 144.753 1190.36 145.424C1191.32 146.126 1191.35 146.543 1191.35 146.587C1191.35 146.631 1191.32 147.049 1190.36 147.751C1189.44 148.422 1187.99 149.11 1186.01 149.722C1182.07 150.939 1176.52 151.723 1170.3 151.723C1164.07 151.723 1158.52 150.939 1154.58 149.722C1152.6 149.11 1151.15 148.422 1150.23 147.751C1149.27 147.049 1149.24 146.631 1149.24 146.587Z" fill="#9896AE" stroke="#9896AE" stroke-width="4"/>
<path d="M1098.51 130.892C1098.51 130.848 1098.55 130.431 1099.51 129.729C1100.42 129.057 1101.88 128.369 1103.86 127.757C1107.79 126.54 1113.35 125.757 1119.57 125.757C1125.79 125.757 1131.35 126.54 1135.28 127.757C1137.26 128.369 1138.71 129.057 1139.63 129.729C1140.59 130.431 1140.63 130.848 1140.63 130.892C1140.63 130.936 1140.59 131.353 1139.63 132.055C1138.71 132.726 1137.26 133.415 1135.28 134.027C1131.35 135.244 1125.79 136.027 1119.57 136.027C1113.35 136.027 1107.79 135.244 1103.86 134.027C1101.88 133.415 1100.42 132.726 1099.51 132.055C1098.55 131.353 1098.51 130.936 1098.51 130.892Z" fill="#9896AE" stroke="#9896AE" stroke-width="4"/>
<path d="M1050.09 130.892C1050.09 130.848 1050.12 130.431 1051.08 129.729C1052 129.057 1053.45 128.369 1055.43 127.757C1059.36 126.54 1064.92 125.757 1071.14 125.757C1077.37 125.757 1082.92 126.54 1086.85 127.757C1088.83 128.369 1090.29 129.057 1091.21 129.729C1092.17 130.431 1092.2 130.848 1092.2 130.892C1092.2 130.936 1092.17 131.353 1091.21 132.055C1090.29 132.726 1088.83 133.415 1086.85 134.027C1082.92 135.244 1077.37 136.027 1071.14 136.027C1064.92 136.027 1059.36 135.244 1055.43 134.027C1053.45 133.415 1052 132.726 1051.08 132.055C1050.12 131.353 1050.09 130.936 1050.09 130.892Z" fill="#9896AE" stroke="#9896AE" stroke-width="4"/>
<path d="M999.376 130.892C999.376 130.848 999.41 130.431 1000.37 129.729C1001.29 129.057 1002.74 128.369 1004.72 127.757C1008.65 126.54 1014.21 125.757 1020.43 125.757C1026.66 125.757 1032.21 126.54 1036.14 127.757C1038.12 128.369 1039.58 129.057 1040.5 129.729C1041.45 130.431 1041.49 130.848 1041.49 130.892C1041.49 130.936 1041.45 131.353 1040.5 132.055C1039.58 132.726 1038.12 133.415 1036.14 134.027C1032.21 135.244 1026.66 136.027 1020.43 136.027C1014.21 136.027 1008.65 135.244 1004.72 134.027C1002.74 133.415 1001.29 132.726 1000.37 132.055C999.41 131.353 999.376 130.936 999.376 130.892Z" fill="#9896AE" stroke="#9896AE" stroke-width="4"/>
<path d="M898.243 130.892C898.243 130.848 898.277 130.431 899.236 129.729C900.153 129.057 901.609 128.369 903.587 127.757C907.52 126.54 913.076 125.757 919.299 125.757C925.523 125.757 931.078 126.54 935.011 127.757C936.99 128.369 938.445 129.057 939.363 129.729C940.322 130.431 940.355 130.848 940.355 130.892C940.355 130.936 940.322 131.353 939.363 132.055C938.445 132.726 936.99 133.415 935.011 134.027C931.078 135.244 925.523 136.027 919.299 136.027C913.076 136.027 907.52 135.244 903.587 134.027C901.609 133.415 900.153 132.726 899.236 132.055C898.277 131.353 898.243 130.936 898.243 130.892Z" fill="#9896AE" stroke="#9896AE" stroke-width="4"/>
<path d="M847.517 146.587C847.517 146.543 847.55 146.126 848.509 145.424C849.427 144.753 850.882 144.065 852.861 143.452C856.794 142.235 862.349 141.452 868.573 141.452C874.796 141.452 880.352 142.235 884.285 143.452C886.263 144.065 887.719 144.753 888.636 145.424C889.595 146.126 889.629 146.543 889.629 146.587C889.629 146.631 889.595 147.049 888.636 147.751C887.719 148.422 886.263 149.11 884.285 149.722C880.352 150.939 874.796 151.723 868.573 151.723C862.349 151.723 856.794 150.939 852.861 149.722C850.882 149.11 849.427 148.422 848.509 147.751C847.55 147.049 847.517 146.631 847.517 146.587Z" fill="#9896AE" stroke="#9896AE" stroke-width="4"/>
<path d="M1098.52 177.986C1098.52 177.942 1098.55 177.524 1099.51 176.822C1100.43 176.151 1101.88 175.463 1103.86 174.851C1107.79 173.634 1113.35 172.85 1119.57 172.85C1125.8 172.85 1131.35 173.634 1135.28 174.851C1137.26 175.463 1138.72 176.151 1139.64 176.822C1140.6 177.524 1140.63 177.942 1140.63 177.986C1140.63 178.03 1140.6 178.447 1139.64 179.149C1138.72 179.82 1137.26 180.508 1135.28 181.121C1131.35 182.338 1125.8 183.121 1119.57 183.121C1113.35 183.121 1107.79 182.338 1103.86 181.121C1101.88 180.508 1100.43 179.82 1099.51 179.149C1098.55 178.447 1098.52 178.03 1098.52 177.986Z" fill="#9896AE" stroke="#9896AE" stroke-width="4"/>
<path d="M1119.52 216.516L919.53 216.516L919.53 202.201L1119.52 202.201L1119.52 216.516Z" fill="#9896AE"/>
<rect x="1171.15" y="185.023" width="301.58" height="14.3148" transform="rotate(-180 1171.15 185.023)" fill="#9896AE"/>
<rect x="845.52" y="192.973" width="14.9843" height="46.1124" transform="rotate(-90 845.52 192.973)" fill="#9896AE"/>
<rect x="1119.34" y="138.07" width="199.82" height="14.3148" transform="rotate(-180 1119.34 138.07)" fill="#9896AE"/>
<rect x="1147.74" y="193.184" width="46.0935" height="45.1123" transform="rotate(-90 1147.74 193.184)" fill="#9896AE" stroke="#9896AE"/>
<path d="M1308.06 139.211C1312.33 139.211 1315.79 143.537 1315.79 148.873L1315.79 206.848C1315.79 212.185 1312.33 216.511 1308.06 216.511C1303.79 216.511 1300.33 212.185 1300.33 206.848L1300.33 148.873C1300.33 143.537 1303.79 139.211 1308.06 139.211Z" fill="#9896AE"/>
<path d="M1300.34 131.481C1300.34 135.75 1296.88 139.211 1292.61 139.211L1230.77 139.211C1226.5 139.211 1223.04 135.75 1223.04 131.481V131.481C1223.04 127.212 1226.5 123.751 1230.77 123.751L1292.61 123.751C1296.88 123.751 1300.34 127.212 1300.34 131.481V131.481Z" fill="#9896AE"/>
<path d="M1300.34 177.86C1300.34 182.129 1296.88 185.59 1292.61 185.59L1230.77 185.59C1226.5 185.59 1223.04 182.129 1223.04 177.86V177.86C1223.04 173.591 1226.5 170.13 1230.77 170.13L1292.61 170.13C1296.88 170.13 1300.34 173.591 1300.34 177.86V177.86Z" fill="#9896AE"/>
<path d="M1223.1 162.4C1222.85 169.042 1228.48 170.321 1231.32 170.13L1223.1 177.86C1222.37 171.447 1217.31 170.035 1214.88 170.13L1223.1 162.4Z" fill="#9896AE"/>
<path d="M1300.33 177.86C1300.09 184.502 1305.71 185.781 1308.55 185.59L1300.33 193.32C1299.6 186.907 1294.55 185.495 1292.11 185.59L1300.33 177.86Z" fill="#9896AE"/>
<path d="M1300.42 131.481C1300.17 138.124 1305.79 139.402 1308.64 139.211L1300.42 146.941C1299.69 140.528 1294.63 139.116 1292.2 139.211L1300.42 131.481Z" fill="#9896AE"/>
<path d="M1222.96 131.48C1223.2 138.123 1217.58 139.401 1214.73 139.21L1222.96 146.94C1223.69 140.527 1228.74 139.115 1231.18 139.21L1222.96 131.48Z" fill="#9896AE"/>
<path d="M1238.5 177.86C1238.74 184.502 1233.12 185.781 1230.28 185.59L1238.5 193.32C1239.23 186.907 1244.28 185.495 1246.72 185.59L1238.5 177.86Z" fill="#9896AE"/>
<path d="M1300.42 162.4C1300.66 169.042 1295.04 170.321 1292.2 170.13L1300.42 177.86C1301.15 171.447 1306.2 170.035 1308.64 170.13L1300.42 162.4Z" fill="#9896AE"/>
<path d="M1223.03 193.321C1223.28 199.963 1217.65 201.242 1214.81 201.051L1223.03 208.781C1223.76 202.368 1228.82 200.956 1231.25 201.051L1223.03 193.321Z" fill="#9896AE"/>
<circle cx="1230.77" cy="177.863" r="7.72997" fill="#9896AE"/>
<circle cx="1215.3" cy="208.783" r="7.72997" fill="#9896AE"/>
<circle cx="1230.77" cy="193.32" r="7.72997" fill="#9896AE"/>
<circle cx="1215.3" cy="146.941" r="7.72997" fill="#9896AE"/>
<circle cx="1215.3" cy="162.402" r="7.72997" fill="#9896AE"/>
<rect x="1207.57" y="146.652" width="15.4599" height="15.4599" fill="#9896AE"/>
<rect x="1223.04" y="177.574" width="15.4599" height="15.4599" fill="#9896AE"/>
<path d="M47.5254 23.1924C47.769 16.5503 42.1464 15.2715 39.3047 15.4624L47.5254 7.73242C48.2562 14.1454 53.3104 15.5578 55.7462 15.4624L47.5254 23.1924Z" fill="#9896AE"/>
<path d="M62.9824 23.1924C62.7388 16.5503 68.3614 15.2715 71.2031 15.4624L62.9824 7.73242C62.2516 14.1454 57.1974 15.5578 54.7616 15.4624L62.9824 23.1924Z" fill="#9896AE"/>
<rect x="62.9844" y="85.1426" width="15.4599" height="63.214" transform="rotate(-180 62.9844 85.1426)" fill="#9896AE"/>
<ellipse cx="55.2544" cy="85.4322" rx="7.72997" ry="7.90175" transform="rotate(-180 55.2544 85.4322)" fill="#9896AE"/>
<ellipse cx="55.2544" cy="22.2213" rx="7.72997" ry="7.90175" transform="rotate(-180 55.2544 22.2213)" fill="#9896AE"/>
<rect y="15.4609" width="15.4599" height="108.22" rx="7.72997" transform="rotate(-90 0 15.4609)" fill="#9896AE"/>
<path d="M136.273 8.02294C136.273 3.75379 139.734 0.292969 144.003 0.292969H205.843C210.112 0.292969 213.573 3.75379 213.573 8.02294V8.02294C213.573 12.2921 210.112 15.7529 205.843 15.7529H144.003C139.734 15.7529 136.273 12.2921 136.273 8.02294V8.02294Z" fill="#9896AE"/>
<path d="M128.546 77.5859C124.277 77.5859 120.816 74.1251 120.816 69.856V23.4761C120.816 19.207 124.277 15.7462 128.546 15.7462V15.7462C132.816 15.7462 136.276 19.207 136.276 23.4761V69.856C136.276 74.1251 132.816 77.5859 128.546 77.5859V77.5859Z" fill="#9896AE"/>
<path d="M221.799 77.5859C217.259 77.5859 213.578 74.1251 213.578 69.856V23.4761C213.578 19.207 217.259 15.7462 221.799 15.7462C226.339 15.7462 230.02 19.207 230.02 23.4761V69.856C230.02 74.1251 226.339 77.5859 221.799 77.5859Z" fill="#9896AE"/>
<path d="M136.273 85.3159C136.273 81.0468 139.734 77.5859 144.003 77.5859H205.843C210.112 77.5859 213.573 81.0468 213.573 85.3159V85.3159C213.573 89.5851 210.112 93.0459 205.843 93.0459H144.003C139.734 93.0459 136.273 89.5851 136.273 85.3159V85.3159Z" fill="#9896AE"/>
<path d="M213.58 23.4834C213.824 16.8413 208.201 15.5625 205.359 15.7534L213.58 8.02344C214.311 14.4364 219.365 15.8488 221.801 15.7534L213.58 23.4834Z" fill="#9896AE"/>
<path d="M136.275 85.3154C136.519 78.6734 130.896 77.3946 128.055 77.5854L136.275 69.8555C137.006 76.2685 142.06 77.6809 144.496 77.5854L136.275 85.3154Z" fill="#9896AE"/>
<path d="M213.576 85.3154C213.333 78.6734 218.955 77.3946 221.797 77.5854L213.576 69.8555C212.845 76.2685 207.791 77.6809 205.355 77.5854L213.576 85.3154Z" fill="#9896AE"/>
<path d="M136.279 23.4756C136.036 16.8335 141.658 15.5547 144.5 15.7456L136.279 8.01562C135.549 14.4286 130.494 15.841 128.058 15.7456L136.279 23.4756Z" fill="#9896AE"/>
<path d="M290.139 23.1904C290.382 16.5484 284.76 15.2696 281.918 15.4604L290.139 7.73047C290.869 14.1435 295.924 15.5559 298.359 15.4604L290.139 23.1904Z" fill="#9896AE"/>
<path d="M305.596 23.1904C305.352 16.5484 310.975 15.2696 313.816 15.4604L305.596 7.73047C304.865 14.1435 299.811 15.5559 297.375 15.4604L305.596 23.1904Z" fill="#9896AE"/>
<rect x="305.598" y="85.1445" width="15.4599" height="63.214" transform="rotate(-180 305.598 85.1445)" fill="#9896AE"/>
<ellipse cx="297.868" cy="85.4342" rx="7.72997" ry="7.90175" transform="rotate(-180 297.868 85.4342)" fill="#9896AE"/>
<ellipse cx="297.868" cy="22.2233" rx="7.72997" ry="7.90175" transform="rotate(-180 297.868 22.2233)" fill="#9896AE"/>
<rect x="242.613" y="15.459" width="15.4599" height="108.22" rx="7.72997" transform="rotate(-90 242.613 15.459)" fill="#9896AE"/>
<path d="M448.177 78.7346C453.886 78.7346 456.81 74.1407 456.81 70.2162L463.945 77.3516C458.951 77.3516 455.383 81.6328 455.383 85.9141L448.177 78.7346Z" fill="#9896AE"/>
<path d="M379.173 85.9127C379.173 80.2044 374.535 77.3502 370.611 77.3502L377.746 70.2148C377.746 75.2096 382.027 78.7332 386.309 78.7332L382.741 82.3009L379.173 85.9127Z" fill="#9896AE"/>
<path d="M370.611 63.0092C376.319 63.0092 379.173 58.3712 379.173 54.4467L386.309 61.5821C381.314 61.5821 377.746 65.8633 377.746 70.1445L370.611 63.0092Z" fill="#9896AE"/>
<path d="M370.564 15.9857C376.272 15.9857 379.126 11.3477 379.126 7.42326L386.262 14.5586C381.267 14.5586 377.699 18.8399 377.699 23.1211L370.564 15.9857Z" fill="#9896AE"/>
<path d="M448.247 47.3842C453.956 47.3842 456.81 42.7462 456.81 38.8217L463.945 45.9571C458.951 45.9571 455.383 50.2383 455.383 54.5195L448.247 47.3842Z" fill="#9896AE"/>
<path d="M455.381 7.42351C455.381 13.1318 460.019 15.986 463.944 15.986L456.809 23.1213C456.809 18.1266 452.527 14.5589 448.246 14.5589L455.381 7.42351Z" fill="#9896AE"/>
<path d="M455.381 54.517C455.381 60.2253 460.019 63.0795 463.944 63.0795L456.809 70.2148C456.809 65.2201 452.527 61.6524 448.246 61.6524L455.381 54.517Z" fill="#9896AE"/>
<circle cx="448.244" cy="85.9115" r="5.13538" transform="rotate(-180 448.244 85.9115)" fill="#9896AE" stroke="#9896AE" stroke-width="4"/>
<circle cx="433.259" cy="85.9115" r="5.13538" transform="rotate(-180 433.259 85.9115)" fill="#9896AE" stroke="#9896AE" stroke-width="4"/>
<circle cx="417.564" cy="85.9115" r="5.13538" transform="rotate(-180 417.564 85.9115)" fill="#9896AE" stroke="#9896AE" stroke-width="4"/>
<path d="M381.131 85.8895C381.131 83.0412 383.44 80.7321 386.288 80.7321C389.136 80.7321 391.445 83.0412 391.445 85.8895C391.445 88.7378 389.136 91.0469 386.288 91.0469C383.44 91.0469 381.131 88.7378 381.131 85.8895Z" fill="#9896AE" stroke="#9896AE" stroke-width="4"/>
<path d="M365.431 70.1434C365.431 67.2951 367.74 64.986 370.589 64.986C373.437 64.986 375.746 67.2951 375.746 70.1434C375.746 72.9917 373.437 75.3008 370.589 75.3008C367.74 75.3008 365.431 72.9917 365.431 70.1434Z" fill="#9896AE" stroke="#9896AE" stroke-width="4"/>
<path d="M365.432 54.3724C365.432 51.5362 367.732 49.2371 370.568 49.2371C373.404 49.2371 375.703 51.5362 375.703 54.3724C375.703 57.2086 373.404 59.5078 370.568 59.5078C367.732 59.5078 365.432 57.2086 365.432 54.3724Z" fill="#9896AE" stroke="#9896AE" stroke-width="4"/>
<circle cx="463.943" cy="70.2123" r="5.13538" transform="rotate(-180 463.943 70.2123)" fill="#9896AE" stroke="#9896AE" stroke-width="4"/>
<circle cx="463.943" cy="54.517" r="5.13538" transform="rotate(-180 463.943 54.517)" fill="#9896AE" stroke="#9896AE" stroke-width="4"/>
<circle cx="463.943" cy="40.2435" r="5.13538" transform="rotate(-180 463.943 40.2435)" fill="#9896AE" stroke="#9896AE" stroke-width="4"/>
<circle cx="463.943" cy="23.1185" r="5.13538" transform="rotate(-180 463.943 23.1185)" fill="#9896AE" stroke="#9896AE" stroke-width="4"/>
<circle cx="448.247" cy="7.42321" r="5.13538" transform="rotate(-180 448.247 7.42321)" fill="#9896AE" stroke="#9896AE" stroke-width="4"/>
<circle cx="433.259" cy="7.42321" r="5.13538" transform="rotate(-180 433.259 7.42321)" fill="#9896AE" stroke="#9896AE" stroke-width="4"/>
<circle cx="417.564" cy="7.42321" r="5.13538" transform="rotate(-180 417.564 7.42321)" fill="#9896AE" stroke="#9896AE" stroke-width="4"/>
<circle cx="386.263" cy="7.42321" r="5.13538" transform="rotate(-180 386.263 7.42321)" fill="#9896AE" stroke="#9896AE" stroke-width="4"/>
<circle cx="370.568" cy="23.1185" r="5.13538" transform="rotate(-180 370.568 23.1185)" fill="#9896AE" stroke="#9896AE" stroke-width="4"/>
<circle cx="448.244" cy="54.517" r="5.13538" transform="rotate(-180 448.244 54.517)" fill="#9896AE" stroke="#9896AE" stroke-width="4"/>
<path d="M448.227 93.0469L386.335 93.0469L386.335 78.7321L448.227 78.7321L448.227 93.0469Z" fill="#9896AE"/>
<rect x="464.207" y="61.5547" width="93.3322" height="14.3148" transform="rotate(-180 464.207 61.5547)" fill="#9896AE"/>
<rect x="363.434" y="69.5039" width="14.9843" height="14.2708" transform="rotate(-90 363.434 69.5039)" fill="#9896AE"/>
<rect x="448.172" y="14.6016" width="61.8398" height="14.3148" transform="rotate(-180 448.172 14.6016)" fill="#9896AE"/>
<rect x="457.309" y="69.7148" width="46.0935" height="13.2708" transform="rotate(-90 457.309 69.7148)" fill="#9896AE" stroke="#9896AE"/>
<path fill-rule="evenodd" clip-rule="evenodd" d="M499.137 85.3164C499.137 81.0471 502.598 77.5864 506.867 77.5864C502.598 77.5864 499.137 74.1257 499.137 69.8565C499.137 74.1257 495.676 77.5864 491.407 77.5864C495.676 77.5864 499.137 81.0471 499.137 85.3164Z" fill="#9896AE"/>
<path fill-rule="evenodd" clip-rule="evenodd" d="M575.864 23.4767C575.864 19.2074 579.324 15.7467 583.594 15.7467C579.324 15.7467 575.864 12.2859 575.864 8.01666C575.864 12.2859 572.403 15.7467 568.134 15.7467C572.403 15.7467 575.864 19.2074 575.864 23.4767Z" fill="#9896AE"/>
<path fill-rule="evenodd" clip-rule="evenodd" d="M514.597 23.4767C514.597 19.2074 518.057 15.7467 522.327 15.7467C518.057 15.7467 514.597 12.2859 514.597 8.01665C514.597 12.2859 511.136 15.7467 506.867 15.7467C511.136 15.7467 514.597 19.2074 514.597 23.4767Z" fill="#9896AE"/>
<rect x="591.324" y="85.0312" width="15.4599" height="61.8398" transform="rotate(-180 591.324 85.0312)" fill="#9896AE"/>
<rect x="514.594" y="69.5703" width="15.4599" height="46.3798" transform="rotate(-180 514.594 69.5703)" fill="#9896AE"/>
<rect x="567.848" y="15.7461" width="45.8072" height="15.4599" transform="rotate(-180 567.848 15.7461)" fill="#9896AE"/>
<path d="M499.134 69.8521C499.134 65.5829 502.595 62.1221 506.864 62.1221C511.133 62.1221 514.594 65.5829 514.594 69.8521C514.594 74.1212 511.133 77.582 506.864 77.582C502.595 77.582 499.134 74.1212 499.134 69.8521Z" fill="#9896AE"/>
<circle cx="568.133" cy="8.01612" r="7.72997" transform="rotate(-180 568.133 8.01612)" fill="#9896AE"/>
<circle cx="583.594" cy="85.3169" r="7.72997" transform="rotate(-180 583.594 85.3169)" fill="#9896AE"/>
<circle cx="583.594" cy="23.4771" r="7.72997" transform="rotate(-180 583.594 23.4771)" fill="#9896AE"/>
<circle cx="491.407" cy="85.3169" r="7.72997" transform="rotate(-180 491.407 85.3169)" fill="#9896AE"/>
<circle cx="506.864" cy="23.4771" r="7.72997" transform="rotate(-180 506.864 23.4771)" fill="#9896AE"/>
<circle cx="522.325" cy="8.01612" r="7.72997" transform="rotate(-180 522.325 8.01612)" fill="#9896AE"/>
<rect x="712.141" y="85.0312" width="15.4599" height="61.8398" transform="rotate(-180 712.141 85.0312)" fill="#9896AE"/>
<rect x="673.207" y="15.7461" width="15.4599" height="15.4599" transform="rotate(-90 673.207 15.7461)" fill="#9896AE"/>
<rect x="629.117" y="93.0469" width="15.4599" height="15.4599" transform="rotate(-90 629.117 93.0469)" fill="#9896AE"/>
<rect x="619.383" y="69.8555" width="15.4599" height="61.8398" transform="rotate(-180 619.383 69.8555)" fill="#9896AE"/>
<rect x="665.762" y="69.5703" width="15.4599" height="46.3798" transform="rotate(-180 665.762 69.5703)" fill="#9896AE"/>
<circle cx="627.114" cy="85.3169" r="7.72997" transform="rotate(-180 627.114 85.3169)" fill="#9896AE"/>
<circle cx="642.575" cy="85.3169" r="7.72997" transform="rotate(-180 642.575 85.3169)" fill="#9896AE"/>
<circle cx="688.954" cy="8.01612" r="7.72997" transform="rotate(-180 688.954 8.01612)" fill="#9896AE"/>
<circle cx="673.489" cy="8.01612" r="7.72997" transform="rotate(-180 673.489 8.01612)" fill="#9896AE"/>
<circle cx="704.411" cy="85.3169" r="7.72997" transform="rotate(-180 704.411 85.3169)" fill="#9896AE"/>
<circle cx="611.653" cy="69.856" r="7.72997" transform="rotate(-180 611.653 69.856)" fill="#9896AE"/>
<circle cx="611.653" cy="8.01612" r="7.72997" transform="rotate(-180 611.653 8.01612)" fill="#9896AE"/>
<circle cx="704.411" cy="23.4732" r="7.72997" transform="rotate(-180 704.411 23.4732)" fill="#9896AE"/>
<circle cx="658.032" cy="69.856" r="7.72997" transform="rotate(-180 658.032 69.856)" fill="#9896AE"/>
<circle cx="658.032" cy="23.4732" r="7.72997" transform="rotate(-180 658.032 23.4732)" fill="#9896AE"/>
<path d="M611.649 77.5839C618.291 77.3403 619.57 82.9629 619.379 85.8047L627.109 77.5839C620.696 76.8532 619.284 71.7989 619.379 69.3632L611.649 77.5839Z" fill="#9896AE"/>
<path d="M650.296 69.8526C650.525 76.4946 645.238 77.7734 642.566 77.5825L650.296 85.3125C650.983 78.8995 655.736 77.4871 658.026 77.5825L650.296 69.8526Z" fill="#9896AE"/>
<path d="M688.95 15.7402C695.592 15.4966 696.871 21.1192 696.68 23.9609L704.41 15.7402C697.997 15.0094 696.585 9.9552 696.68 7.51941L688.95 15.7402Z" fill="#9896AE"/>
<path d="M665.756 8.01271C666 14.6548 660.377 15.9335 657.535 15.7427L665.756 23.4727C666.487 17.0596 671.541 15.6473 673.977 15.7427L665.756 8.01271Z" fill="#9896AE"/>
<path d="M772.26 23.1904C772.503 16.5484 766.881 15.2696 764.039 15.4604L772.26 7.73047C772.991 14.1435 778.045 15.5559 780.481 15.4604L772.26 23.1904Z" fill="#9896AE"/>
<path d="M787.717 23.1904C787.473 16.5484 793.096 15.2696 795.938 15.4604L787.717 7.73047C786.986 14.1435 781.932 15.5559 779.496 15.4604L787.717 23.1904Z" fill="#9896AE"/>
<rect x="787.719" y="85.1406" width="15.4599" height="63.214" transform="rotate(-180 787.719 85.1406)" fill="#9896AE"/>
<ellipse cx="779.989" cy="85.4303" rx="7.72997" ry="7.90175" transform="rotate(-180 779.989 85.4303)" fill="#9896AE"/>
<ellipse cx="779.989" cy="22.2193" rx="7.72997" ry="7.90175" transform="rotate(-180 779.989 22.2193)" fill="#9896AE"/>
<rect x="724.734" y="15.459" width="15.4599" height="108.22" rx="7.72997" transform="rotate(-90 724.734 15.459)" fill="#9896AE"/>
<path d="M930.298 78.7346C936.007 78.7346 938.931 74.1407 938.931 70.2162L946.066 77.3516C941.072 77.3516 937.504 81.6328 937.504 85.9141L930.298 78.7346Z" fill="#9896AE"/>
<path d="M861.294 85.9127C861.294 80.2044 856.656 77.3502 852.732 77.3502L859.867 70.2148C859.867 75.2096 864.148 78.7332 868.43 78.7332L864.862 82.3009L861.294 85.9127Z" fill="#9896AE"/>
<path d="M852.732 63.0092C858.44 63.0092 861.294 58.3712 861.294 54.4467L868.43 61.5821C863.435 61.5821 859.867 65.8633 859.867 70.1445L852.732 63.0092Z" fill="#9896AE"/>
<path d="M852.685 15.9857C858.393 15.9857 861.247 11.3477 861.247 7.42326L868.383 14.5586C863.388 14.5586 859.82 18.8399 859.82 23.1211L852.685 15.9857Z" fill="#9896AE"/>
<path d="M930.369 47.3842C936.077 47.3842 938.931 42.7462 938.931 38.8217L946.066 45.9571C941.072 45.9571 937.504 50.2383 937.504 54.5195L930.369 47.3842Z" fill="#9896AE"/>
<path d="M937.503 7.42351C937.503 13.1318 942.141 15.986 946.065 15.986L938.93 23.1213C938.93 18.1266 934.648 14.5589 930.367 14.5589L937.503 7.42351Z" fill="#9896AE"/>
<path d="M937.503 54.517C937.503 60.2253 942.141 63.0795 946.065 63.0795L938.93 70.2148C938.93 65.2201 934.648 61.6524 930.367 61.6524L937.503 54.517Z" fill="#9896AE"/>
<circle cx="930.365" cy="85.9115" r="5.13538" transform="rotate(-180 930.365 85.9115)" fill="#9896AE" stroke="#9896AE" stroke-width="4"/>
<circle cx="915.38" cy="85.9115" r="5.13538" transform="rotate(-180 915.38 85.9115)" fill="#9896AE" stroke="#9896AE" stroke-width="4"/>
<circle cx="899.685" cy="85.9115" r="5.13538" transform="rotate(-180 899.685 85.9115)" fill="#9896AE" stroke="#9896AE" stroke-width="4"/>
<path d="M863.252 85.8895C863.252 83.0412 865.561 80.7321 868.409 80.7321C871.257 80.7321 873.566 83.0412 873.566 85.8895C873.566 88.7378 871.257 91.0469 868.409 91.0469C865.561 91.0469 863.252 88.7378 863.252 85.8895Z" fill="#9896AE" stroke="#9896AE" stroke-width="4"/>
<path d="M847.552 70.1434C847.552 67.2951 849.861 64.986 852.71 64.986C855.558 64.986 857.867 67.2951 857.867 70.1434C857.867 72.9917 855.558 75.3008 852.71 75.3008C849.861 75.3008 847.552 72.9917 847.552 70.1434Z" fill="#9896AE" stroke="#9896AE" stroke-width="4"/>
<path d="M847.553 54.3724C847.553 51.5362 849.853 49.2371 852.689 49.2371C855.525 49.2371 857.824 51.5362 857.824 54.3724C857.824 57.2086 855.525 59.5078 852.689 59.5078C849.853 59.5078 847.553 57.2086 847.553 54.3724Z" fill="#9896AE" stroke="#9896AE" stroke-width="4"/>
<circle cx="946.064" cy="70.2123" r="5.13538" transform="rotate(-180 946.064 70.2123)" fill="#9896AE" stroke="#9896AE" stroke-width="4"/>
<circle cx="946.064" cy="54.517" r="5.13538" transform="rotate(-180 946.064 54.517)" fill="#9896AE" stroke="#9896AE" stroke-width="4"/>
<circle cx="946.064" cy="40.2435" r="5.13538" transform="rotate(-180 946.064 40.2435)" fill="#9896AE" stroke="#9896AE" stroke-width="4"/>
<circle cx="946.064" cy="23.1185" r="5.13538" transform="rotate(-180 946.064 23.1185)" fill="#9896AE" stroke="#9896AE" stroke-width="4"/>
<circle cx="930.369" cy="7.42321" r="5.13538" transform="rotate(-180 930.369 7.42321)" fill="#9896AE" stroke="#9896AE" stroke-width="4"/>
<circle cx="915.38" cy="7.42321" r="5.13538" transform="rotate(-180 915.38 7.42321)" fill="#9896AE" stroke="#9896AE" stroke-width="4"/>
<circle cx="899.685" cy="7.42321" r="5.13538" transform="rotate(-180 899.685 7.42321)" fill="#9896AE" stroke="#9896AE" stroke-width="4"/>
<circle cx="868.384" cy="7.42321" r="5.13538" transform="rotate(-180 868.384 7.42321)" fill="#9896AE" stroke="#9896AE" stroke-width="4"/>
<circle cx="852.689" cy="23.1185" r="5.13538" transform="rotate(-180 852.689 23.1185)" fill="#9896AE" stroke="#9896AE" stroke-width="4"/>
<circle cx="930.365" cy="54.517" r="5.13538" transform="rotate(-180 930.365 54.517)" fill="#9896AE" stroke="#9896AE" stroke-width="4"/>
<path d="M930.348 93.0469L868.456 93.0469L868.456 78.7321L930.348 78.7321L930.348 93.0469Z" fill="#9896AE"/>
<rect x="946.328" y="61.5547" width="93.3322" height="14.3148" transform="rotate(-180 946.328 61.5547)" fill="#9896AE"/>
<rect x="845.555" y="69.5039" width="14.9843" height="14.2708" transform="rotate(-90 845.555 69.5039)" fill="#9896AE"/>
<rect x="930.293" y="14.6016" width="61.8398" height="14.3148" transform="rotate(-180 930.293 14.6016)" fill="#9896AE"/>
<rect x="939.43" y="69.7148" width="46.0935" height="13.2708" transform="rotate(-90 939.43 69.7148)" fill="#9896AE" stroke="#9896AE"/>
<path d="M973.527 15.7461C969.258 15.7461 965.797 20.0721 965.797 25.4086L965.797 83.3833C965.797 88.7198 969.258 93.0458 973.527 93.0458C977.796 93.0458 981.257 88.7198 981.257 83.3833L981.257 25.4086C981.257 18.8953 977.796 15.7461 973.527 15.7461Z" fill="#9896AE"/>
<path d="M981.254 8.01612C981.254 12.2853 984.715 15.7461 988.984 15.7461L1050.82 15.7461C1055.09 15.7461 1058.55 12.2853 1058.55 8.01612V8.01612C1058.55 3.74697 1055.09 0.286148 1050.82 0.286148L988.984 0.286154C984.715 0.286154 981.254 3.74698 981.254 8.01612V8.01612Z" fill="#9896AE"/>
<path d="M981.254 54.395C981.254 58.6642 984.715 62.125 988.984 62.125L1050.82 62.125C1055.09 62.125 1058.55 58.6642 1058.55 54.395V54.395C1058.55 50.1259 1055.09 46.6651 1050.82 46.6651L988.984 46.6651C984.715 46.6651 981.254 50.1259 981.254 54.395V54.395Z" fill="#9896AE"/>
<path d="M1058.56 38.9346C1058.8 45.5766 1053.18 46.8554 1050.34 46.6646L1058.56 54.3945C1059.29 47.9815 1064.34 46.5691 1066.78 46.6646L1058.56 38.9346Z" fill="#9896AE"/>
<path d="M981.154 54.3955C981.398 61.0376 975.775 62.3164 972.934 62.1255L981.154 69.8555C981.885 63.4425 986.939 62.0301 989.375 62.1255L981.154 54.3955Z" fill="#9896AE"/>
<path d="M981.256 8.01662C981.499 14.6587 975.877 15.9375 973.035 15.7466L981.256 23.4766C981.987 17.0635 987.041 15.6512 989.477 15.7466L981.256 8.01662Z" fill="#9896AE"/>
<path d="M1058.56 8.01662C1058.31 14.6587 1063.94 15.9375 1066.78 15.7466L1058.56 23.4766C1057.83 17.0636 1052.77 15.6512 1050.34 15.7466L1058.56 8.01662Z" fill="#9896AE"/>
<path d="M981.256 38.9346C981.012 45.5766 986.635 46.8554 989.477 46.6646L981.256 54.3945C980.525 47.9815 975.471 46.5691 973.035 46.6646L981.256 38.9346Z" fill="#9896AE"/>
<circle r="7.72997" transform="matrix(-1 1.74846e-07 1.74846e-07 1 1050.82 54.3979)" fill="#9896AE"/>
<circle r="7.72997" transform="matrix(-1 1.74846e-07 1.74846e-07 1 1066.29 23.4761)" fill="#9896AE"/>
<circle r="7.72997" transform="matrix(-1 1.74846e-07 1.74846e-07 1 973.528 23.4761)" fill="#9896AE"/>
<circle r="7.72997" transform="matrix(-1 1.74846e-07 1.74846e-07 1 1066.29 38.937)" fill="#9896AE"/>
<rect width="15.4599" height="15.4599" transform="matrix(-1 1.74846e-07 1.74846e-07 1 1074.02 23.1914)" fill="#9896AE"/>
<rect x="1102.07" y="93.0508" width="15.4599" height="92.7596" rx="7.72997" transform="rotate(-180 1102.07 93.0508)" fill="#9896AE"/>
<rect x="1193.69" y="93.0508" width="15.4599" height="92.7596" rx="7.72997" transform="rotate(-180 1193.69 93.0508)" fill="#9896AE"/>
<rect x="1102.07" y="46.6719" width="15.4599" height="75.5819" rx="7.72997" transform="rotate(-90 1102.07 46.6719)" fill="#9896AE"/>
<path d="M1178.23 54.3974C1178.46 47.7554 1173.17 46.4766 1170.5 46.6675L1178.23 38.9375C1178.91 45.3505 1183.67 46.7629 1185.96 46.6675L1178.23 54.3974Z" fill="#9896AE"/>
<path d="M1102.07 38.9404C1102.3 32.2984 1097.02 31.0196 1094.34 31.2104L1102.07 23.4805C1102.76 29.8935 1107.51 31.3059 1109.8 31.2104L1102.07 38.9404Z" fill="#9896AE"/>
<path d="M1178.23 38.9404C1178 32.2984 1183.28 31.0196 1185.96 31.2104L1178.23 23.4805C1177.54 29.8935 1172.79 31.3059 1170.5 31.2104L1178.23 38.9404Z" fill="#9896AE"/>
<path d="M1102.07 54.4004C1101.84 47.7583 1107.13 46.4795 1109.8 46.6704L1102.07 38.9404C1101.39 45.3534 1096.63 46.7658 1094.34 46.6704L1102.07 54.4004Z" fill="#9896AE"/>
<path d="M1169.93 46.6719C1165.66 46.6719 1162.2 43.211 1162.2 38.9419V38.9419C1162.2 34.6728 1165.66 31.2119 1169.93 31.2119H1170.5C1174.77 31.2119 1178.23 34.6728 1178.23 38.9419V38.9419C1178.23 43.211 1174.77 46.6719 1170.5 46.6719H1169.93Z" fill="#9896AE"/>
<path d="M1221.74 8.02294C1221.74 3.75379 1225.2 0.292969 1229.47 0.292969H1291.31C1295.58 0.292969 1299.04 3.75379 1299.04 8.02294V8.02294C1299.04 12.2921 1295.58 15.7529 1291.31 15.7529H1229.47C1225.2 15.7529 1221.74 12.2921 1221.74 8.02294V8.02294Z" fill="#9896AE"/>
<path d="M1214.01 77.5859C1209.74 77.5859 1206.28 74.1251 1206.28 69.856V23.4761C1206.28 19.207 1209.74 15.7462 1214.01 15.7462V15.7462C1218.28 15.7462 1221.74 19.207 1221.74 23.4761V69.856C1221.74 74.1251 1218.28 77.5859 1214.01 77.5859V77.5859Z" fill="#9896AE"/>
<path d="M1307.26 77.5859C1302.72 77.5859 1299.04 74.1251 1299.04 69.856V23.4761C1299.04 19.207 1302.72 15.7462 1307.26 15.7462C1311.8 15.7462 1315.48 19.207 1315.48 23.4761V69.856C1315.48 74.1251 1311.8 77.5859 1307.26 77.5859Z" fill="#9896AE"/>
<path d="M1221.74 85.3159C1221.74 81.0468 1225.2 77.5859 1229.47 77.5859H1291.31C1295.58 77.5859 1299.04 81.0468 1299.04 85.3159V85.3159C1299.04 89.5851 1295.58 93.0459 1291.31 93.0459H1229.47C1225.2 93.0459 1221.74 89.5851 1221.74 85.3159V85.3159Z" fill="#9896AE"/>
<path d="M1299.04 23.4834C1299.28 16.8413 1293.66 15.5625 1290.82 15.7534L1299.04 8.02344C1299.77 14.4364 1304.83 15.8488 1307.26 15.7534L1299.04 23.4834Z" fill="#9896AE"/>
<path d="M1221.74 85.3154C1221.98 78.6734 1216.36 77.3946 1213.52 77.5854L1221.74 69.8555C1222.47 76.2685 1227.53 77.6809 1229.96 77.5854L1221.74 85.3154Z" fill="#9896AE"/>
<path d="M1299.04 85.3154C1298.8 78.6734 1304.42 77.3946 1307.26 77.5854L1299.04 69.8555C1298.31 76.2685 1293.26 77.6809 1290.82 77.5854L1299.04 85.3154Z" fill="#9896AE"/>
<path d="M1221.74 23.4756C1221.5 16.8335 1227.12 15.5547 1229.96 15.7456L1221.74 8.01562C1221.01 14.4286 1215.96 15.841 1213.52 15.7456L1221.74 23.4756Z" fill="#9896AE"/>
<path d="M32.8125 254.937C32.8125 250.668 40.1582 247.207 49.2195 247.207H180.475C189.537 247.207 196.882 250.668 196.882 254.937V254.937C196.882 259.206 189.537 262.667 180.475 262.667H49.2195C40.1582 262.667 32.8125 259.206 32.8125 254.937V254.937Z" fill="#9896AE"/>
<path d="M16.407 324.504C7.34565 324.504 0 321.043 0 316.774L0 270.394C0 266.125 7.34565 262.664 16.407 262.664V262.664C25.4683 262.664 32.814 266.125 32.814 270.394V316.774C32.814 321.043 25.4683 324.504 16.407 324.504V324.504Z" fill="#9896AE"/>
<path d="M32.8125 332.234C32.8125 327.965 40.1582 324.504 49.2195 324.504H180.475C189.537 324.504 196.882 327.965 196.882 332.234V332.234C196.882 336.503 189.537 339.964 180.475 339.964H49.2195C40.1582 339.964 32.8125 336.503 32.8125 332.234V332.234Z" fill="#9896AE"/>
<path d="M196.886 270.397C197.403 263.755 185.469 262.477 179.438 262.667L196.886 254.938C198.437 261.351 209.165 262.763 214.335 262.667L196.886 270.397Z" fill="#9896AE"/>
<path d="M32.8159 332.237C33.3329 325.595 21.3988 324.316 15.3672 324.507L32.8159 316.777C34.3669 323.19 45.0946 324.603 50.2646 324.507L32.8159 332.237Z" fill="#9896AE"/>
<path d="M196.879 332.237C196.362 325.595 208.296 324.316 214.328 324.507L196.879 316.777C195.328 323.19 184.601 324.603 179.431 324.507L196.879 332.237Z" fill="#9896AE"/>
<path d="M32.8169 270.397C32.2999 263.755 44.234 262.477 50.2656 262.667L32.8169 254.938C31.2659 261.351 20.5382 262.763 15.3682 262.667L32.8169 270.397Z" fill="#9896AE"/>
<ellipse cx="213.296" cy="270.399" rx="16.407" ry="7.72997" transform="rotate(-180 213.296 270.399)" fill="#9896AE"/>
<ellipse cx="213.296" cy="316.774" rx="16.407" ry="7.72997" transform="rotate(-180 213.296 316.774)" fill="#9896AE"/>
<path d="M258.285 254.937C258.285 250.668 261.746 247.207 266.015 247.207H327.855C332.124 247.207 335.585 250.668 335.585 254.937V254.937C335.585 259.206 332.124 262.667 327.855 262.667H266.015C261.746 262.667 258.285 259.206 258.285 254.937V254.937Z" fill="#9896AE"/>
<path d="M250.558 324.5C246.289 324.5 242.828 321.039 242.828 316.77V270.39C242.828 266.121 246.289 262.66 250.558 262.66V262.66C254.827 262.66 258.288 266.121 258.288 270.39V316.77C258.288 321.039 254.827 324.5 250.558 324.5V324.5Z" fill="#9896AE"/>
<path d="M343.807 324.5C339.266 324.5 335.586 321.039 335.586 316.77V270.39C335.586 266.121 339.266 262.66 343.807 262.66C348.347 262.66 352.027 266.121 352.027 270.39V316.77C352.027 321.039 348.347 324.5 343.807 324.5Z" fill="#9896AE"/>
<path d="M258.285 332.23C258.285 327.961 261.746 324.5 266.015 324.5H327.855C332.124 324.5 335.585 327.961 335.585 332.23V332.23C335.585 336.499 332.124 339.96 327.855 339.96H266.015C261.746 339.96 258.285 336.499 258.285 332.23V332.23Z" fill="#9896AE"/>
<path d="M335.588 270.397C335.832 263.755 330.209 262.477 327.367 262.667L335.588 254.938C336.319 261.351 341.373 262.763 343.809 262.667L335.588 270.397Z" fill="#9896AE"/>
<path d="M258.287 332.229C258.531 325.587 252.908 324.309 250.066 324.5L258.287 316.77C259.018 323.183 264.072 324.595 266.508 324.5L258.287 332.229Z" fill="#9896AE"/>
<path d="M335.588 332.229C335.344 325.587 340.967 324.309 343.809 324.5L335.588 316.77C334.857 323.183 329.803 324.595 327.367 324.5L335.588 332.229Z" fill="#9896AE"/>
<path d="M258.291 270.39C258.047 263.748 263.67 262.469 266.512 262.66L258.291 254.93C257.56 261.343 252.506 262.755 250.07 262.66L258.291 270.39Z" fill="#9896AE"/>
<rect x="388.1" y="324.508" width="69.2834" height="15.4599" fill="#9896AE"/>
<path fill-rule="evenodd" clip-rule="evenodd" d="M441.061 332.242C441.061 327.973 444.522 324.512 448.791 324.512C444.522 324.512 441.061 321.052 441.061 316.782C441.061 321.052 437.6 324.512 433.331 324.512C437.6 324.512 441.061 327.973 441.061 332.242Z" fill="#9896AE"/>
<path fill-rule="evenodd" clip-rule="evenodd" d="M456.522 332.242C456.522 327.973 459.983 324.512 464.252 324.512C459.983 324.512 456.522 321.052 456.522 316.782C456.522 321.052 453.061 324.512 448.792 324.512C453.061 324.512 456.522 327.973 456.522 332.242Z" fill="#9896AE"/>
<path fill-rule="evenodd" clip-rule="evenodd" d="M455.663 347.703C455.663 343.434 459.123 339.973 463.393 339.973C459.123 339.973 455.663 336.512 455.663 332.243C455.663 336.512 452.202 339.973 447.933 339.973C452.202 339.973 455.663 343.434 455.663 347.703Z" fill="#9896AE"/>
<path fill-rule="evenodd" clip-rule="evenodd" d="M380.081 332.242C380.081 327.973 383.541 324.512 387.811 324.512C383.541 324.512 380.081 321.052 380.081 316.782C380.081 321.052 376.62 324.512 372.351 324.512C376.62 324.512 380.081 327.973 380.081 332.242Z" fill="#9896AE"/>
<rect x="456.521" y="316.781" width="15.4599" height="61.8398" transform="rotate(-180 456.521 316.781)" fill="#9896AE"/>
<rect x="471.123" y="347.988" width="15.4599" height="15.4599" transform="rotate(-180 471.123 347.988)" fill="#9896AE"/>
<rect x="380.08" y="316.781" width="15.4599" height="61.8398" transform="rotate(-180 380.08 316.781)" fill="#9896AE"/>
<circle cx="418.733" cy="332.239" r="7.72997" transform="rotate(-180 418.733 332.239)" fill="#9896AE"/>
<circle cx="387.815" cy="332.239" r="7.72997" transform="rotate(-180 387.815 332.239)" fill="#9896AE"/>
<circle cx="448.792" cy="316.782" r="7.72997" transform="rotate(-180 448.792 316.782)" fill="#9896AE"/>
<circle cx="372.354" cy="316.782" r="7.72997" transform="rotate(-180 372.354 316.782)" fill="#9896AE"/>
<circle cx="372.35" cy="254.942" r="7.72997" transform="rotate(-180 372.35 254.942)" fill="#9896AE"/>
<circle cx="448.792" cy="254.942" r="7.72997" transform="rotate(-180 448.792 254.942)" fill="#9896AE"/>
<circle cx="463.393" cy="348.274" r="7.72997" transform="rotate(-180 463.393 348.274)" fill="#9896AE"/>
<circle cx="463.393" cy="332.239" r="7.72997" transform="rotate(-180 463.393 332.239)" fill="#9896AE"/>
<path d="M500.016 254.937C500.016 250.668 503.476 247.207 507.746 247.207H569.585C573.854 247.207 577.315 250.668 577.315 254.937V254.937C577.315 259.206 573.854 262.667 569.585 262.667H507.746C503.476 262.667 500.016 259.206 500.016 254.937V254.937Z" fill="#9896AE"/>
<path d="M492.289 324.504C488.019 324.504 484.559 321.043 484.559 316.774V270.394C484.559 266.125 488.019 262.664 492.289 262.664V262.664C496.558 262.664 500.019 266.125 500.019 270.394V316.774C500.019 321.043 496.558 324.504 492.289 324.504V324.504Z" fill="#9896AE"/>
<path d="M500.016 332.234C500.016 327.965 503.476 324.504 507.746 324.504H569.585C573.854 324.504 577.315 327.965 577.315 332.234V332.234C577.315 336.503 573.854 339.964 569.585 339.964H507.746C503.476 339.964 500.016 336.503 500.016 332.234V332.234Z" fill="#9896AE"/>
<path d="M577.318 270.397C577.562 263.755 571.939 262.477 569.098 262.667L577.318 254.938C578.049 261.351 583.103 262.763 585.539 262.667L577.318 270.397Z" fill="#9896AE"/>
<path d="M500.018 332.237C500.261 325.595 494.639 324.316 491.797 324.507L500.018 316.777C500.748 323.19 505.803 324.603 508.238 324.507L500.018 332.237Z" fill="#9896AE"/>
<path d="M577.318 332.237C577.075 325.595 582.697 324.316 585.539 324.507L577.318 316.777C576.588 323.19 571.533 324.603 569.098 324.507L577.318 332.237Z" fill="#9896AE"/>
<path d="M500.021 270.397C499.778 263.755 505.4 262.477 508.242 262.667L500.021 254.938C499.291 261.351 494.236 262.763 491.801 262.667L500.021 270.397Z" fill="#9896AE"/>
<circle cx="585.051" cy="270.399" r="7.72997" transform="rotate(-180 585.051 270.399)" fill="#9896AE"/>
<circle cx="585.051" cy="316.774" r="7.72997" transform="rotate(-180 585.051 316.774)" fill="#9896AE"/>
<path d="M703.67 261.475C678.696 261.475 666.209 266.113 666.209 270.038L634.992 262.902C656.844 262.902 672.453 258.621 672.453 254.34L703.67 261.475Z" fill="#9896AE"/>
<path d="M1005.87 254.341C1005.87 260.05 1026.16 262.904 1043.33 262.904L1012.12 270.039C1012.12 265.044 993.387 261.521 974.656 261.521L990.265 257.953L1005.87 254.341Z" fill="#9896AE"/>
<path d="M1043.33 277.245C1018.36 277.245 1005.87 281.883 1005.87 285.807L974.656 278.672C996.508 278.672 1012.12 274.391 1012.12 270.109L1043.33 277.245Z" fill="#9896AE"/>
<path d="M1043.53 324.268C1018.56 324.268 1006.07 328.906 1006.07 332.831L974.852 325.695C996.704 325.695 1012.31 321.414 1012.31 317.133L1043.53 324.268Z" fill="#9896AE"/>
<path d="M703.67 292.87C678.696 292.87 666.209 297.508 666.209 301.432L634.992 294.297C656.844 294.297 672.453 290.016 672.453 285.734L703.67 292.87Z" fill="#9896AE"/>
<path d="M672.463 332.83C672.463 327.122 652.171 324.268 635.002 324.268L666.219 317.133C666.219 322.127 684.949 325.695 703.68 325.695L672.463 332.83Z" fill="#9896AE"/>
<path d="M672.463 285.737C672.463 280.029 652.171 277.174 635.002 277.174L666.219 270.039C666.219 275.034 684.949 278.602 703.68 278.602L672.463 285.737Z" fill="#9896AE"/>
<path d="M732.912 254.255C732.912 254.255 732.911 254.258 732.908 254.264C732.91 254.258 732.911 254.255 732.912 254.255ZM732.775 254.238C732.812 254.28 732.839 254.315 732.86 254.342C732.839 254.37 732.812 254.405 732.775 254.446C732.569 254.677 732.172 254.995 731.495 255.36C730.144 256.09 728.058 256.81 725.31 257.438C719.846 258.687 712.198 259.478 703.682 259.478C695.166 259.478 687.518 258.687 682.054 257.438C679.306 256.81 677.219 256.09 675.869 255.36C675.192 254.995 674.795 254.677 674.589 254.446C674.552 254.405 674.524 254.37 674.504 254.342C674.524 254.315 674.552 254.28 674.589 254.238C674.795 254.008 675.192 253.69 675.869 253.325C677.219 252.595 679.306 251.875 682.054 251.247C687.518 249.998 695.166 249.207 703.682 249.207C712.198 249.207 719.846 249.998 725.31 251.247C728.058 251.875 730.144 252.595 731.495 253.325C732.172 253.69 732.569 254.008 732.775 254.238ZM674.452 254.255C674.452 254.255 674.454 254.258 674.455 254.264C674.453 254.258 674.452 254.255 674.452 254.255ZM674.452 254.429C674.452 254.429 674.453 254.427 674.455 254.421C674.454 254.427 674.452 254.429 674.452 254.429ZM732.908 254.421C732.911 254.427 732.912 254.429 732.912 254.429C732.911 254.429 732.91 254.427 732.908 254.421Z" fill="#9896AE" stroke="#9896AE" stroke-width="4"/>
<path d="M798.474 254.255C798.474 254.255 798.473 254.258 798.471 254.264C798.473 254.258 798.474 254.255 798.474 254.255ZM798.337 254.238C798.374 254.28 798.402 254.315 798.422 254.342C798.402 254.37 798.374 254.405 798.337 254.446C798.131 254.677 797.734 254.995 797.057 255.36C795.707 256.09 793.621 256.81 790.873 257.438C785.408 258.687 777.761 259.478 769.244 259.478C760.728 259.478 753.08 258.687 747.616 257.438C744.868 256.81 742.782 256.09 741.431 255.36C740.755 254.995 740.358 254.677 740.152 254.446C740.114 254.405 740.087 254.37 740.067 254.342C740.087 254.315 740.114 254.28 740.152 254.238C740.358 254.008 740.755 253.69 741.431 253.325C742.782 252.595 744.868 251.875 747.616 251.247C753.08 249.998 760.728 249.207 769.244 249.207C777.761 249.207 785.408 249.998 790.873 251.247C793.621 251.875 795.707 252.595 797.057 253.325C797.734 253.69 798.131 254.008 798.337 254.238ZM740.015 254.255C740.015 254.255 740.016 254.258 740.018 254.264C740.015 254.258 740.015 254.255 740.015 254.255ZM740.015 254.429C740.015 254.429 740.015 254.427 740.018 254.421C740.016 254.427 740.015 254.429 740.015 254.429ZM798.471 254.421C798.474 254.427 798.474 254.429 798.474 254.429C798.474 254.429 798.473 254.427 798.471 254.421Z" fill="#9896AE" stroke="#9896AE" stroke-width="4"/>
<path d="M867.146 254.255C867.146 254.255 867.145 254.258 867.143 254.264C867.144 254.258 867.146 254.255 867.146 254.255ZM867.009 254.238C867.046 254.28 867.074 254.315 867.094 254.342C867.074 254.37 867.046 254.405 867.009 254.446C866.803 254.677 866.406 254.995 865.729 255.36C864.379 256.09 862.293 256.81 859.544 257.438C854.08 258.687 846.433 259.478 837.916 259.478C829.4 259.478 821.752 258.687 816.288 257.438C813.54 256.81 811.454 256.09 810.103 255.36C809.427 254.995 809.03 254.677 808.824 254.446C808.786 254.405 808.759 254.37 808.739 254.342C808.759 254.315 808.786 254.28 808.824 254.238C809.03 254.008 809.427 253.69 810.103 253.325C811.454 252.595 813.54 251.875 816.288 251.247C821.752 249.998 829.4 249.207 837.916 249.207C846.433 249.207 854.08 249.998 859.544 251.247C862.293 251.875 864.379 252.595 865.729 253.325C866.406 253.69 866.803 254.008 867.009 254.238ZM808.687 254.255C808.687 254.255 808.688 254.258 808.69 254.264C808.687 254.258 808.686 254.255 808.687 254.255ZM808.687 254.429C808.686 254.429 808.687 254.427 808.69 254.421C808.688 254.427 808.687 254.429 808.687 254.429ZM867.143 254.421C867.145 254.427 867.146 254.429 867.146 254.429C867.146 254.429 867.144 254.427 867.143 254.421Z" fill="#9896AE" stroke="#9896AE" stroke-width="4"/>
<path d="M1004.06 254.279C1004.06 254.279 1004.06 254.282 1004.05 254.288C1004.06 254.282 1004.06 254.279 1004.06 254.279ZM1003.92 254.256C1003.96 254.3 1003.99 254.336 1004.01 254.364C1003.99 254.393 1003.96 254.429 1003.92 254.473C1003.71 254.705 1003.31 255.024 1002.63 255.391C1001.28 256.123 999.184 256.846 996.428 257.476C990.946 258.729 983.274 259.522 974.731 259.522C966.188 259.522 958.517 258.729 953.035 257.476C950.278 256.846 948.185 256.123 946.83 255.391C946.151 255.024 945.752 254.705 945.544 254.473C945.505 254.429 945.477 254.393 945.456 254.364C945.477 254.336 945.505 254.3 945.544 254.256C945.752 254.024 946.151 253.705 946.83 253.338C948.185 252.605 950.278 251.883 953.035 251.253C958.517 250 966.188 249.207 974.731 249.207C983.274 249.207 990.946 250 996.428 251.253C999.184 251.883 1001.28 252.605 1002.63 253.338C1003.31 253.705 1003.71 254.024 1003.92 254.256ZM945.406 254.279C945.406 254.279 945.407 254.282 945.409 254.288C945.406 254.282 945.406 254.279 945.406 254.279ZM945.406 254.45C945.406 254.45 945.406 254.447 945.409 254.441C945.407 254.447 945.406 254.45 945.406 254.45ZM1004.05 254.441C1004.06 254.447 1004.06 254.45 1004.06 254.45C1004.06 254.45 1004.06 254.447 1004.05 254.441Z" fill="#9896AE" stroke="#9896AE" stroke-width="4"/>
<path d="M1072.74 270.025C1072.74 270.025 1072.74 270.028 1072.74 270.034C1072.74 270.028 1072.74 270.025 1072.74 270.025ZM1072.61 270.002C1072.64 270.046 1072.67 270.082 1072.69 270.111C1072.67 270.139 1072.64 270.175 1072.61 270.219C1072.4 270.451 1072 270.77 1071.32 271.137C1069.97 271.869 1067.87 272.592 1065.12 273.222C1059.63 274.475 1051.96 275.268 1043.42 275.268C1034.88 275.268 1027.2 274.475 1021.72 273.222C1018.97 272.592 1016.87 271.869 1015.52 271.137C1014.84 270.77 1014.44 270.451 1014.23 270.219C1014.19 270.175 1014.16 270.139 1014.14 270.111C1014.16 270.082 1014.19 270.046 1014.23 270.002C1014.44 269.77 1014.84 269.451 1015.52 269.084C1016.87 268.352 1018.97 267.629 1021.72 266.999C1027.2 265.746 1034.88 264.953 1043.42 264.953C1051.96 264.953 1059.63 265.746 1065.12 266.999C1067.87 267.629 1069.97 268.352 1071.32 269.084C1072 269.451 1072.4 269.77 1072.61 270.002ZM1014.09 270.025C1014.09 270.025 1014.09 270.028 1014.1 270.034C1014.09 270.028 1014.09 270.025 1014.09 270.025ZM1014.09 270.196C1014.09 270.196 1014.09 270.193 1014.1 270.187C1014.09 270.193 1014.09 270.196 1014.09 270.196ZM1072.74 270.187C1072.74 270.193 1072.74 270.196 1072.74 270.196C1072.74 270.196 1072.74 270.193 1072.74 270.187Z" fill="#9896AE" stroke="#9896AE" stroke-width="4"/>
<path d="M1072.75 285.795C1072.75 285.795 1072.75 285.797 1072.74 285.803C1072.75 285.797 1072.75 285.795 1072.75 285.795ZM1072.61 285.777C1072.65 285.819 1072.68 285.854 1072.7 285.881C1072.68 285.909 1072.65 285.944 1072.61 285.985C1072.4 286.216 1072.01 286.534 1071.33 286.899C1069.98 287.629 1067.89 288.349 1065.15 288.977C1059.68 290.226 1052.03 291.017 1043.52 291.017C1035 291.017 1027.35 290.226 1021.89 288.977C1019.14 288.349 1017.06 287.629 1015.7 286.899C1015.03 286.534 1014.63 286.216 1014.43 285.985C1014.39 285.944 1014.36 285.909 1014.34 285.881C1014.36 285.854 1014.39 285.819 1014.43 285.777C1014.63 285.547 1015.03 285.229 1015.7 284.864C1017.06 284.134 1019.14 283.414 1021.89 282.786C1027.35 281.537 1035 280.746 1043.52 280.746C1052.03 280.746 1059.68 281.537 1065.15 282.786C1067.89 283.414 1069.98 284.134 1071.33 284.864C1072.01 285.229 1072.4 285.547 1072.61 285.777ZM1014.29 285.795C1014.29 285.795 1014.29 285.797 1014.29 285.803C1014.29 285.797 1014.29 285.794 1014.29 285.795ZM1014.29 285.968C1014.29 285.968 1014.29 285.966 1014.29 285.96C1014.29 285.966 1014.29 285.968 1014.29 285.968ZM1072.74 285.96C1072.75 285.966 1072.75 285.968 1072.75 285.968C1072.75 285.968 1072.75 285.966 1072.74 285.96Z" fill="#9896AE" stroke="#9896AE" stroke-width="4"/>
<path d="M664.232 269.955C664.232 269.955 664.231 269.957 664.229 269.963C664.23 269.957 664.232 269.955 664.232 269.955ZM664.095 269.938C664.132 269.979 664.16 270.014 664.18 270.042C664.16 270.069 664.132 270.104 664.095 270.146C663.889 270.376 663.492 270.694 662.815 271.06C661.465 271.789 659.379 272.509 656.63 273.137C651.166 274.386 643.519 275.177 635.002 275.177C626.486 275.177 618.838 274.386 613.374 273.137C610.626 272.509 608.54 271.789 607.189 271.06C606.513 270.694 606.116 270.376 605.909 270.146C605.872 270.104 605.845 270.069 605.824 270.042C605.845 270.014 605.872 269.979 605.909 269.938C606.116 269.707 606.513 269.389 607.189 269.024C608.54 268.294 610.626 267.574 613.374 266.946C618.838 265.697 626.486 264.906 635.002 264.906C643.519 264.906 651.166 265.697 656.63 266.946C659.379 267.574 661.465 268.294 662.815 269.024C663.492 269.389 663.889 269.707 664.095 269.938ZM605.773 269.955C605.773 269.955 605.774 269.957 605.776 269.963C605.773 269.957 605.772 269.955 605.773 269.955ZM605.773 270.129C605.772 270.129 605.773 270.126 605.776 270.12C605.774 270.126 605.773 270.129 605.773 270.129ZM664.229 270.12C664.231 270.126 664.232 270.129 664.232 270.129C664.232 270.129 664.23 270.126 664.229 270.12Z" fill="#9896AE" stroke="#9896AE" stroke-width="4"/>
<path d="M664.232 285.65C664.232 285.65 664.231 285.653 664.229 285.658C664.23 285.653 664.232 285.65 664.232 285.65ZM664.095 285.633C664.132 285.675 664.16 285.709 664.18 285.737C664.16 285.765 664.132 285.799 664.095 285.841C663.889 286.071 663.492 286.389 662.815 286.755C661.465 287.485 659.379 288.205 656.63 288.833C651.166 290.082 643.519 290.872 635.002 290.872C626.486 290.872 618.838 290.082 613.374 288.833C610.626 288.205 608.54 287.485 607.189 286.755C606.513 286.389 606.116 286.071 605.909 285.841C605.872 285.799 605.845 285.765 605.824 285.737C605.845 285.709 605.872 285.675 605.909 285.633C606.116 285.403 606.513 285.085 607.189 284.719C608.54 283.989 610.626 283.269 613.374 282.641C618.838 281.392 626.486 280.602 635.002 280.602C643.519 280.602 651.166 281.392 656.63 282.641C659.379 283.269 661.465 283.989 662.815 284.719C663.492 285.085 663.889 285.403 664.095 285.633ZM605.773 285.65C605.773 285.65 605.774 285.653 605.776 285.658C605.773 285.653 605.772 285.65 605.773 285.65ZM605.773 285.824C605.772 285.824 605.773 285.821 605.776 285.816C605.774 285.821 605.773 285.824 605.773 285.824ZM664.229 285.816C664.231 285.821 664.232 285.824 664.232 285.824C664.232 285.824 664.23 285.821 664.229 285.816Z" fill="#9896AE" stroke="#9896AE" stroke-width="4"/>
<path d="M664.232 299.923C664.232 299.923 664.231 299.926 664.229 299.932C664.23 299.926 664.232 299.923 664.232 299.923ZM664.095 299.906C664.132 299.948 664.16 299.983 664.18 300.01C664.16 300.038 664.132 300.073 664.095 300.114C663.889 300.345 663.492 300.663 662.815 301.028C661.465 301.758 659.379 302.478 656.63 303.106C651.166 304.355 643.519 305.146 635.002 305.146C626.486 305.146 618.838 304.355 613.374 303.106C610.626 302.478 608.54 301.758 607.189 301.028C606.513 300.663 606.116 300.345 605.909 300.114C605.872 300.073 605.845 300.038 605.824 300.01C605.845 299.983 605.872 299.948 605.909 299.906C606.116 299.676 606.513 299.358 607.189 298.992C608.54 298.263 610.626 297.543 613.374 296.915C618.838 295.666 626.486 294.875 635.002 294.875C643.519 294.875 651.166 295.666 656.63 296.915C659.379 297.543 661.465 298.263 662.815 298.992C663.492 299.358 663.889 299.676 664.095 299.906ZM605.773 299.923C605.773 299.923 605.774 299.926 605.776 299.932C605.773 299.926 605.772 299.923 605.773 299.923ZM605.773 300.097C605.772 300.097 605.773 300.095 605.776 300.089C605.774 300.095 605.773 300.097 605.773 300.097ZM664.229 300.089C664.231 300.095 664.232 300.097 664.232 300.097C664.232 300.097 664.23 300.095 664.229 300.089Z" fill="#9896AE" stroke="#9896AE" stroke-width="4"/>
<path d="M664.232 317.048C664.232 317.048 664.231 317.051 664.229 317.057C664.23 317.051 664.232 317.048 664.232 317.048ZM664.095 317.031C664.132 317.073 664.16 317.108 664.18 317.135C664.16 317.163 664.132 317.198 664.095 317.239C663.889 317.47 663.492 317.788 662.815 318.153C661.465 318.883 659.379 319.603 656.63 320.231C651.166 321.48 643.519 322.271 635.002 322.271C626.486 322.271 618.838 321.48 613.374 320.231C610.626 319.603 608.54 318.883 607.189 318.153C606.513 317.788 606.116 317.47 605.909 317.239C605.872 317.198 605.845 317.163 605.824 317.135C605.845 317.108 605.872 317.073 605.909 317.031C606.116 316.801 606.513 316.483 607.189 316.117C608.54 315.388 610.626 314.668 613.374 314.04C618.838 312.791 626.486 312 635.002 312C643.519 312 651.166 312.791 656.63 314.04C659.379 314.668 661.465 315.388 662.815 316.117C663.492 316.483 663.889 316.801 664.095 317.031ZM605.773 317.048C605.773 317.048 605.774 317.051 605.776 317.057C605.773 317.051 605.772 317.048 605.773 317.048ZM605.773 317.222C605.772 317.222 605.773 317.22 605.776 317.214C605.774 317.22 605.773 317.222 605.773 317.222ZM664.229 317.214C664.231 317.22 664.232 317.222 664.232 317.222C664.232 317.222 664.23 317.22 664.229 317.214Z" fill="#9896AE" stroke="#9896AE" stroke-width="4"/>
<path d="M732.908 332.744C732.908 332.744 732.907 332.746 732.905 332.752C732.906 332.747 732.907 332.744 732.908 332.744ZM732.771 332.727C732.808 332.768 732.836 332.803 732.856 332.831C732.836 332.859 732.808 332.893 732.771 332.935C732.565 333.165 732.168 333.483 731.491 333.849C730.141 334.578 728.054 335.298 725.306 335.926C719.842 337.175 712.194 337.966 703.678 337.966C695.162 337.966 687.514 337.175 682.05 335.926C679.302 335.298 677.215 334.578 675.865 333.849C675.188 333.483 674.791 333.165 674.585 332.935C674.548 332.893 674.52 332.859 674.5 332.831C674.52 332.803 674.548 332.768 674.585 332.727C674.791 332.496 675.188 332.178 675.865 331.813C677.215 331.083 679.302 330.363 682.05 329.735C687.514 328.486 695.162 327.695 703.678 327.695C712.194 327.695 719.842 328.486 725.306 329.735C728.054 330.363 730.141 331.083 731.491 331.813C732.168 332.178 732.565 332.496 732.771 332.727ZM674.448 332.744C674.449 332.744 674.45 332.747 674.452 332.752C674.449 332.746 674.448 332.744 674.448 332.744ZM674.448 332.918C674.448 332.918 674.449 332.915 674.452 332.909C674.45 332.915 674.449 332.918 674.448 332.918ZM732.905 332.909C732.907 332.915 732.908 332.918 732.908 332.918C732.907 332.918 732.906 332.915 732.905 332.909Z" fill="#9896AE" stroke="#9896AE" stroke-width="4"/>
<path d="M798.478 332.744C798.478 332.744 798.477 332.746 798.475 332.752C798.477 332.747 798.478 332.744 798.478 332.744ZM798.341 332.727C798.378 332.768 798.406 332.803 798.426 332.831C798.406 332.859 798.378 332.893 798.341 332.935C798.135 333.165 797.738 333.483 797.061 333.849C795.711 334.578 793.625 335.298 790.877 335.926C785.412 337.175 777.765 337.966 769.248 337.966C760.732 337.966 753.084 337.175 747.62 335.926C744.872 335.298 742.786 334.578 741.435 333.849C740.759 333.483 740.362 333.165 740.156 332.935C740.118 332.893 740.091 332.859 740.071 332.831C740.091 332.803 740.118 332.768 740.156 332.727C740.362 332.496 740.759 332.178 741.435 331.813C742.786 331.083 744.872 330.363 747.62 329.735C753.084 328.486 760.732 327.695 769.248 327.695C777.765 327.695 785.412 328.486 790.877 329.735C793.625 330.363 795.711 331.083 797.061 331.813C797.738 332.178 798.135 332.496 798.341 332.727ZM740.019 332.744C740.019 332.744 740.02 332.747 740.022 332.752C740.019 332.746 740.018 332.744 740.019 332.744ZM740.019 332.918C740.018 332.918 740.019 332.915 740.022 332.909C740.02 332.915 740.019 332.918 740.019 332.918ZM798.475 332.909C798.477 332.915 798.478 332.918 798.478 332.918C798.478 332.918 798.477 332.915 798.475 332.909Z" fill="#9896AE" stroke="#9896AE" stroke-width="4"/>
<path d="M867.142 332.744C867.142 332.744 867.141 332.746 867.139 332.752C867.141 332.747 867.142 332.744 867.142 332.744ZM867.005 332.727C867.042 332.768 867.07 332.803 867.09 332.831C867.07 332.859 867.042 332.893 867.005 332.935C866.799 333.165 866.402 333.483 865.725 333.849C864.375 334.578 862.289 335.298 859.541 335.926C854.076 337.175 846.429 337.966 837.912 337.966C829.396 337.966 821.748 337.175 816.284 335.926C813.536 335.298 811.45 334.578 810.099 333.849C809.423 333.483 809.026 333.165 808.82 332.935C808.782 332.893 808.755 332.859 808.735 332.831C808.755 332.803 808.782 332.768 808.82 332.727C809.026 332.496 809.423 332.178 810.099 331.813C811.45 331.083 813.536 330.363 816.284 329.735C821.748 328.486 829.396 327.695 837.912 327.695C846.429 327.695 854.076 328.486 859.541 329.735C862.289 330.363 864.375 331.083 865.725 331.813C866.402 332.178 866.799 332.496 867.005 332.727ZM808.683 332.744C808.683 332.744 808.684 332.747 808.686 332.752C808.683 332.746 808.683 332.744 808.683 332.744ZM808.683 332.918C808.683 332.918 808.683 332.915 808.686 332.909C808.684 332.915 808.683 332.918 808.683 332.918ZM867.139 332.909C867.141 332.915 867.142 332.918 867.142 332.918C867.142 332.918 867.141 332.915 867.139 332.909Z" fill="#9896AE" stroke="#9896AE" stroke-width="4"/>
<path d="M1004.07 332.744C1004.07 332.744 1004.07 332.746 1004.07 332.752C1004.07 332.747 1004.07 332.744 1004.07 332.744ZM1003.93 332.727C1003.97 332.768 1004 332.803 1004.02 332.831C1004 332.859 1003.97 332.893 1003.93 332.935C1003.73 333.165 1003.33 333.483 1002.66 333.849C1001.3 334.578 999.218 335.298 996.47 335.926C991.006 337.175 983.358 337.966 974.842 337.966C966.326 337.966 958.678 337.175 953.214 335.926C950.466 335.298 948.38 334.578 947.029 333.849C946.353 333.483 945.956 333.165 945.749 332.935C945.712 332.893 945.685 332.859 945.664 332.831C945.685 332.803 945.712 332.768 945.749 332.727C945.956 332.496 946.353 332.178 947.029 331.813C948.38 331.083 950.466 330.363 953.214 329.735C958.678 328.486 966.326 327.695 974.842 327.695C983.358 327.695 991.006 328.486 996.47 329.735C999.218 330.363 1001.3 331.083 1002.66 331.813C1003.33 332.178 1003.73 332.496 1003.93 332.727ZM945.612 332.744C945.613 332.744 945.614 332.747 945.616 332.752C945.613 332.746 945.612 332.744 945.612 332.744ZM945.612 332.918C945.612 332.918 945.613 332.915 945.616 332.909C945.614 332.915 945.613 332.918 945.612 332.918ZM1004.07 332.909C1004.07 332.915 1004.07 332.918 1004.07 332.918C1004.07 332.918 1004.07 332.915 1004.07 332.909Z" fill="#9896AE" stroke="#9896AE" stroke-width="4"/>
<path d="M1072.75 317.048C1072.75 317.048 1072.75 317.051 1072.74 317.057C1072.75 317.051 1072.75 317.048 1072.75 317.048ZM1072.61 317.031C1072.65 317.073 1072.68 317.108 1072.7 317.135C1072.68 317.163 1072.65 317.198 1072.61 317.239C1072.4 317.47 1072.01 317.788 1071.33 318.153C1069.98 318.883 1067.89 319.603 1065.15 320.231C1059.68 321.48 1052.03 322.271 1043.52 322.271C1035 322.271 1027.35 321.48 1021.89 320.231C1019.14 319.603 1017.06 318.883 1015.7 318.153C1015.03 317.788 1014.63 317.47 1014.43 317.239C1014.39 317.198 1014.36 317.163 1014.34 317.135C1014.36 317.108 1014.39 317.073 1014.43 317.031C1014.63 316.801 1015.03 316.483 1015.7 316.117C1017.06 315.388 1019.14 314.668 1021.89 314.04C1027.35 312.791 1035 312 1043.52 312C1052.03 312 1059.68 312.791 1065.15 314.04C1067.89 314.668 1069.98 315.388 1071.33 316.117C1072.01 316.483 1072.4 316.801 1072.61 317.031ZM1014.29 317.048C1014.29 317.048 1014.29 317.051 1014.29 317.057C1014.29 317.051 1014.29 317.048 1014.29 317.048ZM1014.29 317.222C1014.29 317.222 1014.29 317.22 1014.29 317.214C1014.29 317.22 1014.29 317.222 1014.29 317.222ZM1072.74 317.214C1072.75 317.22 1072.75 317.222 1072.75 317.222C1072.75 317.222 1072.75 317.22 1072.74 317.214Z" fill="#9896AE" stroke="#9896AE" stroke-width="4"/>
<path d="M798.474 285.65C798.474 285.65 798.473 285.653 798.471 285.658C798.473 285.653 798.474 285.65 798.474 285.65ZM798.337 285.633C798.374 285.675 798.402 285.709 798.422 285.737C798.402 285.765 798.374 285.799 798.337 285.841C798.131 286.071 797.734 286.389 797.057 286.755C795.707 287.485 793.621 288.205 790.873 288.833C785.408 290.082 777.761 290.872 769.244 290.872C760.728 290.872 753.08 290.082 747.616 288.833C744.868 288.205 742.782 287.485 741.431 286.755C740.755 286.389 740.358 286.071 740.152 285.841C740.114 285.799 740.087 285.765 740.067 285.737C740.087 285.709 740.114 285.675 740.152 285.633C740.358 285.403 740.755 285.085 741.431 284.719C742.782 283.989 744.868 283.269 747.616 282.641C753.08 281.392 760.728 280.602 769.244 280.602C777.761 280.602 785.408 281.392 790.873 282.641C793.621 283.269 795.707 283.989 797.057 284.719C797.734 285.085 798.131 285.403 798.337 285.633ZM740.015 285.65C740.015 285.65 740.016 285.653 740.018 285.658C740.015 285.653 740.015 285.65 740.015 285.65ZM740.015 285.824C740.015 285.824 740.015 285.821 740.018 285.816C740.016 285.821 740.015 285.824 740.015 285.824ZM798.471 285.816C798.474 285.821 798.474 285.824 798.474 285.824C798.474 285.824 798.473 285.821 798.471 285.816Z" fill="#9896AE" stroke="#9896AE" stroke-width="4"/>
<path d="M732.912 285.65C732.912 285.65 732.911 285.653 732.908 285.658C732.91 285.653 732.911 285.65 732.912 285.65ZM732.775 285.633C732.812 285.675 732.839 285.709 732.86 285.737C732.839 285.765 732.812 285.799 732.775 285.841C732.569 286.071 732.172 286.389 731.495 286.755C730.144 287.485 728.058 288.205 725.31 288.833C719.846 290.082 712.198 290.872 703.682 290.872C695.166 290.872 687.518 290.082 682.054 288.833C679.306 288.205 677.219 287.485 675.869 286.755C675.192 286.389 674.795 286.071 674.589 285.841C674.552 285.799 674.524 285.765 674.504 285.737C674.524 285.709 674.552 285.675 674.589 285.633C674.795 285.403 675.192 285.085 675.869 284.719C677.219 283.989 679.306 283.269 682.054 282.641C687.518 281.392 695.166 280.602 703.682 280.602C712.198 280.602 719.846 281.392 725.31 282.641C728.058 283.269 730.144 283.989 731.495 284.719C732.172 285.085 732.569 285.403 732.775 285.633ZM674.452 285.65C674.452 285.65 674.454 285.653 674.455 285.658C674.453 285.653 674.452 285.65 674.452 285.65ZM674.452 285.824C674.452 285.824 674.453 285.821 674.455 285.816C674.454 285.821 674.452 285.824 674.452 285.824ZM732.908 285.816C732.911 285.821 732.912 285.824 732.912 285.824C732.911 285.824 732.91 285.821 732.908 285.816Z" fill="#9896AE" stroke="#9896AE" stroke-width="4"/>
<rect x="703.988" y="247.207" width="270.547" height="14.3148" fill="#9896AE"/>
<rect x="633.844" y="278.699" width="408.326" height="14.3148" fill="#9896AE"/>
<rect x="1074.73" y="270.75" width="14.9843" height="62.4342" transform="rotate(90 1074.73 270.75)" fill="#9896AE"/>
<rect x="703.988" y="325.652" width="270.547" height="14.3148" fill="#9896AE"/>
<rect x="665.719" y="270.539" width="46.0935" height="61.4342" transform="rotate(90 665.719 270.539)" fill="#9896AE" stroke="#9896AE"/>
<path d="M1134.86 270.397C1135.1 263.755 1129.48 262.477 1126.64 262.667L1134.86 254.938C1135.59 261.351 1140.64 262.763 1143.08 262.667L1134.86 270.397Z" fill="#9896AE"/>
<path d="M1150.31 270.397C1150.07 263.755 1155.69 262.477 1158.54 262.667L1150.31 254.938C1149.58 261.351 1144.53 262.763 1142.09 262.667L1150.31 270.397Z" fill="#9896AE"/>
<rect x="1150.32" y="332.348" width="15.4599" height="63.214" transform="rotate(-180 1150.32 332.348)" fill="#9896AE"/>
<ellipse cx="1142.59" cy="332.637" rx="7.72997" ry="7.90175" transform="rotate(-180 1142.59 332.637)" fill="#9896AE"/>
<ellipse cx="1142.59" cy="269.422" rx="7.72997" ry="7.90175" transform="rotate(-180 1142.59 269.422)" fill="#9896AE"/>
<rect x="1087.33" y="262.666" width="15.4599" height="108.22" rx="7.72997" transform="rotate(-90 1087.33 262.666)" fill="#9896AE"/>
<path d="M1215.88 324.508C1211.61 324.508 1208.15 320.182 1208.15 314.845L1208.15 256.871C1208.15 251.534 1211.61 247.208 1215.88 247.208C1220.15 247.208 1223.61 251.534 1223.61 256.871L1223.61 314.845C1223.61 321.359 1220.15 324.508 1215.88 324.508Z" fill="#9896AE"/>
<path d="M1223.61 332.238C1223.61 327.969 1227.07 324.508 1231.34 324.508L1293.18 324.508C1297.44 324.508 1300.91 327.969 1300.91 332.238V332.238C1300.91 336.507 1297.44 339.968 1293.18 339.968L1231.34 339.968C1227.07 339.968 1223.61 336.507 1223.61 332.238V332.238Z" fill="#9896AE"/>
<path d="M1223.61 285.859C1223.61 281.59 1227.07 278.129 1231.34 278.129L1293.18 278.129C1297.44 278.129 1300.91 281.59 1300.91 285.859V285.859C1300.91 290.128 1297.44 293.589 1293.18 293.589L1231.34 293.589C1227.07 293.589 1223.61 290.128 1223.61 285.859V285.859Z" fill="#9896AE"/>
<path d="M1300.91 301.319C1301.15 294.677 1295.53 293.398 1292.69 293.589L1300.91 285.859C1301.64 292.272 1306.69 293.685 1309.13 293.589L1300.91 301.319Z" fill="#9896AE"/>
<path d="M1223.51 285.858C1223.75 279.216 1218.13 277.938 1215.29 278.128L1223.51 270.398C1224.24 276.811 1229.29 278.224 1231.73 278.128L1223.51 285.858Z" fill="#9896AE"/>
<path d="M1223.61 332.237C1223.85 325.595 1218.23 324.316 1215.39 324.507L1223.61 316.777C1224.34 323.19 1229.39 324.603 1231.83 324.507L1223.61 332.237Z" fill="#9896AE"/>
<path d="M1300.91 332.237C1300.66 325.595 1306.29 324.316 1309.13 324.507L1300.91 316.777C1300.18 323.19 1295.12 324.603 1292.69 324.507L1300.91 332.237Z" fill="#9896AE"/>
<path d="M1223.61 301.319C1223.36 294.677 1228.99 293.398 1231.83 293.589L1223.61 285.859C1222.88 292.272 1217.82 293.685 1215.39 293.589L1223.61 301.319Z" fill="#9896AE"/>
<circle cx="1293.18" cy="285.856" r="7.72997" transform="rotate(-180 1293.18 285.856)" fill="#9896AE"/>
<circle cx="1308.64" cy="316.778" r="7.72997" transform="rotate(-180 1308.64 316.778)" fill="#9896AE"/>
<circle cx="1215.88" cy="316.778" r="7.72997" transform="rotate(-180 1215.88 316.778)" fill="#9896AE"/>
<circle cx="1308.64" cy="301.317" r="7.72997" transform="rotate(-180 1308.64 301.317)" fill="#9896AE"/>
<rect x="1316.37" y="317.066" width="15.4599" height="15.4599" transform="rotate(-180 1316.37 317.066)" fill="#9896AE"/>
</svg>
