<svg width="156" height="193" viewBox="0 0 156 193" fill="none" xmlns="http://www.w3.org/2000/svg">
<path d="M91 0L91 24.8529" stroke="black" stroke-width="3"/>
<path d="M91 168L91 192.853" stroke="black" stroke-width="3"/>
<path d="M24.853 96L8.53837e-05 96" stroke="black" stroke-width="3"/>
<path d="M44.5737 149L27 166.574" stroke="black" stroke-width="3"/>
<path d="M44.5737 44.5737L27 27" stroke="black" stroke-width="3"/>
<rect x="63.8438" y="44.25" width="26.125" height="104.5" rx="5" fill="#CCFD38"/>
<rect x="44.25" y="57.3125" width="45.7188" height="78.375" rx="5" fill="#CCFD38"/>
<rect x="37.7188" y="76.9062" width="52.25" height="39.1875" rx="5" fill="#CCFD38"/>
<path fill-rule="evenodd" clip-rule="evenodd" d="M129.156 49.25C129.156 46.4886 126.918 44.25 124.156 44.25H108.031C105.27 44.25 103.031 46.4886 103.031 49.25V52.3125C103.031 55.0739 105.27 57.3125 108.031 57.3125H111.094C113.855 57.3125 116.094 59.5511 116.094 62.3125V71.9063C116.094 74.6677 118.332 76.9062 121.094 76.9062H124.156C126.918 76.9062 129.156 79.1448 129.156 81.9062V111.094C129.156 113.855 126.918 116.094 124.156 116.094H121.094C118.332 116.094 116.094 118.332 116.094 121.094V130.688C116.094 133.449 113.855 135.688 111.094 135.688H108.031C105.27 135.688 103.031 137.926 103.031 140.688V143.75C103.031 146.511 105.27 148.75 108.031 148.75H124.156C126.918 148.75 129.156 146.511 129.156 143.75V140.688C129.156 137.926 131.395 135.688 134.156 135.688H143.75C146.511 135.688 148.75 133.449 148.75 130.688V119.359C148.75 117.556 150.212 116.094 152.016 116.094V116.094C153.819 116.094 155.281 114.632 155.281 112.828V80.1719C155.281 78.3683 153.819 76.9062 152.016 76.9062V76.9062C150.212 76.9062 148.75 75.4442 148.75 73.6406V62.3125C148.75 59.5511 146.511 57.3125 143.75 57.3125H134.156C131.395 57.3125 129.156 55.0739 129.156 52.3125V49.25Z" fill="#CCFD38"/>
</svg>
