<svg width="585" height="58" viewBox="0 0 585 58" fill="none" xmlns="http://www.w3.org/2000/svg">
<path d="M514.561 37.6791C517.302 37.6791 518.672 35.4528 518.672 33.569L522.097 36.9941C519.699 36.9941 517.987 39.0492 517.987 41.1042L514.561 37.6791Z" fill="#04005E"/>
<path d="M481.406 41.1031C481.406 38.363 479.179 36.993 477.296 36.993L480.721 33.5679C480.721 35.9655 482.776 37.6569 484.831 37.6569L483.118 39.3694L481.406 41.1031Z" fill="#04005E"/>
<path d="M477.296 30.1076C480.036 30.1076 481.406 27.8813 481.406 25.9975L484.831 29.4226C482.433 29.4226 480.721 31.4776 480.721 33.5327L477.296 30.1076Z" fill="#04005E"/>
<path d="M477.274 7.53728C480.014 7.53728 481.384 5.31096 481.384 3.42714L484.809 6.85226C482.412 6.85226 480.699 8.90733 480.699 10.9624L477.274 7.53728Z" fill="#04005E"/>
<path d="M514.561 22.6074C517.301 22.6074 518.671 20.381 518.671 18.4972L522.096 21.9223C519.699 21.9223 517.986 23.9774 517.986 26.0325L514.561 22.6074Z" fill="#04005E"/>
<path d="M517.986 3.42683C517.986 6.16692 520.213 7.53697 522.097 7.53697L518.671 10.9621C518.671 8.56451 516.616 6.85195 514.561 6.85195L517.986 3.42683Z" fill="#04005E"/>
<path d="M517.986 26.0326C517.986 28.7727 520.213 30.1428 522.097 30.1428L518.671 33.5679C518.671 31.1703 516.616 29.4577 514.561 29.4577L517.986 26.0326Z" fill="#04005E"/>
<circle cx="514.561" cy="41.103" r="2" transform="rotate(-180 514.561 41.103)" fill="#04005E" stroke="#04005E" stroke-width="2.85024"/>
<circle cx="507.368" cy="41.103" r="2" transform="rotate(-180 507.368 41.103)" fill="#04005E" stroke="#04005E" stroke-width="2.85024"/>
<circle cx="499.833" cy="41.103" r="2" transform="rotate(-180 499.833 41.103)" fill="#04005E" stroke="#04005E" stroke-width="2.85024"/>
<path d="M483.386 41.0922C483.386 40.2992 484.029 39.6565 484.822 39.6565C485.615 39.6565 486.258 40.2992 486.258 41.0922C486.258 41.8851 485.615 42.5278 484.822 42.5278C484.029 42.5278 483.386 41.8851 483.386 41.0922Z" fill="#04005E" stroke="#04005E" stroke-width="4"/>
<path d="M475.849 33.5331C475.849 32.7402 476.492 32.0974 477.285 32.0974C478.078 32.0974 478.72 32.7402 478.72 33.5331C478.72 34.326 478.078 34.9687 477.285 34.9687C476.492 34.9687 475.849 34.326 475.849 33.5331Z" fill="#04005E" stroke="#04005E" stroke-width="4"/>
<path d="M475.848 25.9638C475.848 25.1767 476.487 24.5387 477.274 24.5387C478.061 24.5387 478.699 25.1767 478.699 25.9638C478.699 26.7509 478.061 27.3889 477.274 27.3889C476.487 27.3889 475.848 26.7509 475.848 25.9638Z" fill="#04005E" stroke="#04005E" stroke-width="4"/>
<circle cx="522.096" cy="33.5705" r="2" transform="rotate(-180 522.096 33.5705)" fill="#04005E" stroke="#04005E" stroke-width="2.85024"/>
<circle cx="522.096" cy="26.0341" r="2" transform="rotate(-180 522.096 26.0341)" fill="#04005E" stroke="#04005E" stroke-width="2.85024"/>
<circle cx="522.096" cy="19.1818" r="2" transform="rotate(-180 522.096 19.1818)" fill="#04005E" stroke="#04005E" stroke-width="2.85024"/>
<circle cx="522.096" cy="10.9623" r="2" transform="rotate(-180 522.096 10.9623)" fill="#04005E" stroke="#04005E" stroke-width="2.85024"/>
<circle cx="514.561" cy="3.42522" r="2" transform="rotate(-180 514.561 3.42522)" fill="#04005E" stroke="#04005E" stroke-width="2.85024"/>
<circle cx="507.368" cy="3.42522" r="2" transform="rotate(-180 507.368 3.42522)" fill="#04005E" stroke="#04005E" stroke-width="2.85024"/>
<circle cx="499.833" cy="3.42522" r="2" transform="rotate(-180 499.833 3.42522)" fill="#04005E" stroke="#04005E" stroke-width="2.85024"/>
<circle cx="484.809" cy="3.42522" r="2" transform="rotate(-180 484.809 3.42522)" fill="#04005E" stroke="#04005E" stroke-width="2.85024"/>
<circle cx="477.274" cy="10.9623" r="2" transform="rotate(-180 477.274 10.9623)" fill="#04005E" stroke="#04005E" stroke-width="2.85024"/>
<circle cx="507.368" cy="26.0341" r="2" transform="rotate(-180 507.368 26.0341)" fill="#04005E" stroke="#04005E" stroke-width="2.85024"/>
<circle cx="514.561" cy="26.0341" r="2" transform="rotate(-180 514.561 26.0341)" fill="#04005E" stroke="#04005E" stroke-width="2.85024"/>
<rect x="514.527" y="44.5281" width="29.6843" height="6.87136" transform="rotate(-180 514.527 44.5281)" fill="#04005E"/>
<rect x="522.223" y="29.4124" width="44.8013" height="6.87135" transform="rotate(-180 522.223 29.4124)" fill="#04005E"/>
<rect x="473.849" y="33.2236" width="7.19275" height="6.85024" transform="rotate(-90 473.849 33.2236)" fill="#04005E"/>
<rect x="514.527" y="6.87305" width="29.6843" height="6.87136" transform="rotate(-180 514.527 6.87305)" fill="#04005E"/>
<rect x="519.171" y="33.0679" width="21.6058" height="5.85024" transform="rotate(-90 519.171 33.0679)" fill="#04005E" stroke="#04005E"/>
<path d="M100.081 37.957C102.822 37.957 104.192 35.7306 104.192 33.8468L107.617 37.2719C105.219 37.2719 103.507 39.327 103.507 41.3821L100.081 37.957Z" fill="#04005E"/>
<path d="M66.9257 41.381C66.9257 38.6409 64.6994 37.2708 62.8156 37.2708L66.2407 33.8457C66.2407 36.2433 68.2958 37.9347 70.3508 37.9347L68.6383 39.6473L66.9257 41.381Z" fill="#04005E"/>
<path d="M62.8156 30.3854C65.5557 30.3854 66.9257 28.1591 66.9257 26.2753L70.3508 29.7004C67.9533 29.7004 66.2407 31.7555 66.2407 33.8105L62.8156 30.3854Z" fill="#04005E"/>
<path d="M62.7941 7.81512C65.5342 7.81512 66.9042 5.58879 66.9042 3.70497L70.3293 7.13009C67.9318 7.13009 66.2192 9.18516 66.2192 11.2402L62.7941 7.81512Z" fill="#04005E"/>
<path d="M100.081 22.8852C102.821 22.8852 104.191 20.6589 104.191 18.775L107.616 22.2002C105.219 22.2002 103.506 24.2552 103.506 26.3103L100.081 22.8852Z" fill="#04005E"/>
<path d="M103.506 3.70466C103.506 6.44475 105.733 7.8148 107.617 7.8148L104.191 11.2399C104.191 8.84234 102.136 7.12978 100.081 7.12978L103.506 3.70466Z" fill="#04005E"/>
<path d="M103.506 26.3104C103.506 29.0505 105.733 30.4206 107.617 30.4206L104.191 33.8457C104.191 31.4481 102.136 29.7356 100.081 29.7356L103.506 26.3104Z" fill="#04005E"/>
<circle cx="100.081" cy="41.3808" r="2" transform="rotate(-180 100.081 41.3808)" fill="#04005E" stroke="#04005E" stroke-width="2.85024"/>
<circle cx="92.8881" cy="41.3808" r="2" transform="rotate(-180 92.8881 41.3808)" fill="#04005E" stroke="#04005E" stroke-width="2.85024"/>
<circle cx="85.3532" cy="41.3808" r="2" transform="rotate(-180 85.3532 41.3808)" fill="#04005E" stroke="#04005E" stroke-width="2.85024"/>
<path d="M68.9062 41.3702C68.9062 40.5773 69.549 39.9346 70.3419 39.9346C71.1348 39.9346 71.7776 40.5773 71.7776 41.3702C71.7776 42.1631 71.1348 42.8059 70.3419 42.8059C69.549 42.8059 68.9062 42.1631 68.9062 41.3702Z" fill="#04005E" stroke="#04005E" stroke-width="4"/>
<path d="M61.3691 33.8109C61.3691 33.018 62.0119 32.3752 62.8048 32.3752C63.5977 32.3752 64.2405 33.018 64.2405 33.8109C64.2405 34.6038 63.5977 35.2466 62.8048 35.2466C62.0119 35.2466 61.3691 34.6038 61.3691 33.8109Z" fill="#04005E" stroke="#04005E" stroke-width="4"/>
<path d="M61.3685 26.2416C61.3685 25.4546 62.0066 24.8165 62.7936 24.8165C63.5807 24.8165 64.2188 25.4546 64.2188 26.2416C64.2188 27.0287 63.5807 27.6667 62.7936 27.6667C62.0066 27.6667 61.3685 27.0287 61.3685 26.2416Z" fill="#04005E" stroke="#04005E" stroke-width="4"/>
<circle cx="107.616" cy="33.8483" r="2" transform="rotate(-180 107.616 33.8483)" fill="#04005E" stroke="#04005E" stroke-width="2.85024"/>
<circle cx="107.616" cy="26.3119" r="2" transform="rotate(-180 107.616 26.3119)" fill="#04005E" stroke="#04005E" stroke-width="2.85024"/>
<circle cx="107.616" cy="19.4596" r="2" transform="rotate(-180 107.616 19.4596)" fill="#04005E" stroke="#04005E" stroke-width="2.85024"/>
<circle cx="107.616" cy="11.2404" r="2" transform="rotate(-180 107.616 11.2404)" fill="#04005E" stroke="#04005E" stroke-width="2.85024"/>
<circle cx="100.081" cy="3.70306" r="2" transform="rotate(-180 100.081 3.70306)" fill="#04005E" stroke="#04005E" stroke-width="2.85024"/>
<circle cx="92.8879" cy="3.70306" r="2" transform="rotate(-180 92.8879 3.70306)" fill="#04005E" stroke="#04005E" stroke-width="2.85024"/>
<circle cx="85.3527" cy="3.70306" r="2" transform="rotate(-180 85.3527 3.70306)" fill="#04005E" stroke="#04005E" stroke-width="2.85024"/>
<circle cx="70.3288" cy="3.70306" r="2" transform="rotate(-180 70.3288 3.70306)" fill="#04005E" stroke="#04005E" stroke-width="2.85024"/>
<circle cx="62.7941" cy="11.2404" r="2" transform="rotate(-180 62.7941 11.2404)" fill="#04005E" stroke="#04005E" stroke-width="2.85024"/>
<circle cx="92.8879" cy="26.3119" r="2" transform="rotate(-180 92.8879 26.3119)" fill="#04005E" stroke="#04005E" stroke-width="2.85024"/>
<circle cx="100.081" cy="26.3119" r="2" transform="rotate(-180 100.081 26.3119)" fill="#04005E" stroke="#04005E" stroke-width="2.85024"/>
<rect x="100.047" y="44.8059" width="29.6843" height="6.87136" transform="rotate(-180 100.047 44.8059)" fill="#04005E"/>
<rect x="107.743" y="29.6902" width="44.8013" height="6.87135" transform="rotate(-180 107.743 29.6902)" fill="#04005E"/>
<rect x="59.3691" y="33.5015" width="7.19275" height="6.85024" transform="rotate(-90 59.3691 33.5015)" fill="#04005E"/>
<rect x="100.047" y="7.15088" width="29.6843" height="6.87136" transform="rotate(-180 100.047 7.15088)" fill="#04005E"/>
<rect x="104.691" y="33.3457" width="21.6058" height="5.85024" transform="rotate(-90 104.691 33.3457)" fill="#04005E" stroke="#04005E"/>
<path d="M248.16 7.12946C245.419 7.12946 244.049 9.35579 244.049 11.2396L240.624 7.81449C243.022 7.81449 244.734 5.75942 244.734 3.70435L248.16 7.12946Z" fill="#04005E"/>
<path d="M281.315 3.70546C281.315 6.44556 283.542 7.8156 285.425 7.8156L282 11.2407C282 8.84314 279.945 7.15173 277.89 7.15173L279.603 5.43917L281.315 3.70546Z" fill="#04005E"/>
<path d="M285.425 14.701C282.685 14.701 281.315 16.9273 281.315 18.8111L277.89 15.386C280.288 15.386 282 13.3309 282 11.2759L285.425 14.701Z" fill="#04005E"/>
<path d="M285.447 37.2713C282.707 37.2713 281.337 39.4976 281.337 41.3815L277.912 37.9563C280.309 37.9563 282.022 35.9013 282.022 33.8462L285.447 37.2713Z" fill="#04005E"/>
<path d="M248.16 22.201C245.42 22.201 244.05 24.4273 244.05 26.3111L240.625 22.886C243.022 22.886 244.735 20.831 244.735 18.7759L248.16 22.201Z" fill="#04005E"/>
<path d="M244.735 41.3818C244.735 38.6417 242.508 37.2716 240.624 37.2716L244.05 33.8465C244.05 36.2441 246.105 37.9566 248.16 37.9566L244.735 41.3818Z" fill="#04005E"/>
<path d="M244.735 18.776C244.735 16.0359 242.508 14.6658 240.624 14.6658L244.05 11.2407C244.05 13.6383 246.105 15.3509 248.16 15.3509L244.735 18.776Z" fill="#04005E"/>
<circle cx="248.16" cy="3.70564" r="2" fill="#04005E" stroke="#04005E" stroke-width="2.85024"/>
<circle cx="255.353" cy="3.70564" r="2" fill="#04005E" stroke="#04005E" stroke-width="2.85024"/>
<circle cx="262.888" cy="3.70564" r="2" fill="#04005E" stroke="#04005E" stroke-width="2.85024"/>
<path d="M279.335 3.71644C279.335 4.50934 278.692 5.15212 277.899 5.15212C277.106 5.15212 276.463 4.50934 276.463 3.71644C276.463 2.92354 277.106 2.28076 277.899 2.28076C278.692 2.28076 279.335 2.92354 279.335 3.71644Z" fill="#04005E" stroke="#04005E" stroke-width="4"/>
<path d="M286.872 11.2755C286.872 12.0684 286.23 12.7112 285.437 12.7112C284.644 12.7112 284.001 12.0684 284.001 11.2755C284.001 10.4826 284.644 9.83984 285.437 9.83984C286.23 9.83984 286.872 10.4826 286.872 11.2755Z" fill="#04005E" stroke="#04005E" stroke-width="4"/>
<path d="M286.872 18.8448C286.872 19.6319 286.234 20.2699 285.447 20.2699C284.66 20.2699 284.022 19.6319 284.022 18.8448C284.022 18.0577 284.66 17.4197 285.447 17.4197C286.234 17.4197 286.872 18.0577 286.872 18.8448Z" fill="#04005E" stroke="#04005E" stroke-width="4"/>
<circle cx="240.625" cy="11.2381" r="2" fill="#04005E" stroke="#04005E" stroke-width="2.85024"/>
<circle cx="240.625" cy="18.7742" r="2" fill="#04005E" stroke="#04005E" stroke-width="2.85024"/>
<circle cx="240.625" cy="25.6265" r="2" fill="#04005E" stroke="#04005E" stroke-width="2.85024"/>
<circle cx="240.625" cy="33.8463" r="2" fill="#04005E" stroke="#04005E" stroke-width="2.85024"/>
<circle cx="248.16" cy="41.3834" r="2" fill="#04005E" stroke="#04005E" stroke-width="2.85024"/>
<circle cx="255.353" cy="41.3834" r="2" fill="#04005E" stroke="#04005E" stroke-width="2.85024"/>
<circle cx="262.888" cy="41.3834" r="2" fill="#04005E" stroke="#04005E" stroke-width="2.85024"/>
<circle cx="277.912" cy="41.3834" r="2" fill="#04005E" stroke="#04005E" stroke-width="2.85024"/>
<circle cx="285.447" cy="33.8463" r="2" fill="#04005E" stroke="#04005E" stroke-width="2.85024"/>
<circle cx="255.353" cy="18.7742" r="2" fill="#04005E" stroke="#04005E" stroke-width="2.85024"/>
<circle cx="248.16" cy="18.7742" r="2" fill="#04005E" stroke="#04005E" stroke-width="2.85024"/>
<rect x="248.194" y="0.280518" width="29.6843" height="6.87136" fill="#04005E"/>
<rect x="240.498" y="15.3962" width="44.8013" height="6.87135" fill="#04005E"/>
<rect x="288.872" y="11.585" width="7.19275" height="6.85024" transform="rotate(90 288.872 11.585)" fill="#04005E"/>
<rect x="248.194" y="37.9355" width="29.6843" height="6.87136" fill="#04005E"/>
<rect x="243.55" y="11.7407" width="21.6058" height="5.85024" transform="rotate(90 243.55 11.7407)" fill="#04005E" stroke="#04005E"/>
<path fill-rule="evenodd" clip-rule="evenodd" d="M7.42098 3.99097C7.42098 6.0403 5.75978 7.7015 3.71045 7.7015C5.75978 7.7015 7.42098 9.3627 7.42098 11.412C7.42098 9.3627 9.08219 7.7015 11.1315 7.7015C9.08219 7.7015 7.42098 6.0403 7.42098 3.99097Z" fill="#04005E"/>
<path fill-rule="evenodd" clip-rule="evenodd" d="M22.2633 3.99097C22.2633 6.0403 20.6021 7.7015 18.5527 7.7015C20.6021 7.7015 22.2633 9.3627 22.2633 11.412C22.2633 9.3627 23.9245 7.7015 25.9738 7.7015C23.9245 7.7015 22.2633 6.0403 22.2633 3.99097Z" fill="#04005E"/>
<path fill-rule="evenodd" clip-rule="evenodd" d="M29.6842 3.99365C29.6842 6.04298 28.023 7.70419 25.9736 7.70419C28.023 7.70419 29.6842 9.36539 29.6842 11.4147C29.6842 9.36539 31.3454 7.70419 33.3947 7.70419C31.3454 7.70419 29.6842 6.04298 29.6842 3.99365Z" fill="#04005E"/>
<path fill-rule="evenodd" clip-rule="evenodd" d="M44.5263 3.99097C44.5263 6.0403 42.8651 7.7015 40.8158 7.7015C42.8651 7.7015 44.5263 9.3627 44.5263 11.412C44.5263 9.3627 46.1875 7.7015 48.2368 7.7015C46.1875 7.7015 44.5263 6.0403 44.5263 3.99097Z" fill="#04005E"/>
<rect y="11.4128" width="7.42107" height="29.6843" fill="#04005E"/>
<rect x="44.5264" y="11.4128" width="7.42107" height="29.6843" fill="#04005E"/>
<rect x="18.6902" y="0.280518" width="7.42107" height="7.42107" transform="rotate(90 18.6902 0.280518)" fill="#04005E"/>
<rect x="41.5029" y="0.280518" width="7.42107" height="7.42107" transform="rotate(90 41.5029 0.280518)" fill="#04005E"/>
<circle cx="11.1317" cy="3.99105" r="3.71053" fill="#04005E"/>
<circle cx="40.8158" cy="3.99105" r="3.71053" fill="#04005E"/>
<circle cx="33.3949" cy="3.99105" r="3.71053" fill="#04005E"/>
<circle cx="3.71053" cy="11.4139" r="3.71053" fill="#04005E"/>
<circle cx="48.2369" cy="11.4139" r="3.71053" fill="#04005E"/>
<circle cx="48.2369" cy="41.0965" r="3.71053" fill="#04005E"/>
<circle cx="3.71053" cy="41.0965" r="3.71053" fill="#04005E"/>
<circle cx="18.5526" cy="3.99105" r="3.71053" fill="#04005E"/>
<circle cx="25.9732" cy="11.4139" r="3.71053" fill="#04005E"/>
<path d="M300.003 7.42139C297.954 7.42139 296.293 9.49796 296.293 12.0596L296.293 39.8885C296.293 42.4501 297.954 44.5267 300.003 44.5267C302.053 44.5267 303.714 42.4501 303.714 39.8885L303.714 12.0596C303.714 9.49796 302.053 7.42139 300.003 7.42139Z" fill="#04005E"/>
<path d="M303.714 3.71085C303.714 5.76012 305.375 7.42139 307.424 7.42139L337.108 7.42138C339.158 7.42138 340.819 5.76012 340.819 3.71085C340.819 1.66158 339.158 0.000316859 337.108 0.000317038L307.424 0.000319633C305.375 0.000319813 303.714 1.66158 303.714 3.71085Z" fill="#04005E"/>
<path d="M303.714 25.9753C303.714 28.0245 305.375 29.6858 307.424 29.6858L337.108 29.6858C339.158 29.6858 340.819 28.0245 340.819 25.9753C340.819 23.926 339.158 22.2647 337.108 22.2647L307.424 22.2647C305.375 22.2647 303.714 23.926 303.714 25.9753Z" fill="#04005E"/>
<path d="M340.789 18.5555C340.906 21.7438 338.207 22.3576 336.843 22.266L340.789 25.9766C341.139 22.8982 343.566 22.2202 344.735 22.266L340.789 18.5555Z" fill="#04005E"/>
<path d="M303.666 25.9742C303.783 29.1625 301.084 29.7763 299.719 29.6847L303.666 33.3953C304.016 30.3169 306.443 29.6389 307.612 29.6847L303.666 25.9742Z" fill="#04005E"/>
<path d="M303.674 3.7137C303.791 6.90201 301.092 7.51585 299.728 7.42423L303.674 11.1348C304.025 8.0564 306.451 7.37842 307.621 7.42423L303.674 3.7137Z" fill="#04005E"/>
<path d="M340.858 3.7137C340.741 6.90201 343.44 7.51585 344.804 7.42423L340.858 11.1348C340.508 8.0564 338.081 7.37842 336.912 7.42423L340.858 3.7137Z" fill="#04005E"/>
<path d="M303.714 18.5555C303.597 21.7438 306.296 22.3576 307.66 22.266L303.714 25.9766C303.363 22.8982 300.937 22.2202 299.768 22.266L303.714 18.5555Z" fill="#04005E"/>
<circle r="3.71053" transform="matrix(-1 1.74846e-07 1.74846e-07 1 337.109 25.9776)" fill="#04005E"/>
<circle r="3.71053" transform="matrix(-1 1.74846e-07 1.74846e-07 1 344.529 11.1319)" fill="#04005E"/>
<circle r="3.71053" transform="matrix(-1 1.74846e-07 1.74846e-07 1 344.529 18.5548)" fill="#04005E"/>
<rect width="7.42107" height="7.42107" transform="matrix(-1 1.74846e-07 1.74846e-07 1 348.24 10.9939)" fill="#04005E"/>
<path d="M581.179 7.69922C583.228 7.69922 584.89 9.7758 584.89 12.3374L584.89 40.1664C584.89 42.728 583.228 44.8046 581.179 44.8045C579.13 44.8045 577.469 42.728 577.469 40.1664L577.469 12.3374C577.469 9.7758 579.13 7.69922 581.179 7.69922Z" fill="#04005E"/>
<path d="M577.469 3.98869C577.469 6.03796 575.807 7.69922 573.758 7.69922L544.074 7.69922C542.025 7.69922 540.363 6.03795 540.363 3.98868C540.363 1.93941 542.025 0.278149 544.074 0.278149L573.758 0.278152C575.807 0.278152 577.469 1.93941 577.469 3.98869Z" fill="#04005E"/>
<path d="M577.469 26.2531C577.469 28.3024 575.807 29.9636 573.758 29.9636L544.074 29.9636C542.025 29.9636 540.363 28.3024 540.363 26.2531C540.363 24.2038 542.025 22.5426 544.074 22.5426L573.758 22.5426C575.807 22.5426 577.469 24.2038 577.469 26.2531Z" fill="#04005E"/>
<path d="M540.394 18.8308C540.277 22.0191 542.976 22.633 544.34 22.5414L540.394 26.2519C540.043 23.1735 537.617 22.4955 536.448 22.5414L540.394 18.8308Z" fill="#04005E"/>
<path d="M577.469 26.252C577.352 29.4403 580.051 30.0542 581.415 29.9626L577.469 33.6731C577.118 30.5947 574.692 29.9167 573.523 29.9626L577.469 26.252Z" fill="#04005E"/>
<path d="M577.508 3.99153C577.391 7.17984 580.09 7.79368 581.454 7.70206L577.508 11.4126C577.157 8.33423 574.731 7.65625 573.562 7.70206L577.508 3.99153Z" fill="#04005E"/>
<path d="M540.324 3.98879C540.441 7.1771 537.742 7.79094 536.378 7.69932L540.324 11.4099C540.675 8.33149 543.101 7.65352 544.27 7.69932L540.324 3.98879Z" fill="#04005E"/>
<path d="M547.784 26.252C547.901 29.4403 545.202 30.0542 543.838 29.9626L547.784 33.6731C548.135 30.5947 550.561 29.9168 551.731 29.9626L547.784 26.252Z" fill="#04005E"/>
<path d="M577.508 18.8308C577.625 22.0191 574.926 22.633 573.562 22.5414L577.508 26.2519C577.859 23.1735 580.285 22.4956 581.454 22.5414L577.508 18.8308Z" fill="#04005E"/>
<path d="M540.363 33.6749C540.48 36.8632 537.781 37.477 536.417 37.3854L540.363 41.0959C540.714 38.0176 543.14 37.3396 544.309 37.3854L540.363 33.6749Z" fill="#04005E"/>
<circle cx="544.074" cy="26.2555" r="3.71053" fill="#04005E"/>
<circle cx="536.653" cy="41.0931" r="3.71053" fill="#04005E"/>
<circle cx="544.074" cy="33.6742" r="3.71053" fill="#04005E"/>
<circle cx="536.653" cy="11.4098" r="3.71053" fill="#04005E"/>
<circle cx="536.653" cy="18.8326" r="3.71053" fill="#04005E"/>
<rect x="532.942" y="11.2717" width="7.42107" height="7.42107" fill="#04005E"/>
<rect x="540.363" y="26.1174" width="7.42107" height="7.42107" fill="#04005E"/>
<rect x="422.451" y="44.5276" width="7.42107" height="44.5264" rx="3.71054" transform="rotate(-180 422.451 44.5276)" fill="#04005E"/>
<rect x="466.29" y="44.5269" width="7.42107" height="22.2632" rx="3.71053" transform="rotate(-180 466.29 44.5269)" fill="#04005E"/>
<rect x="422.451" y="22.2668" width="7.42106" height="36.2808" rx="3.71053" transform="rotate(-90 422.451 22.2668)" fill="#04005E"/>
<rect x="466.291" y="14.8433" width="7.42107" height="14.8421" rx="3.71053" transform="rotate(-180 466.291 14.8433)" fill="#04005E"/>
<path d="M458.87 25.9755C458.98 22.7872 456.442 22.1734 455.159 22.265L458.87 18.5544C459.2 21.6328 461.481 22.3108 462.58 22.265L458.87 25.9755Z" fill="#04005E"/>
<path d="M422.451 18.5556C422.561 15.3673 420.023 14.7534 418.741 14.8451L422.451 11.1345C422.781 14.2129 425.062 14.8909 426.162 14.8451L422.451 18.5556Z" fill="#04005E"/>
<path d="M458.87 18.5556C458.76 15.3673 461.298 14.7534 462.58 14.8451L458.87 11.1345C458.54 14.2129 456.259 14.8909 455.159 14.8451L458.87 18.5556Z" fill="#04005E"/>
<path d="M422.452 25.9767C422.342 22.7883 424.879 22.1745 426.162 22.2661L422.452 18.5556C422.122 21.634 419.84 22.3119 418.741 22.2661L422.452 25.9767Z" fill="#04005E"/>
<path d="M455.16 22.2668C453.11 22.2668 451.449 20.6056 451.449 18.5563C451.449 16.507 453.11 14.8458 455.16 14.8458C457.209 14.8458 458.87 16.507 458.87 18.5563C458.87 20.6056 457.209 22.2668 455.16 22.2668Z" fill="#04005E"/>
<rect x="458.87" y="14.8433" width="7.42107" height="7.42107" rx="3.71053" transform="rotate(-90 458.87 14.8433)" fill="#04005E"/>
<path d="M125.884 3.99105C125.884 1.94178 127.545 0.280518 129.594 0.280518H159.278C161.328 0.280518 162.989 1.94178 162.989 3.99105C162.989 6.04032 161.328 7.70158 159.278 7.70158H129.594C127.545 7.70158 125.884 6.04032 125.884 3.99105Z" fill="#04005E"/>
<path d="M122.173 37.386C120.124 37.386 118.462 35.7247 118.462 33.6755V11.4123C118.462 9.36298 120.124 7.70172 122.173 7.70172C124.222 7.70172 125.883 9.36298 125.883 11.4123V33.6755C125.883 35.7247 124.222 37.386 122.173 37.386Z" fill="#04005E"/>
<path d="M125.884 41.0965C125.884 39.0472 127.545 37.386 129.594 37.386H159.278C161.328 37.386 162.989 39.0472 162.989 41.0965C162.989 43.1458 161.328 44.8071 159.278 44.8071H129.594C127.545 44.8071 125.884 43.1458 125.884 41.0965Z" fill="#04005E"/>
<path d="M162.989 11.412C163.106 8.22372 160.407 7.60988 159.042 7.7015L162.989 3.99097C163.339 7.06934 165.766 7.74731 166.935 7.7015L162.989 11.412Z" fill="#04005E"/>
<path d="M125.844 41.0947C125.961 37.9063 123.262 37.2925 121.898 37.3841L125.844 33.6736C126.195 36.752 128.621 37.4299 129.79 37.3841L125.844 41.0947Z" fill="#04005E"/>
<path d="M163.028 41.0947C162.911 37.9063 165.61 37.2925 166.974 37.3841L163.028 33.6736C162.677 36.752 160.251 37.4299 159.082 37.3841L163.028 41.0947Z" fill="#04005E"/>
<path d="M125.982 11.412C125.865 8.22372 128.564 7.60988 129.928 7.7015L125.982 3.99097C125.631 7.06934 123.205 7.74731 122.035 7.7015L125.982 11.412Z" fill="#04005E"/>
<circle cx="166.699" cy="11.4118" r="3.71053" transform="rotate(-180 166.699 11.4118)" fill="#04005E"/>
<circle cx="166.699" cy="33.6755" r="3.71053" transform="rotate(-180 166.699 33.6755)" fill="#04005E"/>
<path d="M363.083 3.71322C363.083 1.66395 364.744 0.00268555 366.793 0.00268555H396.478C398.527 0.00268555 400.188 1.66395 400.188 3.71322C400.188 5.76249 398.527 7.42375 396.478 7.42375H366.793C364.744 7.42375 363.083 5.76249 363.083 3.71322Z" fill="#04005E"/>
<path d="M359.372 37.1091C357.323 37.1091 355.662 35.4479 355.662 33.3986V11.1354C355.662 9.08613 357.323 7.42486 359.372 7.42486C361.422 7.42486 363.083 9.08613 363.083 11.1354V33.3986C363.083 35.4479 361.422 37.1091 359.372 37.1091Z" fill="#04005E"/>
<path d="M363.083 40.8197C363.083 38.7704 364.744 37.1091 366.793 37.1091H396.478C398.527 37.1091 400.188 38.7704 400.188 40.8197C400.188 42.8689 398.527 44.5302 396.478 44.5302H366.793C364.744 44.5302 363.083 42.8689 363.083 40.8197Z" fill="#04005E"/>
<path d="M400.188 11.1342C400.305 7.94589 397.606 7.33205 396.242 7.42367L400.188 3.71313C400.539 6.7915 402.965 7.46948 404.134 7.42367L400.188 11.1342Z" fill="#04005E"/>
<path d="M363.044 40.8168C363.16 37.6285 360.462 37.0147 359.097 37.1063L363.044 33.3958C363.394 36.4741 365.82 37.1521 366.99 37.1063L363.044 40.8168Z" fill="#04005E"/>
<path d="M400.227 40.8168C400.11 37.6285 402.809 37.0147 404.173 37.1063L400.227 33.3958C399.876 36.4741 397.45 37.1521 396.281 37.1063L400.227 40.8168Z" fill="#04005E"/>
<path d="M363.181 11.1342C363.064 7.94589 365.763 7.33205 367.127 7.42367L363.181 3.71313C362.83 6.7915 360.404 7.46948 359.235 7.42367L363.181 11.1342Z" fill="#04005E"/>
<circle cx="403.898" cy="11.1339" r="3.71053" transform="rotate(-180 403.898 11.1339)" fill="#04005E"/>
<circle cx="403.898" cy="33.3986" r="3.71053" transform="rotate(-180 403.898 33.3986)" fill="#04005E"/>
<path d="M200.644 11.4111C200.761 8.22275 198.062 7.60891 196.698 7.70052L200.644 3.98999C200.994 7.06836 203.421 7.74633 204.59 7.70052L200.644 11.4111Z" fill="#04005E"/>
<path d="M208.064 11.4111C207.947 8.22275 210.646 7.60891 212.01 7.70052L208.064 3.98999C207.713 7.06836 205.287 7.74633 204.118 7.70052L208.064 11.4111Z" fill="#04005E"/>
<rect x="208.065" y="41.1511" width="7.42107" height="30.3439" transform="rotate(-180 208.065 41.1511)" fill="#04005E"/>
<ellipse cx="204.354" cy="41.2907" rx="3.71053" ry="3.79299" transform="rotate(-180 204.354 41.2907)" fill="#04005E"/>
<ellipse cx="204.354" cy="10.9465" rx="3.71053" ry="3.79299" transform="rotate(-180 204.354 10.9465)" fill="#04005E"/>
<rect x="177.83" y="7.70337" width="7.42106" height="51.9475" rx="3.71053" transform="rotate(-90 177.83 7.70337)" fill="#04005E"/>
<rect y="51" width="582" height="7" rx="3.5" fill="#04005E"/>
</svg>
