<svg width="342" height="45" viewBox="0 0 342 45" fill="none" xmlns="http://www.w3.org/2000/svg">
<path d="M159.872 37.9199C162.611 37.9199 164.014 35.7153 164.014 33.8321L167.438 37.2562C165.042 37.2562 163.329 39.3107 163.329 41.3652L159.872 37.9199Z" fill="#04005E"/>
<path d="M126.758 41.3652C126.758 38.6259 124.533 37.2562 122.649 37.2562L126.074 33.832C126.074 36.229 128.128 37.9199 130.183 37.9199L128.471 39.632L126.758 41.3652Z" fill="#04005E"/>
<path d="M122.649 30.3737C125.389 30.3737 126.758 28.148 126.758 26.2647L130.183 29.6888C127.786 29.6888 126.074 31.7433 126.074 33.7979L122.649 30.3737Z" fill="#04005E"/>
<path d="M122.628 7.80825C125.367 7.80825 126.737 5.58254 126.737 3.69924L130.161 7.12341C127.764 7.12341 126.052 9.17792 126.052 11.2324L122.628 7.80825Z" fill="#04005E"/>
<path d="M159.905 22.8747C162.645 22.8747 164.014 20.6489 164.014 18.7656L167.438 22.1898C165.042 22.1898 163.329 24.2443 163.329 26.2988L159.905 22.8747Z" fill="#04005E"/>
<path d="M163.329 3.69931C163.329 6.43865 165.555 7.80832 167.438 7.80832L164.014 11.2325C164.014 8.83557 161.96 7.12349 159.905 7.12349L163.329 3.69931Z" fill="#04005E"/>
<path d="M163.329 26.2989C163.329 29.0382 165.555 30.4079 167.438 30.4079L164.014 33.832C164.014 31.4351 161.96 29.723 159.905 29.723L163.329 26.2989Z" fill="#04005E"/>
<circle cx="159.905" cy="41.3649" r="2" transform="rotate(-180 159.905 41.3649)" fill="#04005E" stroke="#04005E" stroke-width="2.84835"/>
<circle cx="152.714" cy="41.3649" r="2" transform="rotate(-180 152.714 41.3649)" fill="#04005E" stroke="#04005E" stroke-width="2.84835"/>
<circle cx="145.181" cy="41.3649" r="2" transform="rotate(-180 145.181 41.3649)" fill="#04005E" stroke="#04005E" stroke-width="2.84835"/>
<path d="M128.739 41.3543C128.739 40.562 129.381 39.9196 130.174 39.9196C130.966 39.9196 131.608 40.562 131.608 41.3543C131.608 42.1467 130.966 42.7891 130.174 42.7891C129.381 42.7891 128.739 42.1467 128.739 41.3543Z" fill="#04005E" stroke="#04005E" stroke-width="4"/>
<path d="M121.204 33.7977C121.204 33.0053 121.846 32.363 122.639 32.363C123.431 32.363 124.073 33.0053 124.073 33.7977C124.073 34.5901 123.431 35.2324 122.639 35.2324C121.846 35.2324 121.204 34.5901 121.204 33.7977Z" fill="#04005E" stroke="#04005E" stroke-width="4"/>
<path d="M121.203 26.2311C121.203 25.4446 121.841 24.8069 122.628 24.8069C123.414 24.8069 124.052 25.4446 124.052 26.2311C124.052 27.0176 123.414 27.6553 122.628 27.6553C121.841 27.6553 121.203 27.0176 121.203 26.2311Z" fill="#04005E" stroke="#04005E" stroke-width="4"/>
<circle cx="167.438" cy="33.8317" r="2" transform="rotate(-180 167.438 33.8317)" fill="#04005E" stroke="#04005E" stroke-width="2.84835"/>
<circle cx="167.438" cy="26.2985" r="2" transform="rotate(-180 167.438 26.2985)" fill="#04005E" stroke="#04005E" stroke-width="2.84835"/>
<circle cx="167.438" cy="19.4499" r="2" transform="rotate(-180 167.438 19.4499)" fill="#04005E" stroke="#04005E" stroke-width="2.84835"/>
<circle cx="167.438" cy="11.2321" r="2" transform="rotate(-180 167.438 11.2321)" fill="#04005E" stroke="#04005E" stroke-width="2.84835"/>
<circle cx="159.905" cy="3.69887" r="2" transform="rotate(-180 159.905 3.69887)" fill="#04005E" stroke="#04005E" stroke-width="2.84835"/>
<circle cx="152.714" cy="3.69887" r="2" transform="rotate(-180 152.714 3.69887)" fill="#04005E" stroke="#04005E" stroke-width="2.84835"/>
<circle cx="145.181" cy="3.69887" r="2" transform="rotate(-180 145.181 3.69887)" fill="#04005E" stroke="#04005E" stroke-width="2.84835"/>
<circle cx="130.161" cy="3.69887" r="2" transform="rotate(-180 130.161 3.69887)" fill="#04005E" stroke="#04005E" stroke-width="2.84835"/>
<circle cx="122.628" cy="11.2321" r="2" transform="rotate(-180 122.628 11.2321)" fill="#04005E" stroke="#04005E" stroke-width="2.84835"/>
<circle cx="159.905" cy="26.2985" r="2" transform="rotate(-180 159.905 26.2985)" fill="#04005E" stroke="#04005E" stroke-width="2.84835"/>
<path d="M159.896 44.7891L130.195 44.7891L130.195 37.9196L159.896 37.9196L159.896 44.7891Z" fill="#04005E"/>
<rect x="167.565" y="29.6758" width="44.7889" height="6.86946" transform="rotate(-180 167.565 29.6758)" fill="#04005E"/>
<rect x="119.204" y="33.4893" width="7.19076" height="6.84835" transform="rotate(-90 119.204 33.4893)" fill="#04005E"/>
<rect x="159.871" y="7.14453" width="29.6761" height="6.86946" transform="rotate(-180 159.871 7.14453)" fill="#04005E"/>
<rect x="164.514" y="33.332" width="21.5995" height="5.84834" transform="rotate(-90 164.514 33.332)" fill="#04005E" stroke="#04005E"/>
<rect x="248.074" y="37.3691" width="22.8066" height="7.41902" fill="#04005E"/>
<rect x="248.074" y="15.1123" width="22.5318" height="7.41902" fill="#04005E"/>
<path fill-rule="evenodd" clip-rule="evenodd" d="M245.052 11.4023C245.052 13.4511 243.392 15.1119 241.343 15.1119C243.392 15.1119 245.052 16.7726 245.052 18.8214C245.052 16.7726 246.713 15.1119 248.762 15.1119C246.713 15.1119 245.052 13.4511 245.052 11.4023Z" fill="#04005E"/>
<path fill-rule="evenodd" clip-rule="evenodd" d="M245.052 18.8214C245.052 20.8701 243.392 22.5309 241.343 22.5309C243.392 22.5309 245.052 24.1916 245.052 26.2404C245.052 24.1916 246.713 22.5309 248.762 22.5309C246.713 22.5309 245.052 20.8701 245.052 18.8214Z" fill="#04005E"/>
<path fill-rule="evenodd" clip-rule="evenodd" d="M245.052 33.6592C245.052 35.7079 243.392 37.3687 241.343 37.3687C243.392 37.3687 245.052 39.0294 245.052 41.0782C245.052 39.0294 246.713 37.3687 248.762 37.3687C246.713 37.3687 245.052 35.7079 245.052 33.6592Z" fill="#04005E"/>
<path fill-rule="evenodd" clip-rule="evenodd" d="M274.728 18.8223C274.728 20.871 273.067 22.5318 271.019 22.5318C273.067 22.5318 274.728 24.1925 274.728 26.2413C274.728 24.1925 276.389 22.5318 278.438 22.5318C276.389 22.5318 274.728 20.871 274.728 18.8223Z" fill="#04005E"/>
<path fill-rule="evenodd" clip-rule="evenodd" d="M274.728 33.6592C274.728 35.7079 273.067 37.3687 271.019 37.3687C273.067 37.3687 274.728 39.0294 274.728 41.0782C274.728 39.0294 276.389 37.3687 278.438 37.3687C276.389 37.3687 274.728 35.7079 274.728 33.6592Z" fill="#04005E"/>
<rect x="237.633" y="4.12109" width="7.41902" height="29.6761" fill="#04005E"/>
<rect x="274.729" y="26.3779" width="7.41902" height="7.41902" fill="#04005E"/>
<circle cx="248.761" cy="18.8218" r="3.70951" fill="#04005E"/>
<circle cx="248.761" cy="41.0786" r="3.70951" fill="#04005E"/>
<circle cx="241.342" cy="3.98392" r="3.70951" fill="#04005E"/>
<circle cx="241.342" cy="33.6597" r="3.70951" fill="#04005E"/>
<circle cx="278.438" cy="26.2408" r="3.70951" fill="#04005E"/>
<circle cx="271.018" cy="18.8218" r="3.70951" fill="#04005E"/>
<circle cx="271.018" cy="41.0786" r="3.70951" fill="#04005E"/>
<circle cx="278.438" cy="33.6597" r="3.70951" fill="#04005E"/>
<rect x="341.5" y="40.9424" width="7.41902" height="29.6761" transform="rotate(-180 341.5 40.9424)" fill="#04005E"/>
<rect x="322.814" y="7.69434" width="7.41902" height="7.41902" transform="rotate(-90 322.814 7.69434)" fill="#04005E"/>
<rect x="301.656" y="44.7891" width="7.41902" height="7.41902" transform="rotate(-90 301.656 44.7891)" fill="#04005E"/>
<rect x="296.986" y="33.6602" width="7.41902" height="29.6761" transform="rotate(-180 296.986 33.6602)" fill="#04005E"/>
<rect x="319.243" y="33.5234" width="7.41902" height="22.2571" transform="rotate(-180 319.243 33.5234)" fill="#04005E"/>
<circle cx="300.695" cy="41.0796" r="3.70951" transform="rotate(-180 300.695 41.0796)" fill="#04005E"/>
<circle cx="308.115" cy="41.0796" r="3.70951" transform="rotate(-180 308.115 41.0796)" fill="#04005E"/>
<circle cx="330.372" cy="3.98483" r="3.70951" transform="rotate(-180 330.372 3.98483)" fill="#04005E"/>
<circle cx="322.952" cy="3.98483" r="3.70951" transform="rotate(-180 322.952 3.98483)" fill="#04005E"/>
<circle cx="337.79" cy="41.0796" r="3.70951" transform="rotate(-180 337.79 41.0796)" fill="#04005E"/>
<circle cx="293.277" cy="33.6606" r="3.70951" transform="rotate(-180 293.277 33.6606)" fill="#04005E"/>
<circle cx="293.277" cy="3.98483" r="3.70951" transform="rotate(-180 293.277 3.98483)" fill="#04005E"/>
<circle cx="337.79" cy="11.4038" r="3.70951" transform="rotate(-180 337.79 11.4038)" fill="#04005E"/>
<circle cx="315.534" cy="33.6606" r="3.70951" transform="rotate(-180 315.534 33.6606)" fill="#04005E"/>
<circle cx="315.534" cy="11.4038" r="3.70951" transform="rotate(-180 315.534 11.4038)" fill="#04005E"/>
<path d="M293.275 37.3704C296.463 37.2535 297.076 39.9517 296.985 41.3154L300.694 37.3704C297.617 37.0197 296.939 34.5943 296.985 33.4254L293.275 37.3704Z" fill="#04005E"/>
<path d="M311.824 33.6611C311.934 36.8485 309.397 37.4622 308.114 37.3706L311.824 41.0801C312.154 38.0026 314.434 37.3248 315.533 37.3706L311.824 33.6611Z" fill="#04005E"/>
<path d="M330.371 7.69462C333.558 7.57773 334.172 10.2759 334.081 11.6396L337.79 7.69462C334.713 7.34395 334.035 4.91848 334.081 3.74958L330.371 7.69462Z" fill="#04005E"/>
<path d="M319.242 3.9843C319.359 7.17173 316.661 7.7854 315.297 7.69381L319.242 11.4033C319.593 8.3258 322.018 7.64801 323.187 7.69381L319.242 3.9843Z" fill="#04005E"/>
<path d="M7.91797 3.98392C7.91797 1.93522 9.57877 0.274414 11.6275 0.274414H41.3035C43.3522 0.274414 45.0131 1.93522 45.0131 3.98392C45.0131 6.03263 43.3522 7.69343 41.3035 7.69343H11.6275C9.57877 7.69343 7.91797 6.03263 7.91797 3.98392Z" fill="#04005E"/>
<path d="M4.20853 37.3691C2.15983 37.3691 0.499023 35.7083 0.499023 33.6596L0.499023 11.4026C0.499023 9.35387 2.15983 7.69307 4.20853 7.69307C6.25724 7.69307 7.91804 9.35387 7.91804 11.4026L7.91804 33.6596C7.91804 35.7083 6.25724 37.3691 4.20853 37.3691Z" fill="#04005E"/>
<path d="M7.91797 41.0786C7.91797 39.0299 9.57877 37.3691 11.6275 37.3691H41.3035C43.3522 37.3691 45.0131 39.0299 45.0131 41.0786C45.0131 43.1274 43.3522 44.7882 41.3035 44.7882H11.6275C9.57877 44.7882 7.91797 43.1274 7.91797 41.0786Z" fill="#04005E"/>
<path d="M45.0124 11.4034C45.1293 8.21596 42.4311 7.60229 41.0674 7.69388L45.0124 3.98438C45.3631 7.06189 47.7885 7.73968 48.9574 7.69388L45.0124 11.4034Z" fill="#04005E"/>
<path d="M7.91769 41.0792C8.03458 37.8917 5.33637 37.2781 3.97266 37.3697L7.91769 33.6602C8.26836 36.7377 10.6938 37.4155 11.8627 37.3697L7.91769 41.0792Z" fill="#04005E"/>
<path d="M45.013 41.0792C44.8961 37.8917 47.5943 37.2781 48.958 37.3697L45.013 33.6602C44.6623 36.7377 42.2368 37.4155 41.0679 37.3697L45.013 41.0792Z" fill="#04005E"/>
<path d="M7.91727 11.4034C7.80038 8.21596 10.4986 7.60229 11.8623 7.69388L7.91727 3.98438C7.5666 7.06189 5.14114 7.73968 3.97224 7.69388L7.91727 11.4034Z" fill="#04005E"/>
<circle cx="48.7231" cy="11.4028" r="3.70951" transform="rotate(-180 48.7231 11.4028)" fill="#04005E"/>
<circle cx="48.7231" cy="33.6606" r="3.70951" transform="rotate(-180 48.7231 33.6606)" fill="#04005E"/>
<path d="M82.6579 11.128C82.7748 7.94057 80.0766 7.3269 78.7129 7.41849L82.6579 3.70898C83.0086 6.7865 85.4341 7.46429 86.603 7.41849L82.6579 11.128Z" fill="#04005E"/>
<path d="M90.0755 11.128C89.9586 7.94057 92.6568 7.3269 94.0205 7.41849L90.0755 3.70898C89.7248 6.7865 87.2993 7.46429 86.1304 7.41849L90.0755 11.128Z" fill="#04005E"/>
<rect x="90.0762" y="40.8564" width="7.41902" height="30.3355" transform="rotate(-180 90.0762 40.8564)" fill="#04005E"/>
<ellipse cx="86.3647" cy="40.9971" rx="3.70951" ry="3.79194" transform="rotate(-180 86.3647 40.9971)" fill="#04005E"/>
<ellipse cx="86.3667" cy="10.6612" rx="3.70951" ry="3.79194" transform="rotate(-180 86.3667 10.6612)" fill="#04005E"/>
<rect x="59.8506" y="7.41895" width="7.41901" height="51.9331" rx="3.70951" transform="rotate(-90 59.8506 7.41895)" fill="#04005E"/>
<path d="M201.088 11.128C201.205 7.94057 198.506 7.3269 197.143 7.41849L201.088 3.70898C201.438 6.7865 203.864 7.46429 205.033 7.41849L201.088 11.128Z" fill="#04005E"/>
<path d="M208.505 11.128C208.388 7.94057 211.086 7.3269 212.45 7.41849L208.505 3.70898C208.154 6.7865 205.729 7.46429 204.56 7.41849L208.505 11.128Z" fill="#04005E"/>
<rect x="208.506" y="40.8564" width="7.41902" height="30.3355" transform="rotate(-180 208.506 40.8564)" fill="#04005E"/>
<ellipse cx="204.796" cy="40.9971" rx="3.70951" ry="3.79194" transform="rotate(-180 204.796 40.9971)" fill="#04005E"/>
<ellipse cx="204.796" cy="10.6612" rx="3.70951" ry="3.79194" transform="rotate(-180 204.796 10.6612)" fill="#04005E"/>
<rect x="178.28" y="7.41895" width="7.41901" height="51.9331" rx="3.70951" transform="rotate(-90 178.28 7.41895)" fill="#04005E"/>
</svg>
