<svg width="586" height="46" viewBox="0 0 586 46" fill="none" xmlns="http://www.w3.org/2000/svg">
<path d="M515.116 37.6784C517.856 37.6784 519.226 35.4521 519.226 33.5683L522.651 36.9934C520.254 36.9934 518.541 39.0484 518.541 41.1035L515.116 37.6784Z" fill="#04005E"/>
<path d="M481.961 41.1017C481.961 38.3616 479.734 36.9915 477.85 36.9915L481.276 33.5664C481.276 35.964 483.331 37.6554 485.386 37.6554L483.673 39.368L481.961 41.1017Z" fill="#04005E"/>
<path d="M477.85 30.1061C480.591 30.1061 481.961 27.8798 481.961 25.996L485.386 29.4211C482.988 29.4211 481.276 31.4762 481.276 33.5312L477.85 30.1061Z" fill="#04005E"/>
<path d="M477.829 7.53582C480.569 7.53582 481.939 5.30949 481.939 3.42568L485.364 6.8508C482.967 6.8508 481.254 8.90587 481.254 10.9609L477.829 7.53582Z" fill="#04005E"/>
<path d="M515.116 22.6061C517.856 22.6061 519.226 20.3798 519.226 18.496L522.651 21.9211C520.254 21.9211 518.541 23.9762 518.541 26.0312L515.116 22.6061Z" fill="#04005E"/>
<path d="M518.541 3.42536C518.541 6.16546 520.768 7.53551 522.651 7.53551L519.226 10.9606C519.226 8.56304 517.171 6.85048 515.116 6.85048L518.541 3.42536Z" fill="#04005E"/>
<path d="M518.541 26.0311C518.541 28.7712 520.768 30.1413 522.651 30.1413L519.226 33.5664C519.226 31.1688 517.171 29.4563 515.116 29.4563L518.541 26.0311Z" fill="#04005E"/>
<circle cx="515.116" cy="41.1022" r="2" transform="rotate(-180 515.116 41.1022)" fill="#04005E" stroke="#04005E" stroke-width="2.85024"/>
<circle cx="507.924" cy="41.1022" r="2" transform="rotate(-180 507.924 41.1022)" fill="#04005E" stroke="#04005E" stroke-width="2.85024"/>
<circle cx="500.388" cy="41.1022" r="2" transform="rotate(-180 500.388 41.1022)" fill="#04005E" stroke="#04005E" stroke-width="2.85024"/>
<path d="M483.941 41.0917C483.941 40.2988 484.584 39.656 485.377 39.656C486.17 39.656 486.813 40.2988 486.813 41.0917C486.813 41.8846 486.17 42.5273 485.377 42.5273C484.584 42.5273 483.941 41.8846 483.941 41.0917Z" fill="#04005E" stroke="#04005E" stroke-width="4"/>
<path d="M476.404 33.5331C476.404 32.7402 477.047 32.0974 477.84 32.0974C478.633 32.0974 479.275 32.7402 479.275 33.5331C479.275 34.326 478.633 34.9687 477.84 34.9687C477.047 34.9687 476.404 34.326 476.404 33.5331Z" fill="#04005E" stroke="#04005E" stroke-width="4"/>
<path d="M476.404 25.9636C476.404 25.1765 477.042 24.5384 477.829 24.5384C478.616 24.5384 479.254 25.1765 479.254 25.9636C479.254 26.7506 478.616 27.3887 477.829 27.3887C477.042 27.3887 476.404 26.7506 476.404 25.9636Z" fill="#04005E" stroke="#04005E" stroke-width="4"/>
<circle cx="522.651" cy="33.569" r="2" transform="rotate(-180 522.651 33.569)" fill="#04005E" stroke="#04005E" stroke-width="2.85024"/>
<circle cx="522.651" cy="26.0339" r="2" transform="rotate(-180 522.651 26.0339)" fill="#04005E" stroke="#04005E" stroke-width="2.85024"/>
<circle cx="522.651" cy="19.1803" r="2" transform="rotate(-180 522.651 19.1803)" fill="#04005E" stroke="#04005E" stroke-width="2.85024"/>
<circle cx="522.651" cy="10.9616" r="2" transform="rotate(-180 522.651 10.9616)" fill="#04005E" stroke="#04005E" stroke-width="2.85024"/>
<circle cx="515.116" cy="3.42449" r="2" transform="rotate(-180 515.116 3.42449)" fill="#04005E" stroke="#04005E" stroke-width="2.85024"/>
<circle cx="507.923" cy="3.42449" r="2" transform="rotate(-180 507.923 3.42449)" fill="#04005E" stroke="#04005E" stroke-width="2.85024"/>
<circle cx="500.387" cy="3.42449" r="2" transform="rotate(-180 500.387 3.42449)" fill="#04005E" stroke="#04005E" stroke-width="2.85024"/>
<circle cx="485.364" cy="3.42449" r="2" transform="rotate(-180 485.364 3.42449)" fill="#04005E" stroke="#04005E" stroke-width="2.85024"/>
<circle cx="477.829" cy="10.9616" r="2" transform="rotate(-180 477.829 10.9616)" fill="#04005E" stroke="#04005E" stroke-width="2.85024"/>
<circle cx="507.923" cy="26.0339" r="2" transform="rotate(-180 507.923 26.0339)" fill="#04005E" stroke="#04005E" stroke-width="2.85024"/>
<circle cx="515.116" cy="26.0339" r="2" transform="rotate(-180 515.116 26.0339)" fill="#04005E" stroke="#04005E" stroke-width="2.85024"/>
<rect x="515.082" y="44.5273" width="29.6843" height="6.87136" transform="rotate(-180 515.082 44.5273)" fill="#04005E"/>
<rect x="522.777" y="29.4121" width="44.8013" height="6.87135" transform="rotate(-180 522.777 29.4121)" fill="#04005E"/>
<rect x="474.404" y="33.2227" width="7.19275" height="6.85024" transform="rotate(-90 474.404 33.2227)" fill="#04005E"/>
<rect x="515.082" y="6.87305" width="29.6843" height="6.87136" transform="rotate(-180 515.082 6.87305)" fill="#04005E"/>
<rect x="519.726" y="33.0664" width="21.6058" height="5.85024" transform="rotate(-90 519.726 33.0664)" fill="#04005E" stroke="#04005E"/>
<path d="M100.636 37.9577C103.376 37.9577 104.746 35.7314 104.746 33.8476L108.171 37.2727C105.773 37.2727 104.061 39.3277 104.061 41.3828L100.636 37.9577Z" fill="#04005E"/>
<path d="M67.4801 41.381C67.4801 38.6409 65.2538 37.2708 63.37 37.2708L66.7951 33.8457C66.7951 36.2433 68.8502 37.9347 70.9053 37.9347L69.1927 39.6473L67.4801 41.381Z" fill="#04005E"/>
<path d="M63.37 30.3854C66.1101 30.3854 67.4802 28.1591 67.4802 26.2753L70.9053 29.7004C68.5077 29.7004 66.7951 31.7555 66.7951 33.8105L63.37 30.3854Z" fill="#04005E"/>
<path d="M63.3485 7.81512C66.0886 7.81512 67.4587 5.58879 67.4587 3.70497L70.8838 7.13009C68.4862 7.13009 66.7736 9.18516 66.7736 11.2402L63.3485 7.81512Z" fill="#04005E"/>
<path d="M100.636 22.8854C103.376 22.8854 104.746 20.6591 104.746 18.7753L108.171 22.2004C105.773 22.2004 104.061 24.2555 104.061 26.3105L100.636 22.8854Z" fill="#04005E"/>
<path d="M104.061 3.70466C104.061 6.44475 106.287 7.8148 108.171 7.8148L104.746 11.2399C104.746 8.84234 102.691 7.12978 100.636 7.12978L104.061 3.70466Z" fill="#04005E"/>
<path d="M104.061 26.3104C104.061 29.0505 106.287 30.4206 108.171 30.4206L104.746 33.8457C104.746 31.4481 102.691 29.7356 100.636 29.7356L104.061 26.3104Z" fill="#04005E"/>
<circle cx="100.635" cy="41.3815" r="2" transform="rotate(-180 100.635 41.3815)" fill="#04005E" stroke="#04005E" stroke-width="2.85024"/>
<circle cx="93.4421" cy="41.3815" r="2" transform="rotate(-180 93.4421 41.3815)" fill="#04005E" stroke="#04005E" stroke-width="2.85024"/>
<circle cx="85.9069" cy="41.3815" r="2" transform="rotate(-180 85.9069 41.3815)" fill="#04005E" stroke="#04005E" stroke-width="2.85024"/>
<path d="M69.4607 41.371C69.4607 40.5781 70.1034 39.9353 70.8964 39.9353C71.6893 39.9353 72.332 40.5781 72.332 41.371C72.332 42.1639 71.6893 42.8066 70.8964 42.8066C70.1034 42.8066 69.4607 42.1639 69.4607 41.371Z" fill="#04005E" stroke="#04005E" stroke-width="4"/>
<path d="M61.9236 33.8124C61.9236 33.0195 62.5663 32.3767 63.3592 32.3767C64.1521 32.3767 64.7949 33.0195 64.7949 33.8124C64.7949 34.6053 64.1521 35.248 63.3592 35.248C62.5663 35.248 61.9236 34.6053 61.9236 33.8124Z" fill="#04005E" stroke="#04005E" stroke-width="4"/>
<path d="M61.9222 26.2428C61.9222 25.4558 62.5603 24.8177 63.3473 24.8177C64.1344 24.8177 64.7725 25.4558 64.7725 26.2429C64.7725 27.0299 64.1344 27.668 63.3473 27.668C62.5603 27.668 61.9222 27.0299 61.9222 26.2428Z" fill="#04005E" stroke="#04005E" stroke-width="4"/>
<circle cx="108.171" cy="33.8483" r="2" transform="rotate(-180 108.171 33.8483)" fill="#04005E" stroke="#04005E" stroke-width="2.85024"/>
<circle cx="108.171" cy="26.3132" r="2" transform="rotate(-180 108.171 26.3132)" fill="#04005E" stroke="#04005E" stroke-width="2.85024"/>
<circle cx="108.171" cy="19.4596" r="2" transform="rotate(-180 108.171 19.4596)" fill="#04005E" stroke="#04005E" stroke-width="2.85024"/>
<circle cx="108.171" cy="11.2409" r="2" transform="rotate(-180 108.171 11.2409)" fill="#04005E" stroke="#04005E" stroke-width="2.85024"/>
<circle cx="100.635" cy="3.70379" r="2" transform="rotate(-180 100.635 3.70379)" fill="#04005E" stroke="#04005E" stroke-width="2.85024"/>
<circle cx="93.4421" cy="3.70379" r="2" transform="rotate(-180 93.4421 3.70379)" fill="#04005E" stroke="#04005E" stroke-width="2.85024"/>
<circle cx="85.9069" cy="3.70379" r="2" transform="rotate(-180 85.9069 3.70379)" fill="#04005E" stroke="#04005E" stroke-width="2.85024"/>
<circle cx="70.8835" cy="3.70379" r="2" transform="rotate(-180 70.8835 3.70379)" fill="#04005E" stroke="#04005E" stroke-width="2.85024"/>
<circle cx="63.3483" cy="11.2409" r="2" transform="rotate(-180 63.3483 11.2409)" fill="#04005E" stroke="#04005E" stroke-width="2.85024"/>
<circle cx="93.4421" cy="26.3132" r="2" transform="rotate(-180 93.4421 26.3132)" fill="#04005E" stroke="#04005E" stroke-width="2.85024"/>
<circle cx="100.635" cy="26.3132" r="2" transform="rotate(-180 100.635 26.3132)" fill="#04005E" stroke="#04005E" stroke-width="2.85024"/>
<rect x="100.602" y="44.8066" width="29.6843" height="6.87136" transform="rotate(-180 100.602 44.8066)" fill="#04005E"/>
<rect x="108.297" y="29.6914" width="44.8013" height="6.87135" transform="rotate(-180 108.297 29.6914)" fill="#04005E"/>
<rect x="59.9229" y="33.502" width="7.19275" height="6.85024" transform="rotate(-90 59.9229 33.502)" fill="#04005E"/>
<rect x="100.602" y="7.15234" width="29.6843" height="6.87136" transform="rotate(-180 100.602 7.15234)" fill="#04005E"/>
<rect x="105.245" y="33.3457" width="21.6058" height="5.85024" transform="rotate(-90 105.245 33.3457)" fill="#04005E" stroke="#04005E"/>
<path d="M248.714 7.1302C245.974 7.1302 244.604 9.35652 244.604 11.2403L241.179 7.81522C243.576 7.81522 245.289 5.76015 245.289 3.70508L248.714 7.1302Z" fill="#04005E"/>
<path d="M281.869 3.70693C281.869 6.44702 284.096 7.81707 285.98 7.81707L282.554 11.2422C282.554 8.8446 280.499 7.15319 278.444 7.15319L280.157 5.44063L281.869 3.70693Z" fill="#04005E"/>
<path d="M285.98 14.7025C283.239 14.7025 281.869 16.9288 281.869 18.8126L278.444 15.3875C280.842 15.3875 282.554 13.3324 282.554 11.2773L285.98 14.7025Z" fill="#04005E"/>
<path d="M286.002 37.2728C283.262 37.2728 281.892 39.4991 281.892 41.3829L278.467 37.9578C280.864 37.9578 282.577 35.9027 282.577 33.8477L286.002 37.2728Z" fill="#04005E"/>
<path d="M248.715 22.2025C245.975 22.2025 244.605 24.4288 244.605 26.3126L241.18 22.8875C243.577 22.8875 245.29 20.8324 245.29 18.7773L248.715 22.2025Z" fill="#04005E"/>
<path d="M245.289 41.3832C245.289 38.6431 243.062 37.2731 241.179 37.2731L244.604 33.848C244.604 36.2456 246.659 37.9581 248.714 37.9581L245.289 41.3832Z" fill="#04005E"/>
<path d="M245.289 18.7774C245.289 16.0374 243.062 14.6673 241.179 14.6673L244.604 11.2422C244.604 13.6398 246.659 15.3523 248.714 15.3523L245.289 18.7774Z" fill="#04005E"/>
<circle cx="248.714" cy="3.70637" r="2" fill="#04005E" stroke="#04005E" stroke-width="2.85024"/>
<circle cx="255.908" cy="3.70637" r="2" fill="#04005E" stroke="#04005E" stroke-width="2.85024"/>
<circle cx="263.443" cy="3.70637" r="2" fill="#04005E" stroke="#04005E" stroke-width="2.85024"/>
<path d="M279.889 3.71693C279.889 4.50983 279.246 5.15261 278.453 5.15261C277.66 5.15261 277.018 4.50983 277.018 3.71693C277.018 2.92403 277.66 2.28125 278.453 2.28125C279.246 2.28125 279.889 2.92403 279.889 3.71693Z" fill="#04005E" stroke="#04005E" stroke-width="4"/>
<path d="M287.427 11.2755C287.427 12.0684 286.784 12.7112 285.991 12.7112C285.198 12.7112 284.556 12.0684 284.556 11.2755C284.556 10.4826 285.198 9.83984 285.991 9.83984C286.784 9.83984 287.427 10.4826 287.427 11.2755Z" fill="#04005E" stroke="#04005E" stroke-width="4"/>
<path d="M287.427 18.845C287.427 19.6321 286.789 20.2702 286.002 20.2702C285.215 20.2702 284.577 19.6321 284.577 18.845C284.577 18.058 285.215 17.4199 286.002 17.4199C286.789 17.4199 287.427 18.058 287.427 18.845Z" fill="#04005E" stroke="#04005E" stroke-width="4"/>
<circle cx="241.179" cy="11.2396" r="2" fill="#04005E" stroke="#04005E" stroke-width="2.85024"/>
<circle cx="241.179" cy="18.7747" r="2" fill="#04005E" stroke="#04005E" stroke-width="2.85024"/>
<circle cx="241.179" cy="25.6282" r="2" fill="#04005E" stroke="#04005E" stroke-width="2.85024"/>
<circle cx="241.179" cy="33.847" r="2" fill="#04005E" stroke="#04005E" stroke-width="2.85024"/>
<circle cx="248.714" cy="41.3841" r="2" fill="#04005E" stroke="#04005E" stroke-width="2.85024"/>
<circle cx="255.908" cy="41.3841" r="2" fill="#04005E" stroke="#04005E" stroke-width="2.85024"/>
<circle cx="263.443" cy="41.3841" r="2" fill="#04005E" stroke="#04005E" stroke-width="2.85024"/>
<circle cx="278.466" cy="41.3841" r="2" fill="#04005E" stroke="#04005E" stroke-width="2.85024"/>
<circle cx="286.001" cy="33.847" r="2" fill="#04005E" stroke="#04005E" stroke-width="2.85024"/>
<circle cx="255.908" cy="18.7747" r="2" fill="#04005E" stroke="#04005E" stroke-width="2.85024"/>
<circle cx="248.714" cy="18.7747" r="2" fill="#04005E" stroke="#04005E" stroke-width="2.85024"/>
<rect x="248.748" y="0.28125" width="29.6843" height="6.87136" fill="#04005E"/>
<rect x="241.053" y="15.3965" width="44.8013" height="6.87135" fill="#04005E"/>
<rect x="289.426" y="11.5859" width="7.19275" height="6.85024" transform="rotate(90 289.426 11.5859)" fill="#04005E"/>
<rect x="248.748" y="37.9355" width="29.6843" height="6.87136" fill="#04005E"/>
<rect x="244.104" y="11.7422" width="21.6058" height="5.85024" transform="rotate(90 244.104 11.7422)" fill="#04005E" stroke="#04005E"/>
<path fill-rule="evenodd" clip-rule="evenodd" d="M7.97616 3.99219C7.97616 6.04152 6.31495 7.70272 4.26562 7.70272C6.31495 7.70272 7.97616 9.36393 7.97616 11.4133C7.97616 9.36393 9.63736 7.70272 11.6867 7.70272C9.63736 7.70272 7.97616 6.04152 7.97616 3.99219Z" fill="#04005E"/>
<path fill-rule="evenodd" clip-rule="evenodd" d="M22.818 3.99219C22.818 6.04152 21.1568 7.70272 19.1074 7.70272C21.1568 7.70272 22.818 9.36393 22.818 11.4133C22.818 9.36393 24.4792 7.70272 26.5285 7.70272C24.4792 7.70272 22.818 6.04152 22.818 3.99219Z" fill="#04005E"/>
<path fill-rule="evenodd" clip-rule="evenodd" d="M30.2389 3.99414C30.2389 6.04347 28.5776 7.70467 26.5283 7.70467C28.5776 7.70467 30.2389 9.36588 30.2389 11.4152C30.2389 9.36588 31.9001 7.70467 33.9494 7.70467C31.9001 7.70467 30.2389 6.04347 30.2389 3.99414Z" fill="#04005E"/>
<path fill-rule="evenodd" clip-rule="evenodd" d="M45.0812 3.99219C45.0812 6.04152 43.42 7.70272 41.3707 7.70272C43.42 7.70272 45.0812 9.36393 45.0812 11.4133C45.0812 9.36393 46.7424 7.70272 48.7918 7.70272C46.7424 7.70272 45.0812 6.04152 45.0812 3.99219Z" fill="#04005E"/>
<rect x="0.554688" y="11.4141" width="7.42107" height="29.6843" fill="#04005E"/>
<rect x="45.0811" y="11.4141" width="7.42107" height="29.6843" fill="#04005E"/>
<rect x="19.2451" y="0.28125" width="7.42107" height="7.42107" transform="rotate(90 19.2451 0.28125)" fill="#04005E"/>
<rect x="42.0576" y="0.28125" width="7.42107" height="7.42107" transform="rotate(90 42.0576 0.28125)" fill="#04005E"/>
<circle cx="11.6861" cy="3.99178" r="3.71053" fill="#04005E"/>
<circle cx="41.3707" cy="3.99178" r="3.71053" fill="#04005E"/>
<circle cx="33.9498" cy="3.99178" r="3.71053" fill="#04005E"/>
<circle cx="4.26522" cy="11.4137" r="3.71053" fill="#04005E"/>
<circle cx="48.7916" cy="11.4137" r="3.71053" fill="#04005E"/>
<circle cx="48.7916" cy="41.0973" r="3.71053" fill="#04005E"/>
<circle cx="4.26522" cy="41.0973" r="3.71053" fill="#04005E"/>
<circle cx="19.107" cy="3.99178" r="3.71053" fill="#04005E"/>
<circle cx="26.5279" cy="11.4137" r="3.71053" fill="#04005E"/>
<path d="M300.558 7.42187C298.509 7.42187 296.848 9.49845 296.848 12.06L296.848 39.889C296.848 42.4506 298.509 44.5272 300.558 44.5272C302.607 44.5272 304.269 42.4506 304.269 39.889L304.269 12.06C304.269 9.49845 302.607 7.42187 300.558 7.42187Z" fill="#04005E"/>
<path d="M304.269 3.71134C304.269 5.76061 305.93 7.42187 307.979 7.42187L337.663 7.42187C339.713 7.42187 341.374 5.76061 341.374 3.71134C341.374 1.66207 339.713 0.00080514 337.663 0.00080532L307.979 0.000807915C305.93 0.000808094 304.269 1.66207 304.269 3.71134Z" fill="#04005E"/>
<path d="M304.269 25.977C304.269 28.0262 305.93 29.6875 307.979 29.6875L337.663 29.6875C339.713 29.6875 341.374 28.0262 341.374 25.977C341.374 23.9277 339.713 22.2664 337.663 22.2664L307.979 22.2664C305.93 22.2664 304.269 23.9277 304.269 25.977Z" fill="#04005E"/>
<path d="M341.344 18.5555C341.461 21.7438 338.762 22.3576 337.397 22.266L341.344 25.9766C341.694 22.8982 344.12 22.2202 345.29 22.266L341.344 18.5555Z" fill="#04005E"/>
<path d="M304.221 25.9754C304.337 29.1637 301.639 29.7776 300.274 29.686L304.221 33.3965C304.571 30.3181 306.997 29.6401 308.167 29.686L304.221 25.9754Z" fill="#04005E"/>
<path d="M304.229 3.7137C304.346 6.90201 301.647 7.51585 300.283 7.42423L304.229 11.1348C304.58 8.0564 307.006 7.37842 308.175 7.42423L304.229 3.7137Z" fill="#04005E"/>
<path d="M341.413 3.7137C341.296 6.90201 343.995 7.51585 345.359 7.42423L341.413 11.1348C341.062 8.0564 338.636 7.37842 337.467 7.42423L341.413 3.7137Z" fill="#04005E"/>
<path d="M304.269 18.5555C304.152 21.7438 306.851 22.3576 308.215 22.266L304.269 25.9766C303.918 22.8982 301.492 22.2202 300.323 22.266L304.269 18.5555Z" fill="#04005E"/>
<circle r="3.71053" transform="matrix(-1 1.74846e-07 1.74846e-07 1 337.663 25.9781)" fill="#04005E"/>
<circle r="3.71053" transform="matrix(-1 1.74846e-07 1.74846e-07 1 345.084 11.1324)" fill="#04005E"/>
<circle r="3.71053" transform="matrix(-1 1.74846e-07 1.74846e-07 1 345.084 18.5562)" fill="#04005E"/>
<rect width="7.42107" height="7.42107" transform="matrix(-1 1.74846e-07 1.74846e-07 1 348.795 10.9941)" fill="#04005E"/>
<path d="M581.734 7.69922C583.783 7.69922 585.444 9.7758 585.444 12.3374L585.444 40.1664C585.444 42.728 583.783 44.8046 581.734 44.8045C579.685 44.8045 578.023 42.728 578.023 40.1664L578.023 12.3374C578.023 9.7758 579.685 7.69922 581.734 7.69922Z" fill="#04005E"/>
<path d="M578.023 3.98869C578.023 6.03796 576.362 7.69922 574.313 7.69922L544.629 7.69922C542.579 7.69922 540.918 6.03795 540.918 3.98868C540.918 1.93941 542.579 0.278149 544.629 0.278149L574.313 0.278152C576.362 0.278152 578.023 1.93941 578.023 3.98869Z" fill="#04005E"/>
<path d="M578.023 26.2543C578.023 28.3036 576.362 29.9648 574.313 29.9648L544.629 29.9648C542.579 29.9648 540.918 28.3036 540.918 26.2543C540.918 24.205 542.579 22.5438 544.629 22.5438L574.313 22.5438C576.362 22.5438 578.023 24.205 578.023 26.2543Z" fill="#04005E"/>
<path d="M540.949 18.8316C540.832 22.0199 543.531 22.6337 544.895 22.5421L540.949 26.2526C540.598 23.1743 538.172 22.4963 537.003 22.5421L540.949 18.8316Z" fill="#04005E"/>
<path d="M578.024 26.2528C577.907 29.4411 580.606 30.0549 581.97 29.9633L578.024 33.6738C577.673 30.5955 575.247 29.9175 574.077 29.9633L578.024 26.2528Z" fill="#04005E"/>
<path d="M578.063 3.99104C577.946 7.17935 580.645 7.79319 582.009 7.70158L578.063 11.4121C577.712 8.33374 575.286 7.65577 574.117 7.70158L578.063 3.99104Z" fill="#04005E"/>
<path d="M540.879 3.98952C540.996 7.17783 538.297 7.79167 536.933 7.70006L540.879 11.4106C541.23 8.33222 543.656 7.65425 544.825 7.70006L540.879 3.98952Z" fill="#04005E"/>
<path d="M548.339 26.2528C548.456 29.4411 545.757 30.0549 544.393 29.9633L548.339 33.6738C548.69 30.5955 551.116 29.9175 552.285 29.9633L548.339 26.2528Z" fill="#04005E"/>
<path d="M578.063 18.8316C578.18 22.0199 575.481 22.6337 574.116 22.5421L578.063 26.2526C578.413 23.1743 580.84 22.4963 582.009 22.5421L578.063 18.8316Z" fill="#04005E"/>
<path d="M540.918 33.6746C541.035 36.8629 538.336 37.4768 536.972 37.3852L540.918 41.0957C541.269 38.0173 543.695 37.3394 544.864 37.3852L540.918 33.6746Z" fill="#04005E"/>
<circle cx="544.628" cy="26.2555" r="3.71053" fill="#04005E"/>
<circle cx="537.208" cy="41.0933" r="3.71053" fill="#04005E"/>
<circle cx="544.628" cy="33.6754" r="3.71053" fill="#04005E"/>
<circle cx="537.208" cy="11.4098" r="3.71053" fill="#04005E"/>
<circle cx="537.208" cy="18.8336" r="3.71053" fill="#04005E"/>
<rect x="533.497" y="11.2715" width="7.42107" height="7.42107" fill="#04005E"/>
<rect x="540.918" y="26.1172" width="7.42107" height="7.42107" fill="#04005E"/>
<rect x="423.006" y="44.5293" width="7.42107" height="44.5264" rx="3.71054" transform="rotate(-180 423.006 44.5293)" fill="#04005E"/>
<rect x="466.846" y="44.5293" width="7.42107" height="22.2632" rx="3.71053" transform="rotate(-180 466.846 44.5293)" fill="#04005E"/>
<rect x="423.006" y="22.2695" width="7.42106" height="36.2808" rx="3.71053" transform="rotate(-90 423.006 22.2695)" fill="#04005E"/>
<rect x="466.846" y="14.8457" width="7.42107" height="14.8421" rx="3.71053" transform="rotate(-180 466.846 14.8457)" fill="#04005E"/>
<path d="M459.424 25.9777C459.534 22.7894 456.997 22.1756 455.714 22.2672L459.424 18.5566C459.754 21.635 462.036 22.313 463.135 22.2672L459.424 25.9777Z" fill="#04005E"/>
<path d="M423.006 18.5578C423.116 15.3695 420.579 14.7556 419.296 14.8473L423.006 11.1367C423.336 14.2151 425.618 14.8931 426.717 14.8473L423.006 18.5578Z" fill="#04005E"/>
<path d="M459.425 18.5578C459.315 15.3695 461.853 14.7556 463.136 14.8473L459.425 11.1367C459.095 14.2151 456.814 14.8931 455.715 14.8473L459.425 18.5578Z" fill="#04005E"/>
<path d="M423.007 25.9789C422.897 22.7905 425.435 22.1767 426.718 22.2683L423.007 18.5578C422.677 21.6362 420.396 22.3141 419.296 22.2683L423.007 25.9789Z" fill="#04005E"/>
<path d="M455.714 22.2695C453.665 22.2695 452.004 20.6083 452.004 18.559C452.004 16.5097 453.665 14.8485 455.714 14.8485C457.764 14.8485 459.425 16.5097 459.425 18.559C459.425 20.6083 457.764 22.2695 455.714 22.2695Z" fill="#04005E"/>
<rect x="459.425" y="14.8457" width="7.42107" height="7.42107" rx="3.71053" transform="rotate(-90 459.425 14.8457)" fill="#04005E"/>
<path d="M126.438 3.99178C126.438 1.94251 128.099 0.28125 130.148 0.28125H159.832C161.882 0.28125 163.543 1.94251 163.543 3.99178C163.543 6.04105 161.882 7.70232 159.832 7.70232H130.148C128.099 7.70232 126.438 6.04105 126.438 3.99178Z" fill="#04005E"/>
<path d="M122.727 37.3867C120.678 37.3867 119.017 35.7255 119.017 33.6762V11.413C119.017 9.36371 120.678 7.70245 122.727 7.70245C124.776 7.70245 126.438 9.36371 126.438 11.413V33.6762C126.438 35.7255 124.776 37.3867 122.727 37.3867Z" fill="#04005E"/>
<path d="M126.438 41.0973C126.438 39.048 128.099 37.3867 130.148 37.3867H159.832C161.882 37.3867 163.543 39.048 163.543 41.0973C163.543 43.1465 161.882 44.8078 159.832 44.8078H130.148C128.099 44.8078 126.438 43.1465 126.438 41.0973Z" fill="#04005E"/>
<path d="M163.543 11.4133C163.66 8.22495 160.961 7.6111 159.597 7.70272L163.543 3.99219C163.894 7.07056 166.32 7.74853 167.489 7.70272L163.543 11.4133Z" fill="#04005E"/>
<path d="M126.398 41.0949C126.515 37.9066 123.816 37.2927 122.452 37.3844L126.398 33.6738C126.749 36.7522 129.175 37.4302 130.344 37.3844L126.398 41.0949Z" fill="#04005E"/>
<path d="M163.582 41.0949C163.465 37.9066 166.164 37.2927 167.528 37.3844L163.582 33.6738C163.231 36.7522 160.805 37.4302 159.636 37.3844L163.582 41.0949Z" fill="#04005E"/>
<path d="M126.535 11.4133C126.418 8.22495 129.117 7.6111 130.481 7.70272L126.535 3.99219C126.185 7.07056 123.758 7.74853 122.589 7.70272L126.535 11.4133Z" fill="#04005E"/>
<circle cx="167.253" cy="11.4125" r="3.71053" transform="rotate(-180 167.253 11.4125)" fill="#04005E"/>
<circle cx="167.253" cy="33.6762" r="3.71053" transform="rotate(-180 167.253 33.6762)" fill="#04005E"/>
<path d="M363.638 3.71249C363.638 1.66322 365.299 0.00195312 367.348 0.00195312H397.032C399.082 0.00195312 400.743 1.66322 400.743 3.71249C400.743 5.76176 399.082 7.42302 397.032 7.42302H367.348C365.299 7.42302 363.638 5.76176 363.638 3.71249Z" fill="#04005E"/>
<path d="M359.927 37.1074C357.878 37.1074 356.217 35.4462 356.217 33.3969V11.1337C356.217 9.08442 357.878 7.42315 359.927 7.42315C361.977 7.42315 363.638 9.08442 363.638 11.1337V33.3969C363.638 35.4462 361.977 37.1074 359.927 37.1074Z" fill="#04005E"/>
<path d="M363.638 40.818C363.638 38.7687 365.299 37.1074 367.348 37.1074H397.032C399.082 37.1074 400.743 38.7687 400.743 40.818C400.743 42.8672 399.082 44.5285 397.032 44.5285H367.348C365.299 44.5285 363.638 42.8672 363.638 40.818Z" fill="#04005E"/>
<path d="M400.743 11.134C400.86 7.94565 398.161 7.33181 396.797 7.42343L400.743 3.71289C401.094 6.79126 403.52 7.46923 404.689 7.42343L400.743 11.134Z" fill="#04005E"/>
<path d="M363.598 40.8156C363.715 37.6273 361.016 37.0134 359.652 37.1051L363.598 33.3945C363.949 36.4729 366.375 37.1509 367.545 37.1051L363.598 40.8156Z" fill="#04005E"/>
<path d="M400.782 40.8156C400.665 37.6273 403.364 37.0134 404.729 37.1051L400.782 33.3945C400.432 36.4729 398.005 37.1509 396.836 37.1051L400.782 40.8156Z" fill="#04005E"/>
<path d="M363.736 11.134C363.619 7.94565 366.318 7.33181 367.682 7.42343L363.736 3.71289C363.385 6.79126 360.959 7.46923 359.789 7.42343L363.736 11.134Z" fill="#04005E"/>
<circle cx="404.454" cy="11.1332" r="3.71053" transform="rotate(-180 404.454 11.1332)" fill="#04005E"/>
<circle cx="404.454" cy="33.3969" r="3.71053" transform="rotate(-180 404.454 33.3969)" fill="#04005E"/>
<path d="M201.198 11.4093C201.315 8.22104 198.616 7.6072 197.252 7.69882L201.198 3.98828C201.549 7.06665 203.975 7.74462 205.144 7.69882L201.198 11.4093Z" fill="#04005E"/>
<path d="M208.618 11.4093C208.501 8.22104 211.2 7.6072 212.564 7.69882L208.618 3.98828C208.268 7.06665 205.841 7.74462 204.672 7.69882L208.618 11.4093Z" fill="#04005E"/>
<rect x="208.619" y="41.1504" width="7.42107" height="30.3439" transform="rotate(-180 208.619 41.1504)" fill="#04005E"/>
<ellipse cx="204.909" cy="41.289" rx="3.71053" ry="3.79299" transform="rotate(-180 204.909 41.289)" fill="#04005E"/>
<ellipse cx="204.909" cy="10.9453" rx="3.71053" ry="3.79299" transform="rotate(-180 204.909 10.9453)" fill="#04005E"/>
<rect x="178.385" y="7.70312" width="7.42106" height="51.9475" rx="3.71053" transform="rotate(-90 178.385 7.70312)" fill="#04005E"/>
</svg>
