<svg width="484" height="116" viewBox="0 0 484 116" fill="none" xmlns="http://www.w3.org/2000/svg">
<path d="M196.636 76.3491C193.827 76.3491 192.422 78.6314 192.422 80.5626L188.911 77.0514C191.369 77.0514 193.125 74.9446 193.125 72.8379L196.636 76.3491Z" fill="#04005E"/>
<path d="M230.625 72.8398C230.625 75.6487 232.908 77.0532 234.839 77.0532L231.328 80.5645C231.328 78.1066 229.221 76.3727 227.114 76.3727L228.87 74.6171L230.625 72.8398Z" fill="#04005E"/>
<path d="M234.839 84.1108C232.03 84.1108 230.625 86.3931 230.625 88.3243L227.114 84.8131C229.572 84.8131 231.328 82.7063 231.328 80.5996L234.839 84.1108Z" fill="#04005E"/>
<path d="M234.86 107.248C232.051 107.248 230.647 109.53 230.647 111.461L227.136 107.95C229.594 107.95 231.349 105.843 231.349 103.736L234.86 107.248Z" fill="#04005E"/>
<path d="M196.636 91.7983C193.827 91.7983 192.422 94.0806 192.422 96.0118L188.911 92.5006C191.369 92.5006 193.125 90.3938 193.125 88.2871L196.636 91.7983Z" fill="#04005E"/>
<path d="M193.125 111.463C193.125 108.654 190.842 107.25 188.911 107.25L192.422 103.738C192.422 106.196 194.529 107.952 196.636 107.952L193.125 111.463Z" fill="#04005E"/>
<path d="M193.125 88.2891C193.125 85.4802 190.842 84.0757 188.911 84.0757L192.422 80.5645C192.422 83.0223 194.529 84.7779 196.636 84.7779L193.125 88.2891Z" fill="#04005E"/>
<path d="M200.147 72.8413C200.147 74.7805 198.575 76.3525 196.636 76.3525C194.697 76.3525 193.125 74.7805 193.125 72.8413C193.125 70.9021 194.697 69.3301 196.636 69.3301C198.575 69.3301 200.147 70.9021 200.147 72.8413Z" fill="#04005E"/>
<path fill-rule="evenodd" clip-rule="evenodd" d="M196.636 75.2255C197.953 75.2255 199.02 74.158 199.02 72.8413C199.02 71.5246 197.953 70.4571 196.636 70.4571C195.319 70.4571 194.252 71.5246 194.252 72.8413C194.252 74.158 195.319 75.2255 196.636 75.2255ZM196.636 76.3525C198.575 76.3525 200.147 74.7805 200.147 72.8413C200.147 70.9021 198.575 69.3301 196.636 69.3301C194.697 69.3301 193.125 70.9021 193.125 72.8413C193.125 74.7805 194.697 76.3525 196.636 76.3525Z" fill="#04005E"/>
<path d="M207.521 72.8413C207.521 74.7805 205.949 76.3525 204.01 76.3525C202.071 76.3525 200.499 74.7805 200.499 72.8413C200.499 70.9021 202.071 69.3301 204.01 69.3301C205.949 69.3301 207.521 70.9021 207.521 72.8413Z" fill="#04005E"/>
<path fill-rule="evenodd" clip-rule="evenodd" d="M204.01 75.2255C205.327 75.2255 206.394 74.158 206.394 72.8413C206.394 71.5246 205.327 70.4571 204.01 70.4571C202.694 70.4571 201.626 71.5246 201.626 72.8413C201.626 74.158 202.694 75.2255 204.01 75.2255ZM204.01 76.3525C205.949 76.3525 207.521 74.7805 207.521 72.8413C207.521 70.9021 205.949 69.3301 204.01 69.3301C202.071 69.3301 200.499 70.9021 200.499 72.8413C200.499 74.7805 202.071 76.3525 204.01 76.3525Z" fill="#04005E"/>
<path d="M215.245 72.8413C215.245 74.7805 213.673 76.3525 211.734 76.3525C209.795 76.3525 208.223 74.7805 208.223 72.8413C208.223 70.9021 209.795 69.3301 211.734 69.3301C213.673 69.3301 215.245 70.9021 215.245 72.8413Z" fill="#04005E"/>
<path fill-rule="evenodd" clip-rule="evenodd" d="M211.734 75.2255C213.051 75.2255 214.118 74.158 214.118 72.8413C214.118 71.5246 213.051 70.4571 211.734 70.4571C210.417 70.4571 209.35 71.5246 209.35 72.8413C209.35 74.158 210.417 75.2255 211.734 75.2255ZM211.734 76.3525C213.673 76.3525 215.245 74.7805 215.245 72.8413C215.245 70.9021 213.673 69.3301 211.734 69.3301C209.795 69.3301 208.223 70.9021 208.223 72.8413C208.223 74.7805 209.795 76.3525 211.734 76.3525Z" fill="#04005E"/>
<path d="M230.646 72.8521C230.646 74.7973 229.069 76.3742 227.124 76.3742C225.178 76.3742 223.602 74.7973 223.602 72.8521C223.602 70.907 225.178 69.3301 227.124 69.3301C229.069 69.3301 230.646 70.907 230.646 72.8521Z" fill="#04005E"/>
<path fill-rule="evenodd" clip-rule="evenodd" d="M227.124 75.2471C228.446 75.2471 229.519 74.1748 229.519 72.8521C229.519 71.5294 228.446 70.4571 227.124 70.4571C225.801 70.4571 224.729 71.5294 224.729 72.8521C224.729 74.1748 225.801 75.2471 227.124 75.2471ZM227.124 76.3742C229.069 76.3742 230.646 74.7973 230.646 72.8521C230.646 70.907 229.069 69.3301 227.124 69.3301C225.178 69.3301 223.602 70.907 223.602 72.8521C223.602 74.7973 225.178 76.3742 227.124 76.3742Z" fill="#04005E"/>
<path d="M238.371 80.5982C238.371 82.5434 236.794 84.1203 234.849 84.1203C232.904 84.1203 231.327 82.5434 231.327 80.5982C231.327 78.653 232.904 77.0762 234.849 77.0762C236.794 77.0762 238.371 78.653 238.371 80.5982Z" fill="#04005E"/>
<path fill-rule="evenodd" clip-rule="evenodd" d="M234.849 82.9932C236.172 82.9932 237.244 81.9209 237.244 80.5982C237.244 79.2755 236.172 78.2032 234.849 78.2032C233.526 78.2032 232.454 79.2755 232.454 80.5982C232.454 81.9209 233.526 82.9932 234.849 82.9932ZM234.849 84.1203C236.794 84.1203 238.371 82.5434 238.371 80.5982C238.371 78.653 236.794 77.0762 234.849 77.0762C232.904 77.0762 231.327 78.653 231.327 80.5982C231.327 82.5434 232.904 84.1203 234.849 84.1203Z" fill="#04005E"/>
<path d="M238.372 88.3569C238.372 90.2961 236.8 91.8681 234.861 91.8681C232.922 91.8681 231.35 90.2961 231.35 88.3569C231.35 86.4177 232.922 84.8457 234.861 84.8457C236.8 84.8457 238.372 86.4177 238.372 88.3569Z" fill="#04005E"/>
<path fill-rule="evenodd" clip-rule="evenodd" d="M234.861 90.7411C236.178 90.7411 237.245 89.6737 237.245 88.3569C237.245 87.0402 236.178 85.9728 234.861 85.9728C233.544 85.9728 232.477 87.0402 232.477 88.3569C232.477 89.6737 233.544 90.7411 234.861 90.7411ZM234.861 91.8681C236.8 91.8681 238.372 90.2961 238.372 88.3569C238.372 86.4177 236.8 84.8457 234.861 84.8457C232.922 84.8457 231.35 86.4177 231.35 88.3569C231.35 90.2961 232.922 91.8681 234.861 91.8681Z" fill="#04005E"/>
<path d="M192.423 80.564C192.423 82.5031 190.851 84.0752 188.912 84.0752C186.972 84.0752 185.4 82.5031 185.4 80.564C185.4 78.6248 186.972 77.0527 188.912 77.0527C190.851 77.0527 192.423 78.6248 192.423 80.564Z" fill="#04005E"/>
<path fill-rule="evenodd" clip-rule="evenodd" d="M188.912 82.9481C190.228 82.9481 191.296 81.8807 191.296 80.564C191.296 79.2472 190.228 78.1798 188.912 78.1798C187.595 78.1798 186.527 79.2472 186.527 80.564C186.527 81.8807 187.595 82.9481 188.912 82.9481ZM188.912 84.0752C190.851 84.0752 192.423 82.5031 192.423 80.564C192.423 78.6248 190.851 77.0527 188.912 77.0527C186.972 77.0527 185.4 78.6248 185.4 80.564C185.4 82.5031 186.972 84.0752 188.912 84.0752Z" fill="#04005E"/>
<path d="M192.423 88.2905C192.423 90.2297 190.851 91.8017 188.912 91.8017C186.972 91.8017 185.4 90.2297 185.4 88.2905C185.4 86.3513 186.972 84.7793 188.912 84.7793C190.851 84.7793 192.423 86.3513 192.423 88.2905Z" fill="#04005E"/>
<path fill-rule="evenodd" clip-rule="evenodd" d="M188.912 90.6747C190.228 90.6747 191.296 89.6073 191.296 88.2905C191.296 86.9738 190.228 85.9064 188.912 85.9064C187.595 85.9064 186.527 86.9738 186.527 88.2905C186.527 89.6073 187.595 90.6747 188.912 90.6747ZM188.912 91.8017C190.851 91.8017 192.423 90.2297 192.423 88.2905C192.423 86.3513 190.851 84.7793 188.912 84.7793C186.972 84.7793 185.4 86.3513 185.4 88.2905C185.4 90.2297 186.972 91.8017 188.912 91.8017Z" fill="#04005E"/>
<path d="M192.423 95.314C192.423 97.2531 190.851 98.8252 188.912 98.8252C186.972 98.8252 185.4 97.2531 185.4 95.314C185.4 93.3748 186.972 91.8027 188.912 91.8027C190.851 91.8027 192.423 93.3748 192.423 95.314Z" fill="#04005E"/>
<path fill-rule="evenodd" clip-rule="evenodd" d="M188.912 97.6981C190.228 97.6981 191.296 96.6307 191.296 95.314C191.296 93.9972 190.228 92.9298 188.912 92.9298C187.595 92.9298 186.527 93.9972 186.527 95.314C186.527 96.6307 187.595 97.6981 188.912 97.6981ZM188.912 98.8252C190.851 98.8252 192.423 97.2531 192.423 95.314C192.423 93.3748 190.851 91.8027 188.912 91.8027C186.972 91.8027 185.4 93.3748 185.4 95.314C185.4 97.2531 186.972 98.8252 188.912 98.8252Z" fill="#04005E"/>
<path d="M192.423 103.74C192.423 105.679 190.851 107.251 188.912 107.251C186.972 107.251 185.4 105.679 185.4 103.74C185.4 101.801 186.972 100.229 188.912 100.229C190.851 100.229 192.423 101.801 192.423 103.74Z" fill="#04005E"/>
<path fill-rule="evenodd" clip-rule="evenodd" d="M188.912 106.124C190.228 106.124 191.296 105.056 191.296 103.74C191.296 102.423 190.228 101.356 188.912 101.356C187.595 101.356 186.527 102.423 186.527 103.74C186.527 105.056 187.595 106.124 188.912 106.124ZM188.912 107.251C190.851 107.251 192.423 105.679 192.423 103.74C192.423 101.801 190.851 100.229 188.912 100.229C186.972 100.229 185.4 101.801 185.4 103.74C185.4 105.679 186.972 107.251 188.912 107.251Z" fill="#04005E"/>
<path d="M200.147 111.462C200.147 113.402 198.575 114.974 196.636 114.974C194.697 114.974 193.125 113.402 193.125 111.462C193.125 109.523 194.697 107.951 196.636 107.951C198.575 107.951 200.147 109.523 200.147 111.462Z" fill="#04005E"/>
<path fill-rule="evenodd" clip-rule="evenodd" d="M196.636 113.847C197.953 113.847 199.02 112.779 199.02 111.462C199.02 110.146 197.953 109.078 196.636 109.078C195.319 109.078 194.252 110.146 194.252 111.462C194.252 112.779 195.319 113.847 196.636 113.847ZM196.636 114.974C198.575 114.974 200.147 113.402 200.147 111.462C200.147 109.523 198.575 107.951 196.636 107.951C194.697 107.951 193.125 109.523 193.125 111.462C193.125 113.402 194.697 114.974 196.636 114.974Z" fill="#04005E"/>
<path d="M207.521 111.462C207.521 113.402 205.949 114.974 204.01 114.974C202.071 114.974 200.499 113.402 200.499 111.462C200.499 109.523 202.071 107.951 204.01 107.951C205.949 107.951 207.521 109.523 207.521 111.462Z" fill="#04005E"/>
<path fill-rule="evenodd" clip-rule="evenodd" d="M204.01 113.847C205.327 113.847 206.394 112.779 206.394 111.462C206.394 110.146 205.327 109.078 204.01 109.078C202.694 109.078 201.626 110.146 201.626 111.462C201.626 112.779 202.694 113.847 204.01 113.847ZM204.01 114.974C205.949 114.974 207.521 113.402 207.521 111.462C207.521 109.523 205.949 107.951 204.01 107.951C202.071 107.951 200.499 109.523 200.499 111.462C200.499 113.402 202.071 114.974 204.01 114.974Z" fill="#04005E"/>
<path d="M215.245 111.462C215.245 113.402 213.673 114.974 211.734 114.974C209.795 114.974 208.223 113.402 208.223 111.462C208.223 109.523 209.795 107.951 211.734 107.951C213.673 107.951 215.245 109.523 215.245 111.462Z" fill="#04005E"/>
<path fill-rule="evenodd" clip-rule="evenodd" d="M211.734 113.847C213.051 113.847 214.118 112.779 214.118 111.462C214.118 110.146 213.051 109.078 211.734 109.078C210.417 109.078 209.35 110.146 209.35 111.462C209.35 112.779 210.417 113.847 211.734 113.847ZM211.734 114.974C213.673 114.974 215.245 113.402 215.245 111.462C215.245 109.523 213.673 107.951 211.734 107.951C209.795 107.951 208.223 109.523 208.223 111.462C208.223 113.402 209.795 114.974 211.734 114.974Z" fill="#04005E"/>
<path d="M230.647 111.462C230.647 113.402 229.075 114.974 227.136 114.974C225.197 114.974 223.625 113.402 223.625 111.462C223.625 109.523 225.197 107.951 227.136 107.951C229.075 107.951 230.647 109.523 230.647 111.462Z" fill="#04005E"/>
<path fill-rule="evenodd" clip-rule="evenodd" d="M227.136 113.847C228.453 113.847 229.52 112.779 229.52 111.462C229.52 110.146 228.453 109.078 227.136 109.078C225.819 109.078 224.752 110.146 224.752 111.462C224.752 112.779 225.819 113.847 227.136 113.847ZM227.136 114.974C229.075 114.974 230.647 113.402 230.647 111.462C230.647 109.523 229.075 107.951 227.136 107.951C225.197 107.951 223.625 109.523 223.625 111.462C223.625 113.402 225.197 114.974 227.136 114.974Z" fill="#04005E"/>
<path d="M238.372 103.74C238.372 105.679 236.8 107.251 234.861 107.251C232.922 107.251 231.35 105.679 231.35 103.74C231.35 101.801 232.922 100.229 234.861 100.229C236.8 100.229 238.372 101.801 238.372 103.74Z" fill="#04005E"/>
<path fill-rule="evenodd" clip-rule="evenodd" d="M234.861 106.124C236.178 106.124 237.245 105.056 237.245 103.74C237.245 102.423 236.178 101.356 234.861 101.356C233.544 101.356 232.477 102.423 232.477 103.74C232.477 105.056 233.544 106.124 234.861 106.124ZM234.861 107.251C236.8 107.251 238.372 105.679 238.372 103.74C238.372 101.801 236.8 100.229 234.861 100.229C232.922 100.229 231.35 101.801 231.35 103.74C231.35 105.679 232.922 107.251 234.861 107.251Z" fill="#04005E"/>
<path d="M207.521 88.2905C207.521 90.2297 205.949 91.8017 204.01 91.8017C202.071 91.8017 200.499 90.2297 200.499 88.2905C200.499 86.3513 202.071 84.7793 204.01 84.7793C205.949 84.7793 207.521 86.3513 207.521 88.2905Z" fill="#04005E"/>
<path fill-rule="evenodd" clip-rule="evenodd" d="M204.01 90.6747C205.327 90.6747 206.394 89.6073 206.394 88.2905C206.394 86.9738 205.327 85.9064 204.01 85.9064C202.694 85.9064 201.626 86.9738 201.626 88.2905C201.626 89.6073 202.694 90.6747 204.01 90.6747ZM204.01 91.8017C205.949 91.8017 207.521 90.2297 207.521 88.2905C207.521 86.3513 205.949 84.7793 204.01 84.7793C202.071 84.7793 200.499 86.3513 200.499 88.2905C200.499 90.2297 202.071 91.8017 204.01 91.8017Z" fill="#04005E"/>
<path d="M200.147 88.2905C200.147 90.2297 198.575 91.8017 196.636 91.8017C194.697 91.8017 193.125 90.2297 193.125 88.2905C193.125 86.3513 194.697 84.7793 196.636 84.7793C198.575 84.7793 200.147 86.3513 200.147 88.2905Z" fill="#04005E"/>
<path fill-rule="evenodd" clip-rule="evenodd" d="M196.636 90.6747C197.953 90.6747 199.02 89.6073 199.02 88.2905C199.02 86.9738 197.953 85.9064 196.636 85.9064C195.319 85.9064 194.252 86.9738 194.252 88.2905C194.252 89.6073 195.319 90.6747 196.636 90.6747ZM196.636 91.8017C198.575 91.8017 200.147 90.2297 200.147 88.2905C200.147 86.3513 198.575 84.7793 196.636 84.7793C194.697 84.7793 193.125 86.3513 193.125 88.2905C193.125 90.2297 194.697 91.8017 196.636 91.8017Z" fill="#04005E"/>
<path d="M196.671 69.3301H227.101V76.3742H196.671V69.3301Z" fill="#04005E"/>
<path d="M188.781 84.8262H234.709V91.8703H188.781V84.8262Z" fill="#04005E"/>
<path d="M238.371 80.916L238.371 88.2896L231.349 88.2896L231.349 80.916L238.371 80.916Z" fill="#04005E"/>
<path d="M196.671 107.932H227.101V114.976H196.671V107.932Z" fill="#04005E"/>
<path d="M192.423 80.5645L192.423 103.738L185.4 103.738L185.4 80.5645L192.423 80.5645Z" fill="#04005E"/>
<path fill-rule="evenodd" clip-rule="evenodd" d="M192.141 103.457L192.141 80.8462L185.682 80.8462L185.682 103.457L192.141 103.457ZM192.423 80.5645L185.4 80.5645L185.4 103.738L192.423 103.738L192.423 80.5645Z" fill="#04005E"/>
<path d="M438.142 73.1339C438.142 71.0331 439.845 69.3301 441.945 69.3301H472.376C474.477 69.3301 476.18 71.0331 476.18 73.1339C476.18 75.2347 474.477 76.9377 472.376 76.9377H441.945C439.845 76.9377 438.142 75.2347 438.142 73.1339Z" fill="#04005E"/>
<path d="M434.339 107.369C432.238 107.369 430.535 105.666 430.535 103.565V80.7425C430.535 78.6417 432.238 76.9387 434.339 76.9387C436.44 76.9387 438.143 78.6417 438.143 80.7425V103.565C438.143 105.666 436.44 107.369 434.339 107.369Z" fill="#04005E"/>
<path d="M438.142 111.173C438.142 109.072 439.845 107.369 441.945 107.369H472.376C474.477 107.369 476.18 109.072 476.18 111.173C476.18 113.274 474.477 114.977 472.376 114.977H441.945C439.845 114.977 438.142 113.274 438.142 111.173Z" fill="#04005E"/>
<path d="M438.142 88.3487C438.142 86.2479 439.845 84.5449 441.945 84.5449H472.376C474.477 84.5449 476.18 86.2479 476.18 88.3487C476.18 90.4495 474.477 92.1525 472.376 92.1525H441.945C439.845 92.1525 438.142 90.4495 438.142 88.3487Z" fill="#04005E"/>
<path d="M476.18 80.7385C476.3 77.47 473.533 76.8407 472.135 76.9347L476.18 73.1309C476.54 76.2866 479.027 76.9816 480.225 76.9347L476.18 80.7385Z" fill="#04005E"/>
<path d="M476.149 95.9533C476.269 92.6849 473.502 92.0556 472.104 92.1495L476.149 88.3457C476.508 91.5015 478.996 92.1965 480.194 92.1495L476.149 95.9533Z" fill="#04005E"/>
<path d="M438.102 111.172C438.222 107.904 435.455 107.274 434.057 107.368L438.102 103.564C438.462 106.72 440.949 107.415 442.147 107.368L438.102 111.172Z" fill="#04005E"/>
<path d="M476.22 111.172C476.1 107.904 478.867 107.274 480.266 107.368L476.22 103.564C475.861 106.72 473.374 107.415 472.175 107.368L476.22 111.172Z" fill="#04005E"/>
<path d="M476.17 88.3478C476.05 85.0794 478.816 84.4501 480.215 84.544L476.17 80.7402C475.81 83.896 473.323 84.591 472.124 84.544L476.17 88.3478Z" fill="#04005E"/>
<path d="M476.18 80.7411C476.18 78.6403 477.883 76.9373 479.984 76.9373C482.085 76.9373 483.788 78.6403 483.788 80.7411C483.788 82.8419 482.085 84.5449 479.984 84.5449C477.883 84.5449 476.18 82.8419 476.18 80.7411Z" fill="#04005E"/>
<path d="M468.572 88.3466C468.572 86.2458 470.275 84.5428 472.376 84.5428C474.477 84.5428 476.18 86.2458 476.18 88.3466C476.18 90.4474 474.477 92.1504 472.376 92.1504C470.275 92.1504 468.572 90.4474 468.572 88.3466Z" fill="#04005E"/>
<path d="M476.18 103.565C476.18 101.465 477.883 99.7615 479.984 99.7615C482.085 99.7615 483.788 101.465 483.788 103.565C483.788 105.666 482.085 107.369 479.984 107.369C477.883 107.369 476.18 105.666 476.18 103.565Z" fill="#04005E"/>
<path d="M476.18 95.956C476.18 93.8552 477.883 92.1522 479.984 92.1522C482.085 92.1522 483.788 93.8552 483.788 95.956C483.788 98.0567 482.085 99.7598 479.984 99.7598C477.883 99.7598 476.18 98.0567 476.18 95.956Z" fill="#04005E"/>
<path d="M483.788 103.705L476.18 103.705L476.18 96.0975L483.788 96.0975L483.788 103.705Z" fill="#04005E"/>
<path d="M476.22 111.172C476.1 107.904 478.867 107.274 480.266 107.368L476.22 103.564C475.861 106.72 473.374 107.415 472.175 107.368L476.22 111.172Z" fill="#04005E"/>
<path d="M468.572 88.3466C468.572 86.2458 470.275 84.5428 472.376 84.5428C474.477 84.5428 476.18 86.2458 476.18 88.3466C476.18 90.4474 474.477 92.1504 472.376 92.1504C470.275 92.1504 468.572 90.4474 468.572 88.3466Z" fill="#04005E"/>
<path d="M438.143 80.7385C438.023 77.47 440.79 76.8407 442.188 76.9347L438.143 73.1309C437.784 76.2866 435.296 76.9816 434.098 76.9347L438.143 80.7385Z" fill="#04005E"/>
<path d="M438.143 95.9537C438.023 92.6852 440.79 92.056 442.188 92.1499L438.143 88.3461C437.784 91.5018 435.296 92.1968 434.098 92.1499L438.143 95.9537Z" fill="#04005E"/>
<path d="M438.143 73.1339C438.143 71.0331 439.846 69.3301 441.946 69.3301H472.377C474.478 69.3301 476.181 71.0331 476.181 73.1339C476.181 75.2347 474.478 76.9377 472.377 76.9377H441.946C439.846 76.9377 438.143 75.2347 438.143 73.1339Z" fill="#04005E"/>
<path d="M434.339 107.365C432.238 107.365 430.535 105.662 430.535 103.561V80.7386C430.535 78.6378 432.238 76.9348 434.339 76.9348C436.44 76.9348 438.143 78.6378 438.143 80.7386V103.561C438.143 105.662 436.44 107.365 434.339 107.365Z" fill="#04005E"/>
<path d="M438.143 111.169C438.143 109.068 439.846 107.365 441.946 107.365H472.377C474.478 107.365 476.181 109.068 476.181 111.169C476.181 113.27 474.478 114.973 472.377 114.973H441.946C439.846 114.973 438.143 113.27 438.143 111.169Z" fill="#04005E"/>
<path d="M438.143 88.3487C438.143 86.2479 439.846 84.5449 441.946 84.5449H472.377C474.478 84.5449 476.181 86.2479 476.181 88.3487C476.181 90.4495 474.478 92.1525 472.377 92.1525H441.946C439.846 92.1525 438.143 90.4495 438.143 88.3487Z" fill="#04005E"/>
<path d="M476.181 80.7385C476.301 77.47 473.534 76.8407 472.136 76.9347L476.181 73.1309C476.541 76.2866 479.028 76.9816 480.226 76.9347L476.181 80.7385Z" fill="#04005E"/>
<path d="M476.149 95.9533C476.269 92.6849 473.502 92.0556 472.104 92.1495L476.149 88.3457C476.508 91.5015 478.996 92.1965 480.194 92.1495L476.149 95.9533Z" fill="#04005E"/>
<path d="M438.102 111.171C438.222 107.902 435.455 107.273 434.057 107.367L438.102 103.563C438.462 106.719 440.949 107.414 442.147 107.367L438.102 111.171Z" fill="#04005E"/>
<path d="M438.102 88.3478C438.222 85.0794 435.455 84.4501 434.057 84.544L438.102 80.7402C438.462 83.896 440.949 84.591 442.147 84.544L438.102 88.3478Z" fill="#04005E"/>
<path d="M476.17 88.3478C476.05 85.0794 478.816 84.4501 480.215 84.544L476.17 80.7402C475.81 83.896 473.323 84.591 472.124 84.544L476.17 88.3478Z" fill="#04005E"/>
<path d="M476.18 80.7411C476.18 78.6403 477.883 76.9373 479.984 76.9373C482.085 76.9373 483.788 78.6403 483.788 80.7411C483.788 82.8419 482.085 84.5449 479.984 84.5449C477.883 84.5449 476.18 82.8419 476.18 80.7411Z" fill="#04005E"/>
<path d="M476.18 103.561C476.18 101.461 477.883 99.7576 479.984 99.7576C482.085 99.7576 483.788 101.461 483.788 103.561C483.788 105.662 482.085 107.365 479.984 107.365C477.883 107.365 476.18 105.662 476.18 103.561Z" fill="#04005E"/>
<path d="M476.18 95.956C476.18 93.8552 477.883 92.1522 479.984 92.1522C482.085 92.1522 483.788 93.8552 483.788 95.956C483.788 98.0567 482.085 99.7598 479.984 99.7598C477.883 99.7598 476.18 98.0567 476.18 95.956Z" fill="#04005E"/>
<path d="M483.788 103.705L476.18 103.705L476.18 96.0975L483.788 96.0975L483.788 103.705Z" fill="#04005E"/>
<path d="M65.7921 76.9355C63.6913 76.9355 61.9883 79.0643 61.9883 81.6903L61.9883 110.219C61.9883 112.845 63.6913 114.974 65.7921 114.974C67.8929 114.974 69.5959 112.845 69.5959 110.219L69.5959 81.6903C69.5959 79.0643 67.8929 76.9355 65.7921 76.9355Z" fill="#04005E"/>
<path d="M69.5957 73.1317C69.5957 75.2325 71.2987 76.9355 73.3995 76.9355L103.83 76.9355C105.931 76.9355 107.634 75.2325 107.634 73.1317C107.634 71.031 105.931 69.3279 103.83 69.3279L73.3995 69.3279C71.2987 69.3279 69.5957 71.031 69.5957 73.1317Z" fill="#04005E"/>
<path d="M69.5957 95.956C69.5957 98.0567 71.2987 99.7598 73.3995 99.7598L103.83 99.7598C105.931 99.7598 107.634 98.0567 107.634 95.956C107.634 93.8552 105.931 92.1522 103.83 92.1522L73.3995 92.1522C71.2987 92.1522 69.5957 93.8552 69.5957 95.956Z" fill="#04005E"/>
<path d="M107.602 88.3475C107.722 91.6159 104.955 92.2452 103.557 92.1513L107.602 95.9551C107.962 92.7993 110.449 92.1043 111.647 92.1513L107.602 88.3475Z" fill="#04005E"/>
<path d="M69.5463 95.9568C69.6662 99.2253 66.8994 99.8546 65.501 99.7606L69.5463 103.564C69.9059 100.409 72.393 99.7137 73.5916 99.7606L69.5463 95.9568Z" fill="#04005E"/>
<path d="M69.5551 73.1326C69.6749 76.4011 66.9081 77.0303 65.5098 76.9364L69.5551 80.7402C69.9147 77.5845 72.4018 76.8895 73.6004 76.9364L69.5551 73.1326Z" fill="#04005E"/>
<path d="M107.673 73.1326C107.554 76.4011 110.32 77.0303 111.719 76.9364L107.673 80.7402C107.314 77.5845 104.827 76.8895 103.628 76.9364L107.673 73.1326Z" fill="#04005E"/>
<path d="M69.5963 88.3475C69.4764 91.6159 72.2432 92.2452 73.6416 92.1513L69.5963 95.9551C69.2367 92.7993 66.7496 92.1043 65.551 92.1513L69.5963 88.3475Z" fill="#04005E"/>
<path d="M100.025 95.9542C100.025 98.055 101.728 99.758 103.829 99.758C105.93 99.758 107.633 98.055 107.633 95.9542C107.633 93.8534 105.93 92.1504 103.829 92.1504C101.728 92.1504 100.025 93.8534 100.025 95.9542Z" fill="#04005E"/>
<path d="M107.634 80.7394C107.634 82.8401 109.337 84.5432 111.437 84.5432C113.538 84.5432 115.241 82.8401 115.241 80.7394C115.241 78.6386 113.538 76.9355 111.437 76.9355C109.337 76.9355 107.634 78.6386 107.634 80.7394Z" fill="#04005E"/>
<path d="M107.634 88.3487C107.634 90.4495 109.337 92.1525 111.437 92.1525C113.538 92.1525 115.241 90.4495 115.241 88.3487C115.241 86.2479 113.538 84.5449 111.437 84.5449C109.337 84.5449 107.634 86.2479 107.634 88.3487Z" fill="#04005E"/>
<path d="M115.241 80.5996L107.634 80.5996L107.634 88.2072L115.241 88.2072L115.241 80.5996Z" fill="#04005E"/>
<path d="M254.15 111.171C254.15 113.272 252.447 114.975 250.347 114.975C248.246 114.975 246.543 113.272 246.543 111.171L246.543 73.1327C246.543 71.032 248.246 69.3289 250.347 69.3289C252.447 69.3289 254.15 71.032 254.15 73.1327L254.15 111.171Z" fill="#04005E"/>
<path d="M299.092 111.171C299.092 113.272 297.389 114.975 295.288 114.975C293.187 114.975 291.484 113.272 291.484 111.171L291.484 95.9556C291.484 93.8548 293.187 92.1518 295.288 92.1518C297.389 92.1518 299.092 93.8548 299.092 95.9556L299.092 111.171Z" fill="#04005E"/>
<path d="M257.954 92.1504C255.853 92.1504 254.15 90.4474 254.15 88.3466C254.15 86.2458 255.853 84.5428 257.954 84.5428L287.539 84.5428C289.64 84.5428 291.343 86.2458 291.343 88.3466C291.343 90.4474 289.64 92.1504 287.539 92.1504L257.954 92.1504Z" fill="#04005E"/>
<path d="M299.092 80.7411C299.092 82.8419 297.389 84.5449 295.288 84.5449C293.187 84.5449 291.484 82.8419 291.484 80.7411L291.484 73.1335C291.484 71.0327 293.187 69.3297 295.288 69.3297C297.389 69.3297 299.092 71.0327 299.092 73.1335L299.092 80.7411Z" fill="#04005E"/>
<path d="M291.483 95.9533C291.596 92.6849 288.995 92.0556 287.68 92.1495L291.483 88.3457C291.822 91.5015 294.16 92.1965 295.287 92.1495L291.483 95.9533Z" fill="#04005E"/>
<path d="M254.15 88.3478C254.263 85.0794 251.662 84.4501 250.347 84.544L254.15 80.7402C254.489 83.896 256.827 84.591 257.954 84.544L254.15 88.3478Z" fill="#04005E"/>
<path d="M291.484 88.3478C291.372 85.0794 293.973 84.4501 295.288 84.544L291.484 80.7402C291.146 83.896 288.808 84.591 287.68 84.544L291.484 88.3478Z" fill="#04005E"/>
<path d="M254.151 95.9555C254.038 92.687 256.64 92.0577 257.954 92.1517L254.151 88.3478C253.813 91.5036 251.474 92.1986 250.347 92.1517L254.151 95.9555Z" fill="#04005E"/>
<path d="M287.681 92.1504C285.58 92.1504 283.877 90.4474 283.877 88.3466C283.877 86.2458 285.58 84.5428 287.681 84.5428C289.782 84.5428 291.485 86.2458 291.485 88.3466C291.485 90.4474 289.782 92.1504 287.681 92.1504Z" fill="#04005E"/>
<path d="M295.288 84.5449C293.187 84.5449 291.484 82.8419 291.484 80.7411C291.484 78.6403 293.187 76.9373 295.288 76.9373C297.389 76.9373 299.092 78.6403 299.092 80.7411C299.092 82.8419 297.389 84.5449 295.288 84.5449Z" fill="#04005E"/>
<path d="M370.693 73.1339C370.693 71.0331 372.396 69.3301 374.497 69.3301H404.928C407.028 69.3301 408.731 71.0331 408.731 73.1339C408.731 75.2347 407.028 76.9377 404.928 76.9377H374.497C372.396 76.9377 370.693 75.2347 370.693 73.1339Z" fill="#04005E"/>
<path d="M366.89 107.361C364.789 107.361 363.086 105.658 363.086 103.558V80.7347C363.086 78.6339 364.789 76.9309 366.89 76.9309C368.991 76.9309 370.694 78.6339 370.694 80.7347V103.558C370.694 105.658 368.991 107.361 366.89 107.361Z" fill="#04005E"/>
<path d="M412.777 107.361C410.543 107.361 408.731 105.658 408.731 103.558V80.7347C408.731 78.6339 410.543 76.9309 412.777 76.9309C415.011 76.9309 416.822 78.6339 416.822 80.7347V103.558C416.822 105.658 415.011 107.361 412.777 107.361Z" fill="#04005E"/>
<path d="M370.693 111.165C370.693 109.064 372.396 107.361 374.497 107.361H404.928C407.028 107.361 408.731 109.064 408.731 111.165C408.731 113.266 407.028 114.969 404.928 114.969H374.497C372.396 114.969 370.693 113.266 370.693 111.165Z" fill="#04005E"/>
<path d="M408.732 80.7424C408.852 77.4739 406.085 76.8447 404.687 76.9386L408.732 73.1348C409.091 76.2905 411.579 76.9855 412.777 76.9386L408.732 80.7424Z" fill="#04005E"/>
<path d="M370.653 111.168C370.773 107.9 368.006 107.27 366.607 107.364L370.653 103.561C371.012 106.716 373.499 107.411 374.698 107.364L370.653 111.168Z" fill="#04005E"/>
<path d="M408.771 111.168C408.651 107.9 411.418 107.27 412.816 107.364L408.771 103.561C408.412 106.716 405.924 107.411 404.726 107.364L408.771 111.168Z" fill="#04005E"/>
<path d="M370.795 80.7424C370.675 77.4739 373.441 76.8447 374.84 76.9386L370.795 73.1348C370.435 76.2905 367.948 76.9855 366.749 76.9386L370.795 80.7424Z" fill="#04005E"/>
<path d="M131.02 73.1339C131.02 71.0331 132.723 69.3301 134.823 69.3301H165.254C167.355 69.3301 169.058 71.0331 169.058 73.1339C169.058 75.2347 167.355 76.9377 165.254 76.9377H134.823C132.723 76.9377 131.02 75.2347 131.02 73.1339Z" fill="#04005E"/>
<path d="M127.216 107.361C125.115 107.361 123.412 105.658 123.412 103.558V80.7347C123.412 78.6339 125.115 76.9309 127.216 76.9309C129.317 76.9309 131.02 78.6339 131.02 80.7347V103.558C131.02 105.658 129.317 107.361 127.216 107.361Z" fill="#04005E"/>
<path d="M173.104 107.361C170.87 107.361 169.059 105.658 169.059 103.558V80.7347C169.059 78.6339 170.87 76.9309 173.104 76.9309C175.338 76.9309 177.149 78.6339 177.149 80.7347V103.558C177.149 105.658 175.338 107.361 173.104 107.361Z" fill="#04005E"/>
<path d="M131.02 111.165C131.02 109.064 132.723 107.361 134.823 107.361H165.254C167.355 107.361 169.058 109.064 169.058 111.165C169.058 113.266 167.355 114.969 165.254 114.969H134.823C132.723 114.969 131.02 113.266 131.02 111.165Z" fill="#04005E"/>
<path d="M169.058 80.7385C169.178 77.47 166.411 76.8407 165.013 76.9347L169.058 73.1309C169.418 76.2866 171.905 76.9816 173.103 76.9347L169.058 80.7385Z" fill="#04005E"/>
<path d="M130.979 111.166C131.099 107.898 128.332 107.268 126.934 107.362L130.979 103.559C131.338 106.714 133.826 107.409 135.024 107.362L130.979 111.166Z" fill="#04005E"/>
<path d="M169.098 111.166C168.978 107.898 171.745 107.268 173.144 107.362L169.098 103.559C168.739 106.714 166.252 107.409 165.053 107.362L169.098 111.166Z" fill="#04005E"/>
<path d="M131.121 80.7385C131.001 77.47 133.768 76.8407 135.166 76.9347L131.121 73.1309C130.761 76.2866 128.274 76.9816 127.075 76.9347L131.121 80.7385Z" fill="#04005E"/>
<path d="M7.60742 73.1339C7.60742 71.0331 9.31044 69.3301 11.4112 69.3301H41.8417C43.9425 69.3301 45.6455 71.0331 45.6455 73.1339C45.6455 75.2347 43.9425 76.9377 41.8417 76.9377H11.4112C9.31044 76.9377 7.60742 75.2347 7.60742 73.1339Z" fill="#04005E"/>
<path d="M3.80381 114.975C1.70302 114.975 0 112.846 0 110.22V81.6913C0 79.0653 1.70302 76.9366 3.80381 76.9366C5.90459 76.9366 7.60761 79.0653 7.60761 81.6913V110.22C7.60761 112.846 5.90459 114.975 3.80381 114.975Z" fill="#04005E"/>
<path d="M49.7321 114.975C47.4757 114.975 45.6465 112.846 45.6465 110.22V81.6913C45.6465 79.0653 47.4757 76.9366 49.7321 76.9366C51.9885 76.9366 53.8176 79.0653 53.8176 81.6913V110.22C53.8176 112.846 51.9885 114.975 49.7321 114.975Z" fill="#04005E"/>
<path d="M45.6459 80.7385C45.7658 77.47 42.999 76.8407 41.6006 76.9347L45.6459 73.1309C46.0055 76.2866 48.4926 76.9816 49.6912 76.9347L45.6459 80.7385Z" fill="#04005E"/>
<path d="M7.608 80.7385C7.48814 77.47 10.2549 76.8407 11.6533 76.9347L7.608 73.1309C7.24842 76.2866 4.7613 76.9816 3.56269 76.9347L7.608 80.7385Z" fill="#04005E"/>
<path d="M330.509 80.7385C330.629 77.47 327.862 76.8407 326.464 76.9347L330.509 73.1309C330.869 76.2866 333.356 76.9816 334.555 76.9347L330.509 80.7385Z" fill="#04005E"/>
<path d="M338.115 80.7385C337.995 77.47 340.762 76.8407 342.16 76.9347L338.115 73.1309C337.755 76.2866 335.268 76.9816 334.07 76.9347L338.115 80.7385Z" fill="#04005E"/>
<path d="M338.116 111.225L330.509 111.225L330.509 80.1179L338.116 80.1179L338.116 111.225Z" fill="#04005E"/>
<path d="M330.509 111.368C330.509 109.22 332.212 107.479 334.312 107.479C336.413 107.479 338.116 109.22 338.116 111.368C338.116 113.515 336.413 115.256 334.312 115.256C332.212 115.256 330.509 113.515 330.509 111.368Z" fill="#04005E"/>
<path d="M330.509 80.2621C330.509 78.1146 332.212 76.3737 334.312 76.3737C336.413 76.3737 338.116 78.1146 338.116 80.2621C338.116 82.4095 336.413 84.1504 334.312 84.1504C332.212 84.1504 330.509 82.4095 330.509 80.2621Z" fill="#04005E"/>
<path d="M310.926 76.9355C308.825 76.9355 307.122 75.2325 307.122 73.1317C307.122 71.031 308.825 69.3279 310.926 69.3279L356.572 69.3279C358.672 69.3279 360.375 71.031 360.375 73.1317C360.375 75.2325 358.672 76.9355 356.572 76.9355L310.926 76.9355Z" fill="#04005E"/>
<path d="M163.818 46.2091C166.643 46.2091 168.056 43.9138 168.056 41.9717L171.587 45.5029C169.115 45.5029 167.35 47.6215 167.35 49.7402L163.818 46.2091Z" fill="#04005E"/>
<path d="M129.636 49.7392C129.636 46.9143 127.341 45.5019 125.398 45.5019L128.93 41.9707C128.93 44.4425 131.048 46.1863 133.167 46.1863L131.401 47.9519L129.636 49.7392Z" fill="#04005E"/>
<path d="M125.398 38.4044C128.223 38.4044 129.636 36.1092 129.636 34.167L133.167 37.6982C130.695 37.6982 128.93 39.8169 128.93 41.9355L125.398 38.4044Z" fill="#04005E"/>
<path d="M125.377 15.1349C128.202 15.1349 129.614 12.8396 129.614 10.8975L133.146 14.4286C130.674 14.4286 128.908 16.5473 128.908 18.666L125.377 15.1349Z" fill="#04005E"/>
<path d="M163.818 30.67C166.643 30.67 168.056 28.3748 168.056 26.4326L171.587 29.9638C169.115 29.9638 167.35 32.0825 167.35 34.2012L163.818 30.67Z" fill="#04005E"/>
<path d="M167.35 10.8966C167.35 13.7215 169.645 15.134 171.587 15.134L168.056 18.6651C168.056 16.1933 165.937 14.4277 163.818 14.4277L167.35 10.8966Z" fill="#04005E"/>
<path d="M167.35 34.2022C167.35 37.0271 169.645 38.4396 171.587 38.4396L168.056 41.9707C168.056 39.4989 165.937 37.7333 163.818 37.7333L167.35 34.2022Z" fill="#04005E"/>
<path d="M160.287 49.7403C160.287 47.7901 161.868 46.2092 163.818 46.2092C165.769 46.2092 167.35 47.7901 167.35 49.7403C167.35 51.6905 165.769 53.2715 163.818 53.2715C161.868 53.2715 160.287 51.6905 160.287 49.7403Z" fill="#04005E"/>
<path fill-rule="evenodd" clip-rule="evenodd" d="M163.818 47.3426C162.494 47.3426 161.421 48.4161 161.421 49.7403C161.421 51.0645 162.494 52.138 163.818 52.138C165.143 52.138 166.216 51.0645 166.216 49.7403C166.216 48.4161 165.143 47.3426 163.818 47.3426ZM163.818 46.2092C161.868 46.2092 160.287 47.7901 160.287 49.7403C160.287 51.6905 161.868 53.2715 163.818 53.2715C165.769 53.2715 167.35 51.6905 167.35 49.7403C167.35 47.7901 165.769 46.2092 163.818 46.2092Z" fill="#04005E"/>
<path d="M152.872 49.7403C152.872 47.7901 154.453 46.2092 156.403 46.2092C158.354 46.2092 159.935 47.7901 159.935 49.7403C159.935 51.6905 158.354 53.2715 156.403 53.2715C154.453 53.2715 152.872 51.6905 152.872 49.7403Z" fill="#04005E"/>
<path fill-rule="evenodd" clip-rule="evenodd" d="M156.403 47.3426C155.079 47.3426 154.006 48.4161 154.006 49.7403C154.006 51.0645 155.079 52.138 156.403 52.138C157.728 52.138 158.801 51.0645 158.801 49.7403C158.801 48.4161 157.728 47.3426 156.403 47.3426ZM156.403 46.2092C154.453 46.2092 152.872 47.7901 152.872 49.7403C152.872 51.6905 154.453 53.2715 156.403 53.2715C158.354 53.2715 159.935 51.6905 159.935 49.7403C159.935 47.7901 158.354 46.2092 156.403 46.2092Z" fill="#04005E"/>
<path d="M145.104 49.7403C145.104 47.7901 146.685 46.2092 148.635 46.2092C150.585 46.2092 152.166 47.7901 152.166 49.7403C152.166 51.6905 150.585 53.2715 148.635 53.2715C146.685 53.2715 145.104 51.6905 145.104 49.7403Z" fill="#04005E"/>
<path fill-rule="evenodd" clip-rule="evenodd" d="M148.635 47.3426C147.311 47.3426 146.237 48.4161 146.237 49.7403C146.237 51.0645 147.311 52.138 148.635 52.138C149.959 52.138 151.033 51.0645 151.033 49.7403C151.033 48.4161 149.959 47.3426 148.635 47.3426ZM148.635 46.2092C146.685 46.2092 145.104 47.7901 145.104 49.7403C145.104 51.6905 146.685 53.2715 148.635 53.2715C150.585 53.2715 152.166 51.6905 152.166 49.7403C152.166 47.7901 150.585 46.2092 148.635 46.2092Z" fill="#04005E"/>
<path d="M129.617 49.7294C129.617 47.7732 131.203 46.1874 133.159 46.1874C135.115 46.1874 136.701 47.7732 136.701 49.7294C136.701 51.6857 135.115 53.2715 133.159 53.2715C131.203 53.2715 129.617 51.6857 129.617 49.7294Z" fill="#04005E"/>
<path fill-rule="evenodd" clip-rule="evenodd" d="M133.159 47.3209C131.829 47.3209 130.751 48.3992 130.751 49.7294C130.751 51.0597 131.829 52.138 133.159 52.138C134.489 52.138 135.568 51.0597 135.568 49.7294C135.568 48.3992 134.489 47.3209 133.159 47.3209ZM133.159 46.1874C131.203 46.1874 129.617 47.7732 129.617 49.7294C129.617 51.6857 131.203 53.2715 133.159 53.2715C135.115 53.2715 136.701 51.6857 136.701 49.7294C136.701 47.7732 135.115 46.1874 133.159 46.1874Z" fill="#04005E"/>
<path d="M121.846 41.9365C121.846 39.9803 123.431 38.3944 125.388 38.3944C127.344 38.3944 128.93 39.9803 128.93 41.9365C128.93 43.8927 127.344 45.4785 125.388 45.4785C123.431 45.4785 121.846 43.8927 121.846 41.9365Z" fill="#04005E"/>
<path fill-rule="evenodd" clip-rule="evenodd" d="M125.388 39.5279C124.057 39.5279 122.979 40.6063 122.979 41.9365C122.979 43.2667 124.057 44.3451 125.388 44.3451C126.718 44.3451 127.796 43.2667 127.796 41.9365C127.796 40.6063 126.718 39.5279 125.388 39.5279ZM125.388 38.3944C123.431 38.3944 121.846 39.9803 121.846 41.9365C121.846 43.8927 123.431 45.4785 125.388 45.4785C127.344 45.4785 128.93 43.8927 128.93 41.9365C128.93 39.9803 127.344 38.3944 125.388 38.3944Z" fill="#04005E"/>
<path d="M121.846 34.131C121.846 32.1808 123.427 30.5998 125.377 30.5998C127.327 30.5998 128.908 32.1808 128.908 34.131C128.908 36.0812 127.327 37.6621 125.377 37.6621C123.427 37.6621 121.846 36.0812 121.846 34.131Z" fill="#04005E"/>
<path fill-rule="evenodd" clip-rule="evenodd" d="M125.377 31.7333C124.053 31.7333 122.979 32.8067 122.979 34.131C122.979 35.4552 124.053 36.5287 125.377 36.5287C126.701 36.5287 127.775 35.4552 127.775 34.131C127.775 32.8067 126.701 31.7333 125.377 31.7333ZM125.377 30.5998C123.427 30.5998 121.846 32.1808 121.846 34.131C121.846 36.0812 123.427 37.6621 125.377 37.6621C127.327 37.6621 128.908 36.0812 128.908 34.131C128.908 32.1808 127.327 30.5998 125.377 30.5998Z" fill="#04005E"/>
<path d="M168.056 41.9708C168.056 40.0206 169.637 38.4397 171.587 38.4397C173.537 38.4397 175.118 40.0206 175.118 41.9708C175.118 43.921 173.537 45.502 171.587 45.502C169.637 45.502 168.056 43.921 168.056 41.9708Z" fill="#04005E"/>
<path fill-rule="evenodd" clip-rule="evenodd" d="M171.587 39.5731C170.263 39.5731 169.189 40.6466 169.189 41.9708C169.189 43.295 170.263 44.3685 171.587 44.3685C172.911 44.3685 173.985 43.295 173.985 41.9708C173.985 40.6466 172.911 39.5731 171.587 39.5731ZM171.587 38.4397C169.637 38.4397 168.056 40.0206 168.056 41.9708C168.056 43.921 169.637 45.502 171.587 45.502C173.537 45.502 175.118 43.921 175.118 41.9708C175.118 40.0206 173.537 38.4397 171.587 38.4397Z" fill="#04005E"/>
<path d="M168.056 34.2052C168.056 32.255 169.637 30.674 171.587 30.674C173.537 30.674 175.118 32.255 175.118 34.2052C175.118 36.1554 173.537 37.7363 171.587 37.7363C169.637 37.7363 168.056 36.1554 168.056 34.2052Z" fill="#04005E"/>
<path fill-rule="evenodd" clip-rule="evenodd" d="M171.587 31.8075C170.263 31.8075 169.189 32.881 169.189 34.2052C169.189 35.5294 170.263 36.6029 171.587 36.6029C172.911 36.6029 173.985 35.5294 173.985 34.2052C173.985 32.881 172.911 31.8075 171.587 31.8075ZM171.587 30.674C169.637 30.674 168.056 32.255 168.056 34.2052C168.056 36.1554 169.637 37.7363 171.587 37.7363C173.537 37.7363 175.118 36.1554 175.118 34.2052C175.118 32.255 173.537 30.674 171.587 30.674Z" fill="#04005E"/>
<path d="M168.056 27.1427C168.056 25.1925 169.637 23.6115 171.587 23.6115C173.537 23.6115 175.118 25.1925 175.118 27.1427C175.118 29.0929 173.537 30.6738 171.587 30.6738C169.637 30.6738 168.056 29.0929 168.056 27.1427Z" fill="#04005E"/>
<path fill-rule="evenodd" clip-rule="evenodd" d="M171.587 24.745C170.263 24.745 169.189 25.8185 169.189 27.1427C169.189 28.4669 170.263 29.5404 171.587 29.5404C172.911 29.5404 173.985 28.4669 173.985 27.1427C173.985 25.8185 172.911 24.745 171.587 24.745ZM171.587 23.6115C169.637 23.6115 168.056 25.1925 168.056 27.1427C168.056 29.0929 169.637 30.6738 171.587 30.6738C173.537 30.6738 175.118 29.0929 175.118 27.1427C175.118 25.1925 173.537 23.6115 171.587 23.6115Z" fill="#04005E"/>
<path d="M168.056 18.6661C168.056 16.7159 169.637 15.135 171.587 15.135C173.537 15.135 175.118 16.7159 175.118 18.6661C175.118 20.6163 173.537 22.1973 171.587 22.1973C169.637 22.1973 168.056 20.6163 168.056 18.6661Z" fill="#04005E"/>
<path fill-rule="evenodd" clip-rule="evenodd" d="M171.587 16.2684C170.263 16.2684 169.189 17.3419 169.189 18.6661C169.189 19.9903 170.263 21.0638 171.587 21.0638C172.911 21.0638 173.985 19.9903 173.985 18.6661C173.985 17.3419 172.911 16.2684 171.587 16.2684ZM171.587 15.135C169.637 15.135 168.056 16.7159 168.056 18.6661C168.056 20.6163 169.637 22.1973 171.587 22.1973C173.537 22.1973 175.118 20.6163 175.118 18.6661C175.118 16.7159 173.537 15.135 171.587 15.135Z" fill="#04005E"/>
<path d="M160.287 10.8966C160.287 8.94639 161.868 7.36544 163.818 7.36544C165.769 7.36544 167.35 8.94639 167.35 10.8966C167.35 12.8468 165.769 14.4277 163.818 14.4277C161.868 14.4277 160.287 12.8468 160.287 10.8966Z" fill="#04005E"/>
<path fill-rule="evenodd" clip-rule="evenodd" d="M163.818 8.49889C162.494 8.49889 161.421 9.57237 161.421 10.8966C161.421 12.2208 162.494 13.2943 163.818 13.2943C165.143 13.2943 166.216 12.2208 166.216 10.8966C166.216 9.57237 165.143 8.49889 163.818 8.49889ZM163.818 7.36544C161.868 7.36544 160.287 8.94639 160.287 10.8966C160.287 12.8468 161.868 14.4277 163.818 14.4277C165.769 14.4277 167.35 12.8468 167.35 10.8966C167.35 8.94639 165.769 7.36544 163.818 7.36544Z" fill="#04005E"/>
<path d="M152.872 10.8966C152.872 8.94639 154.453 7.36544 156.403 7.36544C158.354 7.36544 159.935 8.94639 159.935 10.8966C159.935 12.8468 158.354 14.4277 156.403 14.4277C154.453 14.4277 152.872 12.8468 152.872 10.8966Z" fill="#04005E"/>
<path fill-rule="evenodd" clip-rule="evenodd" d="M156.403 8.49889C155.079 8.49889 154.006 9.57237 154.006 10.8966C154.006 12.2208 155.079 13.2943 156.403 13.2943C157.728 13.2943 158.801 12.2208 158.801 10.8966C158.801 9.57237 157.728 8.49889 156.403 8.49889ZM156.403 7.36544C154.453 7.36544 152.872 8.94639 152.872 10.8966C152.872 12.8468 154.453 14.4277 156.403 14.4277C158.354 14.4277 159.935 12.8468 159.935 10.8966C159.935 8.94639 158.354 7.36544 156.403 7.36544Z" fill="#04005E"/>
<path d="M145.104 10.8966C145.104 8.94639 146.685 7.36544 148.635 7.36544C150.585 7.36544 152.166 8.94639 152.166 10.8966C152.166 12.8468 150.585 14.4277 148.635 14.4277C146.685 14.4277 145.104 12.8468 145.104 10.8966Z" fill="#04005E"/>
<path fill-rule="evenodd" clip-rule="evenodd" d="M148.635 8.49889C147.311 8.49889 146.237 9.57237 146.237 10.8966C146.237 12.2208 147.311 13.2943 148.635 13.2943C149.959 13.2943 151.033 12.2208 151.033 10.8966C151.033 9.57237 149.959 8.49889 148.635 8.49889ZM148.635 7.36544C146.685 7.36544 145.104 8.94639 145.104 10.8966C145.104 12.8468 146.685 14.4277 148.635 14.4277C150.585 14.4277 152.166 12.8468 152.166 10.8966C152.166 8.94639 150.585 7.36544 148.635 7.36544Z" fill="#04005E"/>
<path d="M129.614 10.8966C129.614 8.94639 131.195 7.36544 133.146 7.36544C135.096 7.36544 136.677 8.94639 136.677 10.8966C136.677 12.8468 135.096 14.4277 133.146 14.4277C131.195 14.4277 129.614 12.8468 129.614 10.8966Z" fill="#04005E"/>
<path fill-rule="evenodd" clip-rule="evenodd" d="M133.146 8.49889C131.821 8.49889 130.748 9.57237 130.748 10.8966C130.748 12.2208 131.821 13.2943 133.146 13.2943C134.47 13.2943 135.543 12.2208 135.543 10.8966C135.543 9.57237 134.47 8.49889 133.146 8.49889ZM133.146 7.36544C131.195 7.36544 129.614 8.94639 129.614 10.8966C129.614 12.8468 131.195 14.4277 133.146 14.4277C135.096 14.4277 136.677 12.8468 136.677 10.8966C136.677 8.94639 135.096 7.36544 133.146 7.36544Z" fill="#04005E"/>
<path d="M121.846 18.6661C121.846 16.7159 123.427 15.135 125.377 15.135C127.327 15.135 128.908 16.7159 128.908 18.6661C128.908 20.6163 127.327 22.1973 125.377 22.1973C123.427 22.1973 121.846 20.6163 121.846 18.6661Z" fill="#04005E"/>
<path fill-rule="evenodd" clip-rule="evenodd" d="M125.377 16.2684C124.053 16.2684 122.979 17.3419 122.979 18.6661C122.979 19.9903 124.053 21.0638 125.377 21.0638C126.701 21.0638 127.775 19.9903 127.775 18.6661C127.775 17.3419 126.701 16.2684 125.377 16.2684ZM125.377 15.135C123.427 15.135 121.846 16.7159 121.846 18.6661C121.846 20.6163 123.427 22.1973 125.377 22.1973C127.327 22.1973 128.908 20.6163 128.908 18.6661C128.908 16.7159 127.327 15.135 125.377 15.135Z" fill="#04005E"/>
<path d="M152.872 34.2052C152.872 32.255 154.453 30.674 156.403 30.674C158.354 30.674 159.935 32.255 159.935 34.2052C159.935 36.1554 158.354 37.7363 156.403 37.7363C154.453 37.7363 152.872 36.1554 152.872 34.2052Z" fill="#04005E"/>
<path fill-rule="evenodd" clip-rule="evenodd" d="M156.403 31.8075C155.079 31.8075 154.006 32.881 154.006 34.2052C154.006 35.5294 155.079 36.6029 156.403 36.6029C157.728 36.6029 158.801 35.5294 158.801 34.2052C158.801 32.881 157.728 31.8075 156.403 31.8075ZM156.403 30.674C154.453 30.674 152.872 32.255 152.872 34.2052C152.872 36.1554 154.453 37.7363 156.403 37.7363C158.354 37.7363 159.935 36.1554 159.935 34.2052C159.935 32.255 158.354 30.674 156.403 30.674Z" fill="#04005E"/>
<path d="M160.287 34.2052C160.287 32.255 161.868 30.674 163.818 30.674C165.769 30.674 167.35 32.255 167.35 34.2052C167.35 36.1554 165.769 37.7363 163.818 37.7363C161.868 37.7363 160.287 36.1554 160.287 34.2052Z" fill="#04005E"/>
<path fill-rule="evenodd" clip-rule="evenodd" d="M163.818 31.8075C162.494 31.8075 161.421 32.881 161.421 34.2052C161.421 35.5294 162.494 36.6029 163.818 36.6029C165.143 36.6029 166.216 35.5294 166.216 34.2052C166.216 32.881 165.143 31.8075 163.818 31.8075ZM163.818 30.674C161.868 30.674 160.287 32.255 160.287 34.2052C160.287 36.1554 161.868 37.7363 163.818 37.7363C165.769 37.7363 167.35 36.1554 167.35 34.2052C167.35 32.255 165.769 30.674 163.818 30.674Z" fill="#04005E"/>
<path d="M163.784 53.2715L133.181 53.2715L133.181 46.1874L163.784 46.1874L163.784 53.2715Z" fill="#04005E"/>
<path d="M171.718 37.6855L125.53 37.6855L125.53 30.6015L171.718 30.6015L171.718 37.6855Z" fill="#04005E"/>
<path d="M121.846 41.6191L121.846 34.2037L128.908 34.2037L128.908 41.6191L121.846 41.6191Z" fill="#04005E"/>
<path d="M163.784 14.4512L133.181 14.4512L133.181 7.3671L163.784 7.3671L163.784 14.4512Z" fill="#04005E"/>
<path d="M168.056 41.9707L168.056 18.6651L175.118 18.6651L175.118 41.9707L168.056 41.9707Z" fill="#04005E"/>
<path fill-rule="evenodd" clip-rule="evenodd" d="M168.339 18.9485L168.339 41.6873L174.835 41.6873L174.835 18.9485L168.339 18.9485ZM168.056 41.9707L175.118 41.9707L175.118 18.6651L168.056 18.6651L168.056 41.9707Z" fill="#04005E"/>
<path d="M183.053 49.8691H190.704V57.5199H183.053V49.8691Z" fill="#04005E"/>
<path d="M228.957 49.8691H236.608V57.5199H228.957V49.8691Z" fill="#04005E"/>
<path d="M236.607 49.7312C236.607 51.844 234.895 53.5566 232.782 53.5566L186.877 53.5566C184.765 53.5566 183.052 51.8439 183.052 49.7312C183.052 47.6185 184.765 45.9058 186.877 45.9058L232.782 45.9058C234.895 45.9058 236.607 47.6185 236.607 49.7312Z" fill="#04005E"/>
<path d="M221.307 18.8442C221.42 15.5571 218.804 14.9243 217.482 15.0188L221.307 11.1934C221.647 14.367 223.999 15.066 225.132 15.0188L221.307 18.8442Z" fill="#04005E"/>
<path d="M198.355 49.7307C198.468 46.4437 195.852 45.8109 194.529 45.9053L198.355 42.0799C198.695 45.2536 201.047 45.9525 202.18 45.9053L198.355 49.7307Z" fill="#04005E"/>
<path d="M228.958 49.7307C229.071 46.4437 226.455 45.8109 225.132 45.9053L228.958 42.0799C229.298 45.2536 231.65 45.9525 232.783 45.9053L228.958 49.7307Z" fill="#04005E"/>
<path d="M228.957 57.3793C229.071 54.0923 226.454 53.4595 225.132 53.5539L228.957 49.7285C229.297 52.9022 231.649 53.6011 232.783 53.5539L228.957 57.3793Z" fill="#04005E"/>
<path d="M198.354 18.8442C198.241 15.5571 200.857 14.9243 202.179 15.0188L198.354 11.1934C198.014 14.367 195.662 15.066 194.529 15.0188L198.354 18.8442Z" fill="#04005E"/>
<path d="M190.703 57.3815C190.59 54.0945 193.206 53.4617 194.529 53.5561L190.703 49.7307C190.363 52.9044 188.011 53.6033 186.878 53.5561L190.703 57.3815Z" fill="#04005E"/>
<path d="M190.703 49.7307C190.59 46.4437 193.206 45.8109 194.529 45.9053L190.703 42.0799C190.363 45.2536 188.011 45.9525 186.878 45.9053L190.703 49.7307Z" fill="#04005E"/>
<path d="M221.306 49.7307C221.193 46.4437 223.809 45.8109 225.132 45.9053L221.306 42.0799C220.966 45.2536 218.614 45.9525 217.481 45.9053L221.306 49.7307Z" fill="#04005E"/>
<path d="M194.529 53.2715C192.416 53.2715 190.703 51.5588 190.703 49.4461V18.8429C190.703 16.7302 192.416 15.0175 194.529 15.0175C196.641 15.0175 198.354 16.7302 198.354 18.8429V49.4461C198.354 51.5588 196.641 53.2715 194.529 53.2715Z" fill="#04005E"/>
<path d="M202.18 15.0176C200.067 15.0176 198.354 13.3049 198.354 11.1922C198.354 9.07947 200.067 7.36678 202.18 7.36678H217.481C219.594 7.36678 221.307 9.07947 221.307 11.1922C221.307 13.3049 219.594 15.0176 217.481 15.0176H202.18Z" fill="#04005E"/>
<path d="M225.132 50.7207C223.019 50.7207 221.307 49.008 221.307 46.8953V18.8424C221.307 16.7297 223.019 15.017 225.132 15.017C227.245 15.017 228.957 16.7297 228.957 18.8424V46.8953C228.957 49.008 227.245 50.7207 225.132 50.7207Z" fill="#04005E"/>
<path d="M186.878 53.5566C184.765 53.5566 183.053 55.2693 183.053 57.382C183.053 59.4947 184.765 61.2074 186.878 61.2074C188.991 61.2074 190.704 59.4947 190.704 57.382C190.704 55.2693 188.991 53.5566 186.878 53.5566Z" fill="#04005E"/>
<path d="M232.782 53.5566C230.67 53.5566 228.957 55.2693 228.957 57.382C228.957 59.4947 230.67 61.2074 232.782 61.2074C234.895 61.2074 236.608 59.4947 236.608 57.382C236.608 55.2693 234.895 53.5566 232.782 53.5566Z" fill="#04005E"/>
<path d="M252.193 11.4758C252.193 9.36308 253.906 7.65039 256.019 7.65039H286.622C288.735 7.65039 290.447 9.36308 290.447 11.4758C290.447 13.5885 288.735 15.3012 286.622 15.3012H256.019C253.906 15.3012 252.193 13.5885 252.193 11.4758Z" fill="#04005E"/>
<path d="M248.367 45.9043C246.255 45.9043 244.542 44.1916 244.542 42.0789V19.1265C244.542 17.0138 246.255 15.3011 248.367 15.3011C250.48 15.3011 252.193 17.0138 252.193 19.1265V42.0789C252.193 44.1916 250.48 45.9043 248.367 45.9043Z" fill="#04005E"/>
<path d="M252.193 49.7297C252.193 47.617 253.906 45.9043 256.019 45.9043H286.622C288.735 45.9043 290.447 47.617 290.447 49.7297C290.447 51.8424 288.735 53.5551 286.622 53.5551H256.019C253.906 53.5551 252.193 51.8424 252.193 49.7297Z" fill="#04005E"/>
<path d="M252.193 26.7766C252.193 24.6639 253.906 22.9512 256.019 22.9512H286.622C288.735 22.9512 290.447 24.6639 290.447 26.7766C290.447 28.8893 288.735 30.602 286.622 30.602H256.019C253.906 30.602 252.193 28.8893 252.193 26.7766Z" fill="#04005E"/>
<path d="M290.415 34.4262C290.536 31.1392 287.753 30.5063 286.347 30.6008L290.415 26.7754C290.777 29.9491 293.278 30.648 294.483 30.6008L290.415 34.4262Z" fill="#04005E"/>
<path d="M252.152 49.7309C252.273 46.4439 249.49 45.811 248.084 45.9055L252.152 42.0801C252.514 45.2537 255.015 45.9527 256.221 45.9055L252.152 49.7309Z" fill="#04005E"/>
<path d="M252.193 26.7778C252.314 23.4907 249.531 22.8579 248.125 22.9524L252.193 19.127C252.555 22.3006 255.056 22.9996 256.262 22.9524L252.193 26.7778Z" fill="#04005E"/>
<path d="M290.487 49.7309C290.367 46.4439 293.149 45.811 294.556 45.9055L290.487 42.0801C290.126 45.2537 287.625 45.9527 286.419 45.9055L290.487 49.7309Z" fill="#04005E"/>
<path d="M290.447 11.477C290.327 8.18996 293.109 7.55712 294.516 7.65157L290.447 3.82617C290.086 6.99984 287.584 7.6988 286.379 7.65157L290.447 11.477Z" fill="#04005E"/>
<path d="M252.193 19.1293C252.073 15.8423 254.855 15.2095 256.262 15.3039L252.193 11.4785C251.832 14.6522 249.331 15.3511 248.125 15.3039L252.193 19.1293Z" fill="#04005E"/>
<path d="M252.193 34.4306C252.073 31.1436 254.855 30.5108 256.262 30.6052L252.193 26.7798C251.832 29.9535 249.331 30.6525 248.125 30.6052L252.193 34.4306Z" fill="#04005E"/>
<path d="M282.795 26.7781C282.795 24.6654 284.508 22.9527 286.621 22.9527C288.734 22.9527 290.446 24.6654 290.446 26.7781C290.446 28.8908 288.734 30.6035 286.621 30.6035C284.508 30.6035 282.795 28.8908 282.795 26.7781Z" fill="#04005E"/>
<path d="M290.447 42.0789C290.447 39.9662 292.16 38.2535 294.272 38.2535C296.385 38.2535 298.098 39.9662 298.098 42.0789C298.098 44.1916 296.385 45.9043 294.272 45.9043C292.16 45.9043 290.447 44.1916 290.447 42.0789Z" fill="#04005E"/>
<path d="M290.447 34.4266C290.447 32.3138 292.16 30.6012 294.272 30.6012C296.385 30.6012 298.098 32.3138 298.098 34.4266C298.098 36.5393 296.385 38.252 294.272 38.252C292.16 38.252 290.447 36.5393 290.447 34.4266Z" fill="#04005E"/>
<path d="M298.098 42.2207L290.447 42.2207L290.447 34.5699L298.098 34.5699L298.098 42.2207Z" fill="#04005E"/>
<path d="M290.447 3.82499C290.447 1.71228 292.16 -0.000408215 294.272 -0.00040803C296.385 -0.000407845 298.098 1.71228 298.098 3.82499C298.098 5.9377 296.385 7.65039 294.272 7.65039C292.16 7.65039 290.447 5.9377 290.447 3.82499Z" fill="#04005E"/>
<path d="M7.65039 49.4461C7.65039 51.5588 5.9377 53.2715 3.82499 53.2715C1.71228 53.2715 -0.000409453 51.5588 -0.000409269 49.4461L-0.000405924 11.1921C-0.00040574 9.07939 1.71229 7.36671 3.82499 7.36671C5.9377 7.36671 7.65039 9.0794 7.65039 11.1921L7.65039 49.4461Z" fill="#04005E"/>
<path d="M52.8477 49.4461C52.8477 51.5588 51.135 53.2715 49.0223 53.2715C46.9095 53.2715 45.1969 51.5588 45.1969 49.4461L45.1969 34.1445C45.1969 32.0318 46.9095 30.3191 49.0223 30.3191C51.135 30.3191 52.8477 32.0318 52.8477 34.1445L52.8477 49.4461Z" fill="#04005E"/>
<path d="M11.4758 30.3184C9.36308 30.3184 7.65039 28.6057 7.65039 26.493C7.65039 24.3803 9.36308 22.6676 11.4758 22.6676L41.2289 22.6676C43.3416 22.6676 45.0543 24.3803 45.0543 26.493C45.0543 28.6057 43.3416 30.3184 41.2289 30.3184L11.4758 30.3184Z" fill="#04005E"/>
<path d="M52.8477 18.8445C52.8477 20.9572 51.135 22.6699 49.0223 22.6699C46.9095 22.6699 45.1969 20.9572 45.1969 18.8445L45.1969 11.1937C45.1969 9.08102 46.9095 7.36833 49.0223 7.36833C51.135 7.36833 52.8477 9.08102 52.8477 11.1937L52.8477 18.8445Z" fill="#04005E"/>
<path d="M45.1965 34.1449C45.3098 30.8579 42.6935 30.2251 41.3711 30.3195L45.1965 26.4941C45.5365 29.6678 47.8884 30.3668 49.0219 30.3195L45.1965 34.1449Z" fill="#04005E"/>
<path d="M7.65059 26.4926C7.76394 23.2056 5.14756 22.5727 3.8252 22.6672L7.65059 18.8418C7.99063 22.0155 10.3425 22.7144 11.476 22.6672L7.65059 26.4926Z" fill="#04005E"/>
<path d="M45.1961 26.4926C45.0827 23.2056 47.6991 22.5727 49.0215 22.6672L45.1961 18.8418C44.8561 22.0155 42.5041 22.7144 41.3707 22.6672L45.1961 26.4926Z" fill="#04005E"/>
<path d="M7.65051 34.1434C7.53716 30.8564 10.1535 30.2235 11.4759 30.318L7.65051 26.4926C7.31047 29.6663 4.95856 30.3652 3.82511 30.318L7.65051 34.1434Z" fill="#04005E"/>
<path d="M41.3713 30.3184C39.2586 30.3184 37.5459 28.6057 37.5459 26.493C37.5459 24.3803 39.2586 22.6676 41.3713 22.6676C43.484 22.6676 45.1967 24.3803 45.1967 26.493C45.1967 28.6057 43.484 30.3184 41.3713 30.3184Z" fill="#04005E"/>
<path d="M49.0217 22.6699C46.909 22.6699 45.1963 20.9572 45.1963 18.8445C45.1963 16.7318 46.909 15.0191 49.0217 15.0191C51.1344 15.0191 52.8471 16.7318 52.8471 18.8445C52.8471 20.9572 51.1344 22.6699 49.0217 22.6699Z" fill="#04005E"/>
<path fill-rule="evenodd" clip-rule="evenodd" d="M68.291 49.4434C68.291 47.3306 70.0036 45.618 72.1164 45.618C70.0036 45.618 68.291 43.9053 68.291 41.7926C68.291 43.9053 66.5784 45.618 64.4656 45.618C66.5784 45.618 68.291 47.3306 68.291 49.4434Z" fill="#04005E"/>
<path fill-rule="evenodd" clip-rule="evenodd" d="M106.262 18.8402C106.262 16.7274 107.974 15.0148 110.087 15.0148C107.974 15.0148 106.262 13.3021 106.262 11.1893C106.262 13.3021 104.549 15.0148 102.436 15.0148C104.549 15.0148 106.262 16.7274 106.262 18.8402Z" fill="#04005E"/>
<path fill-rule="evenodd" clip-rule="evenodd" d="M75.9418 18.8402C75.9418 16.7274 77.6544 15.0148 79.7672 15.0148C77.6544 15.0148 75.9418 13.3021 75.9418 11.1893C75.9418 13.3021 74.2292 15.0148 72.1164 15.0148C74.2292 15.0148 75.9418 16.7274 75.9418 18.8402Z" fill="#04005E"/>
<path d="M113.912 49.3027L106.261 49.3027L106.261 18.6995L113.912 18.6995L113.912 49.3027Z" fill="#04005E"/>
<path d="M75.9414 41.6543L68.2906 41.6543L68.2906 18.7019L75.9414 18.7019L75.9414 41.6543Z" fill="#04005E"/>
<path d="M102.294 15.0176L79.6249 15.0176L79.6249 7.36678L102.294 7.36678L102.294 15.0176Z" fill="#04005E"/>
<path d="M68.2906 41.7937C68.2906 39.681 70.0033 37.9683 72.116 37.9683C74.2287 37.9683 75.9414 39.681 75.9414 41.7937C75.9414 43.9065 74.2287 45.6191 72.116 45.6191C70.0033 45.6191 68.2906 43.9065 68.2906 41.7937Z" fill="#04005E"/>
<path d="M98.6099 11.1922C98.6099 9.07947 100.323 7.36678 102.435 7.36678C104.548 7.36678 106.261 9.07947 106.261 11.1922C106.261 13.3049 104.548 15.0176 102.435 15.0176C100.323 15.0176 98.6099 13.3049 98.6099 11.1922Z" fill="#04005E"/>
<path d="M106.261 49.4461C106.261 47.3334 107.974 45.6207 110.087 45.6207C112.199 45.6207 113.912 47.3334 113.912 49.4461C113.912 51.5588 112.199 53.2715 110.087 53.2715C107.974 53.2715 106.261 51.5588 106.261 49.4461Z" fill="#04005E"/>
<path d="M106.261 18.8445C106.261 16.7318 107.974 15.0191 110.087 15.0191C112.199 15.0191 113.912 16.7318 113.912 18.8445C113.912 20.9572 112.199 22.6699 110.087 22.6699C107.974 22.6699 106.261 20.9572 106.261 18.8445Z" fill="#04005E"/>
<path d="M60.6392 49.4461C60.6392 47.3334 62.3519 45.6207 64.4646 45.6207C66.5774 45.6207 68.29 47.3334 68.29 49.4461C68.29 51.5588 66.5773 53.2715 64.4646 53.2715C62.3519 53.2715 60.6392 51.5588 60.6392 49.4461Z" fill="#04005E"/>
<path d="M68.2906 18.8445C68.2906 16.7318 70.0033 15.0191 72.116 15.0191C74.2287 15.0191 75.9414 16.7318 75.9414 18.8445C75.9414 20.9572 74.2287 22.6699 72.116 22.6699C70.0033 22.6699 68.2906 20.9572 68.2906 18.8445Z" fill="#04005E"/>
<path d="M75.941 11.1922C75.941 9.07947 77.6537 7.36678 79.7664 7.36678C81.8791 7.36678 83.5918 9.07947 83.5918 11.1922C83.5918 13.3049 81.8791 15.0176 79.7664 15.0176C77.6537 15.0176 75.941 13.3049 75.941 11.1922Z" fill="#04005E"/>
<path d="M359.588 49.8691L351.937 49.8691L351.937 19.2659L359.588 19.2659L359.588 49.8691Z" fill="#04005E"/>
<path d="M340.318 15.584L340.318 7.93319L347.969 7.93319L347.969 15.584L340.318 15.584Z" fill="#04005E"/>
<path d="M318.5 53.8379L318.5 46.1871L326.151 46.1871L326.151 53.8379L318.5 53.8379Z" fill="#04005E"/>
<path d="M313.683 42.3613L306.032 42.3613L306.032 11.7581L313.683 11.7581L313.683 42.3613Z" fill="#04005E"/>
<path d="M336.635 42.2207L328.984 42.2207L328.984 19.2683L336.635 19.2683L336.635 42.2207Z" fill="#04005E"/>
<path d="M313.682 50.0125C313.682 47.8998 315.395 46.1871 317.508 46.1871C319.62 46.1871 321.333 47.8998 321.333 50.0125C321.333 52.1252 319.62 53.8379 317.508 53.8379C315.395 53.8379 313.682 52.1252 313.682 50.0125Z" fill="#04005E"/>
<path d="M321.334 50.0125C321.334 47.8998 323.046 46.1871 325.159 46.1871C327.272 46.1871 328.984 47.8998 328.984 50.0125C328.984 52.1252 327.272 53.8379 325.159 53.8379C323.046 53.8379 321.334 52.1252 321.334 50.0125Z" fill="#04005E"/>
<path d="M344.286 11.7586C344.286 9.64588 345.998 7.93319 348.111 7.93319C350.224 7.93319 351.937 9.64588 351.937 11.7586C351.937 13.8713 350.224 15.584 348.111 15.584C345.998 15.584 344.286 13.8713 344.286 11.7586Z" fill="#04005E"/>
<path d="M336.635 11.7586C336.635 9.64588 338.348 7.93319 340.461 7.93319C342.573 7.93319 344.286 9.64588 344.286 11.7586C344.286 13.8713 342.573 15.584 340.461 15.584C338.348 15.584 336.635 13.8713 336.635 11.7586Z" fill="#04005E"/>
<path d="M351.937 50.0125C351.937 47.8998 353.65 46.1871 355.762 46.1871C357.875 46.1871 359.588 47.8998 359.588 50.0125C359.588 52.1252 357.875 53.8379 355.762 53.8379C353.65 53.8379 351.937 52.1252 351.937 50.0125Z" fill="#04005E"/>
<path d="M306.032 42.3601C306.032 40.2474 307.745 38.5347 309.857 38.5347C311.97 38.5347 313.683 40.2474 313.683 42.3601C313.683 44.4729 311.97 46.1855 309.857 46.1855C307.745 46.1855 306.032 44.4729 306.032 42.3601Z" fill="#04005E"/>
<path d="M306.032 11.7586C306.032 9.64588 307.745 7.93319 309.857 7.93319C311.97 7.93319 313.683 9.64588 313.683 11.7586C313.683 13.8713 311.97 15.584 309.857 15.584C307.745 15.584 306.032 13.8713 306.032 11.7586Z" fill="#04005E"/>
<path d="M351.937 19.4109C351.937 17.2982 353.65 15.5855 355.762 15.5855C357.875 15.5855 359.588 17.2982 359.588 19.4109C359.588 21.5236 357.875 23.2363 355.762 23.2363C353.65 23.2363 351.937 21.5236 351.937 19.4109Z" fill="#04005E"/>
<path d="M328.984 42.3601C328.984 40.2474 330.697 38.5347 332.809 38.5347C334.922 38.5347 336.635 40.2474 336.635 42.3601C336.635 44.4729 334.922 46.1855 332.809 46.1855C330.697 46.1855 328.984 44.4729 328.984 42.3601Z" fill="#04005E"/>
<path d="M328.984 19.4109C328.984 17.2982 330.697 15.5855 332.809 15.5855C334.922 15.5855 336.635 17.2982 336.635 19.4109C336.635 21.5236 334.922 23.2363 332.809 23.2363C330.697 23.2363 328.984 21.5236 328.984 19.4109Z" fill="#04005E"/>
<path d="M309.857 46.1876C313.144 46.067 313.777 48.8495 313.682 50.2559L317.508 46.1876C314.334 45.826 313.635 43.3247 313.682 42.1193L309.857 46.1876Z" fill="#04005E"/>
<path d="M328.985 42.3629C329.098 45.6499 326.482 46.2827 325.159 46.1883L328.985 50.0137C329.325 46.84 331.677 46.141 332.81 46.1883L328.985 42.3629Z" fill="#04005E"/>
<path d="M348.111 15.586C351.398 15.4655 352.031 18.248 351.936 19.6543L355.762 15.586C352.588 15.2244 351.889 12.7232 351.936 11.5177L348.111 15.586Z" fill="#04005E"/>
<path d="M336.635 11.7574C336.755 15.0444 333.973 15.6773 332.566 15.5828L336.635 19.4082C336.996 16.2345 339.498 15.5356 340.703 15.5828L336.635 11.7574Z" fill="#04005E"/>
<path fill-rule="evenodd" clip-rule="evenodd" d="M421.077 57.6621C421.077 55.5493 422.79 53.8367 424.902 53.8367C422.79 53.8367 421.077 52.1241 421.077 50.0113C421.077 52.1241 419.364 53.8367 417.252 53.8367C419.364 53.8367 421.077 55.5493 421.077 57.6621Z" fill="#04005E"/>
<path d="M428.729 65.4551L421.078 65.4551L421.078 57.8043L428.729 57.8043L428.729 65.4551Z" fill="#04005E"/>
<path d="M413.426 50.0125C413.426 47.8998 415.139 46.1871 417.252 46.1871C419.364 46.1871 421.077 47.8998 421.077 50.0125C421.077 52.1252 419.364 53.8379 417.252 53.8379C415.139 53.8379 413.426 52.1252 413.426 50.0125Z" fill="#04005E"/>
<path d="M421.078 65.5984C421.078 63.4857 422.79 61.773 424.903 61.773C427.016 61.773 428.729 63.4857 428.729 65.5984C428.729 67.7111 427.016 69.4238 424.903 69.4238C422.79 69.4238 421.078 67.7111 421.078 65.5984Z" fill="#04005E"/>
<path d="M421.078 57.6648C421.078 55.5521 422.79 53.8394 424.903 53.8394C427.016 53.8394 428.729 55.5521 428.729 57.6648C428.729 59.7775 427.016 61.4902 424.903 61.4902C422.79 61.4902 421.078 59.7775 421.078 57.6648Z" fill="#04005E"/>
<path d="M379.14 46.1855H416.827V53.8363H379.14V46.1855Z" fill="#04005E"/>
<path fill-rule="evenodd" clip-rule="evenodd" d="M398.125 50.0137C398.125 47.9009 399.837 46.1883 401.95 46.1883C399.837 46.1883 398.125 44.4756 398.125 42.3629C398.125 44.4756 396.412 46.1883 394.299 46.1883C396.412 46.1883 398.125 47.9009 398.125 50.0137Z" fill="#04005E"/>
<path fill-rule="evenodd" clip-rule="evenodd" d="M390.474 50.0137C390.474 47.9009 392.187 46.1883 394.3 46.1883C392.187 46.1883 390.474 44.4756 390.474 42.3629C390.474 44.4756 388.762 46.1883 386.649 46.1883C388.762 46.1883 390.474 47.9009 390.474 50.0137Z" fill="#04005E"/>
<path fill-rule="evenodd" clip-rule="evenodd" d="M375.173 50.0137C375.173 47.9009 376.885 46.1883 378.998 46.1883C376.885 46.1883 375.173 44.4756 375.173 42.3629C375.173 44.4756 373.46 46.1883 371.347 46.1883C373.46 46.1883 375.173 47.9009 375.173 50.0137Z" fill="#04005E"/>
<path d="M421.077 49.5879L413.426 49.5879L413.426 11.6173L421.077 11.6173L421.077 49.5879Z" fill="#04005E"/>
<path d="M375.173 42.3613L367.522 42.3613L367.522 11.7581L375.173 11.7581L375.173 42.3613Z" fill="#04005E"/>
<path d="M398.125 46.4707L390.474 46.4707L390.474 11.6171L398.125 11.6171L398.125 46.4707Z" fill="#04005E"/>
<path d="M375.172 50.0125C375.172 47.8998 376.885 46.1871 378.998 46.1871C381.111 46.1871 382.823 47.8998 382.823 50.0125C382.823 52.1252 381.111 53.8379 378.998 53.8379C376.885 53.8379 375.172 52.1252 375.172 50.0125Z" fill="#04005E"/>
<path d="M367.522 42.3601C367.522 40.2474 369.235 38.5347 371.347 38.5347C373.46 38.5347 375.173 40.2474 375.173 42.3601C375.173 44.4729 373.46 46.1855 371.347 46.1855C369.235 46.1855 367.522 44.4729 367.522 42.3601Z" fill="#04005E"/>
<path d="M367.522 11.7586C367.522 9.64588 369.235 7.93319 371.347 7.93319C373.46 7.93319 375.173 9.64588 375.173 11.7586C375.173 13.8713 373.46 15.584 371.347 15.584C369.235 15.584 367.522 13.8713 367.522 11.7586Z" fill="#04005E"/>
<path d="M390.474 11.7586C390.474 9.64588 392.187 7.93319 394.3 7.93319C396.412 7.93319 398.125 9.64588 398.125 11.7586C398.125 13.8713 396.412 15.584 394.3 15.584C392.187 15.584 390.474 13.8713 390.474 11.7586Z" fill="#04005E"/>
<path d="M413.426 11.7586C413.426 9.64588 415.139 7.93319 417.252 7.93319C419.364 7.93319 421.077 9.64588 421.077 11.7586C421.077 13.8713 419.364 15.584 417.252 15.584C415.139 15.584 413.426 13.8713 413.426 11.7586Z" fill="#04005E"/>
<path d="M421.078 50.0109C421.078 52.1237 419.365 53.8363 417.252 53.8363C415.139 53.8363 413.427 52.1237 413.427 50.0109C413.427 47.8982 415.139 46.1855 417.252 46.1855C419.365 46.1855 421.078 47.8982 421.078 50.0109Z" fill="#04005E"/>
<path fill-rule="evenodd" clip-rule="evenodd" d="M409.742 46.1893C411.789 46.2638 413.426 47.9468 413.426 50.0121C413.426 47.8994 415.139 46.1867 417.251 46.1867C415.139 46.1867 413.426 44.4741 413.426 42.3613C413.426 44.4267 411.789 46.1096 409.742 46.1842V46.1893Z" fill="#04005E"/>
<path d="M441.74 14.8112C438.896 14.8112 437.473 17.1222 437.473 19.0777L433.918 15.5223C436.407 15.5223 438.184 13.3891 438.184 11.2559L441.74 14.8112Z" fill="#04005E"/>
<path d="M476.156 11.2582C476.156 14.1025 478.467 15.5247 480.422 15.5247L476.867 19.0801C476.867 16.5913 474.734 14.8356 472.601 14.8356L474.378 13.0579L476.156 11.2582Z" fill="#04005E"/>
<path d="M480.422 22.6706C477.578 22.6706 476.156 24.9816 476.156 26.9371L472.601 23.3817C475.089 23.3817 476.867 21.2485 476.867 19.1152L480.422 22.6706Z" fill="#04005E"/>
<path d="M480.445 46.1003C477.601 46.1003 476.178 48.4113 476.178 50.3668L472.623 46.8114C475.112 46.8114 476.89 44.6782 476.89 42.5449L480.445 46.1003Z" fill="#04005E"/>
<path d="M441.74 30.4558C438.896 30.4558 437.473 32.7668 437.473 34.7222L433.918 31.1669C436.407 31.1669 438.184 29.0336 438.184 26.9004L441.74 30.4558Z" fill="#04005E"/>
<path d="M438.184 50.3675C438.184 47.5232 435.873 46.101 433.917 46.101L437.473 42.5456C437.473 45.0344 439.606 46.8121 441.739 46.8121L438.184 50.3675Z" fill="#04005E"/>
<path d="M438.184 26.9019C438.184 24.0576 435.873 22.6355 433.917 22.6355L437.473 19.0801C437.473 21.5688 439.606 23.3465 441.739 23.3465L438.184 26.9019Z" fill="#04005E"/>
<path d="M445.295 11.2566C445.295 13.2201 443.704 14.8119 441.74 14.8119C439.776 14.8119 438.185 13.2201 438.185 11.2566C438.185 9.29297 439.776 7.70117 441.74 7.70117C443.704 7.70117 445.295 9.29297 445.295 11.2566Z" fill="#04005E"/>
<path fill-rule="evenodd" clip-rule="evenodd" d="M441.74 13.6707C443.073 13.6707 444.154 12.5899 444.154 11.2566C444.154 9.92326 443.073 8.8424 441.74 8.8424C440.407 8.8424 439.326 9.92326 439.326 11.2566C439.326 12.5899 440.407 13.6707 441.74 13.6707ZM441.74 14.8119C443.704 14.8119 445.295 13.2201 445.295 11.2566C445.295 9.29297 443.704 7.70117 441.74 7.70117C439.776 7.70117 438.185 9.29297 438.185 11.2566C438.185 13.2201 439.776 14.8119 441.74 14.8119Z" fill="#04005E"/>
<path d="M452.761 11.2566C452.761 13.2201 451.169 14.8119 449.206 14.8119C447.242 14.8119 445.65 13.2201 445.65 11.2566C445.65 9.29297 447.242 7.70117 449.206 7.70117C451.169 7.70117 452.761 9.29297 452.761 11.2566Z" fill="#04005E"/>
<path fill-rule="evenodd" clip-rule="evenodd" d="M449.206 13.6707C450.539 13.6707 451.62 12.5899 451.62 11.2566C451.62 9.92326 450.539 8.8424 449.206 8.8424C447.872 8.8424 446.792 9.92326 446.792 11.2566C446.792 12.5899 447.872 13.6707 449.206 13.6707ZM449.206 14.8119C451.169 14.8119 452.761 13.2201 452.761 11.2566C452.761 9.29297 451.169 7.70117 449.206 7.70117C447.242 7.70117 445.65 9.29297 445.65 11.2566C445.65 13.2201 447.242 14.8119 449.206 14.8119Z" fill="#04005E"/>
<path d="M460.582 11.2566C460.582 13.2201 458.991 14.8119 457.027 14.8119C455.063 14.8119 453.472 13.2201 453.472 11.2566C453.472 9.29297 455.063 7.70117 457.027 7.70117C458.991 7.70117 460.582 9.29297 460.582 11.2566Z" fill="#04005E"/>
<path fill-rule="evenodd" clip-rule="evenodd" d="M457.027 13.6707C458.36 13.6707 459.441 12.5899 459.441 11.2566C459.441 9.92326 458.36 8.8424 457.027 8.8424C455.694 8.8424 454.613 9.92326 454.613 11.2566C454.613 12.5899 455.694 13.6707 457.027 13.6707ZM457.027 14.8119C458.991 14.8119 460.582 13.2201 460.582 11.2566C460.582 9.29297 458.991 7.70117 457.027 7.70117C455.063 7.70117 453.472 9.29297 453.472 11.2566C453.472 13.2201 455.063 14.8119 457.027 14.8119Z" fill="#04005E"/>
<path d="M476.177 11.2675C476.177 13.2372 474.58 14.8339 472.61 14.8339C470.641 14.8339 469.044 13.2372 469.044 11.2675C469.044 9.29788 470.641 7.70117 472.61 7.70117C474.58 7.70117 476.177 9.29788 476.177 11.2675Z" fill="#04005E"/>
<path fill-rule="evenodd" clip-rule="evenodd" d="M472.61 13.6926C473.95 13.6926 475.035 12.6069 475.035 11.2675C475.035 9.92817 473.95 8.8424 472.61 8.8424C471.271 8.8424 470.185 9.92816 470.185 11.2675C470.185 12.6069 471.271 13.6926 472.61 13.6926ZM472.61 14.8339C474.58 14.8339 476.177 13.2372 476.177 11.2675C476.177 9.29788 474.58 7.70117 472.61 7.70117C470.641 7.70117 469.044 9.29788 469.044 11.2675C469.044 13.2372 470.641 14.8339 472.61 14.8339Z" fill="#04005E"/>
<path d="M484 19.1113C484 21.0809 482.403 22.6776 480.434 22.6776C478.464 22.6776 476.867 21.0809 476.867 19.1113C476.867 17.1416 478.464 15.5449 480.434 15.5449C482.403 15.5449 484 17.1416 484 19.1113Z" fill="#04005E"/>
<path fill-rule="evenodd" clip-rule="evenodd" d="M480.434 21.5364C481.773 21.5364 482.859 20.4506 482.859 19.1113C482.859 17.7719 481.773 16.6862 480.434 16.6862C479.094 16.6862 478.008 17.7719 478.008 19.1113C478.008 20.4506 479.094 21.5364 480.434 21.5364ZM480.434 22.6776C482.403 22.6776 484 21.0809 484 19.1113C484 17.1416 482.403 15.5449 480.434 15.5449C478.464 15.5449 476.867 17.1416 476.867 19.1113C476.867 21.0809 478.464 22.6776 480.434 22.6776Z" fill="#04005E"/>
<path d="M484 26.9714C484 28.935 482.409 30.5268 480.445 30.5268C478.481 30.5268 476.89 28.935 476.89 26.9714C476.89 25.0078 478.481 23.416 480.445 23.416C482.409 23.416 484 25.0078 484 26.9714Z" fill="#04005E"/>
<path fill-rule="evenodd" clip-rule="evenodd" d="M480.445 29.3856C481.778 29.3856 482.859 28.3047 482.859 26.9714C482.859 25.6381 481.778 24.5572 480.445 24.5572C479.112 24.5572 478.031 25.6381 478.031 26.9714C478.031 28.3047 479.112 29.3856 480.445 29.3856ZM480.445 30.5268C482.409 30.5268 484 28.935 484 26.9714C484 25.0078 482.409 23.416 480.445 23.416C478.481 23.416 476.89 25.0078 476.89 26.9714C476.89 28.935 478.481 30.5268 480.445 30.5268Z" fill="#04005E"/>
<path d="M437.473 19.0769C437.473 21.0405 435.881 22.6323 433.918 22.6323C431.954 22.6323 430.362 21.0405 430.362 19.0769C430.362 17.1133 431.954 15.5215 433.918 15.5215C435.881 15.5215 437.473 17.1133 437.473 19.0769Z" fill="#04005E"/>
<path fill-rule="evenodd" clip-rule="evenodd" d="M433.918 21.491C435.251 21.491 436.332 20.4102 436.332 19.0769C436.332 17.7436 435.251 16.6627 433.918 16.6627C432.584 16.6627 431.504 17.7436 431.504 19.0769C431.504 20.4102 432.584 21.491 433.918 21.491ZM433.918 22.6323C435.881 22.6323 437.473 21.0405 437.473 19.0769C437.473 17.1133 435.881 15.5215 433.918 15.5215C431.954 15.5215 430.362 17.1133 430.362 19.0769C430.362 21.0405 431.954 22.6323 433.918 22.6323Z" fill="#04005E"/>
<path d="M437.473 26.9011C437.473 28.8647 435.881 30.4565 433.918 30.4565C431.954 30.4565 430.362 28.8647 430.362 26.9011C430.362 24.9375 431.954 23.3457 433.918 23.3457C435.881 23.3457 437.473 24.9375 437.473 26.9011Z" fill="#04005E"/>
<path fill-rule="evenodd" clip-rule="evenodd" d="M433.918 29.3152C435.251 29.3152 436.332 28.2344 436.332 26.9011C436.332 25.5678 435.251 24.4869 433.918 24.4869C432.584 24.4869 431.504 25.5678 431.504 26.9011C431.504 28.2344 432.584 29.3152 433.918 29.3152ZM433.918 30.4565C435.881 30.4565 437.473 28.8647 437.473 26.9011C437.473 24.9375 435.881 23.3457 433.918 23.3457C431.954 23.3457 430.362 24.9375 430.362 26.9011C430.362 28.8647 431.954 30.4565 433.918 30.4565Z" fill="#04005E"/>
<path d="M437.473 34.0105C437.473 35.9741 435.881 37.5659 433.918 37.5659C431.954 37.5659 430.362 35.9741 430.362 34.0105C430.362 32.0469 431.954 30.4551 433.918 30.4551C435.881 30.4551 437.473 32.0469 437.473 34.0105Z" fill="#04005E"/>
<path fill-rule="evenodd" clip-rule="evenodd" d="M433.918 36.4246C435.251 36.4246 436.332 35.3438 436.332 34.0105C436.332 32.6772 435.251 31.5963 433.918 31.5963C432.584 31.5963 431.504 32.6772 431.504 34.0105C431.504 35.3438 432.584 36.4246 433.918 36.4246ZM433.918 37.5659C435.881 37.5659 437.473 35.9741 437.473 34.0105C437.473 32.0469 435.881 30.4551 433.918 30.4551C431.954 30.4551 430.362 32.0469 430.362 34.0105C430.362 35.9741 431.954 37.5659 433.918 37.5659Z" fill="#04005E"/>
<path d="M437.473 42.5456C437.473 44.5092 435.881 46.101 433.918 46.101C431.954 46.101 430.362 44.5092 430.362 42.5456C430.362 40.582 431.954 38.9902 433.918 38.9902C435.881 38.9902 437.473 40.582 437.473 42.5456Z" fill="#04005E"/>
<path fill-rule="evenodd" clip-rule="evenodd" d="M433.918 44.9598C435.251 44.9598 436.332 43.8789 436.332 42.5456C436.332 41.2123 435.251 40.1315 433.918 40.1315C432.584 40.1315 431.504 41.2123 431.504 42.5456C431.504 43.8789 432.584 44.9598 433.918 44.9598ZM433.918 46.101C435.881 46.101 437.473 44.5092 437.473 42.5456C437.473 40.582 435.881 38.9902 433.918 38.9902C431.954 38.9902 430.362 40.582 430.362 42.5456C430.362 44.5092 431.954 46.101 433.918 46.101Z" fill="#04005E"/>
<path d="M445.295 50.3659C445.295 52.3295 443.704 53.9213 441.74 53.9213C439.776 53.9213 438.185 52.3295 438.185 50.3659C438.185 48.4023 439.776 46.8105 441.74 46.8105C443.704 46.8105 445.295 48.4023 445.295 50.3659Z" fill="#04005E"/>
<path fill-rule="evenodd" clip-rule="evenodd" d="M441.74 52.7801C443.073 52.7801 444.154 51.6992 444.154 50.3659C444.154 49.0326 443.073 47.9518 441.74 47.9518C440.407 47.9518 439.326 49.0326 439.326 50.3659C439.326 51.6992 440.407 52.7801 441.74 52.7801ZM441.74 53.9213C443.704 53.9213 445.295 52.3295 445.295 50.3659C445.295 48.4023 443.704 46.8105 441.74 46.8105C439.776 46.8105 438.185 48.4023 438.185 50.3659C438.185 52.3295 439.776 53.9213 441.74 53.9213Z" fill="#04005E"/>
<path d="M452.761 50.3659C452.761 52.3295 451.169 53.9213 449.206 53.9213C447.242 53.9213 445.65 52.3295 445.65 50.3659C445.65 48.4023 447.242 46.8105 449.206 46.8105C451.169 46.8105 452.761 48.4023 452.761 50.3659Z" fill="#04005E"/>
<path fill-rule="evenodd" clip-rule="evenodd" d="M449.206 52.7801C450.539 52.7801 451.62 51.6992 451.62 50.3659C451.62 49.0326 450.539 47.9518 449.206 47.9518C447.872 47.9518 446.792 49.0326 446.792 50.3659C446.792 51.6992 447.872 52.7801 449.206 52.7801ZM449.206 53.9213C451.169 53.9213 452.761 52.3295 452.761 50.3659C452.761 48.4023 451.169 46.8105 449.206 46.8105C447.242 46.8105 445.65 48.4023 445.65 50.3659C445.65 52.3295 447.242 53.9213 449.206 53.9213Z" fill="#04005E"/>
<path d="M460.582 50.3659C460.582 52.3295 458.991 53.9213 457.027 53.9213C455.063 53.9213 453.472 52.3295 453.472 50.3659C453.472 48.4023 455.063 46.8105 457.027 46.8105C458.991 46.8105 460.582 48.4023 460.582 50.3659Z" fill="#04005E"/>
<path fill-rule="evenodd" clip-rule="evenodd" d="M457.027 52.7801C458.36 52.7801 459.441 51.6992 459.441 50.3659C459.441 49.0326 458.36 47.9518 457.027 47.9518C455.694 47.9518 454.613 49.0326 454.613 50.3659C454.613 51.6992 455.694 52.7801 457.027 52.7801ZM457.027 53.9213C458.991 53.9213 460.582 52.3295 460.582 50.3659C460.582 48.4023 458.991 46.8105 457.027 46.8105C455.063 46.8105 453.472 48.4023 453.472 50.3659C453.472 52.3295 455.063 53.9213 457.027 53.9213Z" fill="#04005E"/>
<path d="M476.179 50.3659C476.179 52.3295 474.587 53.9213 472.624 53.9213C470.66 53.9213 469.068 52.3295 469.068 50.3659C469.068 48.4023 470.66 46.8105 472.624 46.8105C474.587 46.8105 476.179 48.4023 476.179 50.3659Z" fill="#04005E"/>
<path fill-rule="evenodd" clip-rule="evenodd" d="M472.624 52.7801C473.957 52.7801 475.038 51.6992 475.038 50.3659C475.038 49.0326 473.957 47.9518 472.624 47.9518C471.29 47.9518 470.21 49.0326 470.21 50.3659C470.21 51.6992 471.29 52.7801 472.624 52.7801ZM472.624 53.9213C474.587 53.9213 476.179 52.3295 476.179 50.3659C476.179 48.4023 474.587 46.8105 472.624 46.8105C470.66 46.8105 469.068 48.4023 469.068 50.3659C469.068 52.3295 470.66 53.9213 472.624 53.9213Z" fill="#04005E"/>
<path d="M484 42.5456C484 44.5092 482.409 46.101 480.445 46.101C478.481 46.101 476.89 44.5092 476.89 42.5456C476.89 40.582 478.481 38.9902 480.445 38.9902C482.409 38.9902 484 40.582 484 42.5456Z" fill="#04005E"/>
<path fill-rule="evenodd" clip-rule="evenodd" d="M480.445 44.9598C481.778 44.9598 482.859 43.8789 482.859 42.5456C482.859 41.2123 481.778 40.1315 480.445 40.1315C479.112 40.1315 478.031 41.2123 478.031 42.5456C478.031 43.8789 479.112 44.9598 480.445 44.9598ZM480.445 46.101C482.409 46.101 484 44.5092 484 42.5456C484 40.582 482.409 38.9902 480.445 38.9902C478.481 38.9902 476.89 40.582 476.89 42.5456C476.89 44.5092 478.481 46.101 480.445 46.101Z" fill="#04005E"/>
<path d="M452.761 26.9011C452.761 28.8647 451.169 30.4565 449.206 30.4565C447.242 30.4565 445.65 28.8647 445.65 26.9011C445.65 24.9375 447.242 23.3457 449.206 23.3457C451.169 23.3457 452.761 24.9375 452.761 26.9011Z" fill="#04005E"/>
<path fill-rule="evenodd" clip-rule="evenodd" d="M449.206 29.3152C450.539 29.3152 451.62 28.2344 451.62 26.9011C451.62 25.5678 450.539 24.4869 449.206 24.4869C447.872 24.4869 446.792 25.5678 446.792 26.9011C446.792 28.2344 447.872 29.3152 449.206 29.3152ZM449.206 30.4565C451.169 30.4565 452.761 28.8647 452.761 26.9011C452.761 24.9375 451.169 23.3457 449.206 23.3457C447.242 23.3457 445.65 24.9375 445.65 26.9011C445.65 28.8647 447.242 30.4565 449.206 30.4565Z" fill="#04005E"/>
<path d="M445.295 26.9011C445.295 28.8647 443.704 30.4565 441.74 30.4565C439.776 30.4565 438.185 28.8647 438.185 26.9011C438.185 24.9375 439.776 23.3457 441.74 23.3457C443.704 23.3457 445.295 24.9375 445.295 26.9011Z" fill="#04005E"/>
<path fill-rule="evenodd" clip-rule="evenodd" d="M441.74 29.3152C443.073 29.3152 444.154 28.2344 444.154 26.9011C444.154 25.5678 443.073 24.4869 441.74 24.4869C440.407 24.4869 439.326 25.5678 439.326 26.9011C439.326 28.2344 440.407 29.3152 441.74 29.3152ZM441.74 30.4565C443.704 30.4565 445.295 28.8647 445.295 26.9011C445.295 24.9375 443.704 23.3457 441.74 23.3457C439.776 23.3457 438.185 24.9375 438.185 26.9011C438.185 28.8647 439.776 30.4565 441.74 30.4565Z" fill="#04005E"/>
<path d="M441.774 7.70117L472.588 7.70117V14.8339L441.774 14.8339V7.70117Z" fill="#04005E"/>
<path d="M433.786 23.3926L480.291 23.3926V30.5253L433.786 30.5253V23.3926Z" fill="#04005E"/>
<path d="M484 19.4355L484 26.9019L476.889 26.9019L476.889 19.4355L484 19.4355Z" fill="#04005E"/>
<path d="M441.774 46.7871L472.588 46.7871V53.9198H441.774V46.7871Z" fill="#04005E"/>
<path d="M437.474 19.0801L437.474 42.5456L430.363 42.5456L430.363 19.0801L437.474 19.0801Z" fill="#04005E"/>
<path fill-rule="evenodd" clip-rule="evenodd" d="M437.188 42.2603L437.188 19.3654L430.648 19.3654L430.648 42.2603L437.188 42.2603ZM437.474 19.0801L430.363 19.0801L430.363 42.5456L437.474 42.5456L437.474 19.0801Z" fill="#04005E"/>
</svg>
