<svg width="418" height="60" viewBox="0 0 418 60" fill="none" xmlns="http://www.w3.org/2000/svg">
<rect y="53" width="418" height="7" rx="3.5" fill="#04005E"/>
<path d="M129.025 3.79489C129.025 1.69903 130.724 0 132.82 0H163.179C165.275 0 166.974 1.69903 166.974 3.79489C166.974 5.89075 165.275 7.58978 163.179 7.58978H132.82C130.724 7.58978 129.025 5.89075 129.025 3.79489Z" fill="#04005E"/>
<path d="M125.23 37.9487C123.134 37.9487 121.435 36.2497 121.435 34.1538V11.3845C121.435 9.28863 123.134 7.5896 125.23 7.5896C127.326 7.5896 129.025 9.28863 129.025 11.3845V34.1538C129.025 36.2497 127.326 37.9487 125.23 37.9487Z" fill="#04005E"/>
<path d="M129.025 41.7436C129.025 39.6478 130.724 37.9487 132.82 37.9487H163.179C165.275 37.9487 166.974 39.6478 166.974 41.7436C166.974 43.8395 165.275 45.5385 163.179 45.5385H132.82C130.724 45.5385 129.025 43.8395 129.025 41.7436Z" fill="#04005E"/>
<path d="M129.025 18.9746C129.025 16.8787 130.724 15.1797 132.82 15.1797H163.179C165.275 15.1797 166.974 16.8787 166.974 18.9746C166.974 21.0704 165.275 22.7695 163.179 22.7695H132.82C130.724 22.7695 129.025 21.0704 129.025 18.9746Z" fill="#04005E"/>
<path d="M166.974 11.3847C167.094 8.12391 164.333 7.49611 162.938 7.58981L166.974 3.79492C167.333 6.94328 169.814 7.63666 171.01 7.58981L166.974 11.3847Z" fill="#04005E"/>
<path d="M166.943 26.5644C167.062 23.3036 164.302 22.6758 162.907 22.7695L166.943 18.9746C167.301 22.123 169.783 22.8164 170.978 22.7695L166.943 26.5644Z" fill="#04005E"/>
<path d="M128.985 41.7436C129.104 38.4828 126.344 37.855 124.949 37.9487L128.985 34.1538C129.343 37.3022 131.825 37.9956 133.02 37.9487L128.985 41.7436Z" fill="#04005E"/>
<path d="M167.013 41.7436C166.894 38.4828 169.654 37.855 171.049 37.9487L167.013 34.1538C166.655 37.3022 164.173 37.9956 162.978 37.9487L167.013 41.7436Z" fill="#04005E"/>
<path d="M166.963 18.9748C166.844 15.714 169.604 15.0862 170.999 15.1799L166.963 11.385C166.604 14.5334 164.123 15.2268 162.927 15.1799L166.963 18.9748Z" fill="#04005E"/>
<path d="M129.025 11.3847C128.905 8.12391 131.666 7.49611 133.061 7.58981L129.025 3.79492C128.666 6.94328 126.185 7.63666 124.989 7.58981L129.025 11.3847Z" fill="#04005E"/>
<path d="M129.025 26.5643C128.905 23.3035 131.666 22.6757 133.061 22.7694L129.025 18.9745C128.666 22.1228 126.185 22.8162 124.989 22.7694L129.025 26.5643Z" fill="#04005E"/>
<path d="M166.974 11.3848C166.974 9.28893 168.673 7.5899 170.769 7.5899C172.865 7.5899 174.564 9.28893 174.564 11.3848C174.564 13.4807 172.865 15.1797 170.769 15.1797C168.673 15.1797 166.974 13.4807 166.974 11.3848Z" fill="#04005E"/>
<path d="M159.384 18.9742C159.384 16.8783 161.083 15.1793 163.179 15.1793C165.275 15.1793 166.974 16.8783 166.974 18.9742C166.974 21.07 165.275 22.769 163.179 22.769C161.083 22.769 159.384 21.07 159.384 18.9742Z" fill="#04005E"/>
<path d="M166.974 34.1538C166.974 32.058 168.673 30.3589 170.769 30.3589C172.865 30.3589 174.564 32.058 174.564 34.1538C174.564 36.2497 172.865 37.9487 170.769 37.9487C168.673 37.9487 166.974 36.2497 166.974 34.1538Z" fill="#04005E"/>
<path d="M166.974 26.5638C166.974 24.4679 168.673 22.7689 170.769 22.7689C172.865 22.7689 174.564 24.4679 174.564 26.5638C174.564 28.6596 172.865 30.3586 170.769 30.3586C168.673 30.3586 166.974 28.6596 166.974 26.5638Z" fill="#04005E"/>
<path d="M174.564 34.2944L166.974 34.2944L166.974 26.7047L174.564 26.7047L174.564 34.2944Z" fill="#04005E"/>
<path d="M129.025 3.79489C129.025 1.69903 130.724 0 132.82 0H163.179C165.275 0 166.974 1.69903 166.974 3.79489C166.974 5.89075 165.275 7.58978 163.179 7.58978H132.82C130.724 7.58978 129.025 5.89075 129.025 3.79489Z" fill="#04005E"/>
<path d="M125.23 37.9487C123.134 37.9487 121.435 36.2497 121.435 34.1538V11.3845C121.435 9.28863 123.134 7.5896 125.23 7.5896C127.326 7.5896 129.025 9.28863 129.025 11.3845V34.1538C129.025 36.2497 127.326 37.9487 125.23 37.9487Z" fill="#04005E"/>
<path d="M129.025 41.7436C129.025 39.6478 130.724 37.9487 132.82 37.9487H163.179C165.275 37.9487 166.974 39.6478 166.974 41.7436C166.974 43.8395 165.275 45.5385 163.179 45.5385H132.82C130.724 45.5385 129.025 43.8395 129.025 41.7436Z" fill="#04005E"/>
<path d="M129.025 18.9746C129.025 16.8787 130.724 15.1797 132.82 15.1797H163.179C165.275 15.1797 166.974 16.8787 166.974 18.9746C166.974 21.0704 165.275 22.7695 163.179 22.7695H132.82C130.724 22.7695 129.025 21.0704 129.025 18.9746Z" fill="#04005E"/>
<path d="M166.974 11.3847C167.094 8.12391 164.333 7.49611 162.938 7.58981L166.974 3.79492C167.333 6.94328 169.814 7.63666 171.01 7.58981L166.974 11.3847Z" fill="#04005E"/>
<path d="M166.943 26.5644C167.062 23.3036 164.302 22.6758 162.907 22.7695L166.943 18.9746C167.301 22.123 169.783 22.8164 170.978 22.7695L166.943 26.5644Z" fill="#04005E"/>
<path d="M128.985 41.7437C129.104 38.4829 126.344 37.8551 124.949 37.9488L128.985 34.1539C129.343 37.3023 131.825 37.9957 133.02 37.9488L128.985 41.7437Z" fill="#04005E"/>
<path d="M128.985 18.9743C129.104 15.7135 126.344 15.0857 124.949 15.1794L128.985 11.3845C129.343 14.5329 131.825 15.2263 133.02 15.1794L128.985 18.9743Z" fill="#04005E"/>
<path d="M167.013 41.7436C166.894 38.4828 169.654 37.855 171.049 37.9487L167.013 34.1538C166.655 37.3022 164.173 37.9956 162.978 37.9487L167.013 41.7436Z" fill="#04005E"/>
<path d="M166.963 18.9748C166.844 15.714 169.604 15.0862 170.999 15.1799L166.963 11.385C166.604 14.5334 164.123 15.2268 162.927 15.1799L166.963 18.9748Z" fill="#04005E"/>
<path d="M166.974 11.3848C166.974 9.28893 168.673 7.5899 170.769 7.5899C172.865 7.5899 174.564 9.28893 174.564 11.3848C174.564 13.4807 172.865 15.1797 170.769 15.1797C168.673 15.1797 166.974 13.4807 166.974 11.3848Z" fill="#04005E"/>
<path d="M159.384 18.9742C159.384 16.8783 161.083 15.1793 163.179 15.1793C165.275 15.1793 166.974 16.8783 166.974 18.9742C166.974 21.07 165.275 22.769 163.179 22.769C161.083 22.769 159.384 21.07 159.384 18.9742Z" fill="#04005E"/>
<path d="M166.974 34.1538C166.974 32.058 168.673 30.3589 170.769 30.3589C172.865 30.3589 174.564 32.058 174.564 34.1538C174.564 36.2497 172.865 37.9487 170.769 37.9487C168.673 37.9487 166.974 36.2497 166.974 34.1538Z" fill="#04005E"/>
<path d="M166.974 26.5638C166.974 24.4679 168.673 22.7689 170.769 22.7689C172.865 22.7689 174.564 24.4679 174.564 26.5638C174.564 28.6596 172.865 30.3586 170.769 30.3586C168.673 30.3586 166.974 28.6596 166.974 26.5638Z" fill="#04005E"/>
<path d="M174.564 34.2944L166.974 34.2944L166.974 26.7047L174.564 26.7047L174.564 34.2944Z" fill="#04005E"/>
<path d="M7.58984 41.7439C7.58984 43.8398 5.89081 45.5388 3.79495 45.5388C1.69909 45.5388 5.64153e-05 43.8398 5.65985e-05 41.7439L5.99161e-05 3.79501C6.00994e-05 1.69915 1.69909 0.000113926 3.79495 0.000114109C5.89082 0.000114292 7.58985 1.69915 7.58985 3.79501L7.58984 41.7439Z" fill="#04005E"/>
<path d="M52.5657 41.7437C52.5657 43.8395 50.8666 45.5386 48.7708 45.5386C46.6749 45.5386 44.9759 43.8395 44.9759 41.7437L44.9759 3.79476C44.9759 1.6989 46.6749 -0.000130215 48.7708 -0.000130031C50.8666 -0.000129848 52.5657 1.6989 52.5657 3.79476L52.5657 41.7437Z" fill="#04005E"/>
<path d="M11.3847 22.7693C9.28888 22.7693 7.58984 21.0703 7.58984 18.9744C7.58984 16.8785 9.28887 15.1795 11.3847 15.1795L40.9006 15.1795C42.9964 15.1795 44.6955 16.8785 44.6955 18.9744C44.6955 21.0703 42.9964 22.7693 40.9006 22.7693L11.3847 22.7693Z" fill="#04005E"/>
<path d="M44.9775 26.5649C45.09 23.3041 42.4944 22.6763 41.1826 22.77L44.9775 18.9751C45.3148 22.1235 47.648 22.8168 48.7724 22.77L44.9775 26.5649Z" fill="#04005E"/>
<path d="M7.59103 18.9745C7.70348 15.7138 5.10796 15.086 3.79614 15.1797L7.59103 11.3848C7.92836 14.5331 10.2615 15.2265 11.3859 15.1797L7.59103 18.9745Z" fill="#04005E"/>
<path d="M44.9773 18.975C44.8649 15.7142 47.4604 15.0864 48.7722 15.1801L44.9773 11.3853C44.64 14.5336 42.3068 15.227 41.1824 15.1801L44.9773 18.975Z" fill="#04005E"/>
<path d="M7.59061 26.5648C7.47817 23.304 10.0737 22.6762 11.3855 22.7699L7.59061 18.975C7.25329 22.1234 4.92013 22.8168 3.79572 22.7699L7.59061 26.5648Z" fill="#04005E"/>
<path d="M40.9013 22.7693C38.8055 22.7693 37.1064 21.0703 37.1064 18.9744C37.1064 16.8785 38.8055 15.1795 40.9013 15.1795H41.1824C43.2783 15.1795 44.9773 16.8785 44.9773 18.9744C44.9773 21.0703 43.2783 22.7693 41.1824 22.7693H40.9013Z" fill="#04005E"/>
<path d="M67.7451 3.79489C67.7451 1.69903 69.4441 0 71.54 0H101.899C103.995 0 105.694 1.69903 105.694 3.79489C105.694 5.89075 103.995 7.58978 101.899 7.58978H71.54C69.4441 7.58978 67.7451 5.89075 67.7451 3.79489Z" fill="#04005E"/>
<path d="M63.9504 37.9453C61.8545 37.9453 60.1555 36.2463 60.1555 34.1504V11.3811C60.1555 9.28521 61.8545 7.58618 63.9504 7.58618C66.0463 7.58618 67.7453 9.28521 67.7453 11.3811V34.1504C67.7453 36.2463 66.0463 37.9453 63.9504 37.9453Z" fill="#04005E"/>
<path d="M109.73 37.9453C107.501 37.9453 105.694 36.2463 105.694 34.1504V11.3811C105.694 9.28521 107.501 7.58618 109.73 7.58618C111.959 7.58618 113.766 9.28521 113.766 11.3811V34.1504C113.766 36.2463 111.959 37.9453 109.73 37.9453Z" fill="#04005E"/>
<path d="M67.7451 41.7402C67.7451 39.6443 69.4441 37.9453 71.54 37.9453H101.899C103.995 37.9453 105.694 39.6443 105.694 41.7402C105.694 43.8361 103.995 45.5351 101.899 45.5351H71.54C69.4441 45.5351 67.7451 43.8361 67.7451 41.7402Z" fill="#04005E"/>
<path d="M105.694 11.3847C105.814 8.12391 103.054 7.49611 101.658 7.58981L105.694 3.79492C106.053 6.94328 108.534 7.63666 109.73 7.58981L105.694 11.3847Z" fill="#04005E"/>
<path d="M67.7441 41.7402C67.8637 38.4794 65.1034 37.8516 63.7083 37.9453L67.7441 34.1504C68.1028 37.2987 70.5841 37.9921 71.7799 37.9453L67.7441 41.7402Z" fill="#04005E"/>
<path d="M105.694 41.7402C105.575 38.4794 108.335 37.8516 109.73 37.9453L105.694 34.1504C105.336 37.2987 102.854 37.9921 101.659 37.9453L105.694 41.7402Z" fill="#04005E"/>
<path d="M67.7452 11.381C67.6256 8.12025 70.3859 7.49245 71.781 7.58615L67.7452 3.79126C67.3864 6.93961 64.9051 7.633 63.7093 7.58615L67.7452 11.381Z" fill="#04005E"/>
<path d="M189.744 3.79489C189.744 1.69903 191.443 0 193.539 0H223.898C225.994 0 227.693 1.69903 227.693 3.79489C227.693 5.89075 225.994 7.58978 223.898 7.58978H193.539C191.443 7.58978 189.744 5.89075 189.744 3.79489Z" fill="#04005E"/>
<path d="M185.949 37.9453C183.853 37.9453 182.154 36.2463 182.154 34.1504V11.3811C182.154 9.28521 183.853 7.58618 185.949 7.58618C188.045 7.58618 189.744 9.28521 189.744 11.3811V34.1504C189.744 36.2463 188.045 37.9453 185.949 37.9453Z" fill="#04005E"/>
<path d="M231.729 37.9453C229.5 37.9453 227.693 36.2463 227.693 34.1504V11.3811C227.693 9.28521 229.5 7.58618 231.729 7.58618C233.958 7.58618 235.765 9.28521 235.765 11.3811V34.1504C235.765 36.2463 233.958 37.9453 231.729 37.9453Z" fill="#04005E"/>
<path d="M189.744 41.7402C189.744 39.6443 191.443 37.9453 193.539 37.9453H223.898C225.994 37.9453 227.693 39.6443 227.693 41.7402C227.693 43.8361 225.994 45.5351 223.898 45.5351H193.539C191.443 45.5351 189.744 43.8361 189.744 41.7402Z" fill="#04005E"/>
<path d="M227.693 11.3847C227.813 8.12391 225.052 7.49611 223.657 7.58981L227.693 3.79492C228.052 6.94328 230.533 7.63666 231.729 7.58981L227.693 11.3847Z" fill="#04005E"/>
<path d="M189.743 41.7402C189.862 38.4794 187.102 37.8516 185.707 37.9453L189.743 34.1504C190.102 37.2987 192.583 37.9921 193.779 37.9453L189.743 41.7402Z" fill="#04005E"/>
<path d="M227.693 41.7402C227.574 38.4794 230.334 37.8516 231.729 37.9453L227.693 34.1504C227.334 37.2987 224.853 37.9921 223.657 37.9453L227.693 41.7402Z" fill="#04005E"/>
<path d="M189.744 11.381C189.624 8.12025 192.385 7.49245 193.78 7.58615L189.744 3.79126C189.385 6.93961 186.904 7.633 185.708 7.58615L189.744 11.381Z" fill="#04005E"/>
<path d="M418 41.6035L410.41 41.6035L410.41 11.2444L418 11.2444L418 41.6035Z" fill="#04005E"/>
<path d="M398.885 7.58984L398.885 6.10352e-05L406.475 6.07034e-05L406.475 7.58984L398.885 7.58984Z" fill="#04005E"/>
<path d="M376.396 45.5386L376.396 37.9488L383.986 37.9488L383.986 45.5386L376.396 45.5386Z" fill="#04005E"/>
<path d="M372.461 34.1545L364.871 34.1545L364.871 3.79541L372.461 3.79541L372.461 34.1545Z" fill="#04005E"/>
<path d="M395.231 34.0139L387.641 34.0139L387.641 11.2446L395.231 11.2446L395.231 34.0139Z" fill="#04005E"/>
<path d="M372.461 41.7437C372.461 39.6478 374.16 37.9488 376.256 37.9488C378.352 37.9488 380.051 39.6478 380.051 41.7437C380.051 43.8395 378.352 45.5386 376.256 45.5386C374.16 45.5386 372.461 43.8395 372.461 41.7437Z" fill="#04005E"/>
<path d="M380.051 41.7437C380.051 39.6478 381.75 37.9488 383.845 37.9488C385.941 37.9488 387.64 39.6478 387.64 41.7437C387.64 43.8395 385.941 45.5386 383.845 45.5386C381.75 45.5386 380.051 43.8395 380.051 41.7437Z" fill="#04005E"/>
<path d="M402.821 3.79495C402.821 1.69909 404.52 5.95665e-05 406.616 5.97497e-05C408.711 5.99329e-05 410.41 1.69909 410.41 3.79495C410.41 5.89081 408.711 7.58984 406.616 7.58984C404.52 7.58984 402.821 5.89081 402.821 3.79495Z" fill="#04005E"/>
<path d="M395.231 3.79495C395.231 1.69909 396.93 5.95665e-05 399.026 5.97497e-05C401.122 5.99329e-05 402.821 1.69909 402.821 3.79495C402.821 5.89081 401.122 7.58984 399.026 7.58984C396.93 7.58984 395.231 5.89081 395.231 3.79495Z" fill="#04005E"/>
<path d="M410.41 41.7437C410.41 39.6478 412.109 37.9488 414.205 37.9488C416.301 37.9488 418 39.6478 418 41.7437C418 43.8395 416.301 45.5386 414.205 45.5386C412.109 45.5386 410.41 43.8395 410.41 41.7437Z" fill="#04005E"/>
<path d="M364.871 34.1543C364.871 32.0585 366.57 30.3594 368.666 30.3594C370.762 30.3594 372.461 32.0585 372.461 34.1543C372.461 36.2502 370.762 37.9492 368.666 37.9492C366.57 37.9492 364.871 36.2502 364.871 34.1543Z" fill="#04005E"/>
<path d="M364.871 3.79495C364.871 1.69909 366.57 5.95665e-05 368.666 5.97497e-05C370.762 5.99329e-05 372.461 1.69909 372.461 3.79495C372.461 5.89081 370.762 7.58984 368.666 7.58984C366.57 7.58984 364.871 5.89081 364.871 3.79495Z" fill="#04005E"/>
<path d="M410.41 11.385C410.41 9.28918 412.109 7.59015 414.205 7.59015C416.301 7.59015 418 9.28918 418 11.385C418 13.4809 416.301 15.1799 414.205 15.1799C412.109 15.1799 410.41 13.4809 410.41 11.385Z" fill="#04005E"/>
<path d="M387.641 34.1543C387.641 32.0585 389.34 30.3594 391.436 30.3594C393.532 30.3594 395.231 32.0585 395.231 34.1543C395.231 36.2502 393.532 37.9492 391.436 37.9492C389.34 37.9492 387.641 36.2502 387.641 34.1543Z" fill="#04005E"/>
<path d="M387.641 11.385C387.641 9.28918 389.34 7.59015 391.436 7.59015C393.532 7.59015 395.231 9.28918 395.231 11.385C395.231 13.4809 393.532 15.1799 391.436 15.1799C389.34 15.1799 387.641 13.4809 387.641 11.385Z" fill="#04005E"/>
<path d="M368.666 37.9488C371.927 37.8292 372.555 40.5895 372.461 41.9846L376.256 37.9488C373.108 37.59 372.414 35.1087 372.461 33.9129L368.666 37.9488Z" fill="#04005E"/>
<path d="M387.642 34.1544C387.754 37.4152 385.158 38.0429 383.847 37.9492L387.642 41.7441C387.979 38.5958 390.312 37.9024 391.436 37.9492L387.642 34.1544Z" fill="#04005E"/>
<path d="M406.616 7.59014C409.877 7.47056 410.505 10.2309 410.411 11.626L414.206 7.59014C411.058 7.2314 410.364 4.75011 410.411 3.5543L406.616 7.59014Z" fill="#04005E"/>
<path d="M395.231 3.79474C395.351 7.05553 392.59 7.68333 391.195 7.58963L395.231 11.3845C395.59 8.23617 398.071 7.54278 399.267 7.58963L395.231 3.79474Z" fill="#04005E"/>
<path d="M251.025 3.79489C251.025 1.69903 252.724 0 254.82 0H285.179C287.275 0 288.974 1.69903 288.974 3.79489C288.974 5.89075 287.275 7.58978 285.179 7.58978H254.82C252.724 7.58978 251.025 5.89075 251.025 3.79489Z" fill="#04005E"/>
<path d="M247.23 37.9487C245.134 37.9487 243.435 36.2497 243.435 34.1538V11.3845C243.435 9.28863 245.134 7.5896 247.23 7.5896C249.326 7.5896 251.025 9.28863 251.025 11.3845V34.1538C251.025 36.2497 249.326 37.9487 247.23 37.9487Z" fill="#04005E"/>
<path d="M251.025 41.7436C251.025 39.6478 252.724 37.9487 254.82 37.9487H285.179C287.275 37.9487 288.974 39.6478 288.974 41.7436C288.974 43.8395 287.275 45.5385 285.179 45.5385H254.82C252.724 45.5385 251.025 43.8395 251.025 41.7436Z" fill="#04005E"/>
<path d="M288.974 11.3847C289.093 8.12391 286.333 7.49611 284.938 7.58981L288.974 3.79492C289.333 6.94328 291.814 7.63666 293.01 7.58981L288.974 11.3847Z" fill="#04005E"/>
<path d="M251.024 41.7436C251.143 38.4828 248.383 37.855 246.988 37.9487L251.024 34.1538C251.382 37.3022 253.864 37.9956 255.059 37.9487L251.024 41.7436Z" fill="#04005E"/>
<path d="M288.974 41.7441C288.854 38.4833 291.615 37.8555 293.01 37.9492L288.974 34.1543C288.615 37.3027 286.134 37.996 284.938 37.9492L288.974 41.7441Z" fill="#04005E"/>
<path d="M251.025 11.3847C250.905 8.12391 253.665 7.49611 255.061 7.58981L251.025 3.79492C250.666 6.94328 248.185 7.63666 246.989 7.58981L251.025 11.3847Z" fill="#04005E"/>
<path d="M288.974 11.3848C288.974 9.28893 290.673 7.5899 292.769 7.5899C294.864 7.5899 296.563 9.28893 296.563 11.3848C296.563 13.4807 294.864 15.1797 292.769 15.1797C290.673 15.1797 288.974 13.4807 288.974 11.3848Z" fill="#04005E"/>
<path d="M288.974 34.1538C288.974 32.058 290.673 30.3589 292.769 30.3589C294.864 30.3589 296.563 32.058 296.563 34.1538C296.563 36.2497 294.864 37.9487 292.769 37.9487C290.673 37.9487 288.974 36.2497 288.974 34.1538Z" fill="#04005E"/>
<path d="M327.486 11.3847C327.605 8.12391 324.845 7.49611 323.45 7.58981L327.486 3.79492C327.845 6.94328 330.326 7.63666 331.522 7.58981L327.486 11.3847Z" fill="#04005E"/>
<path d="M335.074 11.3847C334.954 8.12391 337.714 7.49611 339.109 7.58981L335.074 3.79492C334.715 6.94328 332.234 7.63666 331.038 7.58981L335.074 11.3847Z" fill="#04005E"/>
<rect x="335.075" y="41.7959" width="7.58979" height="31.0338" transform="rotate(-180 335.075 41.7959)" fill="#04005E"/>
<ellipse cx="331.28" cy="41.9401" rx="3.79489" ry="3.87922" transform="rotate(-180 331.28 41.9401)" fill="#04005E"/>
<ellipse cx="331.28" cy="10.9062" rx="3.79489" ry="3.87922" transform="rotate(-180 331.28 10.9062)" fill="#04005E"/>
<rect x="304.152" y="7.58984" width="7.58978" height="53.1285" rx="3.79489" transform="rotate(-90 304.152 7.58984)" fill="#04005E"/>
</svg>
