<svg width="360" height="54" viewBox="0 0 360 54" fill="none" xmlns="http://www.w3.org/2000/svg">
<rect x="311.074" y="46.1777" width="22.814" height="7.42143" fill="#04005E"/>
<rect x="311.074" y="23.9121" width="22.5392" height="7.42143" fill="#04005E"/>
<path fill-rule="evenodd" clip-rule="evenodd" d="M308.05 20.2031C308.05 22.2526 306.388 23.9138 304.339 23.9138C306.388 23.9138 308.05 25.5751 308.05 27.6246C308.05 25.5751 309.711 23.9138 311.76 23.9138C309.711 23.9138 308.05 22.2526 308.05 20.2031Z" fill="#04005E"/>
<path fill-rule="evenodd" clip-rule="evenodd" d="M308.05 27.6246C308.05 29.674 306.388 31.3353 304.339 31.3353C306.388 31.3353 308.05 32.9966 308.05 35.046C308.05 32.9966 309.711 31.3353 311.76 31.3353C309.711 31.3353 308.05 29.674 308.05 27.6246Z" fill="#04005E"/>
<path fill-rule="evenodd" clip-rule="evenodd" d="M308.05 42.4668C308.05 44.5162 306.388 46.1775 304.339 46.1775C306.388 46.1775 308.05 47.8388 308.05 49.8882C308.05 47.8388 309.711 46.1775 311.76 46.1775C309.711 46.1775 308.05 44.5162 308.05 42.4668Z" fill="#04005E"/>
<path fill-rule="evenodd" clip-rule="evenodd" d="M337.736 27.623C337.736 29.6725 336.075 31.3338 334.025 31.3338C336.075 31.3338 337.736 32.9951 337.736 35.0445C337.736 32.9951 339.397 31.3338 341.447 31.3338C339.397 31.3338 337.736 29.6725 337.736 27.623Z" fill="#04005E"/>
<path fill-rule="evenodd" clip-rule="evenodd" d="M337.736 42.4668C337.736 44.5162 336.075 46.1775 334.025 46.1775C336.075 46.1775 337.736 47.8388 337.736 49.8882C337.736 47.8388 339.397 46.1775 341.447 46.1775C339.397 46.1775 337.736 44.5162 337.736 42.4668Z" fill="#04005E"/>
<rect x="300.629" y="12.918" width="7.42143" height="29.6857" fill="#04005E"/>
<rect x="337.735" y="35.1816" width="7.42143" height="7.42143" fill="#04005E"/>
<rect x="352.578" y="12.918" width="7.42143" height="37.1072" fill="#04005E"/>
<circle cx="311.761" cy="27.6228" r="3.71072" fill="#04005E"/>
<circle cx="311.761" cy="49.8885" r="3.71072" fill="#04005E"/>
<circle cx="304.341" cy="12.781" r="3.71072" fill="#04005E"/>
<circle cx="356.289" cy="12.781" r="3.71072" fill="#04005E"/>
<circle cx="356.289" cy="49.8885" r="3.71072" fill="#04005E"/>
<circle cx="304.34" cy="42.4666" r="3.71072" fill="#04005E"/>
<circle cx="341.446" cy="35.0447" r="3.71072" fill="#04005E"/>
<circle cx="334.026" cy="27.6228" r="3.71072" fill="#04005E"/>
<circle cx="334.026" cy="49.8885" r="3.71072" fill="#04005E"/>
<circle cx="341.446" cy="42.4666" r="3.71072" fill="#04005E"/>
<path d="M67.8477 11.1326C67.8477 9.08322 69.509 7.42188 71.5584 7.42188H101.244C103.293 7.42188 104.955 9.08322 104.955 11.1326C104.955 13.182 103.293 14.8433 101.244 14.8433H71.5584C69.509 14.8433 67.8477 13.182 67.8477 11.1326Z" fill="#04005E"/>
<path d="M64.1375 44.5293C62.0881 44.5293 60.4268 42.868 60.4268 40.8186V18.5543C60.4268 16.5049 62.0881 14.8436 64.1375 14.8436C66.1868 14.8436 67.8482 16.5049 67.8482 18.5543V40.8186C67.8482 42.868 66.1868 44.5293 64.1375 44.5293Z" fill="#04005E"/>
<path d="M67.8477 48.24C67.8477 46.1906 69.509 44.5293 71.5584 44.5293H101.244C103.293 44.5293 104.955 46.1906 104.955 48.24C104.955 50.2894 103.293 51.9507 101.244 51.9507H71.5584C69.509 51.9507 67.8477 50.2894 67.8477 48.24Z" fill="#04005E"/>
<path d="M67.8477 25.9763C67.8477 23.927 69.509 22.2656 71.5584 22.2656H101.244C103.293 22.2656 104.955 23.927 104.955 25.9763C104.955 28.0257 103.293 29.6871 101.244 29.6871H71.5584C69.509 29.6871 67.8477 28.0257 67.8477 25.9763Z" fill="#04005E"/>
<path d="M104.955 33.398C105.072 30.2095 102.373 29.5957 101.009 29.6873L104.955 25.9766C105.306 29.0551 107.732 29.7331 108.901 29.6873L104.955 33.398Z" fill="#04005E"/>
<path d="M67.8467 48.2398C67.9636 45.0513 65.2646 44.4375 63.9004 44.5291L67.8467 40.8184C68.1975 43.8969 70.6237 44.5749 71.793 44.5291L67.8467 48.2398Z" fill="#04005E"/>
<path d="M67.8467 25.9761C67.9636 22.7877 65.2646 22.1738 63.9004 22.2654L67.8467 18.5547C68.1975 21.6332 70.6238 22.3112 71.793 22.2654L67.8467 25.9761Z" fill="#04005E"/>
<path d="M104.955 48.2398C104.838 45.0513 107.537 44.4375 108.901 44.5291L104.955 40.8184C104.604 43.8969 102.178 44.5749 101.009 44.5291L104.955 48.2398Z" fill="#04005E"/>
<path d="M104.956 11.1324C104.839 7.94391 107.538 7.33003 108.902 7.42166L104.956 3.71094C104.605 6.78946 102.179 7.46747 101.01 7.42166L104.956 11.1324Z" fill="#04005E"/>
<path d="M67.8486 18.5542C67.7317 15.3658 70.4308 14.7519 71.7949 14.8435L67.8486 11.1328C67.4978 14.2113 65.0716 14.8893 63.9023 14.8435L67.8486 18.5542Z" fill="#04005E"/>
<path d="M67.8486 33.3969C67.7317 30.2084 70.4308 29.5945 71.7949 29.6861L67.8486 25.9754C67.4978 29.0539 65.0716 29.7319 63.9023 29.6861L67.8486 33.3969Z" fill="#04005E"/>
<circle cx="101.244" cy="25.9748" r="3.71072" transform="rotate(-180 101.244 25.9748)" fill="#04005E"/>
<circle cx="108.666" cy="40.8166" r="3.71072" transform="rotate(-180 108.666 40.8166)" fill="#04005E"/>
<circle cx="108.666" cy="33.3967" r="3.71072" transform="rotate(-180 108.666 33.3967)" fill="#04005E"/>
<rect x="112.377" y="40.9551" width="7.42144" height="7.42143" transform="rotate(-180 112.377 40.9551)" fill="#04005E"/>
<circle cx="108.666" cy="3.71116" r="3.71072" transform="rotate(-180 108.666 3.71116)" fill="#04005E"/>
<path d="M244.408 16.4922C242.359 16.4922 240.697 18.5689 240.697 21.1306L240.697 48.961C240.697 51.5227 242.359 53.5994 244.408 53.5994C246.457 53.5994 248.119 51.5227 248.119 48.961L248.119 21.1306C248.119 18.004 246.457 16.4922 244.408 16.4922Z" fill="#04005E"/>
<path d="M248.118 12.7815C248.118 14.8308 249.78 16.4922 251.829 16.4922L281.515 16.4922C283.564 16.4922 285.225 14.8308 285.225 12.7815C285.225 10.7321 283.564 9.07075 281.515 9.07075L251.829 9.07075C249.78 9.07075 248.118 10.7321 248.118 12.7815Z" fill="#04005E"/>
<path d="M248.118 35.0451C248.118 37.0945 249.78 38.7559 251.829 38.7559L281.515 38.7559C283.564 38.7559 285.225 37.0945 285.225 35.0451C285.225 32.9958 283.564 31.3344 281.515 31.3344L251.829 31.3344C249.78 31.3344 248.118 32.9958 248.118 35.0451Z" fill="#04005E"/>
<path d="M285.226 27.6235C285.343 30.812 282.643 31.4258 281.279 31.3342L285.226 35.0449C285.576 31.9664 288.003 31.2884 289.172 31.3342L285.226 27.6235Z" fill="#04005E"/>
<path d="M248.07 35.0454C248.187 38.2338 245.488 38.8477 244.124 38.7561L248.07 42.4668C248.421 39.3883 250.847 38.7103 252.017 38.7561L248.07 35.0454Z" fill="#04005E"/>
<path d="M248.119 12.7817C248.236 15.9702 245.537 16.584 244.173 16.4924L248.119 20.2031C248.47 17.1246 250.896 16.4466 252.065 16.4924L248.119 12.7817Z" fill="#04005E"/>
<path d="M285.226 12.7817C285.109 15.9702 287.808 16.584 289.172 16.4924L285.226 20.2031C284.875 17.1246 282.449 16.4466 281.279 16.4924L285.226 12.7817Z" fill="#04005E"/>
<path d="M248.119 27.6235C248.002 30.812 250.701 31.4258 252.065 31.3342L248.119 35.0449C247.768 31.9664 245.342 31.2884 244.173 31.3342L248.119 27.6235Z" fill="#04005E"/>
<circle r="3.71072" transform="matrix(-1 1.74846e-07 1.74846e-07 1 281.515 35.0467)" fill="#04005E"/>
<circle r="3.71072" transform="matrix(-1 1.74846e-07 1.74846e-07 1 288.936 20.2029)" fill="#04005E"/>
<circle r="3.71072" transform="matrix(-1 1.74846e-07 1.74846e-07 1 244.408 20.2029)" fill="#04005E"/>
<circle r="3.71072" transform="matrix(-1 1.74846e-07 1.74846e-07 1 288.936 27.6248)" fill="#04005E"/>
<rect width="7.42144" height="7.42143" transform="matrix(-1 1.74846e-07 1.74846e-07 1 292.646 20.0664)" fill="#04005E"/>
<path d="M120.36 18.5545C120.36 20.6038 122.021 22.2652 124.071 22.2652C126.12 22.2652 127.781 20.6038 127.781 18.5545C127.781 16.5051 126.12 14.8438 124.071 14.8438C122.021 14.8438 120.36 16.5051 120.36 18.5545Z" fill="#04005E"/>
<path d="M120.36 40.8186C120.36 38.7692 122.021 37.1079 124.071 37.1079C126.12 37.1079 127.781 38.7692 127.781 40.8186C127.781 42.868 126.12 44.5293 124.071 44.5293C122.021 44.5293 120.36 42.868 120.36 40.8186Z" fill="#04005E"/>
<path d="M127.781 18.5543C127.672 15.3658 130.209 14.7519 131.492 14.8435L127.781 11.1328C127.452 14.2113 125.17 14.8893 124.071 14.8435L127.781 18.5543Z" fill="#04005E"/>
<path d="M164.888 25.9761C164.778 22.7877 167.316 22.1738 168.599 22.2654L164.888 18.5547C164.558 21.6332 162.277 22.3112 161.177 22.2654L164.888 25.9761Z" fill="#04005E"/>
<path d="M127.781 40.8188C127.672 44.0073 130.209 44.6211 131.492 44.5295L127.781 48.2402C127.452 45.1617 125.17 44.4837 124.071 44.5295L127.781 40.8188Z" fill="#04005E"/>
<path d="M164.888 48.2398C164.778 45.0513 167.316 44.4375 168.599 44.5291L164.888 40.8184C164.558 43.8969 162.277 44.5749 161.177 44.5291L164.888 48.2398Z" fill="#04005E"/>
<path d="M164.888 18.5543C164.998 15.3658 162.46 14.7519 161.178 14.8435L164.888 11.1328C165.218 14.2113 167.5 14.8893 168.599 14.8435L164.888 18.5543Z" fill="#04005E"/>
<path d="M164.888 33.396C164.998 30.2076 162.46 29.5937 161.178 29.6853L164.888 25.9746C165.218 29.0531 167.5 29.7311 168.599 29.6853L164.888 33.396Z" fill="#04005E"/>
<path d="M127.781 11.1326C127.781 9.08322 129.443 7.42188 131.492 7.42188H153.756C155.806 7.42188 157.467 9.08322 157.467 11.1326C157.467 13.182 155.806 14.8433 153.756 14.8433H131.492C129.443 14.8433 127.781 13.182 127.781 11.1326Z" fill="#04005E"/>
<path d="M135.201 11.1326C135.201 9.08322 136.863 7.42188 138.912 7.42188H161.176C163.226 7.42188 164.887 9.08322 164.887 11.1326C164.887 13.182 163.226 14.8433 161.176 14.8433H138.912C136.863 14.8433 135.201 13.182 135.201 11.1326Z" fill="#04005E"/>
<path d="M142.624 25.9763C142.624 23.927 144.285 22.2656 146.335 22.2656H161.178C163.227 22.2656 164.888 23.927 164.888 25.9763C164.888 28.0257 163.227 29.6871 161.178 29.6871H146.335C144.285 29.6871 142.624 28.0257 142.624 25.9763Z" fill="#04005E"/>
<path d="M135.201 48.2405C135.201 50.2898 136.863 51.9512 138.912 51.9512H161.176C163.226 51.9512 164.887 50.2898 164.887 48.2405C164.887 46.1911 163.226 44.5297 161.176 44.5297H138.912C136.863 44.5297 135.201 46.1911 135.201 48.2405Z" fill="#04005E"/>
<path d="M127.781 48.2405C127.781 50.2898 129.443 51.9512 131.492 51.9512H153.756C155.806 51.9512 157.467 50.2898 157.467 48.2405C157.467 46.1911 155.806 44.5297 153.756 44.5297H131.492C129.443 44.5297 127.781 46.1911 127.781 48.2405Z" fill="#04005E"/>
<circle cx="168.598" cy="18.5545" r="3.71072" fill="#04005E"/>
<rect x="164.888" y="29.6855" width="7.42143" height="14.8429" rx="3.71072" fill="#04005E"/>
<path d="M7.44336 11.1326C7.44336 9.08322 9.1047 7.42188 11.1541 7.42188H40.8398C42.8892 7.42188 44.5505 9.08322 44.5505 11.1326C44.5505 13.182 42.8892 14.8433 40.8398 14.8433H11.1541C9.10471 14.8433 7.44336 13.182 7.44336 11.1326Z" fill="#04005E"/>
<path d="M3.73318 44.5254C1.68381 44.5254 0.0224609 42.864 0.0224609 40.8147L0.0224609 18.5504C0.0224609 16.501 1.68381 14.8397 3.73318 14.8397C5.78255 14.8397 7.4439 16.501 7.4439 18.5504L7.4439 40.8147C7.4439 42.864 5.78255 44.5254 3.73318 44.5254Z" fill="#04005E"/>
<path d="M48.4981 44.5254C46.3186 44.5254 44.5518 42.864 44.5518 40.8147V18.5504C44.5518 16.501 46.3186 14.8397 48.4981 14.8397C50.6776 14.8397 52.4444 16.501 52.4444 18.5504V40.8147C52.4444 42.864 50.6776 44.5254 48.4981 44.5254Z" fill="#04005E"/>
<path d="M7.44336 48.2361C7.44336 46.1867 9.1047 44.5254 11.1541 44.5254H40.8398C42.8892 44.5254 44.5505 46.1867 44.5505 48.2361C44.5505 50.2855 42.8892 51.9468 40.8398 51.9468H11.1541C9.10471 51.9468 7.44336 50.2855 7.44336 48.2361Z" fill="#04005E"/>
<path d="M44.5508 18.5542C44.6677 15.3658 41.9687 14.7519 40.6045 14.8435L44.5508 11.1328C44.9016 14.2113 47.3278 14.8893 48.4971 14.8435L44.5508 18.5542Z" fill="#04005E"/>
<path d="M7.44241 48.2359C7.55934 45.0474 4.86025 44.4335 3.49609 44.5252L7.44241 40.8145C7.7932 43.893 10.2195 44.571 11.3887 44.5252L7.44241 48.2359Z" fill="#04005E"/>
<path d="M44.5517 48.2359C44.4348 45.0474 47.1339 44.4335 48.498 44.5252L44.5517 40.8145C44.2009 43.893 41.7747 44.571 40.6054 44.5252L44.5517 48.2359Z" fill="#04005E"/>
<path d="M7.44431 18.5503C7.32738 15.3619 10.0265 14.748 11.3906 14.8396L7.44431 11.1289C7.09352 14.2074 4.66727 14.8854 3.49799 14.8396L7.44431 18.5503Z" fill="#04005E"/>
<path d="M187.713 11.1326C187.713 9.08322 189.374 7.42188 191.424 7.42188H221.109C223.159 7.42188 224.82 9.08322 224.82 11.1326C224.82 13.182 223.159 14.8433 221.109 14.8433H191.424C189.374 14.8433 187.713 13.182 187.713 11.1326Z" fill="#04005E"/>
<path d="M184.003 44.5254C181.953 44.5254 180.292 42.864 180.292 40.8147V18.5504C180.292 16.501 181.953 14.8397 184.003 14.8397C186.052 14.8397 187.713 16.501 187.713 18.5504V40.8147C187.713 42.864 186.052 44.5254 184.003 44.5254Z" fill="#04005E"/>
<path d="M228.768 44.5254C226.588 44.5254 224.821 42.864 224.821 40.8147V18.5504C224.821 16.501 226.588 14.8397 228.768 14.8397C230.947 14.8397 232.714 16.501 232.714 18.5504V40.8147C232.714 42.864 230.947 44.5254 228.768 44.5254Z" fill="#04005E"/>
<path d="M187.713 48.2361C187.713 46.1867 189.374 44.5254 191.424 44.5254H221.109C223.159 44.5254 224.82 46.1867 224.82 48.2361C224.82 50.2855 223.159 51.9468 221.109 51.9468H191.424C189.374 51.9468 187.713 50.2855 187.713 48.2361Z" fill="#04005E"/>
<path d="M224.82 18.5542C224.937 15.3658 222.238 14.7519 220.874 14.8435L224.82 11.1328C225.171 14.2113 227.597 14.8893 228.767 14.8435L224.82 18.5542Z" fill="#04005E"/>
<path d="M187.713 48.2359C187.83 45.0474 185.131 44.4335 183.767 44.5252L187.713 40.8145C188.064 43.893 190.49 44.571 191.659 44.5252L187.713 48.2359Z" fill="#04005E"/>
<path d="M224.821 48.2359C224.704 45.0474 227.403 44.4335 228.768 44.5252L224.821 40.8145C224.47 43.893 222.044 44.571 220.875 44.5252L224.821 48.2359Z" fill="#04005E"/>
<path d="M187.713 18.5503C187.596 15.3619 190.295 14.748 191.659 14.8396L187.713 11.1289C187.362 14.2074 184.936 14.8854 183.767 14.8396L187.713 18.5503Z" fill="#04005E"/>
</svg>
