<svg width="418" height="46" viewBox="0 0 418 46" fill="none" xmlns="http://www.w3.org/2000/svg">
<path d="M129.025 3.79489C129.025 1.69903 130.724 0 132.82 0H163.179C165.275 0 166.974 1.69903 166.974 3.79489C166.974 5.89075 165.275 7.58978 163.179 7.58978H132.82C130.724 7.58978 129.025 5.89075 129.025 3.79489Z" fill="#04005E"/>
<path d="M125.23 37.9482C123.135 37.9482 121.436 36.2492 121.436 34.1534V11.384C121.436 9.28814 123.135 7.58911 125.23 7.58911C127.326 7.58911 129.025 9.28814 129.025 11.384V34.1534C129.025 36.2492 127.326 37.9482 125.23 37.9482Z" fill="#04005E"/>
<path d="M129.025 41.7431C129.025 39.6473 130.724 37.9482 132.82 37.9482H163.179C165.275 37.9482 166.974 39.6473 166.974 41.7431C166.974 43.839 165.275 45.538 163.179 45.538H132.82C130.724 45.538 129.025 43.839 129.025 41.7431Z" fill="#04005E"/>
<path d="M129.025 18.9746C129.025 16.8787 130.724 15.1797 132.82 15.1797H163.179C165.275 15.1797 166.974 16.8787 166.974 18.9746C166.974 21.0704 165.275 22.7695 163.179 22.7695H132.82C130.724 22.7695 129.025 21.0704 129.025 18.9746Z" fill="#04005E"/>
<path d="M166.974 11.3847C167.094 8.12391 164.334 7.49611 162.938 7.58981L166.974 3.79492C167.333 6.94328 169.814 7.63666 171.01 7.58981L166.974 11.3847Z" fill="#04005E"/>
<path d="M166.943 26.5644C167.063 23.3036 164.302 22.6758 162.907 22.7695L166.943 18.9746C167.302 22.123 169.783 22.8164 170.979 22.7695L166.943 26.5644Z" fill="#04005E"/>
<path d="M128.985 41.7441C129.105 38.4833 126.344 37.8555 124.949 37.9492L128.985 34.1543C129.344 37.3027 131.825 37.996 133.021 37.9492L128.985 41.7441Z" fill="#04005E"/>
<path d="M167.014 41.7441C166.894 38.4833 169.655 37.8555 171.05 37.9492L167.014 34.1543C166.655 37.3027 164.174 37.996 162.978 37.9492L167.014 41.7441Z" fill="#04005E"/>
<path d="M166.963 18.9745C166.844 15.7138 169.604 15.086 170.999 15.1797L166.963 11.3848C166.604 14.5331 164.123 15.2265 162.927 15.1797L166.963 18.9745Z" fill="#04005E"/>
<path d="M129.025 11.3847C128.905 8.12391 131.665 7.49611 133.061 7.58981L129.025 3.79492C128.666 6.94328 126.185 7.63666 124.989 7.58981L129.025 11.3847Z" fill="#04005E"/>
<path d="M129.025 26.5643C128.905 23.3035 131.665 22.6757 133.061 22.7694L129.025 18.9745C128.666 22.1228 126.185 22.8162 124.989 22.7694L129.025 26.5643Z" fill="#04005E"/>
<path d="M166.975 11.3848C166.975 9.28893 168.674 7.5899 170.77 7.5899C172.865 7.5899 174.564 9.28893 174.564 11.3848C174.564 13.4807 172.865 15.1797 170.77 15.1797C168.674 15.1797 166.975 13.4807 166.975 11.3848Z" fill="#04005E"/>
<path d="M159.385 18.9737C159.385 16.8778 161.084 15.1788 163.18 15.1788C165.276 15.1788 166.975 16.8778 166.975 18.9737C166.975 21.0695 165.276 22.7686 163.18 22.7686C161.084 22.7686 159.385 21.0695 159.385 18.9737Z" fill="#04005E"/>
<path d="M166.975 34.1533C166.975 32.0575 168.674 30.3585 170.77 30.3585C172.865 30.3585 174.564 32.0575 174.564 34.1534C174.564 36.2492 172.865 37.9482 170.77 37.9482C168.674 37.9482 166.975 36.2492 166.975 34.1533Z" fill="#04005E"/>
<path d="M166.975 26.5635C166.975 24.4676 168.674 22.7686 170.77 22.7686C172.865 22.7686 174.564 24.4676 174.564 26.5635C174.564 28.6594 172.865 30.3584 170.77 30.3584C168.674 30.3584 166.975 28.6594 166.975 26.5635Z" fill="#04005E"/>
<path d="M174.564 34.2949L166.975 34.2949L166.975 26.7051L174.564 26.7051L174.564 34.2949Z" fill="#04005E"/>
<path d="M129.025 3.79489C129.025 1.69903 130.724 0 132.82 0H163.179C165.275 0 166.974 1.69903 166.974 3.79489C166.974 5.89075 165.275 7.58978 163.179 7.58978H132.82C130.724 7.58978 129.025 5.89075 129.025 3.79489Z" fill="#04005E"/>
<path d="M125.23 37.9482C123.135 37.9482 121.436 36.2492 121.436 34.1534V11.384C121.436 9.28814 123.135 7.58911 125.23 7.58911C127.326 7.58911 129.025 9.28814 129.025 11.384V34.1534C129.025 36.2492 127.326 37.9482 125.23 37.9482Z" fill="#04005E"/>
<path d="M129.025 41.7431C129.025 39.6473 130.724 37.9482 132.82 37.9482H163.179C165.275 37.9482 166.974 39.6473 166.974 41.7431C166.974 43.839 165.275 45.538 163.179 45.538H132.82C130.724 45.538 129.025 43.839 129.025 41.7431Z" fill="#04005E"/>
<path d="M129.025 18.9746C129.025 16.8787 130.724 15.1797 132.82 15.1797H163.179C165.275 15.1797 166.974 16.8787 166.974 18.9746C166.974 21.0704 165.275 22.7695 163.179 22.7695H132.82C130.724 22.7695 129.025 21.0704 129.025 18.9746Z" fill="#04005E"/>
<path d="M166.974 11.3847C167.094 8.12391 164.334 7.49611 162.938 7.58981L166.974 3.79492C167.333 6.94328 169.814 7.63666 171.01 7.58981L166.974 11.3847Z" fill="#04005E"/>
<path d="M166.943 26.5644C167.063 23.3036 164.302 22.6758 162.907 22.7695L166.943 18.9746C167.302 22.123 169.783 22.8164 170.979 22.7695L166.943 26.5644Z" fill="#04005E"/>
<path d="M128.985 41.744C129.105 38.4832 126.344 37.8554 124.949 37.9491L128.985 34.1542C129.344 37.3025 131.825 37.9959 133.021 37.9491L128.985 41.744Z" fill="#04005E"/>
<path d="M128.985 18.9746C129.105 15.7138 126.344 15.086 124.949 15.1797L128.985 11.3848C129.344 14.5331 131.825 15.2265 133.021 15.1797L128.985 18.9746Z" fill="#04005E"/>
<path d="M167.014 41.7441C166.894 38.4833 169.655 37.8555 171.05 37.9492L167.014 34.1543C166.655 37.3027 164.174 37.996 162.978 37.9492L167.014 41.7441Z" fill="#04005E"/>
<path d="M166.963 18.9745C166.844 15.7138 169.604 15.086 170.999 15.1797L166.963 11.3848C166.604 14.5331 164.123 15.2265 162.927 15.1797L166.963 18.9745Z" fill="#04005E"/>
<path d="M166.975 11.3848C166.975 9.28893 168.674 7.5899 170.77 7.5899C172.865 7.5899 174.564 9.28893 174.564 11.3848C174.564 13.4807 172.865 15.1797 170.77 15.1797C168.674 15.1797 166.975 13.4807 166.975 11.3848Z" fill="#04005E"/>
<path d="M159.385 18.9737C159.385 16.8778 161.084 15.1788 163.18 15.1788C165.276 15.1788 166.975 16.8778 166.975 18.9737C166.975 21.0695 165.276 22.7686 163.18 22.7686C161.084 22.7686 159.385 21.0695 159.385 18.9737Z" fill="#04005E"/>
<path d="M166.975 34.1533C166.975 32.0575 168.674 30.3585 170.77 30.3585C172.865 30.3585 174.564 32.0575 174.564 34.1534C174.564 36.2492 172.865 37.9482 170.77 37.9482C168.674 37.9482 166.975 36.2492 166.975 34.1533Z" fill="#04005E"/>
<path d="M166.975 26.5635C166.975 24.4676 168.674 22.7686 170.77 22.7686C172.865 22.7686 174.564 24.4676 174.564 26.5635C174.564 28.6594 172.865 30.3584 170.77 30.3584C168.674 30.3584 166.975 28.6594 166.975 26.5635Z" fill="#04005E"/>
<path d="M174.564 34.2949L166.975 34.2949L166.975 26.7051L174.564 26.7051L174.564 34.2949Z" fill="#04005E"/>
<path d="M7.58984 41.7442C7.58984 43.84 5.89081 45.5391 3.79495 45.5391C1.69909 45.5391 5.64153e-05 43.84 5.65985e-05 41.7442L5.99161e-05 3.79525C6.00994e-05 1.69939 1.69909 0.000358067 3.79495 0.00035825C5.89082 0.000358433 7.58985 1.69939 7.58985 3.79525L7.58984 41.7442Z" fill="#04005E"/>
<path d="M52.5654 41.7442C52.5654 43.84 50.8664 45.5391 48.7705 45.5391C46.6747 45.5391 44.9756 43.84 44.9756 41.7442L44.9756 3.79525C44.9756 1.69939 46.6747 0.000358067 48.7705 0.00035825C50.8664 0.000358433 52.5654 1.69939 52.5654 3.79525L52.5654 41.7442Z" fill="#04005E"/>
<path d="M11.3847 22.7695C9.28888 22.7695 7.58984 21.0705 7.58984 18.9746C7.58984 16.8788 9.28887 15.1797 11.3847 15.1797L40.9006 15.1797C42.9964 15.1797 44.6955 16.8788 44.6955 18.9746C44.6955 21.0705 42.9964 22.7695 40.9006 22.7695L11.3847 22.7695Z" fill="#04005E"/>
<path d="M44.9775 26.5654C45.09 23.3046 42.4944 22.6768 41.1826 22.7705L44.9775 18.9756C45.3148 22.1239 47.648 22.8173 48.7724 22.7705L44.9775 26.5654Z" fill="#04005E"/>
<path d="M7.59079 18.9745C7.70323 15.7138 5.10771 15.086 3.7959 15.1797L7.59079 11.3848C7.92811 14.5331 10.2613 15.2265 11.3857 15.1797L7.59079 18.9745Z" fill="#04005E"/>
<path d="M44.9776 18.9755C44.8651 15.7147 47.4606 15.0869 48.7725 15.1806L44.9776 11.3857C44.6402 14.5341 42.3071 15.2275 41.1827 15.1806L44.9776 18.9755Z" fill="#04005E"/>
<path d="M7.59085 26.5653C7.47842 23.3045 10.0739 22.6767 11.3857 22.7704L7.59085 18.9755C7.25353 22.1239 4.92038 22.8173 3.79596 22.7704L7.59085 26.5653Z" fill="#04005E"/>
<path d="M40.9013 22.7695C38.8055 22.7695 37.1064 21.0705 37.1064 18.9746C37.1064 16.8788 38.8055 15.1797 40.9013 15.1797H41.1824C43.2783 15.1797 44.9773 16.8788 44.9773 18.9746C44.9773 21.0705 43.2783 22.7695 41.1824 22.7695H40.9013Z" fill="#04005E"/>
<path d="M67.7451 3.79489C67.7451 1.69903 69.4441 0 71.54 0H101.899C103.995 0 105.694 1.69903 105.694 3.79489C105.694 5.89075 103.995 7.58978 101.899 7.58978H71.54C69.4441 7.58978 67.7451 5.89075 67.7451 3.79489Z" fill="#04005E"/>
<path d="M63.9502 37.9453C61.8543 37.9453 60.1553 36.2463 60.1553 34.1504V11.3811C60.1553 9.28521 61.8543 7.58618 63.9502 7.58618C66.046 7.58618 67.7451 9.28521 67.7451 11.3811V34.1504C67.7451 36.2463 66.046 37.9453 63.9502 37.9453Z" fill="#04005E"/>
<path d="M109.73 37.9453C107.501 37.9453 105.694 36.2463 105.694 34.1504V11.3811C105.694 9.28521 107.501 7.58618 109.73 7.58618C111.959 7.58618 113.766 9.28521 113.766 11.3811V34.1504C113.766 36.2463 111.959 37.9453 109.73 37.9453Z" fill="#04005E"/>
<path d="M67.7451 41.7402C67.7451 39.6443 69.4441 37.9453 71.54 37.9453H101.899C103.995 37.9453 105.694 39.6443 105.694 41.7402C105.694 43.8361 103.995 45.5351 101.899 45.5351H71.54C69.4441 45.5351 67.7451 43.8361 67.7451 41.7402Z" fill="#04005E"/>
<path d="M105.694 11.3847C105.814 8.12391 103.053 7.49611 101.658 7.58981L105.694 3.79492C106.053 6.94328 108.534 7.63666 109.73 7.58981L105.694 11.3847Z" fill="#04005E"/>
<path d="M67.7438 41.7402C67.8634 38.4794 65.1031 37.8516 63.708 37.9453L67.7438 34.1504C68.1026 37.2987 70.5839 37.9921 71.7797 37.9453L67.7438 41.7402Z" fill="#04005E"/>
<path d="M105.694 41.7402C105.574 38.4794 108.334 37.8516 109.729 37.9453L105.694 34.1504C105.335 37.2987 102.854 37.9921 101.658 37.9453L105.694 41.7402Z" fill="#04005E"/>
<path d="M67.7444 11.3808C67.6249 8.12 70.3852 7.49221 71.7803 7.58591L67.7444 3.79102C67.3857 6.93937 64.9044 7.63276 63.7086 7.58591L67.7444 11.3808Z" fill="#04005E"/>
<path d="M189.744 3.79489C189.744 1.69903 191.443 0 193.539 0H223.898C225.994 0 227.693 1.69903 227.693 3.79489C227.693 5.89075 225.994 7.58978 223.898 7.58978H193.539C191.443 7.58978 189.744 5.89075 189.744 3.79489Z" fill="#04005E"/>
<path d="M185.949 37.9453C183.853 37.9453 182.154 36.2463 182.154 34.1504V11.3811C182.154 9.28521 183.853 7.58618 185.949 7.58618C188.045 7.58618 189.744 9.28521 189.744 11.3811V34.1504C189.744 36.2463 188.045 37.9453 185.949 37.9453Z" fill="#04005E"/>
<path d="M231.729 37.9453C229.5 37.9453 227.693 36.2463 227.693 34.1504V11.3811C227.693 9.28521 229.5 7.58618 231.729 7.58618C233.958 7.58618 235.765 9.28521 235.765 11.3811V34.1504C235.765 36.2463 233.958 37.9453 231.729 37.9453Z" fill="#04005E"/>
<path d="M189.744 41.7402C189.744 39.6443 191.443 37.9453 193.539 37.9453H223.898C225.994 37.9453 227.693 39.6443 227.693 41.7402C227.693 43.8361 225.994 45.5351 223.898 45.5351H193.539C191.443 45.5351 189.744 43.8361 189.744 41.7402Z" fill="#04005E"/>
<path d="M227.693 11.3847C227.813 8.12391 225.052 7.49611 223.657 7.58981L227.693 3.79492C228.052 6.94328 230.533 7.63666 231.729 7.58981L227.693 11.3847Z" fill="#04005E"/>
<path d="M189.743 41.7402C189.862 38.4794 187.102 37.8516 185.707 37.9453L189.743 34.1504C190.102 37.2987 192.583 37.9921 193.779 37.9453L189.743 41.7402Z" fill="#04005E"/>
<path d="M227.693 41.7402C227.573 38.4794 230.333 37.8516 231.729 37.9453L227.693 34.1504C227.334 37.2987 224.853 37.9921 223.657 37.9453L227.693 41.7402Z" fill="#04005E"/>
<path d="M189.743 11.3808C189.624 8.12 192.384 7.49221 193.779 7.58591L189.743 3.79102C189.385 6.93937 186.903 7.63276 185.708 7.58591L189.743 11.3808Z" fill="#04005E"/>
<path d="M418 41.6035L410.41 41.6035L410.41 11.2444L418 11.2444L418 41.6035Z" fill="#04005E"/>
<path d="M398.885 7.58984L398.885 6.10352e-05L406.475 6.07034e-05L406.475 7.58984L398.885 7.58984Z" fill="#04005E"/>
<path d="M376.396 45.5381L376.396 37.9483L383.986 37.9483L383.986 45.5381L376.396 45.5381Z" fill="#04005E"/>
<path d="M372.461 34.1543L364.871 34.1543L364.871 3.79516L372.461 3.79516L372.461 34.1543Z" fill="#04005E"/>
<path d="M395.23 34.0137L387.641 34.0137L387.641 11.2443L395.23 11.2443L395.23 34.0137Z" fill="#04005E"/>
<path d="M372.461 41.7432C372.461 39.6473 374.16 37.9483 376.256 37.9483C378.352 37.9483 380.051 39.6473 380.051 41.7432C380.051 43.8391 378.352 45.5381 376.256 45.5381C374.16 45.5381 372.461 43.8391 372.461 41.7432Z" fill="#04005E"/>
<path d="M380.051 41.7432C380.051 39.6473 381.75 37.9483 383.846 37.9483C385.942 37.9483 387.641 39.6473 387.641 41.7432C387.641 43.8391 385.942 45.5381 383.846 45.5381C381.75 45.5381 380.051 43.8391 380.051 41.7432Z" fill="#04005E"/>
<path d="M402.82 3.79495C402.82 1.69909 404.519 5.95665e-05 406.615 5.97497e-05C408.711 5.99329e-05 410.41 1.69909 410.41 3.79495C410.41 5.89081 408.711 7.58984 406.615 7.58984C404.519 7.58984 402.82 5.89081 402.82 3.79495Z" fill="#04005E"/>
<path d="M395.231 3.79495C395.231 1.69909 396.93 5.95665e-05 399.025 5.97497e-05C401.121 5.99329e-05 402.82 1.69909 402.82 3.79495C402.82 5.89081 401.121 7.58984 399.025 7.58984C396.93 7.58984 395.231 5.89081 395.231 3.79495Z" fill="#04005E"/>
<path d="M410.41 41.7432C410.41 39.6473 412.109 37.9483 414.205 37.9483C416.301 37.9483 418 39.6473 418 41.7432C418 43.8391 416.301 45.5381 414.205 45.5381C412.109 45.5381 410.41 43.8391 410.41 41.7432Z" fill="#04005E"/>
<path d="M364.871 34.1543C364.871 32.0585 366.57 30.3594 368.666 30.3594C370.762 30.3594 372.461 32.0585 372.461 34.1543C372.461 36.2502 370.762 37.9492 368.666 37.9492C366.57 37.9492 364.871 36.2502 364.871 34.1543Z" fill="#04005E"/>
<path d="M364.871 3.79495C364.871 1.69909 366.57 5.95665e-05 368.666 5.97497e-05C370.762 5.99329e-05 372.461 1.69909 372.461 3.79495C372.461 5.89081 370.762 7.58984 368.666 7.58984C366.57 7.58984 364.871 5.89081 364.871 3.79495Z" fill="#04005E"/>
<path d="M410.41 11.3848C410.41 9.28893 412.109 7.5899 414.205 7.5899C416.301 7.5899 418 9.28893 418 11.3848C418 13.4807 416.301 15.1797 414.205 15.1797C412.109 15.1797 410.41 13.4807 410.41 11.3848Z" fill="#04005E"/>
<path d="M387.641 34.1543C387.641 32.0585 389.34 30.3594 391.436 30.3594C393.531 30.3594 395.23 32.0585 395.23 34.1543C395.23 36.2502 393.531 37.9492 391.436 37.9492C389.34 37.9492 387.641 36.2502 387.641 34.1543Z" fill="#04005E"/>
<path d="M387.641 11.3848C387.641 9.28893 389.34 7.5899 391.436 7.5899C393.531 7.5899 395.23 9.28893 395.23 11.3848C395.23 13.4807 393.531 15.1797 391.436 15.1797C389.34 15.1797 387.641 13.4807 387.641 11.3848Z" fill="#04005E"/>
<path d="M368.666 37.9485C371.927 37.829 372.555 40.5893 372.461 41.9844L376.256 37.9485C373.108 37.5898 372.414 35.1085 372.461 33.9127L368.666 37.9485Z" fill="#04005E"/>
<path d="M387.642 34.1544C387.754 37.4152 385.158 38.0429 383.847 37.9492L387.642 41.7441C387.979 38.5958 390.312 37.9024 391.436 37.9492L387.642 34.1544Z" fill="#04005E"/>
<path d="M406.616 7.59014C409.877 7.47056 410.505 10.2309 410.411 11.626L414.206 7.59014C411.058 7.2314 410.364 4.75011 410.411 3.5543L406.616 7.59014Z" fill="#04005E"/>
<path d="M395.231 3.79498C395.351 7.05578 392.59 7.68357 391.195 7.58987L395.231 11.3848C395.59 8.23641 398.071 7.54302 399.267 7.58987L395.231 3.79498Z" fill="#04005E"/>
<path d="M251.025 3.79489C251.025 1.69903 252.724 0 254.82 0H285.179C287.275 0 288.974 1.69903 288.974 3.79489C288.974 5.89075 287.275 7.58978 285.179 7.58978H254.82C252.724 7.58978 251.025 5.89075 251.025 3.79489Z" fill="#04005E"/>
<path d="M247.23 37.9482C245.135 37.9482 243.436 36.2492 243.436 34.1534V11.384C243.436 9.28814 245.135 7.58911 247.23 7.58911C249.326 7.58911 251.025 9.28814 251.025 11.384V34.1534C251.025 36.2492 249.326 37.9482 247.23 37.9482Z" fill="#04005E"/>
<path d="M251.025 41.7431C251.025 39.6473 252.724 37.9482 254.82 37.9482H285.179C287.275 37.9482 288.974 39.6473 288.974 41.7431C288.974 43.839 287.275 45.538 285.179 45.538H254.82C252.724 45.538 251.025 43.839 251.025 41.7431Z" fill="#04005E"/>
<path d="M288.974 11.3847C289.094 8.12391 286.334 7.49611 284.938 7.58981L288.974 3.79492C289.333 6.94328 291.814 7.63666 293.01 7.58981L288.974 11.3847Z" fill="#04005E"/>
<path d="M251.024 41.7441C251.144 38.4833 248.383 37.8555 246.988 37.9492L251.024 34.1543C251.383 37.3027 253.864 37.996 255.06 37.9492L251.024 41.7441Z" fill="#04005E"/>
<path d="M288.974 41.7441C288.854 38.4833 291.615 37.8555 293.01 37.9492L288.974 34.1543C288.615 37.3027 286.134 37.996 284.938 37.9492L288.974 41.7441Z" fill="#04005E"/>
<path d="M251.025 11.3847C250.905 8.12391 253.665 7.49611 255.061 7.58981L251.025 3.79492C250.666 6.94328 248.185 7.63666 246.989 7.58981L251.025 11.3847Z" fill="#04005E"/>
<path d="M288.975 11.3848C288.975 9.28893 290.674 7.5899 292.77 7.5899C294.865 7.5899 296.564 9.28893 296.564 11.3848C296.564 13.4807 294.865 15.1797 292.77 15.1797C290.674 15.1797 288.975 13.4807 288.975 11.3848Z" fill="#04005E"/>
<path d="M288.975 34.1533C288.975 32.0575 290.674 30.3585 292.77 30.3585C294.865 30.3585 296.564 32.0575 296.564 34.1534C296.564 36.2492 294.865 37.9482 292.77 37.9482C290.674 37.9482 288.975 36.2492 288.975 34.1533Z" fill="#04005E"/>
<path d="M327.486 11.3847C327.606 8.12391 324.845 7.49611 323.45 7.58981L327.486 3.79492C327.845 6.94328 330.326 7.63666 331.522 7.58981L327.486 11.3847Z" fill="#04005E"/>
<path d="M335.074 11.3847C334.954 8.12391 337.714 7.49611 339.109 7.58981L335.074 3.79492C334.715 6.94328 332.234 7.63666 331.038 7.58981L335.074 11.3847Z" fill="#04005E"/>
<rect x="335.075" y="41.7959" width="7.58979" height="31.0338" transform="rotate(-180 335.075 41.7959)" fill="#04005E"/>
<ellipse cx="331.28" cy="41.9401" rx="3.79489" ry="3.87922" transform="rotate(-180 331.28 41.9401)" fill="#04005E"/>
<ellipse cx="331.28" cy="10.9059" rx="3.79489" ry="3.87922" transform="rotate(-180 331.28 10.9059)" fill="#04005E"/>
<rect x="304.152" y="7.58984" width="7.58978" height="53.1285" rx="3.79489" transform="rotate(-90 304.152 7.58984)" fill="#04005E"/>
</svg>
