<svg width="360" height="67" viewBox="0 0 360 67" fill="none" xmlns="http://www.w3.org/2000/svg">
<rect y="60" width="360" height="7" rx="3.5" fill="#04005E"/>
<rect x="311.073" y="46.1775" width="22.814" height="7.42143" fill="#04005E"/>
<rect x="311.073" y="23.9131" width="22.5392" height="7.42143" fill="#04005E"/>
<path fill-rule="evenodd" clip-rule="evenodd" d="M308.05 20.2026C308.05 22.2521 306.389 23.9134 304.339 23.9134C306.389 23.9134 308.05 25.5746 308.05 27.6241C308.05 25.5746 309.711 23.9134 311.761 23.9134C309.711 23.9134 308.05 22.2521 308.05 20.2026Z" fill="#04005E"/>
<path fill-rule="evenodd" clip-rule="evenodd" d="M308.05 27.6241C308.05 29.6735 306.389 31.3348 304.339 31.3348C306.389 31.3348 308.05 32.9961 308.05 35.0455C308.05 32.9961 309.711 31.3348 311.761 31.3348C309.711 31.3348 308.05 29.6735 308.05 27.6241Z" fill="#04005E"/>
<path fill-rule="evenodd" clip-rule="evenodd" d="M308.05 42.467C308.05 44.5165 306.389 46.1778 304.339 46.1778C306.389 46.1778 308.05 47.839 308.05 49.8885C308.05 47.839 309.711 46.1778 311.761 46.1778C309.711 46.1778 308.05 44.5165 308.05 42.467Z" fill="#04005E"/>
<path fill-rule="evenodd" clip-rule="evenodd" d="M337.736 27.6243C337.736 29.6737 336.075 31.335 334.025 31.335C336.075 31.335 337.736 32.9963 337.736 35.0457C337.736 32.9963 339.397 31.335 341.447 31.335C339.397 31.335 337.736 29.6737 337.736 27.6243Z" fill="#04005E"/>
<path fill-rule="evenodd" clip-rule="evenodd" d="M337.736 42.467C337.736 44.5165 336.075 46.1778 334.025 46.1778C336.075 46.1778 337.736 47.839 337.736 49.8885C337.736 47.839 339.397 46.1778 341.447 46.1778C339.397 46.1778 337.736 44.5165 337.736 42.467Z" fill="#04005E"/>
<rect x="300.629" y="12.9182" width="7.42143" height="29.6857" fill="#04005E"/>
<rect x="337.736" y="35.1829" width="7.42143" height="7.42143" fill="#04005E"/>
<rect x="352.578" y="12.9182" width="7.42143" height="37.1072" fill="#04005E"/>
<circle cx="311.76" cy="27.6238" r="3.71072" fill="#04005E"/>
<circle cx="311.76" cy="49.8882" r="3.71072" fill="#04005E"/>
<circle cx="304.34" cy="12.7818" r="3.71072" fill="#04005E"/>
<circle cx="356.289" cy="12.7813" r="3.71072" fill="#04005E"/>
<circle cx="356.289" cy="49.8882" r="3.71072" fill="#04005E"/>
<circle cx="304.339" cy="42.4668" r="3.71072" fill="#04005E"/>
<circle cx="341.446" cy="35.0452" r="3.71072" fill="#04005E"/>
<circle cx="334.026" cy="27.6238" r="3.71072" fill="#04005E"/>
<circle cx="334.026" cy="49.8882" r="3.71072" fill="#04005E"/>
<circle cx="341.446" cy="42.4668" r="3.71072" fill="#04005E"/>
<path d="M67.8472 11.1326C67.8472 9.08322 69.5085 7.42188 71.5579 7.42188H101.244C103.293 7.42188 104.954 9.08322 104.954 11.1326C104.954 13.182 103.293 14.8433 101.244 14.8433H71.5579C69.5085 14.8433 67.8472 13.182 67.8472 11.1326Z" fill="#04005E"/>
<path d="M64.1372 44.5288C62.0879 44.5288 60.4265 42.8675 60.4265 40.8181V18.5538C60.4265 16.5044 62.0879 14.8431 64.1372 14.8431C66.1866 14.8431 67.8479 16.5044 67.8479 18.5538V40.8181C67.8479 42.8675 66.1866 44.5288 64.1372 44.5288Z" fill="#04005E"/>
<path d="M67.8472 48.2395C67.8472 46.1902 69.5085 44.5288 71.5579 44.5288H101.244C103.293 44.5288 104.954 46.1902 104.954 48.2395C104.954 50.2889 103.293 51.9502 101.244 51.9502H71.5579C69.5085 51.9502 67.8472 50.2889 67.8472 48.2395Z" fill="#04005E"/>
<path d="M67.8472 25.9749C67.8472 23.9255 69.5085 22.2642 71.5579 22.2642H101.244C103.293 22.2642 104.954 23.9255 104.954 25.9749C104.954 28.0243 103.293 29.6856 101.244 29.6856H71.5579C69.5085 29.6856 67.8472 28.0243 67.8472 25.9749Z" fill="#04005E"/>
<path d="M104.955 33.3968C105.072 30.2083 102.373 29.5944 101.009 29.6861L104.955 25.9753C105.306 29.0539 107.732 29.7319 108.901 29.6861L104.955 33.3968Z" fill="#04005E"/>
<path d="M67.8467 48.2393C67.9636 45.0508 65.2646 44.437 63.9004 44.5286L67.8467 40.8179C68.1975 43.8964 70.6237 44.5744 71.793 44.5286L67.8467 48.2393Z" fill="#04005E"/>
<path d="M67.8467 25.9749C67.9636 22.7864 65.2646 22.1726 63.9004 22.2642L67.8467 18.5535C68.1975 21.632 70.6238 22.31 71.793 22.2642L67.8467 25.9749Z" fill="#04005E"/>
<path d="M104.954 48.2393C104.837 45.0508 107.536 44.437 108.901 44.5286L104.954 40.8179C104.604 43.8964 102.177 44.5744 101.008 44.5286L104.954 48.2393Z" fill="#04005E"/>
<path d="M104.955 11.1319C104.838 7.94342 107.537 7.32955 108.902 7.42117L104.955 3.71045C104.605 6.78897 102.178 7.46698 101.009 7.42117L104.955 11.1319Z" fill="#04005E"/>
<path d="M67.8486 18.5538C67.7317 15.3653 70.4308 14.7514 71.7949 14.843L67.8486 11.1323C67.4978 14.2108 65.0716 14.8889 63.9023 14.843L67.8486 18.5538Z" fill="#04005E"/>
<path d="M67.8486 33.3964C67.7317 30.2079 70.4308 29.594 71.7949 29.6856L67.8486 25.9749C67.4978 29.0534 65.0716 29.7315 63.9023 29.6856L67.8486 33.3964Z" fill="#04005E"/>
<circle cx="101.244" cy="25.9746" r="3.71072" transform="rotate(-180 101.244 25.9746)" fill="#04005E"/>
<circle cx="108.666" cy="40.8176" r="3.71072" transform="rotate(-180 108.666 40.8176)" fill="#04005E"/>
<circle cx="108.666" cy="33.396" r="3.71072" transform="rotate(-180 108.666 33.396)" fill="#04005E"/>
<rect x="112.376" y="40.9551" width="7.42144" height="7.42143" transform="rotate(-180 112.376 40.9551)" fill="#04005E"/>
<circle cx="108.666" cy="3.71067" r="3.71072" transform="rotate(-180 108.666 3.71067)" fill="#04005E"/>
<path d="M244.407 16.4919C242.358 16.4919 240.697 18.5686 240.697 21.1303L240.697 48.9607C240.697 51.5224 242.358 53.5991 244.407 53.5991C246.457 53.5991 248.118 51.5224 248.118 48.9607L248.118 21.1303C248.118 18.0037 246.457 16.4919 244.407 16.4919Z" fill="#04005E"/>
<path d="M248.117 12.7812C248.117 14.8306 249.779 16.4919 251.828 16.4919L281.514 16.4919C283.563 16.4919 285.224 14.8306 285.224 12.7812C285.224 10.7319 283.563 9.07051 281.514 9.07051L251.828 9.07051C249.779 9.07051 248.117 10.7319 248.117 12.7812Z" fill="#04005E"/>
<path d="M248.117 35.0456C248.117 37.095 249.779 38.7563 251.828 38.7563L281.514 38.7563C283.563 38.7563 285.224 37.095 285.224 35.0456C285.224 32.9963 283.563 31.3349 281.514 31.3349L251.828 31.3349C249.779 31.3349 248.117 32.9963 248.117 35.0456Z" fill="#04005E"/>
<path d="M285.225 27.624C285.342 30.8124 282.643 31.4263 281.279 31.3347L285.225 35.0454C285.576 31.9669 288.002 31.2889 289.171 31.3347L285.225 27.624Z" fill="#04005E"/>
<path d="M248.07 35.0454C248.187 38.2338 245.487 38.8477 244.123 38.7561L248.07 42.4668C248.42 39.3883 250.847 38.7103 252.016 38.7561L248.07 35.0454Z" fill="#04005E"/>
<path d="M248.118 12.7812C248.235 15.9697 245.536 16.5835 244.172 16.4919L248.118 20.2026C248.469 17.1241 250.895 16.4461 252.064 16.4919L248.118 12.7812Z" fill="#04005E"/>
<path d="M285.224 12.7812C285.107 15.9697 287.806 16.5835 289.171 16.4919L285.224 20.2026C284.874 17.1241 282.447 16.4461 281.278 16.4919L285.224 12.7812Z" fill="#04005E"/>
<path d="M248.119 27.624C248.002 30.8124 250.701 31.4263 252.065 31.3347L248.119 35.0454C247.768 31.9669 245.342 31.2889 244.172 31.3347L248.119 27.624Z" fill="#04005E"/>
<circle r="3.71072" transform="matrix(-1 1.74846e-07 1.74846e-07 1 281.514 35.0454)" fill="#04005E"/>
<circle r="3.71072" transform="matrix(-1 1.74846e-07 1.74846e-07 1 288.935 20.2027)" fill="#04005E"/>
<circle r="3.71072" transform="matrix(-1 1.74846e-07 1.74846e-07 1 244.407 20.2027)" fill="#04005E"/>
<circle r="3.71072" transform="matrix(-1 1.74846e-07 1.74846e-07 1 288.935 27.624)" fill="#04005E"/>
<rect width="7.42144" height="7.42143" transform="matrix(-1 1.74846e-07 1.74846e-07 1 292.646 20.0649)" fill="#04005E"/>
<path d="M120.359 18.5537C120.359 20.6031 122.021 22.2645 124.07 22.2645C126.119 22.2645 127.781 20.6031 127.781 18.5537C127.781 16.5044 126.119 14.843 124.07 14.843C122.021 14.843 120.359 16.5044 120.359 18.5537Z" fill="#04005E"/>
<path d="M120.359 40.8178C120.359 38.7685 122.021 37.1071 124.07 37.1071C126.119 37.1071 127.781 38.7685 127.781 40.8178C127.781 42.8672 126.119 44.5286 124.07 44.5286C122.021 44.5286 120.359 42.8672 120.359 40.8178Z" fill="#04005E"/>
<path d="M127.781 18.5533C127.672 15.3648 130.209 14.7509 131.492 14.8426L127.781 11.1318C127.452 14.2104 125.17 14.8884 124.071 14.8426L127.781 18.5533Z" fill="#04005E"/>
<path d="M164.887 25.9749C164.777 22.7864 167.315 22.1726 168.598 22.2642L164.887 18.5535C164.558 21.632 162.276 22.31 161.177 22.2642L164.887 25.9749Z" fill="#04005E"/>
<path d="M127.781 40.8173C127.672 44.0058 130.209 44.6197 131.492 44.528L127.781 48.2388C127.452 45.1602 125.17 44.4822 124.071 44.528L127.781 40.8173Z" fill="#04005E"/>
<path d="M164.887 48.2393C164.777 45.0508 167.315 44.437 168.598 44.5286L164.887 40.8179C164.558 43.8964 162.276 44.5744 161.177 44.5286L164.887 48.2393Z" fill="#04005E"/>
<path d="M164.888 18.5533C164.998 15.3648 162.46 14.7509 161.177 14.8426L164.888 11.1318C165.218 14.2104 167.499 14.8884 168.599 14.8426L164.888 18.5533Z" fill="#04005E"/>
<path d="M164.888 33.3965C164.998 30.2081 162.46 29.5942 161.177 29.6858L164.888 25.9751C165.218 29.0536 167.499 29.7316 168.599 29.6858L164.888 33.3965Z" fill="#04005E"/>
<path d="M127.781 11.1321C127.781 9.08273 129.442 7.42139 131.491 7.42139H153.756C155.805 7.42139 157.467 9.08273 157.467 11.1321C157.467 13.1815 155.805 14.8428 153.756 14.8428H131.491C129.442 14.8428 127.781 13.1815 127.781 11.1321Z" fill="#04005E"/>
<path d="M135.201 11.1321C135.201 9.08273 136.863 7.42139 138.912 7.42139H161.176C163.226 7.42139 164.887 9.08273 164.887 11.1321C164.887 13.1815 163.226 14.8428 161.176 14.8428H138.912C136.863 14.8428 135.201 13.1815 135.201 11.1321Z" fill="#04005E"/>
<path d="M142.624 25.9749C142.624 23.9255 144.285 22.2642 146.334 22.2642H161.177C163.227 22.2642 164.888 23.9255 164.888 25.9749C164.888 28.0243 163.227 29.6856 161.177 29.6856H146.334C144.285 29.6856 142.624 28.0243 142.624 25.9749Z" fill="#04005E"/>
<path d="M135.201 48.2392C135.201 50.2886 136.863 51.95 138.912 51.95H161.176C163.226 51.95 164.887 50.2886 164.887 48.2392C164.887 46.1899 163.226 44.5285 161.176 44.5285H138.912C136.863 44.5285 135.201 46.1899 135.201 48.2392Z" fill="#04005E"/>
<path d="M127.781 48.2392C127.781 50.2886 129.442 51.95 131.491 51.95H153.756C155.805 51.95 157.467 50.2886 157.467 48.2392C157.467 46.1899 155.805 44.5285 153.756 44.5285H131.491C129.442 44.5285 127.781 46.1899 127.781 48.2392Z" fill="#04005E"/>
<circle cx="168.599" cy="18.5537" r="3.71072" fill="#04005E"/>
<rect x="164.888" y="29.6858" width="7.42143" height="14.8429" rx="3.71072" fill="#04005E"/>
<path d="M7.44287 11.1323C7.44287 9.08298 9.10422 7.42163 11.1536 7.42163H40.8393C42.8887 7.42163 44.55 9.08298 44.55 11.1323C44.55 13.1817 42.8887 14.8431 40.8393 14.8431H11.1536C9.10422 14.8431 7.44287 13.1817 7.44287 11.1323Z" fill="#04005E"/>
<path d="M3.73269 44.5251C1.68332 44.5251 0.0219727 42.8638 0.0219727 40.8144L0.0219727 18.5501C0.0219727 16.5008 1.68332 14.8394 3.73269 14.8394C5.78206 14.8394 7.44341 16.5008 7.44341 18.5501L7.44341 40.8144C7.44341 42.8638 5.78206 44.5251 3.73269 44.5251Z" fill="#04005E"/>
<path d="M48.4971 44.5251C46.3176 44.5251 44.5508 42.8638 44.5508 40.8144V18.5501C44.5508 16.5008 46.3176 14.8394 48.4971 14.8394C50.6766 14.8394 52.4434 16.5008 52.4434 18.5501V40.8144C52.4434 42.8638 50.6766 44.5251 48.4971 44.5251Z" fill="#04005E"/>
<path d="M7.44287 48.2359C7.44287 46.1865 9.10422 44.5251 11.1536 44.5251H40.8393C42.8887 44.5251 44.55 46.1865 44.55 48.2359C44.55 50.2852 42.8887 51.9466 40.8393 51.9466H11.1536C9.10422 51.9466 7.44287 50.2852 7.44287 48.2359Z" fill="#04005E"/>
<path d="M44.5506 18.5535C44.6675 15.365 41.9684 14.7512 40.6042 14.8428L44.5506 11.1321C44.9014 14.2106 47.3276 14.8886 48.4969 14.8428L44.5506 18.5535Z" fill="#04005E"/>
<path d="M7.44241 48.2356C7.55934 45.0472 4.86025 44.4333 3.49609 44.5249L7.44241 40.8142C7.7932 43.8927 10.2195 44.5707 11.3887 44.5249L7.44241 48.2356Z" fill="#04005E"/>
<path d="M44.5512 48.2356C44.4343 45.0472 47.1334 44.4333 48.4976 44.5249L44.5512 40.8142C44.2005 43.8927 41.7742 44.5707 40.6049 44.5249L44.5512 48.2356Z" fill="#04005E"/>
<path d="M7.44406 18.5501C7.32713 15.3616 10.0262 14.7478 11.3904 14.8394L7.44406 11.1287C7.09328 14.2072 4.66702 14.8852 3.49774 14.8394L7.44406 18.5501Z" fill="#04005E"/>
<path d="M187.712 11.1321C187.712 9.08273 189.374 7.42139 191.423 7.42139H221.109C223.158 7.42139 224.82 9.08273 224.82 11.1321C224.82 13.1815 223.158 14.8428 221.109 14.8428H191.423C189.374 14.8428 187.712 13.1815 187.712 11.1321Z" fill="#04005E"/>
<path d="M184.002 44.5249C181.953 44.5249 180.292 42.8636 180.292 40.8142V18.5499C180.292 16.5005 181.953 14.8392 184.002 14.8392C186.052 14.8392 187.713 16.5005 187.713 18.5499V40.8142C187.713 42.8636 186.052 44.5249 184.002 44.5249Z" fill="#04005E"/>
<path d="M228.767 44.5249C226.587 44.5249 224.821 42.8636 224.821 40.8142V18.5499C224.821 16.5005 226.587 14.8392 228.767 14.8392C230.946 14.8392 232.713 16.5005 232.713 18.5499V40.8142C232.713 42.8636 230.946 44.5249 228.767 44.5249Z" fill="#04005E"/>
<path d="M187.712 48.2356C187.712 46.1862 189.374 44.5249 191.423 44.5249H221.109C223.158 44.5249 224.82 46.1862 224.82 48.2356C224.82 50.285 223.158 51.9463 221.109 51.9463H191.423C189.374 51.9463 187.712 50.285 187.712 48.2356Z" fill="#04005E"/>
<path d="M224.82 18.5533C224.937 15.3648 222.238 14.7509 220.874 14.8426L224.82 11.1318C225.171 14.2104 227.597 14.8884 228.766 14.8426L224.82 18.5533Z" fill="#04005E"/>
<path d="M187.712 48.2352C187.829 45.0467 185.13 44.4328 183.766 44.5244L187.712 40.8137C188.063 43.8922 190.489 44.5703 191.658 44.5244L187.712 48.2352Z" fill="#04005E"/>
<path d="M224.821 48.2352C224.704 45.0467 227.403 44.4328 228.767 44.5244L224.821 40.8137C224.47 43.8922 222.044 44.5703 220.874 44.5244L224.821 48.2352Z" fill="#04005E"/>
<path d="M187.713 18.5499C187.596 15.3614 190.295 14.7475 191.659 14.8391L187.713 11.1284C187.362 14.2069 184.936 14.8849 183.766 14.8391L187.713 18.5499Z" fill="#04005E"/>
</svg>
