<svg width="811" height="157" viewBox="0 0 811 157" fill="none" xmlns="http://www.w3.org/2000/svg">
<path d="M31.7545 14.1895H16.8906V43.2415C16.8906 50.7674 19.8803 57.985 25.2019 63.3066C30.5235 68.6282 37.7411 71.6179 45.267 71.6179C52.7929 71.6179 60.0106 68.6282 65.3322 63.3066C70.6538 57.985 73.6434 50.7674 73.6434 43.2415V14.1895H58.104" stroke="black" stroke-width="3.57" stroke-miterlimit="10" stroke-linecap="square"/>
<path d="M139.855 27.025V12.1611H97.2906C87.1562 12.1611 83.1024 19.593 83.1024 27.025C83.1024 33.1056 87.8318 40.5375 97.9662 40.5375H124.991C135.126 40.5375 139.855 47.9694 139.855 54.0501C139.855 61.482 135.801 68.9139 125.667 68.9139H82.4268V54.7257" stroke="black" stroke-width="3.57" stroke-miterlimit="10" stroke-linecap="square"/>
<path d="M206.742 27.0248V11.4854H149.989V68.2381H206.066V53.3743" stroke="black" stroke-width="3.9" stroke-miterlimit="10" stroke-linecap="square"/>
<path d="M188.5 39.8618H149.854" stroke="black" stroke-width="3.9" stroke-miterlimit="10" stroke-linecap="square"/>
<path d="M188.5 25.6733V54.7254" stroke="black" stroke-width="3.9" stroke-miterlimit="10" stroke-linecap="square"/>
<path d="M234.719 69.1668H219.379V11.1392H261.912C272.37 11.1392 277.251 18.8296 277.251 25.1217C277.251 32.8121 273.068 40.5026 262.609 40.5026H219.379" stroke="black" stroke-width="3.57" stroke-miterlimit="10" stroke-linecap="square"/>
<path d="M247.27 41.2017L275.857 69.1668H277.251V54.4851" stroke="black" stroke-width="3.57" stroke-miterlimit="10" stroke-linecap="square"/>
<path d="M408.079 27.025V12.1611H365.515C355.38 12.1611 351.327 19.593 351.327 27.025C351.327 33.1056 356.056 40.5375 366.19 40.5375H393.215C403.35 40.5375 408.079 47.9694 408.079 54.0501C408.079 61.482 404.026 68.9139 393.891 68.9139H350.651V54.7257" stroke="black" stroke-width="3.57" stroke-miterlimit="10" stroke-linecap="square"/>
<path d="M416.863 27.025V12.1611H473.616V27.025" stroke="black" stroke-width="3.57" stroke-miterlimit="10" stroke-linecap="square"/>
<path d="M445.916 69.5894V12.769" stroke="black" stroke-width="3.57" stroke-miterlimit="10" stroke-linecap="square"/>
<path d="M509.424 68.2381C525.096 68.2381 537.8 55.5336 537.8 39.8617C537.8 24.1899 525.096 11.4854 509.424 11.4854C493.752 11.4854 481.047 24.1899 481.047 39.8617C481.047 55.5336 493.752 68.2381 509.424 68.2381Z" stroke="black" stroke-width="3.57" stroke-miterlimit="10" stroke-linecap="square"/>
<path d="M562.798 67.5625H547.935V11.4854H589.148C599.282 11.4854 604.012 18.9173 604.012 24.9979C604.012 32.4298 599.958 39.8617 589.824 39.8617H547.935" stroke="black" stroke-width="3.57" stroke-miterlimit="10" stroke-linecap="square"/>
<path d="M574.959 40.5376L602.66 67.5627H604.011V53.3745" stroke="black" stroke-width="3.57" stroke-miterlimit="10" stroke-linecap="square"/>
<path d="M612.795 25.6734V10.8096H669.548V25.6734" stroke="black" stroke-width="3.57" stroke-miterlimit="10" stroke-linecap="square"/>
<path d="M669.548 53.374V68.2378H612.795V53.374" stroke="black" stroke-width="3.57" stroke-miterlimit="10" stroke-linecap="square"/>
<path d="M641.847 68.2378V11.4175" stroke="black" stroke-width="3.57" stroke-miterlimit="10" stroke-linecap="square"/>
<path d="M735.759 27.0248V11.4854H679.006V68.2381H735.084V53.3743" stroke="black" stroke-width="3.9" stroke-miterlimit="10" stroke-linecap="square"/>
<path d="M717.517 39.8618H680.357" stroke="black" stroke-width="3.9" stroke-miterlimit="10" stroke-linecap="square"/>
<path d="M717.517 25.6733V54.7254" stroke="black" stroke-width="3.9" stroke-miterlimit="10" stroke-linecap="square"/>
<path d="M808.727 25.6739V10.8101H766.163C756.028 10.8101 751.974 18.242 751.974 25.6739C751.974 31.7545 756.704 39.1865 766.838 39.1865H793.863C803.998 39.1865 808.727 46.6184 808.727 52.699C808.727 60.1309 804.673 67.5628 794.539 67.5628H751.299V53.3746" stroke="black" stroke-width="3.57" stroke-miterlimit="10" stroke-linecap="square"/>
</svg>
