<svg width="36" height="36" viewBox="0 0 36 36" fill="none" xmlns="http://www.w3.org/2000/svg">
<path d="M17.25 31.5C18.7969 31.5 20.0625 30.2538 20.0625 28.7308H14.4375C14.4375 30.2538 15.7031 31.5 17.25 31.5ZM25.6875 23.1923V16.2692C25.6875 12.0185 23.3953 8.46 19.3594 7.51846V6.57692C19.3594 5.42769 18.4172 4.5 17.25 4.5C16.0828 4.5 15.1406 5.42769 15.1406 6.57692V7.51846C11.1187 8.46 8.8125 12.0046 8.8125 16.2692V23.1923L6 25.9615V27.3462H28.5V25.9615L25.6875 23.1923ZM22.875 24.5769H11.625V16.2692C11.625 12.8354 13.7484 10.0385 17.25 10.0385C20.7516 10.0385 22.875 12.8354 22.875 16.2692V24.5769Z" fill="#75FEFA"/>
</svg>
