<svg width="36" height="36" viewBox="0 0 36 36" fill="none" xmlns="http://www.w3.org/2000/svg">
<path d="M22.3125 11.4792V29.0428L16.6115 26.5917L15.5417 26.1313L14.4719 26.5917L8.77083 29.0428V11.4792H22.3125ZM27.7292 3.35425H14.174C12.6844 3.35425 11.4792 4.573 11.4792 6.06258H25.0208C26.5104 6.06258 27.7292 7.28133 27.7292 8.77092V26.3751L30.4375 27.7292V6.06258C30.4375 4.573 29.2188 3.35425 27.7292 3.35425ZM22.3125 8.77092H8.77083C7.28125 8.77092 6.0625 9.98967 6.0625 11.4792V33.1459L15.5417 29.0834L25.0208 33.1459V11.4792C25.0208 9.98967 23.8021 8.77092 22.3125 8.77092Z" fill="#75FEFA"/>
</svg>
