<svg width="1440" height="955" viewBox="0 0 1440 955" fill="none" xmlns="http://www.w3.org/2000/svg">
<path fill-rule="evenodd" clip-rule="evenodd" d="M1440 64V0L4.40594e-06 0.000940444L0 65L2.32458e-05 890L0 955L1440 954.999V891V890V64.9991V64ZM1408 192.479C1402.42 121.62 1343.33 65.8628 1271.25 65.8628C1195.49 65.8628 1134.07 127.467 1134.07 203.46C1134.07 275.019 1079.61 333.819 1010 340.437C1005.68 340.027 1001.31 339.817 996.89 339.817C921.128 339.817 859.71 278.213 859.71 202.22C859.71 129.677 803.741 70.2452 732.753 64.9995L712.306 64.9995C641.318 70.2453 585.349 129.677 585.349 202.22C585.349 278.213 523.932 339.817 448.169 339.817C372.477 339.817 311.102 278.327 310.989 202.431L310.989 202.22C310.989 129.678 255.023 70.2479 184.037 64.9999L163.581 64.9999C95.952 69.9998 41.9558 124.179 37 192.021V212.42C42.2032 283.65 101.466 339.817 173.809 339.817C249.571 339.817 310.989 401.421 310.989 477.414C310.989 553.407 249.571 615.012 173.809 615.012C101.467 615.012 42.2032 671.179 37 742.409V762.808C42.021 831.543 97.3816 886.253 166.258 890.001H181.361C253.611 886.069 310.989 826.06 310.989 752.609L310.989 752.398C311.102 676.502 372.476 615.012 448.169 615.012C523.932 615.012 585.349 676.616 585.349 752.609C585.349 826.058 642.724 886.066 714.972 890L730.088 890C802.335 886.065 859.71 826.058 859.71 752.609C859.71 676.616 921.128 615.012 996.89 615.012C1072.65 615.012 1134.07 676.616 1134.07 752.609C1134.07 826.056 1191.44 886.062 1263.69 890H1278.81C1347.42 886.26 1402.62 831.953 1408 763.589V741.628C1402.42 670.769 1343.33 615.012 1271.25 615.012C1195.69 615.012 1134.4 553.742 1134.07 478.034C1134.4 402.326 1195.69 341.057 1271.25 341.057C1343.33 341.057 1402.42 285.299 1408 214.44V192.479Z" fill="#CCFD38"/>
</svg>
