<svg width="556" height="1254" viewBox="0 0 556 1254" fill="none" xmlns="http://www.w3.org/2000/svg">
<mask id="mask0" mask-type="alpha" maskUnits="userSpaceOnUse" x="-736" y="0" width="1292" height="1502">
<path d="M-437.198 698.609C-245.446 727.543 -66.5519 595.501 -37.6271 403.684C-8.70238 211.866 -140.7 32.9118 -332.453 3.97733C-524.205 -24.9572 -703.099 107.085 -732.024 298.903C-760.949 490.72 -628.951 669.674 -437.198 698.609Z" fill="#9896AE"/>
<path d="M152.453 1498.02C344.205 1526.96 523.099 1394.91 552.024 1203.1C580.949 1011.28 448.951 832.325 257.198 803.391C65.4458 774.456 -113.448 906.499 -142.373 1098.32C-171.298 1290.13 -39.2999 1469.09 152.453 1498.02Z" fill="#9896AE"/>
<path d="M-37.6271 403.684C-66.5522 595.499 -245.448 727.543 -437.198 698.609C-245.448 727.543 -113.448 906.499 -142.373 1098.31C-113.448 906.499 65.4477 774.455 257.198 803.389C65.4482 774.455 -66.5508 595.499 -37.6271 403.684Z" fill="#9896AE"/>
</mask>
<g mask="url(#mask0)">
<rect x="-4" y="619" width="560" height="635" fill="#9896AE"/>
</g>
</svg>
