<svg width="342" height="59" viewBox="0 0 342 59" fill="none" xmlns="http://www.w3.org/2000/svg">
<rect y="52" width="341" height="7" rx="3.5" fill="#04005E"/>
<path d="M159.372 37.9199C162.111 37.9199 163.515 35.7153 163.515 33.8321L166.939 37.2562C164.542 37.2562 162.83 39.3107 162.83 41.3652L159.372 37.9199Z" fill="#04005E"/>
<path d="M126.259 41.3652C126.259 38.6259 124.033 37.2562 122.15 37.2562L125.574 33.832C125.574 36.229 127.629 37.9199 129.683 37.9199L127.971 39.632L126.259 41.3652Z" fill="#04005E"/>
<path d="M122.15 30.3739C124.89 30.3739 126.259 28.1482 126.259 26.2649L129.683 29.6891C127.286 29.6891 125.574 31.7436 125.574 33.7981L122.15 30.3739Z" fill="#04005E"/>
<path d="M122.128 7.808C124.868 7.808 126.237 5.58229 126.237 3.699L129.662 7.12317C127.265 7.12317 125.553 9.17767 125.553 11.2322L122.128 7.808Z" fill="#04005E"/>
<path d="M159.406 22.8747C162.145 22.8747 163.515 20.6489 163.515 18.7656L166.939 22.1898C164.542 22.1898 162.83 24.2443 162.83 26.2988L159.406 22.8747Z" fill="#04005E"/>
<path d="M162.83 3.69931C162.83 6.43865 165.056 7.80832 166.939 7.80832L163.515 11.2325C163.515 8.83557 161.46 7.12349 159.406 7.12349L162.83 3.69931Z" fill="#04005E"/>
<path d="M162.83 26.2989C162.83 29.0382 165.056 30.4079 166.939 30.4079L163.515 33.832C163.515 31.4351 161.46 29.723 159.406 29.723L162.83 26.2989Z" fill="#04005E"/>
<circle cx="159.406" cy="41.3651" r="2" transform="rotate(-180 159.406 41.3651)" fill="#04005E" stroke="#04005E" stroke-width="2.84835"/>
<circle cx="152.215" cy="41.3651" r="2" transform="rotate(-180 152.215 41.3651)" fill="#04005E" stroke="#04005E" stroke-width="2.84835"/>
<circle cx="144.682" cy="41.3651" r="2" transform="rotate(-180 144.682 41.3651)" fill="#04005E" stroke="#04005E" stroke-width="2.84835"/>
<path d="M128.24 41.3541C128.24 40.5617 128.882 39.9194 129.675 39.9194C130.467 39.9194 131.109 40.5617 131.109 41.3541C131.109 42.1465 130.467 42.7888 129.675 42.7888C128.882 42.7888 128.24 42.1465 128.24 41.3541Z" fill="#04005E" stroke="#04005E" stroke-width="4"/>
<path d="M120.705 33.7984C120.705 33.006 121.347 32.3637 122.14 32.3637C122.932 32.3637 123.574 33.006 123.574 33.7984C123.574 34.5908 122.932 35.2332 122.14 35.2332C121.347 35.2332 120.705 34.5908 120.705 33.7984Z" fill="#04005E" stroke="#04005E" stroke-width="4"/>
<path d="M120.704 26.2311C120.704 25.4446 121.342 24.8069 122.129 24.8069C122.915 24.8069 123.553 25.4446 123.553 26.2311C123.553 27.0176 122.915 27.6553 122.129 27.6553C121.342 27.6553 120.704 27.0176 120.704 26.2311Z" fill="#04005E" stroke="#04005E" stroke-width="4"/>
<circle cx="166.939" cy="33.8319" r="2" transform="rotate(-180 166.939 33.8319)" fill="#04005E" stroke="#04005E" stroke-width="2.84835"/>
<circle cx="166.939" cy="26.299" r="2" transform="rotate(-180 166.939 26.299)" fill="#04005E" stroke="#04005E" stroke-width="2.84835"/>
<circle cx="166.939" cy="19.4501" r="2" transform="rotate(-180 166.939 19.4501)" fill="#04005E" stroke="#04005E" stroke-width="2.84835"/>
<circle cx="166.939" cy="11.2321" r="2" transform="rotate(-180 166.939 11.2321)" fill="#04005E" stroke="#04005E" stroke-width="2.84835"/>
<circle cx="159.406" cy="3.69961" r="2" transform="rotate(-180 159.406 3.69961)" fill="#04005E" stroke="#04005E" stroke-width="2.84835"/>
<circle cx="152.215" cy="3.69961" r="2" transform="rotate(-180 152.215 3.69961)" fill="#04005E" stroke="#04005E" stroke-width="2.84835"/>
<circle cx="144.682" cy="3.69961" r="2" transform="rotate(-180 144.682 3.69961)" fill="#04005E" stroke="#04005E" stroke-width="2.84835"/>
<circle cx="129.662" cy="3.69961" r="2" transform="rotate(-180 129.662 3.69961)" fill="#04005E" stroke="#04005E" stroke-width="2.84835"/>
<circle cx="122.129" cy="11.2321" r="2" transform="rotate(-180 122.129 11.2321)" fill="#04005E" stroke="#04005E" stroke-width="2.84835"/>
<circle cx="159.406" cy="26.299" r="2" transform="rotate(-180 159.406 26.299)" fill="#04005E" stroke="#04005E" stroke-width="2.84835"/>
<path d="M159.396 44.7893L129.695 44.7893L129.695 37.9198L159.396 37.9198L159.396 44.7893Z" fill="#04005E"/>
<rect x="167.066" y="29.6765" width="44.7889" height="6.86946" transform="rotate(-180 167.066 29.6765)" fill="#04005E"/>
<rect x="118.704" y="33.4895" width="7.19076" height="6.84835" transform="rotate(-90 118.704 33.4895)" fill="#04005E"/>
<rect x="159.372" y="7.14429" width="29.6761" height="6.86946" transform="rotate(-180 159.372 7.14429)" fill="#04005E"/>
<rect x="164.015" y="33.332" width="21.5995" height="5.84834" transform="rotate(-90 164.015 33.332)" fill="#04005E" stroke="#04005E"/>
<rect x="247.575" y="37.3699" width="22.8066" height="7.41902" fill="#04005E"/>
<rect x="247.575" y="15.1128" width="22.5318" height="7.41902" fill="#04005E"/>
<path fill-rule="evenodd" clip-rule="evenodd" d="M244.553 11.4031C244.553 13.4518 242.892 15.1126 240.844 15.1126C242.892 15.1126 244.553 16.7733 244.553 18.8221C244.553 16.7733 246.214 15.1126 248.263 15.1126C246.214 15.1126 244.553 13.4518 244.553 11.4031Z" fill="#04005E"/>
<path fill-rule="evenodd" clip-rule="evenodd" d="M244.553 18.8221C244.553 20.8709 242.892 22.5316 240.844 22.5316C242.892 22.5316 244.553 24.1923 244.553 26.2411C244.553 24.1923 246.214 22.5316 248.263 22.5316C246.214 22.5316 244.553 20.8709 244.553 18.8221Z" fill="#04005E"/>
<path fill-rule="evenodd" clip-rule="evenodd" d="M244.553 33.6602C244.553 35.7089 242.892 37.3697 240.844 37.3697C242.892 37.3697 244.553 39.0304 244.553 41.0792C244.553 39.0304 246.214 37.3697 248.263 37.3697C246.214 37.3697 244.553 35.7089 244.553 33.6602Z" fill="#04005E"/>
<path fill-rule="evenodd" clip-rule="evenodd" d="M274.228 18.8225C274.228 20.8713 272.568 22.532 270.519 22.532C272.568 22.532 274.228 24.1928 274.228 26.2415C274.228 24.1928 275.889 22.532 277.938 22.532C275.889 22.532 274.228 20.8713 274.228 18.8225Z" fill="#04005E"/>
<path fill-rule="evenodd" clip-rule="evenodd" d="M274.228 33.6602C274.228 35.7089 272.568 37.3697 270.519 37.3697C272.568 37.3697 274.228 39.0304 274.228 41.0792C274.228 39.0304 275.889 37.3697 277.938 37.3697C275.889 37.3697 274.228 35.7089 274.228 33.6602Z" fill="#04005E"/>
<rect x="237.133" y="4.12158" width="7.41902" height="29.6761" fill="#04005E"/>
<rect x="274.229" y="26.3787" width="7.41902" height="7.41902" fill="#04005E"/>
<circle cx="248.262" cy="18.8223" r="3.70951" fill="#04005E"/>
<circle cx="248.262" cy="41.0794" r="3.70951" fill="#04005E"/>
<circle cx="240.843" cy="3.98441" r="3.70951" fill="#04005E"/>
<circle cx="240.843" cy="33.6604" r="3.70951" fill="#04005E"/>
<circle cx="277.938" cy="26.2412" r="3.70951" fill="#04005E"/>
<circle cx="270.519" cy="18.8223" r="3.70951" fill="#04005E"/>
<circle cx="270.519" cy="41.0794" r="3.70951" fill="#04005E"/>
<circle cx="277.938" cy="33.6604" r="3.70951" fill="#04005E"/>
<rect x="341.001" y="40.9426" width="7.41902" height="29.6761" transform="rotate(-180 341.001 40.9426)" fill="#04005E"/>
<rect x="322.316" y="7.69434" width="7.41902" height="7.41902" transform="rotate(-90 322.316 7.69434)" fill="#04005E"/>
<rect x="301.158" y="44.7896" width="7.41902" height="7.41902" transform="rotate(-90 301.158 44.7896)" fill="#04005E"/>
<rect x="296.487" y="33.6611" width="7.41902" height="29.6761" transform="rotate(-180 296.487 33.6611)" fill="#04005E"/>
<rect x="318.744" y="33.5237" width="7.41902" height="22.2571" transform="rotate(-180 318.744 33.5237)" fill="#04005E"/>
<circle cx="300.196" cy="41.08" r="3.70951" transform="rotate(-180 300.196 41.08)" fill="#04005E"/>
<circle cx="307.615" cy="41.08" r="3.70951" transform="rotate(-180 307.615 41.08)" fill="#04005E"/>
<circle cx="329.873" cy="3.98483" r="3.70951" transform="rotate(-180 329.873 3.98483)" fill="#04005E"/>
<circle cx="322.453" cy="3.98483" r="3.70951" transform="rotate(-180 322.453 3.98483)" fill="#04005E"/>
<circle cx="337.291" cy="41.0798" r="3.70951" transform="rotate(-180 337.291 41.0798)" fill="#04005E"/>
<circle cx="292.778" cy="33.6609" r="3.70951" transform="rotate(-180 292.778 33.6609)" fill="#04005E"/>
<circle cx="292.778" cy="3.98483" r="3.70951" transform="rotate(-180 292.778 3.98483)" fill="#04005E"/>
<circle cx="337.292" cy="11.4038" r="3.70951" transform="rotate(-180 337.292 11.4038)" fill="#04005E"/>
<circle cx="315.035" cy="33.6609" r="3.70951" transform="rotate(-180 315.035 33.6609)" fill="#04005E"/>
<circle cx="315.035" cy="11.4038" r="3.70951" transform="rotate(-180 315.035 11.4038)" fill="#04005E"/>
<path d="M292.777 37.3704C295.964 37.2535 296.578 39.9517 296.486 41.3154L300.196 37.3704C297.118 37.0197 296.44 34.5943 296.486 33.4254L292.777 37.3704Z" fill="#04005E"/>
<path d="M311.324 33.6608C311.434 36.8482 308.897 37.4619 307.615 37.3703L311.324 41.0798C311.654 38.0023 313.935 37.3245 315.034 37.3703L311.324 33.6608Z" fill="#04005E"/>
<path d="M329.872 7.69413C333.06 7.57724 333.673 10.2754 333.582 11.6392L337.291 7.69413C334.214 7.34346 333.536 4.91799 333.582 3.74909L329.872 7.69413Z" fill="#04005E"/>
<path d="M318.743 3.98455C318.86 7.17198 316.162 7.78565 314.798 7.69405L318.743 11.4036C319.094 8.32605 321.519 7.64826 322.688 7.69405L318.743 3.98455Z" fill="#04005E"/>
<path d="M7.41919 3.98392C7.41919 1.93522 9.07999 0.274414 11.1287 0.274414H40.8048C42.8535 0.274414 44.5143 1.93522 44.5143 3.98392C44.5143 6.03263 42.8535 7.69343 40.8048 7.69343H11.1287C9.07999 7.69343 7.41919 6.03263 7.41919 3.98392Z" fill="#04005E"/>
<path d="M3.70951 37.3696C1.6608 37.3696 0 35.7088 0 33.6601L0 11.4031C0 9.35436 1.6608 7.69356 3.70951 7.69356C5.75821 7.69356 7.41902 9.35436 7.41902 11.4031L7.41902 33.6601C7.41902 35.7088 5.75821 37.3696 3.70951 37.3696Z" fill="#04005E"/>
<path d="M7.41919 41.0791C7.41919 39.0304 9.07999 37.3696 11.1287 37.3696H40.8048C42.8535 37.3696 44.5143 39.0304 44.5143 41.0791C44.5143 43.1278 42.8535 44.7886 40.8048 44.7886H11.1287C9.07999 44.7886 7.41919 43.1278 7.41919 41.0791Z" fill="#04005E"/>
<path d="M44.5136 11.4031C44.6305 8.21572 41.9323 7.60205 40.5686 7.69364L44.5136 3.98413C44.8643 7.06165 47.2898 7.73944 48.4587 7.69364L44.5136 11.4031Z" fill="#04005E"/>
<path d="M7.41915 41.0789C7.53604 37.8915 4.83784 37.2778 3.47412 37.3694L7.41915 33.6599C7.76982 36.7374 10.1953 37.4152 11.3642 37.3694L7.41915 41.0789Z" fill="#04005E"/>
<path d="M44.5142 41.0794C44.3973 37.892 47.0955 37.2783 48.4592 37.3699L44.5142 33.6604C44.1635 36.7379 41.7381 37.4157 40.5692 37.3699L44.5142 41.0794Z" fill="#04005E"/>
<path d="M7.41874 11.4031C7.30185 8.21572 10.0001 7.60205 11.3638 7.69364L7.41874 3.98413C7.06807 7.06165 4.6426 7.73944 3.4737 7.69364L7.41874 11.4031Z" fill="#04005E"/>
<circle cx="48.2238" cy="11.4033" r="3.70951" transform="rotate(-180 48.2238 11.4033)" fill="#04005E"/>
<circle cx="48.2238" cy="33.6601" r="3.70951" transform="rotate(-180 48.2238 33.6601)" fill="#04005E"/>
<path d="M82.1587 11.1285C82.2755 7.94106 79.5773 7.32739 78.2136 7.41898L82.1587 3.70947C82.5093 6.78699 84.9348 7.46478 86.1037 7.41898L82.1587 11.1285Z" fill="#04005E"/>
<path d="M89.5765 11.1285C89.4596 7.94106 92.1578 7.32739 93.5215 7.41898L89.5765 3.70947C89.2258 6.78699 86.8003 7.46478 85.6314 7.41898L89.5765 11.1285Z" fill="#04005E"/>
<rect x="89.5771" y="40.8562" width="7.41902" height="30.3355" transform="rotate(-180 89.5771 40.8562)" fill="#04005E"/>
<ellipse cx="85.8657" cy="40.9969" rx="3.70951" ry="3.79194" transform="rotate(-180 85.8657 40.9969)" fill="#04005E"/>
<ellipse cx="85.8676" cy="10.6612" rx="3.70951" ry="3.79194" transform="rotate(-180 85.8676 10.6612)" fill="#04005E"/>
<rect x="59.3516" y="7.41895" width="7.41901" height="51.9331" rx="3.70951" transform="rotate(-90 59.3516 7.41895)" fill="#04005E"/>
<path d="M200.588 11.1285C200.705 7.94106 198.007 7.32739 196.643 7.41898L200.588 3.70947C200.939 6.78699 203.364 7.46478 204.533 7.41898L200.588 11.1285Z" fill="#04005E"/>
<path d="M208.006 11.1285C207.889 7.94106 210.587 7.32739 211.951 7.41898L208.006 3.70947C207.655 6.78699 205.23 7.46478 204.061 7.41898L208.006 11.1285Z" fill="#04005E"/>
<rect x="208.006" y="40.8562" width="7.41902" height="30.3355" transform="rotate(-180 208.006 40.8562)" fill="#04005E"/>
<ellipse cx="204.297" cy="40.9969" rx="3.70951" ry="3.79194" transform="rotate(-180 204.297 40.9969)" fill="#04005E"/>
<ellipse cx="204.297" cy="10.6612" rx="3.70951" ry="3.79194" transform="rotate(-180 204.297 10.6612)" fill="#04005E"/>
<rect x="177.781" y="7.41895" width="7.41901" height="51.9331" rx="3.70951" transform="rotate(-90 177.781 7.41895)" fill="#04005E"/>
</svg>
