<svg width="481" height="128" viewBox="0 0 481 128" fill="none" xmlns="http://www.w3.org/2000/svg">
<rect y="121" width="481" height="7" rx="3.5" fill="#04005E"/>
<path d="M195.417 75.8759C192.625 75.8759 191.23 78.1441 191.23 80.0633L187.74 76.5738C190.183 76.5738 191.928 74.4801 191.928 72.3865L195.417 75.8759Z" fill="#04005E"/>
<path d="M229.196 72.3884C229.196 75.18 231.464 76.5757 233.383 76.5757L229.894 80.0652C229.894 77.6226 227.8 75.8994 225.707 75.8994L227.451 74.1547L229.196 72.3884Z" fill="#04005E"/>
<path d="M233.383 83.5898C230.592 83.5898 229.196 85.8579 229.196 87.7771L225.707 84.2877C228.149 84.2877 229.894 82.194 229.894 80.1003L233.383 83.5898Z" fill="#04005E"/>
<path d="M233.405 106.583C230.613 106.583 229.217 108.851 229.217 110.77L225.728 107.281C228.171 107.281 229.915 105.187 229.915 103.094L233.405 106.583Z" fill="#04005E"/>
<path d="M195.417 91.2294C192.625 91.2294 191.23 93.4976 191.23 95.4168L187.74 91.9273C190.183 91.9273 191.928 89.8337 191.928 87.74L195.417 91.2294Z" fill="#04005E"/>
<path d="M191.928 110.772C191.928 107.981 189.659 106.585 187.74 106.585L191.23 103.096C191.23 105.538 193.323 107.283 195.417 107.283L191.928 110.772Z" fill="#04005E"/>
<path d="M191.928 87.742C191.928 84.9504 189.659 83.5546 187.74 83.5546L191.23 80.0652C191.23 82.5078 193.323 84.2525 195.417 84.2525L191.928 87.742Z" fill="#04005E"/>
<path d="M198.907 72.3898C198.907 74.317 197.345 75.8793 195.417 75.8793C193.49 75.8793 191.928 74.317 191.928 72.3898C191.928 70.4627 193.49 68.9004 195.417 68.9004C197.345 68.9004 198.907 70.4627 198.907 72.3898Z" fill="#04005E"/>
<path fill-rule="evenodd" clip-rule="evenodd" d="M195.417 74.7592C196.726 74.7592 197.787 73.6984 197.787 72.3898C197.787 71.0813 196.726 70.0205 195.417 70.0205C194.109 70.0205 193.048 71.0813 193.048 72.3898C193.048 73.6984 194.109 74.7592 195.417 74.7592ZM195.417 75.8793C197.345 75.8793 198.907 74.317 198.907 72.3898C198.907 70.4627 197.345 68.9004 195.417 68.9004C193.49 68.9004 191.928 70.4627 191.928 72.3898C191.928 74.317 193.49 75.8793 195.417 75.8793Z" fill="#04005E"/>
<path d="M206.235 72.3898C206.235 74.317 204.673 75.8793 202.746 75.8793C200.819 75.8793 199.256 74.317 199.256 72.3898C199.256 70.4627 200.819 68.9004 202.746 68.9004C204.673 68.9004 206.235 70.4627 206.235 72.3898Z" fill="#04005E"/>
<path fill-rule="evenodd" clip-rule="evenodd" d="M202.746 74.7592C204.054 74.7592 205.115 73.6984 205.115 72.3898C205.115 71.0813 204.054 70.0205 202.746 70.0205C201.437 70.0205 200.376 71.0813 200.376 72.3898C200.376 73.6984 201.437 74.7592 202.746 74.7592ZM202.746 75.8793C204.673 75.8793 206.235 74.317 206.235 72.3898C206.235 70.4627 204.673 68.9004 202.746 68.9004C200.819 68.9004 199.256 70.4627 199.256 72.3898C199.256 74.317 200.819 75.8793 202.746 75.8793Z" fill="#04005E"/>
<path d="M213.911 72.3898C213.911 74.317 212.349 75.8793 210.422 75.8793C208.494 75.8793 206.932 74.317 206.932 72.3898C206.932 70.4627 208.494 68.9004 210.422 68.9004C212.349 68.9004 213.911 70.4627 213.911 72.3898Z" fill="#04005E"/>
<path fill-rule="evenodd" clip-rule="evenodd" d="M210.422 74.7592C211.73 74.7592 212.791 73.6984 212.791 72.3898C212.791 71.0813 211.73 70.0205 210.422 70.0205C209.113 70.0205 208.052 71.0813 208.052 72.3898C208.052 73.6984 209.113 74.7592 210.422 74.7592ZM210.422 75.8793C212.349 75.8793 213.911 74.317 213.911 72.3898C213.911 70.4627 212.349 68.9004 210.422 68.9004C208.494 68.9004 206.932 70.4627 206.932 72.3898C206.932 74.317 208.494 75.8793 210.422 75.8793Z" fill="#04005E"/>
<path d="M229.216 72.4006C229.216 74.3337 227.649 75.9008 225.716 75.9008C223.783 75.9008 222.216 74.3337 222.216 72.4006C222.216 70.4675 223.783 68.9004 225.716 68.9004C227.649 68.9004 229.216 70.4675 229.216 72.4006Z" fill="#04005E"/>
<path fill-rule="evenodd" clip-rule="evenodd" d="M225.716 74.7807C227.03 74.7807 228.096 73.7151 228.096 72.4006C228.096 71.0861 227.03 70.0205 225.716 70.0205C224.401 70.0205 223.336 71.0861 223.336 72.4006C223.336 73.7151 224.401 74.7807 225.716 74.7807ZM225.716 75.9008C227.649 75.9008 229.216 74.3337 229.216 72.4006C229.216 70.4675 227.649 68.9004 225.716 68.9004C223.783 68.9004 222.216 70.4675 222.216 72.4006C222.216 74.3337 223.783 75.9008 225.716 75.9008Z" fill="#04005E"/>
<path d="M236.894 80.0998C236.894 82.0329 235.327 83.6 233.394 83.6C231.461 83.6 229.894 82.0329 229.894 80.0998C229.894 78.1667 231.461 76.5996 233.394 76.5996C235.327 76.5996 236.894 78.1667 236.894 80.0998Z" fill="#04005E"/>
<path fill-rule="evenodd" clip-rule="evenodd" d="M233.394 82.48C234.708 82.48 235.774 81.4143 235.774 80.0998C235.774 78.7853 234.708 77.7197 233.394 77.7197C232.079 77.7197 231.014 78.7853 231.014 80.0998C231.014 81.4143 232.079 82.48 233.394 82.48ZM233.394 83.6C235.327 83.6 236.894 82.0329 236.894 80.0998C236.894 78.1667 235.327 76.5996 233.394 76.5996C231.461 76.5996 229.894 78.1667 229.894 80.0998C229.894 82.0329 231.461 83.6 233.394 83.6Z" fill="#04005E"/>
<path d="M236.895 87.8093C236.895 89.7364 235.332 91.2987 233.405 91.2987C231.478 91.2987 229.916 89.7364 229.916 87.8093C229.916 85.8821 231.478 84.3198 233.405 84.3198C235.332 84.3198 236.895 85.8821 236.895 87.8093Z" fill="#04005E"/>
<path fill-rule="evenodd" clip-rule="evenodd" d="M233.405 90.1786C234.714 90.1786 235.775 89.1178 235.775 87.8093C235.775 86.5007 234.714 85.4399 233.405 85.4399C232.097 85.4399 231.036 86.5007 231.036 87.8093C231.036 89.1178 232.097 90.1786 233.405 90.1786ZM233.405 91.2987C235.332 91.2987 236.895 89.7364 236.895 87.8093C236.895 85.8821 235.332 84.3198 233.405 84.3198C231.478 84.3198 229.916 85.8821 229.916 87.8093C229.916 89.7364 231.478 91.2987 233.405 91.2987Z" fill="#04005E"/>
<path d="M191.23 80.0646C191.23 81.9918 189.668 83.5541 187.741 83.5541C185.814 83.5541 184.251 81.9918 184.251 80.0646C184.251 78.1375 185.814 76.5752 187.741 76.5752C189.668 76.5752 191.23 78.1375 191.23 80.0646Z" fill="#04005E"/>
<path fill-rule="evenodd" clip-rule="evenodd" d="M187.741 82.434C189.049 82.434 190.11 81.3732 190.11 80.0646C190.11 78.7561 189.049 77.6953 187.741 77.6953C186.432 77.6953 185.372 78.7561 185.372 80.0646C185.372 81.3732 186.432 82.434 187.741 82.434ZM187.741 83.5541C189.668 83.5541 191.23 81.9918 191.23 80.0646C191.23 78.1375 189.668 76.5752 187.741 76.5752C185.814 76.5752 184.251 78.1375 184.251 80.0646C184.251 81.9918 185.814 83.5541 187.741 83.5541Z" fill="#04005E"/>
<path d="M191.23 87.7434C191.23 89.6705 189.668 91.2328 187.741 91.2328C185.814 91.2328 184.251 89.6705 184.251 87.7434C184.251 85.8162 185.814 84.2539 187.741 84.2539C189.668 84.2539 191.23 85.8162 191.23 87.7434Z" fill="#04005E"/>
<path fill-rule="evenodd" clip-rule="evenodd" d="M187.741 90.1127C189.049 90.1127 190.11 89.0519 190.11 87.7434C190.11 86.4348 189.049 85.374 187.741 85.374C186.432 85.374 185.372 86.4348 185.372 87.7434C185.372 89.0519 186.432 90.1127 187.741 90.1127ZM187.741 91.2328C189.668 91.2328 191.23 89.6705 191.23 87.7434C191.23 85.8162 189.668 84.2539 187.741 84.2539C185.814 84.2539 184.251 85.8162 184.251 87.7434C184.251 89.6705 185.814 91.2328 187.741 91.2328Z" fill="#04005E"/>
<path d="M191.23 94.7233C191.23 96.6505 189.668 98.2128 187.741 98.2128C185.814 98.2128 184.251 96.6505 184.251 94.7233C184.251 92.7962 185.814 91.2339 187.741 91.2339C189.668 91.2339 191.23 92.7962 191.23 94.7233Z" fill="#04005E"/>
<path fill-rule="evenodd" clip-rule="evenodd" d="M187.741 97.0927C189.049 97.0927 190.11 96.0319 190.11 94.7233C190.11 93.4148 189.049 92.354 187.741 92.354C186.432 92.354 185.372 93.4148 185.372 94.7233C185.372 96.0319 186.432 97.0927 187.741 97.0927ZM187.741 98.2128C189.668 98.2128 191.23 96.6505 191.23 94.7233C191.23 92.7962 189.668 91.2339 187.741 91.2339C185.814 91.2339 184.251 92.7962 184.251 94.7233C184.251 96.6505 185.814 98.2128 187.741 98.2128Z" fill="#04005E"/>
<path d="M191.23 103.097C191.23 105.024 189.668 106.586 187.741 106.586C185.813 106.586 184.251 105.024 184.251 103.097C184.251 101.169 185.813 99.6072 187.741 99.6072C189.668 99.6072 191.23 101.169 191.23 103.097Z" fill="#04005E"/>
<path fill-rule="evenodd" clip-rule="evenodd" d="M187.741 105.466C189.049 105.466 190.11 104.405 190.11 103.097C190.11 101.788 189.049 100.727 187.741 100.727C186.432 100.727 185.371 101.788 185.371 103.097C185.371 104.405 186.432 105.466 187.741 105.466ZM187.741 106.586C189.668 106.586 191.23 105.024 191.23 103.097C191.23 101.169 189.668 99.6072 187.741 99.6072C185.813 99.6072 184.251 101.169 184.251 103.097C184.251 105.024 185.813 106.586 187.741 106.586Z" fill="#04005E"/>
<path d="M198.907 110.772C198.907 112.699 197.344 114.262 195.417 114.262C193.49 114.262 191.928 112.699 191.928 110.772C191.928 108.845 193.49 107.283 195.417 107.283C197.344 107.283 198.907 108.845 198.907 110.772Z" fill="#04005E"/>
<path fill-rule="evenodd" clip-rule="evenodd" d="M195.417 113.142C196.726 113.142 197.787 112.081 197.787 110.772C197.787 109.464 196.726 108.403 195.417 108.403C194.109 108.403 193.048 109.464 193.048 110.772C193.048 112.081 194.109 113.142 195.417 113.142ZM195.417 114.262C197.344 114.262 198.907 112.699 198.907 110.772C198.907 108.845 197.344 107.283 195.417 107.283C193.49 107.283 191.928 108.845 191.928 110.772C191.928 112.699 193.49 114.262 195.417 114.262Z" fill="#04005E"/>
<path d="M206.235 110.772C206.235 112.699 204.673 114.262 202.746 114.262C200.819 114.262 199.256 112.699 199.256 110.772C199.256 108.845 200.819 107.283 202.746 107.283C204.673 107.283 206.235 108.845 206.235 110.772Z" fill="#04005E"/>
<path fill-rule="evenodd" clip-rule="evenodd" d="M202.746 113.142C204.054 113.142 205.115 112.081 205.115 110.772C205.115 109.464 204.054 108.403 202.746 108.403C201.437 108.403 200.376 109.464 200.376 110.772C200.376 112.081 201.437 113.142 202.746 113.142ZM202.746 114.262C204.673 114.262 206.235 112.699 206.235 110.772C206.235 108.845 204.673 107.283 202.746 107.283C200.819 107.283 199.256 108.845 199.256 110.772C199.256 112.699 200.819 114.262 202.746 114.262Z" fill="#04005E"/>
<path d="M213.912 110.772C213.912 112.699 212.349 114.262 210.422 114.262C208.495 114.262 206.933 112.699 206.933 110.772C206.933 108.845 208.495 107.283 210.422 107.283C212.349 107.283 213.912 108.845 213.912 110.772Z" fill="#04005E"/>
<path fill-rule="evenodd" clip-rule="evenodd" d="M210.422 113.142C211.731 113.142 212.791 112.081 212.791 110.772C212.791 109.464 211.731 108.403 210.422 108.403C209.113 108.403 208.053 109.464 208.053 110.772C208.053 112.081 209.113 113.142 210.422 113.142ZM210.422 114.262C212.349 114.262 213.912 112.699 213.912 110.772C213.912 108.845 212.349 107.283 210.422 107.283C208.495 107.283 206.933 108.845 206.933 110.772C206.933 112.699 208.495 114.262 210.422 114.262Z" fill="#04005E"/>
<path d="M229.218 110.772C229.218 112.699 227.656 114.262 225.728 114.262C223.801 114.262 222.239 112.699 222.239 110.772C222.239 108.845 223.801 107.283 225.728 107.283C227.656 107.283 229.218 108.845 229.218 110.772Z" fill="#04005E"/>
<path fill-rule="evenodd" clip-rule="evenodd" d="M225.728 113.142C227.037 113.142 228.098 112.081 228.098 110.772C228.098 109.464 227.037 108.403 225.728 108.403C224.42 108.403 223.359 109.464 223.359 110.772C223.359 112.081 224.42 113.142 225.728 113.142ZM225.728 114.262C227.656 114.262 229.218 112.699 229.218 110.772C229.218 108.845 227.656 107.283 225.728 107.283C223.801 107.283 222.239 108.845 222.239 110.772C222.239 112.699 223.801 114.262 225.728 114.262Z" fill="#04005E"/>
<path d="M236.895 103.097C236.895 105.024 235.332 106.586 233.405 106.586C231.478 106.586 229.916 105.024 229.916 103.097C229.916 101.169 231.478 99.6072 233.405 99.6072C235.332 99.6072 236.895 101.169 236.895 103.097Z" fill="#04005E"/>
<path fill-rule="evenodd" clip-rule="evenodd" d="M233.405 105.466C234.714 105.466 235.775 104.405 235.775 103.097C235.775 101.788 234.714 100.727 233.405 100.727C232.097 100.727 231.036 101.788 231.036 103.097C231.036 104.405 232.097 105.466 233.405 105.466ZM233.405 106.586C235.332 106.586 236.895 105.024 236.895 103.097C236.895 101.169 235.332 99.6072 233.405 99.6072C231.478 99.6072 229.916 101.169 229.916 103.097C229.916 105.024 231.478 106.586 233.405 106.586Z" fill="#04005E"/>
<path d="M206.235 87.7434C206.235 89.6705 204.673 91.2328 202.746 91.2328C200.819 91.2328 199.256 89.6705 199.256 87.7434C199.256 85.8162 200.819 84.2539 202.746 84.2539C204.673 84.2539 206.235 85.8162 206.235 87.7434Z" fill="#04005E"/>
<path fill-rule="evenodd" clip-rule="evenodd" d="M202.746 90.1127C204.054 90.1127 205.115 89.0519 205.115 87.7434C205.115 86.4348 204.054 85.374 202.746 85.374C201.437 85.374 200.376 86.4348 200.376 87.7434C200.376 89.0519 201.437 90.1127 202.746 90.1127ZM202.746 91.2328C204.673 91.2328 206.235 89.6705 206.235 87.7434C206.235 85.8162 204.673 84.2539 202.746 84.2539C200.819 84.2539 199.256 85.8162 199.256 87.7434C199.256 89.6705 200.819 91.2328 202.746 91.2328Z" fill="#04005E"/>
<path d="M198.907 87.7434C198.907 89.6705 197.345 91.2328 195.417 91.2328C193.49 91.2328 191.928 89.6705 191.928 87.7434C191.928 85.8162 193.49 84.2539 195.417 84.2539C197.345 84.2539 198.907 85.8162 198.907 87.7434Z" fill="#04005E"/>
<path fill-rule="evenodd" clip-rule="evenodd" d="M195.417 90.1127C196.726 90.1127 197.787 89.0519 197.787 87.7434C197.787 86.4348 196.726 85.374 195.417 85.374C194.109 85.374 193.048 86.4348 193.048 87.7434C193.048 89.0519 194.109 90.1127 195.417 90.1127ZM195.417 91.2328C197.345 91.2328 198.907 89.6705 198.907 87.7434C198.907 85.8162 197.345 84.2539 195.417 84.2539C193.49 84.2539 191.928 85.8162 191.928 87.7434C191.928 89.6705 193.49 91.2328 195.417 91.2328Z" fill="#04005E"/>
<path d="M195.452 68.9004H225.694V75.9008H195.452V68.9004Z" fill="#04005E"/>
<path d="M187.612 84.2998H233.254V91.3002H187.612V84.2998Z" fill="#04005E"/>
<path d="M236.894 80.4146L236.894 87.7424L229.915 87.7424L229.915 80.4146L236.894 80.4146Z" fill="#04005E"/>
<path d="M195.452 107.263H225.694V114.263H195.452V107.263Z" fill="#04005E"/>
<path d="M191.23 80.0652L191.23 103.096L184.251 103.096L184.251 80.0652L191.23 80.0652Z" fill="#04005E"/>
<path fill-rule="evenodd" clip-rule="evenodd" d="M190.95 102.816L190.95 80.3452L184.531 80.3452L184.531 102.816L190.95 102.816ZM191.23 80.0652L184.251 80.0652L184.251 103.096L191.23 103.096L191.23 80.0652Z" fill="#04005E"/>
<path d="M435.425 72.6806C435.425 70.5929 437.118 68.9004 439.206 68.9004H469.447C471.535 68.9004 473.227 70.5929 473.227 72.6806C473.227 74.7684 471.535 76.4608 469.447 76.4608H439.206C437.118 76.4608 435.425 74.7684 435.425 72.6806Z" fill="#04005E"/>
<path d="M431.646 106.703C429.558 106.703 427.865 105.01 427.865 102.922V80.2411C427.865 78.1533 429.558 76.4609 431.646 76.4609C433.733 76.4609 435.426 78.1533 435.426 80.2411V102.922C435.426 105.01 433.733 106.703 431.646 106.703Z" fill="#04005E"/>
<path d="M435.426 110.483C435.426 108.395 437.118 106.703 439.206 106.703H469.448C471.535 106.703 473.228 108.395 473.228 110.483C473.228 112.571 471.535 114.263 469.448 114.263H439.206C437.118 114.263 435.426 112.571 435.426 110.483Z" fill="#04005E"/>
<path d="M435.425 87.8012C435.425 85.7135 437.118 84.021 439.206 84.021H469.447C471.535 84.021 473.227 85.7135 473.227 87.8012C473.227 89.889 471.535 91.5814 469.447 91.5814H439.206C437.118 91.5814 435.425 89.889 435.425 87.8012Z" fill="#04005E"/>
<path d="M473.228 80.2387C473.347 76.9905 470.597 76.3651 469.208 76.4584L473.228 72.6782C473.585 75.8144 476.057 76.5051 477.248 76.4584L473.228 80.2387Z" fill="#04005E"/>
<path d="M473.197 95.3593C473.316 92.1111 470.566 91.4857 469.177 91.5791L473.197 87.7988C473.554 90.935 476.026 91.6257 477.217 91.5791L473.197 95.3593Z" fill="#04005E"/>
<path d="M435.386 110.483C435.505 107.235 432.755 106.609 431.366 106.703L435.386 102.923C435.743 106.059 438.215 106.749 439.406 106.703L435.386 110.483Z" fill="#04005E"/>
<path d="M473.268 110.483C473.149 107.235 475.898 106.609 477.288 106.703L473.268 102.923C472.91 106.059 470.439 106.749 469.248 106.703L473.268 110.483Z" fill="#04005E"/>
<path d="M473.217 87.8009C473.098 84.5527 475.848 83.9274 477.237 84.0207L473.217 80.2405C472.86 83.3767 470.388 84.0674 469.197 84.0207L473.217 87.8009Z" fill="#04005E"/>
<path d="M473.228 80.2408C473.228 78.153 474.921 76.4606 477.009 76.4606C479.096 76.4606 480.789 78.153 480.789 80.2408C480.789 82.3285 479.096 84.021 477.009 84.021C474.921 84.021 473.228 82.3285 473.228 80.2408Z" fill="#04005E"/>
<path d="M465.667 87.7996C465.667 85.7119 467.36 84.0194 469.447 84.0194C471.535 84.0194 473.228 85.7119 473.228 87.7996C473.228 89.8874 471.535 91.5798 469.447 91.5798C467.36 91.5798 465.667 89.8874 465.667 87.7996Z" fill="#04005E"/>
<path d="M473.228 102.922C473.228 100.835 474.921 99.1422 477.008 99.1422C479.096 99.1422 480.789 100.835 480.789 102.922C480.789 105.01 479.096 106.703 477.008 106.703C474.921 106.703 473.228 105.01 473.228 102.922Z" fill="#04005E"/>
<path d="M473.228 95.3606C473.228 93.2729 474.921 91.5804 477.008 91.5804C479.096 91.5804 480.789 93.2729 480.789 95.3606C480.789 97.4484 479.096 99.1409 477.008 99.1409C474.921 99.1409 473.228 97.4484 473.228 95.3606Z" fill="#04005E"/>
<path d="M480.789 103.062L473.228 103.062L473.228 95.5013L480.789 95.5013L480.789 103.062Z" fill="#04005E"/>
<path d="M473.268 110.483C473.149 107.235 475.898 106.609 477.288 106.703L473.268 102.923C472.91 106.059 470.439 106.749 469.248 106.703L473.268 110.483Z" fill="#04005E"/>
<path d="M465.667 87.7996C465.667 85.7119 467.36 84.0194 469.447 84.0194C471.535 84.0194 473.228 85.7119 473.228 87.7996C473.228 89.8874 471.535 91.5798 469.447 91.5798C467.36 91.5798 465.667 89.8874 465.667 87.7996Z" fill="#04005E"/>
<path d="M435.427 80.2382C435.308 76.99 438.058 76.3646 439.447 76.458L435.427 72.6777C435.07 75.8139 432.598 76.5046 431.407 76.458L435.427 80.2382Z" fill="#04005E"/>
<path d="M435.427 95.3591C435.308 92.1109 438.058 91.4855 439.447 91.5788L435.427 87.7986C435.07 90.9348 432.598 91.6255 431.407 91.5788L435.427 95.3591Z" fill="#04005E"/>
<path d="M435.427 72.6806C435.427 70.5929 437.119 68.9004 439.207 68.9004H469.448C471.536 68.9004 473.229 70.5929 473.229 72.6806C473.229 74.7684 471.536 76.4608 469.448 76.4608H439.207C437.119 76.4608 435.427 74.7684 435.427 72.6806Z" fill="#04005E"/>
<path d="M431.646 106.7C429.559 106.7 427.866 105.007 427.866 102.919V80.2382C427.866 78.1504 429.559 76.4579 431.646 76.4579C433.734 76.4579 435.427 78.1504 435.427 80.2382V102.919C435.427 105.007 433.734 106.7 431.646 106.7Z" fill="#04005E"/>
<path d="M435.427 110.48C435.427 108.392 437.119 106.7 439.207 106.7H469.448C471.536 106.7 473.229 108.392 473.229 110.48C473.229 112.568 471.536 114.26 469.448 114.26H439.207C437.119 114.26 435.427 112.568 435.427 110.48Z" fill="#04005E"/>
<path d="M435.427 87.8012C435.427 85.7135 437.119 84.021 439.207 84.021H469.448C471.536 84.021 473.229 85.7135 473.229 87.8012C473.229 89.889 471.536 91.5814 469.448 91.5814H439.207C437.119 91.5814 435.427 89.889 435.427 87.8012Z" fill="#04005E"/>
<path d="M473.229 80.2382C473.348 76.99 470.599 76.3646 469.209 76.458L473.229 72.6777C473.587 75.8139 476.058 76.5046 477.249 76.458L473.229 80.2382Z" fill="#04005E"/>
<path d="M473.197 95.3585C473.316 92.1103 470.567 91.485 469.177 91.5783L473.197 87.7981C473.555 90.9343 476.026 91.625 477.217 91.5783L473.197 95.3585Z" fill="#04005E"/>
<path d="M435.386 110.482C435.505 107.234 432.756 106.608 431.366 106.702L435.386 102.921C435.744 106.058 438.215 106.748 439.406 106.702L435.386 110.482Z" fill="#04005E"/>
<path d="M435.386 87.8004C435.505 84.5522 432.756 83.9269 431.366 84.0202L435.386 80.24C435.744 83.3762 438.215 84.0669 439.406 84.0202L435.386 87.8004Z" fill="#04005E"/>
<path d="M473.218 87.8004C473.099 84.5522 475.848 83.9269 477.238 84.0202L473.218 80.24C472.86 83.3762 470.389 84.0669 469.198 84.0202L473.218 87.8004Z" fill="#04005E"/>
<path d="M473.229 80.2408C473.229 78.153 474.921 76.4606 477.009 76.4606C479.097 76.4606 480.789 78.153 480.789 80.2408C480.789 82.3285 479.097 84.021 477.009 84.021C474.921 84.021 473.229 82.3285 473.229 80.2408Z" fill="#04005E"/>
<path d="M473.229 102.919C473.229 100.832 474.921 99.1393 477.009 99.1393C479.097 99.1393 480.789 100.832 480.789 102.919C480.789 105.007 479.097 106.7 477.009 106.7C474.921 106.7 473.229 105.007 473.229 102.919Z" fill="#04005E"/>
<path d="M473.229 95.3614C473.229 93.2736 474.921 91.5812 477.009 91.5812C479.097 91.5812 480.789 93.2736 480.789 95.3614C480.789 97.4491 479.097 99.1416 477.009 99.1416C474.921 99.1416 473.229 97.4491 473.229 95.3614Z" fill="#04005E"/>
<path d="M480.789 103.062L473.229 103.062L473.229 95.5018L480.789 95.5018L480.789 103.062Z" fill="#04005E"/>
<path d="M65.3847 76.4597C63.297 76.4597 61.6045 78.5753 61.6045 81.185L61.6045 109.537C61.6045 112.146 63.297 114.262 65.3847 114.262C67.4725 114.262 69.1649 112.146 69.1649 109.537L69.1649 81.185C69.1649 78.5753 67.4725 76.4597 65.3847 76.4597Z" fill="#04005E"/>
<path d="M69.1646 72.6795C69.1646 74.7673 70.857 76.4597 72.9448 76.4597L103.187 76.4597C105.274 76.4597 106.967 74.7673 106.967 72.6795C106.967 70.5917 105.274 68.8993 103.187 68.8993L72.9448 68.8993C70.857 68.8993 69.1646 70.5917 69.1646 72.6795Z" fill="#04005E"/>
<path d="M69.1646 95.3606C69.1646 97.4484 70.857 99.1409 72.9448 99.1409L103.187 99.1409C105.274 99.1409 106.967 97.4484 106.967 95.3606C106.967 93.2729 105.274 91.5804 103.187 91.5804L72.9448 91.5804C70.857 91.5804 69.1646 93.2729 69.1646 95.3606Z" fill="#04005E"/>
<path d="M106.936 87.8004C107.055 91.0486 104.305 91.674 102.915 91.5806L106.936 95.3608C107.293 92.2247 109.765 91.5339 110.956 91.5806L106.936 87.8004Z" fill="#04005E"/>
<path d="M69.1157 95.3622C69.2348 98.6104 66.4852 99.2357 65.0955 99.1424L69.1157 102.923C69.473 99.7864 71.9447 99.0957 73.1359 99.1424L69.1157 95.3622Z" fill="#04005E"/>
<path d="M69.1242 72.6803C69.2434 75.9285 66.4937 76.5538 65.104 76.4605L69.1242 80.2407C69.4816 77.1045 71.9533 76.4138 73.1445 76.4605L69.1242 72.6803Z" fill="#04005E"/>
<path d="M107.007 72.68C106.888 75.9282 109.637 76.5536 111.027 76.4603L107.007 80.2405C106.65 77.1043 104.178 76.4136 102.987 76.4603L107.007 72.68Z" fill="#04005E"/>
<path d="M69.1648 87.8004C69.0457 91.0486 71.7953 91.674 73.1851 91.5806L69.1648 95.3608C68.8075 92.2247 66.3358 91.5339 65.1446 91.5806L69.1648 87.8004Z" fill="#04005E"/>
<path d="M99.4059 95.3601C99.4059 97.4478 101.098 99.1403 103.186 99.1403C105.274 99.1403 106.966 97.4478 106.966 95.3601C106.966 93.2723 105.274 91.5798 103.186 91.5798C101.098 91.5798 99.4059 93.2723 99.4059 95.3601Z" fill="#04005E"/>
<path d="M106.967 80.2399C106.967 82.3277 108.659 84.0202 110.747 84.0202C112.835 84.0202 114.527 82.3277 114.527 80.2399C114.527 78.1522 112.835 76.4597 110.747 76.4597C108.659 76.4597 106.967 78.1522 106.967 80.2399Z" fill="#04005E"/>
<path d="M106.967 87.8012C106.967 89.889 108.659 91.5814 110.747 91.5814C112.835 91.5814 114.527 89.889 114.527 87.8012C114.527 85.7135 112.835 84.021 110.747 84.021C108.659 84.021 106.967 85.7135 106.967 87.8012Z" fill="#04005E"/>
<path d="M114.527 80.1003L106.967 80.1003L106.967 87.6608L114.527 87.6608L114.527 80.1003Z" fill="#04005E"/>
<path d="M252.575 110.482C252.575 112.57 250.883 114.262 248.795 114.262C246.707 114.262 245.015 112.569 245.015 110.482L245.015 72.6795C245.015 70.5918 246.707 68.8993 248.795 68.8993C250.883 68.8993 252.575 70.5918 252.575 72.6795L252.575 110.482Z" fill="#04005E"/>
<path d="M297.238 110.482C297.238 112.57 295.545 114.262 293.458 114.262C291.37 114.262 289.677 112.569 289.677 110.482L289.677 95.3609C289.677 93.2731 291.37 91.5806 293.458 91.5806C295.545 91.5806 297.238 93.2731 297.238 95.3609L297.238 110.482Z" fill="#04005E"/>
<path d="M256.356 91.5798C254.268 91.5798 252.575 89.8874 252.575 87.7996C252.575 85.7119 254.268 84.0194 256.356 84.0194L285.757 84.0194C287.845 84.0194 289.538 85.7119 289.538 87.7996C289.538 89.8874 287.845 91.5798 285.757 91.5798L256.356 91.5798Z" fill="#04005E"/>
<path d="M297.238 80.2408C297.238 82.3285 295.545 84.021 293.458 84.021C291.37 84.021 289.677 82.3285 289.677 80.2408L289.677 72.6803C289.677 70.5926 291.37 68.9001 293.458 68.9001C295.545 68.9001 297.238 70.5926 297.238 72.6803L297.238 80.2408Z" fill="#04005E"/>
<path d="M289.677 95.3593C289.789 92.1111 287.204 91.4857 285.897 91.5791L289.677 87.7988C290.013 90.935 292.337 91.6257 293.457 91.5791L289.677 95.3593Z" fill="#04005E"/>
<path d="M252.575 87.8012C252.687 84.553 250.102 83.9276 248.795 84.0209L252.575 80.2407C252.911 83.3769 255.235 84.0676 256.355 84.0209L252.575 87.8012Z" fill="#04005E"/>
<path d="M289.677 87.8009C289.565 84.5527 292.151 83.9274 293.457 84.0207L289.677 80.2405C289.341 83.3767 287.017 84.0674 285.897 84.0207L289.677 87.8009Z" fill="#04005E"/>
<path d="M252.575 95.3614C252.463 92.1132 255.048 91.4878 256.355 91.5811L252.575 87.8009C252.239 90.9371 249.915 91.6278 248.795 91.5811L252.575 95.3614Z" fill="#04005E"/>
<path d="M285.897 91.5798C283.809 91.5798 282.117 89.8874 282.117 87.7996C282.117 85.7119 283.809 84.0194 285.897 84.0194C287.985 84.0194 289.677 85.7119 289.677 87.7996C289.677 89.8874 287.985 91.5798 285.897 91.5798Z" fill="#04005E"/>
<path d="M293.458 84.021C291.37 84.021 289.677 82.3285 289.677 80.2408C289.677 78.153 291.37 76.4606 293.458 76.4606C295.545 76.4606 297.238 78.153 297.238 80.2408C297.238 82.3285 295.545 84.021 293.458 84.021Z" fill="#04005E"/>
<path d="M368.396 72.6806C368.396 70.5929 370.088 68.9004 372.176 68.9004H402.417C404.505 68.9004 406.198 70.5929 406.198 72.6806C406.198 74.7684 404.505 76.4608 402.417 76.4608H372.176C370.088 76.4608 368.396 74.7684 368.396 72.6806Z" fill="#04005E"/>
<path d="M364.615 106.696C362.528 106.696 360.835 105.003 360.835 102.916V80.2343C360.835 78.1465 362.528 76.454 364.615 76.454C366.703 76.454 368.396 78.1465 368.396 80.2343V102.916C368.396 105.003 366.703 106.696 364.615 106.696Z" fill="#04005E"/>
<path d="M410.218 106.696C407.998 106.696 406.198 105.003 406.198 102.916V80.2343C406.198 78.1465 407.998 76.454 410.218 76.454C412.438 76.454 414.238 78.1465 414.238 80.2343V102.916C414.238 105.003 412.438 106.696 410.218 106.696Z" fill="#04005E"/>
<path d="M368.396 110.476C368.396 108.388 370.088 106.696 372.176 106.696H402.417C404.505 106.696 406.198 108.388 406.198 110.476C406.198 112.564 404.505 114.256 402.417 114.256H372.176C370.088 114.256 368.396 112.564 368.396 110.476Z" fill="#04005E"/>
<path d="M406.198 80.2421C406.317 76.9939 403.568 76.3685 402.178 76.4619L406.198 72.6816C406.556 75.8178 409.027 76.5085 410.218 76.4619L406.198 80.2421Z" fill="#04005E"/>
<path d="M368.355 110.479C368.474 107.231 365.725 106.606 364.335 106.699L368.355 102.919C368.713 106.055 371.184 106.746 372.375 106.699L368.355 110.479Z" fill="#04005E"/>
<path d="M406.237 110.479C406.118 107.231 408.868 106.606 410.257 106.699L406.237 102.919C405.88 106.055 403.408 106.746 402.217 106.699L406.237 110.479Z" fill="#04005E"/>
<path d="M368.496 80.2421C368.377 76.9939 371.127 76.3685 372.516 76.4619L368.496 72.6816C368.139 75.8178 365.667 76.5085 364.476 76.4619L368.496 80.2421Z" fill="#04005E"/>
<path d="M130.208 72.6806C130.208 70.5929 131.9 68.9004 133.988 68.9004H164.23C166.318 68.9004 168.01 70.5929 168.01 72.6806C168.01 74.7684 166.318 76.4608 164.23 76.4608H133.988C131.9 76.4608 130.208 74.7684 130.208 72.6806Z" fill="#04005E"/>
<path d="M126.428 106.696C124.34 106.696 122.647 105.003 122.647 102.916V80.2343C122.647 78.1465 124.34 76.454 126.428 76.454C128.515 76.454 130.208 78.1465 130.208 80.2343V102.916C130.208 105.003 128.515 106.696 126.428 106.696Z" fill="#04005E"/>
<path d="M172.031 106.696C169.811 106.696 168.011 105.003 168.011 102.916V80.2343C168.011 78.1465 169.811 76.454 172.031 76.454C174.252 76.454 176.051 78.1465 176.051 80.2343V102.916C176.051 105.003 174.252 106.696 172.031 106.696Z" fill="#04005E"/>
<path d="M130.208 110.476C130.208 108.388 131.9 106.696 133.988 106.696H164.23C166.318 106.696 168.01 108.388 168.01 110.476C168.01 112.564 166.318 114.256 164.23 114.256H133.988C131.9 114.256 130.208 112.564 130.208 110.476Z" fill="#04005E"/>
<path d="M168.01 80.2387C168.129 76.9905 165.38 76.3651 163.99 76.4584L168.01 72.6782C168.368 75.8144 170.839 76.5051 172.03 76.4584L168.01 80.2387Z" fill="#04005E"/>
<path d="M130.168 110.478C130.287 107.23 127.537 106.605 126.147 106.698L130.168 102.918C130.525 106.054 132.997 106.745 134.188 106.698L130.168 110.478Z" fill="#04005E"/>
<path d="M168.05 110.478C167.931 107.23 170.681 106.605 172.071 106.698L168.05 102.918C167.693 106.054 165.221 106.745 164.03 106.698L168.05 110.478Z" fill="#04005E"/>
<path d="M130.308 80.2387C130.189 76.9905 132.938 76.3651 134.328 76.4584L130.308 72.6782C129.951 75.8144 127.479 76.5051 126.288 76.4584L130.308 80.2387Z" fill="#04005E"/>
<path d="M7.56079 72.6806C7.56079 70.5929 9.25325 68.9004 11.341 68.9004H41.5828C43.6705 68.9004 45.363 70.5929 45.363 72.6806C45.363 74.7684 43.6705 76.4608 41.5828 76.4608H11.341C9.25325 76.4608 7.56079 74.7684 7.56079 72.6806Z" fill="#04005E"/>
<path d="M3.78071 114.262C1.69295 114.262 0.000488281 112.146 0.000488281 109.537V81.185C0.000488281 78.5753 1.69295 76.4598 3.78071 76.4598C5.86847 76.4598 7.56093 78.5753 7.56093 81.185V109.537C7.56093 112.146 5.86847 114.262 3.78071 114.262Z" fill="#04005E"/>
<path d="M49.4243 114.262C47.1818 114.262 45.364 112.146 45.364 109.537V81.185C45.364 78.5753 47.1818 76.4598 49.4243 76.4598C51.6667 76.4598 53.4845 78.5753 53.4845 81.185V109.537C53.4845 112.146 51.6667 114.262 49.4243 114.262Z" fill="#04005E"/>
<path d="M45.363 80.2387C45.4821 76.9905 42.7325 76.3651 41.3428 76.4584L45.363 72.6782C45.7204 75.8144 48.1921 76.5051 49.3832 76.4584L45.363 80.2387Z" fill="#04005E"/>
<path d="M7.56106 80.2387C7.44195 76.9905 10.1916 76.3651 11.5813 76.4584L7.56106 72.6782C7.20371 75.8144 4.73201 76.5051 3.54083 76.4584L7.56106 80.2387Z" fill="#04005E"/>
<path d="M328.46 80.2387C328.58 76.9905 325.83 76.3651 324.44 76.4584L328.46 72.6782C328.818 75.8144 331.289 76.5051 332.481 76.4584L328.46 80.2387Z" fill="#04005E"/>
<path d="M336.019 80.2387C335.9 76.9905 338.65 76.3651 340.04 76.4584L336.019 72.6782C335.662 75.8144 333.19 76.5051 331.999 76.4584L336.019 80.2387Z" fill="#04005E"/>
<path d="M336.02 110.535L328.46 110.535L328.46 79.6214L336.02 79.6214L336.02 110.535Z" fill="#04005E"/>
<path d="M328.46 110.677C328.46 108.543 330.152 106.813 332.24 106.813C334.328 106.813 336.02 108.543 336.02 110.677C336.02 112.811 334.328 114.542 332.24 114.542C330.152 114.542 328.46 112.811 328.46 110.677Z" fill="#04005E"/>
<path d="M328.46 79.7637C328.46 77.6296 330.152 75.8995 332.24 75.8995C334.328 75.8995 336.02 77.6296 336.02 79.7637C336.02 81.8979 334.328 83.6279 332.24 83.6279C330.152 83.6279 328.46 81.8979 328.46 79.7637Z" fill="#04005E"/>
<path d="M308.999 76.4597C306.911 76.4597 305.219 74.7673 305.219 72.6795C305.219 70.5917 306.911 68.8993 308.999 68.8993L354.361 68.8993C356.449 68.8993 358.142 70.5917 358.142 72.6795C358.142 74.7673 356.449 76.4597 354.361 76.4597L308.999 76.4597Z" fill="#04005E"/>
<path d="M162.803 45.9229C165.61 45.9229 167.014 43.6419 167.014 41.7118L170.523 45.221C168.067 45.221 166.312 47.3266 166.312 49.4321L162.803 45.9229Z" fill="#04005E"/>
<path d="M128.833 49.4311C128.833 46.6236 126.552 45.2199 124.621 45.2199L128.131 41.7107C128.131 44.1672 130.236 45.9001 132.342 45.9001L130.587 47.6548L128.833 49.4311Z" fill="#04005E"/>
<path d="M124.621 38.1665C127.429 38.1665 128.833 35.8855 128.833 33.9554L132.342 37.4647C129.885 37.4647 128.131 39.5702 128.131 41.6758L124.621 38.1665Z" fill="#04005E"/>
<path d="M124.6 15.0413C127.408 15.0413 128.811 12.7603 128.811 10.8302L132.321 14.3394C129.864 14.3394 128.109 16.445 128.109 18.5505L124.6 15.0413Z" fill="#04005E"/>
<path d="M162.803 30.48C165.61 30.48 167.014 28.199 167.014 26.2689L170.523 29.7782C168.067 29.7782 166.312 31.8837 166.312 33.9893L162.803 30.48Z" fill="#04005E"/>
<path d="M166.312 10.8293C166.312 13.6367 168.593 15.0404 170.524 15.0404L167.014 18.5496C167.014 16.0931 164.909 14.3385 162.803 14.3385L166.312 10.8293Z" fill="#04005E"/>
<path d="M166.312 33.9903C166.312 36.7977 168.593 38.2014 170.524 38.2014L167.014 41.7107C167.014 39.2542 164.909 37.4996 162.803 37.4996L166.312 33.9903Z" fill="#04005E"/>
<path d="M159.294 49.4322C159.294 47.494 160.865 45.9229 162.803 45.9229C164.741 45.9229 166.313 47.494 166.313 49.4322C166.313 51.3703 164.741 52.9414 162.803 52.9414C160.865 52.9414 159.294 51.3703 159.294 49.4322Z" fill="#04005E"/>
<path fill-rule="evenodd" clip-rule="evenodd" d="M162.803 47.0493C161.487 47.0493 160.42 48.1162 160.42 49.4322C160.42 50.7482 161.487 51.815 162.803 51.815C164.119 51.815 165.186 50.7482 165.186 49.4322C165.186 48.1162 164.119 47.0493 162.803 47.0493ZM162.803 45.9229C160.865 45.9229 159.294 47.494 159.294 49.4322C159.294 51.3703 160.865 52.9414 162.803 52.9414C164.741 52.9414 166.313 51.3703 166.313 49.4322C166.313 47.494 164.741 45.9229 162.803 45.9229Z" fill="#04005E"/>
<path d="M151.925 49.4322C151.925 47.494 153.496 45.9229 155.434 45.9229C157.372 45.9229 158.943 47.494 158.943 49.4322C158.943 51.3703 157.372 52.9414 155.434 52.9414C153.496 52.9414 151.925 51.3703 151.925 49.4322Z" fill="#04005E"/>
<path fill-rule="evenodd" clip-rule="evenodd" d="M155.434 47.0493C154.118 47.0493 153.051 48.1162 153.051 49.4322C153.051 50.7482 154.118 51.815 155.434 51.815C156.75 51.815 157.817 50.7482 157.817 49.4322C157.817 48.1162 156.75 47.0493 155.434 47.0493ZM155.434 45.9229C153.496 45.9229 151.925 47.494 151.925 49.4322C151.925 51.3703 153.496 52.9414 155.434 52.9414C157.372 52.9414 158.943 51.3703 158.943 49.4322C158.943 47.494 157.372 45.9229 155.434 45.9229Z" fill="#04005E"/>
<path d="M144.205 49.4322C144.205 47.494 145.776 45.9229 147.714 45.9229C149.652 45.9229 151.223 47.494 151.223 49.4322C151.223 51.3703 149.652 52.9414 147.714 52.9414C145.776 52.9414 144.205 51.3703 144.205 49.4322Z" fill="#04005E"/>
<path fill-rule="evenodd" clip-rule="evenodd" d="M147.714 47.0493C146.398 47.0493 145.331 48.1162 145.331 49.4322C145.331 50.7482 146.398 51.815 147.714 51.815C149.03 51.815 150.097 50.7482 150.097 49.4322C150.097 48.1162 149.03 47.0493 147.714 47.0493ZM147.714 45.9229C145.776 45.9229 144.205 47.494 144.205 49.4322C144.205 51.3703 145.776 52.9414 147.714 52.9414C149.652 52.9414 151.223 51.3703 151.223 49.4322C151.223 47.494 149.652 45.9229 147.714 45.9229Z" fill="#04005E"/>
<path d="M128.814 49.4213C128.814 47.4772 130.39 45.9013 132.334 45.9013C134.278 45.9013 135.854 47.4772 135.854 49.4213C135.854 51.3654 134.278 52.9414 132.334 52.9414C130.39 52.9414 128.814 51.3654 128.814 49.4213Z" fill="#04005E"/>
<path fill-rule="evenodd" clip-rule="evenodd" d="M132.334 47.0277C131.012 47.0277 129.94 48.0994 129.94 49.4213C129.94 50.7433 131.012 51.815 132.334 51.815C133.656 51.815 134.728 50.7433 134.728 49.4213C134.728 48.0994 133.656 47.0277 132.334 47.0277ZM132.334 45.9013C130.39 45.9013 128.814 47.4772 128.814 49.4213C128.814 51.3654 130.39 52.9414 132.334 52.9414C134.278 52.9414 135.854 51.3654 135.854 49.4213C135.854 47.4772 134.278 45.9013 132.334 45.9013Z" fill="#04005E"/>
<path d="M121.091 41.6767C121.091 39.7326 122.667 38.1566 124.611 38.1566C126.555 38.1566 128.131 39.7326 128.131 41.6767C128.131 43.6208 126.555 45.1968 124.611 45.1968C122.667 45.1968 121.091 43.6208 121.091 41.6767Z" fill="#04005E"/>
<path fill-rule="evenodd" clip-rule="evenodd" d="M124.611 39.2831C123.289 39.2831 122.217 40.3547 122.217 41.6767C122.217 42.9987 123.289 44.0704 124.611 44.0704C125.933 44.0704 127.004 42.9987 127.004 41.6767C127.004 40.3547 125.933 39.2831 124.611 39.2831ZM124.611 38.1566C122.667 38.1566 121.091 39.7326 121.091 41.6767C121.091 43.6208 122.667 45.1968 124.611 45.1968C126.555 45.1968 128.131 43.6208 128.131 41.6767C128.131 39.7326 126.555 38.1566 124.611 38.1566Z" fill="#04005E"/>
<path d="M121.091 33.9197C121.091 31.9816 122.662 30.4104 124.6 30.4104C126.538 30.4104 128.109 31.9816 128.109 33.9197C128.109 35.8578 126.538 37.429 124.6 37.429C122.662 37.429 121.091 35.8578 121.091 33.9197Z" fill="#04005E"/>
<path fill-rule="evenodd" clip-rule="evenodd" d="M124.6 31.5369C123.284 31.5369 122.217 32.6037 122.217 33.9197C122.217 35.2357 123.284 36.3025 124.6 36.3025C125.916 36.3025 126.983 35.2357 126.983 33.9197C126.983 32.6037 125.916 31.5369 124.6 31.5369ZM124.6 30.4104C122.662 30.4104 121.091 31.9816 121.091 33.9197C121.091 35.8578 122.662 37.429 124.6 37.429C126.538 37.429 128.109 35.8578 128.109 33.9197C128.109 31.9816 126.538 30.4104 124.6 30.4104Z" fill="#04005E"/>
<path d="M167.014 41.7107C167.014 39.7726 168.586 38.2015 170.524 38.2015C172.462 38.2015 174.033 39.7726 174.033 41.7107C174.033 43.6488 172.462 45.22 170.524 45.22C168.586 45.22 167.014 43.6488 167.014 41.7107Z" fill="#04005E"/>
<path fill-rule="evenodd" clip-rule="evenodd" d="M170.524 39.3279C169.208 39.3279 168.141 40.3947 168.141 41.7107C168.141 43.0267 169.208 44.0935 170.524 44.0935C171.84 44.0935 172.907 43.0267 172.907 41.7107C172.907 40.3947 171.84 39.3279 170.524 39.3279ZM170.524 38.2015C168.586 38.2015 167.014 39.7726 167.014 41.7107C167.014 43.6488 168.586 45.22 170.524 45.22C172.462 45.22 174.033 43.6488 174.033 41.7107C174.033 39.7726 172.462 38.2015 170.524 38.2015Z" fill="#04005E"/>
<path d="M167.014 33.9934C167.014 32.0553 168.586 30.4842 170.524 30.4842C172.462 30.4842 174.033 32.0553 174.033 33.9934C174.033 35.9315 172.462 37.5027 170.524 37.5027C168.586 37.5027 167.014 35.9315 167.014 33.9934Z" fill="#04005E"/>
<path fill-rule="evenodd" clip-rule="evenodd" d="M170.524 31.6106C169.208 31.6106 168.141 32.6774 168.141 33.9934C168.141 35.3094 169.208 36.3763 170.524 36.3763C171.84 36.3763 172.907 35.3094 172.907 33.9934C172.907 32.6774 171.84 31.6106 170.524 31.6106ZM170.524 30.4842C168.586 30.4842 167.014 32.0553 167.014 33.9934C167.014 35.9315 168.586 37.5027 170.524 37.5027C172.462 37.5027 174.033 35.9315 174.033 33.9934C174.033 32.0553 172.462 30.4842 170.524 30.4842Z" fill="#04005E"/>
<path d="M167.014 26.9746C167.014 25.0365 168.586 23.4654 170.524 23.4654C172.462 23.4654 174.033 25.0365 174.033 26.9746C174.033 28.9127 172.462 30.4839 170.524 30.4839C168.586 30.4839 167.014 28.9127 167.014 26.9746Z" fill="#04005E"/>
<path fill-rule="evenodd" clip-rule="evenodd" d="M170.524 24.5918C169.208 24.5918 168.141 25.6586 168.141 26.9746C168.141 28.2906 169.208 29.3575 170.524 29.3575C171.84 29.3575 172.907 28.2906 172.907 26.9746C172.907 25.6586 171.84 24.5918 170.524 24.5918ZM170.524 23.4654C168.586 23.4654 167.014 25.0365 167.014 26.9746C167.014 28.9127 168.586 30.4839 170.524 30.4839C172.462 30.4839 174.033 28.9127 174.033 26.9746C174.033 25.0365 172.462 23.4654 170.524 23.4654Z" fill="#04005E"/>
<path d="M167.014 18.5506C167.014 16.6125 168.586 15.0413 170.524 15.0413C172.462 15.0413 174.033 16.6125 174.033 18.5506C174.033 20.4887 172.462 22.0598 170.524 22.0598C168.586 22.0598 167.014 20.4887 167.014 18.5506Z" fill="#04005E"/>
<path fill-rule="evenodd" clip-rule="evenodd" d="M170.524 16.1677C169.208 16.1677 168.141 17.2346 168.141 18.5506C168.141 19.8666 169.208 20.9334 170.524 20.9334C171.84 20.9334 172.907 19.8666 172.907 18.5506C172.907 17.2346 171.84 16.1677 170.524 16.1677ZM170.524 15.0413C168.586 15.0413 167.014 16.6125 167.014 18.5506C167.014 20.4887 168.586 22.0598 170.524 22.0598C172.462 22.0598 174.033 20.4887 174.033 18.5506C174.033 16.6125 172.462 15.0413 170.524 15.0413Z" fill="#04005E"/>
<path d="M159.294 10.8294C159.294 8.89126 160.865 7.32011 162.803 7.32011C164.741 7.32011 166.313 8.89126 166.313 10.8294C166.313 12.7675 164.741 14.3386 162.803 14.3386C160.865 14.3386 159.294 12.7675 159.294 10.8294Z" fill="#04005E"/>
<path fill-rule="evenodd" clip-rule="evenodd" d="M162.803 8.44654C161.487 8.44654 160.42 9.51337 160.42 10.8294C160.42 12.1454 161.487 13.2122 162.803 13.2122C164.119 13.2122 165.186 12.1454 165.186 10.8294C165.186 9.51337 164.119 8.44654 162.803 8.44654ZM162.803 7.32011C160.865 7.32011 159.294 8.89126 159.294 10.8294C159.294 12.7675 160.865 14.3386 162.803 14.3386C164.741 14.3386 166.313 12.7675 166.313 10.8294C166.313 8.89126 164.741 7.32011 162.803 7.32011Z" fill="#04005E"/>
<path d="M151.925 10.8294C151.925 8.89126 153.496 7.32011 155.434 7.32011C157.372 7.32011 158.943 8.89126 158.943 10.8294C158.943 12.7675 157.372 14.3386 155.434 14.3386C153.496 14.3386 151.925 12.7675 151.925 10.8294Z" fill="#04005E"/>
<path fill-rule="evenodd" clip-rule="evenodd" d="M155.434 8.44654C154.118 8.44654 153.051 9.51337 153.051 10.8294C153.051 12.1454 154.118 13.2122 155.434 13.2122C156.75 13.2122 157.817 12.1454 157.817 10.8294C157.817 9.51337 156.75 8.44654 155.434 8.44654ZM155.434 7.32011C153.496 7.32011 151.925 8.89126 151.925 10.8294C151.925 12.7675 153.496 14.3386 155.434 14.3386C157.372 14.3386 158.943 12.7675 158.943 10.8294C158.943 8.89126 157.372 7.32011 155.434 7.32011Z" fill="#04005E"/>
<path d="M144.205 10.8294C144.205 8.89126 145.776 7.32011 147.714 7.32011C149.652 7.32011 151.223 8.89126 151.223 10.8294C151.223 12.7675 149.652 14.3386 147.714 14.3386C145.776 14.3386 144.205 12.7675 144.205 10.8294Z" fill="#04005E"/>
<path fill-rule="evenodd" clip-rule="evenodd" d="M147.714 8.44654C146.398 8.44654 145.331 9.51337 145.331 10.8294C145.331 12.1454 146.398 13.2122 147.714 13.2122C149.03 13.2122 150.097 12.1454 150.097 10.8294C150.097 9.51337 149.03 8.44654 147.714 8.44654ZM147.714 7.32011C145.776 7.32011 144.205 8.89126 144.205 10.8294C144.205 12.7675 145.776 14.3386 147.714 14.3386C149.652 14.3386 151.223 12.7675 151.223 10.8294C151.223 8.89126 149.652 7.32011 147.714 7.32011Z" fill="#04005E"/>
<path d="M128.811 10.8294C128.811 8.89126 130.382 7.32011 132.321 7.32011C134.259 7.32011 135.83 8.89126 135.83 10.8294C135.83 12.7675 134.259 14.3386 132.321 14.3386C130.382 14.3386 128.811 12.7675 128.811 10.8294Z" fill="#04005E"/>
<path fill-rule="evenodd" clip-rule="evenodd" d="M132.321 8.44654C131.005 8.44654 129.938 9.51337 129.938 10.8294C129.938 12.1454 131.005 13.2122 132.321 13.2122C133.637 13.2122 134.703 12.1454 134.703 10.8294C134.703 9.51337 133.637 8.44654 132.321 8.44654ZM132.321 7.32011C130.382 7.32011 128.811 8.89126 128.811 10.8294C128.811 12.7675 130.382 14.3386 132.321 14.3386C134.259 14.3386 135.83 12.7675 135.83 10.8294C135.83 8.89126 134.259 7.32011 132.321 7.32011Z" fill="#04005E"/>
<path d="M121.091 18.5506C121.091 16.6125 122.662 15.0413 124.6 15.0413C126.538 15.0413 128.109 16.6125 128.109 18.5506C128.109 20.4887 126.538 22.0598 124.6 22.0598C122.662 22.0598 121.091 20.4887 121.091 18.5506Z" fill="#04005E"/>
<path fill-rule="evenodd" clip-rule="evenodd" d="M124.6 16.1677C123.284 16.1677 122.217 17.2346 122.217 18.5506C122.217 19.8666 123.284 20.9334 124.6 20.9334C125.916 20.9334 126.983 19.8666 126.983 18.5506C126.983 17.2346 125.916 16.1677 124.6 16.1677ZM124.6 15.0413C122.662 15.0413 121.091 16.6125 121.091 18.5506C121.091 20.4887 122.662 22.0598 124.6 22.0598C126.538 22.0598 128.109 20.4887 128.109 18.5506C128.109 16.6125 126.538 15.0413 124.6 15.0413Z" fill="#04005E"/>
<path d="M151.925 33.9934C151.925 32.0553 153.496 30.4842 155.434 30.4842C157.372 30.4842 158.943 32.0553 158.943 33.9934C158.943 35.9315 157.372 37.5027 155.434 37.5027C153.496 37.5027 151.925 35.9315 151.925 33.9934Z" fill="#04005E"/>
<path fill-rule="evenodd" clip-rule="evenodd" d="M155.434 31.6106C154.118 31.6106 153.051 32.6774 153.051 33.9934C153.051 35.3094 154.118 36.3763 155.434 36.3763C156.75 36.3763 157.817 35.3094 157.817 33.9934C157.817 32.6774 156.75 31.6106 155.434 31.6106ZM155.434 30.4842C153.496 30.4842 151.925 32.0553 151.925 33.9934C151.925 35.9315 153.496 37.5027 155.434 37.5027C157.372 37.5027 158.943 35.9315 158.943 33.9934C158.943 32.0553 157.372 30.4842 155.434 30.4842Z" fill="#04005E"/>
<path d="M159.294 33.9934C159.294 32.0553 160.865 30.4842 162.803 30.4842C164.741 30.4842 166.313 32.0553 166.313 33.9934C166.313 35.9315 164.741 37.5027 162.803 37.5027C160.865 37.5027 159.294 35.9315 159.294 33.9934Z" fill="#04005E"/>
<path fill-rule="evenodd" clip-rule="evenodd" d="M162.803 31.6106C161.487 31.6106 160.42 32.6774 160.42 33.9934C160.42 35.3094 161.487 36.3763 162.803 36.3763C164.119 36.3763 165.186 35.3094 165.186 33.9934C165.186 32.6774 164.119 31.6106 162.803 31.6106ZM162.803 30.4842C160.865 30.4842 159.294 32.0553 159.294 33.9934C159.294 35.9315 160.865 37.5027 162.803 37.5027C164.741 37.5027 166.313 35.9315 166.313 33.9934C166.313 32.0553 164.741 30.4842 162.803 30.4842Z" fill="#04005E"/>
<path d="M162.769 52.9414L132.356 52.9414L132.356 45.9013L162.769 45.9013L162.769 52.9414Z" fill="#04005E"/>
<path d="M170.654 37.4521L124.752 37.4521L124.752 30.412L170.654 30.412L170.654 37.4521Z" fill="#04005E"/>
<path d="M121.091 41.3613L121.091 33.9919L128.109 33.9919L128.109 41.3613L121.091 41.3613Z" fill="#04005E"/>
<path d="M162.769 14.3618L132.356 14.3618L132.356 7.32167L162.769 7.32167L162.769 14.3618Z" fill="#04005E"/>
<path d="M167.014 41.7107L167.014 18.5496L174.033 18.5496L174.033 41.7107L167.014 41.7107Z" fill="#04005E"/>
<path fill-rule="evenodd" clip-rule="evenodd" d="M167.296 18.8312L167.296 41.4291L173.751 41.4291L173.751 18.8312L167.296 18.8312ZM167.014 41.7107L174.033 41.7107L174.033 18.5496L167.014 18.5496L167.014 41.7107Z" fill="#04005E"/>
<path d="M181.918 49.5603H189.522V57.1637H181.918V49.5603Z" fill="#04005E"/>
<path d="M227.538 49.5603H235.141V57.1637H227.538V49.5603Z" fill="#04005E"/>
<path d="M235.141 49.4232C235.141 51.5228 233.439 53.2249 231.339 53.2249L185.719 53.2248C183.619 53.2248 181.917 51.5228 181.917 49.4232C181.917 47.3236 183.619 45.6215 185.719 45.6215L231.339 45.6215C233.439 45.6215 235.141 47.3236 235.141 49.4232Z" fill="#04005E"/>
<path d="M219.935 18.7276C220.048 15.461 217.448 14.8321 216.134 14.9259L219.935 11.1243C220.273 14.2783 222.611 14.9729 223.737 14.9259L219.935 18.7276Z" fill="#04005E"/>
<path d="M197.125 49.4227C197.238 46.156 194.638 45.5271 193.324 45.621L197.125 41.8193C197.463 44.9733 199.801 45.6679 200.927 45.621L197.125 49.4227Z" fill="#04005E"/>
<path d="M227.539 49.4227C227.651 46.156 225.051 45.5271 223.737 45.621L227.539 41.8193C227.877 44.9733 230.214 45.6679 231.341 45.621L227.539 49.4227Z" fill="#04005E"/>
<path d="M227.538 57.0238C227.651 53.7571 225.051 53.1282 223.737 53.2221L227.538 49.4204C227.876 52.5744 230.214 53.269 231.34 53.2221L227.538 57.0238Z" fill="#04005E"/>
<path d="M197.125 18.7276C197.012 15.461 199.612 14.8321 200.926 14.9259L197.125 11.1243C196.787 14.2783 194.45 14.9729 193.323 14.9259L197.125 18.7276Z" fill="#04005E"/>
<path d="M189.521 57.026C189.409 53.7594 192.009 53.1305 193.323 53.2243L189.521 49.4227C189.184 52.5767 186.846 53.2713 185.72 53.2243L189.521 57.026Z" fill="#04005E"/>
<path d="M189.521 49.4227C189.409 46.156 192.009 45.5271 193.323 45.621L189.521 41.8193C189.184 44.9733 186.846 45.6679 185.72 45.621L189.521 49.4227Z" fill="#04005E"/>
<path d="M219.935 49.4227C219.822 46.156 222.422 45.5271 223.737 45.621L219.935 41.8193C219.597 44.9733 217.26 45.6679 216.133 45.621L219.935 49.4227Z" fill="#04005E"/>
<path d="M193.323 52.9414C191.223 52.9414 189.521 51.2393 189.521 49.1397V18.7263C189.521 16.6267 191.223 14.9246 193.323 14.9246C195.423 14.9246 197.125 16.6267 197.125 18.7263V49.1397C197.125 51.2393 195.423 52.9414 193.323 52.9414Z" fill="#04005E"/>
<path d="M200.927 14.9248C198.827 14.9248 197.125 13.2227 197.125 11.1231C197.125 9.02351 198.827 7.32144 200.927 7.32144H216.134C218.233 7.32144 219.935 9.02351 219.935 11.1231C219.935 13.2227 218.233 14.9248 216.134 14.9248H200.927Z" fill="#04005E"/>
<path d="M223.737 50.4065C221.637 50.4065 219.935 48.7044 219.935 46.6048V18.7258C219.935 16.6262 221.637 14.9241 223.737 14.9241C225.836 14.9241 227.538 16.6262 227.538 18.7258V46.6048C227.538 48.7044 225.836 50.4065 223.737 50.4065Z" fill="#04005E"/>
<path d="M185.72 53.2249C183.62 53.2249 181.918 54.9269 181.918 57.0265C181.918 59.1261 183.62 60.8282 185.72 60.8282C187.82 60.8282 189.522 59.1261 189.522 57.0265C189.522 54.9269 187.82 53.2249 185.72 53.2249Z" fill="#04005E"/>
<path d="M231.34 53.2249C229.24 53.2249 227.538 54.9269 227.538 57.0265C227.538 59.1261 229.24 60.8282 231.34 60.8282C233.439 60.8282 235.141 59.1261 235.141 57.0265C235.141 54.9269 233.439 53.2249 231.34 53.2249Z" fill="#04005E"/>
<path d="M250.63 11.405C250.63 9.30534 252.332 7.60327 254.432 7.60327H284.845C286.945 7.60327 288.647 9.30534 288.647 11.405C288.647 13.5046 286.945 15.2066 284.845 15.2066H254.432C252.332 15.2066 250.63 13.5046 250.63 11.405Z" fill="#04005E"/>
<path d="M246.828 45.6199C244.728 45.6199 243.026 43.9178 243.026 41.8182V19.0081C243.026 16.9085 244.728 15.2064 246.828 15.2064C248.928 15.2064 250.63 16.9085 250.63 19.0081V41.8182C250.63 43.9178 248.928 45.6199 246.828 45.6199Z" fill="#04005E"/>
<path d="M250.63 49.4216C250.63 47.3219 252.332 45.6199 254.432 45.6199H284.845C286.945 45.6199 288.647 47.3219 288.647 49.4216C288.647 51.5212 286.945 53.2232 284.845 53.2232H254.432C252.332 53.2232 250.63 51.5212 250.63 49.4216Z" fill="#04005E"/>
<path d="M250.63 26.6108C250.63 24.5112 252.332 22.8091 254.432 22.8091H284.845C286.945 22.8091 288.647 24.5112 288.647 26.6108C288.647 28.7104 286.945 30.4124 284.845 30.4124H254.432C252.332 30.4124 250.63 28.7104 250.63 26.6108Z" fill="#04005E"/>
<path d="M288.615 34.213C288.735 30.9464 285.969 30.3174 284.572 30.4113L288.615 26.6096C288.974 29.7636 291.46 30.4582 292.658 30.4113L288.615 34.213Z" fill="#04005E"/>
<path d="M250.589 49.4227C250.709 46.1561 247.944 45.5271 246.546 45.621L250.589 41.8193C250.949 44.9733 253.435 45.668 254.632 45.621L250.589 49.4227Z" fill="#04005E"/>
<path d="M250.63 26.6119C250.75 23.3453 247.985 22.7164 246.587 22.8102L250.63 19.0085C250.99 22.1625 253.475 22.8572 254.673 22.8102L250.63 26.6119Z" fill="#04005E"/>
<path d="M288.687 49.4227C288.567 46.1561 291.332 45.5271 292.73 45.621L288.687 41.8193C288.328 44.9733 285.842 45.668 284.644 45.621L288.687 49.4227Z" fill="#04005E"/>
<path d="M288.647 11.4061C288.527 8.13947 291.292 7.51055 292.69 7.60442L288.647 3.80273C288.288 6.95672 285.802 7.65135 284.604 7.60442L288.647 11.4061Z" fill="#04005E"/>
<path d="M250.63 19.0108C250.51 15.7442 253.276 15.1153 254.673 15.2092L250.63 11.4075C250.271 14.5615 247.785 15.2561 246.587 15.2092L250.63 19.0108Z" fill="#04005E"/>
<path d="M250.63 34.2173C250.51 30.9506 253.276 30.3217 254.673 30.4156L250.63 26.6139C250.271 29.7679 247.785 30.4625 246.587 30.4156L250.63 34.2173Z" fill="#04005E"/>
<path d="M281.043 26.6124C281.043 24.5128 282.745 22.8107 284.844 22.8107C286.944 22.8107 288.646 24.5128 288.646 26.6124C288.646 28.712 286.944 30.4141 284.844 30.4141C282.745 30.4141 281.043 28.712 281.043 26.6124Z" fill="#04005E"/>
<path d="M288.647 41.8182C288.647 39.7186 290.349 38.0165 292.448 38.0165C294.548 38.0165 296.25 39.7186 296.25 41.8182C296.25 43.9178 294.548 45.6199 292.448 45.6199C290.349 45.6199 288.647 43.9178 288.647 41.8182Z" fill="#04005E"/>
<path d="M288.647 34.2135C288.647 32.1138 290.349 30.4118 292.448 30.4118C294.548 30.4118 296.25 32.1138 296.25 34.2135C296.25 36.3131 294.548 38.0151 292.448 38.0151C290.349 38.0151 288.647 36.3131 288.647 34.2135Z" fill="#04005E"/>
<path d="M296.25 41.9592L288.647 41.9592L288.647 34.3559L296.25 34.3559L296.25 41.9592Z" fill="#04005E"/>
<path d="M288.647 3.80159C288.647 1.70198 290.349 -8.92076e-05 292.448 -8.90241e-05C294.548 -8.88405e-05 296.25 1.70198 296.25 3.80159C296.25 5.9012 294.548 7.60327 292.448 7.60327C290.349 7.60327 288.647 5.9012 288.647 3.80159Z" fill="#04005E"/>
<path d="M7.60352 49.1397C7.60352 51.2393 5.90144 52.9414 3.80183 52.9414C1.70222 52.9414 0.00015369 51.2393 0.000153874 49.1397L0.000157197 11.1229C0.000157381 9.02332 1.70223 7.32125 3.80184 7.32125C5.90145 7.32125 7.60352 9.02332 7.60352 11.1229L7.60352 49.1397Z" fill="#04005E"/>
<path d="M52.5205 49.1397C52.5205 51.2393 50.8184 52.9414 48.7188 52.9414C46.6192 52.9414 44.9171 51.2393 44.9171 49.1397L44.9171 33.933C44.9171 31.8334 46.6192 30.1313 48.7188 30.1313C50.8184 30.1313 52.5205 31.8334 52.5205 33.933L52.5205 49.1397Z" fill="#04005E"/>
<path d="M11.4052 30.1306C9.30559 30.1306 7.60352 28.4285 7.60352 26.3289C7.60352 24.2293 9.30559 22.5273 11.4052 22.5273L40.9738 22.5273C43.0734 22.5273 44.7755 24.2293 44.7755 26.3289C44.7755 28.4285 43.0734 30.1306 40.9738 30.1306L11.4052 30.1306Z" fill="#04005E"/>
<path d="M52.5205 18.7279C52.5205 20.8275 50.8184 22.5295 48.7188 22.5295C46.6192 22.5295 44.9171 20.8275 44.9171 18.7279L44.9171 11.1245C44.9171 9.02489 46.6192 7.32282 48.7188 7.32282C50.8184 7.32282 52.5205 9.02489 52.5205 11.1245L52.5205 18.7279Z" fill="#04005E"/>
<path d="M44.9167 33.9334C45.0293 30.6668 42.4292 30.0379 41.115 30.1318L44.9167 26.3301C45.2546 29.4841 47.5919 30.1787 48.7184 30.1318L44.9167 33.9334Z" fill="#04005E"/>
<path d="M7.60368 26.3285C7.71632 23.0618 5.11616 22.4329 3.802 22.5268L7.60368 18.7251C7.94161 21.8791 10.2789 22.5737 11.4054 22.5268L7.60368 26.3285Z" fill="#04005E"/>
<path d="M44.9163 26.3285C44.8037 23.0618 47.4039 22.4329 48.718 22.5268L44.9163 18.7251C44.5784 21.8791 42.2411 22.5737 41.1147 22.5268L44.9163 26.3285Z" fill="#04005E"/>
<path d="M7.60356 33.9318C7.49091 30.6652 10.0911 30.0363 11.4052 30.1301L7.60356 26.3285C7.26563 29.4824 4.9283 30.1771 3.80188 30.1301L7.60356 33.9318Z" fill="#04005E"/>
<path d="M41.1152 30.1306C39.0155 30.1306 37.3135 28.4285 37.3135 26.3289C37.3135 24.2293 39.0155 22.5273 41.1152 22.5273C43.2148 22.5273 44.9168 24.2293 44.9168 26.3289C44.9168 28.4285 43.2148 30.1306 41.1152 30.1306Z" fill="#04005E"/>
<path d="M48.7182 22.5295C46.6186 22.5295 44.9165 20.8275 44.9165 18.7279C44.9165 16.6283 46.6186 14.9262 48.7182 14.9262C50.8178 14.9262 52.5199 16.6283 52.5199 18.7279C52.5199 20.8275 50.8178 22.5295 48.7182 22.5295Z" fill="#04005E"/>
<path fill-rule="evenodd" clip-rule="evenodd" d="M67.868 49.137C67.868 47.0373 69.57 45.3353 71.6697 45.3353C69.57 45.3353 67.868 43.6333 67.868 41.5336C67.868 43.6333 66.166 45.3353 64.0664 45.3353C66.166 45.3353 67.868 47.0373 67.868 49.137Z" fill="#04005E"/>
<path fill-rule="evenodd" clip-rule="evenodd" d="M105.603 18.7235C105.603 16.6239 107.305 14.9219 109.405 14.9219C107.305 14.9219 105.603 13.2198 105.603 11.1201C105.603 13.2198 103.901 14.9219 101.801 14.9219C103.901 14.9219 105.603 16.6239 105.603 18.7235Z" fill="#04005E"/>
<path fill-rule="evenodd" clip-rule="evenodd" d="M75.4714 18.7235C75.4714 16.6239 77.1734 14.9219 79.273 14.9219C77.1734 14.9219 75.4714 13.2198 75.4714 11.1201C75.4714 13.2198 73.7694 14.9219 71.6697 14.9219C73.7694 14.9219 75.4714 16.6239 75.4714 18.7235Z" fill="#04005E"/>
<path d="M113.206 48.9973L105.603 48.9973L105.603 18.5839L113.206 18.5839L113.206 48.9973Z" fill="#04005E"/>
<path d="M75.4709 41.3962L67.8676 41.3962L67.8676 18.5862L75.4709 18.5862L75.4709 41.3962Z" fill="#04005E"/>
<path d="M101.66 14.9248L79.1317 14.9248L79.1317 7.32145L101.66 7.32145L101.66 14.9248Z" fill="#04005E"/>
<path d="M67.8676 41.5347C67.8676 39.4351 69.5697 37.7331 71.6693 37.7331C73.7689 37.7331 75.4709 39.4351 75.4709 41.5347C75.4709 43.6344 73.7689 45.3364 71.6693 45.3364C69.5697 45.3364 67.8676 43.6344 67.8676 41.5347Z" fill="#04005E"/>
<path d="M97.9989 11.1231C97.9989 9.02351 99.701 7.32144 101.801 7.32144C103.9 7.32144 105.602 9.02351 105.602 11.1231C105.602 13.2227 103.9 14.9248 101.801 14.9248C99.701 14.9248 97.9989 13.2227 97.9989 11.1231Z" fill="#04005E"/>
<path d="M105.603 49.1397C105.603 47.0401 107.305 45.338 109.405 45.338C111.504 45.338 113.206 47.0401 113.206 49.1397C113.206 51.2393 111.504 52.9414 109.405 52.9414C107.305 52.9414 105.603 51.2393 105.603 49.1397Z" fill="#04005E"/>
<path d="M105.603 18.7279C105.603 16.6283 107.305 14.9262 109.405 14.9262C111.504 14.9262 113.206 16.6283 113.206 18.7279C113.206 20.8275 111.504 22.5295 109.405 22.5295C107.305 22.5295 105.603 20.8275 105.603 18.7279Z" fill="#04005E"/>
<path d="M60.2638 49.1397C60.2638 47.0401 61.9659 45.338 64.0655 45.338C66.1651 45.338 67.8672 47.0401 67.8672 49.1397C67.8672 51.2393 66.1651 52.9414 64.0655 52.9414C61.9659 52.9414 60.2638 51.2393 60.2638 49.1397Z" fill="#04005E"/>
<path d="M67.8676 18.7279C67.8676 16.6283 69.5697 14.9262 71.6693 14.9262C73.7689 14.9262 75.4709 16.6283 75.4709 18.7279C75.4709 20.8275 73.7689 22.5295 71.6693 22.5295C69.5697 22.5295 67.8676 20.8275 67.8676 18.7279Z" fill="#04005E"/>
<path d="M75.4706 11.1231C75.4706 9.02351 77.1727 7.32144 79.2723 7.32144C81.3719 7.32144 83.074 9.02351 83.074 11.1231C83.074 13.2227 81.3719 14.9248 79.2723 14.9248C77.1727 14.9248 75.4706 13.2227 75.4706 11.1231Z" fill="#04005E"/>
<path d="M357.359 49.5603L349.756 49.5603L349.756 19.1469L357.359 19.1469L357.359 49.5603Z" fill="#04005E"/>
<path d="M338.209 15.4875L338.209 7.88419L345.812 7.88419L345.812 15.4875L338.209 15.4875Z" fill="#04005E"/>
<path d="M316.526 53.5044L316.526 45.901L324.129 45.901L324.129 53.5044L316.526 53.5044Z" fill="#04005E"/>
<path d="M311.738 42.0989L304.135 42.0989L304.135 11.6854L311.738 11.6854L311.738 42.0989Z" fill="#04005E"/>
<path d="M334.548 41.9592L326.945 41.9592L326.945 19.1492L334.548 19.1492L334.548 41.9592Z" fill="#04005E"/>
<path d="M311.738 49.7027C311.738 47.6031 313.44 45.901 315.54 45.901C317.639 45.901 319.341 47.6031 319.341 49.7027C319.341 51.8023 317.639 53.5044 315.54 53.5044C313.44 53.5044 311.738 51.8023 311.738 49.7027Z" fill="#04005E"/>
<path d="M319.342 49.7027C319.342 47.6031 321.044 45.901 323.143 45.901C325.243 45.901 326.945 47.6031 326.945 49.7027C326.945 51.8023 325.243 53.5044 323.143 53.5044C321.044 53.5044 319.342 51.8023 319.342 49.7027Z" fill="#04005E"/>
<path d="M342.152 11.6859C342.152 9.58626 343.854 7.88419 345.953 7.88419C348.053 7.88419 349.755 9.58626 349.755 11.6859C349.755 13.7855 348.053 15.4875 345.953 15.4875C343.854 15.4875 342.152 13.7855 342.152 11.6859Z" fill="#04005E"/>
<path d="M334.548 11.6859C334.548 9.58626 336.251 7.88419 338.35 7.88419C340.45 7.88419 342.152 9.58626 342.152 11.6859C342.152 13.7855 340.45 15.4875 338.35 15.4875C336.251 15.4875 334.548 13.7855 334.548 11.6859Z" fill="#04005E"/>
<path d="M349.756 49.7027C349.756 47.6031 351.458 45.901 353.557 45.901C355.657 45.901 357.359 47.6031 357.359 49.7027C357.359 51.8023 355.657 53.5044 353.557 53.5044C351.458 53.5044 349.756 51.8023 349.756 49.7027Z" fill="#04005E"/>
<path d="M304.135 42.0977C304.135 39.9981 305.837 38.2961 307.937 38.2961C310.036 38.2961 311.738 39.9981 311.738 42.0977C311.738 44.1973 310.036 45.8994 307.937 45.8994C305.837 45.8994 304.135 44.1973 304.135 42.0977Z" fill="#04005E"/>
<path d="M304.135 11.6859C304.135 9.58626 305.837 7.88419 307.937 7.88419C310.036 7.88419 311.738 9.58626 311.738 11.6859C311.738 13.7855 310.036 15.4875 307.937 15.4875C305.837 15.4875 304.135 13.7855 304.135 11.6859Z" fill="#04005E"/>
<path d="M349.756 19.2908C349.756 17.1912 351.458 15.4892 353.557 15.4892C355.657 15.4892 357.359 17.1912 357.359 19.2908C357.359 21.3905 355.657 23.0925 353.557 23.0925C351.458 23.0925 349.756 21.3905 349.756 19.2908Z" fill="#04005E"/>
<path d="M326.945 42.0977C326.945 39.9981 328.647 38.2961 330.746 38.2961C332.846 38.2961 334.548 39.9981 334.548 42.0977C334.548 44.1973 332.846 45.8994 330.746 45.8994C328.647 45.8994 326.945 44.1973 326.945 42.0977Z" fill="#04005E"/>
<path d="M326.945 19.2908C326.945 17.1912 328.647 15.4892 330.746 15.4892C332.846 15.4892 334.548 17.1912 334.548 19.2908C334.548 21.3905 332.846 23.0925 330.746 23.0925C328.647 23.0925 326.945 21.3905 326.945 19.2908Z" fill="#04005E"/>
<path d="M307.936 45.9015C311.203 45.7817 311.832 48.547 311.738 49.9446L315.54 45.9015C312.386 45.5421 311.691 43.0564 311.738 41.8585L307.936 45.9015Z" fill="#04005E"/>
<path d="M326.945 42.1005C327.058 45.3671 324.458 45.996 323.144 45.9022L326.945 49.7039C327.283 46.5499 329.62 45.8552 330.747 45.9022L326.945 42.1005Z" fill="#04005E"/>
<path d="M345.953 15.4897C349.22 15.3699 349.849 18.1351 349.755 19.5327L353.556 15.4897C350.402 15.1303 349.708 12.6445 349.755 11.4466L345.953 15.4897Z" fill="#04005E"/>
<path d="M334.548 11.6847C334.668 14.9514 331.902 15.5803 330.505 15.4864L334.548 19.2881C334.907 16.1341 337.393 15.4395 338.591 15.4864L334.548 11.6847Z" fill="#04005E"/>
<path fill-rule="evenodd" clip-rule="evenodd" d="M418.467 57.3049C418.467 55.2053 420.169 53.5033 422.268 53.5033C420.169 53.5033 418.467 51.8012 418.467 49.7016C418.467 51.8012 416.765 53.5033 414.665 53.5033C416.765 53.5033 418.467 55.2053 418.467 57.3049Z" fill="#04005E"/>
<path d="M426.071 65.0496L418.467 65.0496L418.467 57.4462L426.071 57.4462L426.071 65.0496Z" fill="#04005E"/>
<path d="M410.863 49.7027C410.863 47.6031 412.566 45.901 414.665 45.901C416.765 45.901 418.467 47.6031 418.467 49.7027C418.467 51.8023 416.765 53.5044 414.665 53.5044C412.566 53.5044 410.863 51.8023 410.863 49.7027Z" fill="#04005E"/>
<path d="M418.467 65.192C418.467 63.0924 420.17 61.3903 422.269 61.3903C424.369 61.3903 426.071 63.0924 426.071 65.192C426.071 67.2916 424.369 68.9937 422.269 68.9937C420.17 68.9937 418.467 67.2916 418.467 65.192Z" fill="#04005E"/>
<path d="M418.467 57.3075C418.467 55.2078 420.17 53.5058 422.269 53.5058C424.369 53.5058 426.071 55.2078 426.071 57.3075C426.071 59.4071 424.369 61.1091 422.269 61.1091C420.17 61.1091 418.467 59.4071 418.467 57.3075Z" fill="#04005E"/>
<path d="M376.789 45.8994H414.243V53.5028H376.789V45.8994Z" fill="#04005E"/>
<path fill-rule="evenodd" clip-rule="evenodd" d="M395.657 49.7039C395.657 47.6042 397.359 45.9022 399.458 45.9022C397.359 45.9022 395.657 44.2002 395.657 42.1005C395.657 44.2002 393.955 45.9022 391.855 45.9022C393.955 45.9022 395.657 47.6042 395.657 49.7039Z" fill="#04005E"/>
<path fill-rule="evenodd" clip-rule="evenodd" d="M388.054 49.7039C388.054 47.6042 389.756 45.9022 391.855 45.9022C389.756 45.9022 388.054 44.2002 388.054 42.1005C388.054 44.2002 386.352 45.9022 384.252 45.9022C386.352 45.9022 388.054 47.6042 388.054 49.7039Z" fill="#04005E"/>
<path fill-rule="evenodd" clip-rule="evenodd" d="M372.847 49.7039C372.847 47.6042 374.549 45.9022 376.649 45.9022C374.549 45.9022 372.847 44.2002 372.847 42.1005C372.847 44.2002 371.145 45.9022 369.045 45.9022C371.145 45.9022 372.847 47.6042 372.847 49.7039Z" fill="#04005E"/>
<path d="M418.467 49.2808L410.863 49.2808L410.863 11.5456L418.467 11.5456L418.467 49.2808Z" fill="#04005E"/>
<path d="M372.847 42.0989L365.244 42.0989L365.244 11.6854L372.847 11.6854L372.847 42.0989Z" fill="#04005E"/>
<path d="M395.657 46.1829L388.054 46.1829L388.054 11.5453L395.657 11.5453L395.657 46.1829Z" fill="#04005E"/>
<path d="M372.847 49.7027C372.847 47.6031 374.549 45.901 376.649 45.901C378.748 45.901 380.45 47.6031 380.45 49.7027C380.45 51.8023 378.748 53.5044 376.649 53.5044C374.549 53.5044 372.847 51.8023 372.847 49.7027Z" fill="#04005E"/>
<path d="M365.244 42.0977C365.244 39.9981 366.946 38.2961 369.045 38.2961C371.145 38.2961 372.847 39.9981 372.847 42.0977C372.847 44.1973 371.145 45.8994 369.045 45.8994C366.946 45.8994 365.244 44.1973 365.244 42.0977Z" fill="#04005E"/>
<path d="M365.244 11.6859C365.244 9.58626 366.946 7.88419 369.045 7.88419C371.145 7.88419 372.847 9.58626 372.847 11.6859C372.847 13.7855 371.145 15.4875 369.045 15.4875C366.946 15.4875 365.244 13.7855 365.244 11.6859Z" fill="#04005E"/>
<path d="M388.054 11.6859C388.054 9.58626 389.756 7.88419 391.855 7.88419C393.955 7.88419 395.657 9.58626 395.657 11.6859C395.657 13.7855 393.955 15.4875 391.855 15.4875C389.756 15.4875 388.054 13.7855 388.054 11.6859Z" fill="#04005E"/>
<path d="M410.863 11.6859C410.863 9.58626 412.566 7.88419 414.665 7.88419C416.765 7.88419 418.467 9.58626 418.467 11.6859C418.467 13.7855 416.765 15.4875 414.665 15.4875C412.566 15.4875 410.863 13.7855 410.863 11.6859Z" fill="#04005E"/>
<path d="M418.467 49.7011C418.467 51.8007 416.765 53.5028 414.666 53.5028C412.566 53.5028 410.864 51.8007 410.864 49.7011C410.864 47.6015 412.566 45.8994 414.666 45.8994C416.765 45.8994 418.467 47.6015 418.467 49.7011Z" fill="#04005E"/>
<path fill-rule="evenodd" clip-rule="evenodd" d="M407.202 45.9031C409.237 45.9772 410.863 47.6497 410.863 49.7022C410.863 47.6026 412.565 45.9006 414.665 45.9006C412.565 45.9006 410.863 44.1985 410.863 42.0989C410.863 44.1514 409.237 45.8239 407.202 45.898V45.9031Z" fill="#04005E"/>
<path d="M439.002 14.7208C436.175 14.7208 434.762 17.0175 434.762 18.9609L431.229 15.4275C433.702 15.4275 435.469 13.3075 435.469 11.1875L439.002 14.7208Z" fill="#04005E"/>
<path d="M473.204 11.1888C473.204 14.0155 475.501 15.4288 477.444 15.4288L473.911 18.9622C473.911 16.4888 471.791 14.744 469.671 14.744L471.438 12.9773L473.204 11.1888Z" fill="#04005E"/>
<path d="M477.444 22.5304C474.618 22.5304 473.204 24.8271 473.204 26.7704L469.671 23.2371C472.144 23.2371 473.911 21.1171 473.911 18.9971L477.444 22.5304Z" fill="#04005E"/>
<path d="M477.467 45.8146C474.64 45.8146 473.227 48.1113 473.227 50.0546L469.694 46.5213C472.167 46.5213 473.934 44.4013 473.934 42.2812L477.467 45.8146Z" fill="#04005E"/>
<path d="M439.002 30.2675C436.175 30.2675 434.762 32.5641 434.762 34.5075L431.229 30.9741C433.702 30.9741 435.469 28.8541 435.469 26.7341L439.002 30.2675Z" fill="#04005E"/>
<path d="M435.468 50.0556C435.468 47.2289 433.171 45.8156 431.228 45.8156L434.761 42.2822C434.761 44.7556 436.881 46.5222 439.001 46.5222L435.468 50.0556Z" fill="#04005E"/>
<path d="M435.468 26.7355C435.468 23.9088 433.171 22.4955 431.228 22.4955L434.761 18.9622C434.761 21.4355 436.881 23.2022 439.001 23.2022L435.468 26.7355Z" fill="#04005E"/>
<path d="M442.535 11.1872C442.535 13.1386 440.953 14.7205 439.002 14.7205C437.05 14.7205 435.468 13.1386 435.468 11.1872C435.468 9.23574 437.05 7.65381 439.002 7.65381C440.953 7.65381 442.535 9.23574 442.535 11.1872Z" fill="#04005E"/>
<path fill-rule="evenodd" clip-rule="evenodd" d="M439.002 13.5863C440.327 13.5863 441.401 12.5122 441.401 11.1872C441.401 9.86212 440.327 8.78796 439.002 8.78796C437.677 8.78796 436.602 9.86212 436.602 11.1872C436.602 12.5122 437.677 13.5863 439.002 13.5863ZM439.002 14.7205C440.953 14.7205 442.535 13.1386 442.535 11.1872C442.535 9.23574 440.953 7.65381 439.002 7.65381C437.05 7.65381 435.468 9.23574 435.468 11.1872C435.468 13.1386 437.05 14.7205 439.002 14.7205Z" fill="#04005E"/>
<path d="M449.955 11.1872C449.955 13.1386 448.373 14.7205 446.422 14.7205C444.47 14.7205 442.888 13.1386 442.888 11.1872C442.888 9.23574 444.47 7.65381 446.422 7.65381C448.373 7.65381 449.955 9.23574 449.955 11.1872Z" fill="#04005E"/>
<path fill-rule="evenodd" clip-rule="evenodd" d="M446.422 13.5863C447.747 13.5863 448.821 12.5122 448.821 11.1872C448.821 9.86212 447.747 8.78796 446.422 8.78796C445.096 8.78796 444.022 9.86212 444.022 11.1872C444.022 12.5122 445.096 13.5863 446.422 13.5863ZM446.422 14.7205C448.373 14.7205 449.955 13.1386 449.955 11.1872C449.955 9.23574 448.373 7.65381 446.422 7.65381C444.47 7.65381 442.888 9.23574 442.888 11.1872C442.888 13.1386 444.47 14.7205 446.422 14.7205Z" fill="#04005E"/>
<path d="M457.728 11.1872C457.728 13.1386 456.146 14.7205 454.194 14.7205C452.243 14.7205 450.661 13.1386 450.661 11.1872C450.661 9.23574 452.243 7.65381 454.194 7.65381C456.146 7.65381 457.728 9.23574 457.728 11.1872Z" fill="#04005E"/>
<path fill-rule="evenodd" clip-rule="evenodd" d="M454.194 13.5863C455.519 13.5863 456.593 12.5122 456.593 11.1872C456.593 9.86212 455.519 8.78796 454.194 8.78796C452.869 8.78796 451.795 9.86212 451.795 11.1872C451.795 12.5122 452.869 13.5863 454.194 13.5863ZM454.194 14.7205C456.146 14.7205 457.728 13.1386 457.728 11.1872C457.728 9.23574 456.146 7.65381 454.194 7.65381C452.243 7.65381 450.661 9.23574 450.661 11.1872C450.661 13.1386 452.243 14.7205 454.194 14.7205Z" fill="#04005E"/>
<path d="M473.225 11.198C473.225 13.1555 471.638 14.7423 469.68 14.7423C467.723 14.7423 466.136 13.1555 466.136 11.198C466.136 9.24062 467.723 7.65381 469.68 7.65381C471.638 7.65381 473.225 9.24062 473.225 11.198Z" fill="#04005E"/>
<path fill-rule="evenodd" clip-rule="evenodd" d="M469.68 13.6081C471.012 13.6081 472.091 12.5291 472.091 11.198C472.091 9.86699 471.012 8.78796 469.68 8.78796C468.349 8.78796 467.27 9.86699 467.27 11.198C467.27 12.5291 468.349 13.6081 469.68 13.6081ZM469.68 14.7423C471.638 14.7423 473.225 13.1555 473.225 11.198C473.225 9.24062 471.638 7.65381 469.68 7.65381C467.723 7.65381 466.136 9.24062 466.136 11.198C466.136 13.1555 467.723 14.7423 469.68 14.7423Z" fill="#04005E"/>
<path d="M481 18.9932C481 20.9506 479.413 22.5374 477.455 22.5374C475.498 22.5374 473.911 20.9506 473.911 18.9932C473.911 17.0358 475.498 15.449 477.455 15.449C479.413 15.449 481 17.0358 481 18.9932Z" fill="#04005E"/>
<path fill-rule="evenodd" clip-rule="evenodd" d="M477.455 21.4033C478.786 21.4033 479.865 20.3243 479.865 18.9932C479.865 17.6622 478.786 16.5831 477.455 16.5831C476.124 16.5831 475.045 17.6622 475.045 18.9932C475.045 20.3243 476.124 21.4033 477.455 21.4033ZM477.455 22.5374C479.413 22.5374 481 20.9506 481 18.9932C481 17.0358 479.413 15.449 477.455 15.449C475.498 15.449 473.911 17.0358 473.911 18.9932C473.911 20.9506 475.498 22.5374 477.455 22.5374Z" fill="#04005E"/>
<path d="M481 26.8046C481 28.756 479.418 30.3379 477.467 30.3379C475.515 30.3379 473.933 28.756 473.933 26.8046C473.933 24.8532 475.515 23.2712 477.467 23.2712C479.418 23.2712 481 24.8532 481 26.8046Z" fill="#04005E"/>
<path fill-rule="evenodd" clip-rule="evenodd" d="M477.467 29.2038C478.792 29.2038 479.866 28.1296 479.866 26.8046C479.866 25.4795 478.792 24.4054 477.467 24.4054C476.142 24.4054 475.068 25.4795 475.068 26.8046C475.068 28.1296 476.142 29.2038 477.467 29.2038ZM477.467 30.3379C479.418 30.3379 481 28.756 481 26.8046C481 24.8532 479.418 23.2712 477.467 23.2712C475.515 23.2712 473.933 24.8532 473.933 26.8046C473.933 28.756 475.515 30.3379 477.467 30.3379Z" fill="#04005E"/>
<path d="M434.761 18.9589C434.761 20.9103 433.179 22.4922 431.228 22.4922C429.277 22.4922 427.695 20.9103 427.695 18.9589C427.695 17.0075 429.277 15.4255 431.228 15.4255C433.179 15.4255 434.761 17.0075 434.761 18.9589Z" fill="#04005E"/>
<path fill-rule="evenodd" clip-rule="evenodd" d="M431.228 21.3581C432.553 21.3581 433.627 20.2839 433.627 18.9589C433.627 17.6338 432.553 16.5597 431.228 16.5597C429.903 16.5597 428.829 17.6338 428.829 18.9589C428.829 20.2839 429.903 21.3581 431.228 21.3581ZM431.228 22.4922C433.179 22.4922 434.761 20.9103 434.761 18.9589C434.761 17.0075 433.179 15.4255 431.228 15.4255C429.277 15.4255 427.695 17.0075 427.695 18.9589C427.695 20.9103 429.277 22.4922 431.228 22.4922Z" fill="#04005E"/>
<path d="M434.761 26.7348C434.761 28.6862 433.179 30.2681 431.228 30.2681C429.277 30.2681 427.695 28.6862 427.695 26.7348C427.695 24.7833 429.277 23.2014 431.228 23.2014C433.179 23.2014 434.761 24.7833 434.761 26.7348Z" fill="#04005E"/>
<path fill-rule="evenodd" clip-rule="evenodd" d="M431.228 29.1339C432.553 29.1339 433.627 28.0598 433.627 26.7348C433.627 25.4097 432.553 24.3356 431.228 24.3356C429.903 24.3356 428.829 25.4097 428.829 26.7348C428.829 28.0598 429.903 29.1339 431.228 29.1339ZM431.228 30.2681C433.179 30.2681 434.761 28.6862 434.761 26.7348C434.761 24.7833 433.179 23.2014 431.228 23.2014C429.277 23.2014 427.695 24.7833 427.695 26.7348C427.695 28.6862 429.277 30.2681 431.228 30.2681Z" fill="#04005E"/>
<path d="M434.761 33.8009C434.761 35.7523 433.179 37.3343 431.228 37.3343C429.277 37.3343 427.695 35.7523 427.695 33.8009C427.695 31.8495 429.277 30.2676 431.228 30.2676C433.179 30.2676 434.761 31.8495 434.761 33.8009Z" fill="#04005E"/>
<path fill-rule="evenodd" clip-rule="evenodd" d="M431.228 36.2001C432.553 36.2001 433.627 35.126 433.627 33.8009C433.627 32.4759 432.553 31.4017 431.228 31.4017C429.903 31.4017 428.829 32.4759 428.829 33.8009C428.829 35.126 429.903 36.2001 431.228 36.2001ZM431.228 37.3343C433.179 37.3343 434.761 35.7523 434.761 33.8009C434.761 31.8495 433.179 30.2676 431.228 30.2676C429.277 30.2676 427.695 31.8495 427.695 33.8009C427.695 35.7523 429.277 37.3343 431.228 37.3343Z" fill="#04005E"/>
<path d="M434.761 42.2821C434.761 44.2335 433.179 45.8155 431.228 45.8155C429.277 45.8155 427.695 44.2335 427.695 42.2821C427.695 40.3307 429.277 38.7488 431.228 38.7488C433.179 38.7488 434.761 40.3307 434.761 42.2821Z" fill="#04005E"/>
<path fill-rule="evenodd" clip-rule="evenodd" d="M431.228 44.6813C432.553 44.6813 433.627 43.6072 433.627 42.2821C433.627 40.9571 432.553 39.8829 431.228 39.8829C429.903 39.8829 428.829 40.9571 428.829 42.2821C428.829 43.6072 429.903 44.6813 431.228 44.6813ZM431.228 45.8155C433.179 45.8155 434.761 44.2335 434.761 42.2821C434.761 40.3307 433.179 38.7488 431.228 38.7488C429.277 38.7488 427.695 40.3307 427.695 42.2821C427.695 44.2335 429.277 45.8155 431.228 45.8155Z" fill="#04005E"/>
<path d="M442.535 50.0546C442.535 52.006 440.953 53.5879 439.002 53.5879C437.05 53.5879 435.468 52.006 435.468 50.0546C435.468 48.1032 437.05 46.5212 439.002 46.5212C440.953 46.5212 442.535 48.1032 442.535 50.0546Z" fill="#04005E"/>
<path fill-rule="evenodd" clip-rule="evenodd" d="M439.002 52.4538C440.327 52.4538 441.401 51.3796 441.401 50.0546C441.401 48.7295 440.327 47.6554 439.002 47.6554C437.677 47.6554 436.602 48.7295 436.602 50.0546C436.602 51.3796 437.677 52.4538 439.002 52.4538ZM439.002 53.5879C440.953 53.5879 442.535 52.006 442.535 50.0546C442.535 48.1032 440.953 46.5212 439.002 46.5212C437.05 46.5212 435.468 48.1032 435.468 50.0546C435.468 52.006 437.05 53.5879 439.002 53.5879Z" fill="#04005E"/>
<path d="M449.955 50.0546C449.955 52.006 448.373 53.5879 446.422 53.5879C444.47 53.5879 442.888 52.006 442.888 50.0546C442.888 48.1032 444.47 46.5212 446.422 46.5212C448.373 46.5212 449.955 48.1032 449.955 50.0546Z" fill="#04005E"/>
<path fill-rule="evenodd" clip-rule="evenodd" d="M446.422 52.4538C447.747 52.4538 448.821 51.3796 448.821 50.0546C448.821 48.7295 447.747 47.6554 446.422 47.6554C445.096 47.6554 444.022 48.7295 444.022 50.0546C444.022 51.3796 445.096 52.4538 446.422 52.4538ZM446.422 53.5879C448.373 53.5879 449.955 52.006 449.955 50.0546C449.955 48.1032 448.373 46.5212 446.422 46.5212C444.47 46.5212 442.888 48.1032 442.888 50.0546C442.888 52.006 444.47 53.5879 446.422 53.5879Z" fill="#04005E"/>
<path d="M457.728 50.0546C457.728 52.006 456.146 53.5879 454.194 53.5879C452.243 53.5879 450.661 52.006 450.661 50.0546C450.661 48.1032 452.243 46.5212 454.194 46.5212C456.146 46.5212 457.728 48.1032 457.728 50.0546Z" fill="#04005E"/>
<path fill-rule="evenodd" clip-rule="evenodd" d="M454.194 52.4538C455.519 52.4538 456.593 51.3796 456.593 50.0546C456.593 48.7295 455.519 47.6554 454.194 47.6554C452.869 47.6554 451.795 48.7295 451.795 50.0546C451.795 51.3796 452.869 52.4538 454.194 52.4538ZM454.194 53.5879C456.146 53.5879 457.728 52.006 457.728 50.0546C457.728 48.1032 456.146 46.5212 454.194 46.5212C452.243 46.5212 450.661 48.1032 450.661 50.0546C450.661 52.006 452.243 53.5879 454.194 53.5879Z" fill="#04005E"/>
<path d="M473.227 50.0546C473.227 52.006 471.645 53.5879 469.694 53.5879C467.742 53.5879 466.16 52.006 466.16 50.0546C466.16 48.1032 467.742 46.5212 469.694 46.5212C471.645 46.5212 473.227 48.1032 473.227 50.0546Z" fill="#04005E"/>
<path fill-rule="evenodd" clip-rule="evenodd" d="M469.694 52.4538C471.019 52.4538 472.093 51.3796 472.093 50.0546C472.093 48.7295 471.019 47.6554 469.694 47.6554C468.369 47.6554 467.295 48.7295 467.295 50.0546C467.295 51.3796 468.369 52.4538 469.694 52.4538ZM469.694 53.5879C471.645 53.5879 473.227 52.006 473.227 50.0546C473.227 48.1032 471.645 46.5212 469.694 46.5212C467.742 46.5212 466.16 48.1032 466.16 50.0546C466.16 52.006 467.742 53.5879 469.694 53.5879Z" fill="#04005E"/>
<path d="M481 42.2821C481 44.2335 479.418 45.8155 477.467 45.8155C475.515 45.8155 473.933 44.2335 473.933 42.2821C473.933 40.3307 475.515 38.7488 477.467 38.7488C479.418 38.7488 481 40.3307 481 42.2821Z" fill="#04005E"/>
<path fill-rule="evenodd" clip-rule="evenodd" d="M477.467 44.6813C478.792 44.6813 479.866 43.6072 479.866 42.2821C479.866 40.9571 478.792 39.8829 477.467 39.8829C476.142 39.8829 475.068 40.9571 475.068 42.2821C475.068 43.6072 476.142 44.6813 477.467 44.6813ZM477.467 45.8155C479.418 45.8155 481 44.2335 481 42.2821C481 40.3307 479.418 38.7488 477.467 38.7488C475.515 38.7488 473.933 40.3307 473.933 42.2821C473.933 44.2335 475.515 45.8155 477.467 45.8155Z" fill="#04005E"/>
<path d="M449.955 26.7348C449.955 28.6862 448.373 30.2681 446.422 30.2681C444.47 30.2681 442.888 28.6862 442.888 26.7348C442.888 24.7833 444.47 23.2014 446.422 23.2014C448.373 23.2014 449.955 24.7833 449.955 26.7348Z" fill="#04005E"/>
<path fill-rule="evenodd" clip-rule="evenodd" d="M446.422 29.1339C447.747 29.1339 448.821 28.0598 448.821 26.7348C448.821 25.4097 447.747 24.3356 446.422 24.3356C445.096 24.3356 444.022 25.4097 444.022 26.7348C444.022 28.0598 445.096 29.1339 446.422 29.1339ZM446.422 30.2681C448.373 30.2681 449.955 28.6862 449.955 26.7348C449.955 24.7833 448.373 23.2014 446.422 23.2014C444.47 23.2014 442.888 24.7833 442.888 26.7348C442.888 28.6862 444.47 30.2681 446.422 30.2681Z" fill="#04005E"/>
<path d="M442.535 26.7348C442.535 28.6862 440.953 30.2681 439.002 30.2681C437.05 30.2681 435.468 28.6862 435.468 26.7348C435.468 24.7833 437.05 23.2014 439.002 23.2014C440.953 23.2014 442.535 24.7833 442.535 26.7348Z" fill="#04005E"/>
<path fill-rule="evenodd" clip-rule="evenodd" d="M439.002 29.1339C440.327 29.1339 441.401 28.0598 441.401 26.7348C441.401 25.4097 440.327 24.3356 439.002 24.3356C437.677 24.3356 436.602 25.4097 436.602 26.7348C436.602 28.0598 437.677 29.1339 439.002 29.1339ZM439.002 30.2681C440.953 30.2681 442.535 28.6862 442.535 26.7348C442.535 24.7833 440.953 23.2014 439.002 23.2014C437.05 23.2014 435.468 24.7833 435.468 26.7348C435.468 28.6862 437.05 30.2681 439.002 30.2681Z" fill="#04005E"/>
<path d="M439.036 7.65381L469.658 7.65381V14.7423L439.036 14.7423V7.65381Z" fill="#04005E"/>
<path d="M431.097 23.2488L477.314 23.2488V30.3372L431.097 30.3372V23.2488Z" fill="#04005E"/>
<path d="M481 19.3154L481 26.7354L473.933 26.7354L473.933 19.3154L481 19.3154Z" fill="#04005E"/>
<path d="M439.036 46.498L469.658 46.498V53.5865H439.036V46.498Z" fill="#04005E"/>
<path d="M434.762 18.9622L434.762 42.2822L427.695 42.2822L427.695 18.9622L434.762 18.9622Z" fill="#04005E"/>
<path fill-rule="evenodd" clip-rule="evenodd" d="M434.478 41.9987L434.478 19.2457L427.979 19.2457L427.979 41.9987L434.478 41.9987ZM434.762 18.9622L427.695 18.9622L427.695 42.2822L434.762 42.2822L434.762 18.9622Z" fill="#04005E"/>
</svg>
